MidiFile(type=1, ticks_per_beat=480, tracks=[
  MidiTrack([
    MetaMessage('track_name', name='Flute\x00', time=0),
    MetaMessage('time_signature', numerator=4, denominator=4, clocks_per_click=24, notated_32nd_notes_per_beat=8, time=0),
    MetaMessage('key_signature', key='D', time=0),
    MetaMessage('set_tempo', tempo=638298, time=0),
    Message('control_change', channel=0, control=121, value=0, time=0),
    Message('program_change', channel=0, program=73, time=0),
    Message('control_change', channel=0, control=7, value=100, time=0),
    Message('control_change', channel=0, control=10, value=64, time=0),
    Message('control_change', channel=0, control=91, value=0, time=0),
    Message('control_change', channel=0, control=93, value=0, time=0),
    MetaMessage('midi_port', port=0, time=0),
    Message('note_on', channel=0, note=74, velocity=112, time=34560),
    Message('control_change', channel=0, control=2, value=112, time=0),
    Message('note_on', channel=0, note=74, velocity=0, time=911),
    Message('note_on', channel=0, note=76, velocity=112, time=49),
    Message('control_change', channel=0, control=2, value=112, time=0),
    Message('note_on', channel=0, note=76, velocity=0, time=911),
    Message('note_on', channel=0, note=78, velocity=112, time=49),
    Message('control_change', channel=0, control=2, value=112, time=0),
    Message('note_on', channel=0, note=78, velocity=0, time=1823),
    Message('note_on', channel=0, note=78, velocity=112, time=97),
    Message('control_change', channel=0, control=2, value=112, time=0),
    Message('note_on', channel=0, note=78, velocity=0, time=911),
    Message('note_on', channel=0, note=79, velocity=112, time=49),
    Message('control_change', channel=0, control=2, value=112, time=0),
    Message('note_on', channel=0, note=79, velocity=0, time=455),
    Message('note_on', channel=0, note=82, velocity=112, time=25),
    Message('control_change', channel=0, control=2, value=112, time=0),
    Message('note_on', channel=0, note=82, velocity=0, time=455),
    Message('note_on', channel=0, note=83, velocity=112, time=25),
    Message('control_change', channel=0, control=2, value=112, time=0),
    Message('note_on', channel=0, note=83, velocity=0, time=1823),
    Message('note_on', channel=0, note=83, velocity=112, time=97),
    Message('control_change', channel=0, control=2, value=112, time=0),
    Message('note_on', channel=0, note=83, velocity=0, time=1823),
    Message('note_on', channel=0, note=83, velocity=112, time=97),
    Message('control_change', channel=0, control=2, value=112, time=0),
    Message('control_change', channel=0, control=2, value=112, time=1920),
    Message('note_on', channel=0, note=83, velocity=0, time=815),
    Message('note_on', channel=0, note=79, velocity=112, time=145),
    Message('control_change', channel=0, control=2, value=112, time=0),
    Message('note_on', channel=0, note=79, velocity=0, time=455),
    Message('note_on', channel=0, note=82, velocity=112, time=25),
    Message('control_change', channel=0, control=2, value=112, time=0),
    Message('note_on', channel=0, note=82, velocity=0, time=455),
    Message('control_change', channel=0, control=2, value=96, time=25),
    Message('note_on', channel=0, note=78, velocity=96, time=0),
    Message('note_on', channel=0, note=83, velocity=96, time=0),
    Message('note_on', channel=0, note=78, velocity=0, time=151),
    Message('note_on', channel=0, note=83, velocity=0, time=0),
    Message('note_on', channel=0, note=78, velocity=96, time=9),
    Message('control_change', channel=0, control=2, value=96, time=0),
    Message('note_on', channel=0, note=83, velocity=96, time=0),
    Message('note_on', channel=0, note=78, velocity=0, time=151),
    Message('note_on', channel=0, note=83, velocity=0, time=0),
    Message('note_on', channel=0, note=78, velocity=96, time=9),
    Message('control_change', channel=0, control=2, value=96, time=0),
    Message('note_on', channel=0, note=83, velocity=96, time=0),
    Message('note_on', channel=0, note=78, velocity=0, time=151),
    Message('note_on', channel=0, note=83, velocity=0, time=0),
    Message('note_on', channel=0, note=78, velocity=96, time=9),
    Message('control_change', channel=0, control=2, value=96, time=0),
    Message('note_on', channel=0, note=83, velocity=96, time=0),
    Message('note_on', channel=0, note=78, velocity=0, time=150),
    Message('note_on', channel=0, note=83, velocity=0, time=0),
    Message('note_on', channel=0, note=78, velocity=96, time=9),
    Message('note_on', channel=0, note=83, velocity=96, time=0),
    Message('note_on', channel=0, note=78, velocity=0, time=150),
    Message('note_on', channel=0, note=83, velocity=0, time=0),
    Message('note_on', channel=0, note=78, velocity=96, time=10),
    Message('note_on', channel=0, note=83, velocity=96, time=0),
    Message('note_on', channel=0, note=78, velocity=0, time=150),
    Message('note_on', channel=0, note=83, velocity=0, time=0),
    Message('note_on', channel=0, note=78, velocity=96, time=11),
    Message('control_change', channel=0, control=2, value=96, time=0),
    Message('note_on', channel=0, note=83, velocity=96, time=0),
    Message('note_on', channel=0, note=78, velocity=0, time=149),
    Message('note_on', channel=0, note=83, velocity=0, time=0),
    Message('note_on', channel=0, note=78, velocity=96, time=10),
    Message('note_on', channel=0, note=83, velocity=96, time=0),
    Message('note_on', channel=0, note=78, velocity=0, time=149),
    Message('note_on', channel=0, note=83, velocity=0, time=0),
    Message('note_on', channel=0, note=78, velocity=96, time=10),
    Message('note_on', channel=0, note=83, velocity=96, time=0),
    Message('note_on', channel=0, note=78, velocity=0, time=149),
    Message('note_on', channel=0, note=83, velocity=0, time=0),
    Message('note_on', channel=0, note=78, velocity=96, time=11),
    Message('note_on', channel=0, note=83, velocity=96, time=0),
    Message('note_on', channel=0, note=78, velocity=0, time=149),
    Message('note_on', channel=0, note=83, velocity=0, time=0),
    Message('note_on', channel=0, note=78, velocity=96, time=10),
    Message('note_on', channel=0, note=83, velocity=96, time=0),
    Message('note_on', channel=0, note=78, velocity=0, time=149),
    Message('note_on', channel=0, note=83, velocity=0, time=0),
    Message('note_on', channel=0, note=78, velocity=96, time=10),
    Message('note_on', channel=0, note=83, velocity=96, time=0),
    Message('note_on', channel=0, note=78, velocity=0, time=149),
    Message('note_on', channel=0, note=83, velocity=0, time=0),
    Message('note_on', channel=0, note=81, velocity=96, time=15),
    Message('control_change', channel=0, control=2, value=96, time=0),
    Message('note_on', channel=0, note=85, velocity=96, time=0),
    Message('note_on', channel=0, note=81, velocity=0, time=149),
    Message('note_on', channel=0, note=85, velocity=0, time=0),
    Message('note_on', channel=0, note=81, velocity=96, time=10),
    Message('note_on', channel=0, note=85, velocity=96, time=0),
    Message('note_on', channel=0, note=81, velocity=0, time=149),
    Message('note_on', channel=0, note=85, velocity=0, time=0),
    Message('note_on', channel=0, note=81, velocity=96, time=10),
    Message('note_on', channel=0, note=85, velocity=96, time=0),
    Message('note_on', channel=0, note=81, velocity=0, time=149),
    Message('note_on', channel=0, note=85, velocity=0, time=0),
    Message('note_on', channel=0, note=81, velocity=96, time=11),
    Message('note_on', channel=0, note=85, velocity=96, time=0),
    Message('note_on', channel=0, note=81, velocity=0, time=149),
    Message('note_on', channel=0, note=85, velocity=0, time=0),
    Message('note_on', channel=0, note=81, velocity=96, time=10),
    Message('note_on', channel=0, note=85, velocity=96, time=0),
    Message('note_on', channel=0, note=81, velocity=0, time=149),
    Message('note_on', channel=0, note=85, velocity=0, time=0),
    Message('note_on', channel=0, note=81, velocity=96, time=10),
    Message('note_on', channel=0, note=85, velocity=96, time=0),
    Message('note_on', channel=0, note=81, velocity=0, time=149),
    Message('note_on', channel=0, note=85, velocity=0, time=0),
    Message('note_on', channel=0, note=81, velocity=96, time=15),
    Message('control_change', channel=0, control=2, value=96, time=0),
    Message('note_on', channel=0, note=85, velocity=96, time=0),
    Message('note_on', channel=0, note=81, velocity=0, time=149),
    Message('note_on', channel=0, note=85, velocity=0, time=0),
    Message('note_on', channel=0, note=81, velocity=96, time=10),
    Message('note_on', channel=0, note=85, velocity=96, time=0),
    Message('note_on', channel=0, note=81, velocity=0, time=149),
    Message('note_on', channel=0, note=85, velocity=0, time=0),
    Message('note_on', channel=0, note=81, velocity=96, time=10),
    Message('note_on', channel=0, note=85, velocity=96, time=0),
    Message('note_on', channel=0, note=81, velocity=0, time=149),
    Message('note_on', channel=0, note=85, velocity=0, time=0),
    Message('note_on', channel=0, note=81, velocity=96, time=11),
    Message('note_on', channel=0, note=85, velocity=96, time=0),
    Message('note_on', channel=0, note=81, velocity=0, time=149),
    Message('note_on', channel=0, note=85, velocity=0, time=0),
    Message('note_on', channel=0, note=81, velocity=96, time=10),
    Message('note_on', channel=0, note=85, velocity=96, time=0),
    Message('note_on', channel=0, note=81, velocity=0, time=149),
    Message('note_on', channel=0, note=85, velocity=0, time=0),
    Message('note_on', channel=0, note=81, velocity=96, time=10),
    Message('note_on', channel=0, note=85, velocity=96, time=0),
    Message('note_on', channel=0, note=81, velocity=0, time=149),
    Message('note_on', channel=0, note=85, velocity=0, time=0),
    Message('note_on', channel=0, note=81, velocity=96, time=15),
    Message('control_change', channel=0, control=2, value=96, time=0),
    Message('note_on', channel=0, note=85, velocity=96, time=0),
    Message('note_on', channel=0, note=81, velocity=0, time=149),
    Message('note_on', channel=0, note=85, velocity=0, time=0),
    Message('note_on', channel=0, note=81, velocity=96, time=10),
    Message('note_on', channel=0, note=85, velocity=96, time=0),
    Message('note_on', channel=0, note=81, velocity=0, time=149),
    Message('note_on', channel=0, note=85, velocity=0, time=0),
    Message('note_on', channel=0, note=81, velocity=96, time=10),
    Message('note_on', channel=0, note=85, velocity=96, time=0),
    Message('note_on', channel=0, note=81, velocity=0, time=149),
    Message('note_on', channel=0, note=85, velocity=0, time=0),
    Message('note_on', channel=0, note=81, velocity=96, time=11),
    Message('note_on', channel=0, note=85, velocity=96, time=0),
    Message('note_on', channel=0, note=81, velocity=0, time=149),
    Message('note_on', channel=0, note=85, velocity=0, time=0),
    Message('note_on', channel=0, note=81, velocity=96, time=10),
    Message('note_on', channel=0, note=85, velocity=96, time=0),
    Message('note_on', channel=0, note=81, velocity=0, time=149),
    Message('note_on', channel=0, note=85, velocity=0, time=0),
    Message('note_on', channel=0, note=81, velocity=96, time=10),
    Message('note_on', channel=0, note=85, velocity=96, time=0),
    Message('note_on', channel=0, note=81, velocity=0, time=149),
    Message('note_on', channel=0, note=85, velocity=0, time=0),
    Message('note_on', channel=0, note=81, velocity=96, time=15),
    Message('control_change', channel=0, control=2, value=96, time=0),
    Message('note_on', channel=0, note=85, velocity=96, time=0),
    Message('note_on', channel=0, note=81, velocity=0, time=149),
    Message('note_on', channel=0, note=85, velocity=0, time=0),
    Message('note_on', channel=0, note=81, velocity=96, time=10),
    Message('note_on', channel=0, note=85, velocity=96, time=0),
    Message('note_on', channel=0, note=81, velocity=0, time=149),
    Message('note_on', channel=0, note=85, velocity=0, time=0),
    Message('note_on', channel=0, note=81, velocity=96, time=10),
    Message('note_on', channel=0, note=85, velocity=96, time=0),
    Message('note_on', channel=0, note=81, velocity=0, time=149),
    Message('note_on', channel=0, note=85, velocity=0, time=0),
    Message('note_on', channel=0, note=81, velocity=96, time=11),
    Message('note_on', channel=0, note=85, velocity=96, time=0),
    Message('note_on', channel=0, note=81, velocity=0, time=149),
    Message('note_on', channel=0, note=85, velocity=0, time=0),
    Message('note_on', channel=0, note=81, velocity=96, time=10),
    Message('note_on', channel=0, note=85, velocity=96, time=0),
    Message('note_on', channel=0, note=81, velocity=0, time=149),
    Message('note_on', channel=0, note=85, velocity=0, time=0),
    Message('note_on', channel=0, note=81, velocity=96, time=10),
    Message('note_on', channel=0, note=85, velocity=96, time=0),
    Message('note_on', channel=0, note=81, velocity=0, time=149),
    Message('note_on', channel=0, note=85, velocity=0, time=0),
    Message('note_on', channel=0, note=83, velocity=96, time=15),
    Message('control_change', channel=0, control=2, value=96, time=0),
    Message('note_on', channel=0, note=88, velocity=96, time=0),
    Message('note_on', channel=0, note=83, velocity=0, time=149),
    Message('note_on', channel=0, note=88, velocity=0, time=0),
    Message('note_on', channel=0, note=83, velocity=96, time=10),
    Message('note_on', channel=0, note=88, velocity=96, time=0),
    Message('note_on', channel=0, note=83, velocity=0, time=149),
    Message('note_on', channel=0, note=88, velocity=0, time=0),
    Message('note_on', channel=0, note=83, velocity=96, time=10),
    Message('note_on', channel=0, note=88, velocity=96, time=0),
    Message('note_on', channel=0, note=83, velocity=0, time=149),
    Message('note_on', channel=0, note=88, velocity=0, time=0),
    Message('note_on', channel=0, note=83, velocity=96, time=11),
    Message('note_on', channel=0, note=88, velocity=96, time=0),
    Message('note_on', channel=0, note=83, velocity=0, time=149),
    Message('note_on', channel=0, note=88, velocity=0, time=0),
    Message('note_on', channel=0, note=83, velocity=96, time=10),
    Message('note_on', channel=0, note=88, velocity=96, time=0),
    Message('note_on', channel=0, note=83, velocity=0, time=149),
    Message('note_on', channel=0, note=88, velocity=0, time=0),
    Message('note_on', channel=0, note=83, velocity=96, time=10),
    Message('note_on', channel=0, note=88, velocity=96, time=0),
    Message('note_on', channel=0, note=83, velocity=0, time=149),
    Message('note_on', channel=0, note=88, velocity=0, time=0),
    Message('note_on', channel=0, note=83, velocity=96, time=15),
    Message('control_change', channel=0, control=2, value=96, time=0),
    Message('note_on', channel=0, note=88, velocity=96, time=0),
    Message('note_on', channel=0, note=83, velocity=0, time=149),
    Message('note_on', channel=0, note=88, velocity=0, time=0),
    Message('note_on', channel=0, note=83, velocity=96, time=10),
    Message('note_on', channel=0, note=88, velocity=96, time=0),
    Message('note_on', channel=0, note=83, velocity=0, time=149),
    Message('note_on', channel=0, note=88, velocity=0, time=0),
    Message('note_on', channel=0, note=83, velocity=96, time=10),
    Message('note_on', channel=0, note=88, velocity=96, time=0),
    Message('note_on', channel=0, note=83, velocity=0, time=149),
    Message('note_on', channel=0, note=88, velocity=0, time=0),
    Message('note_on', channel=0, note=83, velocity=96, time=11),
    Message('note_on', channel=0, note=88, velocity=96, time=0),
    Message('note_on', channel=0, note=83, velocity=0, time=149),
    Message('note_on', channel=0, note=88, velocity=0, time=0),
    Message('note_on', channel=0, note=83, velocity=96, time=10),
    Message('note_on', channel=0, note=88, velocity=96, time=0),
    Message('note_on', channel=0, note=83, velocity=0, time=149),
    Message('note_on', channel=0, note=88, velocity=0, time=0),
    Message('note_on', channel=0, note=83, velocity=96, time=10),
    Message('note_on', channel=0, note=88, velocity=96, time=0),
    Message('note_on', channel=0, note=83, velocity=0, time=149),
    Message('note_on', channel=0, note=88, velocity=0, time=0),
    Message('note_on', channel=0, note=85, velocity=96, time=15),
    Message('control_change', channel=0, control=2, value=96, time=0),
    Message('note_on', channel=0, note=89, velocity=96, time=0),
    Message('note_on', channel=0, note=85, velocity=0, time=149),
    Message('note_on', channel=0, note=89, velocity=0, time=0),
    Message('note_on', channel=0, note=85, velocity=96, time=10),
    Message('note_on', channel=0, note=89, velocity=96, time=0),
    Message('note_on', channel=0, note=85, velocity=0, time=149),
    Message('note_on', channel=0, note=89, velocity=0, time=0),
    Message('note_on', channel=0, note=85, velocity=96, time=10),
    Message('note_on', channel=0, note=89, velocity=96, time=0),
    Message('note_on', channel=0, note=85, velocity=0, time=149),
    Message('note_on', channel=0, note=89, velocity=0, time=0),
    Message('note_on', channel=0, note=85, velocity=96, time=11),
    Message('note_on', channel=0, note=89, velocity=96, time=0),
    Message('note_on', channel=0, note=85, velocity=0, time=149),
    Message('note_on', channel=0, note=89, velocity=0, time=0),
    Message('note_on', channel=0, note=85, velocity=96, time=10),
    Message('note_on', channel=0, note=89, velocity=96, time=0),
    Message('note_on', channel=0, note=85, velocity=0, time=149),
    Message('note_on', channel=0, note=89, velocity=0, time=0),
    Message('note_on', channel=0, note=85, velocity=96, time=10),
    Message('note_on', channel=0, note=89, velocity=96, time=0),
    Message('note_on', channel=0, note=85, velocity=0, time=149),
    Message('note_on', channel=0, note=89, velocity=0, time=0),
    Message('note_on', channel=0, note=85, velocity=96, time=15),
    Message('control_change', channel=0, control=2, value=96, time=0),
    Message('note_on', channel=0, note=90, velocity=96, time=0),
    Message('note_on', channel=0, note=85, velocity=0, time=150),
    Message('note_on', channel=0, note=90, velocity=0, time=0),
    Message('note_on', channel=0, note=85, velocity=96, time=9),
    Message('note_on', channel=0, note=90, velocity=96, time=0),
    Message('note_on', channel=0, note=85, velocity=0, time=150),
    Message('note_on', channel=0, note=90, velocity=0, time=0),
    Message('note_on', channel=0, note=85, velocity=96, time=10),
    Message('note_on', channel=0, note=90, velocity=96, time=0),
    Message('note_on', channel=0, note=85, velocity=0, time=150),
    Message('note_on', channel=0, note=90, velocity=0, time=0),
    Message('note_on', channel=0, note=83, velocity=96, time=11),
    Message('control_change', channel=0, control=2, value=96, time=0),
    Message('note_on', channel=0, note=86, velocity=96, time=0),
    Message('note_on', channel=0, note=83, velocity=0, time=151),
    Message('note_on', channel=0, note=86, velocity=0, time=0),
    Message('note_on', channel=0, note=83, velocity=96, time=9),
    Message('control_change', channel=0, control=2, value=96, time=0),
    Message('note_on', channel=0, note=86, velocity=96, time=0),
    Message('note_on', channel=0, note=83, velocity=0, time=151),
    Message('note_on', channel=0, note=86, velocity=0, time=0),
    Message('note_on', channel=0, note=78, velocity=96, time=9),
    Message('control_change', channel=0, control=2, value=96, time=0),
    Message('note_on', channel=0, note=83, velocity=96, time=0),
    Message('note_on', channel=0, note=78, velocity=0, time=151),
    Message('note_on', channel=0, note=83, velocity=0, time=0),
    Message('note_on', channel=0, note=81, velocity=96, time=9),
    Message('control_change', channel=0, control=2, value=96, time=0),
    Message('note_on', channel=0, note=85, velocity=96, time=0),
    Message('note_on', channel=0, note=81, velocity=0, time=149),
    Message('note_on', channel=0, note=85, velocity=0, time=0),
    Message('note_on', channel=0, note=81, velocity=96, time=10),
    Message('note_on', channel=0, note=85, velocity=96, time=0),
    Message('note_on', channel=0, note=81, velocity=0, time=149),
    Message('note_on', channel=0, note=85, velocity=0, time=0),
    Message('note_on', channel=0, note=81, velocity=96, time=10),
    Message('note_on', channel=0, note=85, velocity=96, time=0),
    Message('note_on', channel=0, note=81, velocity=0, time=149),
    Message('note_on', channel=0, note=85, velocity=0, time=0),
    Message('note_on', channel=0, note=81, velocity=96, time=11),
    Message('note_on', channel=0, note=85, velocity=96, time=0),
    Message('note_on', channel=0, note=81, velocity=0, time=149),
    Message('note_on', channel=0, note=85, velocity=0, time=0),
    Message('note_on', channel=0, note=81, velocity=96, time=10),
    Message('note_on', channel=0, note=85, velocity=96, time=0),
    Message('note_on', channel=0, note=81, velocity=0, time=149),
    Message('note_on', channel=0, note=85, velocity=0, time=0),
    Message('note_on', channel=0, note=81, velocity=96, time=10),
    Message('note_on', channel=0, note=85, velocity=96, time=0),
    Message('note_on', channel=0, note=81, velocity=0, time=149),
    Message('note_on', channel=0, note=85, velocity=0, time=0),
    Message('note_on', channel=0, note=81, velocity=96, time=15),
    Message('control_change', channel=0, control=2, value=96, time=0),
    Message('note_on', channel=0, note=85, velocity=96, time=0),
    Message('note_on', channel=0, note=81, velocity=0, time=149),
    Message('note_on', channel=0, note=85, velocity=0, time=0),
    Message('note_on', channel=0, note=81, velocity=96, time=10),
    Message('note_on', channel=0, note=85, velocity=96, time=0),
    Message('note_on', channel=0, note=81, velocity=0, time=149),
    Message('note_on', channel=0, note=85, velocity=0, time=0),
    Message('note_on', channel=0, note=81, velocity=96, time=10),
    Message('note_on', channel=0, note=85, velocity=96, time=0),
    Message('note_on', channel=0, note=81, velocity=0, time=149),
    Message('note_on', channel=0, note=85, velocity=0, time=0),
    Message('note_on', channel=0, note=81, velocity=96, time=11),
    Message('note_on', channel=0, note=85, velocity=96, time=0),
    Message('note_on', channel=0, note=81, velocity=0, time=149),
    Message('note_on', channel=0, note=85, velocity=0, time=0),
    Message('note_on', channel=0, note=81, velocity=96, time=10),
    Message('note_on', channel=0, note=85, velocity=96, time=0),
    Message('note_on', channel=0, note=81, velocity=0, time=149),
    Message('note_on', channel=0, note=85, velocity=0, time=0),
    Message('note_on', channel=0, note=81, velocity=96, time=10),
    Message('note_on', channel=0, note=85, velocity=96, time=0),
    Message('note_on', channel=0, note=81, velocity=0, time=149),
    Message('note_on', channel=0, note=85, velocity=0, time=0),
    Message('note_on', channel=0, note=81, velocity=96, time=15),
    Message('control_change', channel=0, control=2, value=96, time=0),
    Message('note_on', channel=0, note=85, velocity=96, time=0),
    Message('note_on', channel=0, note=81, velocity=0, time=149),
    Message('note_on', channel=0, note=85, velocity=0, time=0),
    Message('note_on', channel=0, note=81, velocity=96, time=10),
    Message('note_on', channel=0, note=85, velocity=96, time=0),
    Message('note_on', channel=0, note=81, velocity=0, time=149),
    Message('note_on', channel=0, note=85, velocity=0, time=0),
    Message('note_on', channel=0, note=81, velocity=96, time=10),
    Message('note_on', channel=0, note=85, velocity=96, time=0),
    Message('note_on', channel=0, note=81, velocity=0, time=149),
    Message('note_on', channel=0, note=85, velocity=0, time=0),
    Message('note_on', channel=0, note=81, velocity=96, time=11),
    Message('note_on', channel=0, note=85, velocity=96, time=0),
    Message('note_on', channel=0, note=81, velocity=0, time=149),
    Message('note_on', channel=0, note=85, velocity=0, time=0),
    Message('note_on', channel=0, note=81, velocity=96, time=10),
    Message('note_on', channel=0, note=85, velocity=96, time=0),
    Message('note_on', channel=0, note=81, velocity=0, time=149),
    Message('note_on', channel=0, note=85, velocity=0, time=0),
    Message('note_on', channel=0, note=81, velocity=96, time=10),
    Message('note_on', channel=0, note=85, velocity=96, time=0),
    Message('note_on', channel=0, note=81, velocity=0, time=149),
    Message('note_on', channel=0, note=85, velocity=0, time=0),
    Message('note_on', channel=0, note=81, velocity=96, time=15),
    Message('control_change', channel=0, control=2, value=96, time=0),
    Message('note_on', channel=0, note=85, velocity=96, time=0),
    Message('note_on', channel=0, note=81, velocity=0, time=149),
    Message('note_on', channel=0, note=85, velocity=0, time=0),
    Message('note_on', channel=0, note=81, velocity=96, time=10),
    Message('note_on', channel=0, note=85, velocity=96, time=0),
    Message('note_on', channel=0, note=81, velocity=0, time=149),
    Message('note_on', channel=0, note=85, velocity=0, time=0),
    Message('note_on', channel=0, note=81, velocity=96, time=10),
    Message('note_on', channel=0, note=85, velocity=96, time=0),
    Message('note_on', channel=0, note=81, velocity=0, time=149),
    Message('note_on', channel=0, note=85, velocity=0, time=0),
    Message('note_on', channel=0, note=81, velocity=96, time=11),
    Message('note_on', channel=0, note=85, velocity=96, time=0),
    Message('note_on', channel=0, note=81, velocity=0, time=149),
    Message('note_on', channel=0, note=85, velocity=0, time=0),
    Message('note_on', channel=0, note=81, velocity=96, time=10),
    Message('note_on', channel=0, note=85, velocity=96, time=0),
    Message('note_on', channel=0, note=81, velocity=0, time=149),
    Message('note_on', channel=0, note=85, velocity=0, time=0),
    Message('note_on', channel=0, note=81, velocity=96, time=10),
    Message('note_on', channel=0, note=85, velocity=96, time=0),
    Message('note_on', channel=0, note=81, velocity=0, time=149),
    Message('note_on', channel=0, note=85, velocity=0, time=0),
    Message('note_on', channel=0, note=83, velocity=96, time=15),
    Message('control_change', channel=0, control=2, value=96, time=0),
    Message('note_on', channel=0, note=88, velocity=96, time=0),
    Message('note_on', channel=0, note=83, velocity=0, time=150),
    Message('note_on', channel=0, note=88, velocity=0, time=0),
    Message('note_on', channel=0, note=83, velocity=96, time=9),
    Message('note_on', channel=0, note=88, velocity=96, time=0),
    Message('note_on', channel=0, note=83, velocity=0, time=150),
    Message('note_on', channel=0, note=88, velocity=0, time=0),
    Message('note_on', channel=0, note=83, velocity=96, time=10),
    Message('note_on', channel=0, note=88, velocity=96, time=0),
    Message('note_on', channel=0, note=83, velocity=0, time=150),
    Message('note_on', channel=0, note=88, velocity=0, time=0),
    Message('note_on', channel=0, note=79, velocity=96, time=11),
    Message('control_change', channel=0, control=2, value=96, time=0),
    Message('note_on', channel=0, note=83, velocity=96, time=0),
    Message('note_on', channel=0, note=79, velocity=0, time=150),
    Message('note_on', channel=0, note=83, velocity=0, time=0),
    Message('note_on', channel=0, note=79, velocity=96, time=9),
    Message('note_on', channel=0, note=83, velocity=96, time=0),
    Message('note_on', channel=0, note=79, velocity=0, time=150),
    Message('note_on', channel=0, note=83, velocity=0, time=0),
    Message('note_on', channel=0, note=79, velocity=96, time=10),
    Message('note_on', channel=0, note=83, velocity=96, time=0),
    Message('note_on', channel=0, note=79, velocity=0, time=150),
    Message('note_on', channel=0, note=83, velocity=0, time=0),
    Message('note_on', channel=0, note=79, velocity=96, time=11),
    Message('control_change', channel=0, control=2, value=96, time=0),
    Message('note_on', channel=0, note=83, velocity=96, time=0),
    Message('note_on', channel=0, note=79, velocity=0, time=149),
    Message('note_on', channel=0, note=83, velocity=0, time=0),
    Message('note_on', channel=0, note=79, velocity=96, time=10),
    Message('note_on', channel=0, note=83, velocity=96, time=0),
    Message('note_on', channel=0, note=79, velocity=0, time=149),
    Message('note_on', channel=0, note=83, velocity=0, time=0),
    Message('note_on', channel=0, note=79, velocity=96, time=10),
    Message('note_on', channel=0, note=83, velocity=96, time=0),
    Message('note_on', channel=0, note=79, velocity=0, time=149),
    Message('note_on', channel=0, note=83, velocity=0, time=0),
    Message('note_on', channel=0, note=79, velocity=96, time=11),
    Message('note_on', channel=0, note=83, velocity=96, time=0),
    Message('note_on', channel=0, note=79, velocity=0, time=149),
    Message('note_on', channel=0, note=83, velocity=0, time=0),
    Message('note_on', channel=0, note=79, velocity=96, time=10),
    Message('note_on', channel=0, note=83, velocity=96, time=0),
    Message('note_on', channel=0, note=79, velocity=0, time=149),
    Message('note_on', channel=0, note=83, velocity=0, time=0),
    Message('note_on', channel=0, note=79, velocity=96, time=10),
    Message('note_on', channel=0, note=83, velocity=96, time=0),
    Message('note_on', channel=0, note=79, velocity=0, time=149),
    Message('note_on', channel=0, note=83, velocity=0, time=0),
    Message('note_on', channel=0, note=79, velocity=96, time=15),
    Message('control_change', channel=0, control=2, value=96, time=0),
    Message('note_on', channel=0, note=84, velocity=96, time=0),
    Message('note_on', channel=0, note=79, velocity=0, time=149),
    Message('note_on', channel=0, note=84, velocity=0, time=0),
    Message('note_on', channel=0, note=79, velocity=96, time=10),
    Message('note_on', channel=0, note=84, velocity=96, time=0),
    Message('note_on', channel=0, note=79, velocity=0, time=149),
    Message('note_on', channel=0, note=84, velocity=0, time=0),
    Message('note_on', channel=0, note=79, velocity=96, time=10),
    Message('note_on', channel=0, note=84, velocity=96, time=0),
    Message('note_on', channel=0, note=79, velocity=0, time=149),
    Message('note_on', channel=0, note=84, velocity=0, time=0),
    Message('note_on', channel=0, note=79, velocity=96, time=11),
    Message('note_on', channel=0, note=84, velocity=96, time=0),
    Message('note_on', channel=0, note=79, velocity=0, time=149),
    Message('note_on', channel=0, note=84, velocity=0, time=0),
    Message('note_on', channel=0, note=79, velocity=96, time=10),
    Message('note_on', channel=0, note=84, velocity=96, time=0),
    Message('note_on', channel=0, note=79, velocity=0, time=149),
    Message('note_on', channel=0, note=84, velocity=0, time=0),
    Message('note_on', channel=0, note=79, velocity=96, time=10),
    Message('note_on', channel=0, note=84, velocity=96, time=0),
    Message('note_on', channel=0, note=79, velocity=0, time=149),
    Message('note_on', channel=0, note=84, velocity=0, time=0),
    Message('note_on', channel=0, note=79, velocity=96, time=15),
    Message('control_change', channel=0, control=2, value=96, time=0),
    Message('note_on', channel=0, note=83, velocity=96, time=0),
    Message('note_on', channel=0, note=79, velocity=0, time=149),
    Message('note_on', channel=0, note=83, velocity=0, time=0),
    Message('note_on', channel=0, note=79, velocity=96, time=10),
    Message('note_on', channel=0, note=83, velocity=96, time=0),
    Message('note_on', channel=0, note=79, velocity=0, time=149),
    Message('note_on', channel=0, note=83, velocity=0, time=0),
    Message('note_on', channel=0, note=79, velocity=96, time=10),
    Message('note_on', channel=0, note=83, velocity=96, time=0),
    Message('note_on', channel=0, note=79, velocity=0, time=149),
    Message('note_on', channel=0, note=83, velocity=0, time=0),
    Message('note_on', channel=0, note=79, velocity=96, time=11),
    Message('note_on', channel=0, note=83, velocity=96, time=0),
    Message('note_on', channel=0, note=79, velocity=0, time=149),
    Message('note_on', channel=0, note=83, velocity=0, time=0),
    Message('note_on', channel=0, note=79, velocity=96, time=10),
    Message('note_on', channel=0, note=83, velocity=96, time=0),
    Message('note_on', channel=0, note=79, velocity=0, time=149),
    Message('note_on', channel=0, note=83, velocity=0, time=0),
    Message('note_on', channel=0, note=79, velocity=96, time=10),
    Message('note_on', channel=0, note=83, velocity=96, time=0),
    Message('note_on', channel=0, note=79, velocity=0, time=149),
    Message('note_on', channel=0, note=83, velocity=0, time=0),
    Message('note_on', channel=0, note=78, velocity=96, time=15),
    Message('control_change', channel=0, control=2, value=96, time=0),
    Message('note_on', channel=0, note=82, velocity=96, time=0),
    Message('note_on', channel=0, note=78, velocity=0, time=149),
    Message('note_on', channel=0, note=82, velocity=0, time=0),
    Message('note_on', channel=0, note=78, velocity=96, time=10),
    Message('note_on', channel=0, note=82, velocity=96, time=0),
    Message('note_on', channel=0, note=78, velocity=0, time=149),
    Message('note_on', channel=0, note=82, velocity=0, time=0),
    Message('note_on', channel=0, note=78, velocity=96, time=10),
    Message('note_on', channel=0, note=82, velocity=96, time=0),
    Message('note_on', channel=0, note=78, velocity=0, time=149),
    Message('note_on', channel=0, note=82, velocity=0, time=0),
    Message('note_on', channel=0, note=78, velocity=96, time=11),
    Message('note_on', channel=0, note=82, velocity=96, time=0),
    Message('note_on', channel=0, note=78, velocity=0, time=149),
    Message('note_on', channel=0, note=82, velocity=0, time=0),
    Message('note_on', channel=0, note=78, velocity=96, time=10),
    Message('note_on', channel=0, note=82, velocity=96, time=0),
    Message('note_on', channel=0, note=78, velocity=0, time=149),
    Message('note_on', channel=0, note=82, velocity=0, time=0),
    Message('note_on', channel=0, note=78, velocity=96, time=10),
    Message('note_on', channel=0, note=82, velocity=96, time=0),
    Message('note_on', channel=0, note=78, velocity=0, time=149),
    Message('note_on', channel=0, note=82, velocity=0, time=0),
    Message('note_on', channel=0, note=79, velocity=96, time=15),
    Message('control_change', channel=0, control=2, value=96, time=0),
    Message('note_on', channel=0, note=83, velocity=96, time=0),
    Message('note_on', channel=0, note=79, velocity=0, time=149),
    Message('note_on', channel=0, note=83, velocity=0, time=0),
    Message('note_on', channel=0, note=79, velocity=96, time=10),
    Message('note_on', channel=0, note=83, velocity=96, time=0),
    Message('note_on', channel=0, note=79, velocity=0, time=149),
    Message('note_on', channel=0, note=83, velocity=0, time=0),
    Message('note_on', channel=0, note=79, velocity=96, time=10),
    Message('note_on', channel=0, note=83, velocity=96, time=0),
    Message('note_on', channel=0, note=79, velocity=0, time=149),
    Message('note_on', channel=0, note=83, velocity=0, time=0),
    Message('note_on', channel=0, note=79, velocity=96, time=11),
    Message('note_on', channel=0, note=83, velocity=96, time=0),
    Message('note_on', channel=0, note=79, velocity=0, time=149),
    Message('note_on', channel=0, note=83, velocity=0, time=0),
    Message('note_on', channel=0, note=79, velocity=96, time=10),
    Message('note_on', channel=0, note=83, velocity=96, time=0),
    Message('note_on', channel=0, note=79, velocity=0, time=149),
    Message('note_on', channel=0, note=83, velocity=0, time=0),
    Message('note_on', channel=0, note=79, velocity=96, time=10),
    Message('note_on', channel=0, note=83, velocity=96, time=0),
    Message('note_on', channel=0, note=79, velocity=0, time=149),
    Message('note_on', channel=0, note=83, velocity=0, time=0),
    Message('note_on', channel=0, note=79, velocity=96, time=15),
    Message('control_change', channel=0, control=2, value=96, time=0),
    Message('note_on', channel=0, note=84, velocity=96, time=0),
    Message('note_on', channel=0, note=79, velocity=0, time=149),
    Message('note_on', channel=0, note=84, velocity=0, time=0),
    Message('note_on', channel=0, note=79, velocity=96, time=10),
    Message('note_on', channel=0, note=84, velocity=96, time=0),
    Message('note_on', channel=0, note=79, velocity=0, time=149),
    Message('note_on', channel=0, note=84, velocity=0, time=0),
    Message('note_on', channel=0, note=79, velocity=96, time=10),
    Message('note_on', channel=0, note=84, velocity=96, time=0),
    Message('note_on', channel=0, note=79, velocity=0, time=149),
    Message('note_on', channel=0, note=84, velocity=0, time=0),
    Message('note_on', channel=0, note=79, velocity=96, time=11),
    Message('note_on', channel=0, note=84, velocity=96, time=0),
    Message('note_on', channel=0, note=79, velocity=0, time=149),
    Message('note_on', channel=0, note=84, velocity=0, time=0),
    Message('note_on', channel=0, note=79, velocity=96, time=10),
    Message('note_on', channel=0, note=84, velocity=96, time=0),
    Message('note_on', channel=0, note=79, velocity=0, time=149),
    Message('note_on', channel=0, note=84, velocity=0, time=0),
    Message('note_on', channel=0, note=79, velocity=96, time=10),
    Message('note_on', channel=0, note=84, velocity=96, time=0),
    Message('note_on', channel=0, note=79, velocity=0, time=149),
    Message('note_on', channel=0, note=84, velocity=0, time=0),
    Message('note_on', channel=0, note=79, velocity=96, time=15),
    Message('control_change', channel=0, control=2, value=96, time=0),
    Message('note_on', channel=0, note=83, velocity=96, time=0),
    Message('note_on', channel=0, note=79, velocity=0, time=149),
    Message('note_on', channel=0, note=83, velocity=0, time=0),
    Message('note_on', channel=0, note=79, velocity=96, time=10),
    Message('note_on', channel=0, note=83, velocity=96, time=0),
    Message('note_on', channel=0, note=79, velocity=0, time=149),
    Message('note_on', channel=0, note=83, velocity=0, time=0),
    Message('note_on', channel=0, note=79, velocity=96, time=10),
    Message('note_on', channel=0, note=83, velocity=96, time=0),
    Message('note_on', channel=0, note=79, velocity=0, time=149),
    Message('note_on', channel=0, note=83, velocity=0, time=0),
    Message('note_on', channel=0, note=79, velocity=96, time=11),
    Message('note_on', channel=0, note=83, velocity=96, time=0),
    Message('note_on', channel=0, note=79, velocity=0, time=149),
    Message('note_on', channel=0, note=83, velocity=0, time=0),
    Message('note_on', channel=0, note=79, velocity=96, time=10),
    Message('note_on', channel=0, note=83, velocity=96, time=0),
    Message('note_on', channel=0, note=79, velocity=0, time=149),
    Message('note_on', channel=0, note=83, velocity=0, time=0),
    Message('note_on', channel=0, note=79, velocity=96, time=10),
    Message('note_on', channel=0, note=83, velocity=96, time=0),
    Message('note_on', channel=0, note=79, velocity=0, time=149),
    Message('note_on', channel=0, note=83, velocity=0, time=0),
    Message('note_on', channel=0, note=78, velocity=96, time=15),
    Message('control_change', channel=0, control=2, value=96, time=0),
    Message('note_on', channel=0, note=82, velocity=96, time=0),
    Message('note_on', channel=0, note=78, velocity=0, time=149),
    Message('note_on', channel=0, note=82, velocity=0, time=0),
    Message('note_on', channel=0, note=78, velocity=96, time=10),
    Message('note_on', channel=0, note=82, velocity=96, time=0),
    Message('note_on', channel=0, note=78, velocity=0, time=149),
    Message('note_on', channel=0, note=82, velocity=0, time=0),
    Message('note_on', channel=0, note=78, velocity=96, time=10),
    Message('note_on', channel=0, note=82, velocity=96, time=0),
    Message('note_on', channel=0, note=78, velocity=0, time=149),
    Message('note_on', channel=0, note=82, velocity=0, time=0),
    Message('note_on', channel=0, note=78, velocity=96, time=11),
    Message('note_on', channel=0, note=82, velocity=96, time=0),
    Message('note_on', channel=0, note=78, velocity=0, time=149),
    Message('note_on', channel=0, note=82, velocity=0, time=0),
    Message('note_on', channel=0, note=78, velocity=96, time=10),
    Message('note_on', channel=0, note=82, velocity=96, time=0),
    Message('note_on', channel=0, note=78, velocity=0, time=149),
    Message('note_on', channel=0, note=82, velocity=0, time=0),
    Message('note_on', channel=0, note=78, velocity=96, time=10),
    Message('note_on', channel=0, note=82, velocity=96, time=0),
    Message('note_on', channel=0, note=78, velocity=0, time=149),
    Message('note_on', channel=0, note=82, velocity=0, time=0),
    Message('note_on', channel=0, note=79, velocity=96, time=15),
    Message('control_change', channel=0, control=2, value=96, time=0),
    Message('note_on', channel=0, note=83, velocity=96, time=0),
    Message('note_on', channel=0, note=79, velocity=0, time=149),
    Message('note_on', channel=0, note=83, velocity=0, time=0),
    Message('note_on', channel=0, note=79, velocity=96, time=10),
    Message('note_on', channel=0, note=83, velocity=96, time=0),
    Message('note_on', channel=0, note=79, velocity=0, time=149),
    Message('note_on', channel=0, note=83, velocity=0, time=0),
    Message('note_on', channel=0, note=79, velocity=96, time=10),
    Message('note_on', channel=0, note=83, velocity=96, time=0),
    Message('note_on', channel=0, note=79, velocity=0, time=149),
    Message('note_on', channel=0, note=83, velocity=0, time=0),
    Message('note_on', channel=0, note=79, velocity=96, time=11),
    Message('note_on', channel=0, note=83, velocity=96, time=0),
    Message('note_on', channel=0, note=79, velocity=0, time=149),
    Message('note_on', channel=0, note=83, velocity=0, time=0),
    Message('note_on', channel=0, note=79, velocity=96, time=10),
    Message('note_on', channel=0, note=83, velocity=96, time=0),
    Message('note_on', channel=0, note=79, velocity=0, time=149),
    Message('note_on', channel=0, note=83, velocity=0, time=0),
    Message('note_on', channel=0, note=79, velocity=96, time=10),
    Message('note_on', channel=0, note=83, velocity=96, time=0),
    Message('note_on', channel=0, note=79, velocity=0, time=149),
    Message('note_on', channel=0, note=83, velocity=0, time=0),
    Message('control_change', channel=0, control=2, value=96, time=15),
    Message('note_on', channel=0, note=84, velocity=96, time=0),
    Message('note_on', channel=0, note=84, velocity=0, time=303),
    Message('note_on', channel=0, note=79, velocity=96, time=17),
    Message('control_change', channel=0, control=2, value=96, time=0),
    Message('control_change', channel=0, control=2, value=97, time=160),
    Message('note_on', channel=0, note=79, velocity=0, time=143),
    Message('note_on', channel=0, note=84, velocity=97, time=17),
    Message('control_change', channel=0, control=2, value=97, time=0),
    Message('note_on', channel=0, note=84, velocity=0, time=303),
    Message('control_change', channel=0, control=2, value=98, time=17),
    Message('note_on', channel=0, note=84, velocity=98, time=0),
    Message('note_on', channel=0, note=84, velocity=0, time=303),
    Message('note_on', channel=0, note=79, velocity=98, time=17),
    Message('control_change', channel=0, control=2, value=98, time=0),
    Message('control_change', channel=0, control=2, value=99, time=160),
    Message('note_on', channel=0, note=79, velocity=0, time=143),
    Message('note_on', channel=0, note=84, velocity=99, time=17),
    Message('control_change', channel=0, control=2, value=99, time=0),
    Message('note_on', channel=0, note=84, velocity=0, time=303),
    Message('control_change', channel=0, control=2, value=100, time=17),
    Message('note_on', channel=0, note=79, velocity=100, time=0),
    Message('control_change', channel=0, control=2, value=101, time=480),
    Message('note_on', channel=0, note=79, velocity=0, time=431),
    Message('control_change', channel=0, control=2, value=102, time=49),
    Message('note_on', channel=0, note=78, velocity=102, time=0),
    Message('control_change', channel=0, control=2, value=103, time=480),
    Message('note_on', channel=0, note=78, velocity=0, time=127),
    Message('note_on', channel=0, note=78, velocity=103, time=33),
    Message('control_change', channel=0, control=2, value=103, time=0),
    Message('note_on', channel=0, note=78, velocity=0, time=303),
    Message('control_change', channel=0, control=2, value=104, time=17),
    Message('note_on', channel=0, note=84, velocity=104, time=0),
    Message('note_on', channel=0, note=84, velocity=0, time=303),
    Message('note_on', channel=0, note=79, velocity=104, time=17),
    Message('control_change', channel=0, control=2, value=104, time=0),
    Message('control_change', channel=0, control=2, value=105, time=160),
    Message('note_on', channel=0, note=79, velocity=0, time=143),
    Message('note_on', channel=0, note=84, velocity=105, time=17),
    Message('control_change', channel=0, control=2, value=105, time=0),
    Message('note_on', channel=0, note=84, velocity=0, time=303),
    Message('control_change', channel=0, control=2, value=106, time=17),
    Message('note_on', channel=0, note=84, velocity=106, time=0),
    Message('note_on', channel=0, note=84, velocity=0, time=303),
    Message('note_on', channel=0, note=79, velocity=106, time=17),
    Message('control_change', channel=0, control=2, value=106, time=0),
    Message('control_change', channel=0, control=2, value=107, time=160),
    Message('note_on', channel=0, note=79, velocity=0, time=143),
    Message('note_on', channel=0, note=84, velocity=107, time=17),
    Message('control_change', channel=0, control=2, value=107, time=0),
    Message('note_on', channel=0, note=84, velocity=0, time=303),
    Message('control_change', channel=0, control=2, value=108, time=17),
    Message('note_on', channel=0, note=79, velocity=108, time=0),
    Message('control_change', channel=0, control=2, value=109, time=480),
    Message('note_on', channel=0, note=79, velocity=0, time=431),
    Message('control_change', channel=0, control=2, value=110, time=49),
    Message('note_on', channel=0, note=78, velocity=110, time=0),
    Message('control_change', channel=0, control=2, value=111, time=480),
    Message('note_on', channel=0, note=78, velocity=0, time=127),
    Message('note_on', channel=0, note=78, velocity=111, time=33),
    Message('control_change', channel=0, control=2, value=111, time=0),
    Message('note_on', channel=0, note=78, velocity=0, time=303),
    Message('control_change', channel=0, control=2, value=112, time=17),
    Message('note_on', channel=0, note=84, velocity=112, time=0),
    Message('note_on', channel=0, note=84, velocity=0, time=303),
    Message('note_on', channel=0, note=79, velocity=112, time=17),
    Message('control_change', channel=0, control=2, value=112, time=0),
    Message('note_on', channel=0, note=79, velocity=0, time=303),
    Message('note_on', channel=0, note=84, velocity=112, time=17),
    Message('control_change', channel=0, control=2, value=112, time=0),
    Message('note_on', channel=0, note=84, velocity=0, time=303),
    Message('note_on', channel=0, note=84, velocity=112, time=17),
    Message('control_change', channel=0, control=2, value=112, time=0),
    Message('note_on', channel=0, note=84, velocity=0, time=303),
    Message('note_on', channel=0, note=79, velocity=112, time=17),
    Message('control_change', channel=0, control=2, value=112, time=0),
    Message('note_on', channel=0, note=79, velocity=0, time=303),
    Message('note_on', channel=0, note=84, velocity=112, time=17),
    Message('control_change', channel=0, control=2, value=112, time=0),
    Message('note_on', channel=0, note=84, velocity=0, time=303),
    Message('note_on', channel=0, note=85, velocity=112, time=17),
    Message('control_change', channel=0, control=2, value=112, time=0),
    Message('control_change', channel=0, control=2, value=112, time=960),
    Message('note_on', channel=0, note=85, velocity=0, time=559),
    Message('note_on', channel=0, note=85, velocity=112, time=81),
    Message('control_change', channel=0, control=2, value=112, time=0),
    Message('note_on', channel=0, note=85, velocity=0, time=303),
    Message('note_on', channel=0, note=86, velocity=112, time=17),
    Message('control_change', channel=0, control=2, value=112, time=0),
    Message('note_on', channel=0, note=86, velocity=0, time=303),
    Message('note_on', channel=0, note=82, velocity=112, time=17),
    Message('control_change', channel=0, control=2, value=112, time=0),
    Message('note_on', channel=0, note=82, velocity=0, time=303),
    Message('note_on', channel=0, note=86, velocity=112, time=17),
    Message('control_change', channel=0, control=2, value=112, time=0),
    Message('note_on', channel=0, note=86, velocity=0, time=303),
    Message('note_on', channel=0, note=86, velocity=112, time=17),
    Message('control_change', channel=0, control=2, value=112, time=0),
    Message('note_on', channel=0, note=86, velocity=0, time=303),
    Message('note_on', channel=0, note=82, velocity=112, time=17),
    Message('control_change', channel=0, control=2, value=112, time=0),
    Message('note_on', channel=0, note=82, velocity=0, time=303),
    Message('note_on', channel=0, note=86, velocity=112, time=17),
    Message('control_change', channel=0, control=2, value=112, time=0),
    Message('note_on', channel=0, note=86, velocity=0, time=303),
    Message('note_on', channel=0, note=86, velocity=112, time=17),
    Message('control_change', channel=0, control=2, value=112, time=0),
    Message('control_change', channel=0, control=2, value=112, time=960),
    Message('note_on', channel=0, note=86, velocity=0, time=559),
    Message('note_on', channel=0, note=85, velocity=112, time=81),
    Message('control_change', channel=0, control=2, value=112, time=0),
    Message('note_on', channel=0, note=85, velocity=0, time=303),
    MetaMessage('set_tempo', tempo=618557, time=17),
    Message('note_on', channel=0, note=86, velocity=112, time=0),
    Message('control_change', channel=0, control=2, value=112, time=0),
    MetaMessage('set_tempo', tempo=606061, time=320),
    Message('note_on', channel=0, note=86, velocity=0, time=287),
    MetaMessage('set_tempo', tempo=594059, time=33),
    Message('note_on', channel=0, note=85, velocity=112, time=0),
    Message('control_change', channel=0, control=2, value=112, time=0),
    Message('note_on', channel=0, note=85, velocity=0, time=303),
    MetaMessage('set_tempo', tempo=576923, time=17),
    Message('note_on', channel=0, note=86, velocity=112, time=0),
    Message('control_change', channel=0, control=2, value=112, time=0),
    MetaMessage('set_tempo', tempo=566038, time=320),
    Message('note_on', channel=0, note=86, velocity=0, time=287),
    MetaMessage('set_tempo', tempo=550459, time=33),
    Message('note_on', channel=0, note=85, velocity=112, time=0),
    Message('control_change', channel=0, control=2, value=112, time=0),
    Message('note_on', channel=0, note=85, velocity=0, time=303),
    MetaMessage('set_tempo', tempo=535714, time=17),
    Message('note_on', channel=0, note=86, velocity=112, time=0),
    Message('control_change', channel=0, control=2, value=112, time=0),
    MetaMessage('set_tempo', tempo=521739, time=320),
    Message('note_on', channel=0, note=86, velocity=0, time=287),
    MetaMessage('set_tempo', tempo=508475, time=33),
    Message('note_on', channel=0, note=85, velocity=112, time=0),
    Message('control_change', channel=0, control=2, value=112, time=0),
    Message('note_on', channel=0, note=85, velocity=0, time=303),
    MetaMessage('set_tempo', tempo=495868, time=17),
    Message('note_on', channel=0, note=86, velocity=112, time=0),
    Message('control_change', channel=0, control=2, value=112, time=0),
    MetaMessage('set_tempo', tempo=480000, time=320),
    Message('note_on', channel=0, note=86, velocity=0, time=287),
    MetaMessage('set_tempo', tempo=465116, time=33),
    Message('note_on', channel=0, note=85, velocity=112, time=0),
    Message('control_change', channel=0, control=2, value=112, time=0),
    Message('note_on', channel=0, note=85, velocity=0, time=303),
    MetaMessage('set_tempo', tempo=454545, time=17),
    Message('note_on', channel=0, note=90, velocity=126, time=7680),
    Message('control_change', channel=0, control=2, value=126, time=0),
    Message('note_on', channel=0, note=90, velocity=0, time=1823),
    Message('note_on', channel=0, note=83, velocity=126, time=97),
    Message('control_change', channel=0, control=2, value=126, time=0),
    Message('note_on', channel=0, note=83, velocity=0, time=479),
    Message('note_on', channel=0, note=85, velocity=126, time=1),
    Message('control_change', channel=0, control=2, value=126, time=0),
    Message('note_on', channel=0, note=85, velocity=0, time=479),
    Message('note_on', channel=0, note=86, velocity=126, time=1),
    Message('control_change', channel=0, control=2, value=126, time=0),
    Message('note_on', channel=0, note=86, velocity=0, time=479),
    Message('note_on', channel=0, note=88, velocity=126, time=1),
    Message('control_change', channel=0, control=2, value=126, time=0),
    Message('note_on', channel=0, note=88, velocity=0, time=455),
    Message('note_on', channel=0, note=90, velocity=126, time=25),
    Message('control_change', channel=0, control=2, value=126, time=0),
    Message('note_on', channel=0, note=90, velocity=0, time=1367),
    Message('note_on', channel=0, note=86, velocity=126, time=73),
    Message('control_change', channel=0, control=2, value=126, time=0),
    Message('note_on', channel=0, note=86, velocity=0, time=455),
    Message('note_on', channel=0, note=90, velocity=126, time=25),
    Message('control_change', channel=0, control=2, value=126, time=0),
    Message('note_on', channel=0, note=90, velocity=0, time=1367),
    Message('note_on', channel=0, note=86, velocity=126, time=73),
    Message('control_change', channel=0, control=2, value=126, time=0),
    Message('note_on', channel=0, note=86, velocity=0, time=455),
    Message('note_on', channel=0, note=90, velocity=126, time=25),
    Message('control_change', channel=0, control=2, value=126, time=0),
    Message('note_on', channel=0, note=90, velocity=0, time=911),
    Message('note_on', channel=0, note=86, velocity=126, time=49),
    Message('control_change', channel=0, control=2, value=126, time=0),
    Message('note_on', channel=0, note=86, velocity=0, time=911),
    Message('note_on', channel=0, note=83, velocity=126, time=49),
    Message('control_change', channel=0, control=2, value=126, time=0),
    Message('note_on', channel=0, note=83, velocity=0, time=911),
    Message('note_on', channel=0, note=78, velocity=126, time=49),
    Message('control_change', channel=0, control=2, value=126, time=0),
    Message('note_on', channel=0, note=78, velocity=0, time=911),
    Message('note_on', channel=0, note=86, velocity=126, time=49),
    Message('control_change', channel=0, control=2, value=126, time=0),
    Message('note_on', channel=0, note=86, velocity=0, time=911),
    Message('note_on', channel=0, note=83, velocity=126, time=49),
    Message('control_change', channel=0, control=2, value=126, time=0),
    Message('note_on', channel=0, note=83, velocity=0, time=911),
    Message('note_on', channel=0, note=78, velocity=126, time=49),
    Message('control_change', channel=0, control=2, value=126, time=0),
    Message('note_on', channel=0, note=78, velocity=0, time=911),
    Message('note_on', channel=0, note=74, velocity=126, time=49),
    Message('control_change', channel=0, control=2, value=126, time=0),
    Message('note_on', channel=0, note=74, velocity=0, time=911),
    Message('control_change', channel=0, control=2, value=96, time=49),
    Message('note_on', channel=0, note=90, velocity=96, time=0),
    Message('note_on', channel=0, note=90, velocity=0, time=1823),
    Message('note_on', channel=0, note=83, velocity=96, time=97),
    Message('control_change', channel=0, control=2, value=96, time=0),
    Message('note_on', channel=0, note=83, velocity=0, time=479),
    Message('note_on', channel=0, note=85, velocity=96, time=1),
    Message('control_change', channel=0, control=2, value=96, time=0),
    Message('note_on', channel=0, note=85, velocity=0, time=479),
    Message('note_on', channel=0, note=86, velocity=96, time=1),
    Message('control_change', channel=0, control=2, value=96, time=0),
    Message('note_on', channel=0, note=86, velocity=0, time=479),
    Message('note_on', channel=0, note=88, velocity=96, time=1),
    Message('control_change', channel=0, control=2, value=96, time=0),
    Message('note_on', channel=0, note=88, velocity=0, time=455),
    Message('note_on', channel=0, note=90, velocity=96, time=25),
    Message('control_change', channel=0, control=2, value=96, time=0),
    Message('note_on', channel=0, note=90, velocity=0, time=1439),
    Message('note_on', channel=0, note=86, velocity=96, time=1),
    Message('control_change', channel=0, control=2, value=96, time=0),
    Message('note_on', channel=0, note=86, velocity=0, time=455),
    Message('note_on', channel=0, note=90, velocity=96, time=25),
    Message('control_change', channel=0, control=2, value=96, time=0),
    Message('note_on', channel=0, note=90, velocity=0, time=1439),
    Message('note_on', channel=0, note=86, velocity=96, time=1),
    Message('control_change', channel=0, control=2, value=96, time=0),
    Message('note_on', channel=0, note=86, velocity=0, time=455),
    MetaMessage('end_of_track', time=1)]),
  MidiTrack([
    MetaMessage('track_name', name='Oboe\x00', time=0),
    MetaMessage('key_signature', key='D', time=0),
    Message('control_change', channel=1, control=121, value=0, time=0),
    Message('program_change', channel=1, program=68, time=0),
    Message('control_change', channel=1, control=7, value=100, time=0),
    Message('control_change', channel=1, control=10, value=64, time=0),
    Message('control_change', channel=1, control=91, value=0, time=0),
    Message('control_change', channel=1, control=93, value=0, time=0),
    MetaMessage('midi_port', port=0, time=0),
    Message('note_on', channel=1, note=78, velocity=49, time=1920),
    Message('control_change', channel=1, control=2, value=49, time=0),
    Message('note_on', channel=1, note=78, velocity=0, time=959),
    Message('note_on', channel=1, note=71, velocity=49, time=1),
    Message('control_change', channel=1, control=2, value=49, time=0),
    Message('note_on', channel=1, note=71, velocity=0, time=239),
    Message('note_on', channel=1, note=73, velocity=49, time=1),
    Message('control_change', channel=1, control=2, value=49, time=0),
    Message('note_on', channel=1, note=73, velocity=0, time=239),
    Message('note_on', channel=1, note=74, velocity=49, time=1),
    Message('note_on', channel=1, note=74, velocity=0, time=239),
    Message('note_on', channel=1, note=76, velocity=49, time=1),
    Message('note_on', channel=1, note=76, velocity=0, time=239),
    Message('note_on', channel=1, note=78, velocity=49, time=1),
    Message('note_on', channel=1, note=78, velocity=0, time=719),
    Message('note_on', channel=1, note=74, velocity=49, time=1),
    Message('control_change', channel=1, control=2, value=49, time=0),
    Message('note_on', channel=1, note=74, velocity=0, time=239),
    Message('note_on', channel=1, note=78, velocity=49, time=1),
    Message('note_on', channel=1, note=78, velocity=0, time=719),
    Message('note_on', channel=1, note=74, velocity=49, time=1),
    Message('note_on', channel=1, note=74, velocity=0, time=239),
    Message('note_on', channel=1, note=78, velocity=49, time=1),
    Message('note_on', channel=1, note=78, velocity=0, time=719),
    Message('note_on', channel=1, note=71, velocity=49, time=1),
    Message('control_change', channel=1, control=2, value=49, time=0),
    Message('note_on', channel=1, note=71, velocity=0, time=239),
    Message('note_on', channel=1, note=74, velocity=49, time=1),
    Message('note_on', channel=1, note=74, velocity=0, time=239),
    Message('note_on', channel=1, note=71, velocity=49, time=1),
    Message('control_change', channel=1, control=2, value=49, time=0),
    Message('note_on', channel=1, note=71, velocity=0, time=239),
    Message('note_on', channel=1, note=67, velocity=49, time=1),
    Message('note_on', channel=1, note=67, velocity=0, time=239),
    Message('note_on', channel=1, note=74, velocity=49, time=1),
    Message('control_change', channel=1, control=2, value=49, time=0),
    Message('note_on', channel=1, note=74, velocity=0, time=239),
    Message('note_on', channel=1, note=71, velocity=49, time=1),
    Message('control_change', channel=1, control=2, value=49, time=0),
    Message('control_change', channel=1, control=2, value=49, time=960),
    Message('note_on', channel=1, note=71, velocity=0, time=239),
    Message('note_on', channel=1, note=76, velocity=49, time=1),
    Message('control_change', channel=1, control=2, value=49, time=0),
    Message('note_on', channel=1, note=76, velocity=0, time=239),
    Message('note_on', channel=1, note=74, velocity=49, time=1),
    Message('note_on', channel=1, note=74, velocity=0, time=239),
    Message('note_on', channel=1, note=73, velocity=49, time=1),
    Message('control_change', channel=1, control=2, value=49, time=0),
    Message('note_on', channel=1, note=73, velocity=0, time=239),
    Message('note_on', channel=1, note=78, velocity=49, time=1),
    Message('note_on', channel=1, note=78, velocity=0, time=959),
    Message('note_on', channel=1, note=71, velocity=49, time=1),
    Message('control_change', channel=1, control=2, value=49, time=0),
    Message('note_on', channel=1, note=71, velocity=0, time=239),
    Message('note_on', channel=1, note=73, velocity=49, time=1),
    Message('control_change', channel=1, control=2, value=49, time=0),
    Message('note_on', channel=1, note=73, velocity=0, time=239),
    Message('note_on', channel=1, note=74, velocity=49, time=1),
    Message('note_on', channel=1, note=74, velocity=0, time=239),
    Message('note_on', channel=1, note=76, velocity=49, time=1),
    Message('control_change', channel=1, control=2, value=49, time=0),
    Message('note_on', channel=1, note=76, velocity=0, time=239),
    Message('note_on', channel=1, note=78, velocity=49, time=1),
    Message('note_on', channel=1, note=78, velocity=0, time=719),
    Message('note_on', channel=1, note=74, velocity=49, time=1),
    Message('control_change', channel=1, control=2, value=49, time=0),
    Message('note_on', channel=1, note=74, velocity=0, time=239),
    Message('note_on', channel=1, note=78, velocity=49, time=1),
    Message('note_on', channel=1, note=78, velocity=0, time=719),
    Message('note_on', channel=1, note=74, velocity=49, time=1),
    Message('control_change', channel=1, control=2, value=49, time=0),
    Message('note_on', channel=1, note=74, velocity=0, time=239),
    Message('note_on', channel=1, note=78, velocity=49, time=1),
    Message('note_on', channel=1, note=78, velocity=0, time=719),
    Message('note_on', channel=1, note=71, velocity=49, time=1),
    Message('control_change', channel=1, control=2, value=49, time=0),
    Message('note_on', channel=1, note=71, velocity=0, time=239),
    Message('note_on', channel=1, note=74, velocity=49, time=1),
    Message('control_change', channel=1, control=2, value=49, time=0),
    Message('note_on', channel=1, note=74, velocity=0, time=239),
    Message('note_on', channel=1, note=71, velocity=49, time=1),
    Message('control_change', channel=1, control=2, value=49, time=0),
    Message('note_on', channel=1, note=71, velocity=0, time=239),
    Message('note_on', channel=1, note=67, velocity=49, time=1),
    Message('note_on', channel=1, note=67, velocity=0, time=239),
    Message('note_on', channel=1, note=74, velocity=49, time=1),
    Message('control_change', channel=1, control=2, value=49, time=0),
    Message('note_on', channel=1, note=74, velocity=0, time=239),
    Message('note_on', channel=1, note=71, velocity=49, time=1),
    Message('control_change', channel=1, control=2, value=49, time=0),
    Message('note_on', channel=1, note=71, velocity=0, time=1439),
    Message('note_on', channel=1, note=71, velocity=49, time=1),
    Message('control_change', channel=1, control=2, value=49, time=0),
    Message('note_on', channel=1, note=71, velocity=0, time=479),
    Message('control_change', channel=1, control=2, value=49, time=1),
    Message('note_on', channel=1, note=73, velocity=49, time=0),
    Message('control_change', channel=1, control=2, value=50, time=62),
    Message('control_change', channel=1, control=2, value=51, time=62),
    Message('control_change', channel=1, control=2, value=52, time=62),
    Message('control_change', channel=1, control=2, value=53, time=62),
    Message('control_change', channel=1, control=2, value=54, time=62),
    Message('control_change', channel=1, control=2, value=55, time=62),
    Message('control_change', channel=1, control=2, value=56, time=62),
    Message('note_on', channel=1, note=73, velocity=0, time=45),
    Message('note_on', channel=1, note=74, velocity=56, time=1),
    Message('control_change', channel=1, control=2, value=56, time=0),
    Message('control_change', channel=1, control=2, value=57, time=16),
    Message('control_change', channel=1, control=2, value=58, time=62),
    Message('control_change', channel=1, control=2, value=59, time=62),
    Message('control_change', channel=1, control=2, value=60, time=62),
    Message('control_change', channel=1, control=2, value=61, time=62),
    Message('control_change', channel=1, control=2, value=62, time=62),
    Message('control_change', channel=1, control=2, value=63, time=62),
    Message('control_change', channel=1, control=2, value=64, time=62),
    Message('note_on', channel=1, note=74, velocity=0, time=29),
    Message('note_on', channel=1, note=76, velocity=64, time=1),
    Message('control_change', channel=1, control=2, value=64, time=0),
    Message('control_change', channel=1, control=2, value=65, time=31),
    Message('control_change', channel=1, control=2, value=66, time=62),
    Message('control_change', channel=1, control=2, value=67, time=62),
    Message('control_change', channel=1, control=2, value=68, time=62),
    Message('control_change', channel=1, control=2, value=69, time=62),
    Message('control_change', channel=1, control=2, value=70, time=62),
    Message('control_change', channel=1, control=2, value=71, time=62),
    Message('control_change', channel=1, control=2, value=72, time=62),
    Message('note_on', channel=1, note=76, velocity=0, time=14),
    Message('note_on', channel=1, note=78, velocity=72, time=1),
    Message('control_change', channel=1, control=2, value=72, time=0),
    Message('control_change', channel=1, control=2, value=73, time=47),
    Message('control_change', channel=1, control=2, value=74, time=62),
    Message('control_change', channel=1, control=2, value=75, time=62),
    Message('control_change', channel=1, control=2, value=76, time=62),
    Message('note_on', channel=1, note=78, velocity=0, time=6),
    Message('note_on', channel=1, note=79, velocity=76, time=1),
    Message('control_change', channel=1, control=2, value=76, time=0),
    Message('control_change', channel=1, control=2, value=77, time=55),
    Message('control_change', channel=1, control=2, value=78, time=62),
    Message('control_change', channel=1, control=2, value=79, time=62),
    Message('note_on', channel=1, note=79, velocity=0, time=60),
    Message('control_change', channel=1, control=2, value=80, time=1),
    Message('note_on', channel=1, note=81, velocity=80, time=0),
    Message('control_change', channel=1, control=2, value=79, time=47),
    Message('control_change', channel=1, control=2, value=78, time=46),
    Message('control_change', channel=1, control=2, value=77, time=47),
    Message('control_change', channel=1, control=2, value=76, time=46),
    Message('control_change', channel=1, control=2, value=75, time=47),
    Message('control_change', channel=1, control=2, value=74, time=46),
    Message('control_change', channel=1, control=2, value=73, time=47),
    Message('control_change', channel=1, control=2, value=72, time=46),
    Message('control_change', channel=1, control=2, value=71, time=47),
    Message('control_change', channel=1, control=2, value=70, time=46),
    Message('control_change', channel=1, control=2, value=69, time=46),
    Message('control_change', channel=1, control=2, value=68, time=47),
    Message('control_change', channel=1, control=2, value=67, time=46),
    Message('control_change', channel=1, control=2, value=66, time=47),
    Message('control_change', channel=1, control=2, value=65, time=46),
    Message('note_on', channel=1, note=81, velocity=0, time=22),
    Message('note_on', channel=1, note=79, velocity=65, time=1),
    Message('control_change', channel=1, control=2, value=64, time=24),
    Message('control_change', channel=1, control=2, value=63, time=46),
    Message('control_change', channel=1, control=2, value=62, time=47),
    Message('control_change', channel=1, control=2, value=61, time=46),
    Message('control_change', channel=1, control=2, value=60, time=47),
    Message('note_on', channel=1, note=79, velocity=0, time=29),
    Message('note_on', channel=1, note=78, velocity=60, time=1),
    Message('control_change', channel=1, control=2, value=60, time=0),
    Message('control_change', channel=1, control=2, value=59, time=16),
    Message('control_change', channel=1, control=2, value=58, time=46),
    Message('control_change', channel=1, control=2, value=57, time=47),
    Message('control_change', channel=1, control=2, value=56, time=46),
    Message('control_change', channel=1, control=2, value=55, time=47),
    Message('control_change', channel=1, control=2, value=54, time=46),
    Message('control_change', channel=1, control=2, value=53, time=47),
    Message('control_change', channel=1, control=2, value=52, time=46),
    Message('control_change', channel=1, control=2, value=51, time=47),
    Message('control_change', channel=1, control=2, value=50, time=46),
    Message('note_on', channel=1, note=78, velocity=0, time=45),
    Message('control_change', channel=1, control=2, value=49, time=1),
    Message('note_on', channel=1, note=79, velocity=49, time=0),
    Message('control_change', channel=1, control=2, value=50, time=60),
    Message('control_change', channel=1, control=2, value=51, time=60),
    Message('control_change', channel=1, control=2, value=52, time=60),
    Message('note_on', channel=1, note=79, velocity=0, time=59),
    Message('control_change', channel=1, control=2, value=53, time=1),
    Message('note_on', channel=1, note=81, velocity=53, time=0),
    Message('control_change', channel=1, control=2, value=54, time=60),
    Message('control_change', channel=1, control=2, value=55, time=60),
    Message('control_change', channel=1, control=2, value=56, time=60),
    Message('note_on', channel=1, note=81, velocity=0, time=59),
    Message('control_change', channel=1, control=2, value=57, time=1),
    Message('note_on', channel=1, note=83, velocity=57, time=0),
    Message('control_change', channel=1, control=2, value=58, time=50),
    Message('control_change', channel=1, control=2, value=59, time=49),
    Message('control_change', channel=1, control=2, value=60, time=49),
    Message('control_change', channel=1, control=2, value=61, time=49),
    Message('control_change', channel=1, control=2, value=62, time=50),
    Message('control_change', channel=1, control=2, value=63, time=49),
    Message('control_change', channel=1, control=2, value=64, time=49),
    Message('control_change', channel=1, control=2, value=65, time=49),
    Message('control_change', channel=1, control=2, value=66, time=50),
    Message('control_change', channel=1, control=2, value=67, time=49),
    Message('control_change', channel=1, control=2, value=68, time=49),
    Message('control_change', channel=1, control=2, value=69, time=49),
    Message('control_change', channel=1, control=2, value=70, time=49),
    Message('control_change', channel=1, control=2, value=71, time=50),
    Message('note_on', channel=1, note=83, velocity=0, time=29),
    Message('note_on', channel=1, note=81, velocity=71, time=1),
    Message('control_change', channel=1, control=2, value=72, time=19),
    Message('control_change', channel=1, control=2, value=73, time=49),
    Message('control_change', channel=1, control=2, value=74, time=49),
    Message('control_change', channel=1, control=2, value=75, time=50),
    Message('control_change', channel=1, control=2, value=76, time=49),
    Message('note_on', channel=1, note=81, velocity=0, time=23),
    Message('note_on', channel=1, note=79, velocity=76, time=1),
    Message('control_change', channel=1, control=2, value=77, time=25),
    Message('control_change', channel=1, control=2, value=78, time=49),
    Message('control_change', channel=1, control=2, value=79, time=50),
    Message('control_change', channel=1, control=2, value=80, time=49),
    Message('control_change', channel=1, control=2, value=81, time=49),
    Message('control_change', channel=1, control=2, value=82, time=49),
    Message('control_change', channel=1, control=2, value=83, time=49),
    Message('control_change', channel=1, control=2, value=84, time=50),
    Message('control_change', channel=1, control=2, value=85, time=49),
    Message('control_change', channel=1, control=2, value=86, time=49),
    Message('note_on', channel=1, note=79, velocity=0, time=11),
    Message('note_on', channel=1, note=81, velocity=86, time=1),
    Message('control_change', channel=1, control=2, value=87, time=37),
    Message('control_change', channel=1, control=2, value=88, time=50),
    Message('control_change', channel=1, control=2, value=89, time=49),
    Message('control_change', channel=1, control=2, value=90, time=49),
    Message('control_change', channel=1, control=2, value=91, time=49),
    Message('note_on', channel=1, note=81, velocity=0, time=5),
    Message('note_on', channel=1, note=83, velocity=91, time=1),
    Message('control_change', channel=1, control=2, value=92, time=44),
    Message('control_change', channel=1, control=2, value=93, time=49),
    Message('control_change', channel=1, control=2, value=94, time=49),
    Message('control_change', channel=1, control=2, value=95, time=49),
    Message('note_on', channel=1, note=83, velocity=0, time=48),
    Message('control_change', channel=1, control=2, value=96, time=1),
    Message('note_on', channel=1, note=85, velocity=96, time=0),
    Message('control_change', channel=1, control=2, value=95, time=41),
    Message('control_change', channel=1, control=2, value=94, time=41),
    Message('control_change', channel=1, control=2, value=93, time=41),
    Message('control_change', channel=1, control=2, value=92, time=41),
    Message('control_change', channel=1, control=2, value=91, time=41),
    Message('control_change', channel=1, control=2, value=90, time=41),
    Message('control_change', channel=1, control=2, value=89, time=40),
    Message('control_change', channel=1, control=2, value=88, time=41),
    Message('control_change', channel=1, control=2, value=87, time=41),
    Message('control_change', channel=1, control=2, value=86, time=41),
    Message('control_change', channel=1, control=2, value=85, time=41),
    Message('control_change', channel=1, control=2, value=84, time=41),
    Message('control_change', channel=1, control=2, value=83, time=41),
    Message('control_change', channel=1, control=2, value=82, time=40),
    Message('control_change', channel=1, control=2, value=81, time=41),
    Message('control_change', channel=1, control=2, value=80, time=41),
    Message('control_change', channel=1, control=2, value=79, time=41),
    Message('note_on', channel=1, note=85, velocity=0, time=24),
    Message('note_on', channel=1, note=83, velocity=79, time=1),
    Message('control_change', channel=1, control=2, value=78, time=16),
    Message('control_change', channel=1, control=2, value=77, time=41),
    Message('control_change', channel=1, control=2, value=76, time=41),
    Message('control_change', channel=1, control=2, value=75, time=40),
    Message('control_change', channel=1, control=2, value=74, time=41),
    Message('control_change', channel=1, control=2, value=73, time=41),
    Message('note_on', channel=1, note=83, velocity=0, time=19),
    Message('note_on', channel=1, note=78, velocity=73, time=1),
    Message('control_change', channel=1, control=2, value=72, time=21),
    Message('control_change', channel=1, control=2, value=71, time=41),
    Message('control_change', channel=1, control=2, value=70, time=41),
    Message('control_change', channel=1, control=2, value=69, time=40),
    Message('control_change', channel=1, control=2, value=68, time=41),
    Message('control_change', channel=1, control=2, value=67, time=41),
    Message('note_on', channel=1, note=78, velocity=0, time=14),
    Message('note_on', channel=1, note=74, velocity=67, time=1),
    Message('control_change', channel=1, control=2, value=66, time=26),
    Message('control_change', channel=1, control=2, value=65, time=41),
    Message('control_change', channel=1, control=2, value=64, time=41),
    Message('control_change', channel=1, control=2, value=63, time=41),
    Message('control_change', channel=1, control=2, value=62, time=40),
    Message('control_change', channel=1, control=2, value=61, time=41),
    Message('note_on', channel=1, note=74, velocity=0, time=9),
    Message('note_on', channel=1, note=73, velocity=61, time=1),
    Message('control_change', channel=1, control=2, value=60, time=31),
    Message('control_change', channel=1, control=2, value=59, time=41),
    Message('control_change', channel=1, control=2, value=58, time=41),
    Message('control_change', channel=1, control=2, value=57, time=41),
    Message('control_change', channel=1, control=2, value=56, time=41),
    Message('control_change', channel=1, control=2, value=55, time=40),
    Message('note_on', channel=1, note=73, velocity=0, time=4),
    Message('note_on', channel=1, note=71, velocity=55, time=1),
    Message('control_change', channel=1, control=2, value=54, time=36),
    Message('control_change', channel=1, control=2, value=53, time=41),
    Message('control_change', channel=1, control=2, value=52, time=41),
    Message('control_change', channel=1, control=2, value=51, time=41),
    Message('control_change', channel=1, control=2, value=50, time=41),
    Message('note_on', channel=1, note=71, velocity=0, time=39),
    Message('control_change', channel=1, control=2, value=49, time=1),
    Message('note_on', channel=1, note=73, velocity=49, time=0),
    Message('control_change', channel=1, control=2, value=50, time=62),
    Message('control_change', channel=1, control=2, value=51, time=62),
    Message('control_change', channel=1, control=2, value=52, time=62),
    Message('control_change', channel=1, control=2, value=53, time=62),
    Message('control_change', channel=1, control=2, value=54, time=62),
    Message('control_change', channel=1, control=2, value=55, time=62),
    Message('control_change', channel=1, control=2, value=56, time=62),
    Message('note_on', channel=1, note=73, velocity=0, time=45),
    Message('note_on', channel=1, note=74, velocity=56, time=1),
    Message('control_change', channel=1, control=2, value=56, time=0),
    Message('control_change', channel=1, control=2, value=57, time=16),
    Message('control_change', channel=1, control=2, value=58, time=62),
    Message('control_change', channel=1, control=2, value=59, time=62),
    Message('control_change', channel=1, control=2, value=60, time=62),
    Message('control_change', channel=1, control=2, value=61, time=62),
    Message('control_change', channel=1, control=2, value=62, time=62),
    Message('control_change', channel=1, control=2, value=63, time=62),
    Message('control_change', channel=1, control=2, value=64, time=62),
    Message('note_on', channel=1, note=74, velocity=0, time=29),
    Message('note_on', channel=1, note=76, velocity=64, time=1),
    Message('control_change', channel=1, control=2, value=64, time=0),
    Message('control_change', channel=1, control=2, value=65, time=31),
    Message('control_change', channel=1, control=2, value=66, time=62),
    Message('control_change', channel=1, control=2, value=67, time=62),
    Message('control_change', channel=1, control=2, value=68, time=62),
    Message('control_change', channel=1, control=2, value=69, time=62),
    Message('control_change', channel=1, control=2, value=70, time=62),
    Message('control_change', channel=1, control=2, value=71, time=62),
    Message('control_change', channel=1, control=2, value=72, time=62),
    Message('note_on', channel=1, note=76, velocity=0, time=14),
    Message('note_on', channel=1, note=78, velocity=72, time=1),
    Message('control_change', channel=1, control=2, value=72, time=0),
    Message('control_change', channel=1, control=2, value=73, time=47),
    Message('control_change', channel=1, control=2, value=74, time=62),
    Message('control_change', channel=1, control=2, value=75, time=62),
    Message('control_change', channel=1, control=2, value=76, time=62),
    Message('note_on', channel=1, note=78, velocity=0, time=6),
    Message('note_on', channel=1, note=79, velocity=76, time=1),
    Message('control_change', channel=1, control=2, value=76, time=0),
    Message('control_change', channel=1, control=2, value=77, time=55),
    Message('control_change', channel=1, control=2, value=78, time=62),
    Message('control_change', channel=1, control=2, value=79, time=62),
    Message('note_on', channel=1, note=79, velocity=0, time=60),
    Message('control_change', channel=1, control=2, value=80, time=1),
    Message('note_on', channel=1, note=81, velocity=80, time=0),
    Message('control_change', channel=1, control=2, value=79, time=47),
    Message('control_change', channel=1, control=2, value=78, time=46),
    Message('control_change', channel=1, control=2, value=77, time=47),
    Message('control_change', channel=1, control=2, value=76, time=46),
    Message('control_change', channel=1, control=2, value=75, time=47),
    Message('control_change', channel=1, control=2, value=74, time=46),
    Message('control_change', channel=1, control=2, value=73, time=47),
    Message('control_change', channel=1, control=2, value=72, time=46),
    Message('control_change', channel=1, control=2, value=71, time=47),
    Message('control_change', channel=1, control=2, value=70, time=46),
    Message('control_change', channel=1, control=2, value=69, time=46),
    Message('control_change', channel=1, control=2, value=68, time=47),
    Message('control_change', channel=1, control=2, value=67, time=46),
    Message('control_change', channel=1, control=2, value=66, time=47),
    Message('control_change', channel=1, control=2, value=65, time=46),
    Message('note_on', channel=1, note=81, velocity=0, time=22),
    Message('note_on', channel=1, note=79, velocity=65, time=1),
    Message('control_change', channel=1, control=2, value=64, time=24),
    Message('control_change', channel=1, control=2, value=63, time=46),
    Message('control_change', channel=1, control=2, value=62, time=47),
    Message('control_change', channel=1, control=2, value=61, time=46),
    Message('control_change', channel=1, control=2, value=60, time=47),
    Message('note_on', channel=1, note=79, velocity=0, time=29),
    Message('note_on', channel=1, note=78, velocity=60, time=1),
    Message('control_change', channel=1, control=2, value=60, time=0),
    Message('control_change', channel=1, control=2, value=59, time=16),
    Message('control_change', channel=1, control=2, value=58, time=46),
    Message('control_change', channel=1, control=2, value=57, time=47),
    Message('control_change', channel=1, control=2, value=56, time=46),
    Message('control_change', channel=1, control=2, value=55, time=47),
    Message('control_change', channel=1, control=2, value=54, time=46),
    Message('control_change', channel=1, control=2, value=53, time=47),
    Message('control_change', channel=1, control=2, value=52, time=46),
    Message('control_change', channel=1, control=2, value=51, time=47),
    Message('control_change', channel=1, control=2, value=50, time=46),
    Message('note_on', channel=1, note=78, velocity=0, time=45),
    Message('control_change', channel=1, control=2, value=49, time=1),
    Message('note_on', channel=1, note=79, velocity=49, time=0),
    Message('note_on', channel=1, note=79, velocity=0, time=239),
    Message('note_on', channel=1, note=81, velocity=49, time=1),
    Message('control_change', channel=1, control=2, value=49, time=0),
    Message('note_on', channel=1, note=81, velocity=0, time=239),
    Message('control_change', channel=1, control=2, value=49, time=1),
    Message('note_on', channel=1, note=83, velocity=49, time=0),
    Message('control_change', channel=1, control=2, value=50, time=82),
    Message('control_change', channel=1, control=2, value=51, time=82),
    Message('control_change', channel=1, control=2, value=52, time=82),
    Message('control_change', channel=1, control=2, value=53, time=81),
    Message('control_change', channel=1, control=2, value=54, time=82),
    Message('control_change', channel=1, control=2, value=55, time=82),
    Message('control_change', channel=1, control=2, value=56, time=81),
    Message('control_change', channel=1, control=2, value=57, time=82),
    Message('note_on', channel=1, note=83, velocity=0, time=65),
    Message('note_on', channel=1, note=81, velocity=57, time=1),
    Message('control_change', channel=1, control=2, value=58, time=16),
    Message('control_change', channel=1, control=2, value=59, time=82),
    Message('control_change', channel=1, control=2, value=60, time=81),
    Message('note_on', channel=1, note=81, velocity=0, time=60),
    Message('note_on', channel=1, note=79, velocity=60, time=1),
    Message('control_change', channel=1, control=2, value=61, time=21),
    Message('control_change', channel=1, control=2, value=62, time=82),
    Message('control_change', channel=1, control=2, value=63, time=81),
    Message('control_change', channel=1, control=2, value=64, time=82),
    Message('control_change', channel=1, control=2, value=65, time=82),
    Message('control_change', channel=1, control=2, value=66, time=81),
    Message('note_on', channel=1, note=79, velocity=0, time=50),
    Message('note_on', channel=1, note=81, velocity=66, time=1),
    Message('control_change', channel=1, control=2, value=67, time=31),
    Message('control_change', channel=1, control=2, value=68, time=82),
    Message('control_change', channel=1, control=2, value=69, time=82),
    Message('note_on', channel=1, note=81, velocity=0, time=44),
    Message('note_on', channel=1, note=83, velocity=69, time=1),
    Message('control_change', channel=1, control=2, value=70, time=36),
    Message('control_change', channel=1, control=2, value=71, time=82),
    Message('control_change', channel=1, control=2, value=72, time=82),
    Message('note_on', channel=1, note=83, velocity=0, time=39),
    Message('note_on', channel=1, note=84, velocity=72, time=1),
    Message('control_change', channel=1, control=2, value=73, time=41),
    Message('control_change', channel=1, control=2, value=74, time=82),
    Message('control_change', channel=1, control=2, value=75, time=82),
    Message('control_change', channel=1, control=2, value=76, time=81),
    Message('control_change', channel=1, control=2, value=77, time=82),
    Message('control_change', channel=1, control=2, value=78, time=82),
    Message('control_change', channel=1, control=2, value=79, time=82),
    Message('control_change', channel=1, control=2, value=80, time=81),
    Message('control_change', channel=1, control=2, value=81, time=82),
    Message('note_on', channel=1, note=84, velocity=0, time=24),
    Message('note_on', channel=1, note=79, velocity=81, time=1),
    Message('control_change', channel=1, control=2, value=82, time=57),
    Message('control_change', channel=1, control=2, value=83, time=81),
    Message('control_change', channel=1, control=2, value=84, time=82),
    Message('note_on', channel=1, note=79, velocity=0, time=19),
    Message('note_on', channel=1, note=76, velocity=84, time=1),
    Message('control_change', channel=1, control=2, value=85, time=62),
    Message('control_change', channel=1, control=2, value=86, time=81),
    Message('control_change', channel=1, control=2, value=87, time=82),
    Message('control_change', channel=1, control=2, value=88, time=82),
    Message('control_change', channel=1, control=2, value=89, time=82),
    Message('control_change', channel=1, control=2, value=90, time=81),
    Message('note_on', channel=1, note=76, velocity=0, time=9),
    Message('note_on', channel=1, note=79, velocity=90, time=1),
    Message('control_change', channel=1, control=2, value=91, time=72),
    Message('control_change', channel=1, control=2, value=92, time=82),
    Message('control_change', channel=1, control=2, value=93, time=81),
    Message('note_on', channel=1, note=79, velocity=0, time=4),
    Message('note_on', channel=1, note=84, velocity=93, time=1),
    Message('control_change', channel=1, control=2, value=94, time=77),
    Message('control_change', channel=1, control=2, value=95, time=82),
    Message('note_on', channel=1, note=84, velocity=0, time=80),
    Message('control_change', channel=1, control=2, value=96, time=1),
    Message('note_on', channel=1, note=85, velocity=96, time=0),
    Message('control_change', channel=1, control=2, value=97, time=120),
    Message('control_change', channel=1, control=2, value=98, time=120),
    Message('control_change', channel=1, control=2, value=99, time=120),
    Message('control_change', channel=1, control=2, value=100, time=120),
    Message('control_change', channel=1, control=2, value=101, time=120),
    Message('note_on', channel=1, note=85, velocity=0, time=119),
    Message('control_change', channel=1, control=2, value=102, time=1),
    Message('note_on', channel=1, note=80, velocity=102, time=0),
    Message('control_change', channel=1, control=2, value=103, time=120),
    Message('note_on', channel=1, note=80, velocity=0, time=119),
    Message('control_change', channel=1, control=2, value=104, time=1),
    Message('note_on', channel=1, note=85, velocity=104, time=0),
    Message('control_change', channel=1, control=2, value=105, time=120),
    Message('control_change', channel=1, control=2, value=106, time=120),
    Message('control_change', channel=1, control=2, value=107, time=120),
    Message('control_change', channel=1, control=2, value=108, time=120),
    Message('control_change', channel=1, control=2, value=109, time=120),
    Message('note_on', channel=1, note=85, velocity=0, time=119),
    Message('control_change', channel=1, control=2, value=110, time=1),
    Message('note_on', channel=1, note=78, velocity=110, time=0),
    Message('control_change', channel=1, control=2, value=111, time=120),
    Message('note_on', channel=1, note=78, velocity=0, time=119),
    Message('control_change', channel=1, control=2, value=112, time=1),
    Message('note_on', channel=1, note=83, velocity=112, time=0),
    Message('note_on', channel=1, note=71, velocity=112, time=0),
    Message('note_on', channel=1, note=83, velocity=0, time=479),
    Message('note_on', channel=1, note=71, velocity=0, time=1440),
    Message('note_on', channel=1, note=71, velocity=112, time=1),
    Message('control_change', channel=1, control=2, value=112, time=0),
    Message('note_on', channel=1, note=74, velocity=112, time=0),
    Message('note_on', channel=1, note=71, velocity=0, time=1919),
    Message('note_on', channel=1, note=74, velocity=0, time=0),
    Message('note_on', channel=1, note=74, velocity=112, time=1),
    Message('control_change', channel=1, control=2, value=112, time=0),
    Message('note_on', channel=1, note=71, velocity=112, time=0),
    Message('control_change', channel=1, control=2, value=112, time=960),
    Message('note_on', channel=1, note=74, velocity=0, time=479),
    Message('note_on', channel=1, note=71, velocity=0, time=0),
    Message('note_on', channel=1, note=76, velocity=112, time=1),
    Message('control_change', channel=1, control=2, value=112, time=0),
    Message('note_on', channel=1, note=70, velocity=112, time=0),
    Message('note_on', channel=1, note=76, velocity=0, time=479),
    Message('note_on', channel=1, note=70, velocity=0, time=0),
    Message('note_on', channel=1, note=74, velocity=112, time=1),
    Message('control_change', channel=1, control=2, value=112, time=0),
    Message('note_on', channel=1, note=71, velocity=112, time=0),
    Message('note_on', channel=1, note=74, velocity=0, time=959),
    Message('note_on', channel=1, note=76, velocity=112, time=1),
    Message('control_change', channel=1, control=2, value=112, time=0),
    Message('note_on', channel=1, note=71, velocity=0, time=959),
    Message('note_on', channel=1, note=76, velocity=0, time=0),
    Message('note_on', channel=1, note=74, velocity=112, time=1),
    Message('control_change', channel=1, control=2, value=112, time=0),
    Message('note_on', channel=1, note=78, velocity=112, time=0),
    Message('note_on', channel=1, note=74, velocity=0, time=959),
    Message('note_on', channel=1, note=78, velocity=0, time=0),
    Message('note_on', channel=1, note=76, velocity=112, time=1),
    Message('control_change', channel=1, control=2, value=112, time=0),
    Message('note_on', channel=1, note=79, velocity=112, time=0),
    Message('note_on', channel=1, note=76, velocity=0, time=959),
    Message('note_on', channel=1, note=79, velocity=0, time=0),
    Message('note_on', channel=1, note=74, velocity=112, time=1),
    Message('control_change', channel=1, control=2, value=112, time=0),
    Message('note_on', channel=1, note=78, velocity=112, time=0),
    Message('control_change', channel=1, control=2, value=112, time=1920),
    Message('note_on', channel=1, note=74, velocity=0, time=959),
    Message('note_on', channel=1, note=78, velocity=0, time=0),
    Message('note_on', channel=1, note=71, velocity=112, time=1),
    Message('control_change', channel=1, control=2, value=112, time=0),
    Message('note_on', channel=1, note=74, velocity=112, time=0),
    Message('note_on', channel=1, note=71, velocity=0, time=479),
    Message('note_on', channel=1, note=74, velocity=0, time=0),
    Message('note_on', channel=1, note=70, velocity=112, time=1),
    Message('control_change', channel=1, control=2, value=112, time=0),
    Message('note_on', channel=1, note=76, velocity=112, time=0),
    Message('note_on', channel=1, note=70, velocity=0, time=479),
    Message('note_on', channel=1, note=76, velocity=0, time=0),
    Message('control_change', channel=1, control=2, value=96, time=1),
    Message('note_on', channel=1, note=71, velocity=96, time=0),
    Message('note_on', channel=1, note=74, velocity=96, time=0),
    Message('note_on', channel=1, note=71, velocity=0, time=159),
    Message('note_on', channel=1, note=74, velocity=0, time=0),
    Message('note_on', channel=1, note=71, velocity=96, time=1),
    Message('control_change', channel=1, control=2, value=96, time=0),
    Message('note_on', channel=1, note=74, velocity=96, time=0),
    Message('note_on', channel=1, note=71, velocity=0, time=159),
    Message('note_on', channel=1, note=74, velocity=0, time=0),
    Message('note_on', channel=1, note=71, velocity=96, time=1),
    Message('control_change', channel=1, control=2, value=96, time=0),
    Message('note_on', channel=1, note=74, velocity=96, time=0),
    Message('note_on', channel=1, note=71, velocity=0, time=159),
    Message('note_on', channel=1, note=74, velocity=0, time=0),
    Message('note_on', channel=1, note=71, velocity=96, time=1),
    Message('control_change', channel=1, control=2, value=96, time=0),
    Message('note_on', channel=1, note=74, velocity=96, time=0),
    Message('note_on', channel=1, note=71, velocity=0, time=158),
    Message('note_on', channel=1, note=74, velocity=0, time=0),
    Message('note_on', channel=1, note=71, velocity=96, time=1),
    Message('note_on', channel=1, note=74, velocity=96, time=0),
    Message('note_on', channel=1, note=71, velocity=0, time=158),
    Message('note_on', channel=1, note=74, velocity=0, time=0),
    Message('note_on', channel=1, note=71, velocity=96, time=2),
    Message('note_on', channel=1, note=74, velocity=96, time=0),
    Message('note_on', channel=1, note=71, velocity=0, time=158),
    Message('note_on', channel=1, note=74, velocity=0, time=0),
    Message('note_on', channel=1, note=71, velocity=96, time=3),
    Message('control_change', channel=1, control=2, value=96, time=0),
    Message('note_on', channel=1, note=74, velocity=96, time=0),
    Message('note_on', channel=1, note=71, velocity=0, time=158),
    Message('note_on', channel=1, note=74, velocity=0, time=0),
    Message('note_on', channel=1, note=71, velocity=96, time=1),
    Message('note_on', channel=1, note=74, velocity=96, time=0),
    Message('note_on', channel=1, note=71, velocity=0, time=158),
    Message('note_on', channel=1, note=74, velocity=0, time=0),
    Message('note_on', channel=1, note=71, velocity=96, time=1),
    Message('note_on', channel=1, note=74, velocity=96, time=0),
    Message('note_on', channel=1, note=71, velocity=0, time=158),
    Message('note_on', channel=1, note=74, velocity=0, time=0),
    Message('note_on', channel=1, note=71, velocity=96, time=2),
    Message('note_on', channel=1, note=74, velocity=96, time=0),
    Message('note_on', channel=1, note=71, velocity=0, time=158),
    Message('note_on', channel=1, note=74, velocity=0, time=0),
    Message('note_on', channel=1, note=71, velocity=96, time=1),
    Message('note_on', channel=1, note=74, velocity=96, time=0),
    Message('note_on', channel=1, note=71, velocity=0, time=158),
    Message('note_on', channel=1, note=74, velocity=0, time=0),
    Message('note_on', channel=1, note=71, velocity=96, time=1),
    Message('note_on', channel=1, note=74, velocity=96, time=0),
    Message('note_on', channel=1, note=71, velocity=0, time=158),
    Message('note_on', channel=1, note=74, velocity=0, time=0),
    Message('note_on', channel=1, note=69, velocity=96, time=6),
    Message('control_change', channel=1, control=2, value=96, time=0),
    Message('note_on', channel=1, note=76, velocity=96, time=0),
    Message('note_on', channel=1, note=69, velocity=0, time=158),
    Message('note_on', channel=1, note=76, velocity=0, time=0),
    Message('note_on', channel=1, note=69, velocity=96, time=1),
    Message('note_on', channel=1, note=76, velocity=96, time=0),
    Message('note_on', channel=1, note=69, velocity=0, time=158),
    Message('note_on', channel=1, note=76, velocity=0, time=0),
    Message('note_on', channel=1, note=69, velocity=96, time=1),
    Message('note_on', channel=1, note=76, velocity=96, time=0),
    Message('note_on', channel=1, note=69, velocity=0, time=158),
    Message('note_on', channel=1, note=76, velocity=0, time=0),
    Message('note_on', channel=1, note=69, velocity=96, time=2),
    Message('note_on', channel=1, note=76, velocity=96, time=0),
    Message('note_on', channel=1, note=69, velocity=0, time=158),
    Message('note_on', channel=1, note=76, velocity=0, time=0),
    Message('note_on', channel=1, note=69, velocity=96, time=1),
    Message('note_on', channel=1, note=76, velocity=96, time=0),
    Message('note_on', channel=1, note=69, velocity=0, time=158),
    Message('note_on', channel=1, note=76, velocity=0, time=0),
    Message('note_on', channel=1, note=69, velocity=96, time=1),
    Message('note_on', channel=1, note=76, velocity=96, time=0),
    Message('note_on', channel=1, note=69, velocity=0, time=158),
    Message('note_on', channel=1, note=76, velocity=0, time=0),
    Message('note_on', channel=1, note=69, velocity=96, time=6),
    Message('control_change', channel=1, control=2, value=96, time=0),
    Message('note_on', channel=1, note=76, velocity=96, time=0),
    Message('note_on', channel=1, note=69, velocity=0, time=158),
    Message('note_on', channel=1, note=76, velocity=0, time=0),
    Message('note_on', channel=1, note=69, velocity=96, time=1),
    Message('note_on', channel=1, note=76, velocity=96, time=0),
    Message('note_on', channel=1, note=69, velocity=0, time=158),
    Message('note_on', channel=1, note=76, velocity=0, time=0),
    Message('note_on', channel=1, note=69, velocity=96, time=1),
    Message('note_on', channel=1, note=76, velocity=96, time=0),
    Message('note_on', channel=1, note=69, velocity=0, time=158),
    Message('note_on', channel=1, note=76, velocity=0, time=0),
    Message('note_on', channel=1, note=69, velocity=96, time=2),
    Message('note_on', channel=1, note=76, velocity=96, time=0),
    Message('note_on', channel=1, note=69, velocity=0, time=158),
    Message('note_on', channel=1, note=76, velocity=0, time=0),
    Message('note_on', channel=1, note=69, velocity=96, time=1),
    Message('note_on', channel=1, note=76, velocity=96, time=0),
    Message('note_on', channel=1, note=69, velocity=0, time=158),
    Message('note_on', channel=1, note=76, velocity=0, time=0),
    Message('note_on', channel=1, note=69, velocity=96, time=1),
    Message('note_on', channel=1, note=76, velocity=96, time=0),
    Message('note_on', channel=1, note=69, velocity=0, time=158),
    Message('note_on', channel=1, note=76, velocity=0, time=0),
    Message('note_on', channel=1, note=69, velocity=96, time=6),
    Message('control_change', channel=1, control=2, value=96, time=0),
    Message('note_on', channel=1, note=78, velocity=96, time=0),
    Message('note_on', channel=1, note=69, velocity=0, time=158),
    Message('note_on', channel=1, note=78, velocity=0, time=0),
    Message('note_on', channel=1, note=69, velocity=96, time=1),
    Message('note_on', channel=1, note=78, velocity=96, time=0),
    Message('note_on', channel=1, note=69, velocity=0, time=158),
    Message('note_on', channel=1, note=78, velocity=0, time=0),
    Message('note_on', channel=1, note=69, velocity=96, time=1),
    Message('note_on', channel=1, note=78, velocity=96, time=0),
    Message('note_on', channel=1, note=69, velocity=0, time=158),
    Message('note_on', channel=1, note=78, velocity=0, time=0),
    Message('note_on', channel=1, note=69, velocity=96, time=2),
    Message('note_on', channel=1, note=78, velocity=96, time=0),
    Message('note_on', channel=1, note=69, velocity=0, time=158),
    Message('note_on', channel=1, note=78, velocity=0, time=0),
    Message('note_on', channel=1, note=69, velocity=96, time=1),
    Message('note_on', channel=1, note=78, velocity=96, time=0),
    Message('note_on', channel=1, note=69, velocity=0, time=158),
    Message('note_on', channel=1, note=78, velocity=0, time=0),
    Message('note_on', channel=1, note=69, velocity=96, time=1),
    Message('note_on', channel=1, note=78, velocity=96, time=0),
    Message('note_on', channel=1, note=69, velocity=0, time=158),
    Message('note_on', channel=1, note=78, velocity=0, time=0),
    Message('note_on', channel=1, note=69, velocity=96, time=6),
    Message('control_change', channel=1, control=2, value=96, time=0),
    Message('note_on', channel=1, note=78, velocity=96, time=0),
    Message('note_on', channel=1, note=69, velocity=0, time=158),
    Message('note_on', channel=1, note=78, velocity=0, time=0),
    Message('note_on', channel=1, note=69, velocity=96, time=1),
    Message('note_on', channel=1, note=78, velocity=96, time=0),
    Message('note_on', channel=1, note=69, velocity=0, time=158),
    Message('note_on', channel=1, note=78, velocity=0, time=0),
    Message('note_on', channel=1, note=69, velocity=96, time=1),
    Message('note_on', channel=1, note=78, velocity=96, time=0),
    Message('note_on', channel=1, note=69, velocity=0, time=158),
    Message('note_on', channel=1, note=78, velocity=0, time=0),
    Message('note_on', channel=1, note=69, velocity=96, time=2),
    Message('note_on', channel=1, note=78, velocity=96, time=0),
    Message('note_on', channel=1, note=69, velocity=0, time=158),
    Message('note_on', channel=1, note=78, velocity=0, time=0),
    Message('note_on', channel=1, note=69, velocity=96, time=1),
    Message('note_on', channel=1, note=78, velocity=96, time=0),
    Message('note_on', channel=1, note=69, velocity=0, time=158),
    Message('note_on', channel=1, note=78, velocity=0, time=0),
    Message('note_on', channel=1, note=69, velocity=96, time=1),
    Message('note_on', channel=1, note=78, velocity=96, time=0),
    Message('note_on', channel=1, note=69, velocity=0, time=158),
    Message('note_on', channel=1, note=78, velocity=0, time=0),
    Message('note_on', channel=1, note=71, velocity=96, time=6),
    Message('control_change', channel=1, control=2, value=96, time=0),
    Message('note_on', channel=1, note=79, velocity=96, time=0),
    Message('note_on', channel=1, note=71, velocity=0, time=158),
    Message('note_on', channel=1, note=79, velocity=0, time=0),
    Message('note_on', channel=1, note=71, velocity=96, time=1),
    Message('note_on', channel=1, note=79, velocity=96, time=0),
    Message('note_on', channel=1, note=71, velocity=0, time=158),
    Message('note_on', channel=1, note=79, velocity=0, time=0),
    Message('note_on', channel=1, note=71, velocity=96, time=1),
    Message('note_on', channel=1, note=79, velocity=96, time=0),
    Message('note_on', channel=1, note=71, velocity=0, time=158),
    Message('note_on', channel=1, note=79, velocity=0, time=0),
    Message('note_on', channel=1, note=71, velocity=96, time=2),
    Message('note_on', channel=1, note=79, velocity=96, time=0),
    Message('note_on', channel=1, note=71, velocity=0, time=158),
    Message('note_on', channel=1, note=79, velocity=0, time=0),
    Message('note_on', channel=1, note=71, velocity=96, time=1),
    Message('note_on', channel=1, note=79, velocity=96, time=0),
    Message('note_on', channel=1, note=71, velocity=0, time=158),
    Message('note_on', channel=1, note=79, velocity=0, time=0),
    Message('note_on', channel=1, note=71, velocity=96, time=1),
    Message('note_on', channel=1, note=79, velocity=96, time=0),
    Message('note_on', channel=1, note=71, velocity=0, time=158),
    Message('note_on', channel=1, note=79, velocity=0, time=0),
    Message('note_on', channel=1, note=71, velocity=96, time=6),
    Message('control_change', channel=1, control=2, value=96, time=0),
    Message('note_on', channel=1, note=79, velocity=96, time=0),
    Message('note_on', channel=1, note=71, velocity=0, time=158),
    Message('note_on', channel=1, note=79, velocity=0, time=0),
    Message('note_on', channel=1, note=71, velocity=96, time=1),
    Message('note_on', channel=1, note=79, velocity=96, time=0),
    Message('note_on', channel=1, note=71, velocity=0, time=158),
    Message('note_on', channel=1, note=79, velocity=0, time=0),
    Message('note_on', channel=1, note=71, velocity=96, time=1),
    Message('note_on', channel=1, note=79, velocity=96, time=0),
    Message('note_on', channel=1, note=71, velocity=0, time=158),
    Message('note_on', channel=1, note=79, velocity=0, time=0),
    Message('note_on', channel=1, note=71, velocity=96, time=2),
    Message('note_on', channel=1, note=79, velocity=96, time=0),
    Message('note_on', channel=1, note=71, velocity=0, time=158),
    Message('note_on', channel=1, note=79, velocity=0, time=0),
    Message('note_on', channel=1, note=71, velocity=96, time=1),
    Message('note_on', channel=1, note=79, velocity=96, time=0),
    Message('note_on', channel=1, note=71, velocity=0, time=158),
    Message('note_on', channel=1, note=79, velocity=0, time=0),
    Message('note_on', channel=1, note=71, velocity=96, time=1),
    Message('note_on', channel=1, note=79, velocity=96, time=0),
    Message('note_on', channel=1, note=71, velocity=0, time=158),
    Message('note_on', channel=1, note=79, velocity=0, time=0),
    Message('note_on', channel=1, note=73, velocity=96, time=6),
    Message('control_change', channel=1, control=2, value=96, time=0),
    Message('note_on', channel=1, note=80, velocity=96, time=0),
    Message('note_on', channel=1, note=73, velocity=0, time=158),
    Message('note_on', channel=1, note=80, velocity=0, time=0),
    Message('note_on', channel=1, note=73, velocity=96, time=1),
    Message('note_on', channel=1, note=80, velocity=96, time=0),
    Message('note_on', channel=1, note=73, velocity=0, time=158),
    Message('note_on', channel=1, note=80, velocity=0, time=0),
    Message('note_on', channel=1, note=73, velocity=96, time=1),
    Message('note_on', channel=1, note=80, velocity=96, time=0),
    Message('note_on', channel=1, note=73, velocity=0, time=158),
    Message('note_on', channel=1, note=80, velocity=0, time=0),
    Message('note_on', channel=1, note=73, velocity=96, time=2),
    Message('note_on', channel=1, note=80, velocity=96, time=0),
    Message('note_on', channel=1, note=73, velocity=0, time=158),
    Message('note_on', channel=1, note=80, velocity=0, time=0),
    Message('note_on', channel=1, note=73, velocity=96, time=1),
    Message('note_on', channel=1, note=80, velocity=96, time=0),
    Message('note_on', channel=1, note=73, velocity=0, time=158),
    Message('note_on', channel=1, note=80, velocity=0, time=0),
    Message('note_on', channel=1, note=73, velocity=96, time=1),
    Message('note_on', channel=1, note=80, velocity=96, time=0),
    Message('note_on', channel=1, note=73, velocity=0, time=158),
    Message('note_on', channel=1, note=80, velocity=0, time=0),
    Message('note_on', channel=1, note=73, velocity=96, time=6),
    Message('control_change', channel=1, control=2, value=96, time=0),
    Message('note_on', channel=1, note=82, velocity=96, time=0),
    Message('note_on', channel=1, note=73, velocity=0, time=158),
    Message('note_on', channel=1, note=82, velocity=0, time=0),
    Message('note_on', channel=1, note=73, velocity=96, time=1),
    Message('note_on', channel=1, note=82, velocity=96, time=0),
    Message('note_on', channel=1, note=73, velocity=0, time=158),
    Message('note_on', channel=1, note=82, velocity=0, time=0),
    Message('note_on', channel=1, note=73, velocity=96, time=2),
    Message('note_on', channel=1, note=82, velocity=96, time=0),
    Message('note_on', channel=1, note=73, velocity=0, time=158),
    Message('note_on', channel=1, note=82, velocity=0, time=0),
    Message('note_on', channel=1, note=74, velocity=96, time=3),
    Message('control_change', channel=1, control=2, value=96, time=0),
    Message('note_on', channel=1, note=78, velocity=96, time=0),
    Message('note_on', channel=1, note=74, velocity=0, time=159),
    Message('note_on', channel=1, note=78, velocity=0, time=0),
    Message('note_on', channel=1, note=74, velocity=96, time=1),
    Message('control_change', channel=1, control=2, value=96, time=0),
    Message('note_on', channel=1, note=78, velocity=96, time=0),
    Message('note_on', channel=1, note=74, velocity=0, time=159),
    Message('note_on', channel=1, note=78, velocity=0, time=0),
    Message('note_on', channel=1, note=71, velocity=96, time=1),
    Message('control_change', channel=1, control=2, value=96, time=0),
    Message('note_on', channel=1, note=74, velocity=96, time=0),
    Message('note_on', channel=1, note=71, velocity=0, time=159),
    Message('note_on', channel=1, note=74, velocity=0, time=0),
    Message('note_on', channel=1, note=69, velocity=96, time=1),
    Message('control_change', channel=1, control=2, value=96, time=0),
    Message('note_on', channel=1, note=76, velocity=96, time=0),
    Message('note_on', channel=1, note=69, velocity=0, time=158),
    Message('note_on', channel=1, note=76, velocity=0, time=0),
    Message('note_on', channel=1, note=69, velocity=96, time=1),
    Message('note_on', channel=1, note=76, velocity=96, time=0),
    Message('note_on', channel=1, note=69, velocity=0, time=158),
    Message('note_on', channel=1, note=76, velocity=0, time=0),
    Message('note_on', channel=1, note=69, velocity=96, time=1),
    Message('note_on', channel=1, note=76, velocity=96, time=0),
    Message('note_on', channel=1, note=69, velocity=0, time=158),
    Message('note_on', channel=1, note=76, velocity=0, time=0),
    Message('note_on', channel=1, note=69, velocity=96, time=2),
    Message('note_on', channel=1, note=76, velocity=96, time=0),
    Message('note_on', channel=1, note=69, velocity=0, time=158),
    Message('note_on', channel=1, note=76, velocity=0, time=0),
    Message('note_on', channel=1, note=69, velocity=96, time=1),
    Message('note_on', channel=1, note=76, velocity=96, time=0),
    Message('note_on', channel=1, note=69, velocity=0, time=158),
    Message('note_on', channel=1, note=76, velocity=0, time=0),
    Message('note_on', channel=1, note=69, velocity=96, time=1),
    Message('note_on', channel=1, note=76, velocity=96, time=0),
    Message('note_on', channel=1, note=69, velocity=0, time=158),
    Message('note_on', channel=1, note=76, velocity=0, time=0),
    Message('note_on', channel=1, note=69, velocity=96, time=6),
    Message('control_change', channel=1, control=2, value=96, time=0),
    Message('note_on', channel=1, note=76, velocity=96, time=0),
    Message('note_on', channel=1, note=69, velocity=0, time=158),
    Message('note_on', channel=1, note=76, velocity=0, time=0),
    Message('note_on', channel=1, note=69, velocity=96, time=1),
    Message('note_on', channel=1, note=76, velocity=96, time=0),
    Message('note_on', channel=1, note=69, velocity=0, time=158),
    Message('note_on', channel=1, note=76, velocity=0, time=0),
    Message('note_on', channel=1, note=69, velocity=96, time=1),
    Message('note_on', channel=1, note=76, velocity=96, time=0),
    Message('note_on', channel=1, note=69, velocity=0, time=158),
    Message('note_on', channel=1, note=76, velocity=0, time=0),
    Message('note_on', channel=1, note=69, velocity=96, time=2),
    Message('note_on', channel=1, note=76, velocity=96, time=0),
    Message('note_on', channel=1, note=69, velocity=0, time=158),
    Message('note_on', channel=1, note=76, velocity=0, time=0),
    Message('note_on', channel=1, note=69, velocity=96, time=1),
    Message('note_on', channel=1, note=76, velocity=96, time=0),
    Message('note_on', channel=1, note=69, velocity=0, time=158),
    Message('note_on', channel=1, note=76, velocity=0, time=0),
    Message('note_on', channel=1, note=69, velocity=96, time=1),
    Message('note_on', channel=1, note=76, velocity=96, time=0),
    Message('note_on', channel=1, note=69, velocity=0, time=158),
    Message('note_on', channel=1, note=76, velocity=0, time=0),
    Message('note_on', channel=1, note=69, velocity=96, time=6),
    Message('control_change', channel=1, control=2, value=96, time=0),
    Message('note_on', channel=1, note=78, velocity=96, time=0),
    Message('note_on', channel=1, note=69, velocity=0, time=158),
    Message('note_on', channel=1, note=78, velocity=0, time=0),
    Message('note_on', channel=1, note=69, velocity=96, time=1),
    Message('note_on', channel=1, note=78, velocity=96, time=0),
    Message('note_on', channel=1, note=69, velocity=0, time=158),
    Message('note_on', channel=1, note=78, velocity=0, time=0),
    Message('note_on', channel=1, note=69, velocity=96, time=1),
    Message('note_on', channel=1, note=78, velocity=96, time=0),
    Message('note_on', channel=1, note=69, velocity=0, time=158),
    Message('note_on', channel=1, note=78, velocity=0, time=0),
    Message('note_on', channel=1, note=69, velocity=96, time=2),
    Message('note_on', channel=1, note=78, velocity=96, time=0),
    Message('note_on', channel=1, note=69, velocity=0, time=158),
    Message('note_on', channel=1, note=78, velocity=0, time=0),
    Message('note_on', channel=1, note=69, velocity=96, time=1),
    Message('note_on', channel=1, note=78, velocity=96, time=0),
    Message('note_on', channel=1, note=69, velocity=0, time=158),
    Message('note_on', channel=1, note=78, velocity=0, time=0),
    Message('note_on', channel=1, note=69, velocity=96, time=1),
    Message('note_on', channel=1, note=78, velocity=96, time=0),
    Message('note_on', channel=1, note=69, velocity=0, time=158),
    Message('note_on', channel=1, note=78, velocity=0, time=0),
    Message('note_on', channel=1, note=69, velocity=96, time=6),
    Message('control_change', channel=1, control=2, value=96, time=0),
    Message('note_on', channel=1, note=78, velocity=96, time=0),
    Message('note_on', channel=1, note=69, velocity=0, time=158),
    Message('note_on', channel=1, note=78, velocity=0, time=0),
    Message('note_on', channel=1, note=69, velocity=96, time=1),
    Message('note_on', channel=1, note=78, velocity=96, time=0),
    Message('note_on', channel=1, note=69, velocity=0, time=158),
    Message('note_on', channel=1, note=78, velocity=0, time=0),
    Message('note_on', channel=1, note=69, velocity=96, time=1),
    Message('note_on', channel=1, note=78, velocity=96, time=0),
    Message('note_on', channel=1, note=69, velocity=0, time=158),
    Message('note_on', channel=1, note=78, velocity=0, time=0),
    Message('note_on', channel=1, note=69, velocity=96, time=2),
    Message('note_on', channel=1, note=78, velocity=96, time=0),
    Message('note_on', channel=1, note=69, velocity=0, time=158),
    Message('note_on', channel=1, note=78, velocity=0, time=0),
    Message('note_on', channel=1, note=69, velocity=96, time=1),
    Message('note_on', channel=1, note=78, velocity=96, time=0),
    Message('note_on', channel=1, note=69, velocity=0, time=158),
    Message('note_on', channel=1, note=78, velocity=0, time=0),
    Message('note_on', channel=1, note=69, velocity=96, time=1),
    Message('note_on', channel=1, note=78, velocity=96, time=0),
    Message('note_on', channel=1, note=69, velocity=0, time=158),
    Message('note_on', channel=1, note=78, velocity=0, time=0),
    Message('note_on', channel=1, note=71, velocity=96, time=6),
    Message('control_change', channel=1, control=2, value=96, time=0),
    Message('note_on', channel=1, note=79, velocity=96, time=0),
    Message('note_on', channel=1, note=71, velocity=0, time=158),
    Message('note_on', channel=1, note=79, velocity=0, time=0),
    Message('note_on', channel=1, note=71, velocity=96, time=1),
    Message('note_on', channel=1, note=79, velocity=96, time=0),
    Message('note_on', channel=1, note=71, velocity=0, time=158),
    Message('note_on', channel=1, note=79, velocity=0, time=0),
    Message('note_on', channel=1, note=71, velocity=96, time=2),
    Message('note_on', channel=1, note=79, velocity=96, time=0),
    Message('note_on', channel=1, note=71, velocity=0, time=158),
    Message('note_on', channel=1, note=79, velocity=0, time=0),
    Message('note_on', channel=1, note=67, velocity=96, time=3),
    Message('control_change', channel=1, control=2, value=96, time=0),
    Message('note_on', channel=1, note=76, velocity=96, time=0),
    Message('note_on', channel=1, note=67, velocity=0, time=158),
    Message('note_on', channel=1, note=76, velocity=0, time=0),
    Message('note_on', channel=1, note=67, velocity=96, time=1),
    Message('note_on', channel=1, note=76, velocity=96, time=0),
    Message('note_on', channel=1, note=67, velocity=0, time=158),
    Message('note_on', channel=1, note=76, velocity=0, time=0),
    Message('note_on', channel=1, note=67, velocity=96, time=2),
    Message('note_on', channel=1, note=76, velocity=96, time=0),
    Message('note_on', channel=1, note=67, velocity=0, time=158),
    Message('note_on', channel=1, note=76, velocity=0, time=0),
    Message('note_on', channel=1, note=67, velocity=96, time=3),
    Message('control_change', channel=1, control=2, value=96, time=0),
    Message('note_on', channel=1, note=77, velocity=96, time=0),
    Message('note_on', channel=1, note=67, velocity=0, time=158),
    Message('note_on', channel=1, note=77, velocity=0, time=0),
    Message('note_on', channel=1, note=67, velocity=96, time=1),
    Message('note_on', channel=1, note=77, velocity=96, time=0),
    Message('note_on', channel=1, note=67, velocity=0, time=158),
    Message('note_on', channel=1, note=77, velocity=0, time=0),
    Message('note_on', channel=1, note=67, velocity=96, time=1),
    Message('note_on', channel=1, note=77, velocity=96, time=0),
    Message('note_on', channel=1, note=67, velocity=0, time=158),
    Message('note_on', channel=1, note=77, velocity=0, time=0),
    Message('note_on', channel=1, note=67, velocity=96, time=2),
    Message('note_on', channel=1, note=77, velocity=96, time=0),
    Message('note_on', channel=1, note=67, velocity=0, time=158),
    Message('note_on', channel=1, note=77, velocity=0, time=0),
    Message('note_on', channel=1, note=67, velocity=96, time=1),
    Message('note_on', channel=1, note=77, velocity=96, time=0),
    Message('note_on', channel=1, note=67, velocity=0, time=158),
    Message('note_on', channel=1, note=77, velocity=0, time=0),
    Message('note_on', channel=1, note=67, velocity=96, time=1),
    Message('note_on', channel=1, note=77, velocity=96, time=0),
    Message('note_on', channel=1, note=67, velocity=0, time=158),
    Message('note_on', channel=1, note=77, velocity=0, time=0),
    Message('note_on', channel=1, note=76, velocity=96, time=6),
    Message('control_change', channel=1, control=2, value=96, time=0),
    Message('note_on', channel=1, note=79, velocity=96, time=0),
    Message('note_on', channel=1, note=76, velocity=0, time=158),
    Message('note_on', channel=1, note=79, velocity=0, time=0),
    Message('note_on', channel=1, note=76, velocity=96, time=1),
    Message('note_on', channel=1, note=79, velocity=96, time=0),
    Message('note_on', channel=1, note=76, velocity=0, time=158),
    Message('note_on', channel=1, note=79, velocity=0, time=0),
    Message('note_on', channel=1, note=76, velocity=96, time=1),
    Message('note_on', channel=1, note=79, velocity=96, time=0),
    Message('note_on', channel=1, note=76, velocity=0, time=158),
    Message('note_on', channel=1, note=79, velocity=0, time=0),
    Message('note_on', channel=1, note=76, velocity=96, time=2),
    Message('note_on', channel=1, note=79, velocity=96, time=0),
    Message('note_on', channel=1, note=76, velocity=0, time=158),
    Message('note_on', channel=1, note=79, velocity=0, time=0),
    Message('note_on', channel=1, note=76, velocity=96, time=1),
    Message('note_on', channel=1, note=79, velocity=96, time=0),
    Message('note_on', channel=1, note=76, velocity=0, time=158),
    Message('note_on', channel=1, note=79, velocity=0, time=0),
    Message('note_on', channel=1, note=76, velocity=96, time=1),
    Message('note_on', channel=1, note=79, velocity=96, time=0),
    Message('note_on', channel=1, note=76, velocity=0, time=158),
    Message('note_on', channel=1, note=79, velocity=0, time=0),
    Message('note_on', channel=1, note=76, velocity=96, time=6),
    Message('control_change', channel=1, control=2, value=96, time=0),
    Message('note_on', channel=1, note=79, velocity=96, time=0),
    Message('note_on', channel=1, note=76, velocity=0, time=158),
    Message('note_on', channel=1, note=79, velocity=0, time=0),
    Message('note_on', channel=1, note=76, velocity=96, time=1),
    Message('note_on', channel=1, note=79, velocity=96, time=0),
    Message('note_on', channel=1, note=76, velocity=0, time=158),
    Message('note_on', channel=1, note=79, velocity=0, time=0),
    Message('note_on', channel=1, note=76, velocity=96, time=1),
    Message('note_on', channel=1, note=79, velocity=96, time=0),
    Message('note_on', channel=1, note=76, velocity=0, time=158),
    Message('note_on', channel=1, note=79, velocity=0, time=0),
    Message('note_on', channel=1, note=76, velocity=96, time=2),
    Message('note_on', channel=1, note=79, velocity=96, time=0),
    Message('note_on', channel=1, note=76, velocity=0, time=158),
    Message('note_on', channel=1, note=79, velocity=0, time=0),
    Message('note_on', channel=1, note=76, velocity=96, time=1),
    Message('note_on', channel=1, note=79, velocity=96, time=0),
    Message('note_on', channel=1, note=76, velocity=0, time=158),
    Message('note_on', channel=1, note=79, velocity=0, time=0),
    Message('note_on', channel=1, note=76, velocity=96, time=1),
    Message('note_on', channel=1, note=79, velocity=96, time=0),
    Message('note_on', channel=1, note=76, velocity=0, time=158),
    Message('note_on', channel=1, note=79, velocity=0, time=0),
    Message('note_on', channel=1, note=73, velocity=96, time=6),
    Message('control_change', channel=1, control=2, value=96, time=0),
    Message('note_on', channel=1, note=78, velocity=96, time=0),
    Message('note_on', channel=1, note=73, velocity=0, time=158),
    Message('note_on', channel=1, note=78, velocity=0, time=0),
    Message('note_on', channel=1, note=73, velocity=96, time=1),
    Message('note_on', channel=1, note=78, velocity=96, time=0),
    Message('note_on', channel=1, note=73, velocity=0, time=158),
    Message('note_on', channel=1, note=78, velocity=0, time=0),
    Message('note_on', channel=1, note=73, velocity=96, time=1),
    Message('note_on', channel=1, note=78, velocity=96, time=0),
    Message('note_on', channel=1, note=73, velocity=0, time=158),
    Message('note_on', channel=1, note=78, velocity=0, time=0),
    Message('note_on', channel=1, note=73, velocity=96, time=2),
    Message('note_on', channel=1, note=78, velocity=96, time=0),
    Message('note_on', channel=1, note=73, velocity=0, time=158),
    Message('note_on', channel=1, note=78, velocity=0, time=0),
    Message('note_on', channel=1, note=73, velocity=96, time=1),
    Message('note_on', channel=1, note=78, velocity=96, time=0),
    Message('note_on', channel=1, note=73, velocity=0, time=158),
    Message('note_on', channel=1, note=78, velocity=0, time=0),
    Message('note_on', channel=1, note=73, velocity=96, time=1),
    Message('note_on', channel=1, note=78, velocity=96, time=0),
    Message('note_on', channel=1, note=73, velocity=0, time=158),
    Message('note_on', channel=1, note=78, velocity=0, time=0),
    Message('note_on', channel=1, note=76, velocity=96, time=6),
    Message('control_change', channel=1, control=2, value=96, time=0),
    Message('note_on', channel=1, note=79, velocity=96, time=0),
    Message('note_on', channel=1, note=76, velocity=0, time=158),
    Message('note_on', channel=1, note=79, velocity=0, time=0),
    Message('note_on', channel=1, note=76, velocity=96, time=1),
    Message('note_on', channel=1, note=79, velocity=96, time=0),
    Message('note_on', channel=1, note=76, velocity=0, time=158),
    Message('note_on', channel=1, note=79, velocity=0, time=0),
    Message('note_on', channel=1, note=76, velocity=96, time=1),
    Message('note_on', channel=1, note=79, velocity=96, time=0),
    Message('note_on', channel=1, note=76, velocity=0, time=158),
    Message('note_on', channel=1, note=79, velocity=0, time=0),
    Message('note_on', channel=1, note=76, velocity=96, time=2),
    Message('note_on', channel=1, note=79, velocity=96, time=0),
    Message('note_on', channel=1, note=76, velocity=0, time=158),
    Message('note_on', channel=1, note=79, velocity=0, time=0),
    Message('note_on', channel=1, note=76, velocity=96, time=1),
    Message('note_on', channel=1, note=79, velocity=96, time=0),
    Message('note_on', channel=1, note=76, velocity=0, time=158),
    Message('note_on', channel=1, note=79, velocity=0, time=0),
    Message('note_on', channel=1, note=76, velocity=96, time=1),
    Message('note_on', channel=1, note=79, velocity=96, time=0),
    Message('note_on', channel=1, note=76, velocity=0, time=158),
    Message('note_on', channel=1, note=79, velocity=0, time=0),
    Message('note_on', channel=1, note=76, velocity=96, time=6),
    Message('control_change', channel=1, control=2, value=96, time=0),
    Message('note_on', channel=1, note=79, velocity=96, time=0),
    Message('note_on', channel=1, note=76, velocity=0, time=158),
    Message('note_on', channel=1, note=79, velocity=0, time=0),
    Message('note_on', channel=1, note=76, velocity=96, time=1),
    Message('note_on', channel=1, note=79, velocity=96, time=0),
    Message('note_on', channel=1, note=76, velocity=0, time=158),
    Message('note_on', channel=1, note=79, velocity=0, time=0),
    Message('note_on', channel=1, note=76, velocity=96, time=1),
    Message('note_on', channel=1, note=79, velocity=96, time=0),
    Message('note_on', channel=1, note=76, velocity=0, time=158),
    Message('note_on', channel=1, note=79, velocity=0, time=0),
    Message('note_on', channel=1, note=76, velocity=96, time=2),
    Message('note_on', channel=1, note=79, velocity=96, time=0),
    Message('note_on', channel=1, note=76, velocity=0, time=158),
    Message('note_on', channel=1, note=79, velocity=0, time=0),
    Message('note_on', channel=1, note=76, velocity=96, time=1),
    Message('note_on', channel=1, note=79, velocity=96, time=0),
    Message('note_on', channel=1, note=76, velocity=0, time=158),
    Message('note_on', channel=1, note=79, velocity=0, time=0),
    Message('note_on', channel=1, note=76, velocity=96, time=1),
    Message('note_on', channel=1, note=79, velocity=96, time=0),
    Message('note_on', channel=1, note=76, velocity=0, time=158),
    Message('note_on', channel=1, note=79, velocity=0, time=0),
    Message('note_on', channel=1, note=76, velocity=96, time=6),
    Message('control_change', channel=1, control=2, value=96, time=0),
    Message('note_on', channel=1, note=79, velocity=96, time=0),
    Message('note_on', channel=1, note=76, velocity=0, time=158),
    Message('note_on', channel=1, note=79, velocity=0, time=0),
    Message('note_on', channel=1, note=76, velocity=96, time=1),
    Message('note_on', channel=1, note=79, velocity=96, time=0),
    Message('note_on', channel=1, note=76, velocity=0, time=158),
    Message('note_on', channel=1, note=79, velocity=0, time=0),
    Message('note_on', channel=1, note=76, velocity=96, time=1),
    Message('note_on', channel=1, note=79, velocity=96, time=0),
    Message('note_on', channel=1, note=76, velocity=0, time=158),
    Message('note_on', channel=1, note=79, velocity=0, time=0),
    Message('note_on', channel=1, note=76, velocity=96, time=2),
    Message('note_on', channel=1, note=79, velocity=96, time=0),
    Message('note_on', channel=1, note=76, velocity=0, time=158),
    Message('note_on', channel=1, note=79, velocity=0, time=0),
    Message('note_on', channel=1, note=76, velocity=96, time=1),
    Message('note_on', channel=1, note=79, velocity=96, time=0),
    Message('note_on', channel=1, note=76, velocity=0, time=158),
    Message('note_on', channel=1, note=79, velocity=0, time=0),
    Message('note_on', channel=1, note=76, velocity=96, time=1),
    Message('note_on', channel=1, note=79, velocity=96, time=0),
    Message('note_on', channel=1, note=76, velocity=0, time=158),
    Message('note_on', channel=1, note=79, velocity=0, time=0),
    Message('note_on', channel=1, note=73, velocity=96, time=6),
    Message('control_change', channel=1, control=2, value=96, time=0),
    Message('note_on', channel=1, note=78, velocity=96, time=0),
    Message('note_on', channel=1, note=73, velocity=0, time=158),
    Message('note_on', channel=1, note=78, velocity=0, time=0),
    Message('note_on', channel=1, note=73, velocity=96, time=1),
    Message('note_on', channel=1, note=78, velocity=96, time=0),
    Message('note_on', channel=1, note=73, velocity=0, time=158),
    Message('note_on', channel=1, note=78, velocity=0, time=0),
    Message('note_on', channel=1, note=73, velocity=96, time=1),
    Message('note_on', channel=1, note=78, velocity=96, time=0),
    Message('note_on', channel=1, note=73, velocity=0, time=158),
    Message('note_on', channel=1, note=78, velocity=0, time=0),
    Message('note_on', channel=1, note=73, velocity=96, time=2),
    Message('note_on', channel=1, note=78, velocity=96, time=0),
    Message('note_on', channel=1, note=73, velocity=0, time=158),
    Message('note_on', channel=1, note=78, velocity=0, time=0),
    Message('note_on', channel=1, note=73, velocity=96, time=1),
    Message('note_on', channel=1, note=78, velocity=96, time=0),
    Message('note_on', channel=1, note=73, velocity=0, time=158),
    Message('note_on', channel=1, note=78, velocity=0, time=0),
    Message('note_on', channel=1, note=73, velocity=96, time=1),
    Message('note_on', channel=1, note=78, velocity=96, time=0),
    Message('note_on', channel=1, note=73, velocity=0, time=158),
    Message('note_on', channel=1, note=78, velocity=0, time=0),
    Message('note_on', channel=1, note=76, velocity=96, time=6),
    Message('control_change', channel=1, control=2, value=96, time=0),
    Message('note_on', channel=1, note=79, velocity=96, time=0),
    Message('note_on', channel=1, note=76, velocity=0, time=158),
    Message('note_on', channel=1, note=79, velocity=0, time=0),
    Message('note_on', channel=1, note=76, velocity=96, time=1),
    Message('note_on', channel=1, note=79, velocity=96, time=0),
    Message('note_on', channel=1, note=76, velocity=0, time=158),
    Message('note_on', channel=1, note=79, velocity=0, time=0),
    Message('note_on', channel=1, note=76, velocity=96, time=1),
    Message('note_on', channel=1, note=79, velocity=96, time=0),
    Message('note_on', channel=1, note=76, velocity=0, time=158),
    Message('note_on', channel=1, note=79, velocity=0, time=0),
    Message('note_on', channel=1, note=76, velocity=96, time=2),
    Message('note_on', channel=1, note=79, velocity=96, time=0),
    Message('note_on', channel=1, note=76, velocity=0, time=158),
    Message('note_on', channel=1, note=79, velocity=0, time=0),
    Message('note_on', channel=1, note=76, velocity=96, time=1),
    Message('note_on', channel=1, note=79, velocity=96, time=0),
    Message('note_on', channel=1, note=76, velocity=0, time=158),
    Message('note_on', channel=1, note=79, velocity=0, time=0),
    Message('note_on', channel=1, note=76, velocity=96, time=1),
    Message('note_on', channel=1, note=79, velocity=96, time=0),
    Message('note_on', channel=1, note=76, velocity=0, time=158),
    Message('note_on', channel=1, note=79, velocity=0, time=0),
    Message('control_change', channel=1, control=2, value=96, time=6),
    Message('note_on', channel=1, note=76, velocity=96, time=0),
    Message('note_on', channel=1, note=79, velocity=96, time=0),
    Message('control_change', channel=1, control=2, value=97, time=480),
    Message('control_change', channel=1, control=2, value=98, time=480),
    Message('control_change', channel=1, control=2, value=99, time=480),
    Message('note_on', channel=1, note=76, velocity=0, time=479),
    Message('note_on', channel=1, note=79, velocity=0, time=0),
    Message('control_change', channel=1, control=2, value=100, time=1),
    Message('note_on', channel=1, note=76, velocity=100, time=0),
    Message('control_change', channel=1, control=2, value=101, time=480),
    Message('control_change', channel=1, control=2, value=102, time=480),
    Message('control_change', channel=1, control=2, value=103, time=480),
    Message('note_on', channel=1, note=76, velocity=0, time=479),
    Message('control_change', channel=1, control=2, value=104, time=1),
    Message('note_on', channel=1, note=76, velocity=104, time=0),
    Message('note_on', channel=1, note=79, velocity=104, time=0),
    Message('control_change', channel=1, control=2, value=105, time=480),
    Message('control_change', channel=1, control=2, value=106, time=480),
    Message('control_change', channel=1, control=2, value=107, time=480),
    Message('note_on', channel=1, note=76, velocity=0, time=479),
    Message('note_on', channel=1, note=79, velocity=0, time=0),
    Message('control_change', channel=1, control=2, value=108, time=1),
    Message('note_on', channel=1, note=76, velocity=108, time=0),
    Message('control_change', channel=1, control=2, value=109, time=480),
    Message('control_change', channel=1, control=2, value=110, time=480),
    Message('control_change', channel=1, control=2, value=111, time=480),
    Message('note_on', channel=1, note=76, velocity=0, time=479),
    Message('control_change', channel=1, control=2, value=112, time=1),
    Message('note_on', channel=1, note=76, velocity=112, time=0),
    Message('note_on', channel=1, note=79, velocity=112, time=0),
    Message('note_on', channel=1, note=76, velocity=0, time=1919),
    Message('note_on', channel=1, note=79, velocity=0, time=0),
    Message('note_on', channel=1, note=76, velocity=112, time=1),
    Message('control_change', channel=1, control=2, value=112, time=0),
    Message('note_on', channel=1, note=79, velocity=112, time=0),
    Message('note_on', channel=1, note=76, velocity=0, time=1919),
    Message('note_on', channel=1, note=79, velocity=0, time=0),
    Message('note_on', channel=1, note=77, velocity=112, time=1),
    Message('control_change', channel=1, control=2, value=112, time=0),
    Message('note_on', channel=1, note=80, velocity=112, time=0),
    Message('note_on', channel=1, note=77, velocity=0, time=1919),
    Message('note_on', channel=1, note=80, velocity=0, time=0),
    Message('note_on', channel=1, note=76, velocity=112, time=1),
    Message('control_change', channel=1, control=2, value=112, time=0),
    Message('note_on', channel=1, note=82, velocity=112, time=0),
    Message('note_on', channel=1, note=76, velocity=0, time=1919),
    Message('note_on', channel=1, note=82, velocity=0, time=0),
    Message('note_on', channel=1, note=76, velocity=112, time=1),
    Message('control_change', channel=1, control=2, value=112, time=0),
    Message('note_on', channel=1, note=82, velocity=112, time=0),
    Message('note_on', channel=1, note=76, velocity=0, time=959),
    Message('note_on', channel=1, note=82, velocity=0, time=0),
    Message('note_on', channel=1, note=76, velocity=112, time=1),
    Message('control_change', channel=1, control=2, value=112, time=0),
    Message('note_on', channel=1, note=82, velocity=112, time=0),
    Message('note_on', channel=1, note=76, velocity=0, time=959),
    Message('note_on', channel=1, note=82, velocity=0, time=0),
    Message('note_on', channel=1, note=76, velocity=112, time=1),
    Message('control_change', channel=1, control=2, value=112, time=0),
    Message('note_on', channel=1, note=82, velocity=112, time=0),
    Message('note_on', channel=1, note=76, velocity=0, time=959),
    Message('note_on', channel=1, note=82, velocity=0, time=0),
    Message('note_on', channel=1, note=76, velocity=112, time=1),
    Message('control_change', channel=1, control=2, value=112, time=0),
    Message('note_on', channel=1, note=82, velocity=112, time=0),
    Message('note_on', channel=1, note=76, velocity=0, time=959),
    Message('note_on', channel=1, note=82, velocity=0, time=0),
    Message('note_on', channel=1, note=83, velocity=126, time=7681),
    Message('control_change', channel=1, control=2, value=126, time=0),
    Message('note_on', channel=1, note=86, velocity=126, time=0),
    Message('control_change', channel=1, control=2, value=126, time=1920),
    Message('note_on', channel=1, note=83, velocity=0, time=479),
    Message('note_on', channel=1, note=86, velocity=0, time=0),
    Message('note_on', channel=1, note=71, velocity=126, time=2401),
    Message('control_change', channel=1, control=2, value=126, time=0),
    Message('note_on', channel=1, note=74, velocity=126, time=0),
    Message('note_on', channel=1, note=71, velocity=0, time=959),
    Message('note_on', channel=1, note=74, velocity=0, time=0),
    Message('note_on', channel=1, note=71, velocity=126, time=961),
    Message('control_change', channel=1, control=2, value=126, time=0),
    Message('note_on', channel=1, note=74, velocity=126, time=0),
    Message('note_on', channel=1, note=71, velocity=0, time=959),
    Message('note_on', channel=1, note=74, velocity=0, time=0),
    Message('note_on', channel=1, note=71, velocity=126, time=481),
    Message('control_change', channel=1, control=2, value=126, time=0),
    Message('note_on', channel=1, note=74, velocity=126, time=0),
    Message('note_on', channel=1, note=71, velocity=0, time=479),
    Message('note_on', channel=1, note=74, velocity=0, time=0),
    Message('note_on', channel=1, note=71, velocity=126, time=481),
    Message('control_change', channel=1, control=2, value=126, time=0),
    Message('note_on', channel=1, note=74, velocity=126, time=0),
    Message('note_on', channel=1, note=71, velocity=0, time=479),
    Message('note_on', channel=1, note=74, velocity=0, time=0),
    Message('note_on', channel=1, note=71, velocity=126, time=481),
    Message('control_change', channel=1, control=2, value=126, time=0),
    Message('note_on', channel=1, note=74, velocity=126, time=0),
    Message('note_on', channel=1, note=71, velocity=0, time=479),
    Message('note_on', channel=1, note=74, velocity=0, time=0),
    Message('note_on', channel=1, note=71, velocity=126, time=481),
    Message('control_change', channel=1, control=2, value=126, time=0),
    Message('note_on', channel=1, note=74, velocity=126, time=0),
    Message('note_on', channel=1, note=71, velocity=0, time=479),
    Message('note_on', channel=1, note=74, velocity=0, time=0),
    Message('note_on', channel=1, note=71, velocity=126, time=481),
    Message('control_change', channel=1, control=2, value=126, time=0),
    Message('note_on', channel=1, note=74, velocity=126, time=0),
    Message('note_on', channel=1, note=71, velocity=0, time=479),
    Message('note_on', channel=1, note=74, velocity=0, time=0),
    Message('note_on', channel=1, note=71, velocity=126, time=481),
    Message('control_change', channel=1, control=2, value=126, time=0),
    Message('note_on', channel=1, note=74, velocity=126, time=0),
    Message('note_on', channel=1, note=71, velocity=0, time=479),
    Message('note_on', channel=1, note=74, velocity=0, time=0),
    Message('note_on', channel=1, note=71, velocity=126, time=481),
    Message('control_change', channel=1, control=2, value=126, time=0),
    Message('note_on', channel=1, note=74, velocity=126, time=0),
    Message('note_on', channel=1, note=71, velocity=0, time=479),
    Message('note_on', channel=1, note=74, velocity=0, time=0),
    Message('note_on', channel=1, note=71, velocity=126, time=481),
    Message('control_change', channel=1, control=2, value=126, time=0),
    Message('note_on', channel=1, note=74, velocity=126, time=0),
    Message('note_on', channel=1, note=71, velocity=0, time=479),
    Message('note_on', channel=1, note=74, velocity=0, time=0),
    Message('control_change', channel=1, control=2, value=96, time=1),
    Message('note_on', channel=1, note=78, velocity=96, time=0),
    Message('note_on', channel=1, note=78, velocity=0, time=1919),
    Message('note_on', channel=1, note=71, velocity=96, time=1),
    Message('control_change', channel=1, control=2, value=96, time=0),
    Message('note_on', channel=1, note=71, velocity=0, time=479),
    Message('note_on', channel=1, note=73, velocity=96, time=1),
    Message('control_change', channel=1, control=2, value=96, time=0),
    Message('note_on', channel=1, note=73, velocity=0, time=479),
    Message('note_on', channel=1, note=74, velocity=96, time=1),
    Message('control_change', channel=1, control=2, value=96, time=0),
    Message('note_on', channel=1, note=74, velocity=0, time=479),
    Message('note_on', channel=1, note=76, velocity=96, time=1),
    Message('control_change', channel=1, control=2, value=96, time=0),
    Message('note_on', channel=1, note=76, velocity=0, time=479),
    Message('note_on', channel=1, note=78, velocity=96, time=1),
    Message('control_change', channel=1, control=2, value=96, time=0),
    Message('note_on', channel=1, note=78, velocity=0, time=1439),
    Message('note_on', channel=1, note=74, velocity=96, time=1),
    Message('control_change', channel=1, control=2, value=96, time=0),
    Message('note_on', channel=1, note=74, velocity=0, time=479),
    Message('note_on', channel=1, note=78, velocity=96, time=1),
    Message('control_change', channel=1, control=2, value=96, time=0),
    Message('note_on', channel=1, note=78, velocity=0, time=1439),
    Message('note_on', channel=1, note=74, velocity=96, time=1),
    Message('control_change', channel=1, control=2, value=96, time=0),
    Message('note_on', channel=1, note=74, velocity=0, time=479),
    MetaMessage('end_of_track', time=1)]),
  MidiTrack([
    MetaMessage('track_name', name='A Clarinet\x00', time=0),
    MetaMessage('key_signature', key='F', time=0),
    Message('control_change', channel=2, control=121, value=0, time=0),
    Message('program_change', channel=2, program=71, time=0),
    Message('control_change', channel=2, control=7, value=100, time=0),
    Message('control_change', channel=2, control=10, value=64, time=0),
    Message('control_change', channel=2, control=91, value=0, time=0),
    Message('control_change', channel=2, control=93, value=0, time=0),
    MetaMessage('midi_port', port=0, time=0),
    Message('note_on', channel=2, note=62, velocity=112, time=34560),
    Message('control_change', channel=2, control=2, value=112, time=0),
    Message('note_on', channel=2, note=59, velocity=112, time=0),
    Message('note_on', channel=2, note=62, velocity=0, time=959),
    Message('note_on', channel=2, note=64, velocity=112, time=1),
    Message('control_change', channel=2, control=2, value=112, time=0),
    Message('note_on', channel=2, note=59, velocity=0, time=959),
    Message('note_on', channel=2, note=64, velocity=0, time=0),
    Message('note_on', channel=2, note=62, velocity=112, time=1),
    Message('control_change', channel=2, control=2, value=112, time=0),
    Message('note_on', channel=2, note=66, velocity=112, time=0),
    Message('note_on', channel=2, note=62, velocity=0, time=1919),
    Message('note_on', channel=2, note=66, velocity=0, time=0),
    Message('note_on', channel=2, note=66, velocity=112, time=1),
    Message('control_change', channel=2, control=2, value=112, time=0),
    Message('note_on', channel=2, note=62, velocity=112, time=0),
    Message('note_on', channel=2, note=66, velocity=0, time=959),
    Message('note_on', channel=2, note=67, velocity=112, time=1),
    Message('control_change', channel=2, control=2, value=112, time=0),
    Message('note_on', channel=2, note=62, velocity=0, time=479),
    Message('note_on', channel=2, note=67, velocity=0, time=0),
    Message('note_on', channel=2, note=64, velocity=112, time=1),
    Message('control_change', channel=2, control=2, value=112, time=0),
    Message('note_on', channel=2, note=64, velocity=0, time=479),
    Message('note_on', channel=2, note=66, velocity=112, time=1),
    Message('control_change', channel=2, control=2, value=112, time=0),
    Message('note_on', channel=2, note=78, velocity=112, time=0),
    Message('note_on', channel=2, note=66, velocity=0, time=959),
    Message('note_on', channel=2, note=78, velocity=0, time=0),
    Message('note_on', channel=2, note=67, velocity=112, time=1),
    Message('control_change', channel=2, control=2, value=112, time=0),
    Message('note_on', channel=2, note=79, velocity=112, time=0),
    Message('note_on', channel=2, note=67, velocity=0, time=959),
    Message('note_on', channel=2, note=79, velocity=0, time=0),
    Message('note_on', channel=2, note=66, velocity=112, time=1),
    Message('control_change', channel=2, control=2, value=112, time=0),
    Message('note_on', channel=2, note=71, velocity=112, time=0),
    Message('note_on', channel=2, note=66, velocity=0, time=959),
    Message('note_on', channel=2, note=71, velocity=0, time=0),
    Message('note_on', channel=2, note=67, velocity=112, time=1),
    Message('control_change', channel=2, control=2, value=112, time=0),
    Message('note_on', channel=2, note=71, velocity=112, time=0),
    Message('note_on', channel=2, note=67, velocity=0, time=959),
    Message('note_on', channel=2, note=71, velocity=0, time=0),
    Message('note_on', channel=2, note=66, velocity=112, time=1),
    Message('control_change', channel=2, control=2, value=112, time=0),
    Message('note_on', channel=2, note=71, velocity=112, time=0),
    Message('control_change', channel=2, control=2, value=112, time=1920),
    Message('note_on', channel=2, note=66, velocity=0, time=959),
    Message('note_on', channel=2, note=71, velocity=0, time=0),
    Message('note_on', channel=2, note=62, velocity=112, time=1),
    Message('control_change', channel=2, control=2, value=112, time=0),
    Message('note_on', channel=2, note=67, velocity=112, time=0),
    Message('note_on', channel=2, note=62, velocity=0, time=479),
    Message('note_on', channel=2, note=67, velocity=0, time=0),
    Message('note_on', channel=2, note=58, velocity=112, time=1),
    Message('control_change', channel=2, control=2, value=112, time=0),
    Message('note_on', channel=2, note=64, velocity=112, time=0),
    Message('note_on', channel=2, note=58, velocity=0, time=479),
    Message('note_on', channel=2, note=64, velocity=0, time=0),
    Message('control_change', channel=2, control=2, value=96, time=1),
    Message('note_on', channel=2, note=54, velocity=96, time=0),
    Message('note_on', channel=2, note=66, velocity=96, time=0),
    Message('note_on', channel=2, note=54, velocity=0, time=159),
    Message('note_on', channel=2, note=66, velocity=0, time=0),
    Message('note_on', channel=2, note=62, velocity=96, time=1),
    Message('control_change', channel=2, control=2, value=96, time=0),
    Message('note_on', channel=2, note=66, velocity=96, time=0),
    Message('note_on', channel=2, note=62, velocity=0, time=159),
    Message('note_on', channel=2, note=66, velocity=0, time=0),
    Message('note_on', channel=2, note=62, velocity=96, time=1),
    Message('control_change', channel=2, control=2, value=96, time=0),
    Message('note_on', channel=2, note=66, velocity=96, time=0),
    Message('note_on', channel=2, note=62, velocity=0, time=159),
    Message('note_on', channel=2, note=66, velocity=0, time=0),
    Message('note_on', channel=2, note=62, velocity=96, time=1),
    Message('control_change', channel=2, control=2, value=96, time=0),
    Message('note_on', channel=2, note=66, velocity=96, time=0),
    Message('note_on', channel=2, note=62, velocity=0, time=158),
    Message('note_on', channel=2, note=66, velocity=0, time=0),
    Message('note_on', channel=2, note=62, velocity=96, time=1),
    Message('note_on', channel=2, note=66, velocity=96, time=0),
    Message('note_on', channel=2, note=62, velocity=0, time=158),
    Message('note_on', channel=2, note=66, velocity=0, time=0),
    Message('note_on', channel=2, note=62, velocity=96, time=2),
    Message('note_on', channel=2, note=66, velocity=96, time=0),
    Message('note_on', channel=2, note=62, velocity=0, time=158),
    Message('note_on', channel=2, note=66, velocity=0, time=0),
    Message('note_on', channel=2, note=62, velocity=96, time=3),
    Message('control_change', channel=2, control=2, value=96, time=0),
    Message('note_on', channel=2, note=66, velocity=96, time=0),
    Message('note_on', channel=2, note=62, velocity=0, time=158),
    Message('note_on', channel=2, note=66, velocity=0, time=0),
    Message('note_on', channel=2, note=62, velocity=96, time=1),
    Message('note_on', channel=2, note=66, velocity=96, time=0),
    Message('note_on', channel=2, note=62, velocity=0, time=158),
    Message('note_on', channel=2, note=66, velocity=0, time=0),
    Message('note_on', channel=2, note=62, velocity=96, time=1),
    Message('note_on', channel=2, note=66, velocity=96, time=0),
    Message('note_on', channel=2, note=62, velocity=0, time=158),
    Message('note_on', channel=2, note=66, velocity=0, time=0),
    Message('note_on', channel=2, note=62, velocity=96, time=2),
    Message('note_on', channel=2, note=66, velocity=96, time=0),
    Message('note_on', channel=2, note=62, velocity=0, time=158),
    Message('note_on', channel=2, note=66, velocity=0, time=0),
    Message('note_on', channel=2, note=62, velocity=96, time=1),
    Message('note_on', channel=2, note=66, velocity=96, time=0),
    Message('note_on', channel=2, note=62, velocity=0, time=158),
    Message('note_on', channel=2, note=66, velocity=0, time=0),
    Message('note_on', channel=2, note=62, velocity=96, time=1),
    Message('note_on', channel=2, note=66, velocity=96, time=0),
    Message('note_on', channel=2, note=62, velocity=0, time=158),
    Message('note_on', channel=2, note=66, velocity=0, time=0),
    Message('note_on', channel=2, note=64, velocity=96, time=6),
    Message('control_change', channel=2, control=2, value=96, time=0),
    Message('note_on', channel=2, note=73, velocity=96, time=0),
    Message('note_on', channel=2, note=64, velocity=0, time=158),
    Message('note_on', channel=2, note=73, velocity=0, time=0),
    Message('note_on', channel=2, note=64, velocity=96, time=1),
    Message('note_on', channel=2, note=73, velocity=96, time=0),
    Message('note_on', channel=2, note=64, velocity=0, time=158),
    Message('note_on', channel=2, note=73, velocity=0, time=0),
    Message('note_on', channel=2, note=64, velocity=96, time=1),
    Message('note_on', channel=2, note=73, velocity=96, time=0),
    Message('note_on', channel=2, note=64, velocity=0, time=158),
    Message('note_on', channel=2, note=73, velocity=0, time=0),
    Message('note_on', channel=2, note=64, velocity=96, time=2),
    Message('note_on', channel=2, note=73, velocity=96, time=0),
    Message('note_on', channel=2, note=64, velocity=0, time=158),
    Message('note_on', channel=2, note=73, velocity=0, time=0),
    Message('note_on', channel=2, note=64, velocity=96, time=1),
    Message('note_on', channel=2, note=73, velocity=96, time=0),
    Message('note_on', channel=2, note=64, velocity=0, time=158),
    Message('note_on', channel=2, note=73, velocity=0, time=0),
    Message('note_on', channel=2, note=64, velocity=96, time=1),
    Message('note_on', channel=2, note=73, velocity=96, time=0),
    Message('note_on', channel=2, note=64, velocity=0, time=158),
    Message('note_on', channel=2, note=73, velocity=0, time=0),
    Message('note_on', channel=2, note=64, velocity=96, time=6),
    Message('control_change', channel=2, control=2, value=96, time=0),
    Message('note_on', channel=2, note=73, velocity=96, time=0),
    Message('note_on', channel=2, note=64, velocity=0, time=158),
    Message('note_on', channel=2, note=73, velocity=0, time=0),
    Message('note_on', channel=2, note=64, velocity=96, time=1),
    Message('note_on', channel=2, note=73, velocity=96, time=0),
    Message('note_on', channel=2, note=64, velocity=0, time=158),
    Message('note_on', channel=2, note=73, velocity=0, time=0),
    Message('note_on', channel=2, note=64, velocity=96, time=1),
    Message('note_on', channel=2, note=73, velocity=96, time=0),
    Message('note_on', channel=2, note=64, velocity=0, time=158),
    Message('note_on', channel=2, note=73, velocity=0, time=0),
    Message('note_on', channel=2, note=64, velocity=96, time=2),
    Message('note_on', channel=2, note=73, velocity=96, time=0),
    Message('note_on', channel=2, note=64, velocity=0, time=158),
    Message('note_on', channel=2, note=73, velocity=0, time=0),
    Message('note_on', channel=2, note=64, velocity=96, time=1),
    Message('note_on', channel=2, note=73, velocity=96, time=0),
    Message('note_on', channel=2, note=64, velocity=0, time=158),
    Message('note_on', channel=2, note=73, velocity=0, time=0),
    Message('note_on', channel=2, note=64, velocity=96, time=1),
    Message('note_on', channel=2, note=73, velocity=96, time=0),
    Message('note_on', channel=2, note=64, velocity=0, time=158),
    Message('note_on', channel=2, note=73, velocity=0, time=0),
    Message('note_on', channel=2, note=66, velocity=96, time=6),
    Message('control_change', channel=2, control=2, value=96, time=0),
    Message('note_on', channel=2, note=73, velocity=96, time=0),
    Message('note_on', channel=2, note=66, velocity=0, time=158),
    Message('note_on', channel=2, note=73, velocity=0, time=0),
    Message('note_on', channel=2, note=66, velocity=96, time=1),
    Message('note_on', channel=2, note=73, velocity=96, time=0),
    Message('note_on', channel=2, note=66, velocity=0, time=158),
    Message('note_on', channel=2, note=73, velocity=0, time=0),
    Message('note_on', channel=2, note=66, velocity=96, time=1),
    Message('note_on', channel=2, note=73, velocity=96, time=0),
    Message('note_on', channel=2, note=66, velocity=0, time=158),
    Message('note_on', channel=2, note=73, velocity=0, time=0),
    Message('note_on', channel=2, note=66, velocity=96, time=2),
    Message('note_on', channel=2, note=73, velocity=96, time=0),
    Message('note_on', channel=2, note=66, velocity=0, time=158),
    Message('note_on', channel=2, note=73, velocity=0, time=0),
    Message('note_on', channel=2, note=66, velocity=96, time=1),
    Message('note_on', channel=2, note=73, velocity=96, time=0),
    Message('note_on', channel=2, note=66, velocity=0, time=158),
    Message('note_on', channel=2, note=73, velocity=0, time=0),
    Message('note_on', channel=2, note=66, velocity=96, time=1),
    Message('note_on', channel=2, note=73, velocity=96, time=0),
    Message('note_on', channel=2, note=66, velocity=0, time=158),
    Message('note_on', channel=2, note=73, velocity=0, time=0),
    Message('note_on', channel=2, note=66, velocity=96, time=6),
    Message('control_change', channel=2, control=2, value=96, time=0),
    Message('note_on', channel=2, note=73, velocity=96, time=0),
    Message('note_on', channel=2, note=66, velocity=0, time=158),
    Message('note_on', channel=2, note=73, velocity=0, time=0),
    Message('note_on', channel=2, note=66, velocity=96, time=1),
    Message('note_on', channel=2, note=73, velocity=96, time=0),
    Message('note_on', channel=2, note=66, velocity=0, time=158),
    Message('note_on', channel=2, note=73, velocity=0, time=0),
    Message('note_on', channel=2, note=66, velocity=96, time=1),
    Message('note_on', channel=2, note=73, velocity=96, time=0),
    Message('note_on', channel=2, note=66, velocity=0, time=158),
    Message('note_on', channel=2, note=73, velocity=0, time=0),
    Message('note_on', channel=2, note=66, velocity=96, time=2),
    Message('note_on', channel=2, note=73, velocity=96, time=0),
    Message('note_on', channel=2, note=66, velocity=0, time=158),
    Message('note_on', channel=2, note=73, velocity=0, time=0),
    Message('note_on', channel=2, note=66, velocity=96, time=1),
    Message('note_on', channel=2, note=73, velocity=96, time=0),
    Message('note_on', channel=2, note=66, velocity=0, time=158),
    Message('note_on', channel=2, note=73, velocity=0, time=0),
    Message('note_on', channel=2, note=66, velocity=96, time=1),
    Message('note_on', channel=2, note=73, velocity=96, time=0),
    Message('note_on', channel=2, note=66, velocity=0, time=158),
    Message('note_on', channel=2, note=73, velocity=0, time=0),
    Message('note_on', channel=2, note=67, velocity=96, time=6),
    Message('control_change', channel=2, control=2, value=96, time=0),
    Message('note_on', channel=2, note=76, velocity=96, time=0),
    Message('note_on', channel=2, note=67, velocity=0, time=158),
    Message('note_on', channel=2, note=76, velocity=0, time=0),
    Message('note_on', channel=2, note=67, velocity=96, time=1),
    Message('note_on', channel=2, note=76, velocity=96, time=0),
    Message('note_on', channel=2, note=67, velocity=0, time=158),
    Message('note_on', channel=2, note=76, velocity=0, time=0),
    Message('note_on', channel=2, note=67, velocity=96, time=1),
    Message('note_on', channel=2, note=76, velocity=96, time=0),
    Message('note_on', channel=2, note=67, velocity=0, time=158),
    Message('note_on', channel=2, note=76, velocity=0, time=0),
    Message('note_on', channel=2, note=67, velocity=96, time=2),
    Message('note_on', channel=2, note=76, velocity=96, time=0),
    Message('note_on', channel=2, note=67, velocity=0, time=158),
    Message('note_on', channel=2, note=76, velocity=0, time=0),
    Message('note_on', channel=2, note=67, velocity=96, time=1),
    Message('note_on', channel=2, note=76, velocity=96, time=0),
    Message('note_on', channel=2, note=67, velocity=0, time=158),
    Message('note_on', channel=2, note=76, velocity=0, time=0),
    Message('note_on', channel=2, note=67, velocity=96, time=1),
    Message('note_on', channel=2, note=76, velocity=96, time=0),
    Message('note_on', channel=2, note=67, velocity=0, time=158),
    Message('note_on', channel=2, note=76, velocity=0, time=0),
    Message('note_on', channel=2, note=67, velocity=96, time=6),
    Message('control_change', channel=2, control=2, value=96, time=0),
    Message('note_on', channel=2, note=76, velocity=96, time=0),
    Message('note_on', channel=2, note=67, velocity=0, time=158),
    Message('note_on', channel=2, note=76, velocity=0, time=0),
    Message('note_on', channel=2, note=67, velocity=96, time=1),
    Message('note_on', channel=2, note=76, velocity=96, time=0),
    Message('note_on', channel=2, note=67, velocity=0, time=158),
    Message('note_on', channel=2, note=76, velocity=0, time=0),
    Message('note_on', channel=2, note=67, velocity=96, time=1),
    Message('note_on', channel=2, note=76, velocity=96, time=0),
    Message('note_on', channel=2, note=67, velocity=0, time=158),
    Message('note_on', channel=2, note=76, velocity=0, time=0),
    Message('note_on', channel=2, note=67, velocity=96, time=2),
    Message('note_on', channel=2, note=76, velocity=96, time=0),
    Message('note_on', channel=2, note=67, velocity=0, time=158),
    Message('note_on', channel=2, note=76, velocity=0, time=0),
    Message('note_on', channel=2, note=67, velocity=96, time=1),
    Message('note_on', channel=2, note=76, velocity=96, time=0),
    Message('note_on', channel=2, note=67, velocity=0, time=158),
    Message('note_on', channel=2, note=76, velocity=0, time=0),
    Message('note_on', channel=2, note=67, velocity=96, time=1),
    Message('note_on', channel=2, note=76, velocity=96, time=0),
    Message('note_on', channel=2, note=67, velocity=0, time=158),
    Message('note_on', channel=2, note=76, velocity=0, time=0),
    Message('note_on', channel=2, note=68, velocity=96, time=6),
    Message('control_change', channel=2, control=2, value=96, time=0),
    Message('note_on', channel=2, note=77, velocity=96, time=0),
    Message('note_on', channel=2, note=68, velocity=0, time=158),
    Message('note_on', channel=2, note=77, velocity=0, time=0),
    Message('note_on', channel=2, note=68, velocity=96, time=1),
    Message('note_on', channel=2, note=77, velocity=96, time=0),
    Message('note_on', channel=2, note=68, velocity=0, time=158),
    Message('note_on', channel=2, note=77, velocity=0, time=0),
    Message('note_on', channel=2, note=68, velocity=96, time=1),
    Message('note_on', channel=2, note=77, velocity=96, time=0),
    Message('note_on', channel=2, note=68, velocity=0, time=158),
    Message('note_on', channel=2, note=77, velocity=0, time=0),
    Message('note_on', channel=2, note=68, velocity=96, time=2),
    Message('note_on', channel=2, note=77, velocity=96, time=0),
    Message('note_on', channel=2, note=68, velocity=0, time=158),
    Message('note_on', channel=2, note=77, velocity=0, time=0),
    Message('note_on', channel=2, note=68, velocity=96, time=1),
    Message('note_on', channel=2, note=77, velocity=96, time=0),
    Message('note_on', channel=2, note=68, velocity=0, time=158),
    Message('note_on', channel=2, note=77, velocity=0, time=0),
    Message('note_on', channel=2, note=68, velocity=96, time=1),
    Message('note_on', channel=2, note=77, velocity=96, time=0),
    Message('note_on', channel=2, note=68, velocity=0, time=158),
    Message('note_on', channel=2, note=77, velocity=0, time=0),
    Message('note_on', channel=2, note=70, velocity=96, time=6),
    Message('control_change', channel=2, control=2, value=96, time=0),
    Message('note_on', channel=2, note=78, velocity=96, time=0),
    Message('note_on', channel=2, note=70, velocity=0, time=158),
    Message('note_on', channel=2, note=78, velocity=0, time=0),
    Message('note_on', channel=2, note=70, velocity=96, time=1),
    Message('note_on', channel=2, note=78, velocity=96, time=0),
    Message('note_on', channel=2, note=70, velocity=0, time=158),
    Message('note_on', channel=2, note=78, velocity=0, time=0),
    Message('note_on', channel=2, note=70, velocity=96, time=2),
    Message('note_on', channel=2, note=78, velocity=96, time=0),
    Message('note_on', channel=2, note=70, velocity=0, time=158),
    Message('note_on', channel=2, note=78, velocity=0, time=0),
    Message('note_on', channel=2, note=66, velocity=96, time=3),
    Message('control_change', channel=2, control=2, value=96, time=0),
    Message('note_on', channel=2, note=71, velocity=96, time=0),
    Message('note_on', channel=2, note=66, velocity=0, time=159),
    Message('note_on', channel=2, note=71, velocity=0, time=0),
    Message('note_on', channel=2, note=66, velocity=96, time=1),
    Message('control_change', channel=2, control=2, value=96, time=0),
    Message('note_on', channel=2, note=71, velocity=96, time=0),
    Message('note_on', channel=2, note=66, velocity=0, time=159),
    Message('note_on', channel=2, note=71, velocity=0, time=0),
    Message('note_on', channel=2, note=62, velocity=96, time=1),
    Message('control_change', channel=2, control=2, value=96, time=0),
    Message('note_on', channel=2, note=66, velocity=96, time=0),
    Message('note_on', channel=2, note=62, velocity=0, time=159),
    Message('note_on', channel=2, note=66, velocity=0, time=0),
    Message('note_on', channel=2, note=64, velocity=96, time=1),
    Message('control_change', channel=2, control=2, value=96, time=0),
    Message('note_on', channel=2, note=73, velocity=96, time=0),
    Message('note_on', channel=2, note=64, velocity=0, time=158),
    Message('note_on', channel=2, note=73, velocity=0, time=0),
    Message('note_on', channel=2, note=64, velocity=96, time=1),
    Message('note_on', channel=2, note=73, velocity=96, time=0),
    Message('note_on', channel=2, note=64, velocity=0, time=158),
    Message('note_on', channel=2, note=73, velocity=0, time=0),
    Message('note_on', channel=2, note=64, velocity=96, time=1),
    Message('note_on', channel=2, note=73, velocity=96, time=0),
    Message('note_on', channel=2, note=64, velocity=0, time=158),
    Message('note_on', channel=2, note=73, velocity=0, time=0),
    Message('note_on', channel=2, note=64, velocity=96, time=2),
    Message('note_on', channel=2, note=73, velocity=96, time=0),
    Message('note_on', channel=2, note=64, velocity=0, time=158),
    Message('note_on', channel=2, note=73, velocity=0, time=0),
    Message('note_on', channel=2, note=64, velocity=96, time=1),
    Message('note_on', channel=2, note=73, velocity=96, time=0),
    Message('note_on', channel=2, note=64, velocity=0, time=158),
    Message('note_on', channel=2, note=73, velocity=0, time=0),
    Message('note_on', channel=2, note=64, velocity=96, time=1),
    Message('note_on', channel=2, note=73, velocity=96, time=0),
    Message('note_on', channel=2, note=64, velocity=0, time=158),
    Message('note_on', channel=2, note=73, velocity=0, time=0),
    Message('note_on', channel=2, note=64, velocity=96, time=6),
    Message('control_change', channel=2, control=2, value=96, time=0),
    Message('note_on', channel=2, note=73, velocity=96, time=0),
    Message('note_on', channel=2, note=64, velocity=0, time=158),
    Message('note_on', channel=2, note=73, velocity=0, time=0),
    Message('note_on', channel=2, note=64, velocity=96, time=1),
    Message('note_on', channel=2, note=73, velocity=96, time=0),
    Message('note_on', channel=2, note=64, velocity=0, time=158),
    Message('note_on', channel=2, note=73, velocity=0, time=0),
    Message('note_on', channel=2, note=64, velocity=96, time=1),
    Message('note_on', channel=2, note=73, velocity=96, time=0),
    Message('note_on', channel=2, note=64, velocity=0, time=158),
    Message('note_on', channel=2, note=73, velocity=0, time=0),
    Message('note_on', channel=2, note=64, velocity=96, time=2),
    Message('note_on', channel=2, note=73, velocity=96, time=0),
    Message('note_on', channel=2, note=64, velocity=0, time=158),
    Message('note_on', channel=2, note=73, velocity=0, time=0),
    Message('note_on', channel=2, note=64, velocity=96, time=1),
    Message('note_on', channel=2, note=73, velocity=96, time=0),
    Message('note_on', channel=2, note=64, velocity=0, time=158),
    Message('note_on', channel=2, note=73, velocity=0, time=0),
    Message('note_on', channel=2, note=64, velocity=96, time=1),
    Message('note_on', channel=2, note=73, velocity=96, time=0),
    Message('note_on', channel=2, note=64, velocity=0, time=158),
    Message('note_on', channel=2, note=73, velocity=0, time=0),
    Message('note_on', channel=2, note=66, velocity=96, time=6),
    Message('control_change', channel=2, control=2, value=96, time=0),
    Message('note_on', channel=2, note=73, velocity=96, time=0),
    Message('note_on', channel=2, note=66, velocity=0, time=158),
    Message('note_on', channel=2, note=73, velocity=0, time=0),
    Message('note_on', channel=2, note=66, velocity=96, time=1),
    Message('note_on', channel=2, note=73, velocity=96, time=0),
    Message('note_on', channel=2, note=66, velocity=0, time=158),
    Message('note_on', channel=2, note=73, velocity=0, time=0),
    Message('note_on', channel=2, note=66, velocity=96, time=1),
    Message('note_on', channel=2, note=73, velocity=96, time=0),
    Message('note_on', channel=2, note=66, velocity=0, time=158),
    Message('note_on', channel=2, note=73, velocity=0, time=0),
    Message('note_on', channel=2, note=66, velocity=96, time=2),
    Message('note_on', channel=2, note=73, velocity=96, time=0),
    Message('note_on', channel=2, note=66, velocity=0, time=158),
    Message('note_on', channel=2, note=73, velocity=0, time=0),
    Message('note_on', channel=2, note=66, velocity=96, time=1),
    Message('note_on', channel=2, note=73, velocity=96, time=0),
    Message('note_on', channel=2, note=66, velocity=0, time=158),
    Message('note_on', channel=2, note=73, velocity=0, time=0),
    Message('note_on', channel=2, note=66, velocity=96, time=1),
    Message('note_on', channel=2, note=73, velocity=96, time=0),
    Message('note_on', channel=2, note=66, velocity=0, time=158),
    Message('note_on', channel=2, note=73, velocity=0, time=0),
    Message('note_on', channel=2, note=66, velocity=96, time=6),
    Message('control_change', channel=2, control=2, value=96, time=0),
    Message('note_on', channel=2, note=73, velocity=96, time=0),
    Message('note_on', channel=2, note=66, velocity=0, time=158),
    Message('note_on', channel=2, note=73, velocity=0, time=0),
    Message('note_on', channel=2, note=66, velocity=96, time=1),
    Message('note_on', channel=2, note=73, velocity=96, time=0),
    Message('note_on', channel=2, note=66, velocity=0, time=158),
    Message('note_on', channel=2, note=73, velocity=0, time=0),
    Message('note_on', channel=2, note=66, velocity=96, time=1),
    Message('note_on', channel=2, note=73, velocity=96, time=0),
    Message('note_on', channel=2, note=66, velocity=0, time=158),
    Message('note_on', channel=2, note=73, velocity=0, time=0),
    Message('note_on', channel=2, note=66, velocity=96, time=2),
    Message('note_on', channel=2, note=73, velocity=96, time=0),
    Message('note_on', channel=2, note=66, velocity=0, time=158),
    Message('note_on', channel=2, note=73, velocity=0, time=0),
    Message('note_on', channel=2, note=66, velocity=96, time=1),
    Message('note_on', channel=2, note=73, velocity=96, time=0),
    Message('note_on', channel=2, note=66, velocity=0, time=158),
    Message('note_on', channel=2, note=73, velocity=0, time=0),
    Message('note_on', channel=2, note=66, velocity=96, time=1),
    Message('note_on', channel=2, note=73, velocity=96, time=0),
    Message('note_on', channel=2, note=66, velocity=0, time=158),
    Message('note_on', channel=2, note=73, velocity=0, time=0),
    Message('note_on', channel=2, note=67, velocity=96, time=6),
    Message('control_change', channel=2, control=2, value=96, time=0),
    Message('note_on', channel=2, note=76, velocity=96, time=0),
    Message('note_on', channel=2, note=67, velocity=0, time=158),
    Message('note_on', channel=2, note=76, velocity=0, time=0),
    Message('note_on', channel=2, note=67, velocity=96, time=1),
    Message('note_on', channel=2, note=76, velocity=96, time=0),
    Message('note_on', channel=2, note=67, velocity=0, time=158),
    Message('note_on', channel=2, note=76, velocity=0, time=0),
    Message('note_on', channel=2, note=67, velocity=96, time=2),
    Message('note_on', channel=2, note=76, velocity=96, time=0),
    Message('note_on', channel=2, note=67, velocity=0, time=158),
    Message('note_on', channel=2, note=76, velocity=0, time=0),
    Message('note_on', channel=2, note=64, velocity=96, time=3),
    Message('control_change', channel=2, control=2, value=96, time=0),
    Message('note_on', channel=2, note=71, velocity=96, time=0),
    Message('note_on', channel=2, note=64, velocity=0, time=158),
    Message('note_on', channel=2, note=71, velocity=0, time=0),
    Message('note_on', channel=2, note=64, velocity=96, time=1),
    Message('note_on', channel=2, note=71, velocity=96, time=0),
    Message('note_on', channel=2, note=64, velocity=0, time=158),
    Message('note_on', channel=2, note=71, velocity=0, time=0),
    Message('note_on', channel=2, note=64, velocity=96, time=2),
    Message('note_on', channel=2, note=71, velocity=96, time=0),
    Message('note_on', channel=2, note=64, velocity=0, time=158),
    Message('note_on', channel=2, note=71, velocity=0, time=0),
    Message('note_on', channel=2, note=65, velocity=96, time=3),
    Message('control_change', channel=2, control=2, value=96, time=0),
    Message('note_on', channel=2, note=71, velocity=96, time=0),
    Message('note_on', channel=2, note=65, velocity=0, time=158),
    Message('note_on', channel=2, note=71, velocity=0, time=0),
    Message('note_on', channel=2, note=65, velocity=96, time=1),
    Message('note_on', channel=2, note=71, velocity=96, time=0),
    Message('note_on', channel=2, note=65, velocity=0, time=158),
    Message('note_on', channel=2, note=71, velocity=0, time=0),
    Message('note_on', channel=2, note=65, velocity=96, time=1),
    Message('note_on', channel=2, note=71, velocity=96, time=0),
    Message('note_on', channel=2, note=65, velocity=0, time=158),
    Message('note_on', channel=2, note=71, velocity=0, time=0),
    Message('note_on', channel=2, note=65, velocity=96, time=2),
    Message('note_on', channel=2, note=71, velocity=96, time=0),
    Message('note_on', channel=2, note=65, velocity=0, time=158),
    Message('note_on', channel=2, note=71, velocity=0, time=0),
    Message('note_on', channel=2, note=65, velocity=96, time=1),
    Message('note_on', channel=2, note=71, velocity=96, time=0),
    Message('note_on', channel=2, note=65, velocity=0, time=158),
    Message('note_on', channel=2, note=71, velocity=0, time=0),
    Message('note_on', channel=2, note=65, velocity=96, time=1),
    Message('note_on', channel=2, note=71, velocity=96, time=0),
    Message('note_on', channel=2, note=65, velocity=0, time=158),
    Message('note_on', channel=2, note=71, velocity=0, time=0),
    Message('note_on', channel=2, note=67, velocity=96, time=6),
    Message('control_change', channel=2, control=2, value=96, time=0),
    Message('note_on', channel=2, note=72, velocity=96, time=0),
    Message('note_on', channel=2, note=67, velocity=0, time=159),
    Message('note_on', channel=2, note=72, velocity=0, time=0),
    Message('note_on', channel=2, note=72, velocity=96, time=1),
    Message('control_change', channel=2, control=2, value=96, time=0),
    Message('note_on', channel=2, note=76, velocity=96, time=0),
    Message('note_on', channel=2, note=72, velocity=0, time=159),
    Message('note_on', channel=2, note=76, velocity=0, time=0),
    Message('note_on', channel=2, note=72, velocity=96, time=1),
    Message('note_on', channel=2, note=76, velocity=96, time=0),
    Message('note_on', channel=2, note=72, velocity=0, time=159),
    Message('note_on', channel=2, note=76, velocity=0, time=0),
    Message('note_on', channel=2, note=72, velocity=96, time=1),
    Message('control_change', channel=2, control=2, value=96, time=0),
    Message('note_on', channel=2, note=76, velocity=96, time=0),
    Message('note_on', channel=2, note=72, velocity=0, time=158),
    Message('note_on', channel=2, note=76, velocity=0, time=0),
    Message('note_on', channel=2, note=72, velocity=96, time=1),
    Message('note_on', channel=2, note=76, velocity=96, time=0),
    Message('note_on', channel=2, note=72, velocity=0, time=158),
    Message('note_on', channel=2, note=76, velocity=0, time=0),
    Message('note_on', channel=2, note=72, velocity=96, time=2),
    Message('note_on', channel=2, note=76, velocity=96, time=0),
    Message('note_on', channel=2, note=72, velocity=0, time=158),
    Message('note_on', channel=2, note=76, velocity=0, time=0),
    Message('note_on', channel=2, note=71, velocity=96, time=3),
    Message('control_change', channel=2, control=2, value=96, time=0),
    Message('note_on', channel=2, note=76, velocity=96, time=0),
    Message('note_on', channel=2, note=71, velocity=0, time=158),
    Message('note_on', channel=2, note=76, velocity=0, time=0),
    Message('note_on', channel=2, note=71, velocity=96, time=1),
    Message('note_on', channel=2, note=76, velocity=96, time=0),
    Message('note_on', channel=2, note=71, velocity=0, time=158),
    Message('note_on', channel=2, note=76, velocity=0, time=0),
    Message('note_on', channel=2, note=71, velocity=96, time=1),
    Message('note_on', channel=2, note=76, velocity=96, time=0),
    Message('note_on', channel=2, note=71, velocity=0, time=158),
    Message('note_on', channel=2, note=76, velocity=0, time=0),
    Message('note_on', channel=2, note=71, velocity=96, time=2),
    Message('note_on', channel=2, note=76, velocity=96, time=0),
    Message('note_on', channel=2, note=71, velocity=0, time=158),
    Message('note_on', channel=2, note=76, velocity=0, time=0),
    Message('note_on', channel=2, note=71, velocity=96, time=1),
    Message('note_on', channel=2, note=76, velocity=96, time=0),
    Message('note_on', channel=2, note=71, velocity=0, time=158),
    Message('note_on', channel=2, note=76, velocity=0, time=0),
    Message('note_on', channel=2, note=71, velocity=96, time=1),
    Message('note_on', channel=2, note=76, velocity=96, time=0),
    Message('note_on', channel=2, note=71, velocity=0, time=158),
    Message('note_on', channel=2, note=76, velocity=0, time=0),
    Message('note_on', channel=2, note=70, velocity=96, time=6),
    Message('control_change', channel=2, control=2, value=96, time=0),
    Message('note_on', channel=2, note=73, velocity=96, time=0),
    Message('note_on', channel=2, note=70, velocity=0, time=158),
    Message('note_on', channel=2, note=73, velocity=0, time=0),
    Message('note_on', channel=2, note=70, velocity=96, time=1),
    Message('note_on', channel=2, note=73, velocity=96, time=0),
    Message('note_on', channel=2, note=70, velocity=0, time=158),
    Message('note_on', channel=2, note=73, velocity=0, time=0),
    Message('note_on', channel=2, note=70, velocity=96, time=1),
    Message('note_on', channel=2, note=73, velocity=96, time=0),
    Message('note_on', channel=2, note=70, velocity=0, time=158),
    Message('note_on', channel=2, note=73, velocity=0, time=0),
    Message('note_on', channel=2, note=70, velocity=96, time=2),
    Message('note_on', channel=2, note=73, velocity=96, time=0),
    Message('note_on', channel=2, note=70, velocity=0, time=158),
    Message('note_on', channel=2, note=73, velocity=0, time=0),
    Message('note_on', channel=2, note=70, velocity=96, time=1),
    Message('note_on', channel=2, note=73, velocity=96, time=0),
    Message('note_on', channel=2, note=70, velocity=0, time=158),
    Message('note_on', channel=2, note=73, velocity=0, time=0),
    Message('note_on', channel=2, note=70, velocity=96, time=1),
    Message('note_on', channel=2, note=73, velocity=96, time=0),
    Message('note_on', channel=2, note=70, velocity=0, time=158),
    Message('note_on', channel=2, note=73, velocity=0, time=0),
    Message('note_on', channel=2, note=71, velocity=96, time=6),
    Message('control_change', channel=2, control=2, value=96, time=0),
    Message('note_on', channel=2, note=76, velocity=96, time=0),
    Message('note_on', channel=2, note=71, velocity=0, time=158),
    Message('note_on', channel=2, note=76, velocity=0, time=0),
    Message('note_on', channel=2, note=71, velocity=96, time=1),
    Message('note_on', channel=2, note=76, velocity=96, time=0),
    Message('note_on', channel=2, note=71, velocity=0, time=158),
    Message('note_on', channel=2, note=76, velocity=0, time=0),
    Message('note_on', channel=2, note=71, velocity=96, time=1),
    Message('note_on', channel=2, note=76, velocity=96, time=0),
    Message('note_on', channel=2, note=71, velocity=0, time=158),
    Message('note_on', channel=2, note=76, velocity=0, time=0),
    Message('note_on', channel=2, note=71, velocity=96, time=2),
    Message('note_on', channel=2, note=76, velocity=96, time=0),
    Message('note_on', channel=2, note=71, velocity=0, time=158),
    Message('note_on', channel=2, note=76, velocity=0, time=0),
    Message('note_on', channel=2, note=71, velocity=96, time=1),
    Message('note_on', channel=2, note=76, velocity=96, time=0),
    Message('note_on', channel=2, note=71, velocity=0, time=158),
    Message('note_on', channel=2, note=76, velocity=0, time=0),
    Message('note_on', channel=2, note=71, velocity=96, time=1),
    Message('note_on', channel=2, note=76, velocity=96, time=0),
    Message('note_on', channel=2, note=71, velocity=0, time=158),
    Message('note_on', channel=2, note=76, velocity=0, time=0),
    Message('note_on', channel=2, note=67, velocity=96, time=6),
    Message('control_change', channel=2, control=2, value=96, time=0),
    Message('note_on', channel=2, note=72, velocity=96, time=0),
    Message('note_on', channel=2, note=67, velocity=0, time=159),
    Message('note_on', channel=2, note=72, velocity=0, time=0),
    Message('note_on', channel=2, note=72, velocity=96, time=1),
    Message('control_change', channel=2, control=2, value=96, time=0),
    Message('note_on', channel=2, note=76, velocity=96, time=0),
    Message('note_on', channel=2, note=72, velocity=0, time=159),
    Message('note_on', channel=2, note=76, velocity=0, time=0),
    Message('note_on', channel=2, note=72, velocity=96, time=1),
    Message('note_on', channel=2, note=76, velocity=96, time=0),
    Message('note_on', channel=2, note=72, velocity=0, time=159),
    Message('note_on', channel=2, note=76, velocity=0, time=0),
    Message('note_on', channel=2, note=72, velocity=96, time=1),
    Message('control_change', channel=2, control=2, value=96, time=0),
    Message('note_on', channel=2, note=76, velocity=96, time=0),
    Message('note_on', channel=2, note=72, velocity=0, time=158),
    Message('note_on', channel=2, note=76, velocity=0, time=0),
    Message('note_on', channel=2, note=72, velocity=96, time=1),
    Message('note_on', channel=2, note=76, velocity=96, time=0),
    Message('note_on', channel=2, note=72, velocity=0, time=158),
    Message('note_on', channel=2, note=76, velocity=0, time=0),
    Message('note_on', channel=2, note=72, velocity=96, time=2),
    Message('note_on', channel=2, note=76, velocity=96, time=0),
    Message('note_on', channel=2, note=72, velocity=0, time=158),
    Message('note_on', channel=2, note=76, velocity=0, time=0),
    Message('note_on', channel=2, note=71, velocity=96, time=3),
    Message('control_change', channel=2, control=2, value=96, time=0),
    Message('note_on', channel=2, note=76, velocity=96, time=0),
    Message('note_on', channel=2, note=71, velocity=0, time=158),
    Message('note_on', channel=2, note=76, velocity=0, time=0),
    Message('note_on', channel=2, note=71, velocity=96, time=1),
    Message('note_on', channel=2, note=76, velocity=96, time=0),
    Message('note_on', channel=2, note=71, velocity=0, time=158),
    Message('note_on', channel=2, note=76, velocity=0, time=0),
    Message('note_on', channel=2, note=71, velocity=96, time=1),
    Message('note_on', channel=2, note=76, velocity=96, time=0),
    Message('note_on', channel=2, note=71, velocity=0, time=158),
    Message('note_on', channel=2, note=76, velocity=0, time=0),
    Message('note_on', channel=2, note=71, velocity=96, time=2),
    Message('note_on', channel=2, note=76, velocity=96, time=0),
    Message('note_on', channel=2, note=71, velocity=0, time=158),
    Message('note_on', channel=2, note=76, velocity=0, time=0),
    Message('note_on', channel=2, note=71, velocity=96, time=1),
    Message('note_on', channel=2, note=76, velocity=96, time=0),
    Message('note_on', channel=2, note=71, velocity=0, time=158),
    Message('note_on', channel=2, note=76, velocity=0, time=0),
    Message('note_on', channel=2, note=71, velocity=96, time=1),
    Message('note_on', channel=2, note=76, velocity=96, time=0),
    Message('note_on', channel=2, note=71, velocity=0, time=158),
    Message('note_on', channel=2, note=76, velocity=0, time=0),
    Message('note_on', channel=2, note=70, velocity=96, time=6),
    Message('control_change', channel=2, control=2, value=96, time=0),
    Message('note_on', channel=2, note=73, velocity=96, time=0),
    Message('note_on', channel=2, note=70, velocity=0, time=158),
    Message('note_on', channel=2, note=73, velocity=0, time=0),
    Message('note_on', channel=2, note=70, velocity=96, time=1),
    Message('note_on', channel=2, note=73, velocity=96, time=0),
    Message('note_on', channel=2, note=70, velocity=0, time=158),
    Message('note_on', channel=2, note=73, velocity=0, time=0),
    Message('note_on', channel=2, note=70, velocity=96, time=1),
    Message('note_on', channel=2, note=73, velocity=96, time=0),
    Message('note_on', channel=2, note=70, velocity=0, time=158),
    Message('note_on', channel=2, note=73, velocity=0, time=0),
    Message('note_on', channel=2, note=70, velocity=96, time=2),
    Message('note_on', channel=2, note=73, velocity=96, time=0),
    Message('note_on', channel=2, note=70, velocity=0, time=158),
    Message('note_on', channel=2, note=73, velocity=0, time=0),
    Message('note_on', channel=2, note=70, velocity=96, time=1),
    Message('note_on', channel=2, note=73, velocity=96, time=0),
    Message('note_on', channel=2, note=70, velocity=0, time=158),
    Message('note_on', channel=2, note=73, velocity=0, time=0),
    Message('note_on', channel=2, note=70, velocity=96, time=1),
    Message('note_on', channel=2, note=73, velocity=96, time=0),
    Message('note_on', channel=2, note=70, velocity=0, time=158),
    Message('note_on', channel=2, note=73, velocity=0, time=0),
    Message('note_on', channel=2, note=71, velocity=96, time=6),
    Message('control_change', channel=2, control=2, value=96, time=0),
    Message('note_on', channel=2, note=76, velocity=96, time=0),
    Message('note_on', channel=2, note=71, velocity=0, time=158),
    Message('note_on', channel=2, note=76, velocity=0, time=0),
    Message('note_on', channel=2, note=71, velocity=96, time=1),
    Message('note_on', channel=2, note=76, velocity=96, time=0),
    Message('note_on', channel=2, note=71, velocity=0, time=158),
    Message('note_on', channel=2, note=76, velocity=0, time=0),
    Message('note_on', channel=2, note=71, velocity=96, time=1),
    Message('note_on', channel=2, note=76, velocity=96, time=0),
    Message('note_on', channel=2, note=71, velocity=0, time=158),
    Message('note_on', channel=2, note=76, velocity=0, time=0),
    Message('note_on', channel=2, note=71, velocity=96, time=2),
    Message('note_on', channel=2, note=76, velocity=96, time=0),
    Message('note_on', channel=2, note=71, velocity=0, time=158),
    Message('note_on', channel=2, note=76, velocity=0, time=0),
    Message('note_on', channel=2, note=71, velocity=96, time=1),
    Message('note_on', channel=2, note=76, velocity=96, time=0),
    Message('note_on', channel=2, note=71, velocity=0, time=158),
    Message('note_on', channel=2, note=76, velocity=0, time=0),
    Message('note_on', channel=2, note=71, velocity=96, time=1),
    Message('note_on', channel=2, note=76, velocity=96, time=0),
    Message('note_on', channel=2, note=71, velocity=0, time=158),
    Message('note_on', channel=2, note=76, velocity=0, time=0),
    Message('control_change', channel=2, control=2, value=96, time=6),
    Message('note_on', channel=2, note=72, velocity=96, time=0),
    Message('note_on', channel=2, note=76, velocity=96, time=0),
    Message('control_change', channel=2, control=2, value=97, time=480),
    Message('control_change', channel=2, control=2, value=98, time=480),
    Message('control_change', channel=2, control=2, value=99, time=480),
    Message('note_on', channel=2, note=72, velocity=0, time=479),
    Message('note_on', channel=2, note=76, velocity=0, time=0),
    Message('control_change', channel=2, control=2, value=100, time=1),
    Message('note_on', channel=2, note=73, velocity=100, time=0),
    Message('note_on', channel=2, note=76, velocity=100, time=0),
    Message('control_change', channel=2, control=2, value=101, time=480),
    Message('control_change', channel=2, control=2, value=102, time=480),
    Message('control_change', channel=2, control=2, value=103, time=480),
    Message('note_on', channel=2, note=73, velocity=0, time=479),
    Message('note_on', channel=2, note=76, velocity=0, time=0),
    Message('control_change', channel=2, control=2, value=104, time=1),
    Message('note_on', channel=2, note=72, velocity=104, time=0),
    Message('note_on', channel=2, note=76, velocity=104, time=0),
    Message('control_change', channel=2, control=2, value=105, time=480),
    Message('control_change', channel=2, control=2, value=106, time=480),
    Message('control_change', channel=2, control=2, value=107, time=480),
    Message('note_on', channel=2, note=72, velocity=0, time=479),
    Message('note_on', channel=2, note=76, velocity=0, time=0),
    Message('control_change', channel=2, control=2, value=108, time=1),
    Message('note_on', channel=2, note=73, velocity=108, time=0),
    Message('note_on', channel=2, note=76, velocity=108, time=0),
    Message('control_change', channel=2, control=2, value=109, time=480),
    Message('control_change', channel=2, control=2, value=110, time=480),
    Message('control_change', channel=2, control=2, value=111, time=480),
    Message('note_on', channel=2, note=73, velocity=0, time=479),
    Message('note_on', channel=2, note=76, velocity=0, time=0),
    Message('control_change', channel=2, control=2, value=112, time=1),
    Message('note_on', channel=2, note=72, velocity=112, time=0),
    Message('note_on', channel=2, note=76, velocity=112, time=0),
    Message('note_on', channel=2, note=72, velocity=0, time=959),
    Message('note_on', channel=2, note=76, velocity=0, time=0),
    Message('note_on', channel=2, note=76, velocity=112, time=1),
    Message('control_change', channel=2, control=2, value=112, time=0),
    Message('note_on', channel=2, note=79, velocity=112, time=0),
    Message('note_on', channel=2, note=76, velocity=0, time=959),
    Message('note_on', channel=2, note=79, velocity=0, time=0),
    Message('note_on', channel=2, note=76, velocity=112, time=1),
    Message('control_change', channel=2, control=2, value=112, time=0),
    Message('note_on', channel=2, note=79, velocity=112, time=0),
    Message('note_on', channel=2, note=76, velocity=0, time=1919),
    Message('note_on', channel=2, note=79, velocity=0, time=0),
    Message('note_on', channel=2, note=77, velocity=112, time=1),
    Message('control_change', channel=2, control=2, value=112, time=0),
    Message('note_on', channel=2, note=80, velocity=112, time=0),
    Message('note_on', channel=2, note=77, velocity=0, time=1919),
    Message('note_on', channel=2, note=80, velocity=0, time=0),
    Message('note_on', channel=2, note=76, velocity=112, time=1),
    Message('control_change', channel=2, control=2, value=112, time=0),
    Message('note_on', channel=2, note=82, velocity=112, time=0),
    Message('note_on', channel=2, note=76, velocity=0, time=1919),
    Message('note_on', channel=2, note=82, velocity=0, time=0),
    Message('note_on', channel=2, note=76, velocity=112, time=1),
    Message('control_change', channel=2, control=2, value=112, time=0),
    Message('note_on', channel=2, note=82, velocity=112, time=0),
    Message('note_on', channel=2, note=76, velocity=0, time=959),
    Message('note_on', channel=2, note=82, velocity=0, time=0),
    Message('note_on', channel=2, note=76, velocity=112, time=1),
    Message('control_change', channel=2, control=2, value=112, time=0),
    Message('note_on', channel=2, note=82, velocity=112, time=0),
    Message('note_on', channel=2, note=76, velocity=0, time=959),
    Message('note_on', channel=2, note=82, velocity=0, time=0),
    Message('note_on', channel=2, note=76, velocity=112, time=1),
    Message('control_change', channel=2, control=2, value=112, time=0),
    Message('note_on', channel=2, note=82, velocity=112, time=0),
    Message('note_on', channel=2, note=76, velocity=0, time=959),
    Message('note_on', channel=2, note=82, velocity=0, time=0),
    Message('note_on', channel=2, note=76, velocity=112, time=1),
    Message('control_change', channel=2, control=2, value=112, time=0),
    Message('note_on', channel=2, note=82, velocity=112, time=0),
    Message('note_on', channel=2, note=76, velocity=0, time=959),
    Message('note_on', channel=2, note=82, velocity=0, time=0),
    Message('note_on', channel=2, note=66, velocity=126, time=7681),
    Message('control_change', channel=2, control=2, value=126, time=0),
    Message('note_on', channel=2, note=78, velocity=126, time=0),
    Message('note_on', channel=2, note=66, velocity=0, time=1919),
    Message('note_on', channel=2, note=78, velocity=0, time=0),
    Message('note_on', channel=2, note=59, velocity=126, time=1),
    Message('control_change', channel=2, control=2, value=126, time=0),
    Message('note_on', channel=2, note=71, velocity=126, time=0),
    Message('note_on', channel=2, note=59, velocity=0, time=479),
    Message('note_on', channel=2, note=71, velocity=0, time=0),
    Message('note_on', channel=2, note=61, velocity=126, time=1),
    Message('control_change', channel=2, control=2, value=126, time=0),
    Message('note_on', channel=2, note=73, velocity=126, time=0),
    Message('note_on', channel=2, note=61, velocity=0, time=479),
    Message('note_on', channel=2, note=73, velocity=0, time=0),
    Message('note_on', channel=2, note=62, velocity=126, time=1),
    Message('control_change', channel=2, control=2, value=126, time=0),
    Message('note_on', channel=2, note=74, velocity=126, time=0),
    Message('note_on', channel=2, note=62, velocity=0, time=479),
    Message('note_on', channel=2, note=74, velocity=0, time=0),
    Message('note_on', channel=2, note=64, velocity=126, time=1),
    Message('control_change', channel=2, control=2, value=126, time=0),
    Message('note_on', channel=2, note=76, velocity=126, time=0),
    Message('note_on', channel=2, note=64, velocity=0, time=479),
    Message('note_on', channel=2, note=76, velocity=0, time=0),
    Message('note_on', channel=2, note=66, velocity=126, time=1),
    Message('control_change', channel=2, control=2, value=126, time=0),
    Message('note_on', channel=2, note=78, velocity=126, time=0),
    Message('note_on', channel=2, note=66, velocity=0, time=1439),
    Message('note_on', channel=2, note=78, velocity=0, time=0),
    Message('note_on', channel=2, note=62, velocity=126, time=1),
    Message('control_change', channel=2, control=2, value=126, time=0),
    Message('note_on', channel=2, note=74, velocity=126, time=0),
    Message('note_on', channel=2, note=62, velocity=0, time=479),
    Message('note_on', channel=2, note=74, velocity=0, time=0),
    Message('note_on', channel=2, note=66, velocity=126, time=1),
    Message('control_change', channel=2, control=2, value=126, time=0),
    Message('note_on', channel=2, note=78, velocity=126, time=0),
    Message('note_on', channel=2, note=66, velocity=0, time=1439),
    Message('note_on', channel=2, note=78, velocity=0, time=0),
    Message('note_on', channel=2, note=62, velocity=126, time=1),
    Message('control_change', channel=2, control=2, value=126, time=0),
    Message('note_on', channel=2, note=74, velocity=126, time=0),
    Message('note_on', channel=2, note=62, velocity=0, time=479),
    Message('note_on', channel=2, note=74, velocity=0, time=0),
    Message('note_on', channel=2, note=66, velocity=126, time=1),
    Message('control_change', channel=2, control=2, value=126, time=0),
    Message('note_on', channel=2, note=78, velocity=126, time=0),
    Message('note_on', channel=2, note=66, velocity=0, time=959),
    Message('note_on', channel=2, note=78, velocity=0, time=0),
    Message('note_on', channel=2, note=62, velocity=126, time=1),
    Message('control_change', channel=2, control=2, value=126, time=0),
    Message('note_on', channel=2, note=74, velocity=126, time=0),
    Message('note_on', channel=2, note=62, velocity=0, time=959),
    Message('note_on', channel=2, note=74, velocity=0, time=0),
    Message('note_on', channel=2, note=59, velocity=126, time=1),
    Message('control_change', channel=2, control=2, value=126, time=0),
    Message('note_on', channel=2, note=71, velocity=126, time=0),
    Message('note_on', channel=2, note=59, velocity=0, time=959),
    Message('note_on', channel=2, note=71, velocity=0, time=0),
    Message('note_on', channel=2, note=54, velocity=126, time=1),
    Message('control_change', channel=2, control=2, value=126, time=0),
    Message('note_on', channel=2, note=66, velocity=126, time=0),
    Message('note_on', channel=2, note=54, velocity=0, time=959),
    Message('note_on', channel=2, note=66, velocity=0, time=0),
    Message('note_on', channel=2, note=62, velocity=126, time=1),
    Message('control_change', channel=2, control=2, value=126, time=0),
    Message('note_on', channel=2, note=74, velocity=126, time=0),
    Message('note_on', channel=2, note=62, velocity=0, time=959),
    Message('note_on', channel=2, note=74, velocity=0, time=0),
    Message('note_on', channel=2, note=59, velocity=126, time=1),
    Message('control_change', channel=2, control=2, value=126, time=0),
    Message('note_on', channel=2, note=71, velocity=126, time=0),
    Message('note_on', channel=2, note=59, velocity=0, time=959),
    Message('note_on', channel=2, note=71, velocity=0, time=0),
    Message('note_on', channel=2, note=54, velocity=126, time=1),
    Message('control_change', channel=2, control=2, value=126, time=0),
    Message('note_on', channel=2, note=66, velocity=126, time=0),
    Message('note_on', channel=2, note=54, velocity=0, time=959),
    Message('note_on', channel=2, note=66, velocity=0, time=0),
    Message('note_on', channel=2, note=50, velocity=126, time=1),
    Message('control_change', channel=2, control=2, value=126, time=0),
    Message('note_on', channel=2, note=62, velocity=126, time=0),
    Message('note_on', channel=2, note=50, velocity=0, time=959),
    Message('note_on', channel=2, note=62, velocity=0, time=0),
    Message('control_change', channel=2, control=2, value=96, time=1),
    Message('note_on', channel=2, note=78, velocity=96, time=0),
    Message('note_on', channel=2, note=78, velocity=0, time=1919),
    Message('note_on', channel=2, note=71, velocity=96, time=1),
    Message('control_change', channel=2, control=2, value=96, time=0),
    Message('note_on', channel=2, note=71, velocity=0, time=479),
    Message('note_on', channel=2, note=73, velocity=96, time=1),
    Message('control_change', channel=2, control=2, value=96, time=0),
    Message('note_on', channel=2, note=73, velocity=0, time=479),
    Message('note_on', channel=2, note=74, velocity=96, time=1),
    Message('control_change', channel=2, control=2, value=96, time=0),
    Message('note_on', channel=2, note=74, velocity=0, time=479),
    Message('note_on', channel=2, note=76, velocity=96, time=1),
    Message('control_change', channel=2, control=2, value=96, time=0),
    Message('note_on', channel=2, note=76, velocity=0, time=479),
    Message('note_on', channel=2, note=78, velocity=96, time=1),
    Message('control_change', channel=2, control=2, value=96, time=0),
    Message('note_on', channel=2, note=78, velocity=0, time=1439),
    Message('note_on', channel=2, note=74, velocity=96, time=1),
    Message('control_change', channel=2, control=2, value=96, time=0),
    Message('note_on', channel=2, note=74, velocity=0, time=479),
    Message('note_on', channel=2, note=78, velocity=96, time=1),
    Message('control_change', channel=2, control=2, value=96, time=0),
    Message('note_on', channel=2, note=78, velocity=0, time=1439),
    Message('note_on', channel=2, note=74, velocity=96, time=1),
    Message('control_change', channel=2, control=2, value=96, time=0),
    Message('note_on', channel=2, note=74, velocity=0, time=479),
    MetaMessage('end_of_track', time=1)]),
  MidiTrack([
    MetaMessage('track_name', name='Bassoon\x00', time=0),
    MetaMessage('key_signature', key='D', time=0),
    Message('control_change', channel=3, control=121, value=0, time=0),
    Message('program_change', channel=3, program=70, time=0),
    Message('control_change', channel=3, control=7, value=100, time=0),
    Message('control_change', channel=3, control=10, value=64, time=0),
    Message('control_change', channel=3, control=91, value=0, time=0),
    Message('control_change', channel=3, control=93, value=0, time=0),
    MetaMessage('midi_port', port=0, time=0),
    Message('note_on', channel=3, note=54, velocity=112, time=34560),
    Message('control_change', channel=3, control=2, value=112, time=0),
    Message('note_on', channel=3, note=66, velocity=112, time=0),
    Message('note_on', channel=3, note=54, velocity=0, time=959),
    Message('note_on', channel=3, note=66, velocity=0, time=0),
    Message('note_on', channel=3, note=55, velocity=112, time=1),
    Message('control_change', channel=3, control=2, value=112, time=0),
    Message('note_on', channel=3, note=67, velocity=112, time=0),
    Message('note_on', channel=3, note=55, velocity=0, time=959),
    Message('note_on', channel=3, note=67, velocity=0, time=0),
    Message('note_on', channel=3, note=54, velocity=112, time=1),
    Message('control_change', channel=3, control=2, value=112, time=0),
    Message('note_on', channel=3, note=59, velocity=112, time=0),
    Message('note_on', channel=3, note=54, velocity=0, time=1919),
    Message('note_on', channel=3, note=59, velocity=0, time=0),
    Message('note_on', channel=3, note=59, velocity=112, time=1),
    Message('control_change', channel=3, control=2, value=112, time=0),
    Message('note_on', channel=3, note=54, velocity=112, time=0),
    Message('note_on', channel=3, note=54, velocity=0, time=959),
    Message('note_on', channel=3, note=55, velocity=112, time=1),
    Message('control_change', channel=3, control=2, value=112, time=0),
    Message('note_on', channel=3, note=59, velocity=0, time=479),
    Message('note_on', channel=3, note=55, velocity=0, time=0),
    Message('note_on', channel=3, note=58, velocity=112, time=1),
    Message('control_change', channel=3, control=2, value=112, time=0),
    Message('note_on', channel=3, note=52, velocity=112, time=0),
    Message('note_on', channel=3, note=58, velocity=0, time=479),
    Message('note_on', channel=3, note=52, velocity=0, time=0),
    Message('note_on', channel=3, note=54, velocity=112, time=1),
    Message('control_change', channel=3, control=2, value=112, time=0),
    Message('note_on', channel=3, note=62, velocity=112, time=0),
    Message('note_on', channel=3, note=54, velocity=0, time=959),
    Message('note_on', channel=3, note=62, velocity=0, time=0),
    Message('note_on', channel=3, note=55, velocity=112, time=1),
    Message('control_change', channel=3, control=2, value=112, time=0),
    Message('note_on', channel=3, note=59, velocity=112, time=0),
    Message('note_on', channel=3, note=55, velocity=0, time=959),
    Message('note_on', channel=3, note=59, velocity=0, time=0),
    Message('note_on', channel=3, note=59, velocity=112, time=1),
    Message('control_change', channel=3, control=2, value=112, time=0),
    Message('note_on', channel=3, note=62, velocity=112, time=0),
    Message('note_on', channel=3, note=59, velocity=0, time=959),
    Message('note_on', channel=3, note=62, velocity=0, time=0),
    Message('note_on', channel=3, note=59, velocity=112, time=1),
    Message('control_change', channel=3, control=2, value=112, time=0),
    Message('note_on', channel=3, note=64, velocity=112, time=0),
    Message('note_on', channel=3, note=59, velocity=0, time=959),
    Message('note_on', channel=3, note=64, velocity=0, time=0),
    Message('note_on', channel=3, note=59, velocity=112, time=1),
    Message('control_change', channel=3, control=2, value=112, time=0),
    Message('note_on', channel=3, note=62, velocity=112, time=0),
    Message('control_change', channel=3, control=2, value=112, time=1920),
    Message('note_on', channel=3, note=59, velocity=0, time=959),
    Message('note_on', channel=3, note=62, velocity=0, time=0),
    Message('note_on', channel=3, note=55, velocity=112, time=1),
    Message('control_change', channel=3, control=2, value=112, time=0),
    Message('note_on', channel=3, note=55, velocity=0, time=479),
    Message('note_on', channel=3, note=52, velocity=112, time=1),
    Message('control_change', channel=3, control=2, value=112, time=0),
    Message('note_on', channel=3, note=52, velocity=0, time=479),
    Message('control_change', channel=3, control=2, value=96, time=1),
    Message('note_on', channel=3, note=62, velocity=96, time=0),
    Message('note_on', channel=3, note=50, velocity=96, time=0),
    Message('note_on', channel=3, note=62, velocity=0, time=239),
    Message('note_on', channel=3, note=50, velocity=0, time=720),
    Message('note_on', channel=3, note=47, velocity=96, time=1),
    Message('control_change', channel=3, control=2, value=96, time=0),
    Message('note_on', channel=3, note=59, velocity=96, time=0),
    Message('note_on', channel=3, note=47, velocity=0, time=959),
    Message('note_on', channel=3, note=59, velocity=0, time=0),
    Message('note_on', channel=3, note=45, velocity=96, time=1),
    Message('control_change', channel=3, control=2, value=96, time=0),
    Message('note_on', channel=3, note=57, velocity=96, time=0),
    Message('note_on', channel=3, note=45, velocity=0, time=959),
    Message('note_on', channel=3, note=57, velocity=0, time=0),
    Message('note_on', channel=3, note=43, velocity=96, time=1),
    Message('control_change', channel=3, control=2, value=96, time=0),
    Message('note_on', channel=3, note=55, velocity=96, time=0),
    Message('note_on', channel=3, note=43, velocity=0, time=959),
    Message('note_on', channel=3, note=55, velocity=0, time=0),
    Message('note_on', channel=3, note=42, velocity=96, time=1),
    Message('control_change', channel=3, control=2, value=96, time=0),
    Message('note_on', channel=3, note=54, velocity=96, time=0),
    Message('note_on', channel=3, note=42, velocity=0, time=1919),
    Message('note_on', channel=3, note=54, velocity=0, time=0),
    Message('note_on', channel=3, note=40, velocity=96, time=1),
    Message('control_change', channel=3, control=2, value=96, time=0),
    Message('note_on', channel=3, note=52, velocity=96, time=0),
    Message('note_on', channel=3, note=40, velocity=0, time=959),
    Message('note_on', channel=3, note=52, velocity=0, time=0),
    Message('note_on', channel=3, note=38, velocity=96, time=1),
    Message('control_change', channel=3, control=2, value=96, time=0),
    Message('note_on', channel=3, note=50, velocity=96, time=0),
    Message('note_on', channel=3, note=38, velocity=0, time=959),
    Message('note_on', channel=3, note=50, velocity=0, time=0),
    Message('note_on', channel=3, note=37, velocity=96, time=1),
    Message('control_change', channel=3, control=2, value=96, time=0),
    Message('note_on', channel=3, note=49, velocity=96, time=0),
    Message('note_on', channel=3, note=37, velocity=0, time=959),
    Message('note_on', channel=3, note=49, velocity=0, time=0),
    Message('note_on', channel=3, note=42, velocity=96, time=1),
    Message('control_change', channel=3, control=2, value=96, time=0),
    Message('note_on', channel=3, note=54, velocity=96, time=0),
    Message('note_on', channel=3, note=42, velocity=0, time=479),
    Message('note_on', channel=3, note=54, velocity=0, time=0),
    Message('note_on', channel=3, note=47, velocity=96, time=1),
    Message('control_change', channel=3, control=2, value=96, time=0),
    Message('note_on', channel=3, note=59, velocity=96, time=0),
    Message('note_on', channel=3, note=47, velocity=0, time=479),
    Message('note_on', channel=3, note=59, velocity=0, time=0),
    Message('note_on', channel=3, note=45, velocity=96, time=1),
    Message('control_change', channel=3, control=2, value=96, time=0),
    Message('note_on', channel=3, note=57, velocity=96, time=0),
    Message('note_on', channel=3, note=45, velocity=0, time=959),
    Message('note_on', channel=3, note=57, velocity=0, time=0),
    Message('note_on', channel=3, note=43, velocity=96, time=1),
    Message('control_change', channel=3, control=2, value=96, time=0),
    Message('note_on', channel=3, note=55, velocity=96, time=0),
    Message('note_on', channel=3, note=43, velocity=0, time=959),
    Message('note_on', channel=3, note=55, velocity=0, time=0),
    Message('note_on', channel=3, note=42, velocity=96, time=1),
    Message('control_change', channel=3, control=2, value=96, time=0),
    Message('note_on', channel=3, note=54, velocity=96, time=0),
    Message('note_on', channel=3, note=42, velocity=0, time=1919),
    Message('note_on', channel=3, note=54, velocity=0, time=0),
    Message('note_on', channel=3, note=40, velocity=96, time=1),
    Message('control_change', channel=3, control=2, value=96, time=0),
    Message('note_on', channel=3, note=52, velocity=96, time=0),
    Message('note_on', channel=3, note=40, velocity=0, time=959),
    Message('note_on', channel=3, note=52, velocity=0, time=0),
    Message('note_on', channel=3, note=38, velocity=96, time=1),
    Message('control_change', channel=3, control=2, value=96, time=0),
    Message('note_on', channel=3, note=50, velocity=96, time=0),
    Message('note_on', channel=3, note=38, velocity=0, time=959),
    Message('note_on', channel=3, note=50, velocity=0, time=0),
    Message('note_on', channel=3, note=36, velocity=96, time=1),
    Message('control_change', channel=3, control=2, value=96, time=0),
    Message('note_on', channel=3, note=48, velocity=96, time=0),
    Message('note_on', channel=3, note=36, velocity=0, time=959),
    Message('note_on', channel=3, note=48, velocity=0, time=0),
    Message('note_on', channel=3, note=40, velocity=96, time=1),
    Message('control_change', channel=3, control=2, value=96, time=0),
    Message('note_on', channel=3, note=52, velocity=96, time=0),
    Message('note_on', channel=3, note=40, velocity=0, time=959),
    Message('note_on', channel=3, note=52, velocity=0, time=0),
    Message('note_on', channel=3, note=42, velocity=96, time=1),
    Message('control_change', channel=3, control=2, value=96, time=0),
    Message('note_on', channel=3, note=54, velocity=96, time=0),
    Message('note_on', channel=3, note=42, velocity=0, time=959),
    Message('note_on', channel=3, note=54, velocity=0, time=0),
    Message('note_on', channel=3, note=40, velocity=96, time=1),
    Message('control_change', channel=3, control=2, value=96, time=0),
    Message('note_on', channel=3, note=52, velocity=96, time=0),
    Message('note_on', channel=3, note=40, velocity=0, time=959),
    Message('note_on', channel=3, note=52, velocity=0, time=0),
    Message('note_on', channel=3, note=36, velocity=96, time=1),
    Message('control_change', channel=3, control=2, value=96, time=0),
    Message('note_on', channel=3, note=48, velocity=96, time=0),
    Message('note_on', channel=3, note=36, velocity=0, time=959),
    Message('note_on', channel=3, note=48, velocity=0, time=0),
    Message('note_on', channel=3, note=40, velocity=96, time=1),
    Message('control_change', channel=3, control=2, value=96, time=0),
    Message('note_on', channel=3, note=52, velocity=96, time=0),
    Message('note_on', channel=3, note=40, velocity=0, time=959),
    Message('note_on', channel=3, note=52, velocity=0, time=0),
    Message('note_on', channel=3, note=42, velocity=96, time=1),
    Message('control_change', channel=3, control=2, value=96, time=0),
    Message('note_on', channel=3, note=54, velocity=96, time=0),
    Message('note_on', channel=3, note=42, velocity=0, time=959),
    Message('note_on', channel=3, note=54, velocity=0, time=0),
    Message('note_on', channel=3, note=40, velocity=96, time=1),
    Message('control_change', channel=3, control=2, value=96, time=0),
    Message('note_on', channel=3, note=52, velocity=96, time=0),
    Message('note_on', channel=3, note=40, velocity=0, time=959),
    Message('note_on', channel=3, note=52, velocity=0, time=0),
    Message('control_change', channel=3, control=2, value=96, time=1),
    Message('note_on', channel=3, note=36, velocity=96, time=0),
    Message('note_on', channel=3, note=48, velocity=96, time=0),
    Message('control_change', channel=3, control=2, value=97, time=480),
    Message('control_change', channel=3, control=2, value=98, time=480),
    Message('control_change', channel=3, control=2, value=99, time=480),
    Message('note_on', channel=3, note=36, velocity=0, time=479),
    Message('note_on', channel=3, note=48, velocity=0, time=0),
    Message('control_change', channel=3, control=2, value=100, time=1),
    Message('note_on', channel=3, note=42, velocity=100, time=0),
    Message('note_on', channel=3, note=42, velocity=0, time=320),
    Message('note_on', channel=3, note=42, velocity=100, time=0),
    Message('control_change', channel=3, control=2, value=100, time=0),
    Message('control_change', channel=3, control=2, value=101, time=160),
    Message('note_on', channel=3, note=49, velocity=101, time=160),
    Message('control_change', channel=3, control=2, value=101, time=0),
    Message('note_on', channel=3, note=49, velocity=0, time=319),
    Message('control_change', channel=3, control=2, value=102, time=1),
    Message('note_on', channel=3, note=49, velocity=102, time=0),
    Message('note_on', channel=3, note=49, velocity=0, time=319),
    Message('note_on', channel=3, note=42, velocity=0, time=1),
    Message('note_on', channel=3, note=42, velocity=102, time=0),
    Message('control_change', channel=3, control=2, value=102, time=0),
    Message('control_change', channel=3, control=2, value=103, time=160),
    Message('note_on', channel=3, note=49, velocity=103, time=160),
    Message('control_change', channel=3, control=2, value=103, time=0),
    Message('note_on', channel=3, note=42, velocity=0, time=319),
    Message('note_on', channel=3, note=49, velocity=0, time=0),
    Message('control_change', channel=3, control=2, value=104, time=1),
    Message('note_on', channel=3, note=36, velocity=104, time=0),
    Message('note_on', channel=3, note=48, velocity=104, time=0),
    Message('control_change', channel=3, control=2, value=105, time=480),
    Message('control_change', channel=3, control=2, value=106, time=480),
    Message('control_change', channel=3, control=2, value=107, time=480),
    Message('note_on', channel=3, note=36, velocity=0, time=479),
    Message('note_on', channel=3, note=48, velocity=0, time=0),
    Message('control_change', channel=3, control=2, value=108, time=1),
    Message('note_on', channel=3, note=42, velocity=108, time=0),
    Message('note_on', channel=3, note=42, velocity=0, time=320),
    Message('note_on', channel=3, note=42, velocity=108, time=0),
    Message('control_change', channel=3, control=2, value=108, time=0),
    Message('control_change', channel=3, control=2, value=109, time=160),
    Message('note_on', channel=3, note=49, velocity=109, time=160),
    Message('control_change', channel=3, control=2, value=109, time=0),
    Message('note_on', channel=3, note=49, velocity=0, time=319),
    Message('control_change', channel=3, control=2, value=110, time=1),
    Message('note_on', channel=3, note=49, velocity=110, time=0),
    Message('note_on', channel=3, note=49, velocity=0, time=319),
    Message('note_on', channel=3, note=42, velocity=0, time=1),
    Message('note_on', channel=3, note=42, velocity=110, time=0),
    Message('control_change', channel=3, control=2, value=110, time=0),
    Message('control_change', channel=3, control=2, value=111, time=160),
    Message('note_on', channel=3, note=49, velocity=111, time=160),
    Message('control_change', channel=3, control=2, value=111, time=0),
    Message('note_on', channel=3, note=42, velocity=0, time=319),
    Message('note_on', channel=3, note=49, velocity=0, time=0),
    Message('control_change', channel=3, control=2, value=112, time=1),
    Message('note_on', channel=3, note=36, velocity=112, time=0),
    Message('note_on', channel=3, note=48, velocity=112, time=0),
    Message('note_on', channel=3, note=36, velocity=0, time=959),
    Message('note_on', channel=3, note=48, velocity=0, time=0),
    Message('note_on', channel=3, note=48, velocity=112, time=1),
    Message('control_change', channel=3, control=2, value=112, time=0),
    Message('note_on', channel=3, note=60, velocity=112, time=0),
    Message('note_on', channel=3, note=48, velocity=0, time=959),
    Message('note_on', channel=3, note=60, velocity=0, time=0),
    Message('note_on', channel=3, note=47, velocity=112, time=1),
    Message('control_change', channel=3, control=2, value=112, time=0),
    Message('note_on', channel=3, note=59, velocity=112, time=0),
    Message('note_on', channel=3, note=47, velocity=0, time=319),
    Message('note_on', channel=3, note=59, velocity=0, time=0),
    Message('note_on', channel=3, note=40, velocity=112, time=1),
    Message('control_change', channel=3, control=2, value=112, time=0),
    Message('note_on', channel=3, note=52, velocity=112, time=0),
    Message('note_on', channel=3, note=40, velocity=0, time=319),
    Message('note_on', channel=3, note=52, velocity=0, time=0),
    Message('note_on', channel=3, note=47, velocity=112, time=1),
    Message('control_change', channel=3, control=2, value=112, time=0),
    Message('note_on', channel=3, note=59, velocity=112, time=0),
    Message('note_on', channel=3, note=47, velocity=0, time=319),
    Message('note_on', channel=3, note=59, velocity=0, time=0),
    Message('note_on', channel=3, note=47, velocity=112, time=1),
    Message('control_change', channel=3, control=2, value=112, time=0),
    Message('note_on', channel=3, note=59, velocity=112, time=0),
    Message('note_on', channel=3, note=47, velocity=0, time=319),
    Message('note_on', channel=3, note=59, velocity=0, time=0),
    Message('note_on', channel=3, note=40, velocity=112, time=1),
    Message('control_change', channel=3, control=2, value=112, time=0),
    Message('note_on', channel=3, note=52, velocity=112, time=0),
    Message('note_on', channel=3, note=40, velocity=0, time=319),
    Message('note_on', channel=3, note=52, velocity=0, time=0),
    Message('note_on', channel=3, note=47, velocity=112, time=1),
    Message('control_change', channel=3, control=2, value=112, time=0),
    Message('note_on', channel=3, note=59, velocity=112, time=0),
    Message('note_on', channel=3, note=47, velocity=0, time=319),
    Message('note_on', channel=3, note=59, velocity=0, time=0),
    Message('note_on', channel=3, note=46, velocity=112, time=1),
    Message('control_change', channel=3, control=2, value=112, time=0),
    Message('note_on', channel=3, note=58, velocity=112, time=0),
    Message('note_on', channel=3, note=46, velocity=0, time=1919),
    Message('note_on', channel=3, note=58, velocity=0, time=0),
    Message('note_on', channel=3, note=42, velocity=112, time=1),
    Message('control_change', channel=3, control=2, value=112, time=0),
    Message('note_on', channel=3, note=54, velocity=112, time=0),
    Message('note_on', channel=3, note=42, velocity=0, time=1919),
    Message('note_on', channel=3, note=54, velocity=0, time=0),
    Message('note_on', channel=3, note=42, velocity=112, time=1),
    Message('control_change', channel=3, control=2, value=112, time=0),
    Message('note_on', channel=3, note=54, velocity=112, time=0),
    Message('note_on', channel=3, note=42, velocity=0, time=959),
    Message('note_on', channel=3, note=54, velocity=0, time=0),
    Message('note_on', channel=3, note=42, velocity=112, time=1),
    Message('control_change', channel=3, control=2, value=112, time=0),
    Message('note_on', channel=3, note=54, velocity=112, time=0),
    Message('note_on', channel=3, note=42, velocity=0, time=959),
    Message('note_on', channel=3, note=54, velocity=0, time=0),
    Message('note_on', channel=3, note=42, velocity=112, time=1),
    Message('control_change', channel=3, control=2, value=112, time=0),
    Message('note_on', channel=3, note=54, velocity=112, time=0),
    Message('note_on', channel=3, note=42, velocity=0, time=959),
    Message('note_on', channel=3, note=54, velocity=0, time=0),
    Message('note_on', channel=3, note=42, velocity=112, time=1),
    Message('control_change', channel=3, control=2, value=112, time=0),
    Message('note_on', channel=3, note=54, velocity=112, time=0),
    Message('note_on', channel=3, note=42, velocity=0, time=959),
    Message('note_on', channel=3, note=54, velocity=0, time=0),
    Message('note_on', channel=3, note=40, velocity=112, time=6241),
    Message('control_change', channel=3, control=2, value=112, time=0),
    Message('note_on', channel=3, note=52, velocity=112, time=0),
    Message('note_on', channel=3, note=40, velocity=0, time=479),
    Message('note_on', channel=3, note=52, velocity=0, time=0),
    Message('note_on', channel=3, note=38, velocity=112, time=1),
    Message('control_change', channel=3, control=2, value=112, time=0),
    Message('note_on', channel=3, note=50, velocity=112, time=0),
    Message('note_on', channel=3, note=38, velocity=0, time=479),
    Message('note_on', channel=3, note=50, velocity=0, time=0),
    Message('note_on', channel=3, note=37, velocity=112, time=1),
    Message('control_change', channel=3, control=2, value=112, time=0),
    Message('note_on', channel=3, note=49, velocity=112, time=0),
    Message('note_on', channel=3, note=37, velocity=0, time=479),
    Message('note_on', channel=3, note=49, velocity=0, time=0),
    Message('control_change', channel=3, control=2, value=126, time=1),
    Message('note_on', channel=3, note=35, velocity=126, time=0),
    Message('note_on', channel=3, note=47, velocity=126, time=0),
    Message('control_change', channel=3, control=2, value=126, time=1920),
    Message('note_on', channel=3, note=35, velocity=0, time=479),
    Message('note_on', channel=3, note=47, velocity=0, time=0),
    Message('note_on', channel=3, note=35, velocity=126, time=2401),
    Message('control_change', channel=3, control=2, value=126, time=0),
    Message('note_on', channel=3, note=47, velocity=126, time=0),
    Message('note_on', channel=3, note=35, velocity=0, time=959),
    Message('note_on', channel=3, note=47, velocity=0, time=0),
    Message('note_on', channel=3, note=35, velocity=126, time=961),
    Message('control_change', channel=3, control=2, value=126, time=0),
    Message('note_on', channel=3, note=47, velocity=126, time=0),
    Message('note_on', channel=3, note=35, velocity=0, time=959),
    Message('note_on', channel=3, note=47, velocity=0, time=0),
    Message('note_on', channel=3, note=35, velocity=126, time=481),
    Message('control_change', channel=3, control=2, value=126, time=0),
    Message('note_on', channel=3, note=47, velocity=126, time=0),
    Message('note_on', channel=3, note=35, velocity=0, time=479),
    Message('note_on', channel=3, note=47, velocity=0, time=0),
    Message('note_on', channel=3, note=35, velocity=126, time=481),
    Message('control_change', channel=3, control=2, value=126, time=0),
    Message('note_on', channel=3, note=47, velocity=126, time=0),
    Message('note_on', channel=3, note=35, velocity=0, time=479),
    Message('note_on', channel=3, note=47, velocity=0, time=0),
    Message('note_on', channel=3, note=35, velocity=126, time=481),
    Message('control_change', channel=3, control=2, value=126, time=0),
    Message('note_on', channel=3, note=47, velocity=126, time=0),
    Message('note_on', channel=3, note=35, velocity=0, time=479),
    Message('note_on', channel=3, note=47, velocity=0, time=0),
    Message('note_on', channel=3, note=35, velocity=126, time=481),
    Message('control_change', channel=3, control=2, value=126, time=0),
    Message('note_on', channel=3, note=47, velocity=126, time=0),
    Message('note_on', channel=3, note=35, velocity=0, time=479),
    Message('note_on', channel=3, note=47, velocity=0, time=0),
    Message('note_on', channel=3, note=35, velocity=126, time=481),
    Message('control_change', channel=3, control=2, value=126, time=0),
    Message('note_on', channel=3, note=47, velocity=126, time=0),
    Message('note_on', channel=3, note=35, velocity=0, time=479),
    Message('note_on', channel=3, note=47, velocity=0, time=0),
    Message('note_on', channel=3, note=35, velocity=126, time=481),
    Message('control_change', channel=3, control=2, value=126, time=0),
    Message('note_on', channel=3, note=47, velocity=126, time=0),
    Message('note_on', channel=3, note=35, velocity=0, time=479),
    Message('note_on', channel=3, note=47, velocity=0, time=0),
    Message('note_on', channel=3, note=35, velocity=126, time=481),
    Message('control_change', channel=3, control=2, value=126, time=0),
    Message('note_on', channel=3, note=47, velocity=126, time=0),
    Message('note_on', channel=3, note=35, velocity=0, time=479),
    Message('note_on', channel=3, note=47, velocity=0, time=0),
    Message('note_on', channel=3, note=35, velocity=126, time=481),
    Message('control_change', channel=3, control=2, value=126, time=0),
    Message('note_on', channel=3, note=47, velocity=126, time=0),
    Message('note_on', channel=3, note=35, velocity=0, time=479),
    Message('note_on', channel=3, note=47, velocity=0, time=0),
    Message('note_on', channel=3, note=42, velocity=80, time=7681),
    Message('control_change', channel=3, control=2, value=80, time=0),
    Message('note_on', channel=3, note=54, velocity=80, time=0),
    Message('note_on', channel=3, note=42, velocity=0, time=1919),
    Message('note_on', channel=3, note=54, velocity=0, time=0),
    Message('note_on', channel=3, note=35, velocity=80, time=1),
    Message('control_change', channel=3, control=2, value=80, time=0),
    Message('note_on', channel=3, note=47, velocity=80, time=0),
    Message('note_on', channel=3, note=35, velocity=0, time=479),
    Message('note_on', channel=3, note=47, velocity=0, time=0),
    Message('note_on', channel=3, note=37, velocity=80, time=1),
    Message('control_change', channel=3, control=2, value=80, time=0),
    Message('note_on', channel=3, note=49, velocity=80, time=0),
    Message('note_on', channel=3, note=37, velocity=0, time=479),
    Message('note_on', channel=3, note=49, velocity=0, time=0),
    Message('note_on', channel=3, note=38, velocity=80, time=1),
    Message('control_change', channel=3, control=2, value=80, time=0),
    Message('note_on', channel=3, note=50, velocity=80, time=0),
    Message('note_on', channel=3, note=38, velocity=0, time=479),
    Message('note_on', channel=3, note=50, velocity=0, time=0),
    Message('note_on', channel=3, note=40, velocity=80, time=1),
    Message('control_change', channel=3, control=2, value=80, time=0),
    Message('note_on', channel=3, note=52, velocity=80, time=0),
    Message('note_on', channel=3, note=40, velocity=0, time=479),
    Message('note_on', channel=3, note=52, velocity=0, time=0),
    Message('note_on', channel=3, note=42, velocity=80, time=1),
    Message('control_change', channel=3, control=2, value=80, time=0),
    Message('note_on', channel=3, note=54, velocity=80, time=0),
    Message('note_on', channel=3, note=42, velocity=0, time=1439),
    Message('note_on', channel=3, note=54, velocity=0, time=0),
    Message('note_on', channel=3, note=38, velocity=80, time=1),
    Message('control_change', channel=3, control=2, value=80, time=0),
    Message('note_on', channel=3, note=50, velocity=80, time=0),
    Message('note_on', channel=3, note=38, velocity=0, time=479),
    Message('note_on', channel=3, note=50, velocity=0, time=0),
    Message('note_on', channel=3, note=42, velocity=80, time=1),
    Message('control_change', channel=3, control=2, value=80, time=0),
    Message('note_on', channel=3, note=54, velocity=80, time=0),
    Message('note_on', channel=3, note=42, velocity=0, time=1439),
    Message('note_on', channel=3, note=54, velocity=0, time=0),
    Message('note_on', channel=3, note=38, velocity=80, time=1),
    Message('control_change', channel=3, control=2, value=80, time=0),
    Message('note_on', channel=3, note=50, velocity=80, time=0),
    Message('note_on', channel=3, note=38, velocity=0, time=479),
    Message('note_on', channel=3, note=50, velocity=0, time=0),
    Message('note_on', channel=3, note=35, velocity=80, time=1),
    Message('control_change', channel=3, control=2, value=80, time=0),
    Message('note_on', channel=3, note=47, velocity=80, time=0),
    Message('note_on', channel=3, note=35, velocity=0, time=479),
    Message('note_on', channel=3, note=47, velocity=0, time=0),
    MetaMessage('end_of_track', time=1)]),
  MidiTrack([
    MetaMessage('track_name', name='Horn in F 1\x00', time=0),
    MetaMessage('key_signature', key='C', time=0),
    Message('control_change', channel=4, control=121, value=0, time=0),
    Message('program_change', channel=4, program=60, time=0),
    Message('control_change', channel=4, control=7, value=100, time=0),
    Message('control_change', channel=4, control=10, value=64, time=0),
    Message('control_change', channel=4, control=91, value=0, time=0),
    Message('control_change', channel=4, control=93, value=0, time=0),
    MetaMessage('midi_port', port=0, time=0),
    Message('control_change', channel=5, control=121, value=0, time=0),
    Message('program_change', channel=5, program=59, time=0),
    Message('control_change', channel=5, control=7, value=100, time=0),
    Message('control_change', channel=5, control=10, value=64, time=0),
    Message('control_change', channel=5, control=91, value=0, time=0),
    Message('control_change', channel=5, control=93, value=0, time=0),
    MetaMessage('midi_port', port=0, time=0),
    Message('note_on', channel=4, note=66, velocity=127, time=34560),
    Message('control_change', channel=4, control=2, value=127, time=0),
    Message('note_on', channel=4, note=66, velocity=0, time=959),
    Message('note_on', channel=4, note=59, velocity=127, time=1),
    Message('control_change', channel=4, control=2, value=127, time=0),
    Message('note_on', channel=4, note=59, velocity=0, time=239),
    Message('note_on', channel=4, note=61, velocity=127, time=1),
    Message('control_change', channel=4, control=2, value=127, time=0),
    Message('note_on', channel=4, note=61, velocity=0, time=239),
    Message('note_on', channel=4, note=62, velocity=127, time=1),
    Message('control_change', channel=4, control=2, value=127, time=0),
    Message('note_on', channel=4, note=62, velocity=0, time=239),
    Message('note_on', channel=4, note=64, velocity=127, time=1),
    Message('control_change', channel=4, control=2, value=127, time=0),
    Message('note_on', channel=4, note=64, velocity=0, time=239),
    Message('note_on', channel=4, note=66, velocity=127, time=1),
    Message('control_change', channel=4, control=2, value=127, time=0),
    Message('note_on', channel=4, note=66, velocity=0, time=719),
    Message('note_on', channel=4, note=62, velocity=127, time=1),
    Message('control_change', channel=4, control=2, value=127, time=0),
    Message('note_on', channel=4, note=62, velocity=0, time=239),
    Message('note_on', channel=4, note=66, velocity=127, time=1),
    Message('control_change', channel=4, control=2, value=127, time=0),
    Message('note_on', channel=4, note=66, velocity=0, time=719),
    Message('note_on', channel=4, note=62, velocity=127, time=1),
    Message('control_change', channel=4, control=2, value=127, time=0),
    Message('note_on', channel=4, note=62, velocity=0, time=239),
    Message('note_on', channel=4, note=66, velocity=127, time=1),
    Message('control_change', channel=4, control=2, value=127, time=0),
    Message('note_on', channel=4, note=66, velocity=0, time=719),
    Message('note_on', channel=4, note=59, velocity=127, time=1),
    Message('control_change', channel=4, control=2, value=127, time=0),
    Message('note_on', channel=4, note=59, velocity=0, time=239),
    Message('note_on', channel=4, note=62, velocity=127, time=1),
    Message('control_change', channel=4, control=2, value=127, time=0),
    Message('note_on', channel=4, note=62, velocity=0, time=239),
    Message('note_on', channel=4, note=59, velocity=127, time=1),
    Message('control_change', channel=4, control=2, value=127, time=0),
    Message('note_on', channel=4, note=59, velocity=0, time=239),
    Message('note_on', channel=4, note=55, velocity=127, time=1),
    Message('control_change', channel=4, control=2, value=127, time=0),
    Message('note_on', channel=4, note=55, velocity=0, time=239),
    Message('note_on', channel=4, note=62, velocity=127, time=1),
    Message('control_change', channel=4, control=2, value=127, time=0),
    Message('note_on', channel=4, note=62, velocity=0, time=239),
    Message('note_on', channel=4, note=59, velocity=127, time=1),
    Message('control_change', channel=4, control=2, value=127, time=0),
    Message('control_change', channel=4, control=2, value=127, time=960),
    Message('note_on', channel=4, note=59, velocity=0, time=239),
    Message('note_on', channel=4, note=64, velocity=127, time=1),
    Message('control_change', channel=4, control=2, value=127, time=0),
    Message('note_on', channel=4, note=64, velocity=0, time=239),
    Message('note_on', channel=4, note=62, velocity=127, time=1),
    Message('control_change', channel=4, control=2, value=127, time=0),
    Message('note_on', channel=4, note=62, velocity=0, time=239),
    Message('note_on', channel=4, note=61, velocity=127, time=1),
    Message('control_change', channel=4, control=2, value=127, time=0),
    Message('note_on', channel=4, note=61, velocity=0, time=239),
    Message('note_on', channel=4, note=66, velocity=127, time=1),
    Message('control_change', channel=4, control=2, value=127, time=0),
    Message('note_on', channel=4, note=66, velocity=0, time=959),
    Message('note_on', channel=4, note=59, velocity=127, time=1),
    Message('control_change', channel=4, control=2, value=127, time=0),
    Message('note_on', channel=4, note=59, velocity=0, time=239),
    Message('note_on', channel=4, note=61, velocity=127, time=1),
    Message('control_change', channel=4, control=2, value=127, time=0),
    Message('note_on', channel=4, note=61, velocity=0, time=239),
    Message('note_on', channel=4, note=62, velocity=127, time=1),
    Message('control_change', channel=4, control=2, value=127, time=0),
    Message('note_on', channel=4, note=62, velocity=0, time=239),
    Message('note_on', channel=4, note=64, velocity=127, time=1),
    Message('control_change', channel=4, control=2, value=127, time=0),
    Message('note_on', channel=4, note=64, velocity=0, time=239),
    Message('note_on', channel=4, note=66, velocity=127, time=1),
    Message('control_change', channel=4, control=2, value=127, time=0),
    Message('note_on', channel=4, note=66, velocity=0, time=719),
    Message('note_on', channel=4, note=62, velocity=127, time=1),
    Message('control_change', channel=4, control=2, value=127, time=0),
    Message('note_on', channel=4, note=62, velocity=0, time=239),
    Message('note_on', channel=4, note=66, velocity=127, time=1),
    Message('control_change', channel=4, control=2, value=127, time=0),
    Message('note_on', channel=4, note=66, velocity=0, time=719),
    Message('note_on', channel=4, note=62, velocity=127, time=1),
    Message('control_change', channel=4, control=2, value=127, time=0),
    Message('note_on', channel=4, note=62, velocity=0, time=239),
    Message('note_on', channel=4, note=66, velocity=127, time=1),
    Message('control_change', channel=4, control=2, value=127, time=0),
    Message('note_on', channel=4, note=66, velocity=0, time=719),
    Message('note_on', channel=4, note=59, velocity=127, time=1),
    Message('control_change', channel=4, control=2, value=127, time=0),
    Message('note_on', channel=4, note=59, velocity=0, time=239),
    Message('note_on', channel=4, note=62, velocity=127, time=1),
    Message('control_change', channel=4, control=2, value=127, time=0),
    Message('note_on', channel=4, note=62, velocity=0, time=239),
    Message('note_on', channel=4, note=59, velocity=127, time=1),
    Message('control_change', channel=4, control=2, value=127, time=0),
    Message('note_on', channel=4, note=59, velocity=0, time=239),
    Message('note_on', channel=4, note=55, velocity=127, time=1),
    Message('control_change', channel=4, control=2, value=127, time=0),
    Message('note_on', channel=4, note=55, velocity=0, time=239),
    Message('note_on', channel=4, note=62, velocity=127, time=1),
    Message('control_change', channel=4, control=2, value=127, time=0),
    Message('note_on', channel=4, note=62, velocity=0, time=239),
    Message('control_change', channel=4, control=2, value=127, time=1),
    Message('note_on', channel=4, note=59, velocity=127, time=0),
    Message('note_on', channel=4, note=59, velocity=0, time=0),
    Message('note_on', channel=4, note=59, velocity=127, time=0),
    Message('note_on', channel=5, note=59, velocity=0, time=0),
    Message('control_change', channel=4, control=2, value=126, time=62),
    Message('control_change', channel=4, control=2, value=125, time=62),
    Message('control_change', channel=4, control=2, value=124, time=62),
    Message('control_change', channel=4, control=2, value=123, time=62),
    Message('control_change', channel=4, control=2, value=122, time=62),
    Message('control_change', channel=4, control=2, value=121, time=62),
    Message('control_change', channel=4, control=2, value=120, time=62),
    Message('control_change', channel=4, control=2, value=119, time=62),
    Message('control_change', channel=4, control=2, value=118, time=62),
    Message('control_change', channel=4, control=2, value=117, time=62),
    Message('control_change', channel=4, control=2, value=116, time=62),
    Message('control_change', channel=4, control=2, value=115, time=62),
    Message('control_change', channel=4, control=2, value=114, time=62),
    Message('control_change', channel=4, control=2, value=113, time=62),
    Message('control_change', channel=4, control=2, value=112, time=62),
    Message('control_change', channel=4, control=2, value=111, time=61),
    Message('control_change', channel=4, control=2, value=110, time=62),
    Message('control_change', channel=4, control=2, value=109, time=62),
    Message('control_change', channel=4, control=2, value=108, time=62),
    Message('control_change', channel=4, control=2, value=107, time=62),
    Message('control_change', channel=4, control=2, value=106, time=62),
    Message('control_change', channel=4, control=2, value=105, time=62),
    Message('control_change', channel=4, control=2, value=104, time=62),
    Message('control_change', channel=4, control=2, value=103, time=62),
    Message('control_change', channel=4, control=2, value=102, time=62),
    Message('control_change', channel=4, control=2, value=101, time=62),
    Message('control_change', channel=4, control=2, value=100, time=62),
    Message('control_change', channel=4, control=2, value=99, time=62),
    Message('control_change', channel=4, control=2, value=98, time=62),
    Message('control_change', channel=4, control=2, value=97, time=62),
    Message('note_on', channel=4, note=59, velocity=0, time=60),
    Message('control_change', channel=4, control=2, value=96, time=1),
    Message('note_on', channel=4, note=57, velocity=96, time=0),
    Message('note_on', channel=4, note=61, velocity=96, time=0),
    Message('control_change', channel=4, control=2, value=96, time=1920),
    Message('note_on', channel=4, note=57, velocity=0, time=1919),
    Message('note_on', channel=4, note=61, velocity=0, time=0),
    Message('note_on', channel=4, note=55, velocity=96, time=1),
    Message('control_change', channel=4, control=2, value=96, time=0),
    Message('note_on', channel=4, note=59, velocity=96, time=0),
    Message('note_on', channel=4, note=55, velocity=0, time=1919),
    Message('note_on', channel=4, note=59, velocity=0, time=0),
    Message('note_on', channel=4, note=56, velocity=96, time=1),
    Message('control_change', channel=4, control=2, value=96, time=0),
    Message('note_on', channel=4, note=61, velocity=96, time=0),
    Message('note_on', channel=4, note=56, velocity=0, time=959),
    Message('note_on', channel=4, note=61, velocity=0, time=0),
    Message('note_on', channel=4, note=58, velocity=96, time=1),
    Message('control_change', channel=4, control=2, value=96, time=0),
    Message('note_on', channel=4, note=61, velocity=96, time=0),
    Message('note_on', channel=4, note=58, velocity=0, time=479),
    Message('note_on', channel=4, note=61, velocity=0, time=0),
    Message('note_on', channel=4, note=59, velocity=96, time=1),
    Message('control_change', channel=4, control=2, value=96, time=0),
    Message('note_on', channel=4, note=62, velocity=96, time=0),
    Message('note_on', channel=4, note=59, velocity=0, time=479),
    Message('note_on', channel=4, note=62, velocity=0, time=0),
    Message('note_on', channel=4, note=57, velocity=96, time=1),
    Message('control_change', channel=4, control=2, value=96, time=0),
    Message('note_on', channel=4, note=61, velocity=96, time=0),
    Message('control_change', channel=4, control=2, value=96, time=1920),
    Message('note_on', channel=4, note=57, velocity=0, time=1919),
    Message('note_on', channel=4, note=61, velocity=0, time=0),
    Message('note_on', channel=4, note=55, velocity=96, time=1),
    Message('control_change', channel=4, control=2, value=96, time=0),
    Message('note_on', channel=4, note=59, velocity=96, time=0),
    Message('note_on', channel=4, note=55, velocity=0, time=1919),
    Message('note_on', channel=4, note=59, velocity=0, time=0),
    Message('note_on', channel=4, note=60, velocity=96, time=1),
    Message('control_change', channel=4, control=2, value=96, time=0),
    Message('note_on', channel=4, note=67, velocity=96, time=0),
    Message('note_on', channel=4, note=60, velocity=0, time=959),
    Message('note_on', channel=4, note=67, velocity=0, time=0),
    Message('note_on', channel=4, note=59, velocity=96, time=1),
    Message('control_change', channel=4, control=2, value=96, time=0),
    Message('note_on', channel=4, note=67, velocity=96, time=0),
    Message('note_on', channel=4, note=59, velocity=0, time=959),
    Message('note_on', channel=4, note=67, velocity=0, time=0),
    Message('note_on', channel=4, note=58, velocity=96, time=1),
    Message('control_change', channel=4, control=2, value=96, time=0),
    Message('note_on', channel=4, note=66, velocity=96, time=0),
    Message('note_on', channel=4, note=58, velocity=0, time=959),
    Message('note_on', channel=4, note=66, velocity=0, time=0),
    Message('note_on', channel=4, note=59, velocity=96, time=1),
    Message('control_change', channel=4, control=2, value=96, time=0),
    Message('note_on', channel=4, note=67, velocity=96, time=0),
    Message('note_on', channel=4, note=59, velocity=0, time=959),
    Message('note_on', channel=4, note=67, velocity=0, time=0),
    Message('note_on', channel=4, note=60, velocity=96, time=1),
    Message('control_change', channel=4, control=2, value=96, time=0),
    Message('note_on', channel=4, note=67, velocity=96, time=0),
    Message('note_on', channel=4, note=60, velocity=0, time=959),
    Message('note_on', channel=4, note=67, velocity=0, time=0),
    Message('note_on', channel=4, note=59, velocity=96, time=1),
    Message('control_change', channel=4, control=2, value=96, time=0),
    Message('note_on', channel=4, note=67, velocity=96, time=0),
    Message('note_on', channel=4, note=59, velocity=0, time=959),
    Message('note_on', channel=4, note=67, velocity=0, time=0),
    Message('note_on', channel=4, note=58, velocity=96, time=1),
    Message('control_change', channel=4, control=2, value=96, time=0),
    Message('note_on', channel=4, note=66, velocity=96, time=0),
    Message('note_on', channel=4, note=58, velocity=0, time=959),
    Message('note_on', channel=4, note=66, velocity=0, time=0),
    Message('note_on', channel=4, note=59, velocity=96, time=1),
    Message('control_change', channel=4, control=2, value=96, time=0),
    Message('note_on', channel=4, note=67, velocity=96, time=0),
    Message('note_on', channel=4, note=59, velocity=0, time=959),
    Message('note_on', channel=4, note=67, velocity=0, time=0),
    Message('control_change', channel=4, control=2, value=96, time=1),
    Message('note_on', channel=4, note=60, velocity=96, time=0),
    Message('note_on', channel=4, note=67, velocity=96, time=0),
    Message('control_change', channel=4, control=2, value=97, time=480),
    Message('note_on', channel=4, note=60, velocity=0, time=479),
    Message('note_on', channel=4, note=67, velocity=0, time=0),
    Message('control_change', channel=4, control=2, value=98, time=1),
    Message('note_on', channel=4, note=55, velocity=98, time=0),
    Message('note_on', channel=4, note=67, velocity=98, time=0),
    Message('control_change', channel=4, control=2, value=99, time=480),
    Message('note_on', channel=4, note=55, velocity=0, time=479),
    Message('note_on', channel=4, note=67, velocity=0, time=0),
    Message('control_change', channel=4, control=2, value=100, time=1),
    Message('note_on', channel=4, note=61, velocity=100, time=0),
    Message('control_change', channel=4, control=2, value=101, time=480),
    Message('control_change', channel=4, control=2, value=102, time=480),
    Message('control_change', channel=4, control=2, value=103, time=480),
    Message('note_on', channel=4, note=61, velocity=0, time=479),
    Message('control_change', channel=4, control=2, value=104, time=1),
    Message('note_on', channel=4, note=60, velocity=104, time=0),
    Message('note_on', channel=4, note=67, velocity=104, time=0),
    Message('control_change', channel=4, control=2, value=105, time=480),
    Message('note_on', channel=4, note=60, velocity=0, time=479),
    Message('note_on', channel=4, note=67, velocity=0, time=0),
    Message('control_change', channel=4, control=2, value=106, time=1),
    Message('note_on', channel=4, note=55, velocity=106, time=0),
    Message('note_on', channel=4, note=67, velocity=106, time=0),
    Message('control_change', channel=4, control=2, value=107, time=480),
    Message('note_on', channel=4, note=55, velocity=0, time=479),
    Message('note_on', channel=4, note=67, velocity=0, time=0),
    Message('control_change', channel=4, control=2, value=108, time=1),
    Message('note_on', channel=4, note=61, velocity=108, time=0),
    Message('control_change', channel=4, control=2, value=109, time=480),
    Message('control_change', channel=4, control=2, value=110, time=480),
    Message('control_change', channel=4, control=2, value=111, time=480),
    Message('note_on', channel=4, note=61, velocity=0, time=479),
    Message('control_change', channel=4, control=2, value=112, time=1),
    Message('note_on', channel=4, note=60, velocity=112, time=0),
    Message('note_on', channel=4, note=67, velocity=112, time=0),
    Message('note_on', channel=4, note=60, velocity=0, time=959),
    Message('note_on', channel=4, note=67, velocity=0, time=0),
    Message('note_on', channel=4, note=55, velocity=112, time=1),
    Message('control_change', channel=4, control=2, value=112, time=0),
    Message('note_on', channel=4, note=67, velocity=112, time=0),
    Message('note_on', channel=4, note=55, velocity=0, time=959),
    Message('note_on', channel=4, note=67, velocity=0, time=0),
    Message('note_on', channel=4, note=67, velocity=112, time=1),
    Message('control_change', channel=4, control=2, value=112, time=0),
    Message('note_on', channel=4, note=67, velocity=0, time=1919),
    Message('note_on', channel=4, note=68, velocity=112, time=1),
    Message('control_change', channel=4, control=2, value=112, time=0),
    Message('note_on', channel=4, note=68, velocity=0, time=1919),
    Message('note_on', channel=4, note=64, velocity=112, time=1),
    Message('control_change', channel=4, control=2, value=112, time=0),
    Message('note_on', channel=4, note=70, velocity=112, time=0),
    Message('note_on', channel=4, note=64, velocity=0, time=1919),
    Message('note_on', channel=4, note=70, velocity=0, time=0),
    Message('note_on', channel=4, note=58, velocity=112, time=1),
    Message('control_change', channel=4, control=2, value=112, time=0),
    Message('note_on', channel=4, note=70, velocity=112, time=0),
    Message('note_on', channel=4, note=58, velocity=0, time=959),
    Message('note_on', channel=4, note=70, velocity=0, time=0),
    Message('note_on', channel=4, note=58, velocity=112, time=1),
    Message('control_change', channel=4, control=2, value=112, time=0),
    Message('note_on', channel=4, note=70, velocity=112, time=0),
    Message('note_on', channel=4, note=58, velocity=0, time=959),
    Message('note_on', channel=4, note=70, velocity=0, time=0),
    Message('note_on', channel=4, note=58, velocity=112, time=1),
    Message('control_change', channel=4, control=2, value=112, time=0),
    Message('note_on', channel=4, note=70, velocity=112, time=0),
    Message('note_on', channel=4, note=58, velocity=0, time=959),
    Message('note_on', channel=4, note=70, velocity=0, time=0),
    Message('note_on', channel=4, note=58, velocity=112, time=1),
    Message('control_change', channel=4, control=2, value=112, time=0),
    Message('note_on', channel=4, note=70, velocity=112, time=0),
    Message('note_on', channel=4, note=58, velocity=0, time=959),
    Message('note_on', channel=4, note=70, velocity=0, time=0),
    Message('note_on', channel=4, note=54, velocity=126, time=7681),
    Message('control_change', channel=4, control=2, value=126, time=0),
    Message('note_on', channel=4, note=66, velocity=126, time=0),
    Message('control_change', channel=4, control=2, value=126, time=1920),
    Message('note_on', channel=4, note=54, velocity=0, time=479),
    Message('note_on', channel=4, note=66, velocity=0, time=0),
    Message('note_on', channel=4, note=54, velocity=126, time=2401),
    Message('control_change', channel=4, control=2, value=126, time=0),
    Message('note_on', channel=4, note=66, velocity=126, time=0),
    Message('note_on', channel=4, note=54, velocity=0, time=959),
    Message('note_on', channel=4, note=66, velocity=0, time=0),
    Message('note_on', channel=4, note=54, velocity=126, time=961),
    Message('control_change', channel=4, control=2, value=126, time=0),
    Message('note_on', channel=4, note=66, velocity=126, time=0),
    Message('note_on', channel=4, note=54, velocity=0, time=959),
    Message('note_on', channel=4, note=66, velocity=0, time=0),
    Message('note_on', channel=4, note=54, velocity=126, time=481),
    Message('control_change', channel=4, control=2, value=126, time=0),
    Message('note_on', channel=4, note=66, velocity=126, time=0),
    Message('note_on', channel=4, note=54, velocity=0, time=479),
    Message('note_on', channel=4, note=66, velocity=0, time=0),
    Message('note_on', channel=4, note=54, velocity=126, time=481),
    Message('control_change', channel=4, control=2, value=126, time=0),
    Message('note_on', channel=4, note=66, velocity=126, time=0),
    Message('note_on', channel=4, note=54, velocity=0, time=479),
    Message('note_on', channel=4, note=66, velocity=0, time=0),
    Message('note_on', channel=4, note=54, velocity=126, time=481),
    Message('control_change', channel=4, control=2, value=126, time=0),
    Message('note_on', channel=4, note=66, velocity=126, time=0),
    Message('note_on', channel=4, note=54, velocity=0, time=479),
    Message('note_on', channel=4, note=66, velocity=0, time=0),
    Message('note_on', channel=4, note=54, velocity=126, time=481),
    Message('control_change', channel=4, control=2, value=126, time=0),
    Message('note_on', channel=4, note=66, velocity=126, time=0),
    Message('note_on', channel=4, note=54, velocity=0, time=479),
    Message('note_on', channel=4, note=66, velocity=0, time=0),
    Message('note_on', channel=4, note=54, velocity=126, time=481),
    Message('control_change', channel=4, control=2, value=126, time=0),
    Message('note_on', channel=4, note=66, velocity=126, time=0),
    Message('note_on', channel=4, note=54, velocity=0, time=479),
    Message('note_on', channel=4, note=66, velocity=0, time=0),
    Message('note_on', channel=4, note=54, velocity=126, time=481),
    Message('control_change', channel=4, control=2, value=126, time=0),
    Message('note_on', channel=4, note=66, velocity=126, time=0),
    Message('note_on', channel=4, note=54, velocity=0, time=479),
    Message('note_on', channel=4, note=66, velocity=0, time=0),
    Message('note_on', channel=4, note=54, velocity=126, time=481),
    Message('control_change', channel=4, control=2, value=126, time=0),
    Message('note_on', channel=4, note=66, velocity=126, time=0),
    Message('note_on', channel=4, note=54, velocity=0, time=479),
    Message('note_on', channel=4, note=66, velocity=0, time=0),
    Message('note_on', channel=4, note=54, velocity=126, time=481),
    Message('control_change', channel=4, control=2, value=126, time=0),
    Message('note_on', channel=4, note=66, velocity=126, time=0),
    Message('note_on', channel=4, note=54, velocity=0, time=479),
    Message('note_on', channel=4, note=66, velocity=0, time=0),
    MetaMessage('end_of_track', time=1)]),
  MidiTrack([
    MetaMessage('track_name', name='Horn in F 2\x00', time=0),
    MetaMessage('key_signature', key='C', time=0),
    Message('control_change', channel=6, control=121, value=0, time=0),
    Message('program_change', channel=6, program=60, time=0),
    Message('control_change', channel=6, control=7, value=100, time=0),
    Message('control_change', channel=6, control=10, value=64, time=0),
    Message('control_change', channel=6, control=91, value=0, time=0),
    Message('control_change', channel=6, control=93, value=0, time=0),
    MetaMessage('midi_port', port=0, time=0),
    Message('control_change', channel=7, control=121, value=0, time=0),
    Message('program_change', channel=7, program=59, time=0),
    Message('control_change', channel=7, control=7, value=100, time=0),
    Message('control_change', channel=7, control=10, value=64, time=0),
    Message('control_change', channel=7, control=91, value=0, time=0),
    Message('control_change', channel=7, control=93, value=0, time=0),
    MetaMessage('midi_port', port=0, time=0),
    Message('note_on', channel=6, note=66, velocity=127, time=34560),
    Message('control_change', channel=6, control=2, value=127, time=0),
    Message('note_on', channel=6, note=66, velocity=0, time=959),
    Message('note_on', channel=6, note=59, velocity=127, time=1),
    Message('control_change', channel=6, control=2, value=127, time=0),
    Message('note_on', channel=6, note=59, velocity=0, time=239),
    Message('note_on', channel=6, note=61, velocity=127, time=1),
    Message('control_change', channel=6, control=2, value=127, time=0),
    Message('note_on', channel=6, note=61, velocity=0, time=239),
    Message('note_on', channel=6, note=62, velocity=127, time=1),
    Message('control_change', channel=6, control=2, value=127, time=0),
    Message('note_on', channel=6, note=62, velocity=0, time=239),
    Message('note_on', channel=6, note=64, velocity=127, time=1),
    Message('control_change', channel=6, control=2, value=127, time=0),
    Message('note_on', channel=6, note=64, velocity=0, time=239),
    Message('note_on', channel=6, note=66, velocity=127, time=1),
    Message('control_change', channel=6, control=2, value=127, time=0),
    Message('note_on', channel=6, note=66, velocity=0, time=719),
    Message('note_on', channel=6, note=62, velocity=127, time=1),
    Message('control_change', channel=6, control=2, value=127, time=0),
    Message('note_on', channel=6, note=62, velocity=0, time=239),
    Message('note_on', channel=6, note=66, velocity=127, time=1),
    Message('control_change', channel=6, control=2, value=127, time=0),
    Message('note_on', channel=6, note=66, velocity=0, time=719),
    Message('note_on', channel=6, note=62, velocity=127, time=1),
    Message('control_change', channel=6, control=2, value=127, time=0),
    Message('note_on', channel=6, note=62, velocity=0, time=239),
    Message('note_on', channel=6, note=66, velocity=127, time=1),
    Message('control_change', channel=6, control=2, value=127, time=0),
    Message('note_on', channel=6, note=66, velocity=0, time=719),
    Message('note_on', channel=6, note=59, velocity=127, time=1),
    Message('control_change', channel=6, control=2, value=127, time=0),
    Message('note_on', channel=6, note=59, velocity=0, time=239),
    Message('note_on', channel=6, note=62, velocity=127, time=1),
    Message('control_change', channel=6, control=2, value=127, time=0),
    Message('note_on', channel=6, note=62, velocity=0, time=239),
    Message('note_on', channel=6, note=59, velocity=127, time=1),
    Message('control_change', channel=6, control=2, value=127, time=0),
    Message('note_on', channel=6, note=59, velocity=0, time=239),
    Message('note_on', channel=6, note=55, velocity=127, time=1),
    Message('control_change', channel=6, control=2, value=127, time=0),
    Message('note_on', channel=6, note=55, velocity=0, time=239),
    Message('note_on', channel=6, note=62, velocity=127, time=1),
    Message('control_change', channel=6, control=2, value=127, time=0),
    Message('note_on', channel=6, note=62, velocity=0, time=239),
    Message('note_on', channel=6, note=59, velocity=127, time=1),
    Message('control_change', channel=6, control=2, value=127, time=0),
    Message('control_change', channel=6, control=2, value=127, time=960),
    Message('note_on', channel=6, note=59, velocity=0, time=239),
    Message('note_on', channel=6, note=64, velocity=127, time=1),
    Message('control_change', channel=6, control=2, value=127, time=0),
    Message('note_on', channel=6, note=64, velocity=0, time=239),
    Message('note_on', channel=6, note=62, velocity=127, time=1),
    Message('control_change', channel=6, control=2, value=127, time=0),
    Message('note_on', channel=6, note=62, velocity=0, time=239),
    Message('note_on', channel=6, note=61, velocity=127, time=1),
    Message('control_change', channel=6, control=2, value=127, time=0),
    Message('note_on', channel=6, note=61, velocity=0, time=239),
    Message('note_on', channel=6, note=66, velocity=127, time=1),
    Message('control_change', channel=6, control=2, value=127, time=0),
    Message('note_on', channel=6, note=66, velocity=0, time=959),
    Message('note_on', channel=6, note=59, velocity=127, time=1),
    Message('control_change', channel=6, control=2, value=127, time=0),
    Message('note_on', channel=6, note=59, velocity=0, time=239),
    Message('note_on', channel=6, note=61, velocity=127, time=1),
    Message('control_change', channel=6, control=2, value=127, time=0),
    Message('note_on', channel=6, note=61, velocity=0, time=239),
    Message('note_on', channel=6, note=62, velocity=127, time=1),
    Message('control_change', channel=6, control=2, value=127, time=0),
    Message('note_on', channel=6, note=62, velocity=0, time=239),
    Message('note_on', channel=6, note=64, velocity=127, time=1),
    Message('control_change', channel=6, control=2, value=127, time=0),
    Message('note_on', channel=6, note=64, velocity=0, time=239),
    Message('note_on', channel=6, note=66, velocity=127, time=1),
    Message('control_change', channel=6, control=2, value=127, time=0),
    Message('note_on', channel=6, note=66, velocity=0, time=719),
    Message('note_on', channel=6, note=62, velocity=127, time=1),
    Message('control_change', channel=6, control=2, value=127, time=0),
    Message('note_on', channel=6, note=62, velocity=0, time=239),
    Message('note_on', channel=6, note=66, velocity=127, time=1),
    Message('control_change', channel=6, control=2, value=127, time=0),
    Message('note_on', channel=6, note=66, velocity=0, time=719),
    Message('note_on', channel=6, note=62, velocity=127, time=1),
    Message('control_change', channel=6, control=2, value=127, time=0),
    Message('note_on', channel=6, note=62, velocity=0, time=239),
    Message('note_on', channel=6, note=66, velocity=127, time=1),
    Message('control_change', channel=6, control=2, value=127, time=0),
    Message('note_on', channel=6, note=66, velocity=0, time=719),
    Message('note_on', channel=6, note=59, velocity=127, time=1),
    Message('control_change', channel=6, control=2, value=127, time=0),
    Message('note_on', channel=6, note=59, velocity=0, time=239),
    Message('note_on', channel=6, note=62, velocity=127, time=1),
    Message('control_change', channel=6, control=2, value=127, time=0),
    Message('note_on', channel=6, note=62, velocity=0, time=239),
    Message('note_on', channel=6, note=59, velocity=127, time=1),
    Message('control_change', channel=6, control=2, value=127, time=0),
    Message('note_on', channel=6, note=59, velocity=0, time=239),
    Message('note_on', channel=6, note=55, velocity=127, time=1),
    Message('control_change', channel=6, control=2, value=127, time=0),
    Message('note_on', channel=6, note=55, velocity=0, time=239),
    Message('note_on', channel=6, note=62, velocity=127, time=1),
    Message('control_change', channel=6, control=2, value=127, time=0),
    Message('note_on', channel=6, note=62, velocity=0, time=239),
    Message('note_on', channel=6, note=64, velocity=96, time=5761),
    Message('control_change', channel=6, control=2, value=96, time=0),
    Message('note_on', channel=6, note=64, velocity=0, time=1919),
    Message('note_on', channel=6, note=65, velocity=96, time=1),
    Message('control_change', channel=6, control=2, value=96, time=0),
    Message('note_on', channel=6, note=65, velocity=0, time=959),
    Message('note_on', channel=6, note=66, velocity=96, time=1),
    Message('control_change', channel=6, control=2, value=96, time=0),
    Message('note_on', channel=6, note=66, velocity=0, time=959),
    Message('note_on', channel=6, note=64, velocity=96, time=3841),
    Message('control_change', channel=6, control=2, value=96, time=0),
    Message('note_on', channel=6, note=64, velocity=0, time=959),
    Message('note_on', channel=6, note=65, velocity=96, time=1),
    Message('control_change', channel=6, control=2, value=96, time=0),
    Message('note_on', channel=6, note=65, velocity=0, time=959),
    Message('note_on', channel=6, note=55, velocity=96, time=1),
    Message('control_change', channel=6, control=2, value=96, time=0),
    Message('note_on', channel=6, note=64, velocity=96, time=0),
    Message('note_on', channel=6, note=55, velocity=0, time=959),
    Message('note_on', channel=6, note=64, velocity=0, time=0),
    Message('note_on', channel=6, note=55, velocity=96, time=1),
    Message('control_change', channel=6, control=2, value=96, time=0),
    Message('note_on', channel=6, note=64, velocity=96, time=0),
    Message('note_on', channel=6, note=55, velocity=0, time=959),
    Message('note_on', channel=6, note=64, velocity=0, time=0),
    Message('note_on', channel=6, note=54, velocity=96, time=1),
    Message('control_change', channel=6, control=2, value=96, time=0),
    Message('note_on', channel=6, note=61, velocity=96, time=0),
    Message('note_on', channel=6, note=54, velocity=0, time=959),
    Message('note_on', channel=6, note=61, velocity=0, time=0),
    Message('note_on', channel=6, note=55, velocity=96, time=1),
    Message('control_change', channel=6, control=2, value=96, time=0),
    Message('note_on', channel=6, note=64, velocity=96, time=0),
    Message('note_on', channel=6, note=55, velocity=0, time=959),
    Message('note_on', channel=6, note=64, velocity=0, time=0),
    Message('note_on', channel=6, note=55, velocity=96, time=1),
    Message('control_change', channel=6, control=2, value=96, time=0),
    Message('note_on', channel=6, note=64, velocity=96, time=0),
    Message('note_on', channel=6, note=55, velocity=0, time=959),
    Message('note_on', channel=6, note=64, velocity=0, time=0),
    Message('note_on', channel=6, note=55, velocity=96, time=1),
    Message('control_change', channel=6, control=2, value=96, time=0),
    Message('note_on', channel=6, note=64, velocity=96, time=0),
    Message('note_on', channel=6, note=55, velocity=0, time=959),
    Message('note_on', channel=6, note=64, velocity=0, time=0),
    Message('note_on', channel=6, note=54, velocity=96, time=1),
    Message('control_change', channel=6, control=2, value=96, time=0),
    Message('note_on', channel=6, note=61, velocity=96, time=0),
    Message('note_on', channel=6, note=54, velocity=0, time=959),
    Message('note_on', channel=6, note=61, velocity=0, time=0),
    Message('note_on', channel=6, note=55, velocity=96, time=1),
    Message('control_change', channel=6, control=2, value=96, time=0),
    Message('note_on', channel=6, note=64, velocity=96, time=0),
    Message('note_on', channel=6, note=55, velocity=0, time=959),
    Message('note_on', channel=6, note=64, velocity=0, time=0),
    Message('control_change', channel=6, control=2, value=96, time=1),
    Message('note_on', channel=6, note=55, velocity=96, time=0),
    Message('note_on', channel=6, note=64, velocity=96, time=0),
    Message('control_change', channel=6, control=2, value=97, time=480),
    Message('note_on', channel=6, note=55, velocity=0, time=479),
    Message('note_on', channel=6, note=64, velocity=0, time=0),
    Message('control_change', channel=6, control=2, value=98, time=1),
    Message('note_on', channel=6, note=67, velocity=100, time=960),
    Message('control_change', channel=6, control=2, value=100, time=0),
    Message('note_on', channel=6, note=67, velocity=0, time=0),
    Message('note_on', channel=6, note=67, velocity=100, time=0),
    Message('note_on', channel=7, note=67, velocity=0, time=0),
    Message('control_change', channel=6, control=2, value=101, time=480),
    Message('note_on', channel=6, note=67, velocity=0, time=479),
    Message('control_change', channel=6, control=2, value=102, time=1),
    Message('note_on', channel=6, note=66, velocity=102, time=0),
    Message('note_on', channel=6, note=66, velocity=0, time=0),
    Message('note_on', channel=6, note=66, velocity=102, time=0),
    Message('note_on', channel=7, note=66, velocity=0, time=0),
    Message('control_change', channel=6, control=2, value=103, time=480),
    Message('note_on', channel=6, note=66, velocity=0, time=159),
    Message('note_on', channel=6, note=66, velocity=103, time=1),
    Message('control_change', channel=6, control=2, value=103, time=0),
    Message('note_on', channel=6, note=66, velocity=0, time=0),
    Message('note_on', channel=6, note=66, velocity=103, time=0),
    Message('note_on', channel=7, note=66, velocity=0, time=0),
    Message('note_on', channel=6, note=66, velocity=0, time=319),
    Message('control_change', channel=6, control=2, value=104, time=1),
    Message('note_on', channel=6, note=55, velocity=104, time=0),
    Message('note_on', channel=6, note=64, velocity=104, time=0),
    Message('control_change', channel=6, control=2, value=105, time=480),
    Message('note_on', channel=6, note=55, velocity=0, time=479),
    Message('note_on', channel=6, note=64, velocity=0, time=0),
    Message('control_change', channel=6, control=2, value=106, time=1),
    Message('control_change', channel=6, control=2, value=107, time=480),
    Message('control_change', channel=6, control=2, value=108, time=480),
    Message('note_on', channel=6, note=67, velocity=108, time=0),
    Message('note_on', channel=6, note=67, velocity=0, time=0),
    Message('note_on', channel=6, note=67, velocity=108, time=0),
    Message('note_on', channel=7, note=67, velocity=0, time=0),
    Message('control_change', channel=6, control=2, value=109, time=480),
    Message('note_on', channel=6, note=67, velocity=0, time=479),
    Message('control_change', channel=6, control=2, value=110, time=1),
    Message('note_on', channel=6, note=66, velocity=110, time=0),
    Message('note_on', channel=6, note=66, velocity=0, time=0),
    Message('note_on', channel=6, note=66, velocity=110, time=0),
    Message('note_on', channel=7, note=66, velocity=0, time=0),
    Message('control_change', channel=6, control=2, value=111, time=480),
    Message('note_on', channel=6, note=66, velocity=0, time=159),
    Message('note_on', channel=6, note=66, velocity=111, time=1),
    Message('control_change', channel=6, control=2, value=111, time=0),
    Message('note_on', channel=6, note=66, velocity=0, time=0),
    Message('note_on', channel=6, note=66, velocity=111, time=0),
    Message('note_on', channel=7, note=66, velocity=0, time=0),
    Message('note_on', channel=6, note=66, velocity=0, time=319),
    Message('control_change', channel=6, control=2, value=112, time=1),
    Message('note_on', channel=6, note=55, velocity=112, time=0),
    Message('note_on', channel=6, note=64, velocity=112, time=0),
    Message('note_on', channel=6, note=55, velocity=0, time=959),
    Message('note_on', channel=6, note=64, velocity=0, time=0),
    MetaMessage('end_of_track', time=1)]),
  MidiTrack([
    MetaMessage('track_name', name='F Trumpet\x00', time=0),
    MetaMessage('key_signature', key='C', time=0),
    Message('control_change', channel=8, control=121, value=0, time=0),
    Message('program_change', channel=8, program=56, time=0),
    Message('control_change', channel=8, control=7, value=100, time=0),
    Message('control_change', channel=8, control=10, value=64, time=0),
    Message('control_change', channel=8, control=91, value=0, time=0),
    Message('control_change', channel=8, control=93, value=0, time=0),
    MetaMessage('midi_port', port=0, time=0),
    Message('control_change', channel=10, control=121, value=0, time=0),
    Message('program_change', channel=10, program=59, time=0),
    Message('control_change', channel=10, control=7, value=100, time=0),
    Message('control_change', channel=10, control=10, value=64, time=0),
    Message('control_change', channel=10, control=91, value=0, time=0),
    Message('control_change', channel=10, control=93, value=0, time=0),
    MetaMessage('midi_port', port=0, time=0),
    Message('note_on', channel=8, note=72, velocity=64, time=72000),
    Message('control_change', channel=8, control=2, value=64, time=0),
    Message('control_change', channel=8, control=2, value=65, time=480),
    Message('note_on', channel=8, note=72, velocity=0, time=479),
    Message('control_change', channel=8, control=2, value=66, time=1),
    Message('note_on', channel=8, note=73, velocity=66, time=0),
    Message('note_on', channel=8, note=71, velocity=66, time=0),
    Message('control_change', channel=8, control=2, value=67, time=480),
    Message('note_on', channel=8, note=71, velocity=0, time=479),
    Message('control_change', channel=8, control=2, value=68, time=1),
    Message('note_on', channel=8, note=70, velocity=68, time=0),
    Message('control_change', channel=8, control=2, value=69, time=480),
    Message('note_on', channel=8, note=73, velocity=0, time=479),
    Message('note_on', channel=8, note=70, velocity=0, time=0),
    Message('control_change', channel=8, control=2, value=70, time=1),
    Message('control_change', channel=8, control=2, value=71, time=480),
    Message('control_change', channel=8, control=2, value=72, time=480),
    Message('note_on', channel=8, note=72, velocity=72, time=0),
    Message('control_change', channel=8, control=2, value=73, time=480),
    Message('note_on', channel=8, note=72, velocity=0, time=479),
    Message('control_change', channel=8, control=2, value=74, time=1),
    Message('note_on', channel=8, note=73, velocity=74, time=0),
    Message('note_on', channel=8, note=71, velocity=74, time=0),
    Message('control_change', channel=8, control=2, value=75, time=480),
    Message('note_on', channel=8, note=71, velocity=0, time=479),
    Message('control_change', channel=8, control=2, value=76, time=1),
    Message('note_on', channel=8, note=70, velocity=76, time=0),
    Message('control_change', channel=8, control=2, value=77, time=480),
    Message('note_on', channel=8, note=73, velocity=0, time=479),
    Message('note_on', channel=8, note=70, velocity=0, time=0),
    Message('control_change', channel=8, control=2, value=78, time=1),
    Message('control_change', channel=8, control=2, value=79, time=480),
    Message('control_change', channel=8, control=2, value=80, time=480),
    Message('note_on', channel=8, note=76, velocity=80, time=0),
    Message('note_on', channel=8, note=72, velocity=80, time=0),
    Message('note_on', channel=8, note=76, velocity=0, time=959),
    Message('note_on', channel=8, note=72, velocity=0, time=0),
    Message('note_on', channel=8, note=73, velocity=80, time=1),
    Message('control_change', channel=8, control=2, value=80, time=0),
    Message('note_on', channel=8, note=76, velocity=80, time=0),
    Message('note_on', channel=8, note=73, velocity=0, time=1919),
    Message('note_on', channel=8, note=76, velocity=0, time=0),
    Message('note_on', channel=8, note=74, velocity=80, time=1),
    Message('control_change', channel=8, control=2, value=80, time=0),
    Message('note_on', channel=8, note=77, velocity=80, time=0),
    Message('note_on', channel=8, note=74, velocity=0, time=1919),
    Message('note_on', channel=8, note=77, velocity=0, time=0),
    Message('note_on', channel=8, note=78, velocity=80, time=1),
    Message('control_change', channel=8, control=2, value=80, time=0),
    Message('note_on', channel=8, note=78, velocity=0, time=0),
    Message('note_on', channel=8, note=78, velocity=80, time=0),
    Message('note_on', channel=10, note=78, velocity=0, time=0),
    Message('note_on', channel=8, note=78, velocity=0, time=319),
    Message('note_on', channel=8, note=73, velocity=80, time=1),
    Message('control_change', channel=8, control=2, value=80, time=0),
    Message('note_on', channel=8, note=73, velocity=0, time=0),
    Message('note_on', channel=8, note=73, velocity=80, time=0),
    Message('note_on', channel=10, note=73, velocity=0, time=0),
    Message('note_on', channel=8, note=73, velocity=0, time=319),
    Message('note_on', channel=8, note=78, velocity=80, time=1),
    Message('control_change', channel=8, control=2, value=80, time=0),
    Message('note_on', channel=8, note=78, velocity=0, time=0),
    Message('note_on', channel=8, note=78, velocity=80, time=0),
    Message('note_on', channel=10, note=78, velocity=0, time=0),
    Message('note_on', channel=8, note=78, velocity=0, time=319),
    Message('note_on', channel=8, note=78, velocity=80, time=1),
    Message('control_change', channel=8, control=2, value=80, time=0),
    Message('note_on', channel=8, note=78, velocity=0, time=0),
    Message('note_on', channel=8, note=78, velocity=80, time=0),
    Message('note_on', channel=10, note=78, velocity=0, time=0),
    Message('note_on', channel=8, note=78, velocity=0, time=319),
    Message('note_on', channel=8, note=73, velocity=80, time=1),
    Message('control_change', channel=8, control=2, value=80, time=0),
    Message('note_on', channel=8, note=73, velocity=0, time=0),
    Message('note_on', channel=8, note=73, velocity=80, time=0),
    Message('note_on', channel=10, note=73, velocity=0, time=0),
    Message('note_on', channel=8, note=73, velocity=0, time=319),
    Message('note_on', channel=8, note=78, velocity=80, time=1),
    Message('control_change', channel=8, control=2, value=80, time=0),
    Message('note_on', channel=8, note=78, velocity=0, time=0),
    Message('note_on', channel=8, note=78, velocity=80, time=0),
    Message('note_on', channel=10, note=78, velocity=0, time=0),
    Message('note_on', channel=8, note=78, velocity=0, time=319),
    Message('note_on', channel=8, note=71, velocity=96, time=11521),
    Message('control_change', channel=8, control=2, value=96, time=0),
    Message('note_on', channel=8, note=74, velocity=96, time=0),
    Message('control_change', channel=8, control=2, value=96, time=1920),
    Message('note_on', channel=8, note=71, velocity=0, time=479),
    Message('note_on', channel=8, note=74, velocity=0, time=0),
    Message('note_on', channel=8, note=71, velocity=96, time=2401),
    Message('control_change', channel=8, control=2, value=96, time=0),
    Message('note_on', channel=8, note=74, velocity=96, time=0),
    Message('note_on', channel=8, note=71, velocity=0, time=959),
    Message('note_on', channel=8, note=74, velocity=0, time=0),
    Message('note_on', channel=8, note=71, velocity=96, time=961),
    Message('control_change', channel=8, control=2, value=96, time=0),
    Message('note_on', channel=8, note=74, velocity=96, time=0),
    Message('note_on', channel=8, note=71, velocity=0, time=959),
    Message('note_on', channel=8, note=74, velocity=0, time=0),
    Message('note_on', channel=8, note=71, velocity=96, time=481),
    Message('control_change', channel=8, control=2, value=96, time=0),
    Message('note_on', channel=8, note=74, velocity=96, time=0),
    Message('note_on', channel=8, note=71, velocity=0, time=479),
    Message('note_on', channel=8, note=74, velocity=0, time=0),
    Message('note_on', channel=8, note=71, velocity=96, time=481),
    Message('control_change', channel=8, control=2, value=96, time=0),
    Message('note_on', channel=8, note=74, velocity=96, time=0),
    Message('note_on', channel=8, note=71, velocity=0, time=479),
    Message('note_on', channel=8, note=74, velocity=0, time=0),
    Message('note_on', channel=8, note=71, velocity=96, time=481),
    Message('control_change', channel=8, control=2, value=96, time=0),
    Message('note_on', channel=8, note=74, velocity=96, time=0),
    Message('note_on', channel=8, note=71, velocity=0, time=479),
    Message('note_on', channel=8, note=74, velocity=0, time=0),
    Message('note_on', channel=8, note=71, velocity=96, time=481),
    Message('control_change', channel=8, control=2, value=96, time=0),
    Message('note_on', channel=8, note=74, velocity=96, time=0),
    Message('note_on', channel=8, note=71, velocity=0, time=479),
    Message('note_on', channel=8, note=74, velocity=0, time=0),
    Message('note_on', channel=8, note=71, velocity=96, time=481),
    Message('control_change', channel=8, control=2, value=96, time=0),
    Message('note_on', channel=8, note=74, velocity=96, time=0),
    Message('note_on', channel=8, note=71, velocity=0, time=479),
    Message('note_on', channel=8, note=74, velocity=0, time=0),
    Message('note_on', channel=8, note=71, velocity=96, time=481),
    Message('control_change', channel=8, control=2, value=96, time=0),
    Message('note_on', channel=8, note=74, velocity=96, time=0),
    Message('note_on', channel=8, note=71, velocity=0, time=479),
    Message('note_on', channel=8, note=74, velocity=0, time=0),
    Message('note_on', channel=8, note=71, velocity=96, time=481),
    Message('control_change', channel=8, control=2, value=96, time=0),
    Message('note_on', channel=8, note=74, velocity=96, time=0),
    Message('note_on', channel=8, note=71, velocity=0, time=479),
    Message('note_on', channel=8, note=74, velocity=0, time=0),
    Message('note_on', channel=8, note=71, velocity=96, time=481),
    Message('control_change', channel=8, control=2, value=96, time=0),
    Message('note_on', channel=8, note=74, velocity=96, time=0),
    Message('note_on', channel=8, note=71, velocity=0, time=479),
    Message('note_on', channel=8, note=74, velocity=0, time=0),
    MetaMessage('end_of_track', time=1)]),
  MidiTrack([
    MetaMessage('track_name', name='Tenor Trombone\x00', time=0),
    MetaMessage('key_signature', key='D', time=0),
    Message('control_change', channel=11, control=121, value=0, time=0),
    Message('program_change', channel=11, program=57, time=0),
    Message('control_change', channel=11, control=7, value=100, time=0),
    Message('control_change', channel=11, control=10, value=64, time=0),
    Message('control_change', channel=11, control=91, value=0, time=0),
    Message('control_change', channel=11, control=93, value=0, time=0),
    MetaMessage('midi_port', port=0, time=0),
    Message('control_change', channel=12, control=121, value=0, time=0),
    Message('program_change', channel=12, program=59, time=0),
    Message('control_change', channel=12, control=7, value=100, time=0),
    Message('control_change', channel=12, control=10, value=64, time=0),
    Message('control_change', channel=12, control=91, value=0, time=0),
    Message('control_change', channel=12, control=93, value=0, time=0),
    MetaMessage('midi_port', port=0, time=0),
    Message('note_on', channel=11, note=59, velocity=96, time=34560),
    Message('control_change', channel=11, control=2, value=96, time=0),
    Message('note_on', channel=11, note=62, velocity=96, time=0),
    Message('note_on', channel=11, note=59, velocity=0, time=479),
    Message('note_on', channel=11, note=62, velocity=0, time=0),
    Message('note_on', channel=11, note=59, velocity=96, time=1441),
    Message('control_change', channel=11, control=2, value=96, time=0),
    Message('note_on', channel=11, note=62, velocity=96, time=0),
    Message('note_on', channel=11, note=59, velocity=0, time=479),
    Message('note_on', channel=11, note=62, velocity=0, time=0),
    Message('note_on', channel=11, note=59, velocity=96, time=1441),
    Message('control_change', channel=11, control=2, value=96, time=0),
    Message('note_on', channel=11, note=62, velocity=96, time=0),
    Message('note_on', channel=11, note=59, velocity=0, time=479),
    Message('note_on', channel=11, note=62, velocity=0, time=0),
    Message('note_on', channel=11, note=59, velocity=96, time=1441),
    Message('control_change', channel=11, control=2, value=96, time=0),
    Message('note_on', channel=11, note=62, velocity=96, time=0),
    Message('note_on', channel=11, note=59, velocity=0, time=479),
    Message('note_on', channel=11, note=62, velocity=0, time=0),
    Message('note_on', channel=11, note=59, velocity=96, time=1441),
    Message('control_change', channel=11, control=2, value=96, time=0),
    Message('note_on', channel=11, note=62, velocity=96, time=0),
    Message('note_on', channel=11, note=59, velocity=0, time=479),
    Message('note_on', channel=11, note=62, velocity=0, time=0),
    Message('note_on', channel=11, note=59, velocity=96, time=1441),
    Message('control_change', channel=11, control=2, value=96, time=0),
    Message('note_on', channel=11, note=62, velocity=96, time=0),
    Message('note_on', channel=11, note=59, velocity=0, time=479),
    Message('note_on', channel=11, note=62, velocity=0, time=0),
    Message('note_on', channel=11, note=59, velocity=96, time=1441),
    Message('control_change', channel=11, control=2, value=96, time=0),
    Message('note_on', channel=11, note=62, velocity=96, time=0),
    Message('note_on', channel=11, note=59, velocity=0, time=479),
    Message('note_on', channel=11, note=62, velocity=0, time=0),
    Message('note_on', channel=11, note=64, velocity=96, time=25441),
    Message('control_change', channel=11, control=2, value=96, time=0),
    Message('note_on', channel=11, note=60, velocity=96, time=0),
    Message('note_on', channel=11, note=64, velocity=0, time=959),
    Message('note_on', channel=11, note=60, velocity=0, time=0),
    Message('note_on', channel=11, note=64, velocity=96, time=1),
    Message('control_change', channel=11, control=2, value=96, time=0),
    Message('note_on', channel=11, note=59, velocity=96, time=0),
    Message('note_on', channel=11, note=59, velocity=0, time=959),
    Message('note_on', channel=11, note=58, velocity=96, time=1),
    Message('control_change', channel=11, control=2, value=96, time=0),
    Message('note_on', channel=11, note=64, velocity=0, time=959),
    Message('note_on', channel=11, note=58, velocity=0, time=0),
    Message('note_on', channel=11, note=64, velocity=96, time=961),
    Message('control_change', channel=11, control=2, value=96, time=0),
    Message('note_on', channel=11, note=60, velocity=96, time=0),
    Message('note_on', channel=11, note=64, velocity=0, time=959),
    Message('note_on', channel=11, note=60, velocity=0, time=0),
    Message('note_on', channel=11, note=64, velocity=96, time=1),
    Message('control_change', channel=11, control=2, value=96, time=0),
    Message('note_on', channel=11, note=59, velocity=96, time=0),
    Message('note_on', channel=11, note=59, velocity=0, time=959),
    Message('note_on', channel=11, note=58, velocity=96, time=1),
    Message('control_change', channel=11, control=2, value=96, time=0),
    Message('note_on', channel=11, note=64, velocity=0, time=959),
    Message('note_on', channel=11, note=58, velocity=0, time=0),
    Message('note_on', channel=11, note=64, velocity=96, time=961),
    Message('control_change', channel=11, control=2, value=96, time=0),
    Message('note_on', channel=11, note=60, velocity=96, time=0),
    Message('note_on', channel=11, note=64, velocity=0, time=959),
    Message('note_on', channel=11, note=60, velocity=0, time=0),
    Message('note_on', channel=11, note=61, velocity=96, time=1),
    Message('control_change', channel=11, control=2, value=96, time=0),
    Message('note_on', channel=11, note=64, velocity=96, time=0),
    Message('note_on', channel=11, note=61, velocity=0, time=1919),
    Message('note_on', channel=11, note=64, velocity=0, time=0),
    Message('note_on', channel=11, note=62, velocity=96, time=1),
    Message('control_change', channel=11, control=2, value=96, time=0),
    Message('note_on', channel=11, note=65, velocity=96, time=0),
    Message('note_on', channel=11, note=62, velocity=0, time=1919),
    Message('note_on', channel=11, note=65, velocity=0, time=0),
    Message('note_on', channel=11, note=66, velocity=96, time=1),
    Message('control_change', channel=11, control=2, value=96, time=0),
    Message('note_on', channel=11, note=66, velocity=0, time=0),
    Message('note_on', channel=11, note=66, velocity=96, time=0),
    Message('note_on', channel=12, note=66, velocity=0, time=0),
    Message('note_on', channel=11, note=66, velocity=0, time=319),
    Message('note_on', channel=11, note=61, velocity=96, time=1),
    Message('control_change', channel=11, control=2, value=96, time=0),
    Message('note_on', channel=11, note=61, velocity=0, time=0),
    Message('note_on', channel=11, note=61, velocity=96, time=0),
    Message('note_on', channel=12, note=61, velocity=0, time=0),
    Message('note_on', channel=11, note=61, velocity=0, time=319),
    Message('note_on', channel=11, note=66, velocity=96, time=1),
    Message('control_change', channel=11, control=2, value=96, time=0),
    Message('note_on', channel=11, note=66, velocity=0, time=0),
    Message('note_on', channel=11, note=66, velocity=96, time=0),
    Message('note_on', channel=12, note=66, velocity=0, time=0),
    Message('note_on', channel=11, note=66, velocity=0, time=319),
    Message('note_on', channel=11, note=66, velocity=96, time=1),
    Message('control_change', channel=11, control=2, value=96, time=0),
    Message('note_on', channel=11, note=66, velocity=0, time=0),
    Message('note_on', channel=11, note=66, velocity=96, time=0),
    Message('note_on', channel=12, note=66, velocity=0, time=0),
    Message('note_on', channel=11, note=66, velocity=0, time=319),
    Message('note_on', channel=11, note=61, velocity=96, time=1),
    Message('control_change', channel=11, control=2, value=96, time=0),
    Message('note_on', channel=11, note=61, velocity=0, time=0),
    Message('note_on', channel=11, note=61, velocity=96, time=0),
    Message('note_on', channel=12, note=61, velocity=0, time=0),
    Message('note_on', channel=11, note=61, velocity=0, time=319),
    Message('note_on', channel=11, note=66, velocity=96, time=1),
    Message('control_change', channel=11, control=2, value=96, time=0),
    Message('note_on', channel=11, note=66, velocity=0, time=0),
    Message('note_on', channel=11, note=66, velocity=96, time=0),
    Message('note_on', channel=12, note=66, velocity=0, time=0),
    Message('note_on', channel=11, note=66, velocity=0, time=319),
    Message('note_on', channel=11, note=66, velocity=96, time=1),
    Message('control_change', channel=11, control=2, value=96, time=0),
    Message('note_on', channel=11, note=64, velocity=96, time=0),
    Message('note_on', channel=11, note=66, velocity=0, time=959),
    Message('note_on', channel=11, note=64, velocity=0, time=0),
    Message('note_on', channel=11, note=66, velocity=96, time=1),
    Message('control_change', channel=11, control=2, value=96, time=0),
    Message('note_on', channel=11, note=64, velocity=96, time=0),
    Message('note_on', channel=11, note=66, velocity=0, time=959),
    Message('note_on', channel=11, note=64, velocity=0, time=0),
    Message('note_on', channel=11, note=66, velocity=96, time=1),
    Message('control_change', channel=11, control=2, value=96, time=0),
    Message('note_on', channel=11, note=64, velocity=96, time=0),
    Message('note_on', channel=11, note=66, velocity=0, time=959),
    Message('note_on', channel=11, note=64, velocity=0, time=0),
    Message('note_on', channel=11, note=66, velocity=96, time=1),
    Message('control_change', channel=11, control=2, value=96, time=0),
    Message('note_on', channel=11, note=64, velocity=96, time=0),
    Message('note_on', channel=11, note=66, velocity=0, time=959),
    Message('note_on', channel=11, note=64, velocity=0, time=0),
    Message('note_on', channel=11, note=66, velocity=112, time=3841),
    Message('control_change', channel=11, control=2, value=112, time=0),
    Message('note_on', channel=11, note=66, velocity=0, time=0),
    Message('note_on', channel=11, note=66, velocity=112, time=0),
    Message('note_on', channel=12, note=66, velocity=0, time=0),
    Message('note_on', channel=11, note=66, velocity=0, time=479),
    Message('note_on', channel=11, note=64, velocity=112, time=1),
    Message('control_change', channel=11, control=2, value=112, time=0),
    Message('note_on', channel=11, note=64, velocity=0, time=0),
    Message('note_on', channel=11, note=64, velocity=112, time=0),
    Message('note_on', channel=12, note=64, velocity=0, time=0),
    Message('note_on', channel=11, note=64, velocity=0, time=479),
    Message('note_on', channel=11, note=61, velocity=112, time=1),
    Message('control_change', channel=11, control=2, value=112, time=0),
    Message('note_on', channel=11, note=61, velocity=0, time=0),
    Message('note_on', channel=11, note=61, velocity=112, time=0),
    Message('note_on', channel=12, note=61, velocity=0, time=0),
    Message('note_on', channel=11, note=61, velocity=0, time=479),
    Message('note_on', channel=11, note=58, velocity=112, time=1),
    Message('control_change', channel=11, control=2, value=112, time=0),
    Message('note_on', channel=11, note=58, velocity=0, time=0),
    Message('note_on', channel=11, note=58, velocity=112, time=0),
    Message('note_on', channel=12, note=58, velocity=0, time=0),
    Message('note_on', channel=11, note=58, velocity=0, time=479),
    Message('note_on', channel=11, note=54, velocity=112, time=1),
    Message('control_change', channel=11, control=2, value=112, time=0),
    Message('note_on', channel=11, note=54, velocity=0, time=0),
    Message('note_on', channel=11, note=54, velocity=112, time=0),
    Message('note_on', channel=12, note=54, velocity=0, time=0),
    Message('note_on', channel=11, note=54, velocity=0, time=479),
    Message('note_on', channel=11, note=59, velocity=126, time=1441),
    Message('control_change', channel=11, control=2, value=126, time=0),
    Message('note_on', channel=11, note=62, velocity=126, time=0),
    Message('control_change', channel=11, control=2, value=126, time=1920),
    Message('note_on', channel=11, note=59, velocity=0, time=479),
    Message('note_on', channel=11, note=62, velocity=0, time=0),
    Message('note_on', channel=11, note=59, velocity=126, time=2401),
    Message('control_change', channel=11, control=2, value=126, time=0),
    Message('note_on', channel=11, note=62, velocity=126, time=0),
    Message('note_on', channel=11, note=59, velocity=0, time=959),
    Message('note_on', channel=11, note=62, velocity=0, time=0),
    Message('note_on', channel=11, note=59, velocity=126, time=961),
    Message('control_change', channel=11, control=2, value=126, time=0),
    Message('note_on', channel=11, note=62, velocity=126, time=0),
    Message('note_on', channel=11, note=59, velocity=0, time=959),
    Message('note_on', channel=11, note=62, velocity=0, time=0),
    Message('note_on', channel=11, note=59, velocity=126, time=481),
    Message('control_change', channel=11, control=2, value=126, time=0),
    Message('note_on', channel=11, note=62, velocity=126, time=0),
    Message('note_on', channel=11, note=59, velocity=0, time=479),
    Message('note_on', channel=11, note=62, velocity=0, time=0),
    Message('note_on', channel=11, note=59, velocity=126, time=481),
    Message('control_change', channel=11, control=2, value=126, time=0),
    Message('note_on', channel=11, note=62, velocity=126, time=0),
    Message('note_on', channel=11, note=59, velocity=0, time=479),
    Message('note_on', channel=11, note=62, velocity=0, time=0),
    Message('note_on', channel=11, note=59, velocity=126, time=481),
    Message('control_change', channel=11, control=2, value=126, time=0),
    Message('note_on', channel=11, note=62, velocity=126, time=0),
    Message('note_on', channel=11, note=59, velocity=0, time=479),
    Message('note_on', channel=11, note=62, velocity=0, time=0),
    Message('note_on', channel=11, note=59, velocity=126, time=481),
    Message('control_change', channel=11, control=2, value=126, time=0),
    Message('note_on', channel=11, note=62, velocity=126, time=0),
    Message('note_on', channel=11, note=59, velocity=0, time=479),
    Message('note_on', channel=11, note=62, velocity=0, time=0),
    Message('note_on', channel=11, note=59, velocity=126, time=481),
    Message('control_change', channel=11, control=2, value=126, time=0),
    Message('note_on', channel=11, note=62, velocity=126, time=0),
    Message('note_on', channel=11, note=59, velocity=0, time=479),
    Message('note_on', channel=11, note=62, velocity=0, time=0),
    Message('note_on', channel=11, note=59, velocity=126, time=481),
    Message('control_change', channel=11, control=2, value=126, time=0),
    Message('note_on', channel=11, note=62, velocity=126, time=0),
    Message('note_on', channel=11, note=59, velocity=0, time=479),
    Message('note_on', channel=11, note=62, velocity=0, time=0),
    Message('note_on', channel=11, note=59, velocity=126, time=481),
    Message('control_change', channel=11, control=2, value=126, time=0),
    Message('note_on', channel=11, note=62, velocity=126, time=0),
    Message('note_on', channel=11, note=59, velocity=0, time=479),
    Message('note_on', channel=11, note=62, velocity=0, time=0),
    Message('note_on', channel=11, note=59, velocity=126, time=481),
    Message('control_change', channel=11, control=2, value=126, time=0),
    Message('note_on', channel=11, note=62, velocity=126, time=0),
    Message('note_on', channel=11, note=59, velocity=0, time=479),
    Message('note_on', channel=11, note=62, velocity=0, time=0),
    MetaMessage('end_of_track', time=1)]),
  MidiTrack([
    MetaMessage('track_name', name='Bass Trombone\x00', time=0),
    MetaMessage('key_signature', key='D', time=0),
    Message('control_change', channel=13, control=121, value=0, time=0),
    Message('program_change', channel=13, program=57, time=0),
    Message('control_change', channel=13, control=7, value=100, time=0),
    Message('control_change', channel=13, control=10, value=64, time=0),
    Message('control_change', channel=13, control=91, value=0, time=0),
    Message('control_change', channel=13, control=93, value=0, time=0),
    MetaMessage('midi_port', port=0, time=0),
    Message('control_change', channel=14, control=121, value=0, time=0),
    Message('program_change', channel=14, program=59, time=0),
    Message('control_change', channel=14, control=7, value=100, time=0),
    Message('control_change', channel=14, control=10, value=64, time=0),
    Message('control_change', channel=14, control=91, value=0, time=0),
    Message('control_change', channel=14, control=93, value=0, time=0),
    MetaMessage('midi_port', port=0, time=0),
    Message('note_on', channel=13, note=54, velocity=96, time=34560),
    Message('control_change', channel=13, control=2, value=96, time=0),
    Message('note_on', channel=13, note=54, velocity=0, time=479),
    Message('note_on', channel=13, note=54, velocity=96, time=1441),
    Message('control_change', channel=13, control=2, value=96, time=0),
    Message('note_on', channel=13, note=54, velocity=0, time=479),
    Message('note_on', channel=13, note=54, velocity=96, time=1441),
    Message('control_change', channel=13, control=2, value=96, time=0),
    Message('note_on', channel=13, note=54, velocity=0, time=479),
    Message('note_on', channel=13, note=54, velocity=96, time=1441),
    Message('control_change', channel=13, control=2, value=96, time=0),
    Message('note_on', channel=13, note=54, velocity=0, time=479),
    Message('note_on', channel=13, note=54, velocity=96, time=1441),
    Message('control_change', channel=13, control=2, value=96, time=0),
    Message('note_on', channel=13, note=54, velocity=0, time=479),
    Message('note_on', channel=13, note=54, velocity=96, time=1441),
    Message('control_change', channel=13, control=2, value=96, time=0),
    Message('note_on', channel=13, note=54, velocity=0, time=479),
    Message('note_on', channel=13, note=54, velocity=96, time=1441),
    Message('control_change', channel=13, control=2, value=96, time=0),
    Message('note_on', channel=13, note=54, velocity=0, time=479),
    Message('note_on', channel=13, note=42, velocity=100, time=26721),
    Message('control_change', channel=13, control=2, value=100, time=0),
    Message('note_on', channel=13, note=42, velocity=0, time=319),
    Message('note_on', channel=13, note=49, velocity=100, time=1),
    Message('control_change', channel=13, control=2, value=100, time=0),
    Message('control_change', channel=13, control=2, value=101, time=140),
    Message('note_on', channel=13, note=49, velocity=0, time=179),
    Message('note_on', channel=13, note=49, velocity=101, time=1),
    Message('control_change', channel=13, control=2, value=101, time=0),
    Message('note_on', channel=13, note=49, velocity=0, time=319),
    Message('note_on', channel=13, note=42, velocity=101, time=1),
    Message('control_change', channel=13, control=2, value=101, time=0),
    Message('control_change', channel=13, control=2, value=102, time=40),
    Message('note_on', channel=13, note=42, velocity=0, time=279),
    Message('note_on', channel=13, note=49, velocity=102, time=1),
    Message('control_change', channel=13, control=2, value=102, time=0),
    Message('control_change', channel=13, control=2, value=103, time=260),
    Message('note_on', channel=13, note=49, velocity=0, time=59),
    Message('control_change', channel=13, control=2, value=104, time=481),
    Message('control_change', channel=13, control=2, value=105, time=540),
    Message('control_change', channel=13, control=2, value=106, time=540),
    Message('control_change', channel=13, control=2, value=107, time=540),
    Message('note_on', channel=13, note=42, velocity=107, time=140),
    Message('control_change', channel=13, control=2, value=107, time=0),
    Message('note_on', channel=13, note=42, velocity=0, time=319),
    Message('note_on', channel=13, note=49, velocity=107, time=1),
    Message('control_change', channel=13, control=2, value=107, time=0),
    Message('control_change', channel=13, control=2, value=108, time=80),
    Message('note_on', channel=13, note=49, velocity=0, time=239),
    Message('note_on', channel=13, note=49, velocity=108, time=1),
    Message('control_change', channel=13, control=2, value=108, time=0),
    Message('control_change', channel=13, control=2, value=109, time=300),
    Message('note_on', channel=13, note=49, velocity=0, time=19),
    Message('note_on', channel=13, note=42, velocity=109, time=1),
    Message('control_change', channel=13, control=2, value=109, time=0),
    Message('note_on', channel=13, note=42, velocity=0, time=319),
    Message('note_on', channel=13, note=49, velocity=109, time=1),
    Message('control_change', channel=13, control=2, value=109, time=0),
    Message('control_change', channel=13, control=2, value=110, time=200),
    Message('note_on', channel=13, note=49, velocity=0, time=119),
    Message('control_change', channel=13, control=2, value=111, time=421),
    Message('control_change', channel=13, control=2, value=112, time=540),
    Message('note_on', channel=13, note=48, velocity=112, time=0),
    Message('control_change', channel=13, control=2, value=111, time=60),
    Message('control_change', channel=13, control=2, value=110, time=60),
    Message('control_change', channel=13, control=2, value=109, time=60),
    Message('control_change', channel=13, control=2, value=108, time=60),
    Message('control_change', channel=13, control=2, value=107, time=60),
    Message('control_change', channel=13, control=2, value=106, time=60),
    Message('control_change', channel=13, control=2, value=105, time=60),
    Message('control_change', channel=13, control=2, value=104, time=60),
    Message('control_change', channel=13, control=2, value=103, time=60),
    Message('control_change', channel=13, control=2, value=102, time=60),
    Message('control_change', channel=13, control=2, value=101, time=60),
    Message('control_change', channel=13, control=2, value=100, time=60),
    Message('control_change', channel=13, control=2, value=99, time=60),
    Message('control_change', channel=13, control=2, value=98, time=60),
    Message('control_change', channel=13, control=2, value=97, time=60),
    Message('note_on', channel=13, note=48, velocity=0, time=59),
    Message('control_change', channel=13, control=2, value=96, time=1),
    Message('note_on', channel=13, note=59, velocity=96, time=0),
    Message('note_on', channel=13, note=59, velocity=0, time=319),
    Message('note_on', channel=13, note=52, velocity=96, time=1),
    Message('control_change', channel=13, control=2, value=96, time=0),
    Message('note_on', channel=13, note=52, velocity=0, time=319),
    Message('note_on', channel=13, note=59, velocity=96, time=1),
    Message('control_change', channel=13, control=2, value=96, time=0),
    Message('note_on', channel=13, note=59, velocity=0, time=319),
    Message('note_on', channel=13, note=59, velocity=96, time=1),
    Message('control_change', channel=13, control=2, value=96, time=0),
    Message('note_on', channel=13, note=59, velocity=0, time=319),
    Message('note_on', channel=13, note=52, velocity=96, time=1),
    Message('control_change', channel=13, control=2, value=96, time=0),
    Message('note_on', channel=13, note=52, velocity=0, time=319),
    Message('note_on', channel=13, note=59, velocity=96, time=1),
    Message('control_change', channel=13, control=2, value=96, time=0),
    Message('note_on', channel=13, note=59, velocity=0, time=319),
    Message('note_on', channel=13, note=58, velocity=96, time=1),
    Message('control_change', channel=13, control=2, value=96, time=0),
    Message('note_on', channel=13, note=58, velocity=0, time=1919),
    Message('note_on', channel=13, note=54, velocity=96, time=1),
    Message('control_change', channel=13, control=2, value=96, time=0),
    Message('note_on', channel=13, note=54, velocity=0, time=1919),
    Message('note_on', channel=13, note=54, velocity=96, time=1),
    Message('control_change', channel=13, control=2, value=96, time=0),
    Message('note_on', channel=13, note=54, velocity=0, time=959),
    Message('note_on', channel=13, note=54, velocity=96, time=1),
    Message('control_change', channel=13, control=2, value=96, time=0),
    Message('note_on', channel=13, note=54, velocity=0, time=959),
    Message('note_on', channel=13, note=54, velocity=96, time=1),
    Message('control_change', channel=13, control=2, value=96, time=0),
    Message('note_on', channel=13, note=54, velocity=0, time=959),
    Message('note_on', channel=13, note=54, velocity=96, time=1),
    Message('control_change', channel=13, control=2, value=96, time=0),
    Message('note_on', channel=13, note=54, velocity=0, time=959),
    Message('note_on', channel=13, note=54, velocity=112, time=3841),
    Message('control_change', channel=13, control=2, value=112, time=0),
    Message('note_on', channel=13, note=54, velocity=0, time=479),
    Message('note_on', channel=13, note=52, velocity=112, time=1),
    Message('control_change', channel=13, control=2, value=112, time=0),
    Message('note_on', channel=13, note=52, velocity=0, time=479),
    Message('note_on', channel=13, note=49, velocity=112, time=1),
    Message('control_change', channel=13, control=2, value=112, time=0),
    Message('note_on', channel=13, note=49, velocity=0, time=479),
    Message('note_on', channel=13, note=46, velocity=112, time=1),
    Message('control_change', channel=13, control=2, value=112, time=0),
    Message('note_on', channel=13, note=46, velocity=0, time=479),
    Message('note_on', channel=13, note=42, velocity=112, time=1),
    Message('control_change', channel=13, control=2, value=112, time=0),
    Message('note_on', channel=13, note=42, velocity=0, time=479),
    Message('note_on', channel=13, note=52, velocity=112, time=1),
    Message('control_change', channel=13, control=2, value=112, time=0),
    Message('note_on', channel=13, note=52, velocity=0, time=479),
    Message('note_on', channel=13, note=50, velocity=112, time=1),
    Message('control_change', channel=13, control=2, value=112, time=0),
    Message('note_on', channel=13, note=50, velocity=0, time=479),
    Message('note_on', channel=13, note=49, velocity=112, time=1),
    Message('control_change', channel=13, control=2, value=112, time=0),
    Message('note_on', channel=13, note=49, velocity=0, time=479),
    Message('control_change', channel=13, control=2, value=126, time=1),
    Message('note_on', channel=13, note=47, velocity=126, time=0),
    Message('control_change', channel=13, control=2, value=126, time=1920),
    Message('note_on', channel=13, note=47, velocity=0, time=479),
    Message('note_on', channel=13, note=47, velocity=126, time=2401),
    Message('control_change', channel=13, control=2, value=126, time=0),
    Message('note_on', channel=13, note=47, velocity=0, time=959),
    Message('note_on', channel=13, note=47, velocity=126, time=961),
    Message('control_change', channel=13, control=2, value=126, time=0),
    Message('note_on', channel=13, note=47, velocity=0, time=959),
    Message('note_on', channel=13, note=47, velocity=126, time=481),
    Message('control_change', channel=13, control=2, value=126, time=0),
    Message('note_on', channel=13, note=47, velocity=0, time=479),
    Message('note_on', channel=13, note=47, velocity=126, time=481),
    Message('control_change', channel=13, control=2, value=126, time=0),
    Message('note_on', channel=13, note=47, velocity=0, time=479),
    Message('note_on', channel=13, note=47, velocity=126, time=481),
    Message('control_change', channel=13, control=2, value=126, time=0),
    Message('note_on', channel=13, note=47, velocity=0, time=479),
    Message('note_on', channel=13, note=47, velocity=126, time=481),
    Message('control_change', channel=13, control=2, value=126, time=0),
    Message('note_on', channel=13, note=47, velocity=0, time=479),
    Message('note_on', channel=13, note=47, velocity=126, time=481),
    Message('control_change', channel=13, control=2, value=126, time=0),
    Message('note_on', channel=13, note=47, velocity=0, time=479),
    Message('note_on', channel=13, note=47, velocity=126, time=481),
    Message('control_change', channel=13, control=2, value=126, time=0),
    Message('note_on', channel=13, note=47, velocity=0, time=479),
    Message('note_on', channel=13, note=47, velocity=126, time=481),
    Message('control_change', channel=13, control=2, value=126, time=0),
    Message('note_on', channel=13, note=47, velocity=0, time=479),
    Message('note_on', channel=13, note=47, velocity=126, time=481),
    Message('control_change', channel=13, control=2, value=126, time=0),
    Message('note_on', channel=13, note=47, velocity=0, time=479),
    MetaMessage('end_of_track', time=1)]),
  MidiTrack([
    MetaMessage('track_name', name='Tuba\x00', time=0),
    MetaMessage('key_signature', key='D', time=0),
    Message('control_change', channel=15, control=121, value=0, time=0),
    Message('program_change', channel=15, program=58, time=0),
    Message('control_change', channel=15, control=7, value=100, time=0),
    Message('control_change', channel=15, control=10, value=64, time=0),
    Message('control_change', channel=15, control=91, value=0, time=0),
    Message('control_change', channel=15, control=93, value=0, time=0),
    MetaMessage('midi_port', port=0, time=0),
    Message('note_on', channel=15, note=47, velocity=96, time=34560),
    Message('control_change', channel=15, control=2, value=96, time=0),
    Message('note_on', channel=15, note=47, velocity=0, time=479),
    Message('note_on', channel=15, note=47, velocity=96, time=1441),
    Message('control_change', channel=15, control=2, value=96, time=0),
    Message('note_on', channel=15, note=47, velocity=0, time=479),
    Message('note_on', channel=15, note=47, velocity=96, time=1441),
    Message('control_change', channel=15, control=2, value=96, time=0),
    Message('note_on', channel=15, note=47, velocity=0, time=479),
    Message('note_on', channel=15, note=47, velocity=96, time=1441),
    Message('control_change', channel=15, control=2, value=96, time=0),
    Message('note_on', channel=15, note=47, velocity=0, time=479),
    Message('note_on', channel=15, note=47, velocity=96, time=1441),
    Message('control_change', channel=15, control=2, value=96, time=0),
    Message('note_on', channel=15, note=47, velocity=0, time=479),
    Message('note_on', channel=15, note=47, velocity=96, time=1441),
    Message('control_change', channel=15, control=2, value=96, time=0),
    Message('note_on', channel=15, note=47, velocity=0, time=479),
    Message('note_on', channel=15, note=47, velocity=96, time=1441),
    Message('control_change', channel=15, control=2, value=96, time=0),
    Message('note_on', channel=15, note=47, velocity=0, time=479),
    Message('note_on', channel=15, note=36, velocity=96, time=24481),
    Message('control_change', channel=15, control=2, value=96, time=0),
    Message('control_change', channel=15, control=2, value=97, time=480),
    Message('control_change', channel=15, control=2, value=98, time=480),
    Message('control_change', channel=15, control=2, value=99, time=480),
    Message('note_on', channel=15, note=36, velocity=0, time=479),
    Message('control_change', channel=15, control=2, value=100, time=1),
    Message('note_on', channel=15, note=42, velocity=100, time=0),
    Message('note_on', channel=15, note=42, velocity=0, time=479),
    Message('control_change', channel=15, control=2, value=101, time=1),
    Message('control_change', channel=15, control=2, value=102, time=480),
    Message('control_change', channel=15, control=2, value=103, time=480),
    Message('control_change', channel=15, control=2, value=104, time=480),
    Message('note_on', channel=15, note=36, velocity=104, time=0),
    Message('control_change', channel=15, control=2, value=105, time=480),
    Message('control_change', channel=15, control=2, value=106, time=480),
    Message('control_change', channel=15, control=2, value=107, time=480),
    Message('note_on', channel=15, note=36, velocity=0, time=479),
    Message('control_change', channel=15, control=2, value=108, time=1),
    Message('note_on', channel=15, note=42, velocity=108, time=0),
    Message('note_on', channel=15, note=42, velocity=0, time=479),
    Message('control_change', channel=15, control=2, value=109, time=1),
    Message('control_change', channel=15, control=2, value=110, time=480),
    Message('control_change', channel=15, control=2, value=111, time=480),
    Message('control_change', channel=15, control=2, value=112, time=480),
    Message('note_on', channel=15, note=36, velocity=112, time=0),
    Message('note_on', channel=15, note=36, velocity=0, time=959),
    Message('control_change', channel=15, control=2, value=112, time=1),
    Message('note_on', channel=15, note=48, velocity=112, time=0),
    Message('control_change', channel=15, control=2, value=111, time=60),
    Message('control_change', channel=15, control=2, value=110, time=60),
    Message('control_change', channel=15, control=2, value=109, time=60),
    Message('control_change', channel=15, control=2, value=108, time=60),
    Message('control_change', channel=15, control=2, value=107, time=60),
    Message('control_change', channel=15, control=2, value=106, time=60),
    Message('control_change', channel=15, control=2, value=105, time=60),
    Message('control_change', channel=15, control=2, value=104, time=60),
    Message('control_change', channel=15, control=2, value=103, time=60),
    Message('control_change', channel=15, control=2, value=102, time=60),
    Message('control_change', channel=15, control=2, value=101, time=60),
    Message('control_change', channel=15, control=2, value=100, time=60),
    Message('control_change', channel=15, control=2, value=99, time=60),
    Message('control_change', channel=15, control=2, value=98, time=60),
    Message('control_change', channel=15, control=2, value=97, time=60),
    Message('note_on', channel=15, note=48, velocity=0, time=59),
    Message('control_change', channel=15, control=2, value=96, time=1),
    Message('note_on', channel=15, note=47, velocity=96, time=0),
    Message('note_on', channel=15, note=47, velocity=0, time=319),
    Message('note_on', channel=15, note=40, velocity=96, time=1),
    Message('control_change', channel=15, control=2, value=96, time=0),
    Message('note_on', channel=15, note=40, velocity=0, time=319),
    Message('note_on', channel=15, note=47, velocity=96, time=1),
    Message('control_change', channel=15, control=2, value=96, time=0),
    Message('note_on', channel=15, note=47, velocity=0, time=319),
    Message('note_on', channel=15, note=47, velocity=96, time=1),
    Message('control_change', channel=15, control=2, value=96, time=0),
    Message('note_on', channel=15, note=47, velocity=0, time=319),
    Message('note_on', channel=15, note=40, velocity=96, time=1),
    Message('control_change', channel=15, control=2, value=96, time=0),
    Message('note_on', channel=15, note=40, velocity=0, time=319),
    Message('note_on', channel=15, note=47, velocity=96, time=1),
    Message('control_change', channel=15, control=2, value=96, time=0),
    Message('note_on', channel=15, note=47, velocity=0, time=319),
    Message('note_on', channel=15, note=46, velocity=96, time=1),
    Message('control_change', channel=15, control=2, value=96, time=0),
    Message('note_on', channel=15, note=46, velocity=0, time=1919),
    Message('note_on', channel=15, note=42, velocity=96, time=1),
    Message('control_change', channel=15, control=2, value=96, time=0),
    Message('note_on', channel=15, note=42, velocity=0, time=1919),
    Message('note_on', channel=15, note=42, velocity=96, time=1),
    Message('control_change', channel=15, control=2, value=96, time=0),
    Message('note_on', channel=15, note=42, velocity=0, time=959),
    Message('note_on', channel=15, note=42, velocity=96, time=1),
    Message('control_change', channel=15, control=2, value=96, time=0),
    Message('note_on', channel=15, note=42, velocity=0, time=959),
    Message('note_on', channel=15, note=42, velocity=96, time=1),
    Message('control_change', channel=15, control=2, value=96, time=0),
    Message('note_on', channel=15, note=42, velocity=0, time=959),
    Message('note_on', channel=15, note=42, velocity=96, time=1),
    Message('control_change', channel=15, control=2, value=96, time=0),
    Message('note_on', channel=15, note=42, velocity=0, time=959),
    Message('note_on', channel=15, note=54, velocity=112, time=3841),
    Message('control_change', channel=15, control=2, value=112, time=0),
    Message('note_on', channel=15, note=54, velocity=0, time=479),
    Message('note_on', channel=15, note=52, velocity=112, time=1),
    Message('control_change', channel=15, control=2, value=112, time=0),
    Message('note_on', channel=15, note=52, velocity=0, time=479),
    Message('note_on', channel=15, note=49, velocity=112, time=1),
    Message('control_change', channel=15, control=2, value=112, time=0),
    Message('note_on', channel=15, note=49, velocity=0, time=479),
    Message('note_on', channel=15, note=46, velocity=112, time=1),
    Message('control_change', channel=15, control=2, value=112, time=0),
    Message('note_on', channel=15, note=46, velocity=0, time=479),
    Message('note_on', channel=15, note=42, velocity=112, time=1),
    Message('control_change', channel=15, control=2, value=112, time=0),
    Message('note_on', channel=15, note=42, velocity=0, time=479),
    Message('note_on', channel=15, note=40, velocity=112, time=1),
    Message('control_change', channel=15, control=2, value=112, time=0),
    Message('note_on', channel=15, note=40, velocity=0, time=479),
    Message('note_on', channel=15, note=38, velocity=112, time=1),
    Message('control_change', channel=15, control=2, value=112, time=0),
    Message('note_on', channel=15, note=38, velocity=0, time=479),
    Message('note_on', channel=15, note=37, velocity=112, time=1),
    Message('control_change', channel=15, control=2, value=112, time=0),
    Message('note_on', channel=15, note=37, velocity=0, time=479),
    Message('control_change', channel=15, control=2, value=126, time=1),
    Message('note_on', channel=15, note=35, velocity=126, time=0),
    Message('control_change', channel=15, control=2, value=126, time=1920),
    Message('note_on', channel=15, note=35, velocity=0, time=479),
    Message('note_on', channel=15, note=35, velocity=126, time=2401),
    Message('control_change', channel=15, control=2, value=126, time=0),
    Message('note_on', channel=15, note=35, velocity=0, time=959),
    Message('note_on', channel=15, note=35, velocity=126, time=961),
    Message('control_change', channel=15, control=2, value=126, time=0),
    Message('note_on', channel=15, note=35, velocity=0, time=959),
    Message('note_on', channel=15, note=35, velocity=126, time=481),
    Message('control_change', channel=15, control=2, value=126, time=0),
    Message('note_on', channel=15, note=35, velocity=0, time=479),
    Message('note_on', channel=15, note=35, velocity=126, time=481),
    Message('control_change', channel=15, control=2, value=126, time=0),
    Message('note_on', channel=15, note=35, velocity=0, time=479),
    Message('note_on', channel=15, note=35, velocity=126, time=481),
    Message('control_change', channel=15, control=2, value=126, time=0),
    Message('note_on', channel=15, note=35, velocity=0, time=479),
    Message('note_on', channel=15, note=35, velocity=126, time=481),
    Message('control_change', channel=15, control=2, value=126, time=0),
    Message('note_on', channel=15, note=35, velocity=0, time=479),
    Message('note_on', channel=15, note=35, velocity=126, time=481),
    Message('control_change', channel=15, control=2, value=126, time=0),
    Message('note_on', channel=15, note=35, velocity=0, time=479),
    Message('note_on', channel=15, note=35, velocity=126, time=481),
    Message('control_change', channel=15, control=2, value=126, time=0),
    Message('note_on', channel=15, note=35, velocity=0, time=479),
    Message('note_on', channel=15, note=35, velocity=126, time=481),
    Message('control_change', channel=15, control=2, value=126, time=0),
    Message('note_on', channel=15, note=35, velocity=0, time=479),
    Message('note_on', channel=15, note=35, velocity=126, time=481),
    Message('control_change', channel=15, control=2, value=126, time=0),
    Message('note_on', channel=15, note=35, velocity=0, time=479),
    MetaMessage('end_of_track', time=1)]),
  MidiTrack([
    MetaMessage('track_name', name='Timpani\x00', time=0),
    MetaMessage('key_signature', key='C', time=0),
    Message('control_change', channel=0, control=121, value=0, time=0),
    Message('program_change', channel=0, program=47, time=0),
    Message('control_change', channel=0, control=7, value=100, time=0),
    Message('control_change', channel=0, control=10, value=64, time=0),
    Message('control_change', channel=0, control=91, value=0, time=0),
    Message('control_change', channel=0, control=93, value=0, time=0),
    MetaMessage('midi_port', port=1, time=0),
    Message('note_on', channel=0, note=47, velocity=96, time=34560),
    Message('note_on', channel=0, note=47, velocity=0, time=58),
    Message('note_on', channel=0, note=47, velocity=96, time=1),
    Message('note_on', channel=0, note=47, velocity=0, time=58),
    Message('note_on', channel=0, note=47, velocity=96, time=2),
    Message('note_on', channel=0, note=47, velocity=0, time=58),
    Message('note_on', channel=0, note=47, velocity=96, time=1),
    Message('note_on', channel=0, note=47, velocity=0, time=58),
    Message('note_on', channel=0, note=47, velocity=96, time=2),
    Message('note_on', channel=0, note=47, velocity=0, time=58),
    Message('note_on', channel=0, note=47, velocity=96, time=1),
    Message('note_on', channel=0, note=47, velocity=0, time=58),
    Message('note_on', channel=0, note=47, velocity=96, time=2),
    Message('note_on', channel=0, note=47, velocity=0, time=58),
    Message('note_on', channel=0, note=47, velocity=96, time=1),
    Message('note_on', channel=0, note=47, velocity=0, time=58),
    Message('note_on', channel=0, note=47, velocity=96, time=2),
    Message('note_on', channel=0, note=47, velocity=0, time=58),
    Message('note_on', channel=0, note=47, velocity=96, time=1),
    Message('note_on', channel=0, note=47, velocity=0, time=58),
    Message('note_on', channel=0, note=47, velocity=96, time=2),
    Message('note_on', channel=0, note=47, velocity=0, time=58),
    Message('note_on', channel=0, note=47, velocity=96, time=1),
    Message('note_on', channel=0, note=47, velocity=0, time=58),
    Message('note_on', channel=0, note=47, velocity=96, time=2),
    Message('note_on', channel=0, note=47, velocity=0, time=58),
    Message('note_on', channel=0, note=47, velocity=96, time=1),
    Message('note_on', channel=0, note=47, velocity=0, time=58),
    Message('note_on', channel=0, note=47, velocity=96, time=2),
    Message('note_on', channel=0, note=47, velocity=0, time=58),
    Message('note_on', channel=0, note=47, velocity=96, time=1),
    Message('note_on', channel=0, note=47, velocity=0, time=58),
    Message('note_on', channel=0, note=47, velocity=96, time=2),
    Message('note_on', channel=0, note=47, velocity=0, time=58),
    Message('note_on', channel=0, note=47, velocity=96, time=1),
    Message('note_on', channel=0, note=47, velocity=0, time=58),
    Message('note_on', channel=0, note=47, velocity=96, time=2),
    Message('note_on', channel=0, note=47, velocity=0, time=58),
    Message('note_on', channel=0, note=47, velocity=96, time=1),
    Message('note_on', channel=0, note=47, velocity=0, time=58),
    Message('note_on', channel=0, note=47, velocity=96, time=2),
    Message('note_on', channel=0, note=47, velocity=0, time=58),
    Message('note_on', channel=0, note=47, velocity=96, time=1),
    Message('note_on', channel=0, note=47, velocity=0, time=58),
    Message('note_on', channel=0, note=47, velocity=96, time=2),
    Message('note_on', channel=0, note=47, velocity=0, time=58),
    Message('note_on', channel=0, note=47, velocity=96, time=1),
    Message('note_on', channel=0, note=47, velocity=0, time=58),
    Message('note_on', channel=0, note=47, velocity=96, time=2),
    Message('note_on', channel=0, note=47, velocity=0, time=58),
    Message('note_on', channel=0, note=47, velocity=96, time=2),
    Message('note_on', channel=0, note=47, velocity=0, time=58),
    Message('note_on', channel=0, note=47, velocity=96, time=1),
    Message('note_on', channel=0, note=47, velocity=0, time=58),
    Message('note_on', channel=0, note=47, velocity=96, time=2),
    Message('note_on', channel=0, note=47, velocity=0, time=58),
    Message('note_on', channel=0, note=47, velocity=96, time=1),
    Message('note_on', channel=0, note=47, velocity=0, time=58),
    Message('note_on', channel=0, note=47, velocity=96, time=2),
    Message('note_on', channel=0, note=47, velocity=0, time=58),
    Message('note_on', channel=0, note=47, velocity=96, time=1),
    Message('note_on', channel=0, note=47, velocity=0, time=58),
    Message('note_on', channel=0, note=47, velocity=96, time=2),
    Message('note_on', channel=0, note=47, velocity=0, time=58),
    Message('note_on', channel=0, note=47, velocity=96, time=17),
    Message('note_on', channel=0, note=47, velocity=0, time=58),
    Message('note_on', channel=0, note=47, velocity=96, time=1),
    Message('note_on', channel=0, note=47, velocity=0, time=58),
    Message('note_on', channel=0, note=47, velocity=96, time=2),
    Message('note_on', channel=0, note=47, velocity=0, time=58),
    Message('note_on', channel=0, note=47, velocity=96, time=1),
    Message('note_on', channel=0, note=47, velocity=0, time=58),
    Message('note_on', channel=0, note=47, velocity=96, time=2),
    Message('note_on', channel=0, note=47, velocity=0, time=58),
    Message('note_on', channel=0, note=47, velocity=96, time=1),
    Message('note_on', channel=0, note=47, velocity=0, time=58),
    Message('note_on', channel=0, note=47, velocity=96, time=2),
    Message('note_on', channel=0, note=47, velocity=0, time=58),
    Message('note_on', channel=0, note=47, velocity=96, time=1),
    Message('note_on', channel=0, note=47, velocity=0, time=58),
    Message('note_on', channel=0, note=47, velocity=96, time=2),
    Message('note_on', channel=0, note=47, velocity=0, time=58),
    Message('note_on', channel=0, note=47, velocity=96, time=1),
    Message('note_on', channel=0, note=47, velocity=0, time=58),
    Message('note_on', channel=0, note=47, velocity=96, time=2),
    Message('note_on', channel=0, note=47, velocity=0, time=58),
    Message('note_on', channel=0, note=47, velocity=96, time=1),
    Message('note_on', channel=0, note=47, velocity=0, time=58),
    Message('note_on', channel=0, note=47, velocity=96, time=2),
    Message('note_on', channel=0, note=47, velocity=0, time=58),
    Message('note_on', channel=0, note=47, velocity=96, time=1),
    Message('note_on', channel=0, note=47, velocity=0, time=58),
    Message('note_on', channel=0, note=47, velocity=96, time=2),
    Message('note_on', channel=0, note=47, velocity=0, time=58),
    Message('note_on', channel=0, note=47, velocity=96, time=1),
    Message('note_on', channel=0, note=47, velocity=0, time=58),
    Message('note_on', channel=0, note=47, velocity=96, time=2),
    Message('note_on', channel=0, note=47, velocity=0, time=58),
    Message('note_on', channel=0, note=47, velocity=96, time=1),
    Message('note_on', channel=0, note=47, velocity=0, time=58),
    Message('note_on', channel=0, note=47, velocity=96, time=2),
    Message('note_on', channel=0, note=47, velocity=0, time=58),
    Message('note_on', channel=0, note=47, velocity=96, time=1),
    Message('note_on', channel=0, note=47, velocity=0, time=58),
    Message('note_on', channel=0, note=47, velocity=96, time=2),
    Message('note_on', channel=0, note=47, velocity=0, time=58),
    Message('note_on', channel=0, note=47, velocity=96, time=1),
    Message('note_on', channel=0, note=47, velocity=0, time=58),
    Message('note_on', channel=0, note=47, velocity=96, time=2),
    Message('note_on', channel=0, note=47, velocity=0, time=58),
    Message('note_on', channel=0, note=47, velocity=96, time=1),
    Message('note_on', channel=0, note=47, velocity=0, time=58),
    Message('note_on', channel=0, note=47, velocity=96, time=2),
    Message('note_on', channel=0, note=47, velocity=0, time=58),
    Message('note_on', channel=0, note=47, velocity=96, time=2),
    Message('note_on', channel=0, note=47, velocity=0, time=58),
    Message('note_on', channel=0, note=47, velocity=96, time=1),
    Message('note_on', channel=0, note=47, velocity=0, time=58),
    Message('note_on', channel=0, note=47, velocity=96, time=2),
    Message('note_on', channel=0, note=47, velocity=0, time=58),
    Message('note_on', channel=0, note=47, velocity=96, time=1),
    Message('note_on', channel=0, note=47, velocity=0, time=58),
    Message('note_on', channel=0, note=47, velocity=96, time=2),
    Message('note_on', channel=0, note=47, velocity=0, time=58),
    Message('note_on', channel=0, note=47, velocity=96, time=1),
    Message('note_on', channel=0, note=47, velocity=0, time=58),
    Message('note_on', channel=0, note=47, velocity=96, time=2),
    Message('note_on', channel=0, note=47, velocity=0, time=58),
    Message('note_on', channel=0, note=47, velocity=96, time=17),
    Message('note_on', channel=0, note=47, velocity=0, time=58),
    Message('note_on', channel=0, note=47, velocity=96, time=1),
    Message('note_on', channel=0, note=47, velocity=0, time=58),
    Message('note_on', channel=0, note=47, velocity=96, time=2),
    Message('note_on', channel=0, note=47, velocity=0, time=58),
    Message('note_on', channel=0, note=47, velocity=96, time=1),
    Message('note_on', channel=0, note=47, velocity=0, time=58),
    Message('note_on', channel=0, note=47, velocity=96, time=2),
    Message('note_on', channel=0, note=47, velocity=0, time=58),
    Message('note_on', channel=0, note=47, velocity=96, time=1),
    Message('note_on', channel=0, note=47, velocity=0, time=58),
    Message('note_on', channel=0, note=47, velocity=96, time=2),
    Message('note_on', channel=0, note=47, velocity=0, time=58),
    Message('note_on', channel=0, note=47, velocity=96, time=1),
    Message('note_on', channel=0, note=47, velocity=0, time=58),
    Message('note_on', channel=0, note=47, velocity=96, time=2),
    Message('note_on', channel=0, note=47, velocity=0, time=58),
    Message('note_on', channel=0, note=47, velocity=96, time=1),
    Message('note_on', channel=0, note=47, velocity=0, time=58),
    Message('note_on', channel=0, note=47, velocity=96, time=2),
    Message('note_on', channel=0, note=47, velocity=0, time=58),
    Message('note_on', channel=0, note=47, velocity=96, time=1),
    Message('note_on', channel=0, note=47, velocity=0, time=58),
    Message('note_on', channel=0, note=47, velocity=96, time=2),
    Message('note_on', channel=0, note=47, velocity=0, time=58),
    Message('note_on', channel=0, note=47, velocity=96, time=1),
    Message('note_on', channel=0, note=47, velocity=0, time=58),
    Message('note_on', channel=0, note=47, velocity=96, time=2),
    Message('note_on', channel=0, note=47, velocity=0, time=58),
    Message('note_on', channel=0, note=47, velocity=96, time=1),
    Message('note_on', channel=0, note=47, velocity=0, time=58),
    Message('note_on', channel=0, note=47, velocity=96, time=2),
    Message('note_on', channel=0, note=47, velocity=0, time=58),
    Message('note_on', channel=0, note=47, velocity=96, time=1),
    Message('note_on', channel=0, note=47, velocity=0, time=58),
    Message('note_on', channel=0, note=47, velocity=96, time=2),
    Message('note_on', channel=0, note=47, velocity=0, time=58),
    Message('note_on', channel=0, note=47, velocity=96, time=1),
    Message('note_on', channel=0, note=47, velocity=0, time=58),
    Message('note_on', channel=0, note=47, velocity=96, time=2),
    Message('note_on', channel=0, note=47, velocity=0, time=58),
    Message('note_on', channel=0, note=47, velocity=96, time=1),
    Message('note_on', channel=0, note=47, velocity=0, time=58),
    Message('note_on', channel=0, note=47, velocity=96, time=2),
    Message('note_on', channel=0, note=47, velocity=0, time=58),
    Message('note_on', channel=0, note=47, velocity=96, time=1),
    Message('note_on', channel=0, note=47, velocity=0, time=58),
    Message('note_on', channel=0, note=47, velocity=96, time=2),
    Message('note_on', channel=0, note=47, velocity=0, time=58),
    Message('note_on', channel=0, note=47, velocity=96, time=2),
    Message('note_on', channel=0, note=47, velocity=0, time=58),
    Message('note_on', channel=0, note=47, velocity=96, time=1),
    Message('note_on', channel=0, note=47, velocity=0, time=58),
    Message('note_on', channel=0, note=47, velocity=96, time=2),
    Message('note_on', channel=0, note=47, velocity=0, time=58),
    Message('note_on', channel=0, note=47, velocity=96, time=1),
    Message('note_on', channel=0, note=47, velocity=0, time=58),
    Message('note_on', channel=0, note=47, velocity=96, time=2),
    Message('note_on', channel=0, note=47, velocity=0, time=58),
    Message('note_on', channel=0, note=47, velocity=96, time=1),
    Message('note_on', channel=0, note=47, velocity=0, time=58),
    Message('note_on', channel=0, note=47, velocity=96, time=2),
    Message('note_on', channel=0, note=47, velocity=0, time=58),
    Message('note_on', channel=0, note=47, velocity=96, time=17),
    Message('note_on', channel=0, note=47, velocity=0, time=58),
    Message('note_on', channel=0, note=47, velocity=96, time=1),
    Message('note_on', channel=0, note=47, velocity=0, time=58),
    Message('note_on', channel=0, note=47, velocity=96, time=2),
    Message('note_on', channel=0, note=47, velocity=0, time=58),
    Message('note_on', channel=0, note=47, velocity=96, time=1),
    Message('note_on', channel=0, note=47, velocity=0, time=58),
    Message('note_on', channel=0, note=47, velocity=96, time=2),
    Message('note_on', channel=0, note=47, velocity=0, time=58),
    Message('note_on', channel=0, note=47, velocity=96, time=1),
    Message('note_on', channel=0, note=47, velocity=0, time=58),
    Message('note_on', channel=0, note=47, velocity=96, time=2),
    Message('note_on', channel=0, note=47, velocity=0, time=58),
    Message('note_on', channel=0, note=47, velocity=96, time=1),
    Message('note_on', channel=0, note=47, velocity=0, time=58),
    Message('note_on', channel=0, note=47, velocity=96, time=2),
    Message('note_on', channel=0, note=47, velocity=0, time=58),
    Message('note_on', channel=0, note=47, velocity=96, time=1),
    Message('note_on', channel=0, note=47, velocity=0, time=58),
    Message('note_on', channel=0, note=47, velocity=96, time=2),
    Message('note_on', channel=0, note=47, velocity=0, time=58),
    Message('note_on', channel=0, note=47, velocity=96, time=1),
    Message('note_on', channel=0, note=47, velocity=0, time=58),
    Message('note_on', channel=0, note=47, velocity=96, time=2),
    Message('note_on', channel=0, note=47, velocity=0, time=58),
    Message('note_on', channel=0, note=47, velocity=96, time=1),
    Message('note_on', channel=0, note=47, velocity=0, time=58),
    Message('note_on', channel=0, note=47, velocity=96, time=2),
    Message('note_on', channel=0, note=47, velocity=0, time=58),
    Message('note_on', channel=0, note=47, velocity=96, time=1),
    Message('note_on', channel=0, note=47, velocity=0, time=58),
    Message('note_on', channel=0, note=47, velocity=96, time=2),
    Message('note_on', channel=0, note=47, velocity=0, time=58),
    Message('note_on', channel=0, note=47, velocity=96, time=1),
    Message('note_on', channel=0, note=47, velocity=0, time=58),
    Message('note_on', channel=0, note=47, velocity=96, time=2),
    Message('note_on', channel=0, note=47, velocity=0, time=58),
    Message('note_on', channel=0, note=47, velocity=96, time=1),
    Message('note_on', channel=0, note=47, velocity=0, time=58),
    Message('note_on', channel=0, note=47, velocity=96, time=2),
    Message('note_on', channel=0, note=47, velocity=0, time=58),
    Message('note_on', channel=0, note=47, velocity=96, time=1),
    Message('note_on', channel=0, note=47, velocity=0, time=58),
    Message('note_on', channel=0, note=47, velocity=96, time=2),
    Message('note_on', channel=0, note=47, velocity=0, time=58),
    Message('note_on', channel=0, note=47, velocity=96, time=1),
    Message('note_on', channel=0, note=47, velocity=0, time=58),
    Message('note_on', channel=0, note=47, velocity=96, time=2),
    Message('note_on', channel=0, note=47, velocity=0, time=58),
    Message('note_on', channel=0, note=47, velocity=96, time=2),
    Message('note_on', channel=0, note=47, velocity=0, time=58),
    Message('note_on', channel=0, note=47, velocity=96, time=1),
    Message('note_on', channel=0, note=47, velocity=0, time=58),
    Message('note_on', channel=0, note=47, velocity=96, time=2),
    Message('note_on', channel=0, note=47, velocity=0, time=58),
    Message('note_on', channel=0, note=47, velocity=96, time=1),
    Message('note_on', channel=0, note=47, velocity=0, time=58),
    Message('note_on', channel=0, note=47, velocity=96, time=2),
    Message('note_on', channel=0, note=47, velocity=0, time=58),
    Message('note_on', channel=0, note=47, velocity=96, time=1),
    Message('note_on', channel=0, note=47, velocity=0, time=58),
    Message('note_on', channel=0, note=47, velocity=96, time=2),
    Message('note_on', channel=0, note=47, velocity=0, time=58),
    Message('note_on', channel=0, note=47, velocity=96, time=17),
    Message('note_on', channel=0, note=47, velocity=0, time=58),
    Message('note_on', channel=0, note=47, velocity=96, time=1),
    Message('note_on', channel=0, note=47, velocity=0, time=58),
    Message('note_on', channel=0, note=47, velocity=96, time=2),
    Message('note_on', channel=0, note=47, velocity=0, time=58),
    Message('note_on', channel=0, note=47, velocity=96, time=1),
    Message('note_on', channel=0, note=47, velocity=0, time=58),
    Message('note_on', channel=0, note=47, velocity=96, time=2),
    Message('note_on', channel=0, note=47, velocity=0, time=58),
    Message('note_on', channel=0, note=47, velocity=96, time=1),
    Message('note_on', channel=0, note=47, velocity=0, time=58),
    Message('note_on', channel=0, note=47, velocity=96, time=2),
    Message('note_on', channel=0, note=47, velocity=0, time=58),
    Message('note_on', channel=0, note=47, velocity=96, time=1),
    Message('note_on', channel=0, note=47, velocity=0, time=58),
    Message('note_on', channel=0, note=47, velocity=96, time=2),
    Message('note_on', channel=0, note=47, velocity=0, time=58),
    Message('note_on', channel=0, note=47, velocity=96, time=1),
    Message('note_on', channel=0, note=47, velocity=0, time=58),
    Message('note_on', channel=0, note=47, velocity=96, time=2),
    Message('note_on', channel=0, note=47, velocity=0, time=58),
    Message('note_on', channel=0, note=47, velocity=96, time=1),
    Message('note_on', channel=0, note=47, velocity=0, time=58),
    Message('note_on', channel=0, note=47, velocity=96, time=2),
    Message('note_on', channel=0, note=47, velocity=0, time=58),
    Message('note_on', channel=0, note=47, velocity=96, time=1),
    Message('note_on', channel=0, note=47, velocity=0, time=58),
    Message('note_on', channel=0, note=47, velocity=96, time=2),
    Message('note_on', channel=0, note=47, velocity=0, time=58),
    Message('note_on', channel=0, note=47, velocity=96, time=1),
    Message('note_on', channel=0, note=47, velocity=0, time=58),
    Message('note_on', channel=0, note=47, velocity=96, time=2),
    Message('note_on', channel=0, note=47, velocity=0, time=58),
    Message('note_on', channel=0, note=47, velocity=96, time=1),
    Message('note_on', channel=0, note=47, velocity=0, time=58),
    Message('note_on', channel=0, note=47, velocity=96, time=2),
    Message('note_on', channel=0, note=47, velocity=0, time=58),
    Message('note_on', channel=0, note=47, velocity=96, time=1),
    Message('note_on', channel=0, note=47, velocity=0, time=58),
    Message('note_on', channel=0, note=47, velocity=96, time=2),
    Message('note_on', channel=0, note=47, velocity=0, time=58),
    Message('note_on', channel=0, note=47, velocity=96, time=1),
    Message('note_on', channel=0, note=47, velocity=0, time=58),
    Message('note_on', channel=0, note=47, velocity=96, time=2),
    Message('note_on', channel=0, note=47, velocity=0, time=58),
    Message('note_on', channel=0, note=47, velocity=96, time=1),
    Message('note_on', channel=0, note=47, velocity=0, time=58),
    Message('note_on', channel=0, note=47, velocity=96, time=2),
    Message('note_on', channel=0, note=47, velocity=0, time=58),
    Message('note_on', channel=0, note=47, velocity=96, time=2),
    Message('note_on', channel=0, note=47, velocity=0, time=58),
    Message('note_on', channel=0, note=47, velocity=96, time=1),
    Message('note_on', channel=0, note=47, velocity=0, time=58),
    Message('note_on', channel=0, note=47, velocity=96, time=2),
    Message('note_on', channel=0, note=47, velocity=0, time=58),
    Message('note_on', channel=0, note=47, velocity=96, time=1),
    Message('note_on', channel=0, note=47, velocity=0, time=58),
    Message('note_on', channel=0, note=47, velocity=96, time=2),
    Message('note_on', channel=0, note=47, velocity=0, time=58),
    Message('note_on', channel=0, note=47, velocity=96, time=1),
    Message('note_on', channel=0, note=47, velocity=0, time=58),
    Message('note_on', channel=0, note=47, velocity=96, time=2),
    Message('note_on', channel=0, note=47, velocity=0, time=58),
    Message('note_on', channel=0, note=47, velocity=96, time=17),
    Message('note_on', channel=0, note=47, velocity=0, time=58),
    Message('note_on', channel=0, note=47, velocity=96, time=1),
    Message('note_on', channel=0, note=47, velocity=0, time=58),
    Message('note_on', channel=0, note=47, velocity=96, time=2),
    Message('note_on', channel=0, note=47, velocity=0, time=58),
    Message('note_on', channel=0, note=47, velocity=96, time=1),
    Message('note_on', channel=0, note=47, velocity=0, time=58),
    Message('note_on', channel=0, note=47, velocity=96, time=2),
    Message('note_on', channel=0, note=47, velocity=0, time=58),
    Message('note_on', channel=0, note=47, velocity=96, time=1),
    Message('note_on', channel=0, note=47, velocity=0, time=58),
    Message('note_on', channel=0, note=47, velocity=96, time=2),
    Message('note_on', channel=0, note=47, velocity=0, time=58),
    Message('note_on', channel=0, note=47, velocity=96, time=1),
    Message('note_on', channel=0, note=47, velocity=0, time=58),
    Message('note_on', channel=0, note=47, velocity=96, time=2),
    Message('note_on', channel=0, note=47, velocity=0, time=58),
    Message('note_on', channel=0, note=47, velocity=96, time=1),
    Message('note_on', channel=0, note=47, velocity=0, time=58),
    Message('note_on', channel=0, note=47, velocity=96, time=2),
    Message('note_on', channel=0, note=47, velocity=0, time=58),
    Message('note_on', channel=0, note=47, velocity=96, time=1),
    Message('note_on', channel=0, note=47, velocity=0, time=58),
    Message('note_on', channel=0, note=47, velocity=96, time=2),
    Message('note_on', channel=0, note=47, velocity=0, time=58),
    Message('note_on', channel=0, note=47, velocity=96, time=1),
    Message('note_on', channel=0, note=47, velocity=0, time=58),
    Message('note_on', channel=0, note=47, velocity=96, time=2),
    Message('note_on', channel=0, note=47, velocity=0, time=58),
    Message('note_on', channel=0, note=47, velocity=96, time=1),
    Message('note_on', channel=0, note=47, velocity=0, time=58),
    Message('note_on', channel=0, note=47, velocity=96, time=2),
    Message('note_on', channel=0, note=47, velocity=0, time=58),
    Message('note_on', channel=0, note=47, velocity=96, time=1),
    Message('note_on', channel=0, note=47, velocity=0, time=58),
    Message('note_on', channel=0, note=47, velocity=96, time=2),
    Message('note_on', channel=0, note=47, velocity=0, time=58),
    Message('note_on', channel=0, note=47, velocity=96, time=1),
    Message('note_on', channel=0, note=47, velocity=0, time=58),
    Message('note_on', channel=0, note=47, velocity=96, time=2),
    Message('note_on', channel=0, note=47, velocity=0, time=58),
    Message('note_on', channel=0, note=47, velocity=96, time=1),
    Message('note_on', channel=0, note=47, velocity=0, time=58),
    Message('note_on', channel=0, note=47, velocity=96, time=2),
    Message('note_on', channel=0, note=47, velocity=0, time=58),
    Message('note_on', channel=0, note=47, velocity=96, time=1),
    Message('note_on', channel=0, note=47, velocity=0, time=58),
    Message('note_on', channel=0, note=47, velocity=96, time=2),
    Message('note_on', channel=0, note=47, velocity=0, time=58),
    Message('note_on', channel=0, note=47, velocity=96, time=2),
    Message('note_on', channel=0, note=47, velocity=0, time=58),
    Message('note_on', channel=0, note=47, velocity=96, time=1),
    Message('note_on', channel=0, note=47, velocity=0, time=58),
    Message('note_on', channel=0, note=47, velocity=96, time=2),
    Message('note_on', channel=0, note=47, velocity=0, time=58),
    Message('note_on', channel=0, note=47, velocity=96, time=1),
    Message('note_on', channel=0, note=47, velocity=0, time=58),
    Message('note_on', channel=0, note=47, velocity=96, time=2),
    Message('note_on', channel=0, note=47, velocity=0, time=58),
    Message('note_on', channel=0, note=47, velocity=96, time=1),
    Message('note_on', channel=0, note=47, velocity=0, time=58),
    Message('note_on', channel=0, note=47, velocity=96, time=2),
    Message('note_on', channel=0, note=47, velocity=0, time=58),
    Message('note_on', channel=0, note=47, velocity=96, time=17),
    Message('note_on', channel=0, note=47, velocity=0, time=58),
    Message('note_on', channel=0, note=47, velocity=96, time=1),
    Message('note_on', channel=0, note=47, velocity=0, time=58),
    Message('note_on', channel=0, note=47, velocity=96, time=2),
    Message('note_on', channel=0, note=47, velocity=0, time=58),
    Message('note_on', channel=0, note=47, velocity=96, time=1),
    Message('note_on', channel=0, note=47, velocity=0, time=58),
    Message('note_on', channel=0, note=47, velocity=96, time=2),
    Message('note_on', channel=0, note=47, velocity=0, time=58),
    Message('note_on', channel=0, note=47, velocity=96, time=1),
    Message('note_on', channel=0, note=47, velocity=0, time=58),
    Message('note_on', channel=0, note=47, velocity=96, time=2),
    Message('note_on', channel=0, note=47, velocity=0, time=58),
    Message('note_on', channel=0, note=47, velocity=96, time=1),
    Message('note_on', channel=0, note=47, velocity=0, time=58),
    Message('note_on', channel=0, note=47, velocity=96, time=2),
    Message('note_on', channel=0, note=47, velocity=0, time=58),
    Message('note_on', channel=0, note=47, velocity=96, time=1),
    Message('note_on', channel=0, note=47, velocity=0, time=58),
    Message('note_on', channel=0, note=47, velocity=96, time=2),
    Message('note_on', channel=0, note=47, velocity=0, time=58),
    Message('note_on', channel=0, note=47, velocity=96, time=1),
    Message('note_on', channel=0, note=47, velocity=0, time=58),
    Message('note_on', channel=0, note=47, velocity=96, time=2),
    Message('note_on', channel=0, note=47, velocity=0, time=58),
    Message('note_on', channel=0, note=47, velocity=96, time=1),
    Message('note_on', channel=0, note=47, velocity=0, time=58),
    Message('note_on', channel=0, note=47, velocity=96, time=2),
    Message('note_on', channel=0, note=47, velocity=0, time=58),
    Message('note_on', channel=0, note=47, velocity=96, time=1),
    Message('note_on', channel=0, note=47, velocity=0, time=58),
    Message('note_on', channel=0, note=47, velocity=96, time=2),
    Message('note_on', channel=0, note=47, velocity=0, time=58),
    Message('note_on', channel=0, note=47, velocity=96, time=1),
    Message('note_on', channel=0, note=47, velocity=0, time=58),
    Message('note_on', channel=0, note=47, velocity=96, time=2),
    Message('note_on', channel=0, note=47, velocity=0, time=58),
    Message('note_on', channel=0, note=47, velocity=96, time=1),
    Message('note_on', channel=0, note=47, velocity=0, time=58),
    Message('note_on', channel=0, note=47, velocity=96, time=2),
    Message('note_on', channel=0, note=47, velocity=0, time=58),
    Message('note_on', channel=0, note=47, velocity=96, time=1),
    Message('note_on', channel=0, note=47, velocity=0, time=58),
    Message('note_on', channel=0, note=47, velocity=96, time=2),
    Message('note_on', channel=0, note=47, velocity=0, time=58),
    Message('note_on', channel=0, note=47, velocity=96, time=1),
    Message('note_on', channel=0, note=47, velocity=0, time=58),
    Message('note_on', channel=0, note=47, velocity=96, time=2),
    Message('note_on', channel=0, note=47, velocity=0, time=58),
    Message('note_on', channel=0, note=47, velocity=96, time=2),
    Message('note_on', channel=0, note=47, velocity=0, time=58),
    Message('note_on', channel=0, note=47, velocity=96, time=1),
    Message('note_on', channel=0, note=47, velocity=0, time=58),
    Message('note_on', channel=0, note=47, velocity=96, time=2),
    Message('note_on', channel=0, note=47, velocity=0, time=58),
    Message('note_on', channel=0, note=47, velocity=96, time=1),
    Message('note_on', channel=0, note=47, velocity=0, time=58),
    Message('note_on', channel=0, note=47, velocity=96, time=2),
    Message('note_on', channel=0, note=47, velocity=0, time=58),
    Message('note_on', channel=0, note=47, velocity=96, time=1),
    Message('note_on', channel=0, note=47, velocity=0, time=58),
    Message('note_on', channel=0, note=47, velocity=96, time=2),
    Message('note_on', channel=0, note=47, velocity=0, time=58),
    Message('note_on', channel=0, note=47, velocity=96, time=17),
    Message('note_on', channel=0, note=47, velocity=0, time=239),
    Message('note_on', channel=0, note=42, velocity=96, time=24721),
    Message('note_on', channel=0, note=42, velocity=0, time=479),
    Message('note_on', channel=0, note=42, velocity=96, time=3361),
    Message('note_on', channel=0, note=42, velocity=0, time=479),
    Message('note_on', channel=0, note=47, velocity=96, time=3361),
    Message('note_on', channel=0, note=47, velocity=0, time=479),
    Message('note_on', channel=0, note=42, velocity=96, time=3361),
    Message('note_on', channel=0, note=42, velocity=0, time=58),
    Message('note_on', channel=0, note=42, velocity=96, time=1),
    Message('note_on', channel=0, note=42, velocity=0, time=58),
    Message('note_on', channel=0, note=42, velocity=96, time=2),
    Message('note_on', channel=0, note=42, velocity=0, time=58),
    Message('note_on', channel=0, note=42, velocity=96, time=1),
    Message('note_on', channel=0, note=42, velocity=0, time=58),
    Message('note_on', channel=0, note=42, velocity=96, time=2),
    Message('note_on', channel=0, note=42, velocity=0, time=58),
    Message('note_on', channel=0, note=42, velocity=96, time=1),
    Message('note_on', channel=0, note=42, velocity=0, time=58),
    Message('note_on', channel=0, note=42, velocity=96, time=2),
    Message('note_on', channel=0, note=42, velocity=0, time=58),
    Message('note_on', channel=0, note=42, velocity=96, time=1),
    Message('note_on', channel=0, note=42, velocity=0, time=58),
    Message('note_on', channel=0, note=42, velocity=96, time=2),
    Message('note_on', channel=0, note=42, velocity=0, time=58),
    Message('note_on', channel=0, note=42, velocity=96, time=1),
    Message('note_on', channel=0, note=42, velocity=0, time=58),
    Message('note_on', channel=0, note=42, velocity=96, time=2),
    Message('note_on', channel=0, note=42, velocity=0, time=58),
    Message('note_on', channel=0, note=42, velocity=96, time=1),
    Message('note_on', channel=0, note=42, velocity=0, time=58),
    Message('note_on', channel=0, note=42, velocity=96, time=2),
    Message('note_on', channel=0, note=42, velocity=0, time=58),
    Message('note_on', channel=0, note=42, velocity=96, time=1),
    Message('note_on', channel=0, note=42, velocity=0, time=58),
    Message('note_on', channel=0, note=42, velocity=96, time=2),
    Message('note_on', channel=0, note=42, velocity=0, time=58),
    Message('note_on', channel=0, note=42, velocity=96, time=1),
    Message('note_on', channel=0, note=42, velocity=0, time=58),
    Message('note_on', channel=0, note=42, velocity=96, time=2),
    Message('note_on', channel=0, note=42, velocity=0, time=58),
    Message('note_on', channel=0, note=42, velocity=96, time=1),
    Message('note_on', channel=0, note=42, velocity=0, time=58),
    Message('note_on', channel=0, note=42, velocity=96, time=2),
    Message('note_on', channel=0, note=42, velocity=0, time=58),
    Message('note_on', channel=0, note=42, velocity=96, time=1),
    Message('note_on', channel=0, note=42, velocity=0, time=58),
    Message('note_on', channel=0, note=42, velocity=96, time=2),
    Message('note_on', channel=0, note=42, velocity=0, time=58),
    Message('note_on', channel=0, note=42, velocity=96, time=1),
    Message('note_on', channel=0, note=42, velocity=0, time=58),
    Message('note_on', channel=0, note=42, velocity=96, time=2),
    Message('note_on', channel=0, note=42, velocity=0, time=58),
    Message('note_on', channel=0, note=42, velocity=96, time=1),
    Message('note_on', channel=0, note=42, velocity=0, time=58),
    Message('note_on', channel=0, note=42, velocity=96, time=2),
    Message('note_on', channel=0, note=42, velocity=0, time=58),
    Message('note_on', channel=0, note=42, velocity=96, time=2),
    Message('note_on', channel=0, note=42, velocity=0, time=58),
    Message('note_on', channel=0, note=42, velocity=96, time=1),
    Message('note_on', channel=0, note=42, velocity=0, time=58),
    Message('note_on', channel=0, note=42, velocity=96, time=2),
    Message('note_on', channel=0, note=42, velocity=0, time=58),
    Message('note_on', channel=0, note=42, velocity=96, time=1),
    Message('note_on', channel=0, note=42, velocity=0, time=58),
    Message('note_on', channel=0, note=42, velocity=96, time=2),
    Message('note_on', channel=0, note=42, velocity=0, time=58),
    Message('note_on', channel=0, note=42, velocity=96, time=1),
    Message('note_on', channel=0, note=42, velocity=0, time=58),
    Message('note_on', channel=0, note=42, velocity=96, time=2),
    Message('note_on', channel=0, note=42, velocity=0, time=58),
    Message('note_on', channel=0, note=42, velocity=96, time=17),
    Message('note_on', channel=0, note=42, velocity=0, time=58),
    Message('note_on', channel=0, note=42, velocity=96, time=1),
    Message('note_on', channel=0, note=42, velocity=0, time=58),
    Message('note_on', channel=0, note=42, velocity=96, time=2),
    Message('note_on', channel=0, note=42, velocity=0, time=58),
    Message('note_on', channel=0, note=42, velocity=96, time=1),
    Message('note_on', channel=0, note=42, velocity=0, time=58),
    Message('note_on', channel=0, note=42, velocity=96, time=2),
    Message('note_on', channel=0, note=42, velocity=0, time=58),
    Message('note_on', channel=0, note=42, velocity=96, time=1),
    Message('note_on', channel=0, note=42, velocity=0, time=58),
    Message('note_on', channel=0, note=42, velocity=96, time=2),
    Message('note_on', channel=0, note=42, velocity=0, time=58),
    Message('note_on', channel=0, note=42, velocity=96, time=1),
    Message('note_on', channel=0, note=42, velocity=0, time=58),
    Message('note_on', channel=0, note=42, velocity=96, time=2),
    Message('note_on', channel=0, note=42, velocity=0, time=58),
    Message('note_on', channel=0, note=42, velocity=96, time=1),
    Message('note_on', channel=0, note=42, velocity=0, time=58),
    Message('note_on', channel=0, note=42, velocity=96, time=2),
    Message('note_on', channel=0, note=42, velocity=0, time=58),
    Message('note_on', channel=0, note=42, velocity=96, time=1),
    Message('note_on', channel=0, note=42, velocity=0, time=58),
    Message('note_on', channel=0, note=42, velocity=96, time=2),
    Message('note_on', channel=0, note=42, velocity=0, time=58),
    Message('note_on', channel=0, note=42, velocity=96, time=1),
    Message('note_on', channel=0, note=42, velocity=0, time=58),
    Message('note_on', channel=0, note=42, velocity=96, time=2),
    Message('note_on', channel=0, note=42, velocity=0, time=58),
    Message('note_on', channel=0, note=42, velocity=96, time=1),
    Message('note_on', channel=0, note=42, velocity=0, time=58),
    Message('note_on', channel=0, note=42, velocity=96, time=2),
    Message('note_on', channel=0, note=42, velocity=0, time=58),
    Message('note_on', channel=0, note=42, velocity=96, time=1),
    Message('note_on', channel=0, note=42, velocity=0, time=58),
    Message('note_on', channel=0, note=42, velocity=96, time=2),
    Message('note_on', channel=0, note=42, velocity=0, time=58),
    Message('note_on', channel=0, note=42, velocity=96, time=1),
    Message('note_on', channel=0, note=42, velocity=0, time=58),
    Message('note_on', channel=0, note=42, velocity=96, time=2),
    Message('note_on', channel=0, note=42, velocity=0, time=58),
    Message('note_on', channel=0, note=42, velocity=96, time=1),
    Message('note_on', channel=0, note=42, velocity=0, time=58),
    Message('note_on', channel=0, note=42, velocity=96, time=2),
    Message('note_on', channel=0, note=42, velocity=0, time=58),
    Message('note_on', channel=0, note=42, velocity=96, time=1),
    Message('note_on', channel=0, note=42, velocity=0, time=58),
    Message('note_on', channel=0, note=42, velocity=96, time=2),
    Message('note_on', channel=0, note=42, velocity=0, time=58),
    Message('note_on', channel=0, note=42, velocity=96, time=2),
    Message('note_on', channel=0, note=42, velocity=0, time=58),
    Message('note_on', channel=0, note=42, velocity=96, time=1),
    Message('note_on', channel=0, note=42, velocity=0, time=58),
    Message('note_on', channel=0, note=42, velocity=96, time=2),
    Message('note_on', channel=0, note=42, velocity=0, time=58),
    Message('note_on', channel=0, note=42, velocity=96, time=1),
    Message('note_on', channel=0, note=42, velocity=0, time=58),
    Message('note_on', channel=0, note=42, velocity=96, time=2),
    Message('note_on', channel=0, note=42, velocity=0, time=58),
    Message('note_on', channel=0, note=42, velocity=96, time=1),
    Message('note_on', channel=0, note=42, velocity=0, time=58),
    Message('note_on', channel=0, note=42, velocity=96, time=2),
    Message('note_on', channel=0, note=42, velocity=0, time=58),
    Message('note_on', channel=0, note=42, velocity=96, time=17),
    Message('note_on', channel=0, note=42, velocity=0, time=58),
    Message('note_on', channel=0, note=42, velocity=96, time=1),
    Message('note_on', channel=0, note=42, velocity=0, time=58),
    Message('note_on', channel=0, note=42, velocity=96, time=2),
    Message('note_on', channel=0, note=42, velocity=0, time=58),
    Message('note_on', channel=0, note=42, velocity=96, time=1),
    Message('note_on', channel=0, note=42, velocity=0, time=58),
    Message('note_on', channel=0, note=42, velocity=96, time=2),
    Message('note_on', channel=0, note=42, velocity=0, time=58),
    Message('note_on', channel=0, note=42, velocity=96, time=1),
    Message('note_on', channel=0, note=42, velocity=0, time=58),
    Message('note_on', channel=0, note=42, velocity=96, time=2),
    Message('note_on', channel=0, note=42, velocity=0, time=58),
    Message('note_on', channel=0, note=42, velocity=96, time=1),
    Message('note_on', channel=0, note=42, velocity=0, time=58),
    Message('note_on', channel=0, note=42, velocity=96, time=2),
    Message('note_on', channel=0, note=42, velocity=0, time=58),
    Message('note_on', channel=0, note=42, velocity=96, time=1),
    Message('note_on', channel=0, note=42, velocity=0, time=58),
    Message('note_on', channel=0, note=42, velocity=96, time=2),
    Message('note_on', channel=0, note=42, velocity=0, time=58),
    Message('note_on', channel=0, note=42, velocity=96, time=1),
    Message('note_on', channel=0, note=42, velocity=0, time=58),
    Message('note_on', channel=0, note=42, velocity=96, time=2),
    Message('note_on', channel=0, note=42, velocity=0, time=58),
    Message('note_on', channel=0, note=42, velocity=96, time=1),
    Message('note_on', channel=0, note=42, velocity=0, time=58),
    Message('note_on', channel=0, note=42, velocity=96, time=2),
    Message('note_on', channel=0, note=42, velocity=0, time=58),
    Message('note_on', channel=0, note=42, velocity=96, time=1),
    Message('note_on', channel=0, note=42, velocity=0, time=58),
    Message('note_on', channel=0, note=42, velocity=96, time=2),
    Message('note_on', channel=0, note=42, velocity=0, time=58),
    Message('note_on', channel=0, note=42, velocity=96, time=1),
    Message('note_on', channel=0, note=42, velocity=0, time=58),
    Message('note_on', channel=0, note=42, velocity=96, time=2),
    Message('note_on', channel=0, note=42, velocity=0, time=58),
    Message('note_on', channel=0, note=42, velocity=96, time=1),
    Message('note_on', channel=0, note=42, velocity=0, time=58),
    Message('note_on', channel=0, note=42, velocity=96, time=2),
    Message('note_on', channel=0, note=42, velocity=0, time=58),
    Message('note_on', channel=0, note=42, velocity=96, time=1),
    Message('note_on', channel=0, note=42, velocity=0, time=58),
    Message('note_on', channel=0, note=42, velocity=96, time=2),
    Message('note_on', channel=0, note=42, velocity=0, time=58),
    Message('note_on', channel=0, note=42, velocity=96, time=1),
    Message('note_on', channel=0, note=42, velocity=0, time=58),
    Message('note_on', channel=0, note=42, velocity=96, time=2),
    Message('note_on', channel=0, note=42, velocity=0, time=58),
    Message('note_on', channel=0, note=42, velocity=96, time=2),
    Message('note_on', channel=0, note=42, velocity=0, time=58),
    Message('note_on', channel=0, note=42, velocity=96, time=1),
    Message('note_on', channel=0, note=42, velocity=0, time=58),
    Message('note_on', channel=0, note=42, velocity=96, time=2),
    Message('note_on', channel=0, note=42, velocity=0, time=58),
    Message('note_on', channel=0, note=42, velocity=96, time=1),
    Message('note_on', channel=0, note=42, velocity=0, time=58),
    Message('note_on', channel=0, note=42, velocity=96, time=2),
    Message('note_on', channel=0, note=42, velocity=0, time=58),
    Message('note_on', channel=0, note=42, velocity=96, time=1),
    Message('note_on', channel=0, note=42, velocity=0, time=58),
    Message('note_on', channel=0, note=42, velocity=96, time=2),
    Message('note_on', channel=0, note=42, velocity=0, time=58),
    Message('note_on', channel=0, note=47, velocity=126, time=7697),
    Message('note_on', channel=0, note=47, velocity=0, time=58),
    Message('note_on', channel=0, note=47, velocity=126, time=1),
    Message('note_on', channel=0, note=47, velocity=0, time=58),
    Message('note_on', channel=0, note=47, velocity=126, time=2),
    Message('note_on', channel=0, note=47, velocity=0, time=58),
    Message('note_on', channel=0, note=47, velocity=126, time=1),
    Message('note_on', channel=0, note=47, velocity=0, time=58),
    Message('note_on', channel=0, note=47, velocity=126, time=2),
    Message('note_on', channel=0, note=47, velocity=0, time=58),
    Message('note_on', channel=0, note=47, velocity=126, time=1),
    Message('note_on', channel=0, note=47, velocity=0, time=58),
    Message('note_on', channel=0, note=47, velocity=126, time=2),
    Message('note_on', channel=0, note=47, velocity=0, time=58),
    Message('note_on', channel=0, note=47, velocity=126, time=1),
    Message('note_on', channel=0, note=47, velocity=0, time=58),
    Message('note_on', channel=0, note=47, velocity=126, time=2),
    Message('note_on', channel=0, note=47, velocity=0, time=58),
    Message('note_on', channel=0, note=47, velocity=126, time=1),
    Message('note_on', channel=0, note=47, velocity=0, time=58),
    Message('note_on', channel=0, note=47, velocity=126, time=2),
    Message('note_on', channel=0, note=47, velocity=0, time=58),
    Message('note_on', channel=0, note=47, velocity=126, time=1),
    Message('note_on', channel=0, note=47, velocity=0, time=58),
    Message('note_on', channel=0, note=47, velocity=126, time=2),
    Message('note_on', channel=0, note=47, velocity=0, time=58),
    Message('note_on', channel=0, note=47, velocity=126, time=1),
    Message('note_on', channel=0, note=47, velocity=0, time=58),
    Message('note_on', channel=0, note=47, velocity=126, time=2),
    Message('note_on', channel=0, note=47, velocity=0, time=58),
    Message('note_on', channel=0, note=47, velocity=126, time=1),
    Message('note_on', channel=0, note=47, velocity=0, time=58),
    Message('note_on', channel=0, note=47, velocity=126, time=2),
    Message('note_on', channel=0, note=47, velocity=0, time=58),
    Message('note_on', channel=0, note=47, velocity=126, time=1),
    Message('note_on', channel=0, note=47, velocity=0, time=58),
    Message('note_on', channel=0, note=47, velocity=126, time=2),
    Message('note_on', channel=0, note=47, velocity=0, time=58),
    Message('note_on', channel=0, note=47, velocity=126, time=1),
    Message('note_on', channel=0, note=47, velocity=0, time=58),
    Message('note_on', channel=0, note=47, velocity=126, time=2),
    Message('note_on', channel=0, note=47, velocity=0, time=58),
    Message('note_on', channel=0, note=47, velocity=126, time=1),
    Message('note_on', channel=0, note=47, velocity=0, time=58),
    Message('note_on', channel=0, note=47, velocity=126, time=2),
    Message('note_on', channel=0, note=47, velocity=0, time=58),
    Message('note_on', channel=0, note=47, velocity=126, time=1),
    Message('note_on', channel=0, note=47, velocity=0, time=58),
    Message('note_on', channel=0, note=47, velocity=126, time=2),
    Message('note_on', channel=0, note=47, velocity=0, time=58),
    Message('note_on', channel=0, note=47, velocity=126, time=2),
    Message('note_on', channel=0, note=47, velocity=0, time=58),
    Message('note_on', channel=0, note=47, velocity=126, time=1),
    Message('note_on', channel=0, note=47, velocity=0, time=58),
    Message('note_on', channel=0, note=47, velocity=126, time=2),
    Message('note_on', channel=0, note=47, velocity=0, time=58),
    Message('note_on', channel=0, note=47, velocity=126, time=1),
    Message('note_on', channel=0, note=47, velocity=0, time=58),
    Message('note_on', channel=0, note=47, velocity=126, time=2),
    Message('note_on', channel=0, note=47, velocity=0, time=58),
    Message('note_on', channel=0, note=47, velocity=126, time=1),
    Message('note_on', channel=0, note=47, velocity=0, time=58),
    Message('note_on', channel=0, note=47, velocity=126, time=2),
    Message('note_on', channel=0, note=47, velocity=0, time=58),
    Message('note_on', channel=0, note=47, velocity=126, time=17),
    Message('note_on', channel=0, note=47, velocity=0, time=479),
    Message('note_on', channel=0, note=47, velocity=126, time=2401),
    Message('note_on', channel=0, note=47, velocity=0, time=959),
    Message('note_on', channel=0, note=47, velocity=126, time=961),
    Message('note_on', channel=0, note=47, velocity=0, time=959),
    Message('note_on', channel=0, note=47, velocity=126, time=481),
    Message('note_on', channel=0, note=47, velocity=0, time=479),
    Message('note_on', channel=0, note=47, velocity=126, time=481),
    Message('note_on', channel=0, note=47, velocity=0, time=479),
    Message('note_on', channel=0, note=47, velocity=126, time=481),
    Message('note_on', channel=0, note=47, velocity=0, time=479),
    Message('note_on', channel=0, note=47, velocity=126, time=481),
    Message('note_on', channel=0, note=47, velocity=0, time=479),
    Message('note_on', channel=0, note=47, velocity=126, time=481),
    Message('note_on', channel=0, note=47, velocity=0, time=479),
    Message('note_on', channel=0, note=47, velocity=126, time=481),
    Message('note_on', channel=0, note=47, velocity=0, time=479),
    Message('note_on', channel=0, note=47, velocity=126, time=481),
    Message('note_on', channel=0, note=47, velocity=0, time=479),
    Message('note_on', channel=0, note=47, velocity=126, time=481),
    Message('note_on', channel=0, note=47, velocity=0, time=479),
    MetaMessage('end_of_track', time=1)]),
  MidiTrack([
    MetaMessage('track_name', name='Harp\x00', time=0),
    MetaMessage('key_signature', key='D', time=0),
    Message('control_change', channel=1, control=121, value=0, time=0),
    Message('program_change', channel=1, program=46, time=0),
    Message('control_change', channel=1, control=7, value=100, time=0),
    Message('control_change', channel=1, control=10, value=64, time=0),
    Message('control_change', channel=1, control=91, value=0, time=0),
    Message('control_change', channel=1, control=93, value=0, time=0),
    MetaMessage('midi_port', port=1, time=0),
    Message('note_on', channel=1, note=47, velocity=64, time=0),
    Message('control_change', channel=2, control=121, value=0, time=0),
    Message('program_change', channel=2, program=45, time=0),
    Message('control_change', channel=2, control=7, value=100, time=0),
    Message('control_change', channel=2, control=10, value=64, time=0),
    Message('control_change', channel=2, control=91, value=0, time=0),
    Message('control_change', channel=2, control=93, value=0, time=0),
    MetaMessage('midi_port', port=1, time=0),
    Message('control_change', channel=3, control=121, value=0, time=0),
    Message('program_change', channel=3, program=11, time=0),
    Message('control_change', channel=3, control=7, value=100, time=0),
    Message('control_change', channel=3, control=10, value=64, time=0),
    Message('control_change', channel=3, control=91, value=0, time=0),
    Message('control_change', channel=3, control=93, value=0, time=0),
    MetaMessage('midi_port', port=1, time=0),
    Message('note_on', channel=1, note=47, velocity=0, time=159),
    Message('note_on', channel=1, note=54, velocity=62, time=1),
    Message('note_on', channel=1, note=54, velocity=0, time=159),
    Message('note_on', channel=1, note=59, velocity=59, time=1),
    Message('note_on', channel=1, note=59, velocity=0, time=159),
    Message('note_on', channel=1, note=62, velocity=57, time=1),
    Message('note_on', channel=1, note=62, velocity=0, time=159),
    Message('note_on', channel=1, note=66, velocity=54, time=1),
    Message('note_on', channel=1, note=66, velocity=0, time=159),
    Message('note_on', channel=1, note=71, velocity=52, time=1),
    Message('note_on', channel=1, note=71, velocity=0, time=159),
    Message('note_on', channel=1, note=74, velocity=49, time=1),
    Message('note_on', channel=1, note=74, velocity=0, time=159),
    Message('note_on', channel=1, note=71, velocity=46, time=1),
    Message('note_on', channel=1, note=71, velocity=0, time=159),
    Message('note_on', channel=1, note=66, velocity=44, time=1),
    Message('note_on', channel=1, note=66, velocity=0, time=159),
    Message('note_on', channel=1, note=62, velocity=41, time=1),
    Message('note_on', channel=1, note=62, velocity=0, time=159),
    Message('note_on', channel=1, note=59, velocity=39, time=1),
    Message('note_on', channel=1, note=59, velocity=0, time=159),
    Message('note_on', channel=1, note=54, velocity=36, time=1),
    Message('note_on', channel=1, note=54, velocity=0, time=159),
    Message('note_on', channel=1, note=47, velocity=33, time=1),
    Message('note_on', channel=1, note=47, velocity=0, time=159),
    Message('note_on', channel=1, note=54, velocity=33, time=1),
    Message('note_on', channel=1, note=54, velocity=0, time=159),
    Message('note_on', channel=1, note=59, velocity=33, time=1),
    Message('note_on', channel=1, note=59, velocity=0, time=159),
    Message('note_on', channel=1, note=62, velocity=33, time=1),
    Message('note_on', channel=1, note=62, velocity=0, time=159),
    Message('note_on', channel=1, note=66, velocity=33, time=1),
    Message('note_on', channel=1, note=66, velocity=0, time=159),
    Message('note_on', channel=1, note=71, velocity=33, time=1),
    Message('note_on', channel=1, note=71, velocity=0, time=159),
    Message('note_on', channel=1, note=52, velocity=33, time=1),
    Message('note_on', channel=1, note=52, velocity=0, time=159),
    Message('note_on', channel=1, note=55, velocity=33, time=1),
    Message('note_on', channel=1, note=55, velocity=0, time=159),
    Message('note_on', channel=1, note=59, velocity=33, time=1),
    Message('note_on', channel=1, note=59, velocity=0, time=159),
    Message('note_on', channel=1, note=64, velocity=33, time=1),
    Message('note_on', channel=1, note=64, velocity=0, time=159),
    Message('note_on', channel=1, note=67, velocity=33, time=1),
    Message('note_on', channel=1, note=67, velocity=0, time=159),
    Message('note_on', channel=1, note=71, velocity=33, time=1),
    Message('note_on', channel=1, note=71, velocity=0, time=159),
    Message('note_on', channel=1, note=47, velocity=33, time=1),
    Message('note_on', channel=1, note=47, velocity=0, time=159),
    Message('note_on', channel=1, note=54, velocity=33, time=1),
    Message('note_on', channel=1, note=54, velocity=0, time=159),
    Message('note_on', channel=1, note=59, velocity=33, time=1),
    Message('note_on', channel=1, note=59, velocity=0, time=159),
    Message('note_on', channel=1, note=62, velocity=33, time=1),
    Message('note_on', channel=1, note=62, velocity=0, time=159),
    Message('note_on', channel=1, note=66, velocity=33, time=1),
    Message('note_on', channel=1, note=66, velocity=0, time=159),
    Message('note_on', channel=1, note=71, velocity=33, time=1),
    Message('note_on', channel=1, note=71, velocity=0, time=159),
    Message('note_on', channel=1, note=74, velocity=33, time=1),
    Message('note_on', channel=1, note=74, velocity=0, time=159),
    Message('note_on', channel=1, note=71, velocity=33, time=1),
    Message('note_on', channel=1, note=71, velocity=0, time=159),
    Message('note_on', channel=1, note=66, velocity=33, time=1),
    Message('note_on', channel=1, note=66, velocity=0, time=159),
    Message('note_on', channel=1, note=62, velocity=33, time=1),
    Message('note_on', channel=1, note=62, velocity=0, time=159),
    Message('note_on', channel=1, note=59, velocity=33, time=1),
    Message('note_on', channel=1, note=59, velocity=0, time=159),
    Message('note_on', channel=1, note=54, velocity=33, time=1),
    Message('note_on', channel=1, note=54, velocity=0, time=159),
    Message('note_on', channel=1, note=47, velocity=33, time=1),
    Message('note_on', channel=1, note=47, velocity=0, time=159),
    Message('note_on', channel=1, note=54, velocity=33, time=1),
    Message('note_on', channel=1, note=54, velocity=0, time=159),
    Message('note_on', channel=1, note=59, velocity=33, time=1),
    Message('note_on', channel=1, note=59, velocity=0, time=159),
    Message('note_on', channel=1, note=62, velocity=33, time=1),
    Message('note_on', channel=1, note=62, velocity=0, time=159),
    Message('note_on', channel=1, note=66, velocity=33, time=1),
    Message('note_on', channel=1, note=66, velocity=0, time=159),
    Message('note_on', channel=1, note=71, velocity=33, time=1),
    Message('note_on', channel=1, note=71, velocity=0, time=159),
    Message('note_on', channel=1, note=59, velocity=33, time=1),
    Message('note_on', channel=1, note=59, velocity=0, time=239),
    Message('note_on', channel=1, note=71, velocity=33, time=1),
    Message('note_on', channel=1, note=71, velocity=0, time=239),
    Message('note_on', channel=1, note=83, velocity=33, time=1),
    Message('note_on', channel=1, note=83, velocity=0, time=239),
    Message('note_on', channel=1, note=90, velocity=33, time=241),
    Message('note_on', channel=1, note=90, velocity=0, time=59),
    Message('note_on', channel=1, note=86, velocity=33, time=1),
    Message('note_on', channel=1, note=86, velocity=0, time=59),
    Message('note_on', channel=1, note=83, velocity=33, time=1),
    Message('note_on', channel=1, note=83, velocity=0, time=59),
    Message('note_on', channel=1, note=78, velocity=33, time=1),
    Message('note_on', channel=1, note=78, velocity=0, time=59),
    Message('note_on', channel=1, note=74, velocity=33, time=1),
    Message('note_on', channel=1, note=74, velocity=0, time=59),
    Message('note_on', channel=1, note=71, velocity=33, time=1),
    Message('note_on', channel=1, note=71, velocity=0, time=59),
    Message('note_on', channel=1, note=66, velocity=33, time=1),
    Message('note_on', channel=1, note=66, velocity=0, time=59),
    Message('note_on', channel=1, note=62, velocity=33, time=1),
    Message('note_on', channel=1, note=62, velocity=0, time=59),
    Message('note_on', channel=1, note=83, velocity=33, time=1),
    Message('note_on', channel=1, note=83, velocity=0, time=59),
    Message('note_on', channel=1, note=79, velocity=33, time=1),
    Message('note_on', channel=1, note=79, velocity=0, time=59),
    Message('note_on', channel=1, note=76, velocity=33, time=1),
    Message('note_on', channel=1, note=76, velocity=0, time=59),
    Message('note_on', channel=1, note=71, velocity=33, time=1),
    Message('note_on', channel=1, note=71, velocity=0, time=59),
    Message('note_on', channel=1, note=67, velocity=33, time=1),
    Message('note_on', channel=1, note=67, velocity=0, time=59),
    Message('note_on', channel=1, note=64, velocity=33, time=1),
    Message('note_on', channel=1, note=64, velocity=0, time=59),
    Message('note_on', channel=1, note=59, velocity=33, time=1),
    Message('note_on', channel=1, note=59, velocity=0, time=59),
    Message('note_on', channel=1, note=55, velocity=33, time=1),
    Message('note_on', channel=1, note=55, velocity=0, time=59),
    Message('note_on', channel=1, note=78, velocity=33, time=1),
    Message('note_on', channel=1, note=78, velocity=0, time=59),
    Message('note_on', channel=1, note=74, velocity=33, time=1),
    Message('note_on', channel=1, note=74, velocity=0, time=59),
    Message('note_on', channel=1, note=71, velocity=33, time=1),
    Message('note_on', channel=1, note=71, velocity=0, time=59),
    Message('note_on', channel=1, note=66, velocity=33, time=1),
    Message('note_on', channel=1, note=66, velocity=0, time=59),
    Message('note_on', channel=1, note=62, velocity=33, time=1),
    Message('note_on', channel=1, note=62, velocity=0, time=59),
    Message('note_on', channel=1, note=59, velocity=33, time=1),
    Message('note_on', channel=1, note=59, velocity=0, time=59),
    Message('note_on', channel=1, note=54, velocity=33, time=1),
    Message('note_on', channel=1, note=54, velocity=0, time=59),
    Message('note_on', channel=1, note=50, velocity=33, time=1),
    Message('note_on', channel=1, note=50, velocity=0, time=59),
    Message('note_on', channel=1, note=71, velocity=33, time=1),
    Message('note_on', channel=1, note=71, velocity=0, time=59),
    Message('note_on', channel=1, note=67, velocity=33, time=1),
    Message('note_on', channel=1, note=67, velocity=0, time=59),
    Message('note_on', channel=1, note=64, velocity=33, time=1),
    Message('note_on', channel=1, note=64, velocity=0, time=59),
    Message('note_on', channel=1, note=59, velocity=33, time=1),
    Message('note_on', channel=1, note=59, velocity=0, time=59),
    Message('note_on', channel=1, note=52, velocity=33, time=1),
    Message('note_on', channel=1, note=52, velocity=0, time=59),
    Message('note_on', channel=1, note=47, velocity=33, time=1),
    Message('note_on', channel=1, note=47, velocity=0, time=59),
    Message('note_on', channel=1, note=43, velocity=33, time=1),
    Message('note_on', channel=1, note=43, velocity=0, time=59),
    Message('note_on', channel=1, note=40, velocity=33, time=1),
    Message('note_on', channel=1, note=40, velocity=0, time=59),
    Message('note_on', channel=1, note=35, velocity=33, time=1),
    Message('note_on', channel=1, note=35, velocity=0, time=79),
    Message('note_on', channel=1, note=38, velocity=33, time=1),
    Message('note_on', channel=1, note=38, velocity=0, time=79),
    Message('note_on', channel=1, note=42, velocity=33, time=1),
    Message('note_on', channel=1, note=42, velocity=0, time=79),
    Message('note_on', channel=1, note=47, velocity=33, time=1),
    Message('note_on', channel=1, note=47, velocity=0, time=79),
    Message('note_on', channel=1, note=50, velocity=33, time=1),
    Message('note_on', channel=1, note=50, velocity=0, time=79),
    Message('note_on', channel=1, note=54, velocity=33, time=1),
    Message('note_on', channel=1, note=54, velocity=0, time=79),
    Message('note_on', channel=1, note=59, velocity=33, time=1),
    Message('note_on', channel=1, note=59, velocity=0, time=79),
    Message('note_on', channel=1, note=62, velocity=33, time=1),
    Message('note_on', channel=1, note=62, velocity=0, time=79),
    Message('note_on', channel=1, note=66, velocity=33, time=1),
    Message('note_on', channel=1, note=66, velocity=0, time=79),
    Message('note_on', channel=1, note=71, velocity=33, time=1),
    Message('note_on', channel=1, note=71, velocity=0, time=79),
    Message('note_on', channel=1, note=74, velocity=33, time=1),
    Message('note_on', channel=1, note=74, velocity=0, time=79),
    Message('note_on', channel=1, note=78, velocity=33, time=1),
    Message('note_on', channel=1, note=78, velocity=0, time=79),
    Message('note_on', channel=1, note=83, velocity=33, time=1),
    Message('note_on', channel=1, note=83, velocity=0, time=239),
    Message('note_on', channel=1, note=61, velocity=41, time=6641),
    Message('note_on', channel=1, note=61, velocity=0, time=159),
    Message('note_on', channel=1, note=64, velocity=41, time=1),
    Message('note_on', channel=1, note=64, velocity=0, time=159),
    Message('note_on', channel=1, note=69, velocity=41, time=1),
    Message('note_on', channel=1, note=69, velocity=0, time=159),
    Message('note_on', channel=1, note=64, velocity=41, time=1),
    Message('note_on', channel=1, note=64, velocity=0, time=159),
    Message('note_on', channel=1, note=61, velocity=41, time=1),
    Message('note_on', channel=1, note=61, velocity=0, time=159),
    Message('note_on', channel=1, note=61, velocity=41, time=161),
    Message('note_on', channel=1, note=61, velocity=0, time=159),
    Message('note_on', channel=1, note=64, velocity=41, time=1),
    Message('note_on', channel=1, note=64, velocity=0, time=159),
    Message('note_on', channel=1, note=69, velocity=41, time=1),
    Message('note_on', channel=1, note=69, velocity=0, time=159),
    Message('note_on', channel=1, note=64, velocity=41, time=1),
    Message('note_on', channel=1, note=64, velocity=0, time=159),
    Message('note_on', channel=1, note=61, velocity=41, time=1),
    Message('note_on', channel=1, note=61, velocity=0, time=159),
    Message('note_on', channel=1, note=57, velocity=41, time=161),
    Message('note_on', channel=1, note=57, velocity=0, time=159),
    Message('note_on', channel=1, note=61, velocity=41, time=1),
    Message('note_on', channel=1, note=61, velocity=0, time=159),
    Message('note_on', channel=1, note=66, velocity=41, time=1),
    Message('note_on', channel=1, note=66, velocity=0, time=159),
    Message('note_on', channel=1, note=69, velocity=41, time=1),
    Message('note_on', channel=1, note=69, velocity=0, time=159),
    Message('note_on', channel=1, note=73, velocity=41, time=1),
    Message('note_on', channel=1, note=73, velocity=0, time=159),
    Message('note_on', channel=1, note=78, velocity=41, time=1),
    Message('note_on', channel=1, note=78, velocity=0, time=239),
    Message('note_on', channel=1, note=67, velocity=41, time=1201),
    Message('note_on', channel=1, note=67, velocity=0, time=159),
    Message('note_on', channel=1, note=71, velocity=41, time=1),
    Message('note_on', channel=1, note=71, velocity=0, time=159),
    Message('note_on', channel=1, note=76, velocity=41, time=1),
    Message('note_on', channel=1, note=76, velocity=0, time=159),
    Message('note_on', channel=1, note=79, velocity=41, time=1),
    Message('note_on', channel=1, note=79, velocity=0, time=239),
    Message('note_on', channel=1, note=77, velocity=41, time=1201),
    Message('note_on', channel=1, note=77, velocity=0, time=159),
    Message('note_on', channel=1, note=80, velocity=41, time=1),
    Message('note_on', channel=1, note=80, velocity=0, time=159),
    Message('note_on', channel=1, note=85, velocity=41, time=1),
    Message('note_on', channel=1, note=85, velocity=0, time=159),
    Message('note_on', channel=1, note=90, velocity=41, time=1),
    Message('note_on', channel=1, note=90, velocity=0, time=239),
    Message('note_on', channel=1, note=61, velocity=41, time=881),
    Message('note_on', channel=1, note=61, velocity=0, time=159),
    Message('note_on', channel=1, note=64, velocity=41, time=1),
    Message('note_on', channel=1, note=64, velocity=0, time=159),
    Message('note_on', channel=1, note=69, velocity=41, time=1),
    Message('note_on', channel=1, note=69, velocity=0, time=159),
    Message('note_on', channel=1, note=64, velocity=41, time=1),
    Message('note_on', channel=1, note=64, velocity=0, time=159),
    Message('note_on', channel=1, note=61, velocity=41, time=1),
    Message('note_on', channel=1, note=61, velocity=0, time=159),
    Message('note_on', channel=1, note=61, velocity=41, time=161),
    Message('note_on', channel=1, note=61, velocity=0, time=159),
    Message('note_on', channel=1, note=64, velocity=41, time=1),
    Message('note_on', channel=1, note=64, velocity=0, time=159),
    Message('note_on', channel=1, note=69, velocity=41, time=1),
    Message('note_on', channel=1, note=69, velocity=0, time=159),
    Message('note_on', channel=1, note=64, velocity=41, time=1),
    Message('note_on', channel=1, note=64, velocity=0, time=159),
    Message('note_on', channel=1, note=61, velocity=41, time=1),
    Message('note_on', channel=1, note=61, velocity=0, time=159),
    Message('note_on', channel=1, note=57, velocity=41, time=161),
    Message('note_on', channel=1, note=57, velocity=0, time=159),
    Message('note_on', channel=1, note=61, velocity=41, time=1),
    Message('note_on', channel=1, note=61, velocity=0, time=159),
    Message('note_on', channel=1, note=66, velocity=41, time=1),
    Message('note_on', channel=1, note=66, velocity=0, time=159),
    Message('note_on', channel=1, note=69, velocity=41, time=1),
    Message('note_on', channel=1, note=69, velocity=0, time=159),
    Message('note_on', channel=1, note=73, velocity=41, time=1),
    Message('note_on', channel=1, note=73, velocity=0, time=159),
    Message('note_on', channel=1, note=78, velocity=41, time=1),
    Message('note_on', channel=1, note=78, velocity=0, time=239),
    Message('note_on', channel=1, note=67, velocity=41, time=1201),
    Message('note_on', channel=1, note=67, velocity=0, time=159),
    Message('note_on', channel=1, note=71, velocity=42, time=1),
    Message('note_on', channel=1, note=71, velocity=0, time=159),
    Message('note_on', channel=1, note=76, velocity=43, time=1),
    Message('note_on', channel=1, note=76, velocity=0, time=159),
    Message('note_on', channel=1, note=67, velocity=49, time=481),
    Message('note_on', channel=1, note=67, velocity=0, time=159),
    Message('note_on', channel=1, note=71, velocity=50, time=1),
    Message('note_on', channel=1, note=71, velocity=0, time=159),
    Message('note_on', channel=1, note=77, velocity=52, time=1),
    Message('note_on', channel=1, note=77, velocity=0, time=159),
    Message('note_on', channel=1, note=48, velocity=53, time=1),
    Message('note_on', channel=1, note=48, velocity=0, time=106),
    Message('note_on', channel=1, note=52, velocity=54, time=1),
    Message('note_on', channel=1, note=52, velocity=0, time=106),
    Message('note_on', channel=1, note=55, velocity=55, time=0),
    Message('note_on', channel=1, note=55, velocity=0, time=106),
    Message('note_on', channel=1, note=60, velocity=56, time=1),
    Message('note_on', channel=1, note=60, velocity=0, time=106),
    Message('note_on', channel=1, note=64, velocity=57, time=1),
    Message('note_on', channel=1, note=64, velocity=0, time=106),
    Message('note_on', channel=1, note=67, velocity=58, time=0),
    Message('note_on', channel=1, note=67, velocity=0, time=106),
    Message('note_on', channel=1, note=72, velocity=59, time=1),
    Message('note_on', channel=1, note=72, velocity=0, time=106),
    Message('note_on', channel=1, note=76, velocity=60, time=1),
    Message('note_on', channel=1, note=76, velocity=0, time=106),
    Message('note_on', channel=1, note=79, velocity=60, time=0),
    Message('note_on', channel=1, note=79, velocity=0, time=106),
    Message('note_on', channel=1, note=84, velocity=61, time=1),
    Message('note_on', channel=1, note=84, velocity=0, time=239),
    Message('note_on', channel=1, note=62, velocity=96, time=16561),
    Message('note_on', channel=1, note=62, velocity=0, time=119),
    Message('note_on', channel=1, note=66, velocity=96, time=1),
    Message('note_on', channel=1, note=66, velocity=0, time=119),
    Message('note_on', channel=1, note=71, velocity=96, time=1),
    Message('note_on', channel=1, note=71, velocity=0, time=119),
    Message('note_on', channel=1, note=74, velocity=96, time=1),
    Message('note_on', channel=1, note=74, velocity=0, time=119),
    Message('note_on', channel=1, note=78, velocity=96, time=1),
    Message('note_on', channel=1, note=78, velocity=0, time=119),
    Message('note_on', channel=1, note=74, velocity=96, time=1),
    Message('note_on', channel=1, note=74, velocity=0, time=119),
    Message('note_on', channel=1, note=71, velocity=96, time=1),
    Message('note_on', channel=1, note=71, velocity=0, time=119),
    Message('note_on', channel=1, note=66, velocity=96, time=1),
    Message('note_on', channel=1, note=66, velocity=0, time=119),
    Message('note_on', channel=1, note=57, velocity=96, time=481),
    Message('note_on', channel=1, note=57, velocity=0, time=479),
    Message('note_on', channel=1, note=81, velocity=96, time=1441),
    Message('note_on', channel=1, note=81, velocity=0, time=479),
    Message('note_on', channel=1, note=83, velocity=96, time=1441),
    Message('note_on', channel=1, note=83, velocity=0, time=479),
    Message('note_on', channel=1, note=85, velocity=96, time=1441),
    Message('note_on', channel=1, note=85, velocity=0, time=239),
    Message('note_on', channel=1, note=78, velocity=96, time=721),
    Message('note_on', channel=1, note=90, velocity=96, time=0),
    Message('note_on', channel=1, note=78, velocity=0, time=239),
    Message('note_on', channel=1, note=90, velocity=0, time=0),
    Message('note_on', channel=1, note=66, velocity=96, time=241),
    Message('note_on', channel=1, note=78, velocity=96, time=0),
    Message('note_on', channel=1, note=66, velocity=0, time=239),
    Message('note_on', channel=1, note=78, velocity=0, time=0),
    Message('note_on', channel=1, note=57, velocity=96, time=241),
    Message('note_on', channel=1, note=57, velocity=0, time=479),
    Message('note_on', channel=1, note=81, velocity=96, time=1441),
    Message('note_on', channel=1, note=81, velocity=0, time=479),
    Message('note_on', channel=1, note=83, velocity=96, time=1441),
    Message('note_on', channel=1, note=83, velocity=0, time=479),
    Message('note_on', channel=1, note=84, velocity=96, time=1441),
    Message('note_on', channel=1, note=84, velocity=0, time=479),
    Message('note_on', channel=1, note=84, velocity=96, time=3361),
    Message('note_on', channel=1, note=84, velocity=0, time=479),
    Message('note_on', channel=1, note=84, velocity=96, time=3361),
    Message('note_on', channel=1, note=84, velocity=0, time=479),
    Message('note_on', channel=1, note=72, velocity=96, time=3361),
    Message('note_on', channel=1, note=76, velocity=96, time=0),
    Message('note_on', channel=1, note=79, velocity=96, time=0),
    Message('note_on', channel=1, note=84, velocity=96, time=0),
    Message('note_on', channel=1, note=72, velocity=0, time=479),
    Message('note_on', channel=1, note=76, velocity=0, time=0),
    Message('note_on', channel=1, note=79, velocity=0, time=0),
    Message('note_on', channel=1, note=84, velocity=0, time=0),
    MetaMessage('end_of_track', time=1)]),
  MidiTrack([
    MetaMessage('track_name', name='Harp\x00', time=0),
    MetaMessage('key_signature', key='D', time=0),
    MetaMessage('midi_port', port=1, time=0),
    MetaMessage('midi_port', port=1, time=0),
    MetaMessage('midi_port', port=1, time=0),
    Message('note_on', channel=1, note=45, velocity=41, time=17280),
    Message('note_on', channel=1, note=57, velocity=41, time=0),
    Message('note_on', channel=1, note=45, velocity=0, time=479),
    Message('note_on', channel=1, note=57, velocity=0, time=0),
    Message('note_on', channel=1, note=43, velocity=41, time=481),
    Message('note_on', channel=1, note=55, velocity=41, time=0),
    Message('note_on', channel=1, note=43, velocity=0, time=479),
    Message('note_on', channel=1, note=55, velocity=0, time=0),
    Message('note_on', channel=1, note=42, velocity=41, time=481),
    Message('note_on', channel=1, note=54, velocity=41, time=0),
    Message('note_on', channel=1, note=42, velocity=0, time=479),
    Message('note_on', channel=1, note=54, velocity=0, time=0),
    Message('note_on', channel=1, note=52, velocity=41, time=1441),
    Message('note_on', channel=1, note=52, velocity=0, time=159),
    Message('note_on', channel=1, note=59, velocity=41, time=1),
    Message('note_on', channel=1, note=59, velocity=0, time=159),
    Message('note_on', channel=1, note=64, velocity=41, time=1),
    Message('note_on', channel=1, note=64, velocity=0, time=159),
    Message('note_on', channel=1, note=61, velocity=41, time=1441),
    Message('note_on', channel=1, note=61, velocity=0, time=159),
    Message('note_on', channel=1, note=68, velocity=41, time=1),
    Message('note_on', channel=1, note=68, velocity=0, time=159),
    Message('note_on', channel=1, note=73, velocity=41, time=1),
    Message('note_on', channel=1, note=73, velocity=0, time=159),
    Message('note_on', channel=1, note=78, velocity=41, time=481),
    Message('note_on', channel=1, note=78, velocity=0, time=239),
    Message('note_on', channel=1, note=45, velocity=41, time=721),
    Message('note_on', channel=1, note=57, velocity=41, time=0),
    Message('note_on', channel=1, note=45, velocity=0, time=479),
    Message('note_on', channel=1, note=57, velocity=0, time=0),
    Message('note_on', channel=1, note=43, velocity=41, time=481),
    Message('note_on', channel=1, note=55, velocity=41, time=0),
    Message('note_on', channel=1, note=43, velocity=0, time=479),
    Message('note_on', channel=1, note=55, velocity=0, time=0),
    Message('note_on', channel=1, note=42, velocity=41, time=481),
    Message('note_on', channel=1, note=54, velocity=41, time=0),
    Message('note_on', channel=1, note=42, velocity=0, time=479),
    Message('note_on', channel=1, note=54, velocity=0, time=0),
    Message('note_on', channel=1, note=52, velocity=41, time=1441),
    Message('note_on', channel=1, note=52, velocity=0, time=159),
    Message('note_on', channel=1, note=59, velocity=41, time=1),
    Message('note_on', channel=1, note=59, velocity=0, time=159),
    Message('note_on', channel=1, note=64, velocity=41, time=1),
    Message('note_on', channel=1, note=64, velocity=0, time=159),
    Message('note_on', channel=1, note=50, velocity=45, time=481),
    Message('note_on', channel=1, note=50, velocity=0, time=159),
    Message('note_on', channel=1, note=55, velocity=46, time=1),
    Message('note_on', channel=1, note=55, velocity=0, time=159),
    Message('note_on', channel=1, note=59, velocity=47, time=1),
    Message('note_on', channel=1, note=59, velocity=0, time=159),
    Message('note_on', channel=1, note=47, velocity=96, time=17761),
    Message('note_on', channel=1, note=47, velocity=0, time=119),
    Message('note_on', channel=1, note=50, velocity=96, time=1),
    Message('note_on', channel=1, note=50, velocity=0, time=119),
    Message('note_on', channel=1, note=54, velocity=96, time=1),
    Message('note_on', channel=1, note=54, velocity=0, time=119),
    Message('note_on', channel=1, note=59, velocity=96, time=1),
    Message('note_on', channel=1, note=59, velocity=0, time=119),
    Message('note_on', channel=1, note=62, velocity=96, time=961),
    Message('note_on', channel=1, note=62, velocity=0, time=119),
    Message('note_on', channel=1, note=59, velocity=96, time=1),
    Message('note_on', channel=1, note=59, velocity=0, time=119),
    Message('note_on', channel=1, note=54, velocity=96, time=1),
    Message('note_on', channel=1, note=54, velocity=0, time=119),
    Message('note_on', channel=1, note=50, velocity=96, time=1),
    Message('note_on', channel=1, note=50, velocity=0, time=119),
    Message('note_on', channel=1, note=45, velocity=96, time=1),
    Message('note_on', channel=1, note=45, velocity=0, time=479),
    Message('note_on', channel=1, note=45, velocity=96, time=481),
    Message('note_on', channel=1, note=45, velocity=0, time=106),
    Message('note_on', channel=1, note=49, velocity=96, time=1),
    Message('note_on', channel=1, note=49, velocity=0, time=106),
    Message('note_on', channel=1, note=52, velocity=96, time=0),
    Message('note_on', channel=1, note=52, velocity=0, time=106),
    Message('note_on', channel=1, note=57, velocity=96, time=1),
    Message('note_on', channel=1, note=57, velocity=0, time=106),
    Message('note_on', channel=1, note=61, velocity=96, time=1),
    Message('note_on', channel=1, note=61, velocity=0, time=106),
    Message('note_on', channel=1, note=64, velocity=96, time=0),
    Message('note_on', channel=1, note=64, velocity=0, time=106),
    Message('note_on', channel=1, note=69, velocity=96, time=1),
    Message('note_on', channel=1, note=69, velocity=0, time=106),
    Message('note_on', channel=1, note=73, velocity=96, time=1),
    Message('note_on', channel=1, note=73, velocity=0, time=106),
    Message('note_on', channel=1, note=76, velocity=96, time=0),
    Message('note_on', channel=1, note=76, velocity=0, time=106),
    Message('note_on', channel=1, note=54, velocity=96, time=961),
    Message('note_on', channel=1, note=54, velocity=0, time=119),
    Message('note_on', channel=1, note=57, velocity=96, time=1),
    Message('note_on', channel=1, note=57, velocity=0, time=119),
    Message('note_on', channel=1, note=61, velocity=96, time=1),
    Message('note_on', channel=1, note=61, velocity=0, time=119),
    Message('note_on', channel=1, note=66, velocity=96, time=1),
    Message('note_on', channel=1, note=66, velocity=0, time=119),
    Message('note_on', channel=1, note=69, velocity=96, time=1),
    Message('note_on', channel=1, note=69, velocity=0, time=119),
    Message('note_on', channel=1, note=73, velocity=96, time=1),
    Message('note_on', channel=1, note=73, velocity=0, time=119),
    Message('note_on', channel=1, note=78, velocity=96, time=1),
    Message('note_on', channel=1, note=78, velocity=0, time=119),
    Message('note_on', channel=1, note=81, velocity=96, time=1),
    Message('note_on', channel=1, note=81, velocity=0, time=119),
    Message('note_on', channel=1, note=52, velocity=96, time=961),
    Message('note_on', channel=1, note=52, velocity=0, time=106),
    Message('note_on', channel=1, note=55, velocity=96, time=1),
    Message('note_on', channel=1, note=55, velocity=0, time=106),
    Message('note_on', channel=1, note=59, velocity=96, time=0),
    Message('note_on', channel=1, note=59, velocity=0, time=106),
    Message('note_on', channel=1, note=64, velocity=96, time=1),
    Message('note_on', channel=1, note=64, velocity=0, time=106),
    Message('note_on', channel=1, note=67, velocity=96, time=1),
    Message('note_on', channel=1, note=67, velocity=0, time=106),
    Message('note_on', channel=1, note=71, velocity=96, time=0),
    Message('note_on', channel=1, note=71, velocity=0, time=106),
    Message('note_on', channel=1, note=76, velocity=96, time=1),
    Message('note_on', channel=1, note=76, velocity=0, time=106),
    Message('note_on', channel=1, note=79, velocity=96, time=1),
    Message('note_on', channel=1, note=79, velocity=0, time=106),
    Message('note_on', channel=1, note=83, velocity=96, time=0),
    Message('note_on', channel=1, note=83, velocity=0, time=106),
    Message('note_on', channel=1, note=66, velocity=96, time=961),
    Message('note_on', channel=1, note=66, velocity=0, time=239),
    Message('note_on', channel=1, note=54, velocity=96, time=241),
    Message('note_on', channel=1, note=54, velocity=0, time=239),
    Message('note_on', channel=1, note=45, velocity=96, time=241),
    Message('note_on', channel=1, note=45, velocity=0, time=479),
    Message('note_on', channel=1, note=45, velocity=96, time=481),
    Message('note_on', channel=1, note=45, velocity=0, time=106),
    Message('note_on', channel=1, note=49, velocity=96, time=1),
    Message('note_on', channel=1, note=49, velocity=0, time=106),
    Message('note_on', channel=1, note=52, velocity=96, time=0),
    Message('note_on', channel=1, note=52, velocity=0, time=106),
    Message('note_on', channel=1, note=57, velocity=96, time=1),
    Message('note_on', channel=1, note=57, velocity=0, time=106),
    Message('note_on', channel=1, note=61, velocity=96, time=1),
    Message('note_on', channel=1, note=61, velocity=0, time=106),
    Message('note_on', channel=1, note=64, velocity=96, time=0),
    Message('note_on', channel=1, note=64, velocity=0, time=106),
    Message('note_on', channel=1, note=69, velocity=96, time=1),
    Message('note_on', channel=1, note=69, velocity=0, time=106),
    Message('note_on', channel=1, note=73, velocity=96, time=1),
    Message('note_on', channel=1, note=73, velocity=0, time=106),
    Message('note_on', channel=1, note=76, velocity=96, time=0),
    Message('note_on', channel=1, note=76, velocity=0, time=106),
    Message('note_on', channel=1, note=54, velocity=96, time=961),
    Message('note_on', channel=1, note=54, velocity=0, time=119),
    Message('note_on', channel=1, note=57, velocity=96, time=1),
    Message('note_on', channel=1, note=57, velocity=0, time=119),
    Message('note_on', channel=1, note=61, velocity=96, time=1),
    Message('note_on', channel=1, note=61, velocity=0, time=119),
    Message('note_on', channel=1, note=66, velocity=96, time=1),
    Message('note_on', channel=1, note=66, velocity=0, time=119),
    Message('note_on', channel=1, note=69, velocity=96, time=1),
    Message('note_on', channel=1, note=69, velocity=0, time=119),
    Message('note_on', channel=1, note=73, velocity=96, time=1),
    Message('note_on', channel=1, note=73, velocity=0, time=119),
    Message('note_on', channel=1, note=78, velocity=96, time=1),
    Message('note_on', channel=1, note=78, velocity=0, time=119),
    Message('note_on', channel=1, note=81, velocity=96, time=1),
    Message('note_on', channel=1, note=81, velocity=0, time=119),
    Message('note_on', channel=1, note=50, velocity=96, time=961),
    Message('note_on', channel=1, note=50, velocity=0, time=79),
    Message('note_on', channel=1, note=53, velocity=96, time=1),
    Message('note_on', channel=1, note=53, velocity=0, time=79),
    Message('note_on', channel=1, note=55, velocity=96, time=1),
    Message('note_on', channel=1, note=55, velocity=0, time=79),
    Message('note_on', channel=1, note=59, velocity=96, time=1),
    Message('note_on', channel=1, note=59, velocity=0, time=79),
    Message('note_on', channel=1, note=62, velocity=96, time=1),
    Message('note_on', channel=1, note=62, velocity=0, time=79),
    Message('note_on', channel=1, note=65, velocity=96, time=1),
    Message('note_on', channel=1, note=65, velocity=0, time=79),
    Message('note_on', channel=1, note=67, velocity=96, time=1),
    Message('note_on', channel=1, note=67, velocity=0, time=79),
    Message('note_on', channel=1, note=71, velocity=96, time=1),
    Message('note_on', channel=1, note=71, velocity=0, time=79),
    Message('note_on', channel=1, note=74, velocity=96, time=1),
    Message('note_on', channel=1, note=74, velocity=0, time=79),
    Message('note_on', channel=1, note=77, velocity=96, time=1),
    Message('note_on', channel=1, note=77, velocity=0, time=79),
    Message('note_on', channel=1, note=79, velocity=96, time=1),
    Message('note_on', channel=1, note=79, velocity=0, time=79),
    Message('note_on', channel=1, note=83, velocity=96, time=1),
    Message('note_on', channel=1, note=83, velocity=0, time=79),
    Message('note_on', channel=1, note=52, velocity=96, time=2881),
    Message('note_on', channel=1, note=52, velocity=0, time=106),
    Message('note_on', channel=1, note=55, velocity=96, time=1),
    Message('note_on', channel=1, note=55, velocity=0, time=106),
    Message('note_on', channel=1, note=59, velocity=96, time=0),
    Message('note_on', channel=1, note=59, velocity=0, time=106),
    Message('note_on', channel=1, note=64, velocity=96, time=1),
    Message('note_on', channel=1, note=64, velocity=0, time=106),
    Message('note_on', channel=1, note=67, velocity=96, time=1),
    Message('note_on', channel=1, note=67, velocity=0, time=106),
    Message('note_on', channel=1, note=71, velocity=96, time=0),
    Message('note_on', channel=1, note=71, velocity=0, time=106),
    Message('note_on', channel=1, note=76, velocity=96, time=1),
    Message('note_on', channel=1, note=76, velocity=0, time=106),
    Message('note_on', channel=1, note=79, velocity=96, time=1),
    Message('note_on', channel=1, note=79, velocity=0, time=106),
    Message('note_on', channel=1, note=83, velocity=96, time=0),
    Message('note_on', channel=1, note=83, velocity=0, time=106),
    Message('note_on', channel=1, note=52, velocity=96, time=2881),
    Message('note_on', channel=1, note=52, velocity=0, time=106),
    Message('note_on', channel=1, note=55, velocity=96, time=1),
    Message('note_on', channel=1, note=55, velocity=0, time=106),
    Message('note_on', channel=1, note=59, velocity=96, time=0),
    Message('note_on', channel=1, note=59, velocity=0, time=106),
    Message('note_on', channel=1, note=64, velocity=96, time=1),
    Message('note_on', channel=1, note=64, velocity=0, time=106),
    Message('note_on', channel=1, note=67, velocity=96, time=1),
    Message('note_on', channel=1, note=67, velocity=0, time=106),
    Message('note_on', channel=1, note=71, velocity=96, time=0),
    Message('note_on', channel=1, note=71, velocity=0, time=106),
    Message('note_on', channel=1, note=76, velocity=96, time=1),
    Message('note_on', channel=1, note=76, velocity=0, time=106),
    Message('note_on', channel=1, note=79, velocity=96, time=1),
    Message('note_on', channel=1, note=79, velocity=0, time=106),
    Message('note_on', channel=1, note=83, velocity=96, time=0),
    Message('note_on', channel=1, note=83, velocity=0, time=106),
    Message('note_on', channel=1, note=60, velocity=96, time=3841),
    Message('note_on', channel=1, note=64, velocity=96, time=0),
    Message('note_on', channel=1, note=67, velocity=96, time=0),
    Message('note_on', channel=1, note=60, velocity=0, time=479),
    Message('note_on', channel=1, note=64, velocity=0, time=0),
    Message('note_on', channel=1, note=67, velocity=0, time=0),
    MetaMessage('end_of_track', time=1)]),
  MidiTrack([
    MetaMessage('track_name', name='Violins 1\x00', time=0),
    MetaMessage('key_signature', key='D', time=0),
    Message('control_change', channel=4, control=121, value=0, time=0),
    Message('program_change', channel=4, program=48, time=0),
    Message('control_change', channel=4, control=7, value=100, time=0),
    Message('control_change', channel=4, control=10, value=64, time=0),
    Message('control_change', channel=4, control=91, value=0, time=0),
    Message('control_change', channel=4, control=93, value=0, time=0),
    MetaMessage('midi_port', port=1, time=0),
    Message('note_on', channel=4, note=66, velocity=112, time=0),
    Message('control_change', channel=4, control=2, value=112, time=0),
    Message('control_change', channel=5, control=121, value=0, time=0),
    Message('program_change', channel=5, program=45, time=0),
    Message('control_change', channel=5, control=7, value=100, time=0),
    Message('control_change', channel=5, control=10, value=64, time=0),
    Message('control_change', channel=5, control=91, value=0, time=0),
    Message('control_change', channel=5, control=93, value=0, time=0),
    MetaMessage('midi_port', port=1, time=0),
    Message('control_change', channel=6, control=121, value=0, time=0),
    Message('program_change', channel=6, program=44, time=0),
    Message('control_change', channel=6, control=7, value=100, time=0),
    Message('control_change', channel=6, control=10, value=64, time=0),
    Message('control_change', channel=6, control=91, value=0, time=0),
    Message('control_change', channel=6, control=93, value=0, time=0),
    MetaMessage('midi_port', port=1, time=0),
    Message('control_change', channel=4, control=2, value=111, time=31),
    Message('note_on', channel=4, note=66, velocity=0, time=27),
    Message('note_on', channel=4, note=66, velocity=111, time=1),
    Message('control_change', channel=4, control=2, value=110, time=2),
    Message('control_change', channel=4, control=2, value=109, time=31),
    Message('note_on', channel=4, note=66, velocity=0, time=25),
    Message('note_on', channel=4, note=66, velocity=109, time=2),
    Message('control_change', channel=4, control=2, value=108, time=3),
    Message('control_change', channel=4, control=2, value=107, time=31),
    Message('note_on', channel=4, note=66, velocity=0, time=24),
    Message('note_on', channel=4, note=66, velocity=107, time=1),
    Message('control_change', channel=4, control=2, value=106, time=5),
    Message('control_change', channel=4, control=2, value=105, time=31),
    Message('note_on', channel=4, note=66, velocity=0, time=22),
    Message('note_on', channel=4, note=66, velocity=105, time=2),
    Message('control_change', channel=4, control=2, value=104, time=6),
    Message('control_change', channel=4, control=2, value=103, time=31),
    Message('note_on', channel=4, note=66, velocity=0, time=21),
    Message('note_on', channel=4, note=66, velocity=103, time=1),
    Message('control_change', channel=4, control=2, value=102, time=8),
    Message('control_change', channel=4, control=2, value=101, time=31),
    Message('note_on', channel=4, note=66, velocity=0, time=19),
    Message('note_on', channel=4, note=66, velocity=101, time=2),
    Message('control_change', channel=4, control=2, value=100, time=9),
    Message('control_change', channel=4, control=2, value=99, time=31),
    Message('note_on', channel=4, note=66, velocity=0, time=18),
    Message('note_on', channel=4, note=66, velocity=99, time=1),
    Message('control_change', channel=4, control=2, value=98, time=11),
    Message('control_change', channel=4, control=2, value=97, time=31),
    Message('note_on', channel=4, note=66, velocity=0, time=16),
    Message('note_on', channel=4, note=66, velocity=97, time=2),
    Message('control_change', channel=4, control=2, value=96, time=12),
    Message('control_change', channel=4, control=2, value=95, time=31),
    Message('note_on', channel=4, note=66, velocity=0, time=15),
    Message('note_on', channel=4, note=66, velocity=95, time=1),
    Message('control_change', channel=4, control=2, value=94, time=14),
    Message('control_change', channel=4, control=2, value=93, time=31),
    Message('note_on', channel=4, note=66, velocity=0, time=13),
    Message('note_on', channel=4, note=66, velocity=93, time=2),
    Message('control_change', channel=4, control=2, value=92, time=15),
    Message('control_change', channel=4, control=2, value=91, time=30),
    Message('note_on', channel=4, note=66, velocity=0, time=13),
    Message('note_on', channel=4, note=66, velocity=91, time=1),
    Message('control_change', channel=4, control=2, value=90, time=17),
    Message('control_change', channel=4, control=2, value=89, time=30),
    Message('note_on', channel=4, note=66, velocity=0, time=11),
    Message('note_on', channel=4, note=66, velocity=89, time=2),
    Message('control_change', channel=4, control=2, value=88, time=18),
    Message('control_change', channel=4, control=2, value=87, time=30),
    Message('note_on', channel=4, note=66, velocity=0, time=10),
    Message('note_on', channel=4, note=66, velocity=87, time=1),
    Message('control_change', channel=4, control=2, value=86, time=20),
    Message('control_change', channel=4, control=2, value=85, time=30),
    Message('note_on', channel=4, note=66, velocity=0, time=8),
    Message('note_on', channel=4, note=66, velocity=85, time=2),
    Message('control_change', channel=4, control=2, value=84, time=21),
    Message('control_change', channel=4, control=2, value=83, time=30),
    Message('note_on', channel=4, note=66, velocity=0, time=7),
    Message('note_on', channel=4, note=66, velocity=83, time=1),
    Message('control_change', channel=4, control=2, value=82, time=23),
    Message('control_change', channel=4, control=2, value=81, time=30),
    Message('note_on', channel=4, note=66, velocity=0, time=5),
    Message('note_on', channel=4, note=66, velocity=81, time=2),
    Message('control_change', channel=4, control=2, value=80, time=24),
    Message('control_change', channel=4, control=2, value=79, time=30),
    Message('note_on', channel=4, note=66, velocity=0, time=4),
    Message('note_on', channel=4, note=66, velocity=79, time=1),
    Message('control_change', channel=4, control=2, value=78, time=26),
    Message('control_change', channel=4, control=2, value=77, time=30),
    Message('note_on', channel=4, note=66, velocity=0, time=2),
    Message('note_on', channel=4, note=66, velocity=77, time=2),
    Message('control_change', channel=4, control=2, value=76, time=27),
    Message('control_change', channel=4, control=2, value=75, time=30),
    Message('note_on', channel=4, note=66, velocity=0, time=1),
    Message('note_on', channel=4, note=66, velocity=75, time=1),
    Message('control_change', channel=4, control=2, value=74, time=29),
    Message('note_on', channel=4, note=66, velocity=0, time=29),
    Message('control_change', channel=4, control=2, value=73, time=1),
    Message('note_on', channel=4, note=66, velocity=73, time=1),
    Message('control_change', channel=4, control=2, value=72, time=30),
    Message('note_on', channel=4, note=66, velocity=0, time=28),
    Message('note_on', channel=4, note=66, velocity=72, time=1),
    Message('control_change', channel=4, control=2, value=71, time=1),
    Message('control_change', channel=4, control=2, value=70, time=30),
    Message('note_on', channel=4, note=66, velocity=0, time=27),
    Message('note_on', channel=4, note=66, velocity=70, time=2),
    Message('control_change', channel=4, control=2, value=69, time=2),
    Message('control_change', channel=4, control=2, value=68, time=30),
    Message('note_on', channel=4, note=66, velocity=0, time=26),
    Message('note_on', channel=4, note=66, velocity=68, time=1),
    Message('control_change', channel=4, control=2, value=67, time=4),
    Message('control_change', channel=4, control=2, value=66, time=30),
    Message('note_on', channel=4, note=66, velocity=0, time=24),
    Message('note_on', channel=4, note=66, velocity=66, time=2),
    Message('control_change', channel=4, control=2, value=65, time=5),
    Message('control_change', channel=4, control=2, value=64, time=30),
    Message('note_on', channel=4, note=66, velocity=0, time=23),
    Message('note_on', channel=4, note=66, velocity=64, time=2),
    Message('control_change', channel=4, control=2, value=63, time=6),
    Message('control_change', channel=4, control=2, value=62, time=30),
    Message('note_on', channel=4, note=66, velocity=0, time=22),
    Message('note_on', channel=4, note=66, velocity=62, time=1),
    Message('control_change', channel=4, control=2, value=61, time=8),
    Message('control_change', channel=4, control=2, value=60, time=30),
    Message('note_on', channel=4, note=66, velocity=0, time=20),
    Message('note_on', channel=4, note=66, velocity=60, time=2),
    Message('control_change', channel=4, control=2, value=59, time=9),
    Message('control_change', channel=4, control=2, value=58, time=30),
    Message('note_on', channel=4, note=66, velocity=0, time=19),
    Message('note_on', channel=4, note=66, velocity=58, time=1),
    Message('control_change', channel=4, control=2, value=57, time=11),
    Message('control_change', channel=4, control=2, value=56, time=30),
    Message('note_on', channel=4, note=66, velocity=0, time=17),
    Message('note_on', channel=4, note=66, velocity=56, time=2),
    Message('control_change', channel=4, control=2, value=55, time=12),
    Message('control_change', channel=4, control=2, value=54, time=30),
    Message('note_on', channel=4, note=66, velocity=0, time=16),
    Message('note_on', channel=4, note=66, velocity=54, time=1),
    Message('control_change', channel=4, control=2, value=53, time=14),
    Message('control_change', channel=4, control=2, value=52, time=30),
    Message('note_on', channel=4, note=66, velocity=0, time=14),
    Message('note_on', channel=4, note=66, velocity=52, time=2),
    Message('control_change', channel=4, control=2, value=51, time=15),
    Message('control_change', channel=4, control=2, value=50, time=30),
    Message('note_on', channel=4, note=66, velocity=0, time=13),
    Message('control_change', channel=4, control=2, value=49, time=17),
    Message('note_on', channel=4, note=66, velocity=49, time=0),
    Message('note_on', channel=4, note=66, velocity=0, time=58),
    Message('note_on', channel=4, note=66, velocity=49, time=1),
    Message('note_on', channel=4, note=66, velocity=0, time=58),
    Message('note_on', channel=4, note=66, velocity=49, time=2),
    Message('note_on', channel=4, note=66, velocity=0, time=58),
    Message('note_on', channel=4, note=66, velocity=49, time=1),
    Message('note_on', channel=4, note=66, velocity=0, time=58),
    Message('note_on', channel=4, note=66, velocity=49, time=2),
    Message('note_on', channel=4, note=66, velocity=0, time=58),
    Message('note_on', channel=4, note=66, velocity=49, time=1),
    Message('note_on', channel=4, note=66, velocity=0, time=58),
    Message('note_on', channel=4, note=66, velocity=49, time=2),
    Message('note_on', channel=4, note=66, velocity=0, time=58),
    Message('note_on', channel=4, note=66, velocity=49, time=1),
    Message('note_on', channel=4, note=66, velocity=0, time=58),
    Message('note_on', channel=4, note=66, velocity=49, time=2),
    Message('note_on', channel=4, note=66, velocity=0, time=58),
    Message('note_on', channel=4, note=66, velocity=49, time=1),
    Message('note_on', channel=4, note=66, velocity=0, time=58),
    Message('note_on', channel=4, note=66, velocity=49, time=2),
    Message('note_on', channel=4, note=66, velocity=0, time=58),
    Message('note_on', channel=4, note=66, velocity=49, time=1),
    Message('note_on', channel=4, note=66, velocity=0, time=58),
    Message('note_on', channel=4, note=66, velocity=49, time=2),
    Message('note_on', channel=4, note=66, velocity=0, time=58),
    Message('note_on', channel=4, note=66, velocity=49, time=1),
    Message('note_on', channel=4, note=66, velocity=0, time=58),
    Message('note_on', channel=4, note=66, velocity=49, time=2),
    Message('note_on', channel=4, note=66, velocity=0, time=58),
    Message('note_on', channel=4, note=66, velocity=49, time=1),
    Message('note_on', channel=4, note=66, velocity=0, time=58),
    Message('note_on', channel=4, note=67, velocity=49, time=10),
    Message('control_change', channel=4, control=2, value=49, time=0),
    Message('note_on', channel=4, note=67, velocity=0, time=58),
    Message('note_on', channel=4, note=67, velocity=49, time=1),
    Message('note_on', channel=4, note=67, velocity=0, time=58),
    Message('note_on', channel=4, note=67, velocity=49, time=2),
    Message('note_on', channel=4, note=67, velocity=0, time=58),
    Message('note_on', channel=4, note=67, velocity=49, time=1),
    Message('note_on', channel=4, note=67, velocity=0, time=58),
    Message('note_on', channel=4, note=67, velocity=49, time=2),
    Message('note_on', channel=4, note=67, velocity=0, time=58),
    Message('note_on', channel=4, note=67, velocity=49, time=1),
    Message('note_on', channel=4, note=67, velocity=0, time=58),
    Message('note_on', channel=4, note=67, velocity=49, time=2),
    Message('note_on', channel=4, note=67, velocity=0, time=58),
    Message('note_on', channel=4, note=67, velocity=49, time=1),
    Message('note_on', channel=4, note=67, velocity=0, time=58),
    Message('note_on', channel=4, note=67, velocity=49, time=2),
    Message('note_on', channel=4, note=67, velocity=0, time=58),
    Message('note_on', channel=4, note=67, velocity=49, time=1),
    Message('note_on', channel=4, note=67, velocity=0, time=58),
    Message('note_on', channel=4, note=67, velocity=49, time=2),
    Message('note_on', channel=4, note=67, velocity=0, time=58),
    Message('note_on', channel=4, note=67, velocity=49, time=1),
    Message('note_on', channel=4, note=67, velocity=0, time=58),
    Message('note_on', channel=4, note=67, velocity=49, time=2),
    Message('note_on', channel=4, note=67, velocity=0, time=58),
    Message('note_on', channel=4, note=67, velocity=49, time=1),
    Message('note_on', channel=4, note=67, velocity=0, time=58),
    Message('note_on', channel=4, note=67, velocity=49, time=2),
    Message('note_on', channel=4, note=67, velocity=0, time=58),
    Message('note_on', channel=4, note=67, velocity=49, time=1),
    Message('note_on', channel=4, note=67, velocity=0, time=58),
    Message('note_on', channel=4, note=66, velocity=49, time=10),
    Message('control_change', channel=4, control=2, value=49, time=0),
    Message('note_on', channel=4, note=66, velocity=0, time=58),
    Message('note_on', channel=4, note=66, velocity=49, time=1),
    Message('note_on', channel=4, note=66, velocity=0, time=58),
    Message('note_on', channel=4, note=66, velocity=49, time=2),
    Message('note_on', channel=4, note=66, velocity=0, time=58),
    Message('note_on', channel=4, note=66, velocity=49, time=1),
    Message('note_on', channel=4, note=66, velocity=0, time=58),
    Message('note_on', channel=4, note=66, velocity=49, time=2),
    Message('note_on', channel=4, note=66, velocity=0, time=58),
    Message('note_on', channel=4, note=66, velocity=49, time=1),
    Message('note_on', channel=4, note=66, velocity=0, time=58),
    Message('note_on', channel=4, note=66, velocity=49, time=2),
    Message('note_on', channel=4, note=66, velocity=0, time=58),
    Message('note_on', channel=4, note=66, velocity=49, time=1),
    Message('note_on', channel=4, note=66, velocity=0, time=58),
    Message('note_on', channel=4, note=66, velocity=49, time=2),
    Message('note_on', channel=4, note=66, velocity=0, time=58),
    Message('note_on', channel=4, note=66, velocity=49, time=1),
    Message('note_on', channel=4, note=66, velocity=0, time=58),
    Message('note_on', channel=4, note=66, velocity=49, time=2),
    Message('note_on', channel=4, note=66, velocity=0, time=58),
    Message('note_on', channel=4, note=66, velocity=49, time=1),
    Message('note_on', channel=4, note=66, velocity=0, time=58),
    Message('note_on', channel=4, note=66, velocity=49, time=2),
    Message('note_on', channel=4, note=66, velocity=0, time=58),
    Message('note_on', channel=4, note=66, velocity=49, time=1),
    Message('note_on', channel=4, note=66, velocity=0, time=58),
    Message('note_on', channel=4, note=66, velocity=49, time=2),
    Message('note_on', channel=4, note=66, velocity=0, time=58),
    Message('note_on', channel=4, note=66, velocity=49, time=1),
    Message('note_on', channel=4, note=66, velocity=0, time=58),
    Message('note_on', channel=4, note=66, velocity=49, time=2),
    Message('note_on', channel=4, note=66, velocity=0, time=58),
    Message('note_on', channel=4, note=66, velocity=49, time=1),
    Message('note_on', channel=4, note=66, velocity=0, time=58),
    Message('note_on', channel=4, note=66, velocity=49, time=2),
    Message('note_on', channel=4, note=66, velocity=0, time=58),
    Message('note_on', channel=4, note=66, velocity=49, time=1),
    Message('note_on', channel=4, note=66, velocity=0, time=58),
    Message('note_on', channel=4, note=66, velocity=49, time=2),
    Message('note_on', channel=4, note=66, velocity=0, time=58),
    Message('note_on', channel=4, note=66, velocity=49, time=1),
    Message('note_on', channel=4, note=66, velocity=0, time=58),
    Message('note_on', channel=4, note=66, velocity=49, time=2),
    Message('note_on', channel=4, note=66, velocity=0, time=58),
    Message('note_on', channel=4, note=66, velocity=49, time=1),
    Message('note_on', channel=4, note=66, velocity=0, time=58),
    Message('note_on', channel=4, note=66, velocity=49, time=2),
    Message('note_on', channel=4, note=66, velocity=0, time=58),
    Message('note_on', channel=4, note=66, velocity=49, time=2),
    Message('note_on', channel=4, note=66, velocity=0, time=58),
    Message('note_on', channel=4, note=66, velocity=49, time=1),
    Message('note_on', channel=4, note=66, velocity=0, time=58),
    Message('note_on', channel=4, note=66, velocity=49, time=2),
    Message('note_on', channel=4, note=66, velocity=0, time=58),
    Message('note_on', channel=4, note=66, velocity=49, time=1),
    Message('note_on', channel=4, note=66, velocity=0, time=58),
    Message('note_on', channel=4, note=66, velocity=49, time=2),
    Message('note_on', channel=4, note=66, velocity=0, time=58),
    Message('note_on', channel=4, note=66, velocity=49, time=1),
    Message('note_on', channel=4, note=66, velocity=0, time=58),
    Message('note_on', channel=4, note=66, velocity=49, time=2),
    Message('note_on', channel=4, note=66, velocity=0, time=58),
    Message('note_on', channel=4, note=66, velocity=49, time=17),
    Message('control_change', channel=4, control=2, value=49, time=0),
    Message('note_on', channel=4, note=66, velocity=0, time=58),
    Message('note_on', channel=4, note=66, velocity=49, time=1),
    Message('note_on', channel=4, note=66, velocity=0, time=58),
    Message('note_on', channel=4, note=66, velocity=49, time=2),
    Message('note_on', channel=4, note=66, velocity=0, time=58),
    Message('note_on', channel=4, note=66, velocity=49, time=1),
    Message('note_on', channel=4, note=66, velocity=0, time=58),
    Message('note_on', channel=4, note=66, velocity=49, time=2),
    Message('note_on', channel=4, note=66, velocity=0, time=58),
    Message('note_on', channel=4, note=66, velocity=49, time=1),
    Message('note_on', channel=4, note=66, velocity=0, time=58),
    Message('note_on', channel=4, note=66, velocity=49, time=2),
    Message('note_on', channel=4, note=66, velocity=0, time=58),
    Message('note_on', channel=4, note=66, velocity=49, time=1),
    Message('note_on', channel=4, note=66, velocity=0, time=58),
    Message('note_on', channel=4, note=66, velocity=49, time=2),
    Message('note_on', channel=4, note=66, velocity=0, time=58),
    Message('note_on', channel=4, note=66, velocity=49, time=1),
    Message('note_on', channel=4, note=66, velocity=0, time=58),
    Message('note_on', channel=4, note=66, velocity=49, time=2),
    Message('note_on', channel=4, note=66, velocity=0, time=58),
    Message('note_on', channel=4, note=66, velocity=49, time=1),
    Message('note_on', channel=4, note=66, velocity=0, time=58),
    Message('note_on', channel=4, note=66, velocity=49, time=2),
    Message('note_on', channel=4, note=66, velocity=0, time=58),
    Message('note_on', channel=4, note=66, velocity=49, time=1),
    Message('note_on', channel=4, note=66, velocity=0, time=58),
    Message('note_on', channel=4, note=66, velocity=49, time=2),
    Message('note_on', channel=4, note=66, velocity=0, time=58),
    Message('note_on', channel=4, note=66, velocity=49, time=1),
    Message('note_on', channel=4, note=66, velocity=0, time=58),
    Message('note_on', channel=4, note=65, velocity=49, time=10),
    Message('control_change', channel=4, control=2, value=49, time=0),
    Message('note_on', channel=4, note=65, velocity=0, time=59),
    Message('note_on', channel=4, note=65, velocity=49, time=1),
    Message('note_on', channel=4, note=65, velocity=0, time=59),
    Message('note_on', channel=4, note=65, velocity=49, time=1),
    Message('note_on', channel=4, note=65, velocity=0, time=59),
    Message('note_on', channel=4, note=65, velocity=49, time=1),
    Message('note_on', channel=4, note=65, velocity=0, time=59),
    Message('note_on', channel=4, note=65, velocity=49, time=1),
    Message('note_on', channel=4, note=65, velocity=0, time=59),
    Message('note_on', channel=4, note=65, velocity=49, time=1),
    Message('note_on', channel=4, note=65, velocity=0, time=59),
    Message('note_on', channel=4, note=65, velocity=49, time=1),
    Message('note_on', channel=4, note=65, velocity=0, time=59),
    Message('note_on', channel=4, note=65, velocity=49, time=1),
    Message('note_on', channel=4, note=65, velocity=0, time=59),
    Message('note_on', channel=4, note=64, velocity=49, time=1),
    Message('control_change', channel=4, control=2, value=49, time=0),
    Message('note_on', channel=4, note=64, velocity=0, time=59),
    Message('note_on', channel=4, note=64, velocity=49, time=1),
    Message('note_on', channel=4, note=64, velocity=0, time=59),
    Message('note_on', channel=4, note=64, velocity=49, time=1),
    Message('note_on', channel=4, note=64, velocity=0, time=59),
    Message('note_on', channel=4, note=64, velocity=49, time=1),
    Message('note_on', channel=4, note=64, velocity=0, time=59),
    Message('note_on', channel=4, note=64, velocity=49, time=1),
    Message('note_on', channel=4, note=64, velocity=0, time=59),
    Message('note_on', channel=4, note=64, velocity=49, time=1),
    Message('note_on', channel=4, note=64, velocity=0, time=59),
    Message('note_on', channel=4, note=64, velocity=49, time=1),
    Message('note_on', channel=4, note=64, velocity=0, time=59),
    Message('note_on', channel=4, note=64, velocity=49, time=1),
    Message('note_on', channel=4, note=64, velocity=0, time=59),
    Message('note_on', channel=4, note=62, velocity=49, time=1),
    Message('control_change', channel=4, control=2, value=49, time=0),
    Message('note_on', channel=4, note=62, velocity=0, time=59),
    Message('note_on', channel=4, note=62, velocity=49, time=1),
    Message('note_on', channel=4, note=62, velocity=0, time=59),
    Message('note_on', channel=4, note=62, velocity=49, time=1),
    Message('note_on', channel=4, note=62, velocity=0, time=59),
    Message('note_on', channel=4, note=62, velocity=49, time=1),
    Message('note_on', channel=4, note=62, velocity=0, time=59),
    Message('note_on', channel=4, note=62, velocity=49, time=1),
    Message('note_on', channel=4, note=62, velocity=0, time=59),
    Message('note_on', channel=4, note=62, velocity=49, time=1),
    Message('note_on', channel=4, note=62, velocity=0, time=59),
    Message('note_on', channel=4, note=62, velocity=49, time=1),
    Message('note_on', channel=4, note=62, velocity=0, time=59),
    Message('note_on', channel=4, note=62, velocity=49, time=1),
    Message('note_on', channel=4, note=62, velocity=0, time=59),
    Message('note_on', channel=4, note=67, velocity=49, time=1),
    Message('control_change', channel=4, control=2, value=49, time=0),
    Message('note_on', channel=4, note=67, velocity=0, time=59),
    Message('note_on', channel=4, note=67, velocity=49, time=1),
    Message('note_on', channel=4, note=67, velocity=0, time=59),
    Message('note_on', channel=4, note=67, velocity=49, time=1),
    Message('note_on', channel=4, note=67, velocity=0, time=59),
    Message('note_on', channel=4, note=67, velocity=49, time=1),
    Message('note_on', channel=4, note=67, velocity=0, time=59),
    Message('note_on', channel=4, note=67, velocity=49, time=1),
    Message('note_on', channel=4, note=67, velocity=0, time=59),
    Message('note_on', channel=4, note=67, velocity=49, time=1),
    Message('note_on', channel=4, note=67, velocity=0, time=59),
    Message('note_on', channel=4, note=67, velocity=49, time=1),
    Message('note_on', channel=4, note=67, velocity=0, time=59),
    Message('note_on', channel=4, note=67, velocity=49, time=1),
    Message('note_on', channel=4, note=67, velocity=0, time=59),
    Message('note_on', channel=4, note=66, velocity=49, time=1),
    Message('control_change', channel=4, control=2, value=49, time=0),
    Message('note_on', channel=4, note=66, velocity=0, time=59),
    Message('note_on', channel=4, note=66, velocity=49, time=1),
    Message('note_on', channel=4, note=66, velocity=0, time=59),
    Message('note_on', channel=4, note=66, velocity=49, time=1),
    Message('note_on', channel=4, note=66, velocity=0, time=59),
    Message('note_on', channel=4, note=66, velocity=49, time=1),
    Message('note_on', channel=4, note=66, velocity=0, time=59),
    Message('note_on', channel=4, note=66, velocity=49, time=1),
    Message('note_on', channel=4, note=66, velocity=0, time=59),
    Message('note_on', channel=4, note=66, velocity=49, time=1),
    Message('note_on', channel=4, note=66, velocity=0, time=59),
    Message('note_on', channel=4, note=66, velocity=49, time=1),
    Message('note_on', channel=4, note=66, velocity=0, time=59),
    Message('note_on', channel=4, note=66, velocity=49, time=1),
    Message('note_on', channel=4, note=66, velocity=0, time=59),
    Message('note_on', channel=4, note=64, velocity=49, time=1),
    Message('control_change', channel=4, control=2, value=49, time=0),
    Message('note_on', channel=4, note=64, velocity=0, time=59),
    Message('note_on', channel=4, note=64, velocity=49, time=1),
    Message('note_on', channel=4, note=64, velocity=0, time=59),
    Message('note_on', channel=4, note=64, velocity=49, time=1),
    Message('note_on', channel=4, note=64, velocity=0, time=59),
    Message('note_on', channel=4, note=64, velocity=49, time=1),
    Message('note_on', channel=4, note=64, velocity=0, time=59),
    Message('note_on', channel=4, note=64, velocity=49, time=1),
    Message('note_on', channel=4, note=64, velocity=0, time=59),
    Message('note_on', channel=4, note=64, velocity=49, time=1),
    Message('note_on', channel=4, note=64, velocity=0, time=59),
    Message('note_on', channel=4, note=64, velocity=49, time=1),
    Message('note_on', channel=4, note=64, velocity=0, time=59),
    Message('note_on', channel=4, note=64, velocity=49, time=1),
    Message('note_on', channel=4, note=64, velocity=0, time=59),
    Message('note_on', channel=4, note=59, velocity=49, time=1),
    Message('control_change', channel=4, control=2, value=49, time=0),
    Message('note_on', channel=4, note=62, velocity=49, time=0),
    Message('note_on', channel=4, note=59, velocity=0, time=58),
    Message('note_on', channel=4, note=62, velocity=0, time=0),
    Message('note_on', channel=4, note=59, velocity=49, time=1),
    Message('note_on', channel=4, note=62, velocity=49, time=0),
    Message('note_on', channel=4, note=59, velocity=0, time=58),
    Message('note_on', channel=4, note=62, velocity=0, time=0),
    Message('note_on', channel=4, note=59, velocity=49, time=2),
    Message('note_on', channel=4, note=62, velocity=49, time=0),
    Message('note_on', channel=4, note=59, velocity=0, time=58),
    Message('note_on', channel=4, note=62, velocity=0, time=0),
    Message('note_on', channel=4, note=59, velocity=49, time=1),
    Message('note_on', channel=4, note=62, velocity=49, time=0),
    Message('note_on', channel=4, note=59, velocity=0, time=58),
    Message('note_on', channel=4, note=62, velocity=0, time=0),
    Message('note_on', channel=4, note=59, velocity=49, time=2),
    Message('note_on', channel=4, note=62, velocity=49, time=0),
    Message('note_on', channel=4, note=59, velocity=0, time=58),
    Message('note_on', channel=4, note=62, velocity=0, time=0),
    Message('note_on', channel=4, note=59, velocity=49, time=1),
    Message('note_on', channel=4, note=62, velocity=49, time=0),
    Message('note_on', channel=4, note=59, velocity=0, time=58),
    Message('note_on', channel=4, note=62, velocity=0, time=0),
    Message('note_on', channel=4, note=59, velocity=49, time=2),
    Message('note_on', channel=4, note=62, velocity=49, time=0),
    Message('note_on', channel=4, note=59, velocity=0, time=58),
    Message('note_on', channel=4, note=62, velocity=0, time=0),
    Message('note_on', channel=4, note=59, velocity=49, time=1),
    Message('note_on', channel=4, note=62, velocity=49, time=0),
    Message('note_on', channel=4, note=59, velocity=0, time=58),
    Message('note_on', channel=4, note=62, velocity=0, time=0),
    Message('note_on', channel=4, note=59, velocity=49, time=2),
    Message('note_on', channel=4, note=62, velocity=49, time=0),
    Message('note_on', channel=4, note=59, velocity=0, time=58),
    Message('note_on', channel=4, note=62, velocity=0, time=0),
    Message('note_on', channel=4, note=59, velocity=49, time=1),
    Message('note_on', channel=4, note=62, velocity=49, time=0),
    Message('note_on', channel=4, note=59, velocity=0, time=58),
    Message('note_on', channel=4, note=62, velocity=0, time=0),
    Message('note_on', channel=4, note=59, velocity=49, time=2),
    Message('note_on', channel=4, note=62, velocity=49, time=0),
    Message('note_on', channel=4, note=59, velocity=0, time=58),
    Message('note_on', channel=4, note=62, velocity=0, time=0),
    Message('note_on', channel=4, note=59, velocity=49, time=1),
    Message('note_on', channel=4, note=62, velocity=49, time=0),
    Message('note_on', channel=4, note=59, velocity=0, time=58),
    Message('note_on', channel=4, note=62, velocity=0, time=0),
    Message('note_on', channel=4, note=59, velocity=49, time=2),
    Message('note_on', channel=4, note=62, velocity=49, time=0),
    Message('note_on', channel=4, note=59, velocity=0, time=58),
    Message('note_on', channel=4, note=62, velocity=0, time=0),
    Message('note_on', channel=4, note=59, velocity=49, time=1),
    Message('note_on', channel=4, note=62, velocity=49, time=0),
    Message('note_on', channel=4, note=59, velocity=0, time=58),
    Message('note_on', channel=4, note=62, velocity=0, time=0),
    Message('note_on', channel=4, note=59, velocity=49, time=2),
    Message('note_on', channel=4, note=62, velocity=49, time=0),
    Message('note_on', channel=4, note=59, velocity=0, time=58),
    Message('note_on', channel=4, note=62, velocity=0, time=0),
    Message('note_on', channel=4, note=59, velocity=49, time=1),
    Message('note_on', channel=4, note=62, velocity=49, time=0),
    Message('note_on', channel=4, note=59, velocity=0, time=58),
    Message('note_on', channel=4, note=62, velocity=0, time=0),
    Message('note_on', channel=4, note=59, velocity=49, time=10),
    Message('control_change', channel=4, control=2, value=49, time=0),
    Message('note_on', channel=4, note=62, velocity=49, time=0),
    Message('note_on', channel=4, note=59, velocity=0, time=59),
    Message('note_on', channel=4, note=62, velocity=0, time=0),
    Message('note_on', channel=4, note=59, velocity=49, time=1),
    Message('note_on', channel=4, note=62, velocity=49, time=0),
    Message('note_on', channel=4, note=59, velocity=0, time=59),
    Message('note_on', channel=4, note=62, velocity=0, time=0),
    Message('note_on', channel=4, note=59, velocity=49, time=1),
    Message('note_on', channel=4, note=62, velocity=49, time=0),
    Message('note_on', channel=4, note=59, velocity=0, time=59),
    Message('note_on', channel=4, note=62, velocity=0, time=0),
    Message('note_on', channel=4, note=59, velocity=49, time=1),
    Message('note_on', channel=4, note=62, velocity=49, time=0),
    Message('note_on', channel=4, note=59, velocity=0, time=59),
    Message('note_on', channel=4, note=62, velocity=0, time=0),
    Message('note_on', channel=4, note=59, velocity=49, time=1),
    Message('note_on', channel=4, note=62, velocity=49, time=0),
    Message('note_on', channel=4, note=59, velocity=0, time=59),
    Message('note_on', channel=4, note=62, velocity=0, time=0),
    Message('note_on', channel=4, note=59, velocity=49, time=1),
    Message('note_on', channel=4, note=62, velocity=49, time=0),
    Message('note_on', channel=4, note=59, velocity=0, time=59),
    Message('note_on', channel=4, note=62, velocity=0, time=0),
    Message('note_on', channel=4, note=59, velocity=49, time=1),
    Message('note_on', channel=4, note=62, velocity=49, time=0),
    Message('note_on', channel=4, note=59, velocity=0, time=59),
    Message('note_on', channel=4, note=62, velocity=0, time=0),
    Message('note_on', channel=4, note=59, velocity=49, time=1),
    Message('note_on', channel=4, note=62, velocity=49, time=0),
    Message('note_on', channel=4, note=59, velocity=0, time=59),
    Message('note_on', channel=4, note=62, velocity=0, time=0),
    Message('note_on', channel=4, note=59, velocity=49, time=1),
    Message('control_change', channel=4, control=2, value=49, time=0),
    Message('note_on', channel=4, note=59, velocity=0, time=59),
    Message('note_on', channel=4, note=59, velocity=49, time=1),
    Message('note_on', channel=4, note=59, velocity=0, time=59),
    Message('note_on', channel=4, note=59, velocity=49, time=1),
    Message('note_on', channel=4, note=59, velocity=0, time=59),
    Message('note_on', channel=4, note=59, velocity=49, time=1),
    Message('note_on', channel=4, note=59, velocity=0, time=59),
    Message('note_on', channel=4, note=59, velocity=49, time=1),
    Message('note_on', channel=4, note=59, velocity=0, time=59),
    Message('note_on', channel=4, note=59, velocity=49, time=1),
    Message('note_on', channel=4, note=59, velocity=0, time=59),
    Message('note_on', channel=4, note=59, velocity=49, time=1),
    Message('note_on', channel=4, note=59, velocity=0, time=59),
    Message('note_on', channel=4, note=59, velocity=49, time=1),
    Message('note_on', channel=4, note=59, velocity=0, time=59),
    Message('note_on', channel=4, note=59, velocity=49, time=1),
    Message('control_change', channel=4, control=2, value=49, time=0),
    Message('note_on', channel=4, note=59, velocity=0, time=59),
    Message('note_on', channel=4, note=59, velocity=49, time=1),
    Message('note_on', channel=4, note=59, velocity=0, time=59),
    Message('note_on', channel=4, note=59, velocity=49, time=1),
    Message('note_on', channel=4, note=59, velocity=0, time=59),
    Message('note_on', channel=4, note=59, velocity=49, time=1),
    Message('note_on', channel=4, note=59, velocity=0, time=59),
    Message('note_on', channel=4, note=59, velocity=49, time=1),
    Message('note_on', channel=4, note=59, velocity=0, time=59),
    Message('note_on', channel=4, note=59, velocity=49, time=1),
    Message('note_on', channel=4, note=59, velocity=0, time=59),
    Message('note_on', channel=4, note=59, velocity=49, time=1),
    Message('note_on', channel=4, note=59, velocity=0, time=59),
    Message('note_on', channel=4, note=59, velocity=49, time=1),
    Message('note_on', channel=4, note=59, velocity=0, time=59),
    Message('note_on', channel=4, note=59, velocity=49, time=1),
    Message('control_change', channel=4, control=2, value=49, time=0),
    Message('note_on', channel=4, note=59, velocity=0, time=59),
    Message('note_on', channel=4, note=59, velocity=49, time=1),
    Message('note_on', channel=4, note=59, velocity=0, time=59),
    Message('note_on', channel=4, note=59, velocity=49, time=1),
    Message('note_on', channel=4, note=59, velocity=0, time=59),
    Message('note_on', channel=4, note=59, velocity=49, time=1),
    Message('note_on', channel=4, note=59, velocity=0, time=59),
    Message('note_on', channel=4, note=59, velocity=49, time=1),
    Message('note_on', channel=4, note=59, velocity=0, time=59),
    Message('note_on', channel=4, note=59, velocity=49, time=1),
    Message('note_on', channel=4, note=59, velocity=0, time=59),
    Message('note_on', channel=4, note=59, velocity=49, time=1),
    Message('note_on', channel=4, note=59, velocity=0, time=59),
    Message('note_on', channel=4, note=59, velocity=49, time=1),
    Message('note_on', channel=4, note=59, velocity=0, time=59),
    Message('note_on', channel=4, note=61, velocity=49, time=1),
    Message('control_change', channel=4, control=2, value=49, time=0),
    Message('note_on', channel=4, note=61, velocity=0, time=59),
    Message('note_on', channel=4, note=61, velocity=49, time=1),
    Message('note_on', channel=4, note=61, velocity=0, time=59),
    Message('note_on', channel=4, note=61, velocity=49, time=1),
    Message('note_on', channel=4, note=61, velocity=0, time=59),
    Message('note_on', channel=4, note=61, velocity=49, time=1),
    Message('note_on', channel=4, note=61, velocity=0, time=59),
    Message('note_on', channel=4, note=61, velocity=49, time=1),
    Message('note_on', channel=4, note=61, velocity=0, time=59),
    Message('note_on', channel=4, note=61, velocity=49, time=1),
    Message('note_on', channel=4, note=61, velocity=0, time=59),
    Message('note_on', channel=4, note=61, velocity=49, time=1),
    Message('note_on', channel=4, note=61, velocity=0, time=59),
    Message('note_on', channel=4, note=61, velocity=49, time=1),
    Message('note_on', channel=4, note=61, velocity=0, time=59),
    Message('note_on', channel=4, note=62, velocity=49, time=1),
    Message('control_change', channel=4, control=2, value=49, time=0),
    Message('note_on', channel=4, note=62, velocity=0, time=59),
    Message('note_on', channel=4, note=62, velocity=49, time=1),
    Message('note_on', channel=4, note=62, velocity=0, time=59),
    Message('note_on', channel=4, note=62, velocity=49, time=1),
    Message('note_on', channel=4, note=62, velocity=0, time=59),
    Message('note_on', channel=4, note=62, velocity=49, time=1),
    Message('note_on', channel=4, note=62, velocity=0, time=59),
    Message('note_on', channel=4, note=62, velocity=49, time=1),
    Message('note_on', channel=4, note=62, velocity=0, time=59),
    Message('note_on', channel=4, note=62, velocity=49, time=1),
    Message('note_on', channel=4, note=62, velocity=0, time=59),
    Message('note_on', channel=4, note=62, velocity=49, time=1),
    Message('note_on', channel=4, note=62, velocity=0, time=59),
    Message('note_on', channel=4, note=62, velocity=49, time=1),
    Message('note_on', channel=4, note=62, velocity=0, time=59),
    Message('note_on', channel=4, note=64, velocity=49, time=1),
    Message('control_change', channel=4, control=2, value=49, time=0),
    Message('note_on', channel=4, note=64, velocity=0, time=59),
    Message('note_on', channel=4, note=64, velocity=49, time=1),
    Message('note_on', channel=4, note=64, velocity=0, time=59),
    Message('note_on', channel=4, note=64, velocity=49, time=1),
    Message('note_on', channel=4, note=64, velocity=0, time=59),
    Message('note_on', channel=4, note=64, velocity=49, time=1),
    Message('note_on', channel=4, note=64, velocity=0, time=59),
    Message('note_on', channel=4, note=64, velocity=49, time=1),
    Message('note_on', channel=4, note=64, velocity=0, time=59),
    Message('note_on', channel=4, note=64, velocity=49, time=1),
    Message('note_on', channel=4, note=64, velocity=0, time=59),
    Message('note_on', channel=4, note=64, velocity=49, time=1),
    Message('note_on', channel=4, note=64, velocity=0, time=59),
    Message('note_on', channel=4, note=64, velocity=49, time=1),
    Message('note_on', channel=4, note=64, velocity=0, time=59),
    Message('note_on', channel=4, note=62, velocity=49, time=1),
    Message('control_change', channel=4, control=2, value=49, time=0),
    Message('note_on', channel=4, note=62, velocity=0, time=59),
    Message('note_on', channel=4, note=62, velocity=49, time=1),
    Message('note_on', channel=4, note=62, velocity=0, time=59),
    Message('note_on', channel=4, note=62, velocity=49, time=1),
    Message('note_on', channel=4, note=62, velocity=0, time=59),
    Message('note_on', channel=4, note=62, velocity=49, time=1),
    Message('note_on', channel=4, note=62, velocity=0, time=59),
    Message('note_on', channel=4, note=62, velocity=49, time=1),
    Message('note_on', channel=4, note=62, velocity=0, time=59),
    Message('note_on', channel=4, note=62, velocity=49, time=1),
    Message('note_on', channel=4, note=62, velocity=0, time=59),
    Message('note_on', channel=4, note=62, velocity=49, time=1),
    Message('note_on', channel=4, note=62, velocity=0, time=59),
    Message('note_on', channel=4, note=62, velocity=49, time=1),
    Message('note_on', channel=4, note=62, velocity=0, time=59),
    Message('note_on', channel=4, note=62, velocity=49, time=1),
    Message('control_change', channel=4, control=2, value=49, time=0),
    Message('note_on', channel=4, note=62, velocity=0, time=59),
    Message('note_on', channel=4, note=62, velocity=49, time=1),
    Message('note_on', channel=4, note=62, velocity=0, time=59),
    Message('note_on', channel=4, note=62, velocity=49, time=1),
    Message('note_on', channel=4, note=62, velocity=0, time=59),
    Message('note_on', channel=4, note=62, velocity=49, time=1),
    Message('note_on', channel=4, note=62, velocity=0, time=59),
    Message('note_on', channel=4, note=62, velocity=49, time=1),
    Message('note_on', channel=4, note=62, velocity=0, time=59),
    Message('note_on', channel=4, note=62, velocity=49, time=1),
    Message('note_on', channel=4, note=62, velocity=0, time=59),
    Message('note_on', channel=4, note=62, velocity=49, time=1),
    Message('note_on', channel=4, note=62, velocity=0, time=59),
    Message('note_on', channel=4, note=62, velocity=49, time=1),
    Message('note_on', channel=4, note=62, velocity=0, time=59),
    Message('note_on', channel=4, note=64, velocity=49, time=1),
    Message('control_change', channel=4, control=2, value=49, time=0),
    Message('note_on', channel=4, note=64, velocity=0, time=59),
    Message('note_on', channel=4, note=64, velocity=49, time=1),
    Message('note_on', channel=4, note=64, velocity=0, time=59),
    Message('note_on', channel=4, note=64, velocity=49, time=1),
    Message('note_on', channel=4, note=64, velocity=0, time=59),
    Message('note_on', channel=4, note=64, velocity=49, time=1),
    Message('note_on', channel=4, note=64, velocity=0, time=59),
    Message('note_on', channel=4, note=64, velocity=49, time=1),
    Message('note_on', channel=4, note=64, velocity=0, time=59),
    Message('note_on', channel=4, note=64, velocity=49, time=1),
    Message('note_on', channel=4, note=64, velocity=0, time=59),
    Message('note_on', channel=4, note=64, velocity=49, time=1),
    Message('note_on', channel=4, note=64, velocity=0, time=59),
    Message('note_on', channel=4, note=64, velocity=49, time=1),
    Message('note_on', channel=4, note=64, velocity=0, time=59),
    Message('note_on', channel=4, note=62, velocity=49, time=1),
    Message('control_change', channel=4, control=2, value=49, time=0),
    Message('note_on', channel=4, note=62, velocity=0, time=59),
    Message('note_on', channel=4, note=62, velocity=49, time=1),
    Message('note_on', channel=4, note=62, velocity=0, time=59),
    Message('note_on', channel=4, note=62, velocity=49, time=1),
    Message('note_on', channel=4, note=62, velocity=0, time=59),
    Message('note_on', channel=4, note=62, velocity=49, time=1),
    Message('note_on', channel=4, note=62, velocity=0, time=59),
    Message('note_on', channel=4, note=62, velocity=49, time=1),
    Message('note_on', channel=4, note=62, velocity=0, time=59),
    Message('note_on', channel=4, note=62, velocity=49, time=1),
    Message('note_on', channel=4, note=62, velocity=0, time=59),
    Message('note_on', channel=4, note=62, velocity=49, time=1),
    Message('note_on', channel=4, note=62, velocity=0, time=59),
    Message('note_on', channel=4, note=62, velocity=49, time=1),
    Message('note_on', channel=4, note=62, velocity=0, time=59),
    Message('note_on', channel=4, note=66, velocity=49, time=1),
    Message('control_change', channel=4, control=2, value=49, time=0),
    Message('note_on', channel=4, note=66, velocity=0, time=59),
    Message('note_on', channel=4, note=66, velocity=49, time=1),
    Message('note_on', channel=4, note=66, velocity=0, time=59),
    Message('note_on', channel=4, note=66, velocity=49, time=1),
    Message('note_on', channel=4, note=66, velocity=0, time=59),
    Message('note_on', channel=4, note=66, velocity=49, time=1),
    Message('note_on', channel=4, note=66, velocity=0, time=59),
    Message('note_on', channel=4, note=66, velocity=49, time=1),
    Message('note_on', channel=4, note=66, velocity=0, time=59),
    Message('note_on', channel=4, note=66, velocity=49, time=1),
    Message('note_on', channel=4, note=66, velocity=0, time=59),
    Message('note_on', channel=4, note=66, velocity=49, time=1),
    Message('note_on', channel=4, note=66, velocity=0, time=59),
    Message('note_on', channel=4, note=66, velocity=49, time=1),
    Message('note_on', channel=4, note=66, velocity=0, time=59),
    Message('note_on', channel=4, note=71, velocity=49, time=1),
    Message('control_change', channel=4, control=2, value=49, time=0),
    Message('note_on', channel=4, note=71, velocity=0, time=59),
    Message('note_on', channel=4, note=71, velocity=49, time=1),
    Message('note_on', channel=4, note=71, velocity=0, time=59),
    Message('note_on', channel=4, note=71, velocity=49, time=1),
    Message('note_on', channel=4, note=71, velocity=0, time=59),
    Message('note_on', channel=4, note=71, velocity=49, time=1),
    Message('note_on', channel=4, note=71, velocity=0, time=59),
    Message('note_on', channel=4, note=71, velocity=49, time=1),
    Message('note_on', channel=4, note=71, velocity=0, time=59),
    Message('note_on', channel=4, note=71, velocity=49, time=1),
    Message('note_on', channel=4, note=71, velocity=0, time=59),
    Message('note_on', channel=4, note=71, velocity=49, time=1),
    Message('note_on', channel=4, note=71, velocity=0, time=59),
    Message('note_on', channel=4, note=71, velocity=49, time=1),
    Message('note_on', channel=4, note=71, velocity=0, time=59),
    Message('note_on', channel=4, note=66, velocity=49, time=1),
    Message('control_change', channel=4, control=2, value=49, time=0),
    Message('note_on', channel=4, note=66, velocity=0, time=59),
    Message('note_on', channel=4, note=66, velocity=49, time=1),
    Message('note_on', channel=4, note=66, velocity=0, time=59),
    Message('note_on', channel=4, note=66, velocity=49, time=1),
    Message('note_on', channel=4, note=66, velocity=0, time=59),
    Message('note_on', channel=4, note=66, velocity=49, time=1),
    Message('note_on', channel=4, note=66, velocity=0, time=59),
    Message('note_on', channel=4, note=66, velocity=49, time=1),
    Message('note_on', channel=4, note=66, velocity=0, time=59),
    Message('note_on', channel=4, note=66, velocity=49, time=1),
    Message('note_on', channel=4, note=66, velocity=0, time=59),
    Message('note_on', channel=4, note=66, velocity=49, time=1),
    Message('note_on', channel=4, note=66, velocity=0, time=59),
    Message('note_on', channel=4, note=66, velocity=49, time=1),
    Message('note_on', channel=4, note=66, velocity=0, time=59),
    Message('control_change', channel=4, control=2, value=49, time=1),
    Message('note_on', channel=4, note=69, velocity=49, time=0),
    Message('note_on', channel=4, note=69, velocity=0, time=58),
    Message('note_on', channel=4, note=69, velocity=49, time=1),
    Message('control_change', channel=4, control=2, value=50, time=3),
    Message('note_on', channel=4, note=69, velocity=0, time=55),
    Message('note_on', channel=4, note=69, velocity=50, time=2),
    Message('control_change', channel=4, control=2, value=51, time=5),
    Message('note_on', channel=4, note=69, velocity=0, time=53),
    Message('note_on', channel=4, note=69, velocity=51, time=1),
    Message('control_change', channel=4, control=2, value=52, time=8),
    Message('note_on', channel=4, note=69, velocity=0, time=50),
    Message('note_on', channel=4, note=69, velocity=52, time=2),
    Message('control_change', channel=4, control=2, value=53, time=10),
    Message('note_on', channel=4, note=69, velocity=0, time=48),
    Message('note_on', channel=4, note=69, velocity=53, time=1),
    Message('control_change', channel=4, control=2, value=54, time=13),
    Message('note_on', channel=4, note=69, velocity=0, time=45),
    Message('note_on', channel=4, note=69, velocity=54, time=2),
    Message('control_change', channel=4, control=2, value=55, time=15),
    Message('note_on', channel=4, note=69, velocity=0, time=43),
    Message('note_on', channel=4, note=69, velocity=55, time=1),
    Message('control_change', channel=4, control=2, value=56, time=18),
    Message('note_on', channel=4, note=69, velocity=0, time=40),
    Message('note_on', channel=4, note=69, velocity=56, time=2),
    Message('control_change', channel=4, control=2, value=57, time=20),
    Message('note_on', channel=4, note=69, velocity=0, time=38),
    Message('note_on', channel=4, note=69, velocity=57, time=1),
    Message('control_change', channel=4, control=2, value=58, time=23),
    Message('note_on', channel=4, note=69, velocity=0, time=35),
    Message('note_on', channel=4, note=69, velocity=58, time=2),
    Message('control_change', channel=4, control=2, value=59, time=25),
    Message('note_on', channel=4, note=69, velocity=0, time=33),
    Message('note_on', channel=4, note=69, velocity=59, time=1),
    Message('control_change', channel=4, control=2, value=60, time=28),
    Message('note_on', channel=4, note=69, velocity=0, time=30),
    Message('note_on', channel=4, note=69, velocity=60, time=2),
    Message('control_change', channel=4, control=2, value=61, time=30),
    Message('note_on', channel=4, note=69, velocity=0, time=28),
    Message('note_on', channel=4, note=69, velocity=61, time=1),
    Message('control_change', channel=4, control=2, value=62, time=33),
    Message('note_on', channel=4, note=69, velocity=0, time=25),
    Message('note_on', channel=4, note=69, velocity=62, time=2),
    Message('control_change', channel=4, control=2, value=63, time=35),
    Message('note_on', channel=4, note=69, velocity=0, time=23),
    Message('note_on', channel=4, note=69, velocity=63, time=1),
    Message('control_change', channel=4, control=2, value=64, time=38),
    Message('note_on', channel=4, note=69, velocity=0, time=20),
    Message('note_on', channel=4, note=69, velocity=64, time=2),
    Message('control_change', channel=4, control=2, value=65, time=39),
    Message('note_on', channel=4, note=69, velocity=0, time=19),
    Message('note_on', channel=4, note=69, velocity=65, time=1),
    Message('control_change', channel=4, control=2, value=66, time=42),
    Message('note_on', channel=4, note=69, velocity=0, time=16),
    Message('note_on', channel=4, note=69, velocity=66, time=2),
    Message('control_change', channel=4, control=2, value=67, time=44),
    Message('note_on', channel=4, note=69, velocity=0, time=14),
    Message('note_on', channel=4, note=69, velocity=67, time=1),
    Message('control_change', channel=4, control=2, value=68, time=47),
    Message('note_on', channel=4, note=69, velocity=0, time=11),
    Message('note_on', channel=4, note=69, velocity=68, time=2),
    Message('control_change', channel=4, control=2, value=69, time=49),
    Message('note_on', channel=4, note=69, velocity=0, time=9),
    Message('note_on', channel=4, note=69, velocity=69, time=1),
    Message('control_change', channel=4, control=2, value=70, time=52),
    Message('note_on', channel=4, note=69, velocity=0, time=6),
    Message('note_on', channel=4, note=69, velocity=70, time=2),
    Message('control_change', channel=4, control=2, value=71, time=54),
    Message('note_on', channel=4, note=69, velocity=0, time=4),
    Message('note_on', channel=4, note=69, velocity=71, time=1),
    Message('control_change', channel=4, control=2, value=72, time=57),
    Message('note_on', channel=4, note=69, velocity=0, time=1),
    Message('note_on', channel=4, note=69, velocity=72, time=2),
    Message('note_on', channel=4, note=69, velocity=0, time=58),
    Message('control_change', channel=4, control=2, value=73, time=1),
    Message('note_on', channel=4, note=69, velocity=73, time=1),
    Message('note_on', channel=4, note=69, velocity=0, time=58),
    Message('note_on', channel=4, note=69, velocity=73, time=1),
    Message('control_change', channel=4, control=2, value=74, time=2),
    Message('note_on', channel=4, note=69, velocity=0, time=56),
    Message('note_on', channel=4, note=69, velocity=74, time=2),
    Message('control_change', channel=4, control=2, value=75, time=4),
    Message('note_on', channel=4, note=69, velocity=0, time=54),
    Message('note_on', channel=4, note=69, velocity=75, time=1),
    Message('control_change', channel=4, control=2, value=76, time=7),
    Message('note_on', channel=4, note=69, velocity=0, time=51),
    Message('note_on', channel=4, note=69, velocity=76, time=2),
    Message('control_change', channel=4, control=2, value=77, time=9),
    Message('note_on', channel=4, note=69, velocity=0, time=49),
    Message('note_on', channel=4, note=69, velocity=77, time=1),
    Message('control_change', channel=4, control=2, value=78, time=12),
    Message('note_on', channel=4, note=69, velocity=0, time=46),
    Message('note_on', channel=4, note=69, velocity=78, time=2),
    Message('control_change', channel=4, control=2, value=79, time=14),
    Message('note_on', channel=4, note=69, velocity=0, time=44),
    Message('control_change', channel=4, control=2, value=80, time=17),
    Message('note_on', channel=4, note=69, velocity=80, time=0),
    Message('note_on', channel=4, note=69, velocity=0, time=58),
    Message('note_on', channel=4, note=69, velocity=80, time=1),
    Message('control_change', channel=4, control=2, value=79, time=3),
    Message('note_on', channel=4, note=69, velocity=0, time=55),
    Message('note_on', channel=4, note=69, velocity=79, time=2),
    Message('control_change', channel=4, control=2, value=78, time=5),
    Message('note_on', channel=4, note=69, velocity=0, time=53),
    Message('note_on', channel=4, note=69, velocity=78, time=1),
    Message('control_change', channel=4, control=2, value=77, time=8),
    Message('note_on', channel=4, note=69, velocity=0, time=50),
    Message('note_on', channel=4, note=69, velocity=77, time=2),
    Message('control_change', channel=4, control=2, value=76, time=10),
    Message('note_on', channel=4, note=69, velocity=0, time=48),
    Message('note_on', channel=4, note=69, velocity=76, time=1),
    Message('control_change', channel=4, control=2, value=75, time=13),
    Message('note_on', channel=4, note=69, velocity=0, time=45),
    Message('note_on', channel=4, note=69, velocity=75, time=2),
    Message('control_change', channel=4, control=2, value=74, time=15),
    Message('note_on', channel=4, note=69, velocity=0, time=43),
    Message('note_on', channel=4, note=69, velocity=74, time=1),
    Message('control_change', channel=4, control=2, value=73, time=18),
    Message('note_on', channel=4, note=69, velocity=0, time=40),
    Message('note_on', channel=4, note=69, velocity=73, time=2),
    Message('control_change', channel=4, control=2, value=72, time=20),
    Message('note_on', channel=4, note=69, velocity=0, time=38),
    Message('note_on', channel=4, note=69, velocity=72, time=1),
    Message('control_change', channel=4, control=2, value=71, time=23),
    Message('note_on', channel=4, note=69, velocity=0, time=35),
    Message('note_on', channel=4, note=69, velocity=71, time=2),
    Message('control_change', channel=4, control=2, value=70, time=25),
    Message('note_on', channel=4, note=69, velocity=0, time=33),
    Message('note_on', channel=4, note=69, velocity=70, time=1),
    Message('control_change', channel=4, control=2, value=69, time=28),
    Message('note_on', channel=4, note=69, velocity=0, time=30),
    Message('note_on', channel=4, note=69, velocity=69, time=2),
    Message('control_change', channel=4, control=2, value=68, time=30),
    Message('note_on', channel=4, note=69, velocity=0, time=28),
    Message('note_on', channel=4, note=69, velocity=68, time=1),
    Message('control_change', channel=4, control=2, value=67, time=33),
    Message('note_on', channel=4, note=69, velocity=0, time=25),
    Message('note_on', channel=4, note=69, velocity=67, time=2),
    Message('control_change', channel=4, control=2, value=66, time=35),
    Message('note_on', channel=4, note=69, velocity=0, time=23),
    Message('note_on', channel=4, note=69, velocity=66, time=1),
    Message('control_change', channel=4, control=2, value=65, time=38),
    Message('note_on', channel=4, note=69, velocity=0, time=20),
    Message('note_on', channel=4, note=69, velocity=65, time=2),
    Message('control_change', channel=4, control=2, value=64, time=39),
    Message('note_on', channel=4, note=69, velocity=0, time=19),
    Message('note_on', channel=4, note=69, velocity=64, time=1),
    Message('control_change', channel=4, control=2, value=63, time=42),
    Message('note_on', channel=4, note=69, velocity=0, time=16),
    Message('note_on', channel=4, note=69, velocity=63, time=2),
    Message('control_change', channel=4, control=2, value=62, time=44),
    Message('note_on', channel=4, note=69, velocity=0, time=14),
    Message('note_on', channel=4, note=69, velocity=62, time=1),
    Message('control_change', channel=4, control=2, value=61, time=47),
    Message('note_on', channel=4, note=69, velocity=0, time=11),
    Message('note_on', channel=4, note=69, velocity=61, time=2),
    Message('control_change', channel=4, control=2, value=60, time=49),
    Message('note_on', channel=4, note=69, velocity=0, time=9),
    Message('note_on', channel=4, note=69, velocity=60, time=1),
    Message('control_change', channel=4, control=2, value=59, time=52),
    Message('note_on', channel=4, note=69, velocity=0, time=6),
    Message('note_on', channel=4, note=69, velocity=59, time=2),
    Message('control_change', channel=4, control=2, value=58, time=54),
    Message('note_on', channel=4, note=69, velocity=0, time=4),
    Message('note_on', channel=4, note=69, velocity=58, time=1),
    Message('control_change', channel=4, control=2, value=57, time=57),
    Message('note_on', channel=4, note=69, velocity=0, time=1),
    Message('note_on', channel=4, note=69, velocity=57, time=2),
    Message('note_on', channel=4, note=69, velocity=0, time=58),
    Message('control_change', channel=4, control=2, value=56, time=1),
    Message('note_on', channel=4, note=69, velocity=56, time=1),
    Message('note_on', channel=4, note=69, velocity=0, time=58),
    Message('note_on', channel=4, note=69, velocity=56, time=1),
    Message('control_change', channel=4, control=2, value=55, time=2),
    Message('note_on', channel=4, note=69, velocity=0, time=56),
    Message('note_on', channel=4, note=69, velocity=55, time=2),
    Message('control_change', channel=4, control=2, value=54, time=4),
    Message('note_on', channel=4, note=69, velocity=0, time=54),
    Message('note_on', channel=4, note=69, velocity=54, time=1),
    Message('control_change', channel=4, control=2, value=53, time=7),
    Message('note_on', channel=4, note=69, velocity=0, time=51),
    Message('note_on', channel=4, note=69, velocity=53, time=2),
    Message('control_change', channel=4, control=2, value=52, time=9),
    Message('note_on', channel=4, note=69, velocity=0, time=49),
    Message('note_on', channel=4, note=69, velocity=52, time=1),
    Message('control_change', channel=4, control=2, value=51, time=12),
    Message('note_on', channel=4, note=69, velocity=0, time=46),
    Message('note_on', channel=4, note=69, velocity=51, time=2),
    Message('control_change', channel=4, control=2, value=50, time=14),
    Message('note_on', channel=4, note=69, velocity=0, time=44),
    Message('control_change', channel=4, control=2, value=49, time=17),
    Message('note_on', channel=4, note=71, velocity=49, time=0),
    Message('note_on', channel=4, note=71, velocity=0, time=58),
    Message('note_on', channel=4, note=71, velocity=49, time=1),
    Message('control_change', channel=4, control=2, value=50, time=3),
    Message('note_on', channel=4, note=71, velocity=0, time=55),
    Message('note_on', channel=4, note=71, velocity=50, time=2),
    Message('control_change', channel=4, control=2, value=51, time=5),
    Message('note_on', channel=4, note=71, velocity=0, time=53),
    Message('note_on', channel=4, note=71, velocity=51, time=1),
    Message('control_change', channel=4, control=2, value=52, time=8),
    Message('note_on', channel=4, note=71, velocity=0, time=50),
    Message('note_on', channel=4, note=71, velocity=52, time=2),
    Message('control_change', channel=4, control=2, value=53, time=10),
    Message('note_on', channel=4, note=71, velocity=0, time=48),
    Message('note_on', channel=4, note=71, velocity=53, time=1),
    Message('control_change', channel=4, control=2, value=54, time=13),
    Message('note_on', channel=4, note=71, velocity=0, time=45),
    Message('note_on', channel=4, note=71, velocity=54, time=2),
    Message('control_change', channel=4, control=2, value=55, time=15),
    Message('note_on', channel=4, note=71, velocity=0, time=43),
    Message('note_on', channel=4, note=71, velocity=55, time=1),
    Message('control_change', channel=4, control=2, value=56, time=18),
    Message('note_on', channel=4, note=71, velocity=0, time=40),
    Message('note_on', channel=4, note=71, velocity=56, time=2),
    Message('control_change', channel=4, control=2, value=57, time=20),
    Message('note_on', channel=4, note=71, velocity=0, time=38),
    Message('note_on', channel=4, note=71, velocity=57, time=1),
    Message('control_change', channel=4, control=2, value=58, time=23),
    Message('note_on', channel=4, note=71, velocity=0, time=35),
    Message('note_on', channel=4, note=71, velocity=58, time=2),
    Message('control_change', channel=4, control=2, value=59, time=25),
    Message('note_on', channel=4, note=71, velocity=0, time=33),
    Message('note_on', channel=4, note=71, velocity=59, time=1),
    Message('control_change', channel=4, control=2, value=60, time=28),
    Message('note_on', channel=4, note=71, velocity=0, time=30),
    Message('note_on', channel=4, note=71, velocity=60, time=2),
    Message('control_change', channel=4, control=2, value=61, time=30),
    Message('note_on', channel=4, note=71, velocity=0, time=28),
    Message('note_on', channel=4, note=71, velocity=61, time=1),
    Message('control_change', channel=4, control=2, value=62, time=33),
    Message('note_on', channel=4, note=71, velocity=0, time=25),
    Message('note_on', channel=4, note=71, velocity=62, time=2),
    Message('control_change', channel=4, control=2, value=63, time=35),
    Message('note_on', channel=4, note=71, velocity=0, time=23),
    Message('note_on', channel=4, note=71, velocity=63, time=1),
    Message('control_change', channel=4, control=2, value=64, time=38),
    Message('note_on', channel=4, note=71, velocity=0, time=20),
    Message('note_on', channel=4, note=71, velocity=64, time=2),
    Message('control_change', channel=4, control=2, value=65, time=39),
    Message('note_on', channel=4, note=71, velocity=0, time=19),
    Message('note_on', channel=4, note=71, velocity=65, time=1),
    Message('control_change', channel=4, control=2, value=66, time=42),
    Message('note_on', channel=4, note=71, velocity=0, time=16),
    Message('note_on', channel=4, note=71, velocity=66, time=2),
    Message('control_change', channel=4, control=2, value=67, time=44),
    Message('note_on', channel=4, note=71, velocity=0, time=14),
    Message('note_on', channel=4, note=71, velocity=67, time=1),
    Message('control_change', channel=4, control=2, value=68, time=47),
    Message('note_on', channel=4, note=71, velocity=0, time=11),
    Message('note_on', channel=4, note=71, velocity=68, time=2),
    Message('control_change', channel=4, control=2, value=69, time=49),
    Message('note_on', channel=4, note=71, velocity=0, time=9),
    Message('note_on', channel=4, note=71, velocity=69, time=1),
    Message('control_change', channel=4, control=2, value=70, time=52),
    Message('note_on', channel=4, note=71, velocity=0, time=6),
    Message('note_on', channel=4, note=71, velocity=70, time=2),
    Message('control_change', channel=4, control=2, value=71, time=54),
    Message('note_on', channel=4, note=71, velocity=0, time=4),
    Message('note_on', channel=4, note=71, velocity=71, time=1),
    Message('control_change', channel=4, control=2, value=72, time=57),
    Message('note_on', channel=4, note=71, velocity=0, time=1),
    Message('note_on', channel=4, note=71, velocity=72, time=2),
    Message('note_on', channel=4, note=71, velocity=0, time=58),
    Message('control_change', channel=4, control=2, value=73, time=1),
    Message('note_on', channel=4, note=71, velocity=73, time=1),
    Message('note_on', channel=4, note=71, velocity=0, time=58),
    Message('note_on', channel=4, note=71, velocity=73, time=1),
    Message('control_change', channel=4, control=2, value=74, time=2),
    Message('note_on', channel=4, note=71, velocity=0, time=56),
    Message('note_on', channel=4, note=71, velocity=74, time=2),
    Message('control_change', channel=4, control=2, value=75, time=4),
    Message('note_on', channel=4, note=71, velocity=0, time=54),
    Message('note_on', channel=4, note=71, velocity=75, time=1),
    Message('control_change', channel=4, control=2, value=76, time=7),
    Message('note_on', channel=4, note=71, velocity=0, time=51),
    Message('note_on', channel=4, note=71, velocity=76, time=2),
    Message('control_change', channel=4, control=2, value=77, time=9),
    Message('note_on', channel=4, note=71, velocity=0, time=49),
    Message('note_on', channel=4, note=71, velocity=77, time=1),
    Message('control_change', channel=4, control=2, value=78, time=12),
    Message('note_on', channel=4, note=71, velocity=0, time=46),
    Message('note_on', channel=4, note=71, velocity=78, time=2),
    Message('control_change', channel=4, control=2, value=79, time=14),
    Message('note_on', channel=4, note=71, velocity=0, time=44),
    Message('control_change', channel=4, control=2, value=80, time=17),
    Message('note_on', channel=4, note=73, velocity=80, time=0),
    Message('note_on', channel=4, note=73, velocity=0, time=58),
    Message('note_on', channel=4, note=73, velocity=80, time=1),
    Message('control_change', channel=4, control=2, value=79, time=3),
    Message('note_on', channel=4, note=73, velocity=0, time=55),
    Message('note_on', channel=4, note=73, velocity=79, time=2),
    Message('control_change', channel=4, control=2, value=78, time=5),
    Message('note_on', channel=4, note=73, velocity=0, time=53),
    Message('note_on', channel=4, note=73, velocity=78, time=1),
    Message('control_change', channel=4, control=2, value=77, time=8),
    Message('note_on', channel=4, note=73, velocity=0, time=50),
    Message('note_on', channel=4, note=73, velocity=77, time=2),
    Message('control_change', channel=4, control=2, value=76, time=10),
    Message('note_on', channel=4, note=73, velocity=0, time=48),
    Message('note_on', channel=4, note=73, velocity=76, time=1),
    Message('control_change', channel=4, control=2, value=75, time=13),
    Message('note_on', channel=4, note=73, velocity=0, time=45),
    Message('note_on', channel=4, note=73, velocity=75, time=2),
    Message('control_change', channel=4, control=2, value=74, time=15),
    Message('note_on', channel=4, note=73, velocity=0, time=43),
    Message('note_on', channel=4, note=73, velocity=74, time=1),
    Message('control_change', channel=4, control=2, value=73, time=18),
    Message('note_on', channel=4, note=73, velocity=0, time=40),
    Message('note_on', channel=4, note=73, velocity=73, time=2),
    Message('control_change', channel=4, control=2, value=72, time=20),
    Message('note_on', channel=4, note=73, velocity=0, time=38),
    Message('note_on', channel=4, note=73, velocity=72, time=1),
    Message('control_change', channel=4, control=2, value=71, time=23),
    Message('note_on', channel=4, note=73, velocity=0, time=35),
    Message('note_on', channel=4, note=73, velocity=71, time=2),
    Message('control_change', channel=4, control=2, value=70, time=25),
    Message('note_on', channel=4, note=73, velocity=0, time=33),
    Message('note_on', channel=4, note=73, velocity=70, time=1),
    Message('control_change', channel=4, control=2, value=69, time=28),
    Message('note_on', channel=4, note=73, velocity=0, time=30),
    Message('note_on', channel=4, note=73, velocity=69, time=2),
    Message('control_change', channel=4, control=2, value=68, time=30),
    Message('note_on', channel=4, note=73, velocity=0, time=28),
    Message('note_on', channel=4, note=73, velocity=68, time=1),
    Message('control_change', channel=4, control=2, value=67, time=33),
    Message('note_on', channel=4, note=73, velocity=0, time=25),
    Message('note_on', channel=4, note=73, velocity=67, time=2),
    Message('control_change', channel=4, control=2, value=66, time=35),
    Message('note_on', channel=4, note=73, velocity=0, time=23),
    Message('note_on', channel=4, note=73, velocity=66, time=1),
    Message('control_change', channel=4, control=2, value=65, time=38),
    Message('note_on', channel=4, note=73, velocity=0, time=20),
    Message('note_on', channel=4, note=70, velocity=65, time=10),
    Message('control_change', channel=4, control=2, value=65, time=0),
    Message('control_change', channel=4, control=2, value=64, time=31),
    Message('note_on', channel=4, note=70, velocity=0, time=28),
    Message('note_on', channel=4, note=70, velocity=64, time=1),
    Message('control_change', channel=4, control=2, value=63, time=33),
    Message('note_on', channel=4, note=70, velocity=0, time=26),
    Message('note_on', channel=4, note=70, velocity=63, time=1),
    Message('control_change', channel=4, control=2, value=62, time=35),
    Message('note_on', channel=4, note=70, velocity=0, time=24),
    Message('note_on', channel=4, note=70, velocity=62, time=1),
    Message('control_change', channel=4, control=2, value=61, time=37),
    Message('note_on', channel=4, note=70, velocity=0, time=22),
    Message('note_on', channel=4, note=70, velocity=61, time=1),
    Message('control_change', channel=4, control=2, value=60, time=39),
    Message('note_on', channel=4, note=70, velocity=0, time=20),
    Message('note_on', channel=4, note=70, velocity=60, time=1),
    Message('control_change', channel=4, control=2, value=59, time=41),
    Message('note_on', channel=4, note=70, velocity=0, time=18),
    Message('note_on', channel=4, note=70, velocity=59, time=1),
    Message('control_change', channel=4, control=2, value=58, time=43),
    Message('note_on', channel=4, note=70, velocity=0, time=16),
    Message('note_on', channel=4, note=70, velocity=58, time=1),
    Message('control_change', channel=4, control=2, value=57, time=45),
    Message('note_on', channel=4, note=70, velocity=0, time=14),
    Message('note_on', channel=4, note=66, velocity=57, time=1),
    Message('control_change', channel=4, control=2, value=57, time=0),
    Message('control_change', channel=4, control=2, value=56, time=47),
    Message('note_on', channel=4, note=66, velocity=0, time=12),
    Message('note_on', channel=4, note=66, velocity=56, time=1),
    Message('control_change', channel=4, control=2, value=55, time=49),
    Message('note_on', channel=4, note=66, velocity=0, time=10),
    Message('note_on', channel=4, note=66, velocity=55, time=1),
    Message('control_change', channel=4, control=2, value=54, time=51),
    Message('note_on', channel=4, note=66, velocity=0, time=8),
    Message('note_on', channel=4, note=66, velocity=54, time=1),
    Message('control_change', channel=4, control=2, value=53, time=53),
    Message('note_on', channel=4, note=66, velocity=0, time=6),
    Message('note_on', channel=4, note=66, velocity=53, time=1),
    Message('control_change', channel=4, control=2, value=52, time=55),
    Message('note_on', channel=4, note=66, velocity=0, time=4),
    Message('note_on', channel=4, note=66, velocity=52, time=1),
    Message('control_change', channel=4, control=2, value=51, time=57),
    Message('note_on', channel=4, note=66, velocity=0, time=2),
    Message('note_on', channel=4, note=66, velocity=51, time=1),
    Message('control_change', channel=4, control=2, value=50, time=59),
    Message('note_on', channel=4, note=66, velocity=0, time=0),
    Message('note_on', channel=4, note=66, velocity=50, time=1),
    Message('note_on', channel=4, note=66, velocity=0, time=59),
    Message('control_change', channel=4, control=2, value=49, time=1),
    Message('note_on', channel=4, note=69, velocity=49, time=0),
    Message('note_on', channel=4, note=69, velocity=0, time=58),
    Message('note_on', channel=4, note=69, velocity=49, time=1),
    Message('control_change', channel=4, control=2, value=50, time=3),
    Message('note_on', channel=4, note=69, velocity=0, time=55),
    Message('note_on', channel=4, note=69, velocity=50, time=2),
    Message('control_change', channel=4, control=2, value=51, time=5),
    Message('note_on', channel=4, note=69, velocity=0, time=53),
    Message('note_on', channel=4, note=69, velocity=51, time=1),
    Message('control_change', channel=4, control=2, value=52, time=8),
    Message('note_on', channel=4, note=69, velocity=0, time=50),
    Message('note_on', channel=4, note=69, velocity=52, time=2),
    Message('control_change', channel=4, control=2, value=53, time=10),
    Message('note_on', channel=4, note=69, velocity=0, time=48),
    Message('note_on', channel=4, note=69, velocity=53, time=1),
    Message('control_change', channel=4, control=2, value=54, time=13),
    Message('note_on', channel=4, note=69, velocity=0, time=45),
    Message('note_on', channel=4, note=69, velocity=54, time=2),
    Message('control_change', channel=4, control=2, value=55, time=15),
    Message('note_on', channel=4, note=69, velocity=0, time=43),
    Message('note_on', channel=4, note=69, velocity=55, time=1),
    Message('control_change', channel=4, control=2, value=56, time=18),
    Message('note_on', channel=4, note=69, velocity=0, time=40),
    Message('note_on', channel=4, note=69, velocity=56, time=2),
    Message('control_change', channel=4, control=2, value=57, time=20),
    Message('note_on', channel=4, note=69, velocity=0, time=38),
    Message('note_on', channel=4, note=69, velocity=57, time=1),
    Message('control_change', channel=4, control=2, value=58, time=23),
    Message('note_on', channel=4, note=69, velocity=0, time=35),
    Message('note_on', channel=4, note=69, velocity=58, time=2),
    Message('control_change', channel=4, control=2, value=59, time=25),
    Message('note_on', channel=4, note=69, velocity=0, time=33),
    Message('note_on', channel=4, note=69, velocity=59, time=1),
    Message('control_change', channel=4, control=2, value=60, time=28),
    Message('note_on', channel=4, note=69, velocity=0, time=30),
    Message('note_on', channel=4, note=69, velocity=60, time=2),
    Message('control_change', channel=4, control=2, value=61, time=30),
    Message('note_on', channel=4, note=69, velocity=0, time=28),
    Message('note_on', channel=4, note=69, velocity=61, time=1),
    Message('control_change', channel=4, control=2, value=62, time=33),
    Message('note_on', channel=4, note=69, velocity=0, time=25),
    Message('note_on', channel=4, note=69, velocity=62, time=2),
    Message('control_change', channel=4, control=2, value=63, time=35),
    Message('note_on', channel=4, note=69, velocity=0, time=23),
    Message('note_on', channel=4, note=69, velocity=63, time=1),
    Message('control_change', channel=4, control=2, value=64, time=38),
    Message('note_on', channel=4, note=69, velocity=0, time=20),
    Message('note_on', channel=4, note=69, velocity=64, time=2),
    Message('control_change', channel=4, control=2, value=65, time=39),
    Message('note_on', channel=4, note=69, velocity=0, time=19),
    Message('note_on', channel=4, note=69, velocity=65, time=1),
    Message('control_change', channel=4, control=2, value=66, time=42),
    Message('note_on', channel=4, note=69, velocity=0, time=16),
    Message('note_on', channel=4, note=69, velocity=66, time=2),
    Message('control_change', channel=4, control=2, value=67, time=44),
    Message('note_on', channel=4, note=69, velocity=0, time=14),
    Message('note_on', channel=4, note=69, velocity=67, time=1),
    Message('control_change', channel=4, control=2, value=68, time=47),
    Message('note_on', channel=4, note=69, velocity=0, time=11),
    Message('note_on', channel=4, note=69, velocity=68, time=2),
    Message('control_change', channel=4, control=2, value=69, time=49),
    Message('note_on', channel=4, note=69, velocity=0, time=9),
    Message('note_on', channel=4, note=69, velocity=69, time=1),
    Message('control_change', channel=4, control=2, value=70, time=52),
    Message('note_on', channel=4, note=69, velocity=0, time=6),
    Message('note_on', channel=4, note=69, velocity=70, time=2),
    Message('control_change', channel=4, control=2, value=71, time=54),
    Message('note_on', channel=4, note=69, velocity=0, time=4),
    Message('note_on', channel=4, note=69, velocity=71, time=1),
    Message('control_change', channel=4, control=2, value=72, time=57),
    Message('note_on', channel=4, note=69, velocity=0, time=1),
    Message('note_on', channel=4, note=69, velocity=72, time=2),
    Message('note_on', channel=4, note=69, velocity=0, time=58),
    Message('control_change', channel=4, control=2, value=73, time=1),
    Message('note_on', channel=4, note=69, velocity=73, time=1),
    Message('note_on', channel=4, note=69, velocity=0, time=58),
    Message('note_on', channel=4, note=69, velocity=73, time=1),
    Message('control_change', channel=4, control=2, value=74, time=2),
    Message('note_on', channel=4, note=69, velocity=0, time=56),
    Message('note_on', channel=4, note=69, velocity=74, time=2),
    Message('control_change', channel=4, control=2, value=75, time=4),
    Message('note_on', channel=4, note=69, velocity=0, time=54),
    Message('note_on', channel=4, note=69, velocity=75, time=1),
    Message('control_change', channel=4, control=2, value=76, time=7),
    Message('note_on', channel=4, note=69, velocity=0, time=51),
    Message('note_on', channel=4, note=69, velocity=76, time=2),
    Message('control_change', channel=4, control=2, value=77, time=9),
    Message('note_on', channel=4, note=69, velocity=0, time=49),
    Message('note_on', channel=4, note=69, velocity=77, time=1),
    Message('control_change', channel=4, control=2, value=78, time=12),
    Message('note_on', channel=4, note=69, velocity=0, time=46),
    Message('note_on', channel=4, note=69, velocity=78, time=2),
    Message('control_change', channel=4, control=2, value=79, time=14),
    Message('note_on', channel=4, note=69, velocity=0, time=44),
    Message('control_change', channel=4, control=2, value=80, time=17),
    Message('note_on', channel=4, note=69, velocity=80, time=0),
    Message('note_on', channel=4, note=69, velocity=0, time=58),
    Message('note_on', channel=4, note=69, velocity=80, time=1),
    Message('control_change', channel=4, control=2, value=79, time=3),
    Message('note_on', channel=4, note=69, velocity=0, time=55),
    Message('note_on', channel=4, note=69, velocity=79, time=2),
    Message('control_change', channel=4, control=2, value=78, time=5),
    Message('note_on', channel=4, note=69, velocity=0, time=53),
    Message('note_on', channel=4, note=69, velocity=78, time=1),
    Message('control_change', channel=4, control=2, value=77, time=8),
    Message('note_on', channel=4, note=69, velocity=0, time=50),
    Message('note_on', channel=4, note=69, velocity=77, time=2),
    Message('control_change', channel=4, control=2, value=76, time=10),
    Message('note_on', channel=4, note=69, velocity=0, time=48),
    Message('note_on', channel=4, note=69, velocity=76, time=1),
    Message('control_change', channel=4, control=2, value=75, time=13),
    Message('note_on', channel=4, note=69, velocity=0, time=45),
    Message('note_on', channel=4, note=69, velocity=75, time=2),
    Message('control_change', channel=4, control=2, value=74, time=15),
    Message('note_on', channel=4, note=69, velocity=0, time=43),
    Message('note_on', channel=4, note=69, velocity=74, time=1),
    Message('control_change', channel=4, control=2, value=73, time=18),
    Message('note_on', channel=4, note=69, velocity=0, time=40),
    Message('note_on', channel=4, note=69, velocity=73, time=2),
    Message('control_change', channel=4, control=2, value=72, time=20),
    Message('note_on', channel=4, note=69, velocity=0, time=38),
    Message('note_on', channel=4, note=69, velocity=72, time=1),
    Message('control_change', channel=4, control=2, value=71, time=23),
    Message('note_on', channel=4, note=69, velocity=0, time=35),
    Message('note_on', channel=4, note=69, velocity=71, time=2),
    Message('control_change', channel=4, control=2, value=70, time=25),
    Message('note_on', channel=4, note=69, velocity=0, time=33),
    Message('note_on', channel=4, note=69, velocity=70, time=1),
    Message('control_change', channel=4, control=2, value=69, time=28),
    Message('note_on', channel=4, note=69, velocity=0, time=30),
    Message('note_on', channel=4, note=69, velocity=69, time=2),
    Message('control_change', channel=4, control=2, value=68, time=30),
    Message('note_on', channel=4, note=69, velocity=0, time=28),
    Message('note_on', channel=4, note=69, velocity=68, time=1),
    Message('control_change', channel=4, control=2, value=67, time=33),
    Message('note_on', channel=4, note=69, velocity=0, time=25),
    Message('note_on', channel=4, note=69, velocity=67, time=2),
    Message('control_change', channel=4, control=2, value=66, time=35),
    Message('note_on', channel=4, note=69, velocity=0, time=23),
    Message('note_on', channel=4, note=69, velocity=66, time=1),
    Message('control_change', channel=4, control=2, value=65, time=38),
    Message('note_on', channel=4, note=69, velocity=0, time=20),
    Message('note_on', channel=4, note=69, velocity=65, time=2),
    Message('control_change', channel=4, control=2, value=64, time=39),
    Message('note_on', channel=4, note=69, velocity=0, time=19),
    Message('note_on', channel=4, note=69, velocity=64, time=1),
    Message('control_change', channel=4, control=2, value=63, time=42),
    Message('note_on', channel=4, note=69, velocity=0, time=16),
    Message('note_on', channel=4, note=69, velocity=63, time=2),
    Message('control_change', channel=4, control=2, value=62, time=44),
    Message('note_on', channel=4, note=69, velocity=0, time=14),
    Message('note_on', channel=4, note=69, velocity=62, time=1),
    Message('control_change', channel=4, control=2, value=61, time=47),
    Message('note_on', channel=4, note=69, velocity=0, time=11),
    Message('note_on', channel=4, note=69, velocity=61, time=2),
    Message('control_change', channel=4, control=2, value=60, time=49),
    Message('note_on', channel=4, note=69, velocity=0, time=9),
    Message('note_on', channel=4, note=69, velocity=60, time=1),
    Message('control_change', channel=4, control=2, value=59, time=52),
    Message('note_on', channel=4, note=69, velocity=0, time=6),
    Message('note_on', channel=4, note=69, velocity=59, time=2),
    Message('control_change', channel=4, control=2, value=58, time=54),
    Message('note_on', channel=4, note=69, velocity=0, time=4),
    Message('note_on', channel=4, note=69, velocity=58, time=1),
    Message('control_change', channel=4, control=2, value=57, time=57),
    Message('note_on', channel=4, note=69, velocity=0, time=1),
    Message('note_on', channel=4, note=69, velocity=57, time=2),
    Message('note_on', channel=4, note=69, velocity=0, time=58),
    Message('control_change', channel=4, control=2, value=56, time=1),
    Message('note_on', channel=4, note=69, velocity=56, time=1),
    Message('note_on', channel=4, note=69, velocity=0, time=58),
    Message('note_on', channel=4, note=69, velocity=56, time=1),
    Message('control_change', channel=4, control=2, value=55, time=2),
    Message('note_on', channel=4, note=69, velocity=0, time=56),
    Message('note_on', channel=4, note=69, velocity=55, time=2),
    Message('control_change', channel=4, control=2, value=54, time=4),
    Message('note_on', channel=4, note=69, velocity=0, time=54),
    Message('note_on', channel=4, note=69, velocity=54, time=1),
    Message('control_change', channel=4, control=2, value=53, time=7),
    Message('note_on', channel=4, note=69, velocity=0, time=51),
    Message('note_on', channel=4, note=69, velocity=53, time=2),
    Message('control_change', channel=4, control=2, value=52, time=9),
    Message('note_on', channel=4, note=69, velocity=0, time=49),
    Message('note_on', channel=4, note=69, velocity=52, time=1),
    Message('control_change', channel=4, control=2, value=51, time=12),
    Message('note_on', channel=4, note=69, velocity=0, time=46),
    Message('note_on', channel=4, note=69, velocity=51, time=2),
    Message('control_change', channel=4, control=2, value=50, time=14),
    Message('note_on', channel=4, note=69, velocity=0, time=44),
    Message('control_change', channel=4, control=2, value=49, time=17),
    Message('note_on', channel=4, note=71, velocity=49, time=0),
    Message('note_on', channel=4, note=71, velocity=0, time=58),
    Message('note_on', channel=4, note=71, velocity=49, time=1),
    Message('note_on', channel=4, note=71, velocity=0, time=58),
    Message('note_on', channel=4, note=71, velocity=49, time=2),
    Message('control_change', channel=4, control=2, value=50, time=4),
    Message('note_on', channel=4, note=71, velocity=0, time=54),
    Message('note_on', channel=4, note=71, velocity=50, time=1),
    Message('note_on', channel=4, note=71, velocity=0, time=58),
    Message('note_on', channel=4, note=71, velocity=50, time=2),
    Message('control_change', channel=4, control=2, value=51, time=8),
    Message('note_on', channel=4, note=71, velocity=0, time=50),
    Message('note_on', channel=4, note=71, velocity=51, time=1),
    Message('note_on', channel=4, note=71, velocity=0, time=58),
    Message('note_on', channel=4, note=71, velocity=51, time=2),
    Message('control_change', channel=4, control=2, value=52, time=11),
    Message('note_on', channel=4, note=71, velocity=0, time=47),
    Message('note_on', channel=4, note=71, velocity=52, time=1),
    Message('note_on', channel=4, note=71, velocity=0, time=58),
    Message('note_on', channel=4, note=71, velocity=52, time=2),
    Message('control_change', channel=4, control=2, value=53, time=15),
    Message('note_on', channel=4, note=71, velocity=0, time=43),
    Message('note_on', channel=4, note=71, velocity=53, time=1),
    Message('note_on', channel=4, note=71, velocity=0, time=58),
    Message('note_on', channel=4, note=71, velocity=53, time=2),
    Message('control_change', channel=4, control=2, value=54, time=18),
    Message('note_on', channel=4, note=71, velocity=0, time=40),
    Message('note_on', channel=4, note=71, velocity=54, time=1),
    Message('note_on', channel=4, note=71, velocity=0, time=58),
    Message('note_on', channel=4, note=71, velocity=54, time=2),
    Message('control_change', channel=4, control=2, value=55, time=22),
    Message('note_on', channel=4, note=71, velocity=0, time=36),
    Message('note_on', channel=4, note=71, velocity=55, time=1),
    Message('note_on', channel=4, note=71, velocity=0, time=58),
    Message('note_on', channel=4, note=71, velocity=55, time=2),
    Message('control_change', channel=4, control=2, value=56, time=25),
    Message('note_on', channel=4, note=71, velocity=0, time=33),
    Message('note_on', channel=4, note=71, velocity=56, time=1),
    Message('note_on', channel=4, note=71, velocity=0, time=58),
    Message('note_on', channel=4, note=71, velocity=56, time=2),
    Message('control_change', channel=4, control=2, value=57, time=29),
    Message('note_on', channel=4, note=71, velocity=0, time=29),
    Message('note_on', channel=4, note=71, velocity=57, time=1),
    Message('note_on', channel=4, note=71, velocity=0, time=58),
    Message('note_on', channel=4, note=71, velocity=57, time=2),
    Message('control_change', channel=4, control=2, value=58, time=32),
    Message('note_on', channel=4, note=71, velocity=0, time=26),
    Message('note_on', channel=4, note=71, velocity=58, time=1),
    Message('note_on', channel=4, note=71, velocity=0, time=58),
    Message('note_on', channel=4, note=71, velocity=58, time=2),
    Message('control_change', channel=4, control=2, value=59, time=36),
    Message('note_on', channel=4, note=71, velocity=0, time=22),
    Message('note_on', channel=4, note=71, velocity=59, time=1),
    Message('note_on', channel=4, note=71, velocity=0, time=58),
    Message('note_on', channel=4, note=71, velocity=59, time=2),
    Message('control_change', channel=4, control=2, value=60, time=40),
    Message('note_on', channel=4, note=71, velocity=0, time=18),
    Message('note_on', channel=4, note=71, velocity=60, time=1),
    Message('note_on', channel=4, note=71, velocity=0, time=58),
    Message('note_on', channel=4, note=71, velocity=60, time=2),
    Message('control_change', channel=4, control=2, value=61, time=43),
    Message('note_on', channel=4, note=71, velocity=0, time=15),
    Message('note_on', channel=4, note=71, velocity=61, time=2),
    Message('note_on', channel=4, note=71, velocity=0, time=58),
    Message('note_on', channel=4, note=71, velocity=61, time=1),
    Message('control_change', channel=4, control=2, value=62, time=47),
    Message('note_on', channel=4, note=71, velocity=0, time=11),
    Message('note_on', channel=4, note=71, velocity=62, time=2),
    Message('note_on', channel=4, note=71, velocity=0, time=58),
    Message('note_on', channel=4, note=71, velocity=62, time=1),
    Message('control_change', channel=4, control=2, value=63, time=50),
    Message('note_on', channel=4, note=71, velocity=0, time=8),
    Message('note_on', channel=4, note=71, velocity=63, time=2),
    Message('note_on', channel=4, note=71, velocity=0, time=58),
    Message('note_on', channel=4, note=71, velocity=63, time=1),
    Message('control_change', channel=4, control=2, value=64, time=54),
    Message('note_on', channel=4, note=71, velocity=0, time=4),
    Message('note_on', channel=4, note=71, velocity=64, time=2),
    Message('note_on', channel=4, note=71, velocity=0, time=58),
    Message('note_on', channel=4, note=64, velocity=64, time=17),
    Message('control_change', channel=4, control=2, value=64, time=0),
    Message('note_on', channel=4, note=72, velocity=64, time=0),
    Message('control_change', channel=4, control=2, value=65, time=41),
    Message('note_on', channel=4, note=64, velocity=0, time=17),
    Message('note_on', channel=4, note=72, velocity=0, time=0),
    Message('note_on', channel=4, note=64, velocity=65, time=1),
    Message('note_on', channel=4, note=72, velocity=65, time=0),
    Message('note_on', channel=4, note=64, velocity=0, time=58),
    Message('note_on', channel=4, note=72, velocity=0, time=0),
    Message('note_on', channel=4, note=64, velocity=65, time=2),
    Message('note_on', channel=4, note=72, velocity=65, time=0),
    Message('control_change', channel=4, control=2, value=66, time=45),
    Message('note_on', channel=4, note=64, velocity=0, time=13),
    Message('note_on', channel=4, note=72, velocity=0, time=0),
    Message('note_on', channel=4, note=64, velocity=66, time=1),
    Message('note_on', channel=4, note=72, velocity=66, time=0),
    Message('note_on', channel=4, note=64, velocity=0, time=58),
    Message('note_on', channel=4, note=72, velocity=0, time=0),
    Message('note_on', channel=4, note=64, velocity=66, time=2),
    Message('note_on', channel=4, note=72, velocity=66, time=0),
    Message('control_change', channel=4, control=2, value=67, time=48),
    Message('note_on', channel=4, note=64, velocity=0, time=10),
    Message('note_on', channel=4, note=72, velocity=0, time=0),
    Message('note_on', channel=4, note=64, velocity=67, time=1),
    Message('note_on', channel=4, note=72, velocity=67, time=0),
    Message('note_on', channel=4, note=64, velocity=0, time=58),
    Message('note_on', channel=4, note=72, velocity=0, time=0),
    Message('note_on', channel=4, note=64, velocity=67, time=2),
    Message('note_on', channel=4, note=72, velocity=67, time=0),
    Message('control_change', channel=4, control=2, value=68, time=52),
    Message('note_on', channel=4, note=64, velocity=0, time=6),
    Message('note_on', channel=4, note=72, velocity=0, time=0),
    Message('note_on', channel=4, note=64, velocity=68, time=1),
    Message('note_on', channel=4, note=72, velocity=68, time=0),
    Message('note_on', channel=4, note=64, velocity=0, time=58),
    Message('note_on', channel=4, note=72, velocity=0, time=0),
    Message('note_on', channel=4, note=64, velocity=68, time=2),
    Message('note_on', channel=4, note=72, velocity=68, time=0),
    Message('control_change', channel=4, control=2, value=69, time=56),
    Message('note_on', channel=4, note=64, velocity=0, time=2),
    Message('note_on', channel=4, note=72, velocity=0, time=0),
    Message('note_on', channel=4, note=64, velocity=69, time=1),
    Message('note_on', channel=4, note=72, velocity=69, time=0),
    Message('note_on', channel=4, note=64, velocity=0, time=58),
    Message('note_on', channel=4, note=72, velocity=0, time=0),
    Message('note_on', channel=4, note=64, velocity=69, time=2),
    Message('note_on', channel=4, note=72, velocity=69, time=0),
    Message('note_on', channel=4, note=64, velocity=0, time=58),
    Message('note_on', channel=4, note=72, velocity=0, time=0),
    Message('note_on', channel=4, note=64, velocity=70, time=1),
    Message('control_change', channel=4, control=2, value=70, time=0),
    Message('note_on', channel=4, note=72, velocity=70, time=0),
    Message('note_on', channel=4, note=64, velocity=0, time=58),
    Message('note_on', channel=4, note=72, velocity=0, time=0),
    Message('note_on', channel=4, note=64, velocity=70, time=2),
    Message('note_on', channel=4, note=72, velocity=70, time=0),
    Message('note_on', channel=4, note=64, velocity=0, time=58),
    Message('note_on', channel=4, note=72, velocity=0, time=0),
    Message('note_on', channel=4, note=64, velocity=70, time=1),
    Message('note_on', channel=4, note=72, velocity=70, time=0),
    Message('control_change', channel=4, control=2, value=71, time=4),
    Message('note_on', channel=4, note=64, velocity=0, time=54),
    Message('note_on', channel=4, note=72, velocity=0, time=0),
    Message('note_on', channel=4, note=64, velocity=71, time=2),
    Message('note_on', channel=4, note=72, velocity=71, time=0),
    Message('note_on', channel=4, note=64, velocity=0, time=58),
    Message('note_on', channel=4, note=72, velocity=0, time=0),
    Message('note_on', channel=4, note=64, velocity=71, time=1),
    Message('note_on', channel=4, note=72, velocity=71, time=0),
    Message('control_change', channel=4, control=2, value=72, time=7),
    Message('note_on', channel=4, note=64, velocity=0, time=51),
    Message('note_on', channel=4, note=72, velocity=0, time=0),
    Message('note_on', channel=4, note=64, velocity=72, time=2),
    Message('note_on', channel=4, note=72, velocity=72, time=0),
    Message('note_on', channel=4, note=64, velocity=0, time=58),
    Message('note_on', channel=4, note=72, velocity=0, time=0),
    Message('note_on', channel=4, note=64, velocity=72, time=1),
    Message('note_on', channel=4, note=72, velocity=72, time=0),
    Message('control_change', channel=4, control=2, value=73, time=11),
    Message('note_on', channel=4, note=64, velocity=0, time=47),
    Message('note_on', channel=4, note=72, velocity=0, time=0),
    Message('note_on', channel=4, note=64, velocity=73, time=2),
    Message('note_on', channel=4, note=72, velocity=73, time=0),
    Message('note_on', channel=4, note=64, velocity=0, time=58),
    Message('note_on', channel=4, note=72, velocity=0, time=0),
    Message('note_on', channel=4, note=64, velocity=73, time=1),
    Message('note_on', channel=4, note=72, velocity=73, time=0),
    Message('control_change', channel=4, control=2, value=74, time=14),
    Message('note_on', channel=4, note=64, velocity=0, time=44),
    Message('note_on', channel=4, note=72, velocity=0, time=0),
    Message('note_on', channel=4, note=64, velocity=74, time=2),
    Message('note_on', channel=4, note=72, velocity=74, time=0),
    Message('note_on', channel=4, note=64, velocity=0, time=58),
    Message('note_on', channel=4, note=72, velocity=0, time=0),
    Message('note_on', channel=4, note=64, velocity=74, time=1),
    Message('note_on', channel=4, note=72, velocity=74, time=0),
    Message('control_change', channel=4, control=2, value=75, time=18),
    Message('note_on', channel=4, note=64, velocity=0, time=40),
    Message('note_on', channel=4, note=72, velocity=0, time=0),
    Message('note_on', channel=4, note=64, velocity=75, time=2),
    Message('note_on', channel=4, note=72, velocity=75, time=0),
    Message('note_on', channel=4, note=64, velocity=0, time=58),
    Message('note_on', channel=4, note=72, velocity=0, time=0),
    Message('note_on', channel=4, note=64, velocity=75, time=1),
    Message('note_on', channel=4, note=72, velocity=75, time=0),
    Message('control_change', channel=4, control=2, value=76, time=21),
    Message('note_on', channel=4, note=64, velocity=0, time=37),
    Message('note_on', channel=4, note=72, velocity=0, time=0),
    Message('note_on', channel=4, note=64, velocity=76, time=2),
    Message('note_on', channel=4, note=72, velocity=76, time=0),
    Message('note_on', channel=4, note=64, velocity=0, time=58),
    Message('note_on', channel=4, note=72, velocity=0, time=0),
    Message('note_on', channel=4, note=64, velocity=76, time=2),
    Message('note_on', channel=4, note=72, velocity=76, time=0),
    Message('control_change', channel=4, control=2, value=77, time=24),
    Message('note_on', channel=4, note=64, velocity=0, time=34),
    Message('note_on', channel=4, note=72, velocity=0, time=0),
    Message('note_on', channel=4, note=64, velocity=77, time=1),
    Message('note_on', channel=4, note=72, velocity=77, time=0),
    Message('note_on', channel=4, note=64, velocity=0, time=58),
    Message('note_on', channel=4, note=72, velocity=0, time=0),
    Message('note_on', channel=4, note=64, velocity=77, time=2),
    Message('note_on', channel=4, note=72, velocity=77, time=0),
    Message('control_change', channel=4, control=2, value=78, time=28),
    Message('note_on', channel=4, note=64, velocity=0, time=30),
    Message('note_on', channel=4, note=72, velocity=0, time=0),
    Message('note_on', channel=4, note=64, velocity=78, time=1),
    Message('note_on', channel=4, note=72, velocity=78, time=0),
    Message('note_on', channel=4, note=64, velocity=0, time=58),
    Message('note_on', channel=4, note=72, velocity=0, time=0),
    Message('note_on', channel=4, note=64, velocity=78, time=2),
    Message('note_on', channel=4, note=72, velocity=78, time=0),
    Message('control_change', channel=4, control=2, value=79, time=31),
    Message('note_on', channel=4, note=64, velocity=0, time=27),
    Message('note_on', channel=4, note=72, velocity=0, time=0),
    Message('note_on', channel=4, note=64, velocity=79, time=1),
    Message('note_on', channel=4, note=72, velocity=79, time=0),
    Message('note_on', channel=4, note=64, velocity=0, time=58),
    Message('note_on', channel=4, note=72, velocity=0, time=0),
    Message('note_on', channel=4, note=64, velocity=79, time=2),
    Message('note_on', channel=4, note=72, velocity=79, time=0),
    Message('control_change', channel=4, control=2, value=80, time=35),
    Message('note_on', channel=4, note=64, velocity=0, time=23),
    Message('note_on', channel=4, note=72, velocity=0, time=0),
    Message('note_on', channel=4, note=65, velocity=80, time=17),
    Message('control_change', channel=4, control=2, value=80, time=0),
    Message('note_on', channel=4, note=73, velocity=80, time=0),
    Message('note_on', channel=4, note=65, velocity=0, time=58),
    Message('note_on', channel=4, note=73, velocity=0, time=0),
    Message('note_on', channel=4, note=65, velocity=80, time=1),
    Message('note_on', channel=4, note=73, velocity=80, time=0),
    Message('control_change', channel=4, control=2, value=81, time=23),
    Message('note_on', channel=4, note=65, velocity=0, time=35),
    Message('note_on', channel=4, note=73, velocity=0, time=0),
    Message('note_on', channel=4, note=65, velocity=81, time=2),
    Message('note_on', channel=4, note=73, velocity=81, time=0),
    Message('note_on', channel=4, note=65, velocity=0, time=58),
    Message('note_on', channel=4, note=73, velocity=0, time=0),
    Message('note_on', channel=4, note=65, velocity=81, time=1),
    Message('note_on', channel=4, note=73, velocity=81, time=0),
    Message('control_change', channel=4, control=2, value=82, time=27),
    Message('note_on', channel=4, note=65, velocity=0, time=31),
    Message('note_on', channel=4, note=73, velocity=0, time=0),
    Message('note_on', channel=4, note=65, velocity=82, time=2),
    Message('note_on', channel=4, note=73, velocity=82, time=0),
    Message('note_on', channel=4, note=65, velocity=0, time=58),
    Message('note_on', channel=4, note=73, velocity=0, time=0),
    Message('note_on', channel=4, note=65, velocity=82, time=1),
    Message('note_on', channel=4, note=73, velocity=82, time=0),
    Message('control_change', channel=4, control=2, value=83, time=30),
    Message('note_on', channel=4, note=65, velocity=0, time=28),
    Message('note_on', channel=4, note=73, velocity=0, time=0),
    Message('note_on', channel=4, note=65, velocity=83, time=2),
    Message('note_on', channel=4, note=73, velocity=83, time=0),
    Message('note_on', channel=4, note=65, velocity=0, time=58),
    Message('note_on', channel=4, note=73, velocity=0, time=0),
    Message('note_on', channel=4, note=65, velocity=83, time=1),
    Message('note_on', channel=4, note=73, velocity=83, time=0),
    Message('control_change', channel=4, control=2, value=84, time=34),
    Message('note_on', channel=4, note=65, velocity=0, time=24),
    Message('note_on', channel=4, note=73, velocity=0, time=0),
    Message('note_on', channel=4, note=65, velocity=84, time=2),
    Message('note_on', channel=4, note=73, velocity=84, time=0),
    Message('note_on', channel=4, note=65, velocity=0, time=58),
    Message('note_on', channel=4, note=73, velocity=0, time=0),
    Message('note_on', channel=4, note=65, velocity=84, time=1),
    Message('note_on', channel=4, note=73, velocity=84, time=0),
    Message('control_change', channel=4, control=2, value=85, time=37),
    Message('note_on', channel=4, note=65, velocity=0, time=21),
    Message('note_on', channel=4, note=73, velocity=0, time=0),
    Message('note_on', channel=4, note=65, velocity=85, time=2),
    Message('note_on', channel=4, note=73, velocity=85, time=0),
    Message('note_on', channel=4, note=65, velocity=0, time=58),
    Message('note_on', channel=4, note=73, velocity=0, time=0),
    Message('note_on', channel=4, note=65, velocity=85, time=1),
    Message('note_on', channel=4, note=73, velocity=85, time=0),
    Message('control_change', channel=4, control=2, value=86, time=41),
    Message('note_on', channel=4, note=65, velocity=0, time=17),
    Message('note_on', channel=4, note=73, velocity=0, time=0),
    Message('note_on', channel=4, note=65, velocity=86, time=2),
    Message('note_on', channel=4, note=73, velocity=86, time=0),
    Message('note_on', channel=4, note=65, velocity=0, time=58),
    Message('note_on', channel=4, note=73, velocity=0, time=0),
    Message('note_on', channel=4, note=65, velocity=86, time=1),
    Message('note_on', channel=4, note=73, velocity=86, time=0),
    Message('control_change', channel=4, control=2, value=87, time=45),
    Message('note_on', channel=4, note=65, velocity=0, time=13),
    Message('note_on', channel=4, note=73, velocity=0, time=0),
    Message('note_on', channel=4, note=65, velocity=87, time=2),
    Message('note_on', channel=4, note=73, velocity=87, time=0),
    Message('note_on', channel=4, note=65, velocity=0, time=58),
    Message('note_on', channel=4, note=73, velocity=0, time=0),
    Message('note_on', channel=4, note=65, velocity=87, time=1),
    Message('note_on', channel=4, note=73, velocity=87, time=0),
    Message('control_change', channel=4, control=2, value=88, time=48),
    Message('note_on', channel=4, note=65, velocity=0, time=10),
    Message('note_on', channel=4, note=73, velocity=0, time=0),
    Message('note_on', channel=4, note=64, velocity=88, time=10),
    Message('control_change', channel=4, control=2, value=88, time=0),
    Message('note_on', channel=4, note=73, velocity=88, time=0),
    Message('note_on', channel=4, note=64, velocity=0, time=58),
    Message('note_on', channel=4, note=73, velocity=0, time=0),
    Message('note_on', channel=4, note=64, velocity=88, time=1),
    Message('note_on', channel=4, note=73, velocity=88, time=0),
    Message('control_change', channel=4, control=2, value=89, time=44),
    Message('note_on', channel=4, note=64, velocity=0, time=14),
    Message('note_on', channel=4, note=73, velocity=0, time=0),
    Message('note_on', channel=4, note=64, velocity=89, time=2),
    Message('note_on', channel=4, note=73, velocity=89, time=0),
    Message('note_on', channel=4, note=64, velocity=0, time=58),
    Message('note_on', channel=4, note=73, velocity=0, time=0),
    Message('note_on', channel=4, note=64, velocity=89, time=1),
    Message('note_on', channel=4, note=73, velocity=89, time=0),
    Message('control_change', channel=4, control=2, value=90, time=47),
    Message('note_on', channel=4, note=64, velocity=0, time=11),
    Message('note_on', channel=4, note=73, velocity=0, time=0),
    Message('note_on', channel=4, note=64, velocity=90, time=2),
    Message('note_on', channel=4, note=73, velocity=90, time=0),
    Message('note_on', channel=4, note=64, velocity=0, time=58),
    Message('note_on', channel=4, note=73, velocity=0, time=0),
    Message('note_on', channel=4, note=64, velocity=90, time=1),
    Message('note_on', channel=4, note=73, velocity=90, time=0),
    Message('control_change', channel=4, control=2, value=91, time=51),
    Message('note_on', channel=4, note=64, velocity=0, time=7),
    Message('note_on', channel=4, note=73, velocity=0, time=0),
    Message('note_on', channel=4, note=64, velocity=91, time=2),
    Message('note_on', channel=4, note=73, velocity=91, time=0),
    Message('note_on', channel=4, note=64, velocity=0, time=58),
    Message('note_on', channel=4, note=73, velocity=0, time=0),
    Message('note_on', channel=4, note=64, velocity=91, time=1),
    Message('note_on', channel=4, note=73, velocity=91, time=0),
    Message('control_change', channel=4, control=2, value=92, time=54),
    Message('note_on', channel=4, note=64, velocity=0, time=4),
    Message('note_on', channel=4, note=73, velocity=0, time=0),
    Message('note_on', channel=4, note=64, velocity=92, time=2),
    Message('note_on', channel=4, note=73, velocity=92, time=0),
    Message('note_on', channel=4, note=64, velocity=0, time=58),
    Message('note_on', channel=4, note=73, velocity=0, time=0),
    Message('note_on', channel=4, note=64, velocity=92, time=1),
    Message('note_on', channel=4, note=73, velocity=92, time=0),
    Message('control_change', channel=4, control=2, value=93, time=58),
    Message('note_on', channel=4, note=64, velocity=0, time=0),
    Message('note_on', channel=4, note=73, velocity=0, time=0),
    Message('note_on', channel=4, note=64, velocity=93, time=2),
    Message('note_on', channel=4, note=73, velocity=93, time=0),
    Message('note_on', channel=4, note=64, velocity=0, time=58),
    Message('note_on', channel=4, note=73, velocity=0, time=0),
    Message('note_on', channel=4, note=64, velocity=93, time=1),
    Message('note_on', channel=4, note=73, velocity=93, time=0),
    Message('note_on', channel=4, note=64, velocity=0, time=58),
    Message('note_on', channel=4, note=73, velocity=0, time=0),
    Message('note_on', channel=4, note=64, velocity=93, time=2),
    Message('note_on', channel=4, note=73, velocity=93, time=0),
    Message('control_change', channel=4, control=2, value=94, time=1),
    Message('note_on', channel=4, note=64, velocity=0, time=57),
    Message('note_on', channel=4, note=73, velocity=0, time=0),
    Message('note_on', channel=4, note=64, velocity=94, time=1),
    Message('note_on', channel=4, note=73, velocity=94, time=0),
    Message('note_on', channel=4, note=64, velocity=0, time=58),
    Message('note_on', channel=4, note=73, velocity=0, time=0),
    Message('note_on', channel=4, note=64, velocity=94, time=2),
    Message('note_on', channel=4, note=73, velocity=94, time=0),
    Message('control_change', channel=4, control=2, value=95, time=5),
    Message('note_on', channel=4, note=64, velocity=0, time=53),
    Message('note_on', channel=4, note=73, velocity=0, time=0),
    Message('note_on', channel=4, note=64, velocity=95, time=1),
    Message('note_on', channel=4, note=73, velocity=95, time=0),
    Message('note_on', channel=4, note=64, velocity=0, time=58),
    Message('note_on', channel=4, note=73, velocity=0, time=0),
    Message('control_change', channel=4, control=2, value=96, time=10),
    Message('note_on', channel=4, note=62, velocity=96, time=0),
    Message('note_on', channel=4, note=74, velocity=96, time=0),
    Message('note_on', channel=4, note=62, velocity=0, time=58),
    Message('note_on', channel=4, note=74, velocity=0, time=0),
    Message('note_on', channel=4, note=62, velocity=96, time=1),
    Message('note_on', channel=4, note=74, velocity=96, time=0),
    Message('note_on', channel=4, note=62, velocity=0, time=58),
    Message('note_on', channel=4, note=74, velocity=0, time=0),
    Message('note_on', channel=4, note=62, velocity=96, time=2),
    Message('note_on', channel=4, note=74, velocity=96, time=0),
    Message('note_on', channel=4, note=62, velocity=0, time=58),
    Message('note_on', channel=4, note=74, velocity=0, time=0),
    Message('note_on', channel=4, note=62, velocity=96, time=1),
    Message('note_on', channel=4, note=74, velocity=96, time=0),
    Message('note_on', channel=4, note=62, velocity=0, time=58),
    Message('note_on', channel=4, note=74, velocity=0, time=0),
    Message('note_on', channel=4, note=62, velocity=96, time=2),
    Message('note_on', channel=4, note=74, velocity=96, time=0),
    Message('note_on', channel=4, note=62, velocity=0, time=58),
    Message('note_on', channel=4, note=74, velocity=0, time=0),
    Message('note_on', channel=4, note=62, velocity=96, time=1),
    Message('note_on', channel=4, note=74, velocity=96, time=0),
    Message('note_on', channel=4, note=62, velocity=0, time=58),
    Message('note_on', channel=4, note=74, velocity=0, time=0),
    Message('note_on', channel=4, note=62, velocity=96, time=2),
    Message('note_on', channel=4, note=74, velocity=96, time=0),
    Message('note_on', channel=4, note=62, velocity=0, time=58),
    Message('note_on', channel=4, note=74, velocity=0, time=0),
    Message('note_on', channel=4, note=62, velocity=96, time=1),
    Message('note_on', channel=4, note=74, velocity=96, time=0),
    Message('note_on', channel=4, note=62, velocity=0, time=58),
    Message('note_on', channel=4, note=74, velocity=0, time=0),
    Message('note_on', channel=4, note=62, velocity=96, time=2),
    Message('note_on', channel=4, note=74, velocity=96, time=0),
    Message('note_on', channel=4, note=62, velocity=0, time=58),
    Message('note_on', channel=4, note=74, velocity=0, time=0),
    Message('note_on', channel=4, note=62, velocity=96, time=1),
    Message('note_on', channel=4, note=74, velocity=96, time=0),
    Message('note_on', channel=4, note=62, velocity=0, time=58),
    Message('note_on', channel=4, note=74, velocity=0, time=0),
    Message('note_on', channel=4, note=62, velocity=96, time=2),
    Message('note_on', channel=4, note=74, velocity=96, time=0),
    Message('note_on', channel=4, note=62, velocity=0, time=58),
    Message('note_on', channel=4, note=74, velocity=0, time=0),
    Message('note_on', channel=4, note=62, velocity=96, time=1),
    Message('note_on', channel=4, note=74, velocity=96, time=0),
    Message('note_on', channel=4, note=62, velocity=0, time=58),
    Message('note_on', channel=4, note=74, velocity=0, time=0),
    Message('note_on', channel=4, note=62, velocity=96, time=2),
    Message('note_on', channel=4, note=74, velocity=96, time=0),
    Message('note_on', channel=4, note=62, velocity=0, time=58),
    Message('note_on', channel=4, note=74, velocity=0, time=0),
    Message('note_on', channel=4, note=62, velocity=96, time=1),
    Message('note_on', channel=4, note=74, velocity=96, time=0),
    Message('note_on', channel=4, note=62, velocity=0, time=58),
    Message('note_on', channel=4, note=74, velocity=0, time=0),
    Message('note_on', channel=4, note=62, velocity=96, time=2),
    Message('note_on', channel=4, note=74, velocity=96, time=0),
    Message('note_on', channel=4, note=62, velocity=0, time=58),
    Message('note_on', channel=4, note=74, velocity=0, time=0),
    Message('note_on', channel=4, note=62, velocity=96, time=1),
    Message('note_on', channel=4, note=74, velocity=96, time=0),
    Message('note_on', channel=4, note=62, velocity=0, time=58),
    Message('note_on', channel=4, note=74, velocity=0, time=0),
    Message('note_on', channel=4, note=71, velocity=96, time=10),
    Message('control_change', channel=4, control=2, value=96, time=0),
    Message('note_on', channel=4, note=76, velocity=96, time=0),
    Message('note_on', channel=4, note=71, velocity=0, time=58),
    Message('note_on', channel=4, note=76, velocity=0, time=0),
    Message('note_on', channel=4, note=71, velocity=96, time=1),
    Message('note_on', channel=4, note=76, velocity=96, time=0),
    Message('note_on', channel=4, note=71, velocity=0, time=58),
    Message('note_on', channel=4, note=76, velocity=0, time=0),
    Message('note_on', channel=4, note=71, velocity=96, time=2),
    Message('note_on', channel=4, note=76, velocity=96, time=0),
    Message('note_on', channel=4, note=71, velocity=0, time=58),
    Message('note_on', channel=4, note=76, velocity=0, time=0),
    Message('note_on', channel=4, note=71, velocity=96, time=1),
    Message('note_on', channel=4, note=76, velocity=96, time=0),
    Message('note_on', channel=4, note=71, velocity=0, time=58),
    Message('note_on', channel=4, note=76, velocity=0, time=0),
    Message('note_on', channel=4, note=71, velocity=96, time=2),
    Message('note_on', channel=4, note=76, velocity=96, time=0),
    Message('note_on', channel=4, note=71, velocity=0, time=58),
    Message('note_on', channel=4, note=76, velocity=0, time=0),
    Message('note_on', channel=4, note=71, velocity=96, time=1),
    Message('note_on', channel=4, note=76, velocity=96, time=0),
    Message('note_on', channel=4, note=71, velocity=0, time=58),
    Message('note_on', channel=4, note=76, velocity=0, time=0),
    Message('note_on', channel=4, note=71, velocity=96, time=2),
    Message('note_on', channel=4, note=76, velocity=96, time=0),
    Message('note_on', channel=4, note=71, velocity=0, time=58),
    Message('note_on', channel=4, note=76, velocity=0, time=0),
    Message('note_on', channel=4, note=71, velocity=96, time=1),
    Message('note_on', channel=4, note=76, velocity=96, time=0),
    Message('note_on', channel=4, note=71, velocity=0, time=58),
    Message('note_on', channel=4, note=76, velocity=0, time=0),
    Message('note_on', channel=4, note=71, velocity=96, time=2),
    Message('note_on', channel=4, note=76, velocity=96, time=0),
    Message('note_on', channel=4, note=71, velocity=0, time=58),
    Message('note_on', channel=4, note=76, velocity=0, time=0),
    Message('note_on', channel=4, note=71, velocity=96, time=1),
    Message('note_on', channel=4, note=76, velocity=96, time=0),
    Message('note_on', channel=4, note=71, velocity=0, time=58),
    Message('note_on', channel=4, note=76, velocity=0, time=0),
    Message('note_on', channel=4, note=71, velocity=96, time=2),
    Message('note_on', channel=4, note=76, velocity=96, time=0),
    Message('note_on', channel=4, note=71, velocity=0, time=58),
    Message('note_on', channel=4, note=76, velocity=0, time=0),
    Message('note_on', channel=4, note=71, velocity=96, time=1),
    Message('note_on', channel=4, note=76, velocity=96, time=0),
    Message('note_on', channel=4, note=71, velocity=0, time=58),
    Message('note_on', channel=4, note=76, velocity=0, time=0),
    Message('note_on', channel=4, note=71, velocity=96, time=2),
    Message('note_on', channel=4, note=76, velocity=96, time=0),
    Message('note_on', channel=4, note=71, velocity=0, time=58),
    Message('note_on', channel=4, note=76, velocity=0, time=0),
    Message('note_on', channel=4, note=71, velocity=96, time=1),
    Message('note_on', channel=4, note=76, velocity=96, time=0),
    Message('note_on', channel=4, note=71, velocity=0, time=58),
    Message('note_on', channel=4, note=76, velocity=0, time=0),
    Message('note_on', channel=4, note=71, velocity=96, time=2),
    Message('note_on', channel=4, note=76, velocity=96, time=0),
    Message('note_on', channel=4, note=71, velocity=0, time=58),
    Message('note_on', channel=4, note=76, velocity=0, time=0),
    Message('note_on', channel=4, note=71, velocity=96, time=1),
    Message('note_on', channel=4, note=76, velocity=96, time=0),
    Message('note_on', channel=4, note=71, velocity=0, time=58),
    Message('note_on', channel=4, note=76, velocity=0, time=0),
    Message('note_on', channel=4, note=71, velocity=96, time=10),
    Message('control_change', channel=4, control=2, value=96, time=0),
    Message('note_on', channel=4, note=78, velocity=96, time=0),
    Message('note_on', channel=4, note=71, velocity=0, time=58),
    Message('note_on', channel=4, note=78, velocity=0, time=0),
    Message('note_on', channel=4, note=71, velocity=96, time=1),
    Message('note_on', channel=4, note=78, velocity=96, time=0),
    Message('note_on', channel=4, note=71, velocity=0, time=58),
    Message('note_on', channel=4, note=78, velocity=0, time=0),
    Message('note_on', channel=4, note=71, velocity=96, time=2),
    Message('note_on', channel=4, note=78, velocity=96, time=0),
    Message('note_on', channel=4, note=71, velocity=0, time=58),
    Message('note_on', channel=4, note=78, velocity=0, time=0),
    Message('note_on', channel=4, note=71, velocity=96, time=1),
    Message('note_on', channel=4, note=78, velocity=96, time=0),
    Message('note_on', channel=4, note=71, velocity=0, time=58),
    Message('note_on', channel=4, note=78, velocity=0, time=0),
    Message('note_on', channel=4, note=71, velocity=96, time=2),
    Message('note_on', channel=4, note=78, velocity=96, time=0),
    Message('note_on', channel=4, note=71, velocity=0, time=58),
    Message('note_on', channel=4, note=78, velocity=0, time=0),
    Message('note_on', channel=4, note=71, velocity=96, time=1),
    Message('note_on', channel=4, note=78, velocity=96, time=0),
    Message('note_on', channel=4, note=71, velocity=0, time=58),
    Message('note_on', channel=4, note=78, velocity=0, time=0),
    Message('note_on', channel=4, note=71, velocity=96, time=2),
    Message('note_on', channel=4, note=78, velocity=96, time=0),
    Message('note_on', channel=4, note=71, velocity=0, time=58),
    Message('note_on', channel=4, note=78, velocity=0, time=0),
    Message('note_on', channel=4, note=71, velocity=96, time=1),
    Message('note_on', channel=4, note=78, velocity=96, time=0),
    Message('note_on', channel=4, note=71, velocity=0, time=58),
    Message('note_on', channel=4, note=78, velocity=0, time=0),
    Message('note_on', channel=4, note=71, velocity=96, time=2),
    Message('note_on', channel=4, note=78, velocity=96, time=0),
    Message('note_on', channel=4, note=71, velocity=0, time=58),
    Message('note_on', channel=4, note=78, velocity=0, time=0),
    Message('note_on', channel=4, note=71, velocity=96, time=1),
    Message('note_on', channel=4, note=78, velocity=96, time=0),
    Message('note_on', channel=4, note=71, velocity=0, time=58),
    Message('note_on', channel=4, note=78, velocity=0, time=0),
    Message('note_on', channel=4, note=71, velocity=96, time=2),
    Message('note_on', channel=4, note=78, velocity=96, time=0),
    Message('note_on', channel=4, note=71, velocity=0, time=58),
    Message('note_on', channel=4, note=78, velocity=0, time=0),
    Message('note_on', channel=4, note=71, velocity=96, time=1),
    Message('note_on', channel=4, note=78, velocity=96, time=0),
    Message('note_on', channel=4, note=71, velocity=0, time=58),
    Message('note_on', channel=4, note=78, velocity=0, time=0),
    Message('note_on', channel=4, note=71, velocity=96, time=2),
    Message('note_on', channel=4, note=78, velocity=96, time=0),
    Message('note_on', channel=4, note=71, velocity=0, time=58),
    Message('note_on', channel=4, note=78, velocity=0, time=0),
    Message('note_on', channel=4, note=71, velocity=96, time=1),
    Message('note_on', channel=4, note=78, velocity=96, time=0),
    Message('note_on', channel=4, note=71, velocity=0, time=58),
    Message('note_on', channel=4, note=78, velocity=0, time=0),
    Message('note_on', channel=4, note=71, velocity=96, time=2),
    Message('note_on', channel=4, note=78, velocity=96, time=0),
    Message('note_on', channel=4, note=71, velocity=0, time=58),
    Message('note_on', channel=4, note=78, velocity=0, time=0),
    Message('note_on', channel=4, note=71, velocity=96, time=1),
    Message('note_on', channel=4, note=78, velocity=96, time=0),
    Message('note_on', channel=4, note=71, velocity=0, time=58),
    Message('note_on', channel=4, note=78, velocity=0, time=0),
    Message('note_on', channel=4, note=71, velocity=96, time=2),
    Message('note_on', channel=4, note=78, velocity=96, time=0),
    Message('note_on', channel=4, note=71, velocity=0, time=58),
    Message('note_on', channel=4, note=78, velocity=0, time=0),
    Message('note_on', channel=4, note=71, velocity=96, time=1),
    Message('note_on', channel=4, note=78, velocity=96, time=0),
    Message('note_on', channel=4, note=71, velocity=0, time=58),
    Message('note_on', channel=4, note=78, velocity=0, time=0),
    Message('note_on', channel=4, note=71, velocity=96, time=2),
    Message('note_on', channel=4, note=78, velocity=96, time=0),
    Message('note_on', channel=4, note=71, velocity=0, time=58),
    Message('note_on', channel=4, note=78, velocity=0, time=0),
    Message('note_on', channel=4, note=71, velocity=96, time=1),
    Message('note_on', channel=4, note=78, velocity=96, time=0),
    Message('note_on', channel=4, note=71, velocity=0, time=58),
    Message('note_on', channel=4, note=78, velocity=0, time=0),
    Message('note_on', channel=4, note=71, velocity=96, time=2),
    Message('note_on', channel=4, note=78, velocity=96, time=0),
    Message('note_on', channel=4, note=71, velocity=0, time=58),
    Message('note_on', channel=4, note=78, velocity=0, time=0),
    Message('note_on', channel=4, note=71, velocity=96, time=1),
    Message('note_on', channel=4, note=78, velocity=96, time=0),
    Message('note_on', channel=4, note=71, velocity=0, time=58),
    Message('note_on', channel=4, note=78, velocity=0, time=0),
    Message('note_on', channel=4, note=71, velocity=96, time=2),
    Message('note_on', channel=4, note=78, velocity=96, time=0),
    Message('note_on', channel=4, note=71, velocity=0, time=58),
    Message('note_on', channel=4, note=78, velocity=0, time=0),
    Message('note_on', channel=4, note=71, velocity=96, time=1),
    Message('note_on', channel=4, note=78, velocity=96, time=0),
    Message('note_on', channel=4, note=71, velocity=0, time=58),
    Message('note_on', channel=4, note=78, velocity=0, time=0),
    Message('note_on', channel=4, note=71, velocity=96, time=2),
    Message('note_on', channel=4, note=78, velocity=96, time=0),
    Message('note_on', channel=4, note=71, velocity=0, time=58),
    Message('note_on', channel=4, note=78, velocity=0, time=0),
    Message('note_on', channel=4, note=71, velocity=96, time=2),
    Message('note_on', channel=4, note=78, velocity=96, time=0),
    Message('note_on', channel=4, note=71, velocity=0, time=58),
    Message('note_on', channel=4, note=78, velocity=0, time=0),
    Message('note_on', channel=4, note=71, velocity=96, time=1),
    Message('note_on', channel=4, note=78, velocity=96, time=0),
    Message('note_on', channel=4, note=71, velocity=0, time=58),
    Message('note_on', channel=4, note=78, velocity=0, time=0),
    Message('note_on', channel=4, note=71, velocity=96, time=2),
    Message('note_on', channel=4, note=78, velocity=96, time=0),
    Message('note_on', channel=4, note=71, velocity=0, time=58),
    Message('note_on', channel=4, note=78, velocity=0, time=0),
    Message('note_on', channel=4, note=71, velocity=96, time=1),
    Message('note_on', channel=4, note=78, velocity=96, time=0),
    Message('note_on', channel=4, note=71, velocity=0, time=58),
    Message('note_on', channel=4, note=78, velocity=0, time=0),
    Message('note_on', channel=4, note=71, velocity=96, time=2),
    Message('note_on', channel=4, note=78, velocity=96, time=0),
    Message('note_on', channel=4, note=71, velocity=0, time=58),
    Message('note_on', channel=4, note=78, velocity=0, time=0),
    Message('note_on', channel=4, note=71, velocity=96, time=1),
    Message('note_on', channel=4, note=78, velocity=96, time=0),
    Message('note_on', channel=4, note=71, velocity=0, time=58),
    Message('note_on', channel=4, note=78, velocity=0, time=0),
    Message('note_on', channel=4, note=71, velocity=96, time=2),
    Message('note_on', channel=4, note=78, velocity=96, time=0),
    Message('note_on', channel=4, note=71, velocity=0, time=58),
    Message('note_on', channel=4, note=78, velocity=0, time=0),
    Message('note_on', channel=4, note=71, velocity=96, time=17),
    Message('control_change', channel=4, control=2, value=96, time=0),
    Message('note_on', channel=4, note=78, velocity=96, time=0),
    Message('note_on', channel=4, note=71, velocity=0, time=58),
    Message('note_on', channel=4, note=78, velocity=0, time=0),
    Message('note_on', channel=4, note=71, velocity=96, time=1),
    Message('note_on', channel=4, note=78, velocity=96, time=0),
    Message('note_on', channel=4, note=71, velocity=0, time=58),
    Message('note_on', channel=4, note=78, velocity=0, time=0),
    Message('note_on', channel=4, note=71, velocity=96, time=2),
    Message('note_on', channel=4, note=78, velocity=96, time=0),
    Message('note_on', channel=4, note=71, velocity=0, time=58),
    Message('note_on', channel=4, note=78, velocity=0, time=0),
    Message('note_on', channel=4, note=71, velocity=96, time=1),
    Message('note_on', channel=4, note=78, velocity=96, time=0),
    Message('note_on', channel=4, note=71, velocity=0, time=58),
    Message('note_on', channel=4, note=78, velocity=0, time=0),
    Message('note_on', channel=4, note=71, velocity=96, time=2),
    Message('note_on', channel=4, note=78, velocity=96, time=0),
    Message('note_on', channel=4, note=71, velocity=0, time=58),
    Message('note_on', channel=4, note=78, velocity=0, time=0),
    Message('note_on', channel=4, note=71, velocity=96, time=1),
    Message('note_on', channel=4, note=78, velocity=96, time=0),
    Message('note_on', channel=4, note=71, velocity=0, time=58),
    Message('note_on', channel=4, note=78, velocity=0, time=0),
    Message('note_on', channel=4, note=71, velocity=96, time=2),
    Message('note_on', channel=4, note=78, velocity=96, time=0),
    Message('note_on', channel=4, note=71, velocity=0, time=58),
    Message('note_on', channel=4, note=78, velocity=0, time=0),
    Message('note_on', channel=4, note=71, velocity=96, time=1),
    Message('note_on', channel=4, note=78, velocity=96, time=0),
    Message('note_on', channel=4, note=71, velocity=0, time=58),
    Message('note_on', channel=4, note=78, velocity=0, time=0),
    Message('note_on', channel=4, note=71, velocity=96, time=2),
    Message('note_on', channel=4, note=78, velocity=96, time=0),
    Message('note_on', channel=4, note=71, velocity=0, time=58),
    Message('note_on', channel=4, note=78, velocity=0, time=0),
    Message('note_on', channel=4, note=71, velocity=96, time=1),
    Message('note_on', channel=4, note=78, velocity=96, time=0),
    Message('note_on', channel=4, note=71, velocity=0, time=58),
    Message('note_on', channel=4, note=78, velocity=0, time=0),
    Message('note_on', channel=4, note=71, velocity=96, time=2),
    Message('note_on', channel=4, note=78, velocity=96, time=0),
    Message('note_on', channel=4, note=71, velocity=0, time=58),
    Message('note_on', channel=4, note=78, velocity=0, time=0),
    Message('note_on', channel=4, note=71, velocity=96, time=1),
    Message('note_on', channel=4, note=78, velocity=96, time=0),
    Message('note_on', channel=4, note=71, velocity=0, time=58),
    Message('note_on', channel=4, note=78, velocity=0, time=0),
    Message('note_on', channel=4, note=71, velocity=96, time=2),
    Message('note_on', channel=4, note=78, velocity=96, time=0),
    Message('note_on', channel=4, note=71, velocity=0, time=58),
    Message('note_on', channel=4, note=78, velocity=0, time=0),
    Message('note_on', channel=4, note=71, velocity=96, time=1),
    Message('note_on', channel=4, note=78, velocity=96, time=0),
    Message('note_on', channel=4, note=71, velocity=0, time=58),
    Message('note_on', channel=4, note=78, velocity=0, time=0),
    Message('note_on', channel=4, note=71, velocity=96, time=2),
    Message('note_on', channel=4, note=78, velocity=96, time=0),
    Message('note_on', channel=4, note=71, velocity=0, time=58),
    Message('note_on', channel=4, note=78, velocity=0, time=0),
    Message('note_on', channel=4, note=71, velocity=96, time=1),
    Message('note_on', channel=4, note=78, velocity=96, time=0),
    Message('note_on', channel=4, note=71, velocity=0, time=58),
    Message('note_on', channel=4, note=78, velocity=0, time=0),
    Message('note_on', channel=4, note=71, velocity=96, time=10),
    Message('control_change', channel=4, control=2, value=96, time=0),
    Message('note_on', channel=4, note=79, velocity=96, time=0),
    Message('note_on', channel=4, note=71, velocity=0, time=59),
    Message('note_on', channel=4, note=79, velocity=0, time=0),
    Message('note_on', channel=4, note=71, velocity=96, time=1),
    Message('note_on', channel=4, note=79, velocity=96, time=0),
    Message('note_on', channel=4, note=71, velocity=0, time=59),
    Message('note_on', channel=4, note=79, velocity=0, time=0),
    Message('note_on', channel=4, note=71, velocity=96, time=1),
    Message('note_on', channel=4, note=79, velocity=96, time=0),
    Message('note_on', channel=4, note=71, velocity=0, time=59),
    Message('note_on', channel=4, note=79, velocity=0, time=0),
    Message('note_on', channel=4, note=71, velocity=96, time=1),
    Message('note_on', channel=4, note=79, velocity=96, time=0),
    Message('note_on', channel=4, note=71, velocity=0, time=59),
    Message('note_on', channel=4, note=79, velocity=0, time=0),
    Message('note_on', channel=4, note=71, velocity=96, time=1),
    Message('note_on', channel=4, note=79, velocity=96, time=0),
    Message('note_on', channel=4, note=71, velocity=0, time=59),
    Message('note_on', channel=4, note=79, velocity=0, time=0),
    Message('note_on', channel=4, note=71, velocity=96, time=1),
    Message('note_on', channel=4, note=79, velocity=96, time=0),
    Message('note_on', channel=4, note=71, velocity=0, time=59),
    Message('note_on', channel=4, note=79, velocity=0, time=0),
    Message('note_on', channel=4, note=71, velocity=96, time=1),
    Message('note_on', channel=4, note=79, velocity=96, time=0),
    Message('note_on', channel=4, note=71, velocity=0, time=59),
    Message('note_on', channel=4, note=79, velocity=0, time=0),
    Message('note_on', channel=4, note=71, velocity=96, time=1),
    Message('note_on', channel=4, note=79, velocity=96, time=0),
    Message('note_on', channel=4, note=71, velocity=0, time=59),
    Message('note_on', channel=4, note=79, velocity=0, time=0),
    Message('note_on', channel=4, note=82, velocity=96, time=1),
    Message('control_change', channel=4, control=2, value=96, time=0),
    Message('note_on', channel=4, note=82, velocity=0, time=59),
    Message('note_on', channel=4, note=82, velocity=96, time=1),
    Message('note_on', channel=4, note=82, velocity=0, time=59),
    Message('note_on', channel=4, note=82, velocity=96, time=1),
    Message('note_on', channel=4, note=82, velocity=0, time=59),
    Message('note_on', channel=4, note=82, velocity=96, time=1),
    Message('note_on', channel=4, note=82, velocity=0, time=59),
    Message('note_on', channel=4, note=82, velocity=96, time=1),
    Message('note_on', channel=4, note=82, velocity=0, time=59),
    Message('note_on', channel=4, note=82, velocity=96, time=1),
    Message('note_on', channel=4, note=82, velocity=0, time=59),
    Message('note_on', channel=4, note=82, velocity=96, time=1),
    Message('note_on', channel=4, note=82, velocity=0, time=59),
    Message('note_on', channel=4, note=82, velocity=96, time=1),
    Message('note_on', channel=4, note=82, velocity=0, time=59),
    Message('note_on', channel=4, note=74, velocity=96, time=1),
    Message('control_change', channel=4, control=2, value=96, time=0),
    Message('note_on', channel=4, note=83, velocity=96, time=0),
    Message('note_on', channel=4, note=74, velocity=0, time=58),
    Message('note_on', channel=4, note=83, velocity=0, time=0),
    Message('note_on', channel=4, note=74, velocity=96, time=1),
    Message('note_on', channel=4, note=83, velocity=96, time=0),
    Message('note_on', channel=4, note=74, velocity=0, time=58),
    Message('note_on', channel=4, note=83, velocity=0, time=0),
    Message('note_on', channel=4, note=74, velocity=96, time=2),
    Message('note_on', channel=4, note=83, velocity=96, time=0),
    Message('note_on', channel=4, note=74, velocity=0, time=58),
    Message('note_on', channel=4, note=83, velocity=0, time=0),
    Message('note_on', channel=4, note=74, velocity=96, time=1),
    Message('note_on', channel=4, note=83, velocity=96, time=0),
    Message('note_on', channel=4, note=74, velocity=0, time=58),
    Message('note_on', channel=4, note=83, velocity=0, time=0),
    Message('note_on', channel=4, note=74, velocity=96, time=2),
    Message('note_on', channel=4, note=83, velocity=96, time=0),
    Message('note_on', channel=4, note=74, velocity=0, time=58),
    Message('note_on', channel=4, note=83, velocity=0, time=0),
    Message('note_on', channel=4, note=74, velocity=96, time=1),
    Message('note_on', channel=4, note=83, velocity=96, time=0),
    Message('note_on', channel=4, note=74, velocity=0, time=58),
    Message('note_on', channel=4, note=83, velocity=0, time=0),
    Message('note_on', channel=4, note=74, velocity=96, time=2),
    Message('note_on', channel=4, note=83, velocity=96, time=0),
    Message('note_on', channel=4, note=74, velocity=0, time=58),
    Message('note_on', channel=4, note=83, velocity=0, time=0),
    Message('note_on', channel=4, note=74, velocity=96, time=1),
    Message('note_on', channel=4, note=83, velocity=96, time=0),
    Message('note_on', channel=4, note=74, velocity=0, time=58),
    Message('note_on', channel=4, note=83, velocity=0, time=0),
    Message('note_on', channel=4, note=74, velocity=96, time=2),
    Message('note_on', channel=4, note=83, velocity=96, time=0),
    Message('note_on', channel=4, note=74, velocity=0, time=58),
    Message('note_on', channel=4, note=83, velocity=0, time=0),
    Message('note_on', channel=4, note=74, velocity=96, time=1),
    Message('note_on', channel=4, note=83, velocity=96, time=0),
    Message('note_on', channel=4, note=74, velocity=0, time=58),
    Message('note_on', channel=4, note=83, velocity=0, time=0),
    Message('note_on', channel=4, note=74, velocity=96, time=2),
    Message('note_on', channel=4, note=83, velocity=96, time=0),
    Message('note_on', channel=4, note=74, velocity=0, time=58),
    Message('note_on', channel=4, note=83, velocity=0, time=0),
    Message('note_on', channel=4, note=74, velocity=96, time=1),
    Message('note_on', channel=4, note=83, velocity=96, time=0),
    Message('note_on', channel=4, note=74, velocity=0, time=58),
    Message('note_on', channel=4, note=83, velocity=0, time=0),
    Message('note_on', channel=4, note=74, velocity=96, time=2),
    Message('note_on', channel=4, note=83, velocity=96, time=0),
    Message('note_on', channel=4, note=74, velocity=0, time=58),
    Message('note_on', channel=4, note=83, velocity=0, time=0),
    Message('note_on', channel=4, note=74, velocity=96, time=1),
    Message('note_on', channel=4, note=83, velocity=96, time=0),
    Message('note_on', channel=4, note=74, velocity=0, time=58),
    Message('note_on', channel=4, note=83, velocity=0, time=0),
    Message('note_on', channel=4, note=74, velocity=96, time=2),
    Message('note_on', channel=4, note=83, velocity=96, time=0),
    Message('note_on', channel=4, note=74, velocity=0, time=58),
    Message('note_on', channel=4, note=83, velocity=0, time=0),
    Message('note_on', channel=4, note=74, velocity=96, time=1),
    Message('note_on', channel=4, note=83, velocity=96, time=0),
    Message('note_on', channel=4, note=74, velocity=0, time=58),
    Message('note_on', channel=4, note=83, velocity=0, time=0),
    Message('note_on', channel=4, note=76, velocity=96, time=10),
    Message('control_change', channel=4, control=2, value=96, time=0),
    Message('note_on', channel=4, note=83, velocity=96, time=0),
    Message('note_on', channel=4, note=76, velocity=0, time=58),
    Message('note_on', channel=4, note=83, velocity=0, time=0),
    Message('note_on', channel=4, note=76, velocity=96, time=1),
    Message('note_on', channel=4, note=83, velocity=96, time=0),
    Message('note_on', channel=4, note=76, velocity=0, time=58),
    Message('note_on', channel=4, note=83, velocity=0, time=0),
    Message('note_on', channel=4, note=76, velocity=96, time=2),
    Message('note_on', channel=4, note=83, velocity=96, time=0),
    Message('note_on', channel=4, note=76, velocity=0, time=58),
    Message('note_on', channel=4, note=83, velocity=0, time=0),
    Message('note_on', channel=4, note=76, velocity=96, time=1),
    Message('note_on', channel=4, note=83, velocity=96, time=0),
    Message('note_on', channel=4, note=76, velocity=0, time=58),
    Message('note_on', channel=4, note=83, velocity=0, time=0),
    Message('note_on', channel=4, note=76, velocity=96, time=2),
    Message('note_on', channel=4, note=83, velocity=96, time=0),
    Message('note_on', channel=4, note=76, velocity=0, time=58),
    Message('note_on', channel=4, note=83, velocity=0, time=0),
    Message('note_on', channel=4, note=76, velocity=96, time=1),
    Message('note_on', channel=4, note=83, velocity=96, time=0),
    Message('note_on', channel=4, note=76, velocity=0, time=58),
    Message('note_on', channel=4, note=83, velocity=0, time=0),
    Message('note_on', channel=4, note=76, velocity=96, time=2),
    Message('note_on', channel=4, note=83, velocity=96, time=0),
    Message('note_on', channel=4, note=76, velocity=0, time=58),
    Message('note_on', channel=4, note=83, velocity=0, time=0),
    Message('note_on', channel=4, note=76, velocity=96, time=1),
    Message('note_on', channel=4, note=83, velocity=96, time=0),
    Message('note_on', channel=4, note=76, velocity=0, time=58),
    Message('note_on', channel=4, note=83, velocity=0, time=0),
    Message('note_on', channel=4, note=76, velocity=96, time=2),
    Message('note_on', channel=4, note=83, velocity=96, time=0),
    Message('note_on', channel=4, note=76, velocity=0, time=58),
    Message('note_on', channel=4, note=83, velocity=0, time=0),
    Message('note_on', channel=4, note=76, velocity=96, time=1),
    Message('note_on', channel=4, note=83, velocity=96, time=0),
    Message('note_on', channel=4, note=76, velocity=0, time=58),
    Message('note_on', channel=4, note=83, velocity=0, time=0),
    Message('note_on', channel=4, note=76, velocity=96, time=2),
    Message('note_on', channel=4, note=83, velocity=96, time=0),
    Message('note_on', channel=4, note=76, velocity=0, time=58),
    Message('note_on', channel=4, note=83, velocity=0, time=0),
    Message('note_on', channel=4, note=76, velocity=96, time=1),
    Message('note_on', channel=4, note=83, velocity=96, time=0),
    Message('note_on', channel=4, note=76, velocity=0, time=58),
    Message('note_on', channel=4, note=83, velocity=0, time=0),
    Message('note_on', channel=4, note=76, velocity=96, time=2),
    Message('note_on', channel=4, note=83, velocity=96, time=0),
    Message('note_on', channel=4, note=76, velocity=0, time=58),
    Message('note_on', channel=4, note=83, velocity=0, time=0),
    Message('note_on', channel=4, note=76, velocity=96, time=1),
    Message('note_on', channel=4, note=83, velocity=96, time=0),
    Message('note_on', channel=4, note=76, velocity=0, time=58),
    Message('note_on', channel=4, note=83, velocity=0, time=0),
    Message('note_on', channel=4, note=76, velocity=96, time=2),
    Message('note_on', channel=4, note=83, velocity=96, time=0),
    Message('note_on', channel=4, note=76, velocity=0, time=58),
    Message('note_on', channel=4, note=83, velocity=0, time=0),
    Message('note_on', channel=4, note=76, velocity=96, time=1),
    Message('note_on', channel=4, note=83, velocity=96, time=0),
    Message('note_on', channel=4, note=76, velocity=0, time=58),
    Message('note_on', channel=4, note=83, velocity=0, time=0),
    Message('note_on', channel=4, note=74, velocity=96, time=10),
    Message('control_change', channel=4, control=2, value=96, time=0),
    Message('note_on', channel=4, note=83, velocity=96, time=0),
    Message('note_on', channel=4, note=74, velocity=0, time=58),
    Message('note_on', channel=4, note=83, velocity=0, time=0),
    Message('note_on', channel=4, note=74, velocity=96, time=1),
    Message('note_on', channel=4, note=83, velocity=96, time=0),
    Message('note_on', channel=4, note=74, velocity=0, time=58),
    Message('note_on', channel=4, note=83, velocity=0, time=0),
    Message('note_on', channel=4, note=74, velocity=96, time=2),
    Message('note_on', channel=4, note=83, velocity=96, time=0),
    Message('note_on', channel=4, note=74, velocity=0, time=58),
    Message('note_on', channel=4, note=83, velocity=0, time=0),
    Message('note_on', channel=4, note=74, velocity=96, time=1),
    Message('note_on', channel=4, note=83, velocity=96, time=0),
    Message('note_on', channel=4, note=74, velocity=0, time=58),
    Message('note_on', channel=4, note=83, velocity=0, time=0),
    Message('note_on', channel=4, note=74, velocity=96, time=2),
    Message('note_on', channel=4, note=83, velocity=96, time=0),
    Message('note_on', channel=4, note=74, velocity=0, time=58),
    Message('note_on', channel=4, note=83, velocity=0, time=0),
    Message('note_on', channel=4, note=74, velocity=96, time=1),
    Message('note_on', channel=4, note=83, velocity=96, time=0),
    Message('note_on', channel=4, note=74, velocity=0, time=58),
    Message('note_on', channel=4, note=83, velocity=0, time=0),
    Message('note_on', channel=4, note=74, velocity=96, time=2),
    Message('note_on', channel=4, note=83, velocity=96, time=0),
    Message('note_on', channel=4, note=74, velocity=0, time=58),
    Message('note_on', channel=4, note=83, velocity=0, time=0),
    Message('note_on', channel=4, note=74, velocity=96, time=1),
    Message('note_on', channel=4, note=83, velocity=96, time=0),
    Message('note_on', channel=4, note=74, velocity=0, time=58),
    Message('note_on', channel=4, note=83, velocity=0, time=0),
    Message('note_on', channel=4, note=74, velocity=96, time=2),
    Message('note_on', channel=4, note=83, velocity=96, time=0),
    Message('note_on', channel=4, note=74, velocity=0, time=58),
    Message('note_on', channel=4, note=83, velocity=0, time=0),
    Message('note_on', channel=4, note=74, velocity=96, time=1),
    Message('note_on', channel=4, note=83, velocity=96, time=0),
    Message('note_on', channel=4, note=74, velocity=0, time=58),
    Message('note_on', channel=4, note=83, velocity=0, time=0),
    Message('note_on', channel=4, note=74, velocity=96, time=2),
    Message('note_on', channel=4, note=83, velocity=96, time=0),
    Message('note_on', channel=4, note=74, velocity=0, time=58),
    Message('note_on', channel=4, note=83, velocity=0, time=0),
    Message('note_on', channel=4, note=74, velocity=96, time=1),
    Message('note_on', channel=4, note=83, velocity=96, time=0),
    Message('note_on', channel=4, note=74, velocity=0, time=58),
    Message('note_on', channel=4, note=83, velocity=0, time=0),
    Message('note_on', channel=4, note=74, velocity=96, time=2),
    Message('note_on', channel=4, note=83, velocity=96, time=0),
    Message('note_on', channel=4, note=74, velocity=0, time=58),
    Message('note_on', channel=4, note=83, velocity=0, time=0),
    Message('note_on', channel=4, note=74, velocity=96, time=1),
    Message('note_on', channel=4, note=83, velocity=96, time=0),
    Message('note_on', channel=4, note=74, velocity=0, time=58),
    Message('note_on', channel=4, note=83, velocity=0, time=0),
    Message('note_on', channel=4, note=74, velocity=96, time=2),
    Message('note_on', channel=4, note=83, velocity=96, time=0),
    Message('note_on', channel=4, note=74, velocity=0, time=58),
    Message('note_on', channel=4, note=83, velocity=0, time=0),
    Message('note_on', channel=4, note=74, velocity=96, time=1),
    Message('note_on', channel=4, note=83, velocity=96, time=0),
    Message('note_on', channel=4, note=74, velocity=0, time=58),
    Message('note_on', channel=4, note=83, velocity=0, time=0),
    Message('note_on', channel=4, note=76, velocity=96, time=10),
    Message('control_change', channel=4, control=2, value=96, time=0),
    Message('note_on', channel=4, note=83, velocity=96, time=0),
    Message('note_on', channel=4, note=76, velocity=0, time=58),
    Message('note_on', channel=4, note=83, velocity=0, time=0),
    Message('note_on', channel=4, note=76, velocity=96, time=1),
    Message('note_on', channel=4, note=83, velocity=96, time=0),
    Message('note_on', channel=4, note=76, velocity=0, time=58),
    Message('note_on', channel=4, note=83, velocity=0, time=0),
    Message('note_on', channel=4, note=76, velocity=96, time=2),
    Message('note_on', channel=4, note=83, velocity=96, time=0),
    Message('note_on', channel=4, note=76, velocity=0, time=58),
    Message('note_on', channel=4, note=83, velocity=0, time=0),
    Message('note_on', channel=4, note=76, velocity=96, time=1),
    Message('note_on', channel=4, note=83, velocity=96, time=0),
    Message('note_on', channel=4, note=76, velocity=0, time=58),
    Message('note_on', channel=4, note=83, velocity=0, time=0),
    Message('note_on', channel=4, note=76, velocity=96, time=2),
    Message('note_on', channel=4, note=83, velocity=96, time=0),
    Message('note_on', channel=4, note=76, velocity=0, time=58),
    Message('note_on', channel=4, note=83, velocity=0, time=0),
    Message('note_on', channel=4, note=76, velocity=96, time=1),
    Message('note_on', channel=4, note=83, velocity=96, time=0),
    Message('note_on', channel=4, note=76, velocity=0, time=58),
    Message('note_on', channel=4, note=83, velocity=0, time=0),
    Message('note_on', channel=4, note=76, velocity=96, time=2),
    Message('note_on', channel=4, note=83, velocity=96, time=0),
    Message('note_on', channel=4, note=76, velocity=0, time=58),
    Message('note_on', channel=4, note=83, velocity=0, time=0),
    Message('note_on', channel=4, note=76, velocity=96, time=1),
    Message('note_on', channel=4, note=83, velocity=96, time=0),
    Message('note_on', channel=4, note=76, velocity=0, time=58),
    Message('note_on', channel=4, note=83, velocity=0, time=0),
    Message('note_on', channel=4, note=76, velocity=96, time=2),
    Message('note_on', channel=4, note=83, velocity=96, time=0),
    Message('note_on', channel=4, note=76, velocity=0, time=58),
    Message('note_on', channel=4, note=83, velocity=0, time=0),
    Message('note_on', channel=4, note=76, velocity=96, time=1),
    Message('note_on', channel=4, note=83, velocity=96, time=0),
    Message('note_on', channel=4, note=76, velocity=0, time=58),
    Message('note_on', channel=4, note=83, velocity=0, time=0),
    Message('note_on', channel=4, note=76, velocity=96, time=2),
    Message('note_on', channel=4, note=83, velocity=96, time=0),
    Message('note_on', channel=4, note=76, velocity=0, time=58),
    Message('note_on', channel=4, note=83, velocity=0, time=0),
    Message('note_on', channel=4, note=76, velocity=96, time=1),
    Message('note_on', channel=4, note=83, velocity=96, time=0),
    Message('note_on', channel=4, note=76, velocity=0, time=58),
    Message('note_on', channel=4, note=83, velocity=0, time=0),
    Message('note_on', channel=4, note=76, velocity=96, time=2),
    Message('note_on', channel=4, note=83, velocity=96, time=0),
    Message('note_on', channel=4, note=76, velocity=0, time=58),
    Message('note_on', channel=4, note=83, velocity=0, time=0),
    Message('note_on', channel=4, note=76, velocity=96, time=1),
    Message('note_on', channel=4, note=83, velocity=96, time=0),
    Message('note_on', channel=4, note=76, velocity=0, time=58),
    Message('note_on', channel=4, note=83, velocity=0, time=0),
    Message('note_on', channel=4, note=76, velocity=96, time=2),
    Message('note_on', channel=4, note=83, velocity=96, time=0),
    Message('note_on', channel=4, note=76, velocity=0, time=58),
    Message('note_on', channel=4, note=83, velocity=0, time=0),
    Message('note_on', channel=4, note=76, velocity=96, time=1),
    Message('note_on', channel=4, note=83, velocity=96, time=0),
    Message('note_on', channel=4, note=76, velocity=0, time=58),
    Message('note_on', channel=4, note=83, velocity=0, time=0),
    Message('note_on', channel=4, note=74, velocity=96, time=10),
    Message('control_change', channel=4, control=2, value=96, time=0),
    Message('note_on', channel=4, note=83, velocity=96, time=0),
    Message('note_on', channel=4, note=74, velocity=0, time=58),
    Message('note_on', channel=4, note=83, velocity=0, time=0),
    Message('note_on', channel=4, note=74, velocity=96, time=1),
    Message('note_on', channel=4, note=83, velocity=96, time=0),
    Message('note_on', channel=4, note=74, velocity=0, time=58),
    Message('note_on', channel=4, note=83, velocity=0, time=0),
    Message('note_on', channel=4, note=74, velocity=96, time=2),
    Message('note_on', channel=4, note=83, velocity=96, time=0),
    Message('note_on', channel=4, note=74, velocity=0, time=58),
    Message('note_on', channel=4, note=83, velocity=0, time=0),
    Message('note_on', channel=4, note=74, velocity=96, time=1),
    Message('note_on', channel=4, note=83, velocity=96, time=0),
    Message('note_on', channel=4, note=74, velocity=0, time=58),
    Message('note_on', channel=4, note=83, velocity=0, time=0),
    Message('note_on', channel=4, note=74, velocity=96, time=2),
    Message('note_on', channel=4, note=83, velocity=96, time=0),
    Message('note_on', channel=4, note=74, velocity=0, time=58),
    Message('note_on', channel=4, note=83, velocity=0, time=0),
    Message('note_on', channel=4, note=74, velocity=96, time=1),
    Message('note_on', channel=4, note=83, velocity=96, time=0),
    Message('note_on', channel=4, note=74, velocity=0, time=58),
    Message('note_on', channel=4, note=83, velocity=0, time=0),
    Message('note_on', channel=4, note=74, velocity=96, time=2),
    Message('note_on', channel=4, note=83, velocity=96, time=0),
    Message('note_on', channel=4, note=74, velocity=0, time=58),
    Message('note_on', channel=4, note=83, velocity=0, time=0),
    Message('note_on', channel=4, note=74, velocity=96, time=1),
    Message('note_on', channel=4, note=83, velocity=96, time=0),
    Message('note_on', channel=4, note=74, velocity=0, time=58),
    Message('note_on', channel=4, note=83, velocity=0, time=0),
    Message('note_on', channel=4, note=74, velocity=96, time=2),
    Message('note_on', channel=4, note=83, velocity=96, time=0),
    Message('note_on', channel=4, note=74, velocity=0, time=58),
    Message('note_on', channel=4, note=83, velocity=0, time=0),
    Message('note_on', channel=4, note=74, velocity=96, time=1),
    Message('note_on', channel=4, note=83, velocity=96, time=0),
    Message('note_on', channel=4, note=74, velocity=0, time=58),
    Message('note_on', channel=4, note=83, velocity=0, time=0),
    Message('note_on', channel=4, note=74, velocity=96, time=2),
    Message('note_on', channel=4, note=83, velocity=96, time=0),
    Message('note_on', channel=4, note=74, velocity=0, time=58),
    Message('note_on', channel=4, note=83, velocity=0, time=0),
    Message('note_on', channel=4, note=74, velocity=96, time=1),
    Message('note_on', channel=4, note=83, velocity=96, time=0),
    Message('note_on', channel=4, note=74, velocity=0, time=58),
    Message('note_on', channel=4, note=83, velocity=0, time=0),
    Message('note_on', channel=4, note=74, velocity=96, time=2),
    Message('note_on', channel=4, note=83, velocity=96, time=0),
    Message('note_on', channel=4, note=74, velocity=0, time=58),
    Message('note_on', channel=4, note=83, velocity=0, time=0),
    Message('note_on', channel=4, note=74, velocity=96, time=1),
    Message('note_on', channel=4, note=83, velocity=96, time=0),
    Message('note_on', channel=4, note=74, velocity=0, time=58),
    Message('note_on', channel=4, note=83, velocity=0, time=0),
    Message('note_on', channel=4, note=74, velocity=96, time=2),
    Message('note_on', channel=4, note=83, velocity=96, time=0),
    Message('note_on', channel=4, note=74, velocity=0, time=58),
    Message('note_on', channel=4, note=83, velocity=0, time=0),
    Message('note_on', channel=4, note=74, velocity=96, time=1),
    Message('note_on', channel=4, note=83, velocity=96, time=0),
    Message('note_on', channel=4, note=74, velocity=0, time=58),
    Message('note_on', channel=4, note=83, velocity=0, time=0),
    Message('note_on', channel=4, note=74, velocity=96, time=2),
    Message('note_on', channel=4, note=83, velocity=96, time=0),
    Message('note_on', channel=4, note=74, velocity=0, time=58),
    Message('note_on', channel=4, note=83, velocity=0, time=0),
    Message('note_on', channel=4, note=74, velocity=96, time=1),
    Message('note_on', channel=4, note=83, velocity=96, time=0),
    Message('note_on', channel=4, note=74, velocity=0, time=58),
    Message('note_on', channel=4, note=83, velocity=0, time=0),
    Message('note_on', channel=4, note=74, velocity=96, time=2),
    Message('note_on', channel=4, note=83, velocity=96, time=0),
    Message('note_on', channel=4, note=74, velocity=0, time=58),
    Message('note_on', channel=4, note=83, velocity=0, time=0),
    Message('note_on', channel=4, note=74, velocity=96, time=1),
    Message('note_on', channel=4, note=83, velocity=96, time=0),
    Message('note_on', channel=4, note=74, velocity=0, time=58),
    Message('note_on', channel=4, note=83, velocity=0, time=0),
    Message('note_on', channel=4, note=74, velocity=96, time=2),
    Message('note_on', channel=4, note=83, velocity=96, time=0),
    Message('note_on', channel=4, note=74, velocity=0, time=58),
    Message('note_on', channel=4, note=83, velocity=0, time=0),
    Message('note_on', channel=4, note=74, velocity=96, time=1),
    Message('note_on', channel=4, note=83, velocity=96, time=0),
    Message('note_on', channel=4, note=74, velocity=0, time=58),
    Message('note_on', channel=4, note=83, velocity=0, time=0),
    Message('note_on', channel=4, note=74, velocity=96, time=2),
    Message('note_on', channel=4, note=83, velocity=96, time=0),
    Message('note_on', channel=4, note=74, velocity=0, time=58),
    Message('note_on', channel=4, note=83, velocity=0, time=0),
    Message('note_on', channel=4, note=74, velocity=96, time=1),
    Message('note_on', channel=4, note=83, velocity=96, time=0),
    Message('note_on', channel=4, note=74, velocity=0, time=58),
    Message('note_on', channel=4, note=83, velocity=0, time=0),
    Message('note_on', channel=4, note=74, velocity=96, time=2),
    Message('note_on', channel=4, note=83, velocity=96, time=0),
    Message('note_on', channel=4, note=74, velocity=0, time=58),
    Message('note_on', channel=4, note=83, velocity=0, time=0),
    Message('note_on', channel=4, note=74, velocity=96, time=2),
    Message('note_on', channel=4, note=83, velocity=96, time=0),
    Message('note_on', channel=4, note=74, velocity=0, time=58),
    Message('note_on', channel=4, note=83, velocity=0, time=0),
    Message('note_on', channel=4, note=74, velocity=96, time=1),
    Message('note_on', channel=4, note=83, velocity=96, time=0),
    Message('note_on', channel=4, note=74, velocity=0, time=58),
    Message('note_on', channel=4, note=83, velocity=0, time=0),
    Message('note_on', channel=4, note=74, velocity=96, time=2),
    Message('note_on', channel=4, note=83, velocity=96, time=0),
    Message('note_on', channel=4, note=74, velocity=0, time=58),
    Message('note_on', channel=4, note=83, velocity=0, time=0),
    Message('note_on', channel=4, note=74, velocity=96, time=1),
    Message('note_on', channel=4, note=83, velocity=96, time=0),
    Message('note_on', channel=4, note=74, velocity=0, time=58),
    Message('note_on', channel=4, note=83, velocity=0, time=0),
    Message('note_on', channel=4, note=74, velocity=96, time=2),
    Message('note_on', channel=4, note=83, velocity=96, time=0),
    Message('note_on', channel=4, note=74, velocity=0, time=58),
    Message('note_on', channel=4, note=83, velocity=0, time=0),
    Message('note_on', channel=4, note=74, velocity=96, time=1),
    Message('note_on', channel=4, note=83, velocity=96, time=0),
    Message('note_on', channel=4, note=74, velocity=0, time=58),
    Message('note_on', channel=4, note=83, velocity=0, time=0),
    Message('note_on', channel=4, note=74, velocity=96, time=2),
    Message('note_on', channel=4, note=83, velocity=96, time=0),
    Message('note_on', channel=4, note=74, velocity=0, time=58),
    Message('note_on', channel=4, note=83, velocity=0, time=0),
    Message('note_on', channel=4, note=74, velocity=96, time=17),
    Message('control_change', channel=4, control=2, value=96, time=0),
    Message('note_on', channel=4, note=83, velocity=96, time=0),
    Message('note_on', channel=4, note=74, velocity=0, time=58),
    Message('note_on', channel=4, note=83, velocity=0, time=0),
    Message('note_on', channel=4, note=74, velocity=96, time=1),
    Message('note_on', channel=4, note=83, velocity=96, time=0),
    Message('note_on', channel=4, note=74, velocity=0, time=58),
    Message('note_on', channel=4, note=83, velocity=0, time=0),
    Message('note_on', channel=4, note=74, velocity=96, time=2),
    Message('note_on', channel=4, note=83, velocity=96, time=0),
    Message('note_on', channel=4, note=74, velocity=0, time=58),
    Message('note_on', channel=4, note=83, velocity=0, time=0),
    Message('note_on', channel=4, note=74, velocity=96, time=1),
    Message('note_on', channel=4, note=83, velocity=96, time=0),
    Message('note_on', channel=4, note=74, velocity=0, time=58),
    Message('note_on', channel=4, note=83, velocity=0, time=0),
    Message('note_on', channel=4, note=74, velocity=96, time=2),
    Message('note_on', channel=4, note=83, velocity=96, time=0),
    Message('note_on', channel=4, note=74, velocity=0, time=58),
    Message('note_on', channel=4, note=83, velocity=0, time=0),
    Message('note_on', channel=4, note=74, velocity=96, time=1),
    Message('note_on', channel=4, note=83, velocity=96, time=0),
    Message('note_on', channel=4, note=74, velocity=0, time=58),
    Message('note_on', channel=4, note=83, velocity=0, time=0),
    Message('note_on', channel=4, note=74, velocity=96, time=2),
    Message('note_on', channel=4, note=83, velocity=96, time=0),
    Message('note_on', channel=4, note=74, velocity=0, time=58),
    Message('note_on', channel=4, note=83, velocity=0, time=0),
    Message('note_on', channel=4, note=74, velocity=96, time=1),
    Message('note_on', channel=4, note=83, velocity=96, time=0),
    Message('note_on', channel=4, note=74, velocity=0, time=58),
    Message('note_on', channel=4, note=83, velocity=0, time=0),
    Message('note_on', channel=4, note=74, velocity=96, time=2),
    Message('note_on', channel=4, note=83, velocity=96, time=0),
    Message('note_on', channel=4, note=74, velocity=0, time=58),
    Message('note_on', channel=4, note=83, velocity=0, time=0),
    Message('note_on', channel=4, note=74, velocity=96, time=1),
    Message('note_on', channel=4, note=83, velocity=96, time=0),
    Message('note_on', channel=4, note=74, velocity=0, time=58),
    Message('note_on', channel=4, note=83, velocity=0, time=0),
    Message('note_on', channel=4, note=74, velocity=96, time=2),
    Message('note_on', channel=4, note=83, velocity=96, time=0),
    Message('note_on', channel=4, note=74, velocity=0, time=58),
    Message('note_on', channel=4, note=83, velocity=0, time=0),
    Message('note_on', channel=4, note=74, velocity=96, time=1),
    Message('note_on', channel=4, note=83, velocity=96, time=0),
    Message('note_on', channel=4, note=74, velocity=0, time=58),
    Message('note_on', channel=4, note=83, velocity=0, time=0),
    Message('note_on', channel=4, note=74, velocity=96, time=2),
    Message('note_on', channel=4, note=83, velocity=96, time=0),
    Message('note_on', channel=4, note=74, velocity=0, time=58),
    Message('note_on', channel=4, note=83, velocity=0, time=0),
    Message('note_on', channel=4, note=74, velocity=96, time=1),
    Message('note_on', channel=4, note=83, velocity=96, time=0),
    Message('note_on', channel=4, note=74, velocity=0, time=58),
    Message('note_on', channel=4, note=83, velocity=0, time=0),
    Message('note_on', channel=4, note=74, velocity=96, time=2),
    Message('note_on', channel=4, note=83, velocity=96, time=0),
    Message('note_on', channel=4, note=74, velocity=0, time=58),
    Message('note_on', channel=4, note=83, velocity=0, time=0),
    Message('note_on', channel=4, note=74, velocity=96, time=1),
    Message('note_on', channel=4, note=83, velocity=96, time=0),
    Message('note_on', channel=4, note=74, velocity=0, time=58),
    Message('note_on', channel=4, note=83, velocity=0, time=0),
    Message('note_on', channel=4, note=71, velocity=96, time=10),
    Message('control_change', channel=4, control=2, value=96, time=0),
    Message('note_on', channel=4, note=79, velocity=96, time=0),
    Message('note_on', channel=4, note=71, velocity=0, time=59),
    Message('note_on', channel=4, note=79, velocity=0, time=0),
    Message('note_on', channel=4, note=71, velocity=96, time=1),
    Message('note_on', channel=4, note=79, velocity=96, time=0),
    Message('note_on', channel=4, note=71, velocity=0, time=59),
    Message('note_on', channel=4, note=79, velocity=0, time=0),
    Message('note_on', channel=4, note=71, velocity=96, time=1),
    Message('note_on', channel=4, note=79, velocity=96, time=0),
    Message('note_on', channel=4, note=71, velocity=0, time=59),
    Message('note_on', channel=4, note=79, velocity=0, time=0),
    Message('note_on', channel=4, note=71, velocity=96, time=1),
    Message('note_on', channel=4, note=79, velocity=96, time=0),
    Message('note_on', channel=4, note=71, velocity=0, time=59),
    Message('note_on', channel=4, note=79, velocity=0, time=0),
    Message('note_on', channel=4, note=71, velocity=96, time=1),
    Message('note_on', channel=4, note=79, velocity=96, time=0),
    Message('note_on', channel=4, note=71, velocity=0, time=59),
    Message('note_on', channel=4, note=79, velocity=0, time=0),
    Message('note_on', channel=4, note=71, velocity=96, time=1),
    Message('note_on', channel=4, note=79, velocity=96, time=0),
    Message('note_on', channel=4, note=71, velocity=0, time=59),
    Message('note_on', channel=4, note=79, velocity=0, time=0),
    Message('note_on', channel=4, note=71, velocity=96, time=1),
    Message('note_on', channel=4, note=79, velocity=96, time=0),
    Message('note_on', channel=4, note=71, velocity=0, time=59),
    Message('note_on', channel=4, note=79, velocity=0, time=0),
    Message('note_on', channel=4, note=71, velocity=96, time=1),
    Message('note_on', channel=4, note=79, velocity=96, time=0),
    Message('note_on', channel=4, note=71, velocity=0, time=59),
    Message('note_on', channel=4, note=79, velocity=0, time=0),
    Message('note_on', channel=4, note=82, velocity=96, time=1),
    Message('control_change', channel=4, control=2, value=96, time=0),
    Message('note_on', channel=4, note=82, velocity=0, time=59),
    Message('note_on', channel=4, note=82, velocity=96, time=1),
    Message('note_on', channel=4, note=82, velocity=0, time=59),
    Message('note_on', channel=4, note=82, velocity=96, time=1),
    Message('note_on', channel=4, note=82, velocity=0, time=59),
    Message('note_on', channel=4, note=82, velocity=96, time=1),
    Message('note_on', channel=4, note=82, velocity=0, time=59),
    Message('note_on', channel=4, note=82, velocity=96, time=1),
    Message('note_on', channel=4, note=82, velocity=0, time=59),
    Message('note_on', channel=4, note=82, velocity=96, time=1),
    Message('note_on', channel=4, note=82, velocity=0, time=59),
    Message('note_on', channel=4, note=82, velocity=96, time=1),
    Message('note_on', channel=4, note=82, velocity=0, time=59),
    Message('note_on', channel=4, note=82, velocity=96, time=1),
    Message('note_on', channel=4, note=82, velocity=0, time=59),
    Message('note_on', channel=4, note=78, velocity=96, time=1),
    Message('control_change', channel=4, control=2, value=96, time=0),
    Message('note_on', channel=4, note=83, velocity=96, time=0),
    Message('note_on', channel=4, note=78, velocity=0, time=239),
    Message('note_on', channel=4, note=83, velocity=0, time=0),
    Message('note_on', channel=4, note=71, velocity=96, time=1201),
    Message('control_change', channel=4, control=2, value=96, time=0),
    Message('note_on', channel=4, note=71, velocity=0, time=479),
    Message('note_on', channel=4, note=73, velocity=96, time=1),
    Message('control_change', channel=4, control=2, value=96, time=0),
    Message('note_on', channel=4, note=73, velocity=0, time=479),
    Message('note_on', channel=4, note=74, velocity=96, time=1),
    Message('control_change', channel=4, control=2, value=96, time=0),
    Message('note_on', channel=4, note=74, velocity=0, time=479),
    Message('note_on', channel=4, note=76, velocity=96, time=1),
    Message('control_change', channel=4, control=2, value=96, time=0),
    Message('note_on', channel=4, note=76, velocity=0, time=479),
    Message('note_on', channel=4, note=78, velocity=96, time=1),
    Message('control_change', channel=4, control=2, value=96, time=0),
    Message('note_on', channel=4, note=78, velocity=0, time=239),
    Message('note_on', channel=4, note=79, velocity=96, time=1),
    Message('control_change', channel=4, control=2, value=96, time=0),
    Message('note_on', channel=4, note=79, velocity=0, time=239),
    Message('note_on', channel=4, note=81, velocity=96, time=1),
    Message('control_change', channel=4, control=2, value=96, time=0),
    Message('note_on', channel=4, note=81, velocity=0, time=719),
    Message('note_on', channel=4, note=79, velocity=96, time=1),
    Message('control_change', channel=4, control=2, value=96, time=0),
    Message('note_on', channel=4, note=79, velocity=0, time=239),
    Message('note_on', channel=4, note=78, velocity=96, time=1),
    Message('control_change', channel=4, control=2, value=96, time=0),
    Message('note_on', channel=4, note=78, velocity=0, time=479),
    Message('note_on', channel=4, note=79, velocity=96, time=1),
    Message('control_change', channel=4, control=2, value=96, time=0),
    Message('note_on', channel=4, note=79, velocity=0, time=239),
    Message('note_on', channel=4, note=81, velocity=96, time=1),
    Message('control_change', channel=4, control=2, value=96, time=0),
    Message('note_on', channel=4, note=81, velocity=0, time=239),
    Message('note_on', channel=4, note=83, velocity=96, time=1),
    Message('control_change', channel=4, control=2, value=96, time=0),
    Message('note_on', channel=4, note=83, velocity=0, time=719),
    Message('note_on', channel=4, note=81, velocity=96, time=1),
    Message('control_change', channel=4, control=2, value=96, time=0),
    Message('note_on', channel=4, note=81, velocity=0, time=239),
    Message('note_on', channel=4, note=79, velocity=96, time=1),
    Message('control_change', channel=4, control=2, value=96, time=0),
    Message('note_on', channel=4, note=79, velocity=0, time=479),
    Message('note_on', channel=4, note=81, velocity=96, time=1),
    Message('control_change', channel=4, control=2, value=96, time=0),
    Message('note_on', channel=4, note=81, velocity=0, time=239),
    Message('note_on', channel=4, note=83, velocity=96, time=1),
    Message('control_change', channel=4, control=2, value=96, time=0),
    Message('note_on', channel=4, note=83, velocity=0, time=239),
    Message('note_on', channel=4, note=85, velocity=96, time=1),
    Message('control_change', channel=4, control=2, value=96, time=0),
    Message('note_on', channel=4, note=85, velocity=0, time=719),
    Message('note_on', channel=4, note=83, velocity=96, time=1),
    Message('control_change', channel=4, control=2, value=96, time=0),
    Message('note_on', channel=4, note=83, velocity=0, time=239),
    Message('note_on', channel=4, note=78, velocity=96, time=1),
    Message('control_change', channel=4, control=2, value=96, time=0),
    Message('note_on', channel=4, note=78, velocity=0, time=239),
    Message('note_on', channel=4, note=74, velocity=96, time=1),
    Message('control_change', channel=4, control=2, value=96, time=0),
    Message('note_on', channel=4, note=74, velocity=0, time=239),
    Message('note_on', channel=4, note=73, velocity=96, time=1),
    Message('control_change', channel=4, control=2, value=96, time=0),
    Message('note_on', channel=4, note=73, velocity=0, time=239),
    Message('note_on', channel=4, note=71, velocity=96, time=1),
    Message('control_change', channel=4, control=2, value=96, time=0),
    Message('note_on', channel=4, note=71, velocity=0, time=239),
    Message('note_on', channel=4, note=73, velocity=96, time=1),
    Message('control_change', channel=4, control=2, value=96, time=0),
    Message('note_on', channel=4, note=73, velocity=0, time=479),
    Message('note_on', channel=4, note=74, velocity=96, time=1),
    Message('control_change', channel=4, control=2, value=96, time=0),
    Message('note_on', channel=4, note=74, velocity=0, time=479),
    Message('note_on', channel=4, note=76, velocity=96, time=1),
    Message('control_change', channel=4, control=2, value=96, time=0),
    Message('note_on', channel=4, note=76, velocity=0, time=479),
    Message('note_on', channel=4, note=78, velocity=96, time=1),
    Message('control_change', channel=4, control=2, value=96, time=0),
    Message('note_on', channel=4, note=78, velocity=0, time=239),
    Message('note_on', channel=4, note=79, velocity=96, time=1),
    Message('control_change', channel=4, control=2, value=96, time=0),
    Message('note_on', channel=4, note=79, velocity=0, time=239),
    Message('note_on', channel=4, note=81, velocity=96, time=1),
    Message('control_change', channel=4, control=2, value=96, time=0),
    Message('note_on', channel=4, note=81, velocity=0, time=719),
    Message('note_on', channel=4, note=79, velocity=96, time=1),
    Message('control_change', channel=4, control=2, value=96, time=0),
    Message('note_on', channel=4, note=79, velocity=0, time=239),
    Message('note_on', channel=4, note=78, velocity=96, time=1),
    Message('control_change', channel=4, control=2, value=96, time=0),
    Message('note_on', channel=4, note=78, velocity=0, time=479),
    Message('note_on', channel=4, note=79, velocity=96, time=1),
    Message('control_change', channel=4, control=2, value=96, time=0),
    Message('note_on', channel=4, note=79, velocity=0, time=239),
    Message('note_on', channel=4, note=81, velocity=96, time=1),
    Message('control_change', channel=4, control=2, value=96, time=0),
    Message('note_on', channel=4, note=81, velocity=0, time=239),
    Message('note_on', channel=4, note=83, velocity=96, time=1),
    Message('control_change', channel=4, control=2, value=96, time=0),
    Message('note_on', channel=4, note=83, velocity=0, time=719),
    Message('note_on', channel=4, note=81, velocity=96, time=1),
    Message('control_change', channel=4, control=2, value=96, time=0),
    Message('note_on', channel=4, note=81, velocity=0, time=239),
    Message('note_on', channel=4, note=79, velocity=96, time=1),
    Message('control_change', channel=4, control=2, value=96, time=0),
    Message('note_on', channel=4, note=79, velocity=0, time=479),
    Message('note_on', channel=4, note=81, velocity=96, time=1),
    Message('control_change', channel=4, control=2, value=96, time=0),
    Message('note_on', channel=4, note=81, velocity=0, time=239),
    Message('note_on', channel=4, note=83, velocity=96, time=1),
    Message('control_change', channel=4, control=2, value=96, time=0),
    Message('note_on', channel=4, note=83, velocity=0, time=239),
    Message('note_on', channel=4, note=84, velocity=96, time=1),
    Message('control_change', channel=4, control=2, value=96, time=0),
    Message('note_on', channel=4, note=84, velocity=0, time=319),
    Message('note_on', channel=4, note=79, velocity=96, time=1),
    Message('control_change', channel=4, control=2, value=96, time=0),
    Message('note_on', channel=4, note=79, velocity=0, time=319),
    Message('note_on', channel=4, note=84, velocity=96, time=1),
    Message('control_change', channel=4, control=2, value=96, time=0),
    Message('note_on', channel=4, note=84, velocity=0, time=319),
    Message('note_on', channel=4, note=83, velocity=96, time=1),
    Message('control_change', channel=4, control=2, value=96, time=0),
    Message('note_on', channel=4, note=83, velocity=0, time=639),
    Message('note_on', channel=4, note=83, velocity=96, time=1),
    Message('control_change', channel=4, control=2, value=96, time=0),
    Message('note_on', channel=4, note=83, velocity=0, time=319),
    Message('note_on', channel=4, note=82, velocity=96, time=1),
    Message('control_change', channel=4, control=2, value=96, time=0),
    Message('note_on', channel=4, note=82, velocity=0, time=319),
    Message('note_on', channel=4, note=78, velocity=96, time=1),
    Message('control_change', channel=4, control=2, value=96, time=0),
    Message('note_on', channel=4, note=78, velocity=0, time=319),
    Message('note_on', channel=4, note=82, velocity=96, time=1),
    Message('control_change', channel=4, control=2, value=96, time=0),
    Message('note_on', channel=4, note=82, velocity=0, time=319),
    Message('note_on', channel=4, note=83, velocity=96, time=1),
    Message('control_change', channel=4, control=2, value=96, time=0),
    Message('note_on', channel=4, note=83, velocity=0, time=639),
    Message('note_on', channel=4, note=83, velocity=96, time=1),
    Message('control_change', channel=4, control=2, value=96, time=0),
    Message('note_on', channel=4, note=83, velocity=0, time=319),
    Message('note_on', channel=4, note=84, velocity=96, time=1),
    Message('control_change', channel=4, control=2, value=96, time=0),
    Message('note_on', channel=4, note=84, velocity=0, time=319),
    Message('note_on', channel=4, note=79, velocity=96, time=1),
    Message('control_change', channel=4, control=2, value=96, time=0),
    Message('note_on', channel=4, note=79, velocity=0, time=319),
    Message('note_on', channel=4, note=84, velocity=96, time=1),
    Message('control_change', channel=4, control=2, value=96, time=0),
    Message('note_on', channel=4, note=84, velocity=0, time=319),
    Message('note_on', channel=4, note=83, velocity=96, time=1),
    Message('control_change', channel=4, control=2, value=96, time=0),
    Message('note_on', channel=4, note=83, velocity=0, time=639),
    Message('note_on', channel=4, note=83, velocity=96, time=1),
    Message('control_change', channel=4, control=2, value=96, time=0),
    Message('note_on', channel=4, note=83, velocity=0, time=319),
    Message('note_on', channel=4, note=82, velocity=96, time=1),
    Message('control_change', channel=4, control=2, value=96, time=0),
    Message('note_on', channel=4, note=82, velocity=0, time=319),
    Message('note_on', channel=4, note=78, velocity=96, time=1),
    Message('control_change', channel=4, control=2, value=96, time=0),
    Message('note_on', channel=4, note=78, velocity=0, time=319),
    Message('note_on', channel=4, note=82, velocity=96, time=1),
    Message('control_change', channel=4, control=2, value=96, time=0),
    Message('note_on', channel=4, note=82, velocity=0, time=319),
    Message('note_on', channel=4, note=83, velocity=96, time=1),
    Message('control_change', channel=4, control=2, value=96, time=0),
    Message('note_on', channel=4, note=83, velocity=0, time=639),
    Message('note_on', channel=4, note=83, velocity=96, time=1),
    Message('control_change', channel=4, control=2, value=96, time=0),
    Message('note_on', channel=4, note=83, velocity=0, time=319),
    Message('control_change', channel=4, control=2, value=96, time=1),
    Message('note_on', channel=4, note=84, velocity=96, time=0),
    Message('note_on', channel=4, note=84, velocity=0, time=159),
    Message('note_on', channel=4, note=84, velocity=96, time=1),
    Message('note_on', channel=4, note=84, velocity=0, time=159),
    Message('note_on', channel=4, note=79, velocity=96, time=1),
    Message('control_change', channel=4, control=2, value=96, time=0),
    Message('note_on', channel=4, note=79, velocity=0, time=159),
    Message('control_change', channel=4, control=2, value=97, time=1),
    Message('note_on', channel=4, note=79, velocity=97, time=0),
    Message('note_on', channel=4, note=79, velocity=0, time=159),
    Message('note_on', channel=4, note=84, velocity=97, time=1),
    Message('control_change', channel=4, control=2, value=97, time=0),
    Message('note_on', channel=4, note=84, velocity=0, time=159),
    Message('note_on', channel=4, note=84, velocity=97, time=1),
    Message('note_on', channel=4, note=84, velocity=0, time=159),
    Message('control_change', channel=4, control=2, value=98, time=1),
    Message('note_on', channel=4, note=84, velocity=98, time=0),
    Message('note_on', channel=4, note=84, velocity=0, time=159),
    Message('note_on', channel=4, note=84, velocity=98, time=1),
    Message('note_on', channel=4, note=84, velocity=0, time=159),
    Message('note_on', channel=4, note=79, velocity=98, time=1),
    Message('control_change', channel=4, control=2, value=98, time=0),
    Message('note_on', channel=4, note=79, velocity=0, time=159),
    Message('control_change', channel=4, control=2, value=99, time=1),
    Message('note_on', channel=4, note=79, velocity=99, time=0),
    Message('note_on', channel=4, note=79, velocity=0, time=159),
    Message('note_on', channel=4, note=84, velocity=99, time=1),
    Message('control_change', channel=4, control=2, value=99, time=0),
    Message('note_on', channel=4, note=84, velocity=0, time=159),
    Message('note_on', channel=4, note=84, velocity=99, time=1),
    Message('note_on', channel=4, note=84, velocity=0, time=159),
    Message('control_change', channel=4, control=2, value=100, time=1),
    Message('note_on', channel=4, note=79, velocity=100, time=0),
    Message('note_on', channel=4, note=79, velocity=0, time=159),
    Message('note_on', channel=4, note=79, velocity=100, time=1),
    Message('note_on', channel=4, note=79, velocity=0, time=159),
    Message('note_on', channel=4, note=79, velocity=100, time=1),
    Message('control_change', channel=4, control=2, value=100, time=0),
    Message('note_on', channel=4, note=79, velocity=0, time=159),
    Message('control_change', channel=4, control=2, value=101, time=1),
    Message('note_on', channel=4, note=79, velocity=101, time=0),
    Message('note_on', channel=4, note=79, velocity=0, time=159),
    Message('note_on', channel=4, note=79, velocity=101, time=1),
    Message('control_change', channel=4, control=2, value=101, time=0),
    Message('note_on', channel=4, note=79, velocity=0, time=159),
    Message('note_on', channel=4, note=79, velocity=101, time=1),
    Message('note_on', channel=4, note=79, velocity=0, time=159),
    Message('control_change', channel=4, control=2, value=102, time=1),
    Message('note_on', channel=4, note=78, velocity=102, time=0),
    Message('note_on', channel=4, note=78, velocity=0, time=159),
    Message('note_on', channel=4, note=78, velocity=102, time=1),
    Message('note_on', channel=4, note=78, velocity=0, time=159),
    Message('note_on', channel=4, note=78, velocity=102, time=1),
    Message('control_change', channel=4, control=2, value=102, time=0),
    Message('note_on', channel=4, note=78, velocity=0, time=159),
    Message('control_change', channel=4, control=2, value=103, time=1),
    Message('note_on', channel=4, note=78, velocity=103, time=0),
    Message('note_on', channel=4, note=78, velocity=0, time=159),
    Message('note_on', channel=4, note=78, velocity=103, time=1),
    Message('control_change', channel=4, control=2, value=103, time=0),
    Message('note_on', channel=4, note=78, velocity=0, time=159),
    Message('note_on', channel=4, note=78, velocity=103, time=1),
    Message('note_on', channel=4, note=78, velocity=0, time=159),
    Message('control_change', channel=4, control=2, value=104, time=1),
    Message('note_on', channel=4, note=84, velocity=104, time=0),
    Message('note_on', channel=4, note=84, velocity=0, time=159),
    Message('note_on', channel=4, note=84, velocity=104, time=1),
    Message('note_on', channel=4, note=84, velocity=0, time=159),
    Message('note_on', channel=4, note=79, velocity=104, time=1),
    Message('control_change', channel=4, control=2, value=104, time=0),
    Message('note_on', channel=4, note=79, velocity=0, time=159),
    Message('control_change', channel=4, control=2, value=105, time=1),
    Message('note_on', channel=4, note=79, velocity=105, time=0),
    Message('note_on', channel=4, note=79, velocity=0, time=159),
    Message('note_on', channel=4, note=84, velocity=105, time=1),
    Message('control_change', channel=4, control=2, value=105, time=0),
    Message('note_on', channel=4, note=84, velocity=0, time=159),
    Message('note_on', channel=4, note=84, velocity=105, time=1),
    Message('note_on', channel=4, note=84, velocity=0, time=159),
    Message('control_change', channel=4, control=2, value=106, time=1),
    Message('note_on', channel=4, note=84, velocity=106, time=0),
    Message('note_on', channel=4, note=84, velocity=0, time=159),
    Message('note_on', channel=4, note=84, velocity=106, time=1),
    Message('note_on', channel=4, note=84, velocity=0, time=159),
    Message('note_on', channel=4, note=79, velocity=106, time=1),
    Message('control_change', channel=4, control=2, value=106, time=0),
    Message('note_on', channel=4, note=79, velocity=0, time=159),
    Message('control_change', channel=4, control=2, value=107, time=1),
    Message('note_on', channel=4, note=79, velocity=107, time=0),
    Message('note_on', channel=4, note=79, velocity=0, time=159),
    Message('note_on', channel=4, note=84, velocity=107, time=1),
    Message('control_change', channel=4, control=2, value=107, time=0),
    Message('note_on', channel=4, note=84, velocity=0, time=159),
    Message('note_on', channel=4, note=84, velocity=107, time=1),
    Message('note_on', channel=4, note=84, velocity=0, time=159),
    Message('control_change', channel=4, control=2, value=108, time=1),
    Message('note_on', channel=4, note=79, velocity=108, time=0),
    Message('note_on', channel=4, note=79, velocity=0, time=159),
    Message('note_on', channel=4, note=79, velocity=108, time=1),
    Message('note_on', channel=4, note=79, velocity=0, time=159),
    Message('note_on', channel=4, note=79, velocity=108, time=1),
    Message('control_change', channel=4, control=2, value=108, time=0),
    Message('note_on', channel=4, note=79, velocity=0, time=159),
    Message('control_change', channel=4, control=2, value=109, time=1),
    Message('note_on', channel=4, note=79, velocity=109, time=0),
    Message('note_on', channel=4, note=79, velocity=0, time=159),
    Message('note_on', channel=4, note=79, velocity=109, time=1),
    Message('control_change', channel=4, control=2, value=109, time=0),
    Message('note_on', channel=4, note=79, velocity=0, time=159),
    Message('note_on', channel=4, note=79, velocity=109, time=1),
    Message('note_on', channel=4, note=79, velocity=0, time=159),
    Message('control_change', channel=4, control=2, value=110, time=1),
    Message('note_on', channel=4, note=78, velocity=110, time=0),
    Message('note_on', channel=4, note=78, velocity=0, time=159),
    Message('note_on', channel=4, note=78, velocity=110, time=1),
    Message('note_on', channel=4, note=78, velocity=0, time=159),
    Message('note_on', channel=4, note=78, velocity=110, time=1),
    Message('control_change', channel=4, control=2, value=110, time=0),
    Message('note_on', channel=4, note=78, velocity=0, time=159),
    Message('control_change', channel=4, control=2, value=111, time=1),
    Message('note_on', channel=4, note=78, velocity=111, time=0),
    Message('note_on', channel=4, note=78, velocity=0, time=159),
    Message('note_on', channel=4, note=78, velocity=111, time=1),
    Message('control_change', channel=4, control=2, value=111, time=0),
    Message('note_on', channel=4, note=78, velocity=0, time=159),
    Message('note_on', channel=4, note=78, velocity=111, time=1),
    Message('note_on', channel=4, note=78, velocity=0, time=159),
    Message('control_change', channel=4, control=2, value=112, time=1),
    Message('note_on', channel=4, note=84, velocity=112, time=0),
    Message('note_on', channel=4, note=84, velocity=0, time=159),
    Message('note_on', channel=4, note=84, velocity=112, time=1),
    Message('note_on', channel=4, note=84, velocity=0, time=159),
    Message('note_on', channel=4, note=79, velocity=112, time=1),
    Message('control_change', channel=4, control=2, value=112, time=0),
    Message('note_on', channel=4, note=79, velocity=0, time=159),
    Message('note_on', channel=4, note=79, velocity=112, time=1),
    Message('note_on', channel=4, note=79, velocity=0, time=159),
    Message('note_on', channel=4, note=84, velocity=112, time=1),
    Message('control_change', channel=4, control=2, value=112, time=0),
    Message('note_on', channel=4, note=84, velocity=0, time=159),
    Message('note_on', channel=4, note=84, velocity=112, time=1),
    Message('note_on', channel=4, note=84, velocity=0, time=159),
    Message('note_on', channel=4, note=84, velocity=112, time=1),
    Message('control_change', channel=4, control=2, value=112, time=0),
    Message('note_on', channel=4, note=84, velocity=0, time=159),
    Message('note_on', channel=4, note=84, velocity=112, time=1),
    Message('note_on', channel=4, note=84, velocity=0, time=159),
    Message('note_on', channel=4, note=79, velocity=112, time=1),
    Message('control_change', channel=4, control=2, value=112, time=0),
    Message('note_on', channel=4, note=79, velocity=0, time=159),
    Message('note_on', channel=4, note=79, velocity=112, time=1),
    Message('note_on', channel=4, note=79, velocity=0, time=159),
    Message('note_on', channel=4, note=84, velocity=112, time=1),
    Message('control_change', channel=4, control=2, value=112, time=0),
    Message('note_on', channel=4, note=84, velocity=0, time=159),
    Message('note_on', channel=4, note=84, velocity=112, time=1),
    Message('note_on', channel=4, note=84, velocity=0, time=159),
    Message('note_on', channel=4, note=85, velocity=112, time=1),
    Message('control_change', channel=4, control=2, value=112, time=0),
    Message('note_on', channel=4, note=85, velocity=0, time=159),
    Message('note_on', channel=4, note=85, velocity=112, time=1),
    Message('note_on', channel=4, note=85, velocity=0, time=159),
    Message('note_on', channel=4, note=85, velocity=112, time=1),
    Message('control_change', channel=4, control=2, value=112, time=0),
    Message('note_on', channel=4, note=85, velocity=0, time=159),
    Message('note_on', channel=4, note=85, velocity=112, time=1),
    Message('note_on', channel=4, note=85, velocity=0, time=159),
    Message('note_on', channel=4, note=85, velocity=112, time=1),
    Message('control_change', channel=4, control=2, value=112, time=0),
    Message('note_on', channel=4, note=85, velocity=0, time=159),
    Message('note_on', channel=4, note=85, velocity=112, time=1),
    Message('note_on', channel=4, note=85, velocity=0, time=159),
    Message('note_on', channel=4, note=85, velocity=112, time=1),
    Message('control_change', channel=4, control=2, value=112, time=0),
    Message('note_on', channel=4, note=85, velocity=0, time=159),
    Message('note_on', channel=4, note=85, velocity=112, time=1),
    Message('note_on', channel=4, note=85, velocity=0, time=159),
    Message('note_on', channel=4, note=85, velocity=112, time=1),
    Message('control_change', channel=4, control=2, value=112, time=0),
    Message('note_on', channel=4, note=85, velocity=0, time=159),
    Message('note_on', channel=4, note=85, velocity=112, time=1),
    Message('note_on', channel=4, note=85, velocity=0, time=159),
    Message('note_on', channel=4, note=85, velocity=112, time=1),
    Message('control_change', channel=4, control=2, value=112, time=0),
    Message('note_on', channel=4, note=85, velocity=0, time=159),
    Message('note_on', channel=4, note=85, velocity=112, time=1),
    Message('note_on', channel=4, note=85, velocity=0, time=159),
    Message('note_on', channel=4, note=86, velocity=112, time=1),
    Message('control_change', channel=4, control=2, value=112, time=0),
    Message('note_on', channel=4, note=86, velocity=0, time=159),
    Message('note_on', channel=4, note=86, velocity=112, time=1),
    Message('note_on', channel=4, note=86, velocity=0, time=159),
    Message('note_on', channel=4, note=82, velocity=112, time=1),
    Message('control_change', channel=4, control=2, value=112, time=0),
    Message('note_on', channel=4, note=82, velocity=0, time=159),
    Message('note_on', channel=4, note=82, velocity=112, time=1),
    Message('note_on', channel=4, note=82, velocity=0, time=159),
    Message('note_on', channel=4, note=86, velocity=112, time=1),
    Message('control_change', channel=4, control=2, value=112, time=0),
    Message('note_on', channel=4, note=86, velocity=0, time=159),
    Message('note_on', channel=4, note=86, velocity=112, time=1),
    Message('note_on', channel=4, note=86, velocity=0, time=159),
    Message('note_on', channel=4, note=86, velocity=112, time=1),
    Message('control_change', channel=4, control=2, value=112, time=0),
    Message('note_on', channel=4, note=86, velocity=0, time=159),
    Message('note_on', channel=4, note=86, velocity=112, time=1),
    Message('note_on', channel=4, note=86, velocity=0, time=159),
    Message('note_on', channel=4, note=82, velocity=112, time=1),
    Message('control_change', channel=4, control=2, value=112, time=0),
    Message('note_on', channel=4, note=82, velocity=0, time=159),
    Message('note_on', channel=4, note=82, velocity=112, time=1),
    Message('note_on', channel=4, note=82, velocity=0, time=159),
    Message('note_on', channel=4, note=86, velocity=112, time=1),
    Message('control_change', channel=4, control=2, value=112, time=0),
    Message('note_on', channel=4, note=86, velocity=0, time=159),
    Message('note_on', channel=4, note=86, velocity=112, time=1),
    Message('note_on', channel=4, note=86, velocity=0, time=159),
    Message('note_on', channel=4, note=86, velocity=112, time=1),
    Message('control_change', channel=4, control=2, value=112, time=0),
    Message('note_on', channel=4, note=86, velocity=0, time=159),
    Message('note_on', channel=4, note=86, velocity=112, time=1),
    Message('note_on', channel=4, note=86, velocity=0, time=159),
    Message('note_on', channel=4, note=86, velocity=112, time=1),
    Message('control_change', channel=4, control=2, value=112, time=0),
    Message('note_on', channel=4, note=86, velocity=0, time=159),
    Message('note_on', channel=4, note=86, velocity=112, time=1),
    Message('note_on', channel=4, note=86, velocity=0, time=159),
    Message('note_on', channel=4, note=86, velocity=112, time=1),
    Message('control_change', channel=4, control=2, value=112, time=0),
    Message('note_on', channel=4, note=86, velocity=0, time=159),
    Message('note_on', channel=4, note=86, velocity=112, time=1),
    Message('note_on', channel=4, note=86, velocity=0, time=159),
    Message('note_on', channel=4, note=86, velocity=112, time=1),
    Message('control_change', channel=4, control=2, value=112, time=0),
    Message('note_on', channel=4, note=86, velocity=0, time=159),
    Message('note_on', channel=4, note=86, velocity=112, time=1),
    Message('note_on', channel=4, note=86, velocity=0, time=159),
    Message('note_on', channel=4, note=86, velocity=112, time=1),
    Message('control_change', channel=4, control=2, value=112, time=0),
    Message('note_on', channel=4, note=86, velocity=0, time=159),
    Message('note_on', channel=4, note=86, velocity=112, time=1),
    Message('note_on', channel=4, note=86, velocity=0, time=159),
    Message('note_on', channel=4, note=85, velocity=112, time=1),
    Message('control_change', channel=4, control=2, value=112, time=0),
    Message('note_on', channel=4, note=85, velocity=0, time=159),
    Message('note_on', channel=4, note=85, velocity=112, time=1),
    Message('note_on', channel=4, note=85, velocity=0, time=159),
    Message('note_on', channel=4, note=86, velocity=112, time=1),
    Message('control_change', channel=4, control=2, value=112, time=0),
    Message('note_on', channel=4, note=86, velocity=0, time=159),
    Message('note_on', channel=4, note=86, velocity=112, time=1),
    Message('note_on', channel=4, note=86, velocity=0, time=159),
    Message('note_on', channel=4, note=86, velocity=112, time=1),
    Message('control_change', channel=4, control=2, value=112, time=0),
    Message('note_on', channel=4, note=86, velocity=0, time=159),
    Message('note_on', channel=4, note=86, velocity=112, time=1),
    Message('note_on', channel=4, note=86, velocity=0, time=159),
    Message('note_on', channel=4, note=85, velocity=112, time=1),
    Message('control_change', channel=4, control=2, value=112, time=0),
    Message('note_on', channel=4, note=85, velocity=0, time=159),
    Message('note_on', channel=4, note=85, velocity=112, time=1),
    Message('note_on', channel=4, note=85, velocity=0, time=159),
    Message('note_on', channel=4, note=86, velocity=112, time=1),
    Message('control_change', channel=4, control=2, value=112, time=0),
    Message('note_on', channel=4, note=86, velocity=0, time=159),
    Message('note_on', channel=4, note=86, velocity=112, time=1),
    Message('note_on', channel=4, note=86, velocity=0, time=159),
    Message('note_on', channel=4, note=86, velocity=112, time=1),
    Message('control_change', channel=4, control=2, value=112, time=0),
    Message('note_on', channel=4, note=86, velocity=0, time=159),
    Message('note_on', channel=4, note=86, velocity=112, time=1),
    Message('note_on', channel=4, note=86, velocity=0, time=159),
    Message('note_on', channel=4, note=85, velocity=112, time=1),
    Message('control_change', channel=4, control=2, value=112, time=0),
    Message('note_on', channel=4, note=85, velocity=0, time=159),
    Message('note_on', channel=4, note=85, velocity=112, time=1),
    Message('note_on', channel=4, note=85, velocity=0, time=159),
    Message('note_on', channel=4, note=86, velocity=112, time=1),
    Message('control_change', channel=4, control=2, value=112, time=0),
    Message('note_on', channel=4, note=86, velocity=0, time=159),
    Message('note_on', channel=4, note=86, velocity=112, time=1),
    Message('note_on', channel=4, note=86, velocity=0, time=159),
    Message('note_on', channel=4, note=86, velocity=112, time=1),
    Message('control_change', channel=4, control=2, value=112, time=0),
    Message('note_on', channel=4, note=86, velocity=0, time=159),
    Message('note_on', channel=4, note=86, velocity=112, time=1),
    Message('note_on', channel=4, note=86, velocity=0, time=159),
    Message('note_on', channel=4, note=85, velocity=112, time=1),
    Message('control_change', channel=4, control=2, value=112, time=0),
    Message('note_on', channel=4, note=85, velocity=0, time=159),
    Message('note_on', channel=4, note=85, velocity=112, time=1),
    Message('note_on', channel=4, note=85, velocity=0, time=159),
    Message('note_on', channel=4, note=86, velocity=112, time=1),
    Message('control_change', channel=4, control=2, value=112, time=0),
    Message('note_on', channel=4, note=86, velocity=0, time=159),
    Message('note_on', channel=4, note=86, velocity=112, time=1),
    Message('note_on', channel=4, note=86, velocity=0, time=159),
    Message('note_on', channel=4, note=86, velocity=112, time=1),
    Message('control_change', channel=4, control=2, value=112, time=0),
    Message('note_on', channel=4, note=86, velocity=0, time=159),
    Message('note_on', channel=4, note=86, velocity=112, time=1),
    Message('note_on', channel=4, note=86, velocity=0, time=159),
    Message('note_on', channel=4, note=85, velocity=112, time=1),
    Message('control_change', channel=4, control=2, value=112, time=0),
    Message('note_on', channel=4, note=85, velocity=0, time=159),
    Message('note_on', channel=4, note=85, velocity=112, time=1),
    Message('note_on', channel=4, note=85, velocity=0, time=159),
    Message('note_on', channel=4, note=90, velocity=112, time=1),
    Message('control_change', channel=4, control=2, value=112, time=0),
    Message('note_on', channel=4, note=90, velocity=0, time=119),
    Message('note_on', channel=4, note=90, velocity=112, time=1),
    Message('note_on', channel=4, note=90, velocity=0, time=119),
    Message('note_on', channel=4, note=90, velocity=112, time=1),
    Message('note_on', channel=4, note=90, velocity=0, time=119),
    Message('note_on', channel=4, note=90, velocity=112, time=1),
    Message('note_on', channel=4, note=90, velocity=0, time=119),
    Message('note_on', channel=4, note=88, velocity=112, time=1),
    Message('control_change', channel=4, control=2, value=112, time=0),
    Message('note_on', channel=4, note=88, velocity=0, time=119),
    Message('note_on', channel=4, note=88, velocity=112, time=1),
    Message('note_on', channel=4, note=88, velocity=0, time=119),
    Message('note_on', channel=4, note=88, velocity=112, time=1),
    Message('note_on', channel=4, note=88, velocity=0, time=119),
    Message('note_on', channel=4, note=88, velocity=112, time=1),
    Message('note_on', channel=4, note=88, velocity=0, time=119),
    Message('note_on', channel=4, note=85, velocity=112, time=1),
    Message('control_change', channel=4, control=2, value=112, time=0),
    Message('note_on', channel=4, note=85, velocity=0, time=119),
    Message('note_on', channel=4, note=85, velocity=112, time=1),
    Message('note_on', channel=4, note=85, velocity=0, time=119),
    Message('note_on', channel=4, note=85, velocity=112, time=1),
    Message('note_on', channel=4, note=85, velocity=0, time=119),
    Message('note_on', channel=4, note=85, velocity=112, time=1),
    Message('note_on', channel=4, note=85, velocity=0, time=119),
    Message('note_on', channel=4, note=82, velocity=112, time=1),
    Message('control_change', channel=4, control=2, value=112, time=0),
    Message('note_on', channel=4, note=82, velocity=0, time=119),
    Message('note_on', channel=4, note=82, velocity=112, time=1),
    Message('note_on', channel=4, note=82, velocity=0, time=119),
    Message('note_on', channel=4, note=82, velocity=112, time=1),
    Message('note_on', channel=4, note=82, velocity=0, time=119),
    Message('note_on', channel=4, note=82, velocity=112, time=1),
    Message('note_on', channel=4, note=82, velocity=0, time=119),
    Message('note_on', channel=4, note=78, velocity=112, time=1),
    Message('control_change', channel=4, control=2, value=112, time=0),
    Message('note_on', channel=4, note=78, velocity=0, time=119),
    Message('note_on', channel=4, note=78, velocity=112, time=1),
    Message('note_on', channel=4, note=78, velocity=0, time=119),
    Message('note_on', channel=4, note=78, velocity=112, time=1),
    Message('note_on', channel=4, note=78, velocity=0, time=119),
    Message('note_on', channel=4, note=78, velocity=112, time=1),
    Message('note_on', channel=4, note=78, velocity=0, time=119),
    Message('note_on', channel=4, note=76, velocity=112, time=1),
    Message('control_change', channel=4, control=2, value=112, time=0),
    Message('note_on', channel=4, note=76, velocity=0, time=119),
    Message('note_on', channel=4, note=76, velocity=112, time=1),
    Message('note_on', channel=4, note=76, velocity=0, time=119),
    Message('note_on', channel=4, note=76, velocity=112, time=1),
    Message('note_on', channel=4, note=76, velocity=0, time=119),
    Message('note_on', channel=4, note=76, velocity=112, time=1),
    Message('note_on', channel=4, note=76, velocity=0, time=119),
    Message('note_on', channel=4, note=73, velocity=112, time=1),
    Message('control_change', channel=4, control=2, value=112, time=0),
    Message('note_on', channel=4, note=73, velocity=0, time=119),
    Message('note_on', channel=4, note=73, velocity=112, time=1),
    Message('note_on', channel=4, note=73, velocity=0, time=119),
    Message('note_on', channel=4, note=73, velocity=112, time=1),
    Message('note_on', channel=4, note=73, velocity=0, time=119),
    Message('note_on', channel=4, note=73, velocity=112, time=1),
    Message('note_on', channel=4, note=73, velocity=0, time=119),
    Message('note_on', channel=4, note=70, velocity=112, time=1),
    Message('control_change', channel=4, control=2, value=112, time=0),
    Message('note_on', channel=4, note=70, velocity=0, time=119),
    Message('note_on', channel=4, note=70, velocity=112, time=1),
    Message('note_on', channel=4, note=70, velocity=0, time=119),
    Message('note_on', channel=4, note=70, velocity=112, time=1),
    Message('note_on', channel=4, note=70, velocity=0, time=119),
    Message('note_on', channel=4, note=70, velocity=112, time=1),
    Message('note_on', channel=4, note=70, velocity=0, time=119),
    Message('note_on', channel=4, note=66, velocity=112, time=1),
    Message('control_change', channel=4, control=2, value=112, time=0),
    Message('note_on', channel=4, note=66, velocity=0, time=239),
    Message('note_on', channel=4, note=90, velocity=126, time=3601),
    Message('control_change', channel=4, control=2, value=126, time=0),
    Message('note_on', channel=4, note=90, velocity=0, time=1919),
    Message('note_on', channel=4, note=83, velocity=126, time=1),
    Message('control_change', channel=4, control=2, value=126, time=0),
    Message('note_on', channel=4, note=83, velocity=0, time=119),
    Message('note_on', channel=4, note=83, velocity=126, time=1),
    Message('note_on', channel=4, note=83, velocity=0, time=119),
    Message('note_on', channel=4, note=83, velocity=126, time=1),
    Message('note_on', channel=4, note=83, velocity=0, time=119),
    Message('note_on', channel=4, note=83, velocity=126, time=1),
    Message('note_on', channel=4, note=83, velocity=0, time=119),
    Message('note_on', channel=4, note=85, velocity=126, time=1),
    Message('control_change', channel=4, control=2, value=126, time=0),
    Message('note_on', channel=4, note=85, velocity=0, time=119),
    Message('note_on', channel=4, note=85, velocity=126, time=1),
    Message('note_on', channel=4, note=85, velocity=0, time=119),
    Message('note_on', channel=4, note=85, velocity=126, time=1),
    Message('note_on', channel=4, note=85, velocity=0, time=119),
    Message('note_on', channel=4, note=85, velocity=126, time=1),
    Message('note_on', channel=4, note=85, velocity=0, time=119),
    Message('note_on', channel=4, note=86, velocity=126, time=1),
    Message('control_change', channel=4, control=2, value=126, time=0),
    Message('note_on', channel=4, note=86, velocity=0, time=119),
    Message('note_on', channel=4, note=86, velocity=126, time=1),
    Message('note_on', channel=4, note=86, velocity=0, time=119),
    Message('note_on', channel=4, note=86, velocity=126, time=1),
    Message('note_on', channel=4, note=86, velocity=0, time=119),
    Message('note_on', channel=4, note=86, velocity=126, time=1),
    Message('note_on', channel=4, note=86, velocity=0, time=119),
    Message('note_on', channel=4, note=88, velocity=126, time=1),
    Message('control_change', channel=4, control=2, value=126, time=0),
    Message('note_on', channel=4, note=88, velocity=0, time=119),
    Message('note_on', channel=4, note=88, velocity=126, time=1),
    Message('note_on', channel=4, note=88, velocity=0, time=119),
    Message('note_on', channel=4, note=88, velocity=126, time=1),
    Message('note_on', channel=4, note=88, velocity=0, time=119),
    Message('note_on', channel=4, note=88, velocity=126, time=1),
    Message('note_on', channel=4, note=88, velocity=0, time=119),
    Message('note_on', channel=4, note=90, velocity=126, time=1),
    Message('control_change', channel=4, control=2, value=126, time=0),
    Message('note_on', channel=4, note=90, velocity=0, time=118),
    Message('note_on', channel=4, note=90, velocity=126, time=1),
    Message('note_on', channel=4, note=90, velocity=0, time=118),
    Message('note_on', channel=4, note=90, velocity=126, time=2),
    Message('note_on', channel=4, note=90, velocity=0, time=118),
    Message('note_on', channel=4, note=90, velocity=126, time=1),
    Message('note_on', channel=4, note=90, velocity=0, time=118),
    Message('note_on', channel=4, note=90, velocity=126, time=2),
    Message('note_on', channel=4, note=90, velocity=0, time=118),
    Message('note_on', channel=4, note=90, velocity=126, time=1),
    Message('note_on', channel=4, note=90, velocity=0, time=118),
    Message('note_on', channel=4, note=90, velocity=126, time=2),
    Message('note_on', channel=4, note=90, velocity=0, time=118),
    Message('note_on', channel=4, note=90, velocity=126, time=1),
    Message('note_on', channel=4, note=90, velocity=0, time=118),
    Message('note_on', channel=4, note=90, velocity=126, time=2),
    Message('note_on', channel=4, note=90, velocity=0, time=118),
    Message('note_on', channel=4, note=90, velocity=126, time=1),
    Message('note_on', channel=4, note=90, velocity=0, time=118),
    Message('note_on', channel=4, note=90, velocity=126, time=2),
    Message('note_on', channel=4, note=90, velocity=0, time=118),
    Message('note_on', channel=4, note=90, velocity=126, time=1),
    Message('note_on', channel=4, note=90, velocity=0, time=118),
    Message('note_on', channel=4, note=86, velocity=126, time=8),
    Message('control_change', channel=4, control=2, value=126, time=0),
    Message('note_on', channel=4, note=86, velocity=0, time=119),
    Message('note_on', channel=4, note=86, velocity=126, time=1),
    Message('note_on', channel=4, note=86, velocity=0, time=119),
    Message('note_on', channel=4, note=86, velocity=126, time=1),
    Message('note_on', channel=4, note=86, velocity=0, time=119),
    Message('note_on', channel=4, note=86, velocity=126, time=1),
    Message('note_on', channel=4, note=86, velocity=0, time=119),
    Message('note_on', channel=4, note=90, velocity=126, time=1),
    Message('control_change', channel=4, control=2, value=126, time=0),
    Message('note_on', channel=4, note=90, velocity=0, time=118),
    Message('note_on', channel=4, note=90, velocity=126, time=1),
    Message('note_on', channel=4, note=90, velocity=0, time=118),
    Message('note_on', channel=4, note=90, velocity=126, time=2),
    Message('note_on', channel=4, note=90, velocity=0, time=118),
    Message('note_on', channel=4, note=90, velocity=126, time=1),
    Message('note_on', channel=4, note=90, velocity=0, time=118),
    Message('note_on', channel=4, note=90, velocity=126, time=2),
    Message('note_on', channel=4, note=90, velocity=0, time=118),
    Message('note_on', channel=4, note=90, velocity=126, time=1),
    Message('note_on', channel=4, note=90, velocity=0, time=118),
    Message('note_on', channel=4, note=90, velocity=126, time=2),
    Message('note_on', channel=4, note=90, velocity=0, time=118),
    Message('note_on', channel=4, note=90, velocity=126, time=1),
    Message('note_on', channel=4, note=90, velocity=0, time=118),
    Message('note_on', channel=4, note=90, velocity=126, time=2),
    Message('note_on', channel=4, note=90, velocity=0, time=118),
    Message('note_on', channel=4, note=90, velocity=126, time=1),
    Message('note_on', channel=4, note=90, velocity=0, time=118),
    Message('note_on', channel=4, note=90, velocity=126, time=2),
    Message('note_on', channel=4, note=90, velocity=0, time=118),
    Message('note_on', channel=4, note=90, velocity=126, time=1),
    Message('note_on', channel=4, note=90, velocity=0, time=118),
    Message('note_on', channel=4, note=86, velocity=126, time=8),
    Message('control_change', channel=4, control=2, value=126, time=0),
    Message('note_on', channel=4, note=86, velocity=0, time=119),
    Message('note_on', channel=4, note=86, velocity=126, time=1),
    Message('note_on', channel=4, note=86, velocity=0, time=119),
    Message('note_on', channel=4, note=86, velocity=126, time=1),
    Message('note_on', channel=4, note=86, velocity=0, time=119),
    Message('note_on', channel=4, note=86, velocity=126, time=1),
    Message('note_on', channel=4, note=86, velocity=0, time=119),
    Message('note_on', channel=4, note=90, velocity=126, time=1),
    Message('control_change', channel=4, control=2, value=126, time=0),
    Message('note_on', channel=4, note=90, velocity=0, time=119),
    Message('note_on', channel=4, note=90, velocity=126, time=1),
    Message('note_on', channel=4, note=90, velocity=0, time=119),
    Message('note_on', channel=4, note=90, velocity=126, time=1),
    Message('note_on', channel=4, note=90, velocity=0, time=119),
    Message('note_on', channel=4, note=90, velocity=126, time=1),
    Message('note_on', channel=4, note=90, velocity=0, time=119),
    Message('note_on', channel=4, note=90, velocity=126, time=1),
    Message('note_on', channel=4, note=90, velocity=0, time=119),
    Message('note_on', channel=4, note=90, velocity=126, time=1),
    Message('note_on', channel=4, note=90, velocity=0, time=119),
    Message('note_on', channel=4, note=90, velocity=126, time=1),
    Message('note_on', channel=4, note=90, velocity=0, time=119),
    Message('note_on', channel=4, note=90, velocity=126, time=1),
    Message('note_on', channel=4, note=90, velocity=0, time=119),
    Message('note_on', channel=4, note=86, velocity=126, time=1),
    Message('control_change', channel=4, control=2, value=126, time=0),
    Message('note_on', channel=4, note=86, velocity=0, time=119),
    Message('note_on', channel=4, note=86, velocity=126, time=1),
    Message('note_on', channel=4, note=86, velocity=0, time=119),
    Message('note_on', channel=4, note=86, velocity=126, time=1),
    Message('note_on', channel=4, note=86, velocity=0, time=119),
    Message('note_on', channel=4, note=86, velocity=126, time=1),
    Message('note_on', channel=4, note=86, velocity=0, time=119),
    Message('note_on', channel=4, note=86, velocity=126, time=1),
    Message('note_on', channel=4, note=86, velocity=0, time=119),
    Message('note_on', channel=4, note=86, velocity=126, time=1),
    Message('note_on', channel=4, note=86, velocity=0, time=119),
    Message('note_on', channel=4, note=86, velocity=126, time=1),
    Message('note_on', channel=4, note=86, velocity=0, time=119),
    Message('note_on', channel=4, note=86, velocity=126, time=1),
    Message('note_on', channel=4, note=86, velocity=0, time=119),
    Message('note_on', channel=4, note=83, velocity=126, time=1),
    Message('control_change', channel=4, control=2, value=126, time=0),
    Message('note_on', channel=4, note=83, velocity=0, time=119),
    Message('note_on', channel=4, note=83, velocity=126, time=1),
    Message('note_on', channel=4, note=83, velocity=0, time=119),
    Message('note_on', channel=4, note=83, velocity=126, time=1),
    Message('note_on', channel=4, note=83, velocity=0, time=119),
    Message('note_on', channel=4, note=83, velocity=126, time=1),
    Message('note_on', channel=4, note=83, velocity=0, time=119),
    Message('note_on', channel=4, note=83, velocity=126, time=1),
    Message('note_on', channel=4, note=83, velocity=0, time=119),
    Message('note_on', channel=4, note=83, velocity=126, time=1),
    Message('note_on', channel=4, note=83, velocity=0, time=119),
    Message('note_on', channel=4, note=83, velocity=126, time=1),
    Message('note_on', channel=4, note=83, velocity=0, time=119),
    Message('note_on', channel=4, note=83, velocity=126, time=1),
    Message('note_on', channel=4, note=83, velocity=0, time=119),
    Message('note_on', channel=4, note=78, velocity=126, time=1),
    Message('control_change', channel=4, control=2, value=126, time=0),
    Message('note_on', channel=4, note=78, velocity=0, time=119),
    Message('note_on', channel=4, note=78, velocity=126, time=1),
    Message('note_on', channel=4, note=78, velocity=0, time=119),
    Message('note_on', channel=4, note=78, velocity=126, time=1),
    Message('note_on', channel=4, note=78, velocity=0, time=119),
    Message('note_on', channel=4, note=78, velocity=126, time=1),
    Message('note_on', channel=4, note=78, velocity=0, time=119),
    Message('note_on', channel=4, note=78, velocity=126, time=1),
    Message('note_on', channel=4, note=78, velocity=0, time=119),
    Message('note_on', channel=4, note=78, velocity=126, time=1),
    Message('note_on', channel=4, note=78, velocity=0, time=119),
    Message('note_on', channel=4, note=78, velocity=126, time=1),
    Message('note_on', channel=4, note=78, velocity=0, time=119),
    Message('note_on', channel=4, note=78, velocity=126, time=1),
    Message('note_on', channel=4, note=78, velocity=0, time=119),
    Message('note_on', channel=4, note=86, velocity=126, time=1),
    Message('control_change', channel=4, control=2, value=126, time=0),
    Message('note_on', channel=4, note=86, velocity=0, time=119),
    Message('note_on', channel=4, note=86, velocity=126, time=1),
    Message('note_on', channel=4, note=86, velocity=0, time=119),
    Message('note_on', channel=4, note=86, velocity=126, time=1),
    Message('note_on', channel=4, note=86, velocity=0, time=119),
    Message('note_on', channel=4, note=86, velocity=126, time=1),
    Message('note_on', channel=4, note=86, velocity=0, time=119),
    Message('note_on', channel=4, note=86, velocity=126, time=1),
    Message('note_on', channel=4, note=86, velocity=0, time=119),
    Message('note_on', channel=4, note=86, velocity=126, time=1),
    Message('note_on', channel=4, note=86, velocity=0, time=119),
    Message('note_on', channel=4, note=86, velocity=126, time=1),
    Message('note_on', channel=4, note=86, velocity=0, time=119),
    Message('note_on', channel=4, note=86, velocity=126, time=1),
    Message('note_on', channel=4, note=86, velocity=0, time=119),
    Message('note_on', channel=4, note=83, velocity=126, time=1),
    Message('control_change', channel=4, control=2, value=126, time=0),
    Message('note_on', channel=4, note=83, velocity=0, time=119),
    Message('note_on', channel=4, note=83, velocity=126, time=1),
    Message('note_on', channel=4, note=83, velocity=0, time=119),
    Message('note_on', channel=4, note=83, velocity=126, time=1),
    Message('note_on', channel=4, note=83, velocity=0, time=119),
    Message('note_on', channel=4, note=83, velocity=126, time=1),
    Message('note_on', channel=4, note=83, velocity=0, time=119),
    Message('note_on', channel=4, note=83, velocity=126, time=1),
    Message('note_on', channel=4, note=83, velocity=0, time=119),
    Message('note_on', channel=4, note=83, velocity=126, time=1),
    Message('note_on', channel=4, note=83, velocity=0, time=119),
    Message('note_on', channel=4, note=83, velocity=126, time=1),
    Message('note_on', channel=4, note=83, velocity=0, time=119),
    Message('note_on', channel=4, note=83, velocity=126, time=1),
    Message('note_on', channel=4, note=83, velocity=0, time=119),
    Message('note_on', channel=4, note=78, velocity=126, time=1),
    Message('control_change', channel=4, control=2, value=126, time=0),
    Message('note_on', channel=4, note=78, velocity=0, time=119),
    Message('note_on', channel=4, note=78, velocity=126, time=1),
    Message('note_on', channel=4, note=78, velocity=0, time=119),
    Message('note_on', channel=4, note=78, velocity=126, time=1),
    Message('note_on', channel=4, note=78, velocity=0, time=119),
    Message('note_on', channel=4, note=78, velocity=126, time=1),
    Message('note_on', channel=4, note=78, velocity=0, time=119),
    Message('note_on', channel=4, note=78, velocity=126, time=1),
    Message('note_on', channel=4, note=78, velocity=0, time=119),
    Message('note_on', channel=4, note=78, velocity=126, time=1),
    Message('note_on', channel=4, note=78, velocity=0, time=119),
    Message('note_on', channel=4, note=78, velocity=126, time=1),
    Message('note_on', channel=4, note=78, velocity=0, time=119),
    Message('note_on', channel=4, note=78, velocity=126, time=1),
    Message('note_on', channel=4, note=78, velocity=0, time=119),
    Message('note_on', channel=4, note=74, velocity=126, time=1),
    Message('control_change', channel=4, control=2, value=126, time=0),
    Message('note_on', channel=4, note=74, velocity=0, time=119),
    Message('note_on', channel=4, note=74, velocity=126, time=1),
    Message('note_on', channel=4, note=74, velocity=0, time=119),
    Message('note_on', channel=4, note=74, velocity=126, time=1),
    Message('note_on', channel=4, note=74, velocity=0, time=119),
    Message('note_on', channel=4, note=74, velocity=126, time=1),
    Message('note_on', channel=4, note=74, velocity=0, time=119),
    Message('note_on', channel=4, note=74, velocity=126, time=1),
    Message('note_on', channel=4, note=74, velocity=0, time=119),
    Message('note_on', channel=4, note=74, velocity=126, time=1),
    Message('note_on', channel=4, note=74, velocity=0, time=119),
    Message('note_on', channel=4, note=74, velocity=126, time=1),
    Message('note_on', channel=4, note=74, velocity=0, time=119),
    Message('note_on', channel=4, note=74, velocity=126, time=1),
    Message('note_on', channel=4, note=74, velocity=0, time=119),
    Message('control_change', channel=4, control=2, value=96, time=1),
    Message('note_on', channel=4, note=66, velocity=96, time=0),
    Message('note_on', channel=4, note=66, velocity=0, time=118),
    Message('note_on', channel=4, note=66, velocity=96, time=1),
    Message('note_on', channel=4, note=66, velocity=0, time=118),
    Message('note_on', channel=4, note=66, velocity=96, time=1),
    Message('note_on', channel=4, note=66, velocity=0, time=118),
    Message('note_on', channel=4, note=66, velocity=96, time=1),
    Message('note_on', channel=4, note=66, velocity=0, time=118),
    Message('note_on', channel=4, note=66, velocity=96, time=1),
    Message('note_on', channel=4, note=66, velocity=0, time=118),
    Message('note_on', channel=4, note=66, velocity=96, time=1),
    Message('note_on', channel=4, note=66, velocity=0, time=118),
    Message('note_on', channel=4, note=66, velocity=96, time=1),
    Message('note_on', channel=4, note=66, velocity=0, time=118),
    Message('note_on', channel=4, note=66, velocity=96, time=1),
    Message('note_on', channel=4, note=66, velocity=0, time=118),
    Message('note_on', channel=4, note=66, velocity=96, time=1),
    Message('note_on', channel=4, note=66, velocity=0, time=118),
    Message('note_on', channel=4, note=66, velocity=96, time=1),
    Message('note_on', channel=4, note=66, velocity=0, time=118),
    Message('note_on', channel=4, note=66, velocity=96, time=1),
    Message('note_on', channel=4, note=66, velocity=0, time=118),
    Message('note_on', channel=4, note=66, velocity=96, time=1),
    Message('note_on', channel=4, note=66, velocity=0, time=118),
    Message('note_on', channel=4, note=66, velocity=96, time=1),
    Message('note_on', channel=4, note=66, velocity=0, time=118),
    Message('note_on', channel=4, note=66, velocity=96, time=1),
    Message('note_on', channel=4, note=66, velocity=0, time=118),
    Message('note_on', channel=4, note=66, velocity=96, time=1),
    Message('note_on', channel=4, note=66, velocity=0, time=118),
    Message('note_on', channel=4, note=66, velocity=96, time=1),
    Message('note_on', channel=4, note=66, velocity=0, time=118),
    Message('note_on', channel=4, note=66, velocity=96, time=17),
    Message('control_change', channel=4, control=2, value=96, time=0),
    Message('note_on', channel=4, note=66, velocity=0, time=118),
    Message('note_on', channel=4, note=66, velocity=96, time=1),
    Message('note_on', channel=4, note=66, velocity=0, time=118),
    Message('note_on', channel=4, note=66, velocity=96, time=1),
    Message('note_on', channel=4, note=66, velocity=0, time=118),
    Message('note_on', channel=4, note=66, velocity=96, time=1),
    Message('note_on', channel=4, note=66, velocity=0, time=118),
    Message('note_on', channel=4, note=66, velocity=96, time=1),
    Message('note_on', channel=4, note=66, velocity=0, time=118),
    Message('note_on', channel=4, note=66, velocity=96, time=1),
    Message('note_on', channel=4, note=66, velocity=0, time=118),
    Message('note_on', channel=4, note=66, velocity=96, time=1),
    Message('note_on', channel=4, note=66, velocity=0, time=118),
    Message('note_on', channel=4, note=66, velocity=96, time=1),
    Message('note_on', channel=4, note=66, velocity=0, time=118),
    Message('note_on', channel=4, note=66, velocity=96, time=1),
    Message('note_on', channel=4, note=66, velocity=0, time=118),
    Message('note_on', channel=4, note=66, velocity=96, time=1),
    Message('note_on', channel=4, note=66, velocity=0, time=118),
    Message('note_on', channel=4, note=66, velocity=96, time=1),
    Message('note_on', channel=4, note=66, velocity=0, time=118),
    Message('note_on', channel=4, note=66, velocity=96, time=1),
    Message('note_on', channel=4, note=66, velocity=0, time=118),
    Message('note_on', channel=4, note=66, velocity=96, time=1),
    Message('note_on', channel=4, note=66, velocity=0, time=118),
    Message('note_on', channel=4, note=66, velocity=96, time=1),
    Message('note_on', channel=4, note=66, velocity=0, time=118),
    Message('note_on', channel=4, note=66, velocity=96, time=1),
    Message('note_on', channel=4, note=66, velocity=0, time=118),
    Message('note_on', channel=4, note=66, velocity=96, time=1),
    Message('note_on', channel=4, note=66, velocity=0, time=118),
    Message('note_on', channel=4, note=66, velocity=96, time=17),
    Message('control_change', channel=4, control=2, value=96, time=0),
    Message('note_on', channel=4, note=66, velocity=0, time=118),
    Message('note_on', channel=4, note=66, velocity=96, time=1),
    Message('note_on', channel=4, note=66, velocity=0, time=118),
    Message('note_on', channel=4, note=66, velocity=96, time=1),
    Message('note_on', channel=4, note=66, velocity=0, time=118),
    Message('note_on', channel=4, note=66, velocity=96, time=1),
    Message('note_on', channel=4, note=66, velocity=0, time=118),
    Message('note_on', channel=4, note=66, velocity=96, time=1),
    Message('note_on', channel=4, note=66, velocity=0, time=118),
    Message('note_on', channel=4, note=66, velocity=96, time=1),
    Message('note_on', channel=4, note=66, velocity=0, time=118),
    Message('note_on', channel=4, note=66, velocity=96, time=1),
    Message('note_on', channel=4, note=66, velocity=0, time=118),
    Message('note_on', channel=4, note=66, velocity=96, time=1),
    Message('note_on', channel=4, note=66, velocity=0, time=118),
    Message('note_on', channel=4, note=66, velocity=96, time=1),
    Message('note_on', channel=4, note=66, velocity=0, time=118),
    Message('note_on', channel=4, note=66, velocity=96, time=1),
    Message('note_on', channel=4, note=66, velocity=0, time=118),
    Message('note_on', channel=4, note=66, velocity=96, time=1),
    Message('note_on', channel=4, note=66, velocity=0, time=118),
    Message('note_on', channel=4, note=66, velocity=96, time=1),
    Message('note_on', channel=4, note=66, velocity=0, time=118),
    Message('note_on', channel=4, note=66, velocity=96, time=1),
    Message('note_on', channel=4, note=66, velocity=0, time=118),
    Message('note_on', channel=4, note=66, velocity=96, time=1),
    Message('note_on', channel=4, note=66, velocity=0, time=118),
    Message('note_on', channel=4, note=66, velocity=96, time=1),
    Message('note_on', channel=4, note=66, velocity=0, time=118),
    Message('note_on', channel=4, note=66, velocity=96, time=1),
    Message('note_on', channel=4, note=66, velocity=0, time=118),
    Message('note_on', channel=4, note=66, velocity=96, time=17),
    Message('control_change', channel=4, control=2, value=96, time=0),
    Message('note_on', channel=4, note=66, velocity=0, time=118),
    Message('note_on', channel=4, note=66, velocity=96, time=1),
    Message('note_on', channel=4, note=66, velocity=0, time=118),
    Message('note_on', channel=4, note=66, velocity=96, time=1),
    Message('note_on', channel=4, note=66, velocity=0, time=118),
    Message('note_on', channel=4, note=66, velocity=96, time=1),
    Message('note_on', channel=4, note=66, velocity=0, time=118),
    Message('note_on', channel=4, note=66, velocity=96, time=1),
    Message('note_on', channel=4, note=66, velocity=0, time=118),
    Message('note_on', channel=4, note=66, velocity=96, time=1),
    Message('note_on', channel=4, note=66, velocity=0, time=118),
    Message('note_on', channel=4, note=66, velocity=96, time=1),
    Message('note_on', channel=4, note=66, velocity=0, time=118),
    Message('note_on', channel=4, note=66, velocity=96, time=1),
    Message('note_on', channel=4, note=66, velocity=0, time=118),
    Message('note_on', channel=4, note=66, velocity=96, time=1),
    Message('note_on', channel=4, note=66, velocity=0, time=118),
    Message('note_on', channel=4, note=66, velocity=96, time=1),
    Message('note_on', channel=4, note=66, velocity=0, time=118),
    Message('note_on', channel=4, note=66, velocity=96, time=1),
    Message('note_on', channel=4, note=66, velocity=0, time=118),
    Message('note_on', channel=4, note=66, velocity=96, time=1),
    Message('note_on', channel=4, note=66, velocity=0, time=118),
    Message('note_on', channel=4, note=66, velocity=96, time=1),
    Message('note_on', channel=4, note=66, velocity=0, time=118),
    Message('note_on', channel=4, note=66, velocity=96, time=1),
    Message('note_on', channel=4, note=66, velocity=0, time=118),
    Message('note_on', channel=4, note=66, velocity=96, time=1),
    Message('note_on', channel=4, note=66, velocity=0, time=118),
    Message('note_on', channel=4, note=66, velocity=96, time=1),
    Message('note_on', channel=4, note=66, velocity=0, time=118),
    Message('control_change', channel=4, control=2, value=80, time=17),
    Message('note_on', channel=4, note=66, velocity=80, time=0),
    Message('note_on', channel=4, note=66, velocity=0, time=118),
    Message('note_on', channel=4, note=66, velocity=80, time=1),
    Message('note_on', channel=4, note=66, velocity=0, time=118),
    Message('note_on', channel=4, note=66, velocity=80, time=1),
    Message('note_on', channel=4, note=66, velocity=0, time=118),
    Message('note_on', channel=4, note=66, velocity=80, time=1),
    Message('note_on', channel=4, note=66, velocity=0, time=118),
    Message('note_on', channel=4, note=66, velocity=80, time=1),
    Message('note_on', channel=4, note=66, velocity=0, time=118),
    Message('note_on', channel=4, note=66, velocity=80, time=1),
    Message('note_on', channel=4, note=66, velocity=0, time=118),
    Message('note_on', channel=4, note=66, velocity=80, time=1),
    Message('note_on', channel=4, note=66, velocity=0, time=118),
    Message('note_on', channel=4, note=66, velocity=80, time=1),
    Message('note_on', channel=4, note=66, velocity=0, time=118),
    Message('note_on', channel=4, note=66, velocity=80, time=1),
    Message('note_on', channel=4, note=66, velocity=0, time=118),
    Message('note_on', channel=4, note=66, velocity=80, time=1),
    Message('note_on', channel=4, note=66, velocity=0, time=118),
    Message('note_on', channel=4, note=66, velocity=80, time=1),
    Message('note_on', channel=4, note=66, velocity=0, time=118),
    Message('note_on', channel=4, note=66, velocity=80, time=1),
    Message('note_on', channel=4, note=66, velocity=0, time=118),
    Message('note_on', channel=4, note=66, velocity=80, time=1),
    Message('note_on', channel=4, note=66, velocity=0, time=118),
    Message('note_on', channel=4, note=66, velocity=80, time=1),
    Message('note_on', channel=4, note=66, velocity=0, time=118),
    Message('note_on', channel=4, note=66, velocity=80, time=1),
    Message('note_on', channel=4, note=66, velocity=0, time=118),
    Message('note_on', channel=4, note=66, velocity=80, time=1),
    Message('note_on', channel=4, note=66, velocity=0, time=118),
    Message('note_on', channel=4, note=66, velocity=80, time=17),
    Message('control_change', channel=4, control=2, value=80, time=0),
    Message('note_on', channel=4, note=66, velocity=0, time=118),
    Message('note_on', channel=4, note=66, velocity=80, time=1),
    Message('note_on', channel=4, note=66, velocity=0, time=118),
    Message('note_on', channel=4, note=66, velocity=80, time=1),
    Message('note_on', channel=4, note=66, velocity=0, time=118),
    Message('note_on', channel=4, note=66, velocity=80, time=1),
    Message('note_on', channel=4, note=66, velocity=0, time=118),
    Message('note_on', channel=4, note=66, velocity=80, time=1),
    Message('note_on', channel=4, note=66, velocity=0, time=118),
    Message('note_on', channel=4, note=66, velocity=80, time=1),
    Message('note_on', channel=4, note=66, velocity=0, time=118),
    Message('note_on', channel=4, note=66, velocity=80, time=1),
    Message('note_on', channel=4, note=66, velocity=0, time=118),
    Message('note_on', channel=4, note=66, velocity=80, time=1),
    Message('note_on', channel=4, note=66, velocity=0, time=118),
    Message('note_on', channel=4, note=66, velocity=80, time=1),
    Message('note_on', channel=4, note=66, velocity=0, time=118),
    Message('note_on', channel=4, note=66, velocity=80, time=1),
    Message('note_on', channel=4, note=66, velocity=0, time=118),
    Message('note_on', channel=4, note=66, velocity=80, time=1),
    Message('note_on', channel=4, note=66, velocity=0, time=118),
    Message('note_on', channel=4, note=66, velocity=80, time=1),
    Message('note_on', channel=4, note=66, velocity=0, time=118),
    Message('note_on', channel=4, note=66, velocity=80, time=1),
    Message('note_on', channel=4, note=66, velocity=0, time=118),
    Message('note_on', channel=4, note=66, velocity=80, time=1),
    Message('note_on', channel=4, note=66, velocity=0, time=118),
    Message('note_on', channel=4, note=66, velocity=80, time=1),
    Message('note_on', channel=4, note=66, velocity=0, time=118),
    Message('note_on', channel=4, note=66, velocity=80, time=1),
    Message('note_on', channel=4, note=66, velocity=0, time=118),
    Message('note_on', channel=4, note=66, velocity=80, time=17),
    Message('control_change', channel=4, control=2, value=80, time=0),
    Message('note_on', channel=4, note=66, velocity=0, time=118),
    Message('note_on', channel=4, note=66, velocity=80, time=1),
    Message('note_on', channel=4, note=66, velocity=0, time=118),
    Message('note_on', channel=4, note=66, velocity=80, time=1),
    Message('note_on', channel=4, note=66, velocity=0, time=118),
    Message('note_on', channel=4, note=66, velocity=80, time=1),
    Message('note_on', channel=4, note=66, velocity=0, time=118),
    Message('note_on', channel=4, note=66, velocity=80, time=1),
    Message('note_on', channel=4, note=66, velocity=0, time=118),
    Message('note_on', channel=4, note=66, velocity=80, time=1),
    Message('note_on', channel=4, note=66, velocity=0, time=118),
    Message('note_on', channel=4, note=66, velocity=80, time=1),
    Message('note_on', channel=4, note=66, velocity=0, time=118),
    Message('note_on', channel=4, note=66, velocity=80, time=1),
    Message('note_on', channel=4, note=66, velocity=0, time=118),
    Message('note_on', channel=4, note=66, velocity=80, time=1),
    Message('note_on', channel=4, note=66, velocity=0, time=118),
    Message('note_on', channel=4, note=66, velocity=80, time=1),
    Message('note_on', channel=4, note=66, velocity=0, time=118),
    Message('note_on', channel=4, note=66, velocity=80, time=1),
    Message('note_on', channel=4, note=66, velocity=0, time=118),
    Message('note_on', channel=4, note=66, velocity=80, time=1),
    Message('note_on', channel=4, note=66, velocity=0, time=118),
    Message('note_on', channel=4, note=66, velocity=80, time=1),
    Message('note_on', channel=4, note=66, velocity=0, time=118),
    Message('note_on', channel=4, note=66, velocity=80, time=1),
    Message('note_on', channel=4, note=66, velocity=0, time=118),
    Message('note_on', channel=4, note=66, velocity=80, time=1),
    Message('note_on', channel=4, note=66, velocity=0, time=118),
    Message('note_on', channel=4, note=66, velocity=80, time=1),
    Message('note_on', channel=4, note=66, velocity=0, time=118),
    Message('note_on', channel=4, note=66, velocity=80, time=17),
    Message('control_change', channel=4, control=2, value=80, time=0),
    Message('note_on', channel=4, note=66, velocity=0, time=118),
    Message('note_on', channel=4, note=66, velocity=80, time=1),
    Message('note_on', channel=4, note=66, velocity=0, time=118),
    Message('note_on', channel=4, note=66, velocity=80, time=1),
    Message('note_on', channel=4, note=66, velocity=0, time=118),
    Message('note_on', channel=4, note=66, velocity=80, time=1),
    Message('note_on', channel=4, note=66, velocity=0, time=118),
    Message('note_on', channel=4, note=66, velocity=80, time=1),
    Message('note_on', channel=4, note=66, velocity=0, time=118),
    Message('note_on', channel=4, note=66, velocity=80, time=1),
    Message('note_on', channel=4, note=66, velocity=0, time=118),
    Message('note_on', channel=4, note=66, velocity=80, time=1),
    Message('note_on', channel=4, note=66, velocity=0, time=118),
    Message('note_on', channel=4, note=66, velocity=80, time=1),
    Message('note_on', channel=4, note=66, velocity=0, time=118),
    Message('note_on', channel=4, note=66, velocity=80, time=1),
    Message('note_on', channel=4, note=66, velocity=0, time=118),
    Message('note_on', channel=4, note=66, velocity=80, time=1),
    Message('note_on', channel=4, note=66, velocity=0, time=118),
    Message('note_on', channel=4, note=66, velocity=80, time=1),
    Message('note_on', channel=4, note=66, velocity=0, time=118),
    Message('note_on', channel=4, note=66, velocity=80, time=1),
    Message('note_on', channel=4, note=66, velocity=0, time=118),
    Message('note_on', channel=4, note=66, velocity=80, time=1),
    Message('note_on', channel=4, note=66, velocity=0, time=118),
    Message('note_on', channel=4, note=66, velocity=80, time=1),
    Message('note_on', channel=4, note=66, velocity=0, time=118),
    Message('note_on', channel=4, note=66, velocity=80, time=1),
    Message('note_on', channel=4, note=66, velocity=0, time=118),
    Message('note_on', channel=4, note=66, velocity=80, time=1),
    Message('note_on', channel=4, note=66, velocity=0, time=118),
    Message('control_change', channel=4, control=2, value=80, time=17),
    Message('note_on', channel=4, note=66, velocity=80, time=0),
    Message('control_change', channel=4, control=2, value=79, time=86),
    Message('note_on', channel=4, note=66, velocity=0, time=32),
    Message('note_on', channel=4, note=66, velocity=79, time=1),
    Message('control_change', channel=4, control=2, value=78, time=53),
    Message('note_on', channel=4, note=66, velocity=0, time=65),
    Message('note_on', channel=4, note=66, velocity=78, time=1),
    Message('control_change', channel=4, control=2, value=77, time=20),
    Message('control_change', channel=4, control=2, value=76, time=85),
    Message('note_on', channel=4, note=66, velocity=0, time=13),
    Message('note_on', channel=4, note=66, velocity=76, time=1),
    Message('control_change', channel=4, control=2, value=75, time=72),
    Message('note_on', channel=4, note=66, velocity=0, time=46),
    Message('note_on', channel=4, note=66, velocity=75, time=1),
    Message('control_change', channel=4, control=2, value=74, time=39),
    Message('note_on', channel=4, note=66, velocity=0, time=79),
    Message('note_on', channel=4, note=66, velocity=74, time=1),
    Message('control_change', channel=4, control=2, value=73, time=5),
    Message('control_change', channel=4, control=2, value=72, time=86),
    Message('note_on', channel=4, note=66, velocity=0, time=27),
    Message('note_on', channel=4, note=66, velocity=72, time=1),
    Message('control_change', channel=4, control=2, value=71, time=58),
    Message('note_on', channel=4, note=66, velocity=0, time=60),
    Message('note_on', channel=4, note=66, velocity=71, time=1),
    Message('control_change', channel=4, control=2, value=70, time=25),
    Message('control_change', channel=4, control=2, value=69, time=85),
    Message('note_on', channel=4, note=66, velocity=0, time=8),
    Message('note_on', channel=4, note=66, velocity=69, time=1),
    Message('control_change', channel=4, control=2, value=68, time=77),
    Message('note_on', channel=4, note=66, velocity=0, time=41),
    Message('note_on', channel=4, note=66, velocity=68, time=1),
    Message('control_change', channel=4, control=2, value=67, time=44),
    Message('note_on', channel=4, note=66, velocity=0, time=74),
    Message('note_on', channel=4, note=66, velocity=67, time=1),
    Message('control_change', channel=4, control=2, value=66, time=10),
    Message('control_change', channel=4, control=2, value=65, time=86),
    Message('note_on', channel=4, note=66, velocity=0, time=22),
    Message('note_on', channel=4, note=66, velocity=65, time=1),
    Message('control_change', channel=4, control=2, value=64, time=63),
    Message('note_on', channel=4, note=66, velocity=0, time=55),
    Message('note_on', channel=4, note=66, velocity=64, time=1),
    Message('control_change', channel=4, control=2, value=63, time=30),
    Message('control_change', channel=4, control=2, value=62, time=85),
    Message('note_on', channel=4, note=66, velocity=0, time=3),
    Message('note_on', channel=4, note=66, velocity=62, time=1),
    Message('control_change', channel=4, control=2, value=61, time=82),
    Message('note_on', channel=4, note=66, velocity=0, time=36),
    Message('note_on', channel=4, note=66, velocity=61, time=1),
    Message('control_change', channel=4, control=2, value=60, time=49),
    Message('note_on', channel=4, note=66, velocity=0, time=69),
    Message('note_on', channel=4, note=66, velocity=60, time=1),
    Message('control_change', channel=4, control=2, value=59, time=15),
    Message('control_change', channel=4, control=2, value=58, time=86),
    Message('note_on', channel=4, note=66, velocity=0, time=17),
    Message('note_on', channel=4, note=66, velocity=58, time=17),
    Message('control_change', channel=4, control=2, value=58, time=0),
    Message('control_change', channel=4, control=2, value=57, time=52),
    Message('note_on', channel=4, note=66, velocity=0, time=66),
    Message('note_on', channel=4, note=66, velocity=57, time=1),
    Message('control_change', channel=4, control=2, value=56, time=19),
    Message('control_change', channel=4, control=2, value=55, time=85),
    Message('note_on', channel=4, note=66, velocity=0, time=14),
    Message('note_on', channel=4, note=66, velocity=55, time=1),
    Message('control_change', channel=4, control=2, value=54, time=71),
    Message('note_on', channel=4, note=66, velocity=0, time=47),
    Message('note_on', channel=4, note=66, velocity=54, time=1),
    Message('control_change', channel=4, control=2, value=53, time=38),
    Message('note_on', channel=4, note=66, velocity=0, time=80),
    Message('note_on', channel=4, note=66, velocity=53, time=1),
    Message('control_change', channel=4, control=2, value=52, time=4),
    Message('control_change', channel=4, control=2, value=51, time=86),
    Message('note_on', channel=4, note=66, velocity=0, time=28),
    Message('note_on', channel=4, note=66, velocity=51, time=1),
    Message('control_change', channel=4, control=2, value=50, time=57),
    Message('note_on', channel=4, note=66, velocity=0, time=61),
    Message('note_on', channel=4, note=66, velocity=50, time=1),
    Message('control_change', channel=4, control=2, value=49, time=24),
    Message('control_change', channel=4, control=2, value=48, time=85),
    Message('note_on', channel=4, note=66, velocity=0, time=9),
    Message('note_on', channel=4, note=66, velocity=48, time=1),
    Message('control_change', channel=4, control=2, value=47, time=76),
    Message('note_on', channel=4, note=66, velocity=0, time=42),
    Message('note_on', channel=4, note=66, velocity=47, time=1),
    Message('control_change', channel=4, control=2, value=46, time=43),
    Message('note_on', channel=4, note=66, velocity=0, time=75),
    Message('note_on', channel=4, note=66, velocity=46, time=1),
    Message('control_change', channel=4, control=2, value=45, time=9),
    Message('control_change', channel=4, control=2, value=44, time=86),
    Message('note_on', channel=4, note=66, velocity=0, time=23),
    Message('note_on', channel=4, note=66, velocity=44, time=1),
    Message('control_change', channel=4, control=2, value=43, time=62),
    Message('note_on', channel=4, note=66, velocity=0, time=56),
    Message('note_on', channel=4, note=66, velocity=43, time=1),
    Message('control_change', channel=4, control=2, value=42, time=29),
    Message('control_change', channel=4, control=2, value=41, time=85),
    Message('note_on', channel=4, note=66, velocity=0, time=4),
    Message('note_on', channel=4, note=66, velocity=41, time=1),
    Message('control_change', channel=4, control=2, value=40, time=81),
    Message('note_on', channel=4, note=66, velocity=0, time=37),
    Message('note_on', channel=4, note=66, velocity=40, time=1),
    Message('control_change', channel=4, control=2, value=39, time=48),
    Message('note_on', channel=4, note=66, velocity=0, time=70),
    Message('note_on', channel=4, note=66, velocity=39, time=1),
    Message('control_change', channel=4, control=2, value=38, time=14),
    Message('control_change', channel=4, control=2, value=37, time=86),
    Message('note_on', channel=4, note=66, velocity=0, time=18),
    Message('note_on', channel=4, note=66, velocity=37, time=1),
    Message('control_change', channel=4, control=2, value=36, time=67),
    Message('note_on', channel=4, note=66, velocity=0, time=51),
    Message('note_on', channel=4, note=66, velocity=36, time=17),
    Message('control_change', channel=4, control=2, value=36, time=0),
    Message('control_change', channel=4, control=2, value=35, time=18),
    Message('control_change', channel=4, control=2, value=34, time=85),
    Message('control_change', channel=4, control=2, value=33, time=86),
    Message('control_change', channel=4, control=2, value=32, time=86),
    Message('control_change', channel=4, control=2, value=31, time=85),
    Message('control_change', channel=4, control=2, value=30, time=86),
    Message('note_on', channel=4, note=66, velocity=0, time=33),
    Message('control_change', channel=4, control=2, value=29, time=53),
    Message('control_change', channel=4, control=2, value=28, time=86),
    Message('control_change', channel=4, control=2, value=27, time=85),
    Message('control_change', channel=4, control=2, value=26, time=86),
    Message('control_change', channel=4, control=2, value=25, time=86),
    Message('control_change', channel=4, control=2, value=24, time=85),
    MetaMessage('end_of_track', time=1)]),
  MidiTrack([
    MetaMessage('track_name', name='Violins 2\x00', time=0),
    MetaMessage('key_signature', key='D', time=0),
    Message('control_change', channel=7, control=121, value=0, time=0),
    Message('program_change', channel=7, program=48, time=0),
    Message('control_change', channel=7, control=7, value=100, time=0),
    Message('control_change', channel=7, control=10, value=64, time=0),
    Message('control_change', channel=7, control=91, value=0, time=0),
    Message('control_change', channel=7, control=93, value=0, time=0),
    MetaMessage('midi_port', port=1, time=0),
    Message('note_on', channel=7, note=62, velocity=112, time=0),
    Message('control_change', channel=7, control=2, value=112, time=0),
    Message('control_change', channel=8, control=121, value=0, time=0),
    Message('program_change', channel=8, program=45, time=0),
    Message('control_change', channel=8, control=7, value=100, time=0),
    Message('control_change', channel=8, control=10, value=64, time=0),
    Message('control_change', channel=8, control=91, value=0, time=0),
    Message('control_change', channel=8, control=93, value=0, time=0),
    MetaMessage('midi_port', port=1, time=0),
    Message('control_change', channel=10, control=121, value=0, time=0),
    Message('program_change', channel=10, program=44, time=0),
    Message('control_change', channel=10, control=7, value=100, time=0),
    Message('control_change', channel=10, control=10, value=64, time=0),
    Message('control_change', channel=10, control=91, value=0, time=0),
    Message('control_change', channel=10, control=93, value=0, time=0),
    MetaMessage('midi_port', port=1, time=0),
    Message('control_change', channel=7, control=2, value=111, time=31),
    Message('note_on', channel=7, note=62, velocity=0, time=27),
    Message('note_on', channel=7, note=62, velocity=111, time=1),
    Message('control_change', channel=7, control=2, value=110, time=2),
    Message('control_change', channel=7, control=2, value=109, time=31),
    Message('note_on', channel=7, note=62, velocity=0, time=25),
    Message('note_on', channel=7, note=62, velocity=109, time=2),
    Message('control_change', channel=7, control=2, value=108, time=3),
    Message('control_change', channel=7, control=2, value=107, time=31),
    Message('note_on', channel=7, note=62, velocity=0, time=24),
    Message('note_on', channel=7, note=62, velocity=107, time=1),
    Message('control_change', channel=7, control=2, value=106, time=5),
    Message('control_change', channel=7, control=2, value=105, time=31),
    Message('note_on', channel=7, note=62, velocity=0, time=22),
    Message('note_on', channel=7, note=62, velocity=105, time=2),
    Message('control_change', channel=7, control=2, value=104, time=6),
    Message('control_change', channel=7, control=2, value=103, time=31),
    Message('note_on', channel=7, note=62, velocity=0, time=21),
    Message('note_on', channel=7, note=62, velocity=103, time=1),
    Message('control_change', channel=7, control=2, value=102, time=8),
    Message('control_change', channel=7, control=2, value=101, time=31),
    Message('note_on', channel=7, note=62, velocity=0, time=19),
    Message('note_on', channel=7, note=62, velocity=101, time=2),
    Message('control_change', channel=7, control=2, value=100, time=9),
    Message('control_change', channel=7, control=2, value=99, time=31),
    Message('note_on', channel=7, note=62, velocity=0, time=18),
    Message('note_on', channel=7, note=62, velocity=99, time=1),
    Message('control_change', channel=7, control=2, value=98, time=11),
    Message('control_change', channel=7, control=2, value=97, time=31),
    Message('note_on', channel=7, note=62, velocity=0, time=16),
    Message('note_on', channel=7, note=62, velocity=97, time=2),
    Message('control_change', channel=7, control=2, value=96, time=12),
    Message('control_change', channel=7, control=2, value=95, time=31),
    Message('note_on', channel=7, note=62, velocity=0, time=15),
    Message('note_on', channel=7, note=62, velocity=95, time=1),
    Message('control_change', channel=7, control=2, value=94, time=14),
    Message('control_change', channel=7, control=2, value=93, time=31),
    Message('note_on', channel=7, note=62, velocity=0, time=13),
    Message('note_on', channel=7, note=62, velocity=93, time=2),
    Message('control_change', channel=7, control=2, value=92, time=15),
    Message('control_change', channel=7, control=2, value=91, time=30),
    Message('note_on', channel=7, note=62, velocity=0, time=13),
    Message('note_on', channel=7, note=62, velocity=91, time=1),
    Message('control_change', channel=7, control=2, value=90, time=17),
    Message('control_change', channel=7, control=2, value=89, time=30),
    Message('note_on', channel=7, note=62, velocity=0, time=11),
    Message('note_on', channel=7, note=62, velocity=89, time=2),
    Message('control_change', channel=7, control=2, value=88, time=18),
    Message('control_change', channel=7, control=2, value=87, time=30),
    Message('note_on', channel=7, note=62, velocity=0, time=10),
    Message('note_on', channel=7, note=62, velocity=87, time=1),
    Message('control_change', channel=7, control=2, value=86, time=20),
    Message('control_change', channel=7, control=2, value=85, time=30),
    Message('note_on', channel=7, note=62, velocity=0, time=8),
    Message('note_on', channel=7, note=62, velocity=85, time=2),
    Message('control_change', channel=7, control=2, value=84, time=21),
    Message('control_change', channel=7, control=2, value=83, time=30),
    Message('note_on', channel=7, note=62, velocity=0, time=7),
    Message('note_on', channel=7, note=62, velocity=83, time=1),
    Message('control_change', channel=7, control=2, value=82, time=23),
    Message('control_change', channel=7, control=2, value=81, time=30),
    Message('note_on', channel=7, note=62, velocity=0, time=5),
    Message('note_on', channel=7, note=62, velocity=81, time=2),
    Message('control_change', channel=7, control=2, value=80, time=24),
    Message('control_change', channel=7, control=2, value=79, time=30),
    Message('note_on', channel=7, note=62, velocity=0, time=4),
    Message('note_on', channel=7, note=62, velocity=79, time=1),
    Message('control_change', channel=7, control=2, value=78, time=26),
    Message('control_change', channel=7, control=2, value=77, time=30),
    Message('note_on', channel=7, note=62, velocity=0, time=2),
    Message('note_on', channel=7, note=62, velocity=77, time=2),
    Message('control_change', channel=7, control=2, value=76, time=27),
    Message('control_change', channel=7, control=2, value=75, time=30),
    Message('note_on', channel=7, note=62, velocity=0, time=1),
    Message('note_on', channel=7, note=62, velocity=75, time=1),
    Message('control_change', channel=7, control=2, value=74, time=29),
    Message('note_on', channel=7, note=62, velocity=0, time=29),
    Message('control_change', channel=7, control=2, value=73, time=1),
    Message('note_on', channel=7, note=62, velocity=73, time=1),
    Message('control_change', channel=7, control=2, value=72, time=30),
    Message('note_on', channel=7, note=62, velocity=0, time=28),
    Message('note_on', channel=7, note=62, velocity=72, time=1),
    Message('control_change', channel=7, control=2, value=71, time=1),
    Message('control_change', channel=7, control=2, value=70, time=30),
    Message('note_on', channel=7, note=62, velocity=0, time=27),
    Message('note_on', channel=7, note=62, velocity=70, time=2),
    Message('control_change', channel=7, control=2, value=69, time=2),
    Message('control_change', channel=7, control=2, value=68, time=30),
    Message('note_on', channel=7, note=62, velocity=0, time=26),
    Message('note_on', channel=7, note=62, velocity=68, time=1),
    Message('control_change', channel=7, control=2, value=67, time=4),
    Message('control_change', channel=7, control=2, value=66, time=30),
    Message('note_on', channel=7, note=62, velocity=0, time=24),
    Message('note_on', channel=7, note=62, velocity=66, time=2),
    Message('control_change', channel=7, control=2, value=65, time=5),
    Message('control_change', channel=7, control=2, value=64, time=30),
    Message('note_on', channel=7, note=62, velocity=0, time=23),
    Message('note_on', channel=7, note=62, velocity=64, time=2),
    Message('control_change', channel=7, control=2, value=63, time=6),
    Message('control_change', channel=7, control=2, value=62, time=30),
    Message('note_on', channel=7, note=62, velocity=0, time=22),
    Message('note_on', channel=7, note=62, velocity=62, time=1),
    Message('control_change', channel=7, control=2, value=61, time=8),
    Message('control_change', channel=7, control=2, value=60, time=30),
    Message('note_on', channel=7, note=62, velocity=0, time=20),
    Message('note_on', channel=7, note=62, velocity=60, time=2),
    Message('control_change', channel=7, control=2, value=59, time=9),
    Message('control_change', channel=7, control=2, value=58, time=30),
    Message('note_on', channel=7, note=62, velocity=0, time=19),
    Message('note_on', channel=7, note=62, velocity=58, time=1),
    Message('control_change', channel=7, control=2, value=57, time=11),
    Message('control_change', channel=7, control=2, value=56, time=30),
    Message('note_on', channel=7, note=62, velocity=0, time=17),
    Message('note_on', channel=7, note=62, velocity=56, time=2),
    Message('control_change', channel=7, control=2, value=55, time=12),
    Message('control_change', channel=7, control=2, value=54, time=30),
    Message('note_on', channel=7, note=62, velocity=0, time=16),
    Message('note_on', channel=7, note=62, velocity=54, time=1),
    Message('control_change', channel=7, control=2, value=53, time=14),
    Message('control_change', channel=7, control=2, value=52, time=30),
    Message('note_on', channel=7, note=62, velocity=0, time=14),
    Message('note_on', channel=7, note=62, velocity=52, time=2),
    Message('control_change', channel=7, control=2, value=51, time=15),
    Message('control_change', channel=7, control=2, value=50, time=30),
    Message('note_on', channel=7, note=62, velocity=0, time=13),
    Message('control_change', channel=7, control=2, value=49, time=17),
    Message('note_on', channel=7, note=62, velocity=49, time=0),
    Message('note_on', channel=7, note=62, velocity=0, time=58),
    Message('note_on', channel=7, note=62, velocity=49, time=1),
    Message('note_on', channel=7, note=62, velocity=0, time=58),
    Message('note_on', channel=7, note=62, velocity=49, time=2),
    Message('note_on', channel=7, note=62, velocity=0, time=58),
    Message('note_on', channel=7, note=62, velocity=49, time=1),
    Message('note_on', channel=7, note=62, velocity=0, time=58),
    Message('note_on', channel=7, note=62, velocity=49, time=2),
    Message('note_on', channel=7, note=62, velocity=0, time=58),
    Message('note_on', channel=7, note=62, velocity=49, time=1),
    Message('note_on', channel=7, note=62, velocity=0, time=58),
    Message('note_on', channel=7, note=62, velocity=49, time=2),
    Message('note_on', channel=7, note=62, velocity=0, time=58),
    Message('note_on', channel=7, note=62, velocity=49, time=1),
    Message('note_on', channel=7, note=62, velocity=0, time=58),
    Message('note_on', channel=7, note=62, velocity=49, time=2),
    Message('note_on', channel=7, note=62, velocity=0, time=58),
    Message('note_on', channel=7, note=62, velocity=49, time=1),
    Message('note_on', channel=7, note=62, velocity=0, time=58),
    Message('note_on', channel=7, note=62, velocity=49, time=2),
    Message('note_on', channel=7, note=62, velocity=0, time=58),
    Message('note_on', channel=7, note=62, velocity=49, time=1),
    Message('note_on', channel=7, note=62, velocity=0, time=58),
    Message('note_on', channel=7, note=62, velocity=49, time=2),
    Message('note_on', channel=7, note=62, velocity=0, time=58),
    Message('note_on', channel=7, note=62, velocity=49, time=1),
    Message('note_on', channel=7, note=62, velocity=0, time=58),
    Message('note_on', channel=7, note=62, velocity=49, time=2),
    Message('note_on', channel=7, note=62, velocity=0, time=58),
    Message('note_on', channel=7, note=62, velocity=49, time=1),
    Message('note_on', channel=7, note=62, velocity=0, time=58),
    Message('note_on', channel=7, note=64, velocity=49, time=10),
    Message('control_change', channel=7, control=2, value=49, time=0),
    Message('note_on', channel=7, note=64, velocity=0, time=58),
    Message('note_on', channel=7, note=64, velocity=49, time=1),
    Message('note_on', channel=7, note=64, velocity=0, time=58),
    Message('note_on', channel=7, note=64, velocity=49, time=2),
    Message('note_on', channel=7, note=64, velocity=0, time=58),
    Message('note_on', channel=7, note=64, velocity=49, time=1),
    Message('note_on', channel=7, note=64, velocity=0, time=58),
    Message('note_on', channel=7, note=64, velocity=49, time=2),
    Message('note_on', channel=7, note=64, velocity=0, time=58),
    Message('note_on', channel=7, note=64, velocity=49, time=1),
    Message('note_on', channel=7, note=64, velocity=0, time=58),
    Message('note_on', channel=7, note=64, velocity=49, time=2),
    Message('note_on', channel=7, note=64, velocity=0, time=58),
    Message('note_on', channel=7, note=64, velocity=49, time=1),
    Message('note_on', channel=7, note=64, velocity=0, time=58),
    Message('note_on', channel=7, note=64, velocity=49, time=2),
    Message('note_on', channel=7, note=64, velocity=0, time=58),
    Message('note_on', channel=7, note=64, velocity=49, time=1),
    Message('note_on', channel=7, note=64, velocity=0, time=58),
    Message('note_on', channel=7, note=64, velocity=49, time=2),
    Message('note_on', channel=7, note=64, velocity=0, time=58),
    Message('note_on', channel=7, note=64, velocity=49, time=1),
    Message('note_on', channel=7, note=64, velocity=0, time=58),
    Message('note_on', channel=7, note=64, velocity=49, time=2),
    Message('note_on', channel=7, note=64, velocity=0, time=58),
    Message('note_on', channel=7, note=64, velocity=49, time=1),
    Message('note_on', channel=7, note=64, velocity=0, time=58),
    Message('note_on', channel=7, note=64, velocity=49, time=2),
    Message('note_on', channel=7, note=64, velocity=0, time=58),
    Message('note_on', channel=7, note=64, velocity=49, time=1),
    Message('note_on', channel=7, note=64, velocity=0, time=58),
    Message('note_on', channel=7, note=62, velocity=49, time=10),
    Message('control_change', channel=7, control=2, value=49, time=0),
    Message('note_on', channel=7, note=62, velocity=0, time=58),
    Message('note_on', channel=7, note=62, velocity=49, time=1),
    Message('note_on', channel=7, note=62, velocity=0, time=58),
    Message('note_on', channel=7, note=62, velocity=49, time=2),
    Message('note_on', channel=7, note=62, velocity=0, time=58),
    Message('note_on', channel=7, note=62, velocity=49, time=1),
    Message('note_on', channel=7, note=62, velocity=0, time=58),
    Message('note_on', channel=7, note=62, velocity=49, time=2),
    Message('note_on', channel=7, note=62, velocity=0, time=58),
    Message('note_on', channel=7, note=62, velocity=49, time=1),
    Message('note_on', channel=7, note=62, velocity=0, time=58),
    Message('note_on', channel=7, note=62, velocity=49, time=2),
    Message('note_on', channel=7, note=62, velocity=0, time=58),
    Message('note_on', channel=7, note=62, velocity=49, time=1),
    Message('note_on', channel=7, note=62, velocity=0, time=58),
    Message('note_on', channel=7, note=62, velocity=49, time=2),
    Message('note_on', channel=7, note=62, velocity=0, time=58),
    Message('note_on', channel=7, note=62, velocity=49, time=1),
    Message('note_on', channel=7, note=62, velocity=0, time=58),
    Message('note_on', channel=7, note=62, velocity=49, time=2),
    Message('note_on', channel=7, note=62, velocity=0, time=58),
    Message('note_on', channel=7, note=62, velocity=49, time=1),
    Message('note_on', channel=7, note=62, velocity=0, time=58),
    Message('note_on', channel=7, note=62, velocity=49, time=2),
    Message('note_on', channel=7, note=62, velocity=0, time=58),
    Message('note_on', channel=7, note=62, velocity=49, time=1),
    Message('note_on', channel=7, note=62, velocity=0, time=58),
    Message('note_on', channel=7, note=62, velocity=49, time=2),
    Message('note_on', channel=7, note=62, velocity=0, time=58),
    Message('note_on', channel=7, note=62, velocity=49, time=1),
    Message('note_on', channel=7, note=62, velocity=0, time=58),
    Message('note_on', channel=7, note=62, velocity=49, time=2),
    Message('note_on', channel=7, note=62, velocity=0, time=58),
    Message('note_on', channel=7, note=62, velocity=49, time=1),
    Message('note_on', channel=7, note=62, velocity=0, time=58),
    Message('note_on', channel=7, note=62, velocity=49, time=2),
    Message('note_on', channel=7, note=62, velocity=0, time=58),
    Message('note_on', channel=7, note=62, velocity=49, time=1),
    Message('note_on', channel=7, note=62, velocity=0, time=58),
    Message('note_on', channel=7, note=62, velocity=49, time=2),
    Message('note_on', channel=7, note=62, velocity=0, time=58),
    Message('note_on', channel=7, note=62, velocity=49, time=1),
    Message('note_on', channel=7, note=62, velocity=0, time=58),
    Message('note_on', channel=7, note=62, velocity=49, time=2),
    Message('note_on', channel=7, note=62, velocity=0, time=58),
    Message('note_on', channel=7, note=62, velocity=49, time=1),
    Message('note_on', channel=7, note=62, velocity=0, time=58),
    Message('note_on', channel=7, note=62, velocity=49, time=2),
    Message('note_on', channel=7, note=62, velocity=0, time=58),
    Message('note_on', channel=7, note=62, velocity=49, time=2),
    Message('note_on', channel=7, note=62, velocity=0, time=58),
    Message('note_on', channel=7, note=62, velocity=49, time=1),
    Message('note_on', channel=7, note=62, velocity=0, time=58),
    Message('note_on', channel=7, note=62, velocity=49, time=2),
    Message('note_on', channel=7, note=62, velocity=0, time=58),
    Message('note_on', channel=7, note=62, velocity=49, time=1),
    Message('note_on', channel=7, note=62, velocity=0, time=58),
    Message('note_on', channel=7, note=62, velocity=49, time=2),
    Message('note_on', channel=7, note=62, velocity=0, time=58),
    Message('note_on', channel=7, note=62, velocity=49, time=1),
    Message('note_on', channel=7, note=62, velocity=0, time=58),
    Message('note_on', channel=7, note=62, velocity=49, time=2),
    Message('note_on', channel=7, note=62, velocity=0, time=58),
    Message('note_on', channel=7, note=62, velocity=49, time=17),
    Message('control_change', channel=7, control=2, value=49, time=0),
    Message('note_on', channel=7, note=62, velocity=0, time=58),
    Message('note_on', channel=7, note=62, velocity=49, time=1),
    Message('note_on', channel=7, note=62, velocity=0, time=58),
    Message('note_on', channel=7, note=62, velocity=49, time=2),
    Message('note_on', channel=7, note=62, velocity=0, time=58),
    Message('note_on', channel=7, note=62, velocity=49, time=1),
    Message('note_on', channel=7, note=62, velocity=0, time=58),
    Message('note_on', channel=7, note=62, velocity=49, time=2),
    Message('note_on', channel=7, note=62, velocity=0, time=58),
    Message('note_on', channel=7, note=62, velocity=49, time=1),
    Message('note_on', channel=7, note=62, velocity=0, time=58),
    Message('note_on', channel=7, note=62, velocity=49, time=2),
    Message('note_on', channel=7, note=62, velocity=0, time=58),
    Message('note_on', channel=7, note=62, velocity=49, time=1),
    Message('note_on', channel=7, note=62, velocity=0, time=58),
    Message('note_on', channel=7, note=62, velocity=49, time=2),
    Message('note_on', channel=7, note=62, velocity=0, time=58),
    Message('note_on', channel=7, note=62, velocity=49, time=1),
    Message('note_on', channel=7, note=62, velocity=0, time=58),
    Message('note_on', channel=7, note=62, velocity=49, time=2),
    Message('note_on', channel=7, note=62, velocity=0, time=58),
    Message('note_on', channel=7, note=62, velocity=49, time=1),
    Message('note_on', channel=7, note=62, velocity=0, time=58),
    Message('note_on', channel=7, note=62, velocity=49, time=2),
    Message('note_on', channel=7, note=62, velocity=0, time=58),
    Message('note_on', channel=7, note=62, velocity=49, time=1),
    Message('note_on', channel=7, note=62, velocity=0, time=58),
    Message('note_on', channel=7, note=62, velocity=49, time=2),
    Message('note_on', channel=7, note=62, velocity=0, time=58),
    Message('note_on', channel=7, note=62, velocity=49, time=1),
    Message('note_on', channel=7, note=62, velocity=0, time=58),
    Message('note_on', channel=7, note=59, velocity=49, time=10),
    Message('control_change', channel=7, control=2, value=49, time=0),
    Message('note_on', channel=7, note=59, velocity=0, time=59),
    Message('note_on', channel=7, note=59, velocity=49, time=1),
    Message('note_on', channel=7, note=59, velocity=0, time=59),
    Message('note_on', channel=7, note=59, velocity=49, time=1),
    Message('note_on', channel=7, note=59, velocity=0, time=59),
    Message('note_on', channel=7, note=59, velocity=49, time=1),
    Message('note_on', channel=7, note=59, velocity=0, time=59),
    Message('note_on', channel=7, note=59, velocity=49, time=1),
    Message('note_on', channel=7, note=59, velocity=0, time=59),
    Message('note_on', channel=7, note=59, velocity=49, time=1),
    Message('note_on', channel=7, note=59, velocity=0, time=59),
    Message('note_on', channel=7, note=59, velocity=49, time=1),
    Message('note_on', channel=7, note=59, velocity=0, time=59),
    Message('note_on', channel=7, note=59, velocity=49, time=1),
    Message('note_on', channel=7, note=59, velocity=0, time=59),
    Message('note_on', channel=7, note=59, velocity=49, time=1),
    Message('control_change', channel=7, control=2, value=49, time=0),
    Message('note_on', channel=7, note=59, velocity=0, time=59),
    Message('note_on', channel=7, note=59, velocity=49, time=1),
    Message('note_on', channel=7, note=59, velocity=0, time=59),
    Message('note_on', channel=7, note=59, velocity=49, time=1),
    Message('note_on', channel=7, note=59, velocity=0, time=59),
    Message('note_on', channel=7, note=59, velocity=49, time=1),
    Message('note_on', channel=7, note=59, velocity=0, time=59),
    Message('note_on', channel=7, note=58, velocity=49, time=1),
    Message('control_change', channel=7, control=2, value=49, time=0),
    Message('note_on', channel=7, note=58, velocity=0, time=59),
    Message('note_on', channel=7, note=58, velocity=49, time=1),
    Message('note_on', channel=7, note=58, velocity=0, time=59),
    Message('note_on', channel=7, note=58, velocity=49, time=1),
    Message('note_on', channel=7, note=58, velocity=0, time=59),
    Message('note_on', channel=7, note=58, velocity=49, time=1),
    Message('note_on', channel=7, note=58, velocity=0, time=59),
    Message('note_on', channel=7, note=59, velocity=49, time=1),
    Message('control_change', channel=7, control=2, value=49, time=0),
    Message('note_on', channel=7, note=59, velocity=0, time=59),
    Message('note_on', channel=7, note=59, velocity=49, time=1),
    Message('note_on', channel=7, note=59, velocity=0, time=59),
    Message('note_on', channel=7, note=59, velocity=49, time=1),
    Message('note_on', channel=7, note=59, velocity=0, time=59),
    Message('note_on', channel=7, note=59, velocity=49, time=1),
    Message('note_on', channel=7, note=59, velocity=0, time=59),
    Message('note_on', channel=7, note=59, velocity=49, time=1),
    Message('note_on', channel=7, note=59, velocity=0, time=59),
    Message('note_on', channel=7, note=59, velocity=49, time=1),
    Message('note_on', channel=7, note=59, velocity=0, time=59),
    Message('note_on', channel=7, note=59, velocity=49, time=1),
    Message('note_on', channel=7, note=59, velocity=0, time=59),
    Message('note_on', channel=7, note=59, velocity=49, time=1),
    Message('note_on', channel=7, note=59, velocity=0, time=59),
    Message('note_on', channel=7, note=71, velocity=49, time=1),
    Message('control_change', channel=7, control=2, value=49, time=0),
    Message('note_on', channel=7, note=71, velocity=0, time=59),
    Message('note_on', channel=7, note=71, velocity=49, time=1),
    Message('note_on', channel=7, note=71, velocity=0, time=59),
    Message('note_on', channel=7, note=71, velocity=49, time=1),
    Message('note_on', channel=7, note=71, velocity=0, time=59),
    Message('note_on', channel=7, note=71, velocity=49, time=1),
    Message('note_on', channel=7, note=71, velocity=0, time=59),
    Message('note_on', channel=7, note=71, velocity=49, time=1),
    Message('note_on', channel=7, note=71, velocity=0, time=59),
    Message('note_on', channel=7, note=71, velocity=49, time=1),
    Message('note_on', channel=7, note=71, velocity=0, time=59),
    Message('note_on', channel=7, note=71, velocity=49, time=1),
    Message('note_on', channel=7, note=71, velocity=0, time=59),
    Message('note_on', channel=7, note=71, velocity=49, time=1),
    Message('note_on', channel=7, note=71, velocity=0, time=59),
    Message('note_on', channel=7, note=69, velocity=49, time=1),
    Message('control_change', channel=7, control=2, value=49, time=0),
    Message('note_on', channel=7, note=69, velocity=0, time=59),
    Message('note_on', channel=7, note=69, velocity=49, time=1),
    Message('note_on', channel=7, note=69, velocity=0, time=59),
    Message('note_on', channel=7, note=69, velocity=49, time=1),
    Message('note_on', channel=7, note=69, velocity=0, time=59),
    Message('note_on', channel=7, note=69, velocity=49, time=1),
    Message('note_on', channel=7, note=69, velocity=0, time=59),
    Message('note_on', channel=7, note=69, velocity=49, time=1),
    Message('note_on', channel=7, note=69, velocity=0, time=59),
    Message('note_on', channel=7, note=69, velocity=49, time=1),
    Message('note_on', channel=7, note=69, velocity=0, time=59),
    Message('note_on', channel=7, note=69, velocity=49, time=1),
    Message('note_on', channel=7, note=69, velocity=0, time=59),
    Message('note_on', channel=7, note=69, velocity=49, time=1),
    Message('note_on', channel=7, note=69, velocity=0, time=59),
    Message('note_on', channel=7, note=67, velocity=49, time=1),
    Message('control_change', channel=7, control=2, value=49, time=0),
    Message('note_on', channel=7, note=67, velocity=0, time=59),
    Message('note_on', channel=7, note=67, velocity=49, time=1),
    Message('note_on', channel=7, note=67, velocity=0, time=59),
    Message('note_on', channel=7, note=67, velocity=49, time=1),
    Message('note_on', channel=7, note=67, velocity=0, time=59),
    Message('note_on', channel=7, note=67, velocity=49, time=1),
    Message('note_on', channel=7, note=67, velocity=0, time=59),
    Message('note_on', channel=7, note=67, velocity=49, time=1),
    Message('note_on', channel=7, note=67, velocity=0, time=59),
    Message('note_on', channel=7, note=67, velocity=49, time=1),
    Message('note_on', channel=7, note=67, velocity=0, time=59),
    Message('note_on', channel=7, note=67, velocity=49, time=1),
    Message('note_on', channel=7, note=67, velocity=0, time=59),
    Message('note_on', channel=7, note=67, velocity=49, time=1),
    Message('note_on', channel=7, note=67, velocity=0, time=59),
    Message('note_on', channel=7, note=66, velocity=49, time=1),
    Message('control_change', channel=7, control=2, value=49, time=0),
    Message('note_on', channel=7, note=66, velocity=0, time=58),
    Message('note_on', channel=7, note=66, velocity=49, time=1),
    Message('note_on', channel=7, note=66, velocity=0, time=58),
    Message('note_on', channel=7, note=66, velocity=49, time=2),
    Message('note_on', channel=7, note=66, velocity=0, time=58),
    Message('note_on', channel=7, note=66, velocity=49, time=1),
    Message('note_on', channel=7, note=66, velocity=0, time=58),
    Message('note_on', channel=7, note=66, velocity=49, time=2),
    Message('note_on', channel=7, note=66, velocity=0, time=58),
    Message('note_on', channel=7, note=66, velocity=49, time=1),
    Message('note_on', channel=7, note=66, velocity=0, time=58),
    Message('note_on', channel=7, note=66, velocity=49, time=2),
    Message('note_on', channel=7, note=66, velocity=0, time=58),
    Message('note_on', channel=7, note=66, velocity=49, time=1),
    Message('note_on', channel=7, note=66, velocity=0, time=58),
    Message('note_on', channel=7, note=66, velocity=49, time=2),
    Message('note_on', channel=7, note=66, velocity=0, time=58),
    Message('note_on', channel=7, note=66, velocity=49, time=1),
    Message('note_on', channel=7, note=66, velocity=0, time=58),
    Message('note_on', channel=7, note=66, velocity=49, time=2),
    Message('note_on', channel=7, note=66, velocity=0, time=58),
    Message('note_on', channel=7, note=66, velocity=49, time=1),
    Message('note_on', channel=7, note=66, velocity=0, time=58),
    Message('note_on', channel=7, note=66, velocity=49, time=2),
    Message('note_on', channel=7, note=66, velocity=0, time=58),
    Message('note_on', channel=7, note=66, velocity=49, time=1),
    Message('note_on', channel=7, note=66, velocity=0, time=58),
    Message('note_on', channel=7, note=66, velocity=49, time=2),
    Message('note_on', channel=7, note=66, velocity=0, time=58),
    Message('note_on', channel=7, note=66, velocity=49, time=1),
    Message('note_on', channel=7, note=66, velocity=0, time=58),
    Message('note_on', channel=7, note=65, velocity=49, time=10),
    Message('control_change', channel=7, control=2, value=49, time=0),
    Message('note_on', channel=7, note=65, velocity=0, time=59),
    Message('note_on', channel=7, note=65, velocity=49, time=1),
    Message('note_on', channel=7, note=65, velocity=0, time=59),
    Message('note_on', channel=7, note=65, velocity=49, time=1),
    Message('note_on', channel=7, note=65, velocity=0, time=59),
    Message('note_on', channel=7, note=65, velocity=49, time=1),
    Message('note_on', channel=7, note=65, velocity=0, time=59),
    Message('note_on', channel=7, note=65, velocity=49, time=1),
    Message('note_on', channel=7, note=65, velocity=0, time=59),
    Message('note_on', channel=7, note=65, velocity=49, time=1),
    Message('note_on', channel=7, note=65, velocity=0, time=59),
    Message('note_on', channel=7, note=65, velocity=49, time=1),
    Message('note_on', channel=7, note=65, velocity=0, time=59),
    Message('note_on', channel=7, note=65, velocity=49, time=1),
    Message('note_on', channel=7, note=65, velocity=0, time=59),
    Message('note_on', channel=7, note=64, velocity=49, time=1),
    Message('control_change', channel=7, control=2, value=49, time=0),
    Message('note_on', channel=7, note=64, velocity=0, time=59),
    Message('note_on', channel=7, note=64, velocity=49, time=1),
    Message('note_on', channel=7, note=64, velocity=0, time=59),
    Message('note_on', channel=7, note=64, velocity=49, time=1),
    Message('note_on', channel=7, note=64, velocity=0, time=59),
    Message('note_on', channel=7, note=64, velocity=49, time=1),
    Message('note_on', channel=7, note=64, velocity=0, time=59),
    Message('note_on', channel=7, note=64, velocity=49, time=1),
    Message('note_on', channel=7, note=64, velocity=0, time=59),
    Message('note_on', channel=7, note=64, velocity=49, time=1),
    Message('note_on', channel=7, note=64, velocity=0, time=59),
    Message('note_on', channel=7, note=64, velocity=49, time=1),
    Message('note_on', channel=7, note=64, velocity=0, time=59),
    Message('note_on', channel=7, note=64, velocity=49, time=1),
    Message('note_on', channel=7, note=64, velocity=0, time=59),
    Message('note_on', channel=7, note=62, velocity=49, time=1),
    Message('control_change', channel=7, control=2, value=49, time=0),
    Message('note_on', channel=7, note=62, velocity=0, time=59),
    Message('note_on', channel=7, note=62, velocity=49, time=1),
    Message('note_on', channel=7, note=62, velocity=0, time=59),
    Message('note_on', channel=7, note=62, velocity=49, time=1),
    Message('note_on', channel=7, note=62, velocity=0, time=59),
    Message('note_on', channel=7, note=62, velocity=49, time=1),
    Message('note_on', channel=7, note=62, velocity=0, time=59),
    Message('note_on', channel=7, note=62, velocity=49, time=1),
    Message('note_on', channel=7, note=62, velocity=0, time=59),
    Message('note_on', channel=7, note=62, velocity=49, time=1),
    Message('note_on', channel=7, note=62, velocity=0, time=59),
    Message('note_on', channel=7, note=62, velocity=49, time=1),
    Message('note_on', channel=7, note=62, velocity=0, time=59),
    Message('note_on', channel=7, note=62, velocity=49, time=1),
    Message('note_on', channel=7, note=62, velocity=0, time=59),
    Message('note_on', channel=7, note=56, velocity=49, time=1),
    Message('control_change', channel=7, control=2, value=49, time=0),
    Message('note_on', channel=7, note=56, velocity=0, time=59),
    Message('note_on', channel=7, note=56, velocity=49, time=1),
    Message('note_on', channel=7, note=56, velocity=0, time=59),
    Message('note_on', channel=7, note=56, velocity=49, time=1),
    Message('note_on', channel=7, note=56, velocity=0, time=59),
    Message('note_on', channel=7, note=56, velocity=49, time=1),
    Message('note_on', channel=7, note=56, velocity=0, time=59),
    Message('note_on', channel=7, note=56, velocity=49, time=1),
    Message('note_on', channel=7, note=56, velocity=0, time=59),
    Message('note_on', channel=7, note=56, velocity=49, time=1),
    Message('note_on', channel=7, note=56, velocity=0, time=59),
    Message('note_on', channel=7, note=56, velocity=49, time=1),
    Message('note_on', channel=7, note=56, velocity=0, time=59),
    Message('note_on', channel=7, note=56, velocity=49, time=1),
    Message('note_on', channel=7, note=56, velocity=0, time=59),
    Message('note_on', channel=7, note=58, velocity=49, time=1),
    Message('control_change', channel=7, control=2, value=49, time=0),
    Message('note_on', channel=7, note=58, velocity=0, time=59),
    Message('note_on', channel=7, note=58, velocity=49, time=1),
    Message('note_on', channel=7, note=58, velocity=0, time=59),
    Message('note_on', channel=7, note=58, velocity=49, time=1),
    Message('note_on', channel=7, note=58, velocity=0, time=59),
    Message('note_on', channel=7, note=58, velocity=49, time=1),
    Message('note_on', channel=7, note=58, velocity=0, time=59),
    Message('note_on', channel=7, note=58, velocity=49, time=1),
    Message('note_on', channel=7, note=58, velocity=0, time=59),
    Message('note_on', channel=7, note=58, velocity=49, time=1),
    Message('note_on', channel=7, note=58, velocity=0, time=59),
    Message('note_on', channel=7, note=58, velocity=49, time=1),
    Message('note_on', channel=7, note=58, velocity=0, time=59),
    Message('note_on', channel=7, note=58, velocity=49, time=1),
    Message('note_on', channel=7, note=58, velocity=0, time=59),
    Message('note_on', channel=7, note=59, velocity=49, time=1),
    Message('control_change', channel=7, control=2, value=49, time=0),
    Message('note_on', channel=7, note=59, velocity=0, time=59),
    Message('note_on', channel=7, note=59, velocity=49, time=1),
    Message('note_on', channel=7, note=59, velocity=0, time=59),
    Message('note_on', channel=7, note=59, velocity=49, time=1),
    Message('note_on', channel=7, note=59, velocity=0, time=59),
    Message('note_on', channel=7, note=59, velocity=49, time=1),
    Message('note_on', channel=7, note=59, velocity=0, time=59),
    Message('note_on', channel=7, note=59, velocity=49, time=1),
    Message('note_on', channel=7, note=59, velocity=0, time=59),
    Message('note_on', channel=7, note=59, velocity=49, time=1),
    Message('note_on', channel=7, note=59, velocity=0, time=59),
    Message('note_on', channel=7, note=59, velocity=49, time=1),
    Message('note_on', channel=7, note=59, velocity=0, time=59),
    Message('note_on', channel=7, note=59, velocity=49, time=1),
    Message('note_on', channel=7, note=59, velocity=0, time=59),
    Message('note_on', channel=7, note=58, velocity=49, time=1),
    Message('control_change', channel=7, control=2, value=49, time=0),
    Message('note_on', channel=7, note=58, velocity=0, time=59),
    Message('note_on', channel=7, note=58, velocity=49, time=1),
    Message('note_on', channel=7, note=58, velocity=0, time=59),
    Message('note_on', channel=7, note=58, velocity=49, time=1),
    Message('note_on', channel=7, note=58, velocity=0, time=59),
    Message('note_on', channel=7, note=58, velocity=49, time=1),
    Message('note_on', channel=7, note=58, velocity=0, time=59),
    Message('note_on', channel=7, note=58, velocity=49, time=1),
    Message('note_on', channel=7, note=58, velocity=0, time=59),
    Message('note_on', channel=7, note=58, velocity=49, time=1),
    Message('note_on', channel=7, note=58, velocity=0, time=59),
    Message('note_on', channel=7, note=58, velocity=49, time=1),
    Message('note_on', channel=7, note=58, velocity=0, time=59),
    Message('note_on', channel=7, note=58, velocity=49, time=1),
    Message('note_on', channel=7, note=58, velocity=0, time=59),
    Message('note_on', channel=7, note=59, velocity=49, time=1),
    Message('control_change', channel=7, control=2, value=49, time=0),
    Message('note_on', channel=7, note=59, velocity=0, time=59),
    Message('note_on', channel=7, note=59, velocity=49, time=1),
    Message('note_on', channel=7, note=59, velocity=0, time=59),
    Message('note_on', channel=7, note=59, velocity=49, time=1),
    Message('note_on', channel=7, note=59, velocity=0, time=59),
    Message('note_on', channel=7, note=59, velocity=49, time=1),
    Message('note_on', channel=7, note=59, velocity=0, time=59),
    Message('note_on', channel=7, note=59, velocity=49, time=1),
    Message('note_on', channel=7, note=59, velocity=0, time=59),
    Message('note_on', channel=7, note=59, velocity=49, time=1),
    Message('note_on', channel=7, note=59, velocity=0, time=59),
    Message('note_on', channel=7, note=59, velocity=49, time=1),
    Message('note_on', channel=7, note=59, velocity=0, time=59),
    Message('note_on', channel=7, note=59, velocity=49, time=1),
    Message('note_on', channel=7, note=59, velocity=0, time=59),
    Message('note_on', channel=7, note=59, velocity=49, time=1),
    Message('control_change', channel=7, control=2, value=49, time=0),
    Message('note_on', channel=7, note=59, velocity=0, time=59),
    Message('note_on', channel=7, note=59, velocity=49, time=1),
    Message('note_on', channel=7, note=59, velocity=0, time=59),
    Message('note_on', channel=7, note=59, velocity=49, time=1),
    Message('note_on', channel=7, note=59, velocity=0, time=59),
    Message('note_on', channel=7, note=59, velocity=49, time=1),
    Message('note_on', channel=7, note=59, velocity=0, time=59),
    Message('note_on', channel=7, note=59, velocity=49, time=1),
    Message('note_on', channel=7, note=59, velocity=0, time=59),
    Message('note_on', channel=7, note=59, velocity=49, time=1),
    Message('note_on', channel=7, note=59, velocity=0, time=59),
    Message('note_on', channel=7, note=59, velocity=49, time=1),
    Message('note_on', channel=7, note=59, velocity=0, time=59),
    Message('note_on', channel=7, note=59, velocity=49, time=1),
    Message('note_on', channel=7, note=59, velocity=0, time=59),
    Message('note_on', channel=7, note=59, velocity=49, time=1),
    Message('control_change', channel=7, control=2, value=49, time=0),
    Message('note_on', channel=7, note=59, velocity=0, time=59),
    Message('note_on', channel=7, note=59, velocity=49, time=1),
    Message('note_on', channel=7, note=59, velocity=0, time=59),
    Message('note_on', channel=7, note=59, velocity=49, time=1),
    Message('note_on', channel=7, note=59, velocity=0, time=59),
    Message('note_on', channel=7, note=59, velocity=49, time=1),
    Message('note_on', channel=7, note=59, velocity=0, time=59),
    Message('note_on', channel=7, note=58, velocity=49, time=1),
    Message('control_change', channel=7, control=2, value=49, time=0),
    Message('note_on', channel=7, note=58, velocity=0, time=59),
    Message('note_on', channel=7, note=58, velocity=49, time=1),
    Message('note_on', channel=7, note=58, velocity=0, time=59),
    Message('note_on', channel=7, note=58, velocity=49, time=1),
    Message('note_on', channel=7, note=58, velocity=0, time=59),
    Message('note_on', channel=7, note=58, velocity=49, time=1),
    Message('note_on', channel=7, note=58, velocity=0, time=59),
    Message('note_on', channel=7, note=59, velocity=49, time=1),
    Message('control_change', channel=7, control=2, value=49, time=0),
    Message('note_on', channel=7, note=59, velocity=0, time=59),
    Message('note_on', channel=7, note=59, velocity=49, time=1),
    Message('note_on', channel=7, note=59, velocity=0, time=59),
    Message('note_on', channel=7, note=59, velocity=49, time=1),
    Message('note_on', channel=7, note=59, velocity=0, time=59),
    Message('note_on', channel=7, note=59, velocity=49, time=1),
    Message('note_on', channel=7, note=59, velocity=0, time=59),
    Message('note_on', channel=7, note=59, velocity=49, time=1),
    Message('note_on', channel=7, note=59, velocity=0, time=59),
    Message('note_on', channel=7, note=59, velocity=49, time=1),
    Message('note_on', channel=7, note=59, velocity=0, time=59),
    Message('note_on', channel=7, note=59, velocity=49, time=1),
    Message('note_on', channel=7, note=59, velocity=0, time=59),
    Message('note_on', channel=7, note=59, velocity=49, time=1),
    Message('note_on', channel=7, note=59, velocity=0, time=59),
    Message('note_on', channel=7, note=62, velocity=49, time=1),
    Message('control_change', channel=7, control=2, value=49, time=0),
    Message('note_on', channel=7, note=62, velocity=0, time=59),
    Message('note_on', channel=7, note=62, velocity=49, time=1),
    Message('note_on', channel=7, note=62, velocity=0, time=59),
    Message('note_on', channel=7, note=62, velocity=49, time=1),
    Message('note_on', channel=7, note=62, velocity=0, time=59),
    Message('note_on', channel=7, note=62, velocity=49, time=1),
    Message('note_on', channel=7, note=62, velocity=0, time=59),
    Message('note_on', channel=7, note=62, velocity=49, time=1),
    Message('note_on', channel=7, note=62, velocity=0, time=59),
    Message('note_on', channel=7, note=62, velocity=49, time=1),
    Message('note_on', channel=7, note=62, velocity=0, time=59),
    Message('note_on', channel=7, note=62, velocity=49, time=1),
    Message('note_on', channel=7, note=62, velocity=0, time=59),
    Message('note_on', channel=7, note=62, velocity=49, time=1),
    Message('note_on', channel=7, note=62, velocity=0, time=59),
    Message('note_on', channel=7, note=66, velocity=49, time=1),
    Message('control_change', channel=7, control=2, value=49, time=0),
    Message('note_on', channel=7, note=66, velocity=0, time=59),
    Message('note_on', channel=7, note=66, velocity=49, time=1),
    Message('note_on', channel=7, note=66, velocity=0, time=59),
    Message('note_on', channel=7, note=66, velocity=49, time=1),
    Message('note_on', channel=7, note=66, velocity=0, time=59),
    Message('note_on', channel=7, note=66, velocity=49, time=1),
    Message('note_on', channel=7, note=66, velocity=0, time=59),
    Message('note_on', channel=7, note=66, velocity=49, time=1),
    Message('note_on', channel=7, note=66, velocity=0, time=59),
    Message('note_on', channel=7, note=66, velocity=49, time=1),
    Message('note_on', channel=7, note=66, velocity=0, time=59),
    Message('note_on', channel=7, note=66, velocity=49, time=1),
    Message('note_on', channel=7, note=66, velocity=0, time=59),
    Message('note_on', channel=7, note=66, velocity=49, time=1),
    Message('note_on', channel=7, note=66, velocity=0, time=59),
    Message('note_on', channel=7, note=62, velocity=49, time=1),
    Message('control_change', channel=7, control=2, value=49, time=0),
    Message('note_on', channel=7, note=62, velocity=0, time=59),
    Message('note_on', channel=7, note=62, velocity=49, time=1),
    Message('note_on', channel=7, note=62, velocity=0, time=59),
    Message('note_on', channel=7, note=62, velocity=49, time=1),
    Message('note_on', channel=7, note=62, velocity=0, time=59),
    Message('note_on', channel=7, note=62, velocity=49, time=1),
    Message('note_on', channel=7, note=62, velocity=0, time=59),
    Message('note_on', channel=7, note=62, velocity=49, time=1),
    Message('note_on', channel=7, note=62, velocity=0, time=59),
    Message('note_on', channel=7, note=62, velocity=49, time=1),
    Message('note_on', channel=7, note=62, velocity=0, time=59),
    Message('note_on', channel=7, note=62, velocity=49, time=1),
    Message('note_on', channel=7, note=62, velocity=0, time=59),
    Message('note_on', channel=7, note=62, velocity=49, time=1),
    Message('note_on', channel=7, note=62, velocity=0, time=59),
    Message('control_change', channel=7, control=2, value=49, time=1),
    Message('note_on', channel=7, note=64, velocity=49, time=0),
    Message('note_on', channel=7, note=64, velocity=0, time=58),
    Message('note_on', channel=7, note=64, velocity=49, time=1),
    Message('control_change', channel=7, control=2, value=50, time=3),
    Message('note_on', channel=7, note=64, velocity=0, time=55),
    Message('note_on', channel=7, note=64, velocity=50, time=2),
    Message('control_change', channel=7, control=2, value=51, time=5),
    Message('note_on', channel=7, note=64, velocity=0, time=53),
    Message('note_on', channel=7, note=64, velocity=51, time=1),
    Message('control_change', channel=7, control=2, value=52, time=8),
    Message('note_on', channel=7, note=64, velocity=0, time=50),
    Message('note_on', channel=7, note=64, velocity=52, time=2),
    Message('control_change', channel=7, control=2, value=53, time=10),
    Message('note_on', channel=7, note=64, velocity=0, time=48),
    Message('note_on', channel=7, note=64, velocity=53, time=1),
    Message('control_change', channel=7, control=2, value=54, time=13),
    Message('note_on', channel=7, note=64, velocity=0, time=45),
    Message('note_on', channel=7, note=64, velocity=54, time=2),
    Message('control_change', channel=7, control=2, value=55, time=15),
    Message('note_on', channel=7, note=64, velocity=0, time=43),
    Message('note_on', channel=7, note=64, velocity=55, time=1),
    Message('control_change', channel=7, control=2, value=56, time=18),
    Message('note_on', channel=7, note=64, velocity=0, time=40),
    Message('note_on', channel=7, note=64, velocity=56, time=2),
    Message('control_change', channel=7, control=2, value=57, time=20),
    Message('note_on', channel=7, note=64, velocity=0, time=38),
    Message('note_on', channel=7, note=64, velocity=57, time=1),
    Message('control_change', channel=7, control=2, value=58, time=23),
    Message('note_on', channel=7, note=64, velocity=0, time=35),
    Message('note_on', channel=7, note=64, velocity=58, time=2),
    Message('control_change', channel=7, control=2, value=59, time=25),
    Message('note_on', channel=7, note=64, velocity=0, time=33),
    Message('note_on', channel=7, note=64, velocity=59, time=1),
    Message('control_change', channel=7, control=2, value=60, time=28),
    Message('note_on', channel=7, note=64, velocity=0, time=30),
    Message('note_on', channel=7, note=64, velocity=60, time=2),
    Message('control_change', channel=7, control=2, value=61, time=30),
    Message('note_on', channel=7, note=64, velocity=0, time=28),
    Message('note_on', channel=7, note=64, velocity=61, time=1),
    Message('control_change', channel=7, control=2, value=62, time=33),
    Message('note_on', channel=7, note=64, velocity=0, time=25),
    Message('note_on', channel=7, note=64, velocity=62, time=2),
    Message('control_change', channel=7, control=2, value=63, time=35),
    Message('note_on', channel=7, note=64, velocity=0, time=23),
    Message('note_on', channel=7, note=64, velocity=63, time=1),
    Message('control_change', channel=7, control=2, value=64, time=38),
    Message('note_on', channel=7, note=64, velocity=0, time=20),
    Message('note_on', channel=7, note=64, velocity=64, time=2),
    Message('control_change', channel=7, control=2, value=65, time=39),
    Message('note_on', channel=7, note=64, velocity=0, time=19),
    Message('note_on', channel=7, note=64, velocity=65, time=1),
    Message('control_change', channel=7, control=2, value=66, time=42),
    Message('note_on', channel=7, note=64, velocity=0, time=16),
    Message('note_on', channel=7, note=64, velocity=66, time=2),
    Message('control_change', channel=7, control=2, value=67, time=44),
    Message('note_on', channel=7, note=64, velocity=0, time=14),
    Message('note_on', channel=7, note=64, velocity=67, time=1),
    Message('control_change', channel=7, control=2, value=68, time=47),
    Message('note_on', channel=7, note=64, velocity=0, time=11),
    Message('note_on', channel=7, note=64, velocity=68, time=2),
    Message('control_change', channel=7, control=2, value=69, time=49),
    Message('note_on', channel=7, note=64, velocity=0, time=9),
    Message('note_on', channel=7, note=64, velocity=69, time=1),
    Message('control_change', channel=7, control=2, value=70, time=52),
    Message('note_on', channel=7, note=64, velocity=0, time=6),
    Message('note_on', channel=7, note=64, velocity=70, time=2),
    Message('control_change', channel=7, control=2, value=71, time=54),
    Message('note_on', channel=7, note=64, velocity=0, time=4),
    Message('note_on', channel=7, note=64, velocity=71, time=1),
    Message('control_change', channel=7, control=2, value=72, time=57),
    Message('note_on', channel=7, note=64, velocity=0, time=1),
    Message('note_on', channel=7, note=64, velocity=72, time=2),
    Message('note_on', channel=7, note=64, velocity=0, time=58),
    Message('control_change', channel=7, control=2, value=73, time=1),
    Message('note_on', channel=7, note=64, velocity=73, time=1),
    Message('note_on', channel=7, note=64, velocity=0, time=58),
    Message('note_on', channel=7, note=64, velocity=73, time=1),
    Message('control_change', channel=7, control=2, value=74, time=2),
    Message('note_on', channel=7, note=64, velocity=0, time=56),
    Message('note_on', channel=7, note=64, velocity=74, time=2),
    Message('control_change', channel=7, control=2, value=75, time=4),
    Message('note_on', channel=7, note=64, velocity=0, time=54),
    Message('note_on', channel=7, note=64, velocity=75, time=1),
    Message('control_change', channel=7, control=2, value=76, time=7),
    Message('note_on', channel=7, note=64, velocity=0, time=51),
    Message('note_on', channel=7, note=64, velocity=76, time=2),
    Message('control_change', channel=7, control=2, value=77, time=9),
    Message('note_on', channel=7, note=64, velocity=0, time=49),
    Message('note_on', channel=7, note=64, velocity=77, time=1),
    Message('control_change', channel=7, control=2, value=78, time=12),
    Message('note_on', channel=7, note=64, velocity=0, time=46),
    Message('note_on', channel=7, note=64, velocity=78, time=2),
    Message('control_change', channel=7, control=2, value=79, time=14),
    Message('note_on', channel=7, note=64, velocity=0, time=44),
    Message('control_change', channel=7, control=2, value=80, time=17),
    Message('note_on', channel=7, note=66, velocity=80, time=0),
    Message('note_on', channel=7, note=66, velocity=0, time=58),
    Message('note_on', channel=7, note=66, velocity=80, time=1),
    Message('control_change', channel=7, control=2, value=79, time=3),
    Message('note_on', channel=7, note=66, velocity=0, time=55),
    Message('note_on', channel=7, note=66, velocity=79, time=2),
    Message('control_change', channel=7, control=2, value=78, time=5),
    Message('note_on', channel=7, note=66, velocity=0, time=53),
    Message('note_on', channel=7, note=66, velocity=78, time=1),
    Message('control_change', channel=7, control=2, value=77, time=8),
    Message('note_on', channel=7, note=66, velocity=0, time=50),
    Message('note_on', channel=7, note=66, velocity=77, time=2),
    Message('control_change', channel=7, control=2, value=76, time=10),
    Message('note_on', channel=7, note=66, velocity=0, time=48),
    Message('note_on', channel=7, note=66, velocity=76, time=1),
    Message('control_change', channel=7, control=2, value=75, time=13),
    Message('note_on', channel=7, note=66, velocity=0, time=45),
    Message('note_on', channel=7, note=66, velocity=75, time=2),
    Message('control_change', channel=7, control=2, value=74, time=15),
    Message('note_on', channel=7, note=66, velocity=0, time=43),
    Message('note_on', channel=7, note=66, velocity=74, time=1),
    Message('control_change', channel=7, control=2, value=73, time=18),
    Message('note_on', channel=7, note=66, velocity=0, time=40),
    Message('note_on', channel=7, note=66, velocity=73, time=2),
    Message('control_change', channel=7, control=2, value=72, time=20),
    Message('note_on', channel=7, note=66, velocity=0, time=38),
    Message('note_on', channel=7, note=66, velocity=72, time=1),
    Message('control_change', channel=7, control=2, value=71, time=23),
    Message('note_on', channel=7, note=66, velocity=0, time=35),
    Message('note_on', channel=7, note=66, velocity=71, time=2),
    Message('control_change', channel=7, control=2, value=70, time=25),
    Message('note_on', channel=7, note=66, velocity=0, time=33),
    Message('note_on', channel=7, note=66, velocity=70, time=1),
    Message('control_change', channel=7, control=2, value=69, time=28),
    Message('note_on', channel=7, note=66, velocity=0, time=30),
    Message('note_on', channel=7, note=66, velocity=69, time=2),
    Message('control_change', channel=7, control=2, value=68, time=30),
    Message('note_on', channel=7, note=66, velocity=0, time=28),
    Message('note_on', channel=7, note=66, velocity=68, time=1),
    Message('control_change', channel=7, control=2, value=67, time=33),
    Message('note_on', channel=7, note=66, velocity=0, time=25),
    Message('note_on', channel=7, note=66, velocity=67, time=2),
    Message('control_change', channel=7, control=2, value=66, time=35),
    Message('note_on', channel=7, note=66, velocity=0, time=23),
    Message('note_on', channel=7, note=66, velocity=66, time=1),
    Message('control_change', channel=7, control=2, value=65, time=38),
    Message('note_on', channel=7, note=66, velocity=0, time=20),
    Message('note_on', channel=7, note=66, velocity=65, time=2),
    Message('control_change', channel=7, control=2, value=64, time=39),
    Message('note_on', channel=7, note=66, velocity=0, time=19),
    Message('note_on', channel=7, note=66, velocity=64, time=1),
    Message('control_change', channel=7, control=2, value=63, time=42),
    Message('note_on', channel=7, note=66, velocity=0, time=16),
    Message('note_on', channel=7, note=66, velocity=63, time=2),
    Message('control_change', channel=7, control=2, value=62, time=44),
    Message('note_on', channel=7, note=66, velocity=0, time=14),
    Message('note_on', channel=7, note=66, velocity=62, time=1),
    Message('control_change', channel=7, control=2, value=61, time=47),
    Message('note_on', channel=7, note=66, velocity=0, time=11),
    Message('note_on', channel=7, note=66, velocity=61, time=2),
    Message('control_change', channel=7, control=2, value=60, time=49),
    Message('note_on', channel=7, note=66, velocity=0, time=9),
    Message('note_on', channel=7, note=66, velocity=60, time=1),
    Message('control_change', channel=7, control=2, value=59, time=52),
    Message('note_on', channel=7, note=66, velocity=0, time=6),
    Message('note_on', channel=7, note=66, velocity=59, time=2),
    Message('control_change', channel=7, control=2, value=58, time=54),
    Message('note_on', channel=7, note=66, velocity=0, time=4),
    Message('note_on', channel=7, note=66, velocity=58, time=1),
    Message('control_change', channel=7, control=2, value=57, time=57),
    Message('note_on', channel=7, note=66, velocity=0, time=1),
    Message('note_on', channel=7, note=66, velocity=57, time=2),
    Message('note_on', channel=7, note=66, velocity=0, time=58),
    Message('control_change', channel=7, control=2, value=56, time=1),
    Message('note_on', channel=7, note=66, velocity=56, time=1),
    Message('note_on', channel=7, note=66, velocity=0, time=58),
    Message('note_on', channel=7, note=66, velocity=56, time=1),
    Message('control_change', channel=7, control=2, value=55, time=2),
    Message('note_on', channel=7, note=66, velocity=0, time=56),
    Message('note_on', channel=7, note=66, velocity=55, time=2),
    Message('control_change', channel=7, control=2, value=54, time=4),
    Message('note_on', channel=7, note=66, velocity=0, time=54),
    Message('note_on', channel=7, note=66, velocity=54, time=1),
    Message('control_change', channel=7, control=2, value=53, time=7),
    Message('note_on', channel=7, note=66, velocity=0, time=51),
    Message('note_on', channel=7, note=66, velocity=53, time=2),
    Message('control_change', channel=7, control=2, value=52, time=9),
    Message('note_on', channel=7, note=66, velocity=0, time=49),
    Message('note_on', channel=7, note=66, velocity=52, time=1),
    Message('control_change', channel=7, control=2, value=51, time=12),
    Message('note_on', channel=7, note=66, velocity=0, time=46),
    Message('note_on', channel=7, note=66, velocity=51, time=2),
    Message('control_change', channel=7, control=2, value=50, time=14),
    Message('note_on', channel=7, note=66, velocity=0, time=44),
    Message('control_change', channel=7, control=2, value=49, time=17),
    Message('note_on', channel=7, note=67, velocity=49, time=0),
    Message('note_on', channel=7, note=67, velocity=0, time=58),
    Message('note_on', channel=7, note=67, velocity=49, time=1),
    Message('control_change', channel=7, control=2, value=50, time=3),
    Message('note_on', channel=7, note=67, velocity=0, time=55),
    Message('note_on', channel=7, note=67, velocity=50, time=2),
    Message('control_change', channel=7, control=2, value=51, time=5),
    Message('note_on', channel=7, note=67, velocity=0, time=53),
    Message('note_on', channel=7, note=67, velocity=51, time=1),
    Message('control_change', channel=7, control=2, value=52, time=8),
    Message('note_on', channel=7, note=67, velocity=0, time=50),
    Message('note_on', channel=7, note=67, velocity=52, time=2),
    Message('control_change', channel=7, control=2, value=53, time=10),
    Message('note_on', channel=7, note=67, velocity=0, time=48),
    Message('note_on', channel=7, note=67, velocity=53, time=1),
    Message('control_change', channel=7, control=2, value=54, time=13),
    Message('note_on', channel=7, note=67, velocity=0, time=45),
    Message('note_on', channel=7, note=67, velocity=54, time=2),
    Message('control_change', channel=7, control=2, value=55, time=15),
    Message('note_on', channel=7, note=67, velocity=0, time=43),
    Message('note_on', channel=7, note=67, velocity=55, time=1),
    Message('control_change', channel=7, control=2, value=56, time=18),
    Message('note_on', channel=7, note=67, velocity=0, time=40),
    Message('note_on', channel=7, note=67, velocity=56, time=2),
    Message('control_change', channel=7, control=2, value=57, time=20),
    Message('note_on', channel=7, note=67, velocity=0, time=38),
    Message('note_on', channel=7, note=67, velocity=57, time=1),
    Message('control_change', channel=7, control=2, value=58, time=23),
    Message('note_on', channel=7, note=67, velocity=0, time=35),
    Message('note_on', channel=7, note=67, velocity=58, time=2),
    Message('control_change', channel=7, control=2, value=59, time=25),
    Message('note_on', channel=7, note=67, velocity=0, time=33),
    Message('note_on', channel=7, note=67, velocity=59, time=1),
    Message('control_change', channel=7, control=2, value=60, time=28),
    Message('note_on', channel=7, note=67, velocity=0, time=30),
    Message('note_on', channel=7, note=67, velocity=60, time=2),
    Message('control_change', channel=7, control=2, value=61, time=30),
    Message('note_on', channel=7, note=67, velocity=0, time=28),
    Message('note_on', channel=7, note=67, velocity=61, time=1),
    Message('control_change', channel=7, control=2, value=62, time=33),
    Message('note_on', channel=7, note=67, velocity=0, time=25),
    Message('note_on', channel=7, note=67, velocity=62, time=2),
    Message('control_change', channel=7, control=2, value=63, time=35),
    Message('note_on', channel=7, note=67, velocity=0, time=23),
    Message('note_on', channel=7, note=67, velocity=63, time=1),
    Message('control_change', channel=7, control=2, value=64, time=38),
    Message('note_on', channel=7, note=67, velocity=0, time=20),
    Message('note_on', channel=7, note=67, velocity=64, time=2),
    Message('control_change', channel=7, control=2, value=65, time=39),
    Message('note_on', channel=7, note=67, velocity=0, time=19),
    Message('note_on', channel=7, note=67, velocity=65, time=1),
    Message('control_change', channel=7, control=2, value=66, time=42),
    Message('note_on', channel=7, note=67, velocity=0, time=16),
    Message('note_on', channel=7, note=67, velocity=66, time=2),
    Message('control_change', channel=7, control=2, value=67, time=44),
    Message('note_on', channel=7, note=67, velocity=0, time=14),
    Message('note_on', channel=7, note=67, velocity=67, time=1),
    Message('control_change', channel=7, control=2, value=68, time=47),
    Message('note_on', channel=7, note=67, velocity=0, time=11),
    Message('note_on', channel=7, note=67, velocity=68, time=2),
    Message('control_change', channel=7, control=2, value=69, time=49),
    Message('note_on', channel=7, note=67, velocity=0, time=9),
    Message('note_on', channel=7, note=67, velocity=69, time=1),
    Message('control_change', channel=7, control=2, value=70, time=52),
    Message('note_on', channel=7, note=67, velocity=0, time=6),
    Message('note_on', channel=7, note=67, velocity=70, time=2),
    Message('control_change', channel=7, control=2, value=71, time=54),
    Message('note_on', channel=7, note=67, velocity=0, time=4),
    Message('note_on', channel=7, note=67, velocity=71, time=1),
    Message('control_change', channel=7, control=2, value=72, time=57),
    Message('note_on', channel=7, note=67, velocity=0, time=1),
    Message('note_on', channel=7, note=67, velocity=72, time=2),
    Message('note_on', channel=7, note=67, velocity=0, time=58),
    Message('control_change', channel=7, control=2, value=73, time=1),
    Message('note_on', channel=7, note=67, velocity=73, time=1),
    Message('note_on', channel=7, note=67, velocity=0, time=58),
    Message('note_on', channel=7, note=67, velocity=73, time=1),
    Message('control_change', channel=7, control=2, value=74, time=2),
    Message('note_on', channel=7, note=67, velocity=0, time=56),
    Message('note_on', channel=7, note=67, velocity=74, time=2),
    Message('control_change', channel=7, control=2, value=75, time=4),
    Message('note_on', channel=7, note=67, velocity=0, time=54),
    Message('note_on', channel=7, note=67, velocity=75, time=1),
    Message('control_change', channel=7, control=2, value=76, time=7),
    Message('note_on', channel=7, note=67, velocity=0, time=51),
    Message('note_on', channel=7, note=67, velocity=76, time=2),
    Message('control_change', channel=7, control=2, value=77, time=9),
    Message('note_on', channel=7, note=67, velocity=0, time=49),
    Message('note_on', channel=7, note=67, velocity=77, time=1),
    Message('control_change', channel=7, control=2, value=78, time=12),
    Message('note_on', channel=7, note=67, velocity=0, time=46),
    Message('note_on', channel=7, note=67, velocity=78, time=2),
    Message('control_change', channel=7, control=2, value=79, time=14),
    Message('note_on', channel=7, note=67, velocity=0, time=44),
    Message('control_change', channel=7, control=2, value=80, time=17),
    Message('note_on', channel=7, note=68, velocity=80, time=0),
    Message('note_on', channel=7, note=68, velocity=0, time=58),
    Message('note_on', channel=7, note=68, velocity=80, time=1),
    Message('control_change', channel=7, control=2, value=79, time=3),
    Message('note_on', channel=7, note=68, velocity=0, time=55),
    Message('note_on', channel=7, note=68, velocity=79, time=2),
    Message('control_change', channel=7, control=2, value=78, time=5),
    Message('note_on', channel=7, note=68, velocity=0, time=53),
    Message('note_on', channel=7, note=68, velocity=78, time=1),
    Message('control_change', channel=7, control=2, value=77, time=8),
    Message('note_on', channel=7, note=68, velocity=0, time=50),
    Message('note_on', channel=7, note=68, velocity=77, time=2),
    Message('control_change', channel=7, control=2, value=76, time=10),
    Message('note_on', channel=7, note=68, velocity=0, time=48),
    Message('note_on', channel=7, note=68, velocity=76, time=1),
    Message('control_change', channel=7, control=2, value=75, time=13),
    Message('note_on', channel=7, note=68, velocity=0, time=45),
    Message('note_on', channel=7, note=68, velocity=75, time=2),
    Message('control_change', channel=7, control=2, value=74, time=15),
    Message('note_on', channel=7, note=68, velocity=0, time=43),
    Message('note_on', channel=7, note=68, velocity=74, time=1),
    Message('control_change', channel=7, control=2, value=73, time=18),
    Message('note_on', channel=7, note=68, velocity=0, time=40),
    Message('note_on', channel=7, note=68, velocity=73, time=2),
    Message('control_change', channel=7, control=2, value=72, time=20),
    Message('note_on', channel=7, note=68, velocity=0, time=38),
    Message('note_on', channel=7, note=68, velocity=72, time=1),
    Message('control_change', channel=7, control=2, value=71, time=23),
    Message('note_on', channel=7, note=68, velocity=0, time=35),
    Message('note_on', channel=7, note=68, velocity=71, time=2),
    Message('control_change', channel=7, control=2, value=70, time=25),
    Message('note_on', channel=7, note=68, velocity=0, time=33),
    Message('note_on', channel=7, note=68, velocity=70, time=1),
    Message('control_change', channel=7, control=2, value=69, time=28),
    Message('note_on', channel=7, note=68, velocity=0, time=30),
    Message('note_on', channel=7, note=68, velocity=69, time=2),
    Message('control_change', channel=7, control=2, value=68, time=30),
    Message('note_on', channel=7, note=68, velocity=0, time=28),
    Message('note_on', channel=7, note=68, velocity=68, time=1),
    Message('control_change', channel=7, control=2, value=67, time=33),
    Message('note_on', channel=7, note=68, velocity=0, time=25),
    Message('note_on', channel=7, note=68, velocity=67, time=2),
    Message('control_change', channel=7, control=2, value=66, time=35),
    Message('note_on', channel=7, note=68, velocity=0, time=23),
    Message('note_on', channel=7, note=68, velocity=66, time=1),
    Message('control_change', channel=7, control=2, value=65, time=38),
    Message('note_on', channel=7, note=68, velocity=0, time=20),
    Message('note_on', channel=7, note=66, velocity=65, time=10),
    Message('control_change', channel=7, control=2, value=65, time=0),
    Message('control_change', channel=7, control=2, value=64, time=31),
    Message('note_on', channel=7, note=66, velocity=0, time=28),
    Message('note_on', channel=7, note=66, velocity=64, time=1),
    Message('control_change', channel=7, control=2, value=63, time=33),
    Message('note_on', channel=7, note=66, velocity=0, time=26),
    Message('note_on', channel=7, note=66, velocity=63, time=1),
    Message('control_change', channel=7, control=2, value=62, time=35),
    Message('note_on', channel=7, note=66, velocity=0, time=24),
    Message('note_on', channel=7, note=66, velocity=62, time=1),
    Message('control_change', channel=7, control=2, value=61, time=37),
    Message('note_on', channel=7, note=66, velocity=0, time=22),
    Message('note_on', channel=7, note=66, velocity=61, time=1),
    Message('control_change', channel=7, control=2, value=60, time=39),
    Message('note_on', channel=7, note=66, velocity=0, time=20),
    Message('note_on', channel=7, note=66, velocity=60, time=1),
    Message('control_change', channel=7, control=2, value=59, time=41),
    Message('note_on', channel=7, note=66, velocity=0, time=18),
    Message('note_on', channel=7, note=66, velocity=59, time=1),
    Message('control_change', channel=7, control=2, value=58, time=43),
    Message('note_on', channel=7, note=66, velocity=0, time=16),
    Message('note_on', channel=7, note=66, velocity=58, time=1),
    Message('control_change', channel=7, control=2, value=57, time=45),
    Message('note_on', channel=7, note=66, velocity=0, time=14),
    Message('note_on', channel=7, note=62, velocity=57, time=1),
    Message('control_change', channel=7, control=2, value=57, time=0),
    Message('control_change', channel=7, control=2, value=56, time=47),
    Message('note_on', channel=7, note=62, velocity=0, time=12),
    Message('note_on', channel=7, note=62, velocity=56, time=1),
    Message('control_change', channel=7, control=2, value=55, time=49),
    Message('note_on', channel=7, note=62, velocity=0, time=10),
    Message('note_on', channel=7, note=62, velocity=55, time=1),
    Message('control_change', channel=7, control=2, value=54, time=51),
    Message('note_on', channel=7, note=62, velocity=0, time=8),
    Message('note_on', channel=7, note=62, velocity=54, time=1),
    Message('control_change', channel=7, control=2, value=53, time=53),
    Message('note_on', channel=7, note=62, velocity=0, time=6),
    Message('note_on', channel=7, note=62, velocity=53, time=1),
    Message('control_change', channel=7, control=2, value=52, time=55),
    Message('note_on', channel=7, note=62, velocity=0, time=4),
    Message('note_on', channel=7, note=62, velocity=52, time=1),
    Message('control_change', channel=7, control=2, value=51, time=57),
    Message('note_on', channel=7, note=62, velocity=0, time=2),
    Message('note_on', channel=7, note=62, velocity=51, time=1),
    Message('control_change', channel=7, control=2, value=50, time=59),
    Message('note_on', channel=7, note=62, velocity=0, time=0),
    Message('note_on', channel=7, note=62, velocity=50, time=1),
    Message('note_on', channel=7, note=62, velocity=0, time=59),
    Message('control_change', channel=7, control=2, value=49, time=1),
    Message('note_on', channel=7, note=64, velocity=49, time=0),
    Message('note_on', channel=7, note=64, velocity=0, time=58),
    Message('note_on', channel=7, note=64, velocity=49, time=1),
    Message('control_change', channel=7, control=2, value=50, time=3),
    Message('note_on', channel=7, note=64, velocity=0, time=55),
    Message('note_on', channel=7, note=64, velocity=50, time=2),
    Message('control_change', channel=7, control=2, value=51, time=5),
    Message('note_on', channel=7, note=64, velocity=0, time=53),
    Message('note_on', channel=7, note=64, velocity=51, time=1),
    Message('control_change', channel=7, control=2, value=52, time=8),
    Message('note_on', channel=7, note=64, velocity=0, time=50),
    Message('note_on', channel=7, note=64, velocity=52, time=2),
    Message('control_change', channel=7, control=2, value=53, time=10),
    Message('note_on', channel=7, note=64, velocity=0, time=48),
    Message('note_on', channel=7, note=64, velocity=53, time=1),
    Message('control_change', channel=7, control=2, value=54, time=13),
    Message('note_on', channel=7, note=64, velocity=0, time=45),
    Message('note_on', channel=7, note=64, velocity=54, time=2),
    Message('control_change', channel=7, control=2, value=55, time=15),
    Message('note_on', channel=7, note=64, velocity=0, time=43),
    Message('note_on', channel=7, note=64, velocity=55, time=1),
    Message('control_change', channel=7, control=2, value=56, time=18),
    Message('note_on', channel=7, note=64, velocity=0, time=40),
    Message('note_on', channel=7, note=64, velocity=56, time=2),
    Message('control_change', channel=7, control=2, value=57, time=20),
    Message('note_on', channel=7, note=64, velocity=0, time=38),
    Message('note_on', channel=7, note=64, velocity=57, time=1),
    Message('control_change', channel=7, control=2, value=58, time=23),
    Message('note_on', channel=7, note=64, velocity=0, time=35),
    Message('note_on', channel=7, note=64, velocity=58, time=2),
    Message('control_change', channel=7, control=2, value=59, time=25),
    Message('note_on', channel=7, note=64, velocity=0, time=33),
    Message('note_on', channel=7, note=64, velocity=59, time=1),
    Message('control_change', channel=7, control=2, value=60, time=28),
    Message('note_on', channel=7, note=64, velocity=0, time=30),
    Message('note_on', channel=7, note=64, velocity=60, time=2),
    Message('control_change', channel=7, control=2, value=61, time=30),
    Message('note_on', channel=7, note=64, velocity=0, time=28),
    Message('note_on', channel=7, note=64, velocity=61, time=1),
    Message('control_change', channel=7, control=2, value=62, time=33),
    Message('note_on', channel=7, note=64, velocity=0, time=25),
    Message('note_on', channel=7, note=64, velocity=62, time=2),
    Message('control_change', channel=7, control=2, value=63, time=35),
    Message('note_on', channel=7, note=64, velocity=0, time=23),
    Message('note_on', channel=7, note=64, velocity=63, time=1),
    Message('control_change', channel=7, control=2, value=64, time=38),
    Message('note_on', channel=7, note=64, velocity=0, time=20),
    Message('note_on', channel=7, note=64, velocity=64, time=2),
    Message('control_change', channel=7, control=2, value=65, time=39),
    Message('note_on', channel=7, note=64, velocity=0, time=19),
    Message('note_on', channel=7, note=64, velocity=65, time=1),
    Message('control_change', channel=7, control=2, value=66, time=42),
    Message('note_on', channel=7, note=64, velocity=0, time=16),
    Message('note_on', channel=7, note=64, velocity=66, time=2),
    Message('control_change', channel=7, control=2, value=67, time=44),
    Message('note_on', channel=7, note=64, velocity=0, time=14),
    Message('note_on', channel=7, note=64, velocity=67, time=1),
    Message('control_change', channel=7, control=2, value=68, time=47),
    Message('note_on', channel=7, note=64, velocity=0, time=11),
    Message('note_on', channel=7, note=64, velocity=68, time=2),
    Message('control_change', channel=7, control=2, value=69, time=49),
    Message('note_on', channel=7, note=64, velocity=0, time=9),
    Message('note_on', channel=7, note=64, velocity=69, time=1),
    Message('control_change', channel=7, control=2, value=70, time=52),
    Message('note_on', channel=7, note=64, velocity=0, time=6),
    Message('note_on', channel=7, note=64, velocity=70, time=2),
    Message('control_change', channel=7, control=2, value=71, time=54),
    Message('note_on', channel=7, note=64, velocity=0, time=4),
    Message('note_on', channel=7, note=64, velocity=71, time=1),
    Message('control_change', channel=7, control=2, value=72, time=57),
    Message('note_on', channel=7, note=64, velocity=0, time=1),
    Message('note_on', channel=7, note=64, velocity=72, time=2),
    Message('note_on', channel=7, note=64, velocity=0, time=58),
    Message('control_change', channel=7, control=2, value=73, time=1),
    Message('note_on', channel=7, note=64, velocity=73, time=1),
    Message('note_on', channel=7, note=64, velocity=0, time=58),
    Message('note_on', channel=7, note=64, velocity=73, time=1),
    Message('control_change', channel=7, control=2, value=74, time=2),
    Message('note_on', channel=7, note=64, velocity=0, time=56),
    Message('note_on', channel=7, note=64, velocity=74, time=2),
    Message('control_change', channel=7, control=2, value=75, time=4),
    Message('note_on', channel=7, note=64, velocity=0, time=54),
    Message('note_on', channel=7, note=64, velocity=75, time=1),
    Message('control_change', channel=7, control=2, value=76, time=7),
    Message('note_on', channel=7, note=64, velocity=0, time=51),
    Message('note_on', channel=7, note=64, velocity=76, time=2),
    Message('control_change', channel=7, control=2, value=77, time=9),
    Message('note_on', channel=7, note=64, velocity=0, time=49),
    Message('note_on', channel=7, note=64, velocity=77, time=1),
    Message('control_change', channel=7, control=2, value=78, time=12),
    Message('note_on', channel=7, note=64, velocity=0, time=46),
    Message('note_on', channel=7, note=64, velocity=78, time=2),
    Message('control_change', channel=7, control=2, value=79, time=14),
    Message('note_on', channel=7, note=64, velocity=0, time=44),
    Message('control_change', channel=7, control=2, value=80, time=17),
    Message('note_on', channel=7, note=66, velocity=80, time=0),
    Message('note_on', channel=7, note=66, velocity=0, time=58),
    Message('note_on', channel=7, note=66, velocity=80, time=1),
    Message('control_change', channel=7, control=2, value=79, time=3),
    Message('note_on', channel=7, note=66, velocity=0, time=55),
    Message('note_on', channel=7, note=66, velocity=79, time=2),
    Message('control_change', channel=7, control=2, value=78, time=5),
    Message('note_on', channel=7, note=66, velocity=0, time=53),
    Message('note_on', channel=7, note=66, velocity=78, time=1),
    Message('control_change', channel=7, control=2, value=77, time=8),
    Message('note_on', channel=7, note=66, velocity=0, time=50),
    Message('note_on', channel=7, note=66, velocity=77, time=2),
    Message('control_change', channel=7, control=2, value=76, time=10),
    Message('note_on', channel=7, note=66, velocity=0, time=48),
    Message('note_on', channel=7, note=66, velocity=76, time=1),
    Message('control_change', channel=7, control=2, value=75, time=13),
    Message('note_on', channel=7, note=66, velocity=0, time=45),
    Message('note_on', channel=7, note=66, velocity=75, time=2),
    Message('control_change', channel=7, control=2, value=74, time=15),
    Message('note_on', channel=7, note=66, velocity=0, time=43),
    Message('note_on', channel=7, note=66, velocity=74, time=1),
    Message('control_change', channel=7, control=2, value=73, time=18),
    Message('note_on', channel=7, note=66, velocity=0, time=40),
    Message('note_on', channel=7, note=66, velocity=73, time=2),
    Message('control_change', channel=7, control=2, value=72, time=20),
    Message('note_on', channel=7, note=66, velocity=0, time=38),
    Message('note_on', channel=7, note=66, velocity=72, time=1),
    Message('control_change', channel=7, control=2, value=71, time=23),
    Message('note_on', channel=7, note=66, velocity=0, time=35),
    Message('note_on', channel=7, note=66, velocity=71, time=2),
    Message('control_change', channel=7, control=2, value=70, time=25),
    Message('note_on', channel=7, note=66, velocity=0, time=33),
    Message('note_on', channel=7, note=66, velocity=70, time=1),
    Message('control_change', channel=7, control=2, value=69, time=28),
    Message('note_on', channel=7, note=66, velocity=0, time=30),
    Message('note_on', channel=7, note=66, velocity=69, time=2),
    Message('control_change', channel=7, control=2, value=68, time=30),
    Message('note_on', channel=7, note=66, velocity=0, time=28),
    Message('note_on', channel=7, note=66, velocity=68, time=1),
    Message('control_change', channel=7, control=2, value=67, time=33),
    Message('note_on', channel=7, note=66, velocity=0, time=25),
    Message('note_on', channel=7, note=66, velocity=67, time=2),
    Message('control_change', channel=7, control=2, value=66, time=35),
    Message('note_on', channel=7, note=66, velocity=0, time=23),
    Message('note_on', channel=7, note=66, velocity=66, time=1),
    Message('control_change', channel=7, control=2, value=65, time=38),
    Message('note_on', channel=7, note=66, velocity=0, time=20),
    Message('note_on', channel=7, note=66, velocity=65, time=2),
    Message('control_change', channel=7, control=2, value=64, time=39),
    Message('note_on', channel=7, note=66, velocity=0, time=19),
    Message('note_on', channel=7, note=66, velocity=64, time=1),
    Message('control_change', channel=7, control=2, value=63, time=42),
    Message('note_on', channel=7, note=66, velocity=0, time=16),
    Message('note_on', channel=7, note=66, velocity=63, time=2),
    Message('control_change', channel=7, control=2, value=62, time=44),
    Message('note_on', channel=7, note=66, velocity=0, time=14),
    Message('note_on', channel=7, note=66, velocity=62, time=1),
    Message('control_change', channel=7, control=2, value=61, time=47),
    Message('note_on', channel=7, note=66, velocity=0, time=11),
    Message('note_on', channel=7, note=66, velocity=61, time=2),
    Message('control_change', channel=7, control=2, value=60, time=49),
    Message('note_on', channel=7, note=66, velocity=0, time=9),
    Message('note_on', channel=7, note=66, velocity=60, time=1),
    Message('control_change', channel=7, control=2, value=59, time=52),
    Message('note_on', channel=7, note=66, velocity=0, time=6),
    Message('note_on', channel=7, note=66, velocity=59, time=2),
    Message('control_change', channel=7, control=2, value=58, time=54),
    Message('note_on', channel=7, note=66, velocity=0, time=4),
    Message('note_on', channel=7, note=66, velocity=58, time=1),
    Message('control_change', channel=7, control=2, value=57, time=57),
    Message('note_on', channel=7, note=66, velocity=0, time=1),
    Message('note_on', channel=7, note=66, velocity=57, time=2),
    Message('note_on', channel=7, note=66, velocity=0, time=58),
    Message('control_change', channel=7, control=2, value=56, time=1),
    Message('note_on', channel=7, note=66, velocity=56, time=1),
    Message('note_on', channel=7, note=66, velocity=0, time=58),
    Message('note_on', channel=7, note=66, velocity=56, time=1),
    Message('control_change', channel=7, control=2, value=55, time=2),
    Message('note_on', channel=7, note=66, velocity=0, time=56),
    Message('note_on', channel=7, note=66, velocity=55, time=2),
    Message('control_change', channel=7, control=2, value=54, time=4),
    Message('note_on', channel=7, note=66, velocity=0, time=54),
    Message('note_on', channel=7, note=66, velocity=54, time=1),
    Message('control_change', channel=7, control=2, value=53, time=7),
    Message('note_on', channel=7, note=66, velocity=0, time=51),
    Message('note_on', channel=7, note=66, velocity=53, time=2),
    Message('control_change', channel=7, control=2, value=52, time=9),
    Message('note_on', channel=7, note=66, velocity=0, time=49),
    Message('note_on', channel=7, note=66, velocity=52, time=1),
    Message('control_change', channel=7, control=2, value=51, time=12),
    Message('note_on', channel=7, note=66, velocity=0, time=46),
    Message('note_on', channel=7, note=66, velocity=51, time=2),
    Message('control_change', channel=7, control=2, value=50, time=14),
    Message('note_on', channel=7, note=66, velocity=0, time=44),
    Message('control_change', channel=7, control=2, value=49, time=17),
    Message('note_on', channel=7, note=67, velocity=49, time=0),
    Message('note_on', channel=7, note=67, velocity=0, time=58),
    Message('note_on', channel=7, note=67, velocity=49, time=1),
    Message('note_on', channel=7, note=67, velocity=0, time=58),
    Message('note_on', channel=7, note=67, velocity=49, time=2),
    Message('control_change', channel=7, control=2, value=50, time=4),
    Message('note_on', channel=7, note=67, velocity=0, time=54),
    Message('note_on', channel=7, note=67, velocity=50, time=1),
    Message('note_on', channel=7, note=67, velocity=0, time=58),
    Message('note_on', channel=7, note=67, velocity=50, time=2),
    Message('control_change', channel=7, control=2, value=51, time=8),
    Message('note_on', channel=7, note=67, velocity=0, time=50),
    Message('note_on', channel=7, note=67, velocity=51, time=1),
    Message('note_on', channel=7, note=67, velocity=0, time=58),
    Message('note_on', channel=7, note=67, velocity=51, time=2),
    Message('control_change', channel=7, control=2, value=52, time=11),
    Message('note_on', channel=7, note=67, velocity=0, time=47),
    Message('note_on', channel=7, note=67, velocity=52, time=1),
    Message('note_on', channel=7, note=67, velocity=0, time=58),
    Message('note_on', channel=7, note=67, velocity=52, time=2),
    Message('control_change', channel=7, control=2, value=53, time=15),
    Message('note_on', channel=7, note=67, velocity=0, time=43),
    Message('note_on', channel=7, note=67, velocity=53, time=1),
    Message('note_on', channel=7, note=67, velocity=0, time=58),
    Message('note_on', channel=7, note=67, velocity=53, time=2),
    Message('control_change', channel=7, control=2, value=54, time=18),
    Message('note_on', channel=7, note=67, velocity=0, time=40),
    Message('note_on', channel=7, note=67, velocity=54, time=1),
    Message('note_on', channel=7, note=67, velocity=0, time=58),
    Message('note_on', channel=7, note=67, velocity=54, time=2),
    Message('control_change', channel=7, control=2, value=55, time=22),
    Message('note_on', channel=7, note=67, velocity=0, time=36),
    Message('note_on', channel=7, note=67, velocity=55, time=1),
    Message('note_on', channel=7, note=67, velocity=0, time=58),
    Message('note_on', channel=7, note=67, velocity=55, time=2),
    Message('control_change', channel=7, control=2, value=56, time=25),
    Message('note_on', channel=7, note=67, velocity=0, time=33),
    Message('note_on', channel=7, note=67, velocity=56, time=1),
    Message('note_on', channel=7, note=67, velocity=0, time=58),
    Message('note_on', channel=7, note=67, velocity=56, time=2),
    Message('control_change', channel=7, control=2, value=57, time=29),
    Message('note_on', channel=7, note=67, velocity=0, time=29),
    Message('note_on', channel=7, note=67, velocity=57, time=1),
    Message('note_on', channel=7, note=67, velocity=0, time=58),
    Message('note_on', channel=7, note=67, velocity=57, time=2),
    Message('control_change', channel=7, control=2, value=58, time=32),
    Message('note_on', channel=7, note=67, velocity=0, time=26),
    Message('note_on', channel=7, note=67, velocity=58, time=1),
    Message('note_on', channel=7, note=67, velocity=0, time=58),
    Message('note_on', channel=7, note=67, velocity=58, time=2),
    Message('control_change', channel=7, control=2, value=59, time=36),
    Message('note_on', channel=7, note=67, velocity=0, time=22),
    Message('note_on', channel=7, note=67, velocity=59, time=1),
    Message('note_on', channel=7, note=67, velocity=0, time=58),
    Message('note_on', channel=7, note=67, velocity=59, time=2),
    Message('control_change', channel=7, control=2, value=60, time=40),
    Message('note_on', channel=7, note=67, velocity=0, time=18),
    Message('note_on', channel=7, note=67, velocity=60, time=1),
    Message('note_on', channel=7, note=67, velocity=0, time=58),
    Message('note_on', channel=7, note=67, velocity=60, time=2),
    Message('control_change', channel=7, control=2, value=61, time=43),
    Message('note_on', channel=7, note=67, velocity=0, time=15),
    Message('note_on', channel=7, note=67, velocity=61, time=2),
    Message('note_on', channel=7, note=67, velocity=0, time=58),
    Message('note_on', channel=7, note=67, velocity=61, time=1),
    Message('control_change', channel=7, control=2, value=62, time=47),
    Message('note_on', channel=7, note=67, velocity=0, time=11),
    Message('note_on', channel=7, note=67, velocity=62, time=2),
    Message('note_on', channel=7, note=67, velocity=0, time=58),
    Message('note_on', channel=7, note=67, velocity=62, time=1),
    Message('control_change', channel=7, control=2, value=63, time=50),
    Message('note_on', channel=7, note=67, velocity=0, time=8),
    Message('note_on', channel=7, note=67, velocity=63, time=2),
    Message('note_on', channel=7, note=67, velocity=0, time=58),
    Message('note_on', channel=7, note=67, velocity=63, time=1),
    Message('control_change', channel=7, control=2, value=64, time=54),
    Message('note_on', channel=7, note=67, velocity=0, time=4),
    Message('note_on', channel=7, note=67, velocity=64, time=2),
    Message('note_on', channel=7, note=67, velocity=0, time=58),
    Message('note_on', channel=7, note=67, velocity=64, time=17),
    Message('control_change', channel=7, control=2, value=64, time=0),
    Message('control_change', channel=7, control=2, value=65, time=41),
    Message('note_on', channel=7, note=67, velocity=0, time=17),
    Message('note_on', channel=7, note=67, velocity=65, time=1),
    Message('note_on', channel=7, note=67, velocity=0, time=58),
    Message('note_on', channel=7, note=67, velocity=65, time=2),
    Message('control_change', channel=7, control=2, value=66, time=45),
    Message('note_on', channel=7, note=67, velocity=0, time=13),
    Message('note_on', channel=7, note=67, velocity=66, time=1),
    Message('note_on', channel=7, note=67, velocity=0, time=58),
    Message('note_on', channel=7, note=67, velocity=66, time=2),
    Message('control_change', channel=7, control=2, value=67, time=48),
    Message('note_on', channel=7, note=67, velocity=0, time=10),
    Message('note_on', channel=7, note=67, velocity=67, time=1),
    Message('note_on', channel=7, note=67, velocity=0, time=58),
    Message('note_on', channel=7, note=67, velocity=67, time=2),
    Message('control_change', channel=7, control=2, value=68, time=52),
    Message('note_on', channel=7, note=67, velocity=0, time=6),
    Message('note_on', channel=7, note=67, velocity=68, time=1),
    Message('note_on', channel=7, note=67, velocity=0, time=58),
    Message('note_on', channel=7, note=67, velocity=68, time=2),
    Message('control_change', channel=7, control=2, value=69, time=56),
    Message('note_on', channel=7, note=67, velocity=0, time=2),
    Message('note_on', channel=7, note=67, velocity=69, time=1),
    Message('note_on', channel=7, note=67, velocity=0, time=58),
    Message('note_on', channel=7, note=67, velocity=69, time=2),
    Message('note_on', channel=7, note=67, velocity=0, time=58),
    Message('note_on', channel=7, note=67, velocity=70, time=1),
    Message('control_change', channel=7, control=2, value=70, time=0),
    Message('note_on', channel=7, note=67, velocity=0, time=58),
    Message('note_on', channel=7, note=67, velocity=70, time=2),
    Message('note_on', channel=7, note=67, velocity=0, time=58),
    Message('note_on', channel=7, note=67, velocity=70, time=1),
    Message('control_change', channel=7, control=2, value=71, time=4),
    Message('note_on', channel=7, note=67, velocity=0, time=54),
    Message('note_on', channel=7, note=67, velocity=71, time=2),
    Message('note_on', channel=7, note=67, velocity=0, time=58),
    Message('note_on', channel=7, note=67, velocity=71, time=1),
    Message('control_change', channel=7, control=2, value=72, time=7),
    Message('note_on', channel=7, note=67, velocity=0, time=51),
    Message('note_on', channel=7, note=67, velocity=72, time=2),
    Message('note_on', channel=7, note=67, velocity=0, time=58),
    Message('note_on', channel=7, note=67, velocity=72, time=1),
    Message('control_change', channel=7, control=2, value=73, time=11),
    Message('note_on', channel=7, note=67, velocity=0, time=47),
    Message('note_on', channel=7, note=67, velocity=73, time=2),
    Message('note_on', channel=7, note=67, velocity=0, time=58),
    Message('note_on', channel=7, note=67, velocity=73, time=1),
    Message('control_change', channel=7, control=2, value=74, time=14),
    Message('note_on', channel=7, note=67, velocity=0, time=44),
    Message('note_on', channel=7, note=67, velocity=74, time=2),
    Message('note_on', channel=7, note=67, velocity=0, time=58),
    Message('note_on', channel=7, note=67, velocity=74, time=1),
    Message('control_change', channel=7, control=2, value=75, time=18),
    Message('note_on', channel=7, note=67, velocity=0, time=40),
    Message('note_on', channel=7, note=67, velocity=75, time=2),
    Message('note_on', channel=7, note=67, velocity=0, time=58),
    Message('note_on', channel=7, note=67, velocity=75, time=1),
    Message('control_change', channel=7, control=2, value=76, time=21),
    Message('note_on', channel=7, note=67, velocity=0, time=37),
    Message('note_on', channel=7, note=67, velocity=76, time=2),
    Message('note_on', channel=7, note=67, velocity=0, time=58),
    Message('note_on', channel=7, note=67, velocity=76, time=2),
    Message('control_change', channel=7, control=2, value=77, time=24),
    Message('note_on', channel=7, note=67, velocity=0, time=34),
    Message('note_on', channel=7, note=67, velocity=77, time=1),
    Message('note_on', channel=7, note=67, velocity=0, time=58),
    Message('note_on', channel=7, note=67, velocity=77, time=2),
    Message('control_change', channel=7, control=2, value=78, time=28),
    Message('note_on', channel=7, note=67, velocity=0, time=30),
    Message('note_on', channel=7, note=67, velocity=78, time=1),
    Message('note_on', channel=7, note=67, velocity=0, time=58),
    Message('note_on', channel=7, note=67, velocity=78, time=2),
    Message('control_change', channel=7, control=2, value=79, time=31),
    Message('note_on', channel=7, note=67, velocity=0, time=27),
    Message('note_on', channel=7, note=67, velocity=79, time=1),
    Message('note_on', channel=7, note=67, velocity=0, time=58),
    Message('note_on', channel=7, note=67, velocity=79, time=2),
    Message('control_change', channel=7, control=2, value=80, time=35),
    Message('note_on', channel=7, note=67, velocity=0, time=23),
    Message('note_on', channel=7, note=68, velocity=80, time=17),
    Message('control_change', channel=7, control=2, value=80, time=0),
    Message('note_on', channel=7, note=68, velocity=0, time=58),
    Message('note_on', channel=7, note=68, velocity=80, time=1),
    Message('control_change', channel=7, control=2, value=81, time=23),
    Message('note_on', channel=7, note=68, velocity=0, time=35),
    Message('note_on', channel=7, note=68, velocity=81, time=2),
    Message('note_on', channel=7, note=68, velocity=0, time=58),
    Message('note_on', channel=7, note=68, velocity=81, time=1),
    Message('control_change', channel=7, control=2, value=82, time=27),
    Message('note_on', channel=7, note=68, velocity=0, time=31),
    Message('note_on', channel=7, note=68, velocity=82, time=2),
    Message('note_on', channel=7, note=68, velocity=0, time=58),
    Message('note_on', channel=7, note=68, velocity=82, time=1),
    Message('control_change', channel=7, control=2, value=83, time=30),
    Message('note_on', channel=7, note=68, velocity=0, time=28),
    Message('note_on', channel=7, note=68, velocity=83, time=2),
    Message('note_on', channel=7, note=68, velocity=0, time=58),
    Message('note_on', channel=7, note=68, velocity=83, time=1),
    Message('control_change', channel=7, control=2, value=84, time=34),
    Message('note_on', channel=7, note=68, velocity=0, time=24),
    Message('note_on', channel=7, note=68, velocity=84, time=2),
    Message('note_on', channel=7, note=68, velocity=0, time=58),
    Message('note_on', channel=7, note=68, velocity=84, time=1),
    Message('control_change', channel=7, control=2, value=85, time=37),
    Message('note_on', channel=7, note=68, velocity=0, time=21),
    Message('note_on', channel=7, note=68, velocity=85, time=2),
    Message('note_on', channel=7, note=68, velocity=0, time=58),
    Message('note_on', channel=7, note=68, velocity=85, time=1),
    Message('control_change', channel=7, control=2, value=86, time=41),
    Message('note_on', channel=7, note=68, velocity=0, time=17),
    Message('note_on', channel=7, note=68, velocity=86, time=2),
    Message('note_on', channel=7, note=68, velocity=0, time=58),
    Message('note_on', channel=7, note=68, velocity=86, time=1),
    Message('control_change', channel=7, control=2, value=87, time=45),
    Message('note_on', channel=7, note=68, velocity=0, time=13),
    Message('note_on', channel=7, note=68, velocity=87, time=2),
    Message('note_on', channel=7, note=68, velocity=0, time=58),
    Message('note_on', channel=7, note=68, velocity=87, time=1),
    Message('control_change', channel=7, control=2, value=88, time=48),
    Message('note_on', channel=7, note=68, velocity=0, time=10),
    Message('note_on', channel=7, note=70, velocity=88, time=10),
    Message('control_change', channel=7, control=2, value=88, time=0),
    Message('note_on', channel=7, note=70, velocity=0, time=58),
    Message('note_on', channel=7, note=70, velocity=88, time=1),
    Message('control_change', channel=7, control=2, value=89, time=44),
    Message('note_on', channel=7, note=70, velocity=0, time=14),
    Message('note_on', channel=7, note=70, velocity=89, time=2),
    Message('note_on', channel=7, note=70, velocity=0, time=58),
    Message('note_on', channel=7, note=70, velocity=89, time=1),
    Message('control_change', channel=7, control=2, value=90, time=47),
    Message('note_on', channel=7, note=70, velocity=0, time=11),
    Message('note_on', channel=7, note=70, velocity=90, time=2),
    Message('note_on', channel=7, note=70, velocity=0, time=58),
    Message('note_on', channel=7, note=70, velocity=90, time=1),
    Message('control_change', channel=7, control=2, value=91, time=51),
    Message('note_on', channel=7, note=70, velocity=0, time=7),
    Message('note_on', channel=7, note=70, velocity=91, time=2),
    Message('note_on', channel=7, note=70, velocity=0, time=58),
    Message('note_on', channel=7, note=70, velocity=91, time=1),
    Message('control_change', channel=7, control=2, value=92, time=54),
    Message('note_on', channel=7, note=70, velocity=0, time=4),
    Message('note_on', channel=7, note=70, velocity=92, time=2),
    Message('note_on', channel=7, note=70, velocity=0, time=58),
    Message('note_on', channel=7, note=70, velocity=92, time=1),
    Message('control_change', channel=7, control=2, value=93, time=58),
    Message('note_on', channel=7, note=70, velocity=0, time=0),
    Message('note_on', channel=7, note=70, velocity=93, time=2),
    Message('note_on', channel=7, note=70, velocity=0, time=58),
    Message('note_on', channel=7, note=70, velocity=93, time=1),
    Message('note_on', channel=7, note=70, velocity=0, time=58),
    Message('note_on', channel=7, note=70, velocity=93, time=2),
    Message('control_change', channel=7, control=2, value=94, time=1),
    Message('note_on', channel=7, note=70, velocity=0, time=57),
    Message('note_on', channel=7, note=70, velocity=94, time=1),
    Message('note_on', channel=7, note=70, velocity=0, time=58),
    Message('note_on', channel=7, note=70, velocity=94, time=2),
    Message('control_change', channel=7, control=2, value=95, time=5),
    Message('note_on', channel=7, note=70, velocity=0, time=53),
    Message('note_on', channel=7, note=70, velocity=95, time=1),
    Message('note_on', channel=7, note=70, velocity=0, time=58),
    Message('control_change', channel=7, control=2, value=96, time=10),
    Message('note_on', channel=7, note=71, velocity=96, time=0),
    Message('note_on', channel=7, note=71, velocity=0, time=58),
    Message('note_on', channel=7, note=71, velocity=96, time=1),
    Message('note_on', channel=7, note=71, velocity=0, time=58),
    Message('note_on', channel=7, note=71, velocity=96, time=2),
    Message('note_on', channel=7, note=71, velocity=0, time=58),
    Message('note_on', channel=7, note=71, velocity=96, time=1),
    Message('note_on', channel=7, note=71, velocity=0, time=58),
    Message('note_on', channel=7, note=71, velocity=96, time=2),
    Message('note_on', channel=7, note=71, velocity=0, time=58),
    Message('note_on', channel=7, note=71, velocity=96, time=1),
    Message('note_on', channel=7, note=71, velocity=0, time=58),
    Message('note_on', channel=7, note=71, velocity=96, time=2),
    Message('note_on', channel=7, note=71, velocity=0, time=58),
    Message('note_on', channel=7, note=71, velocity=96, time=1),
    Message('note_on', channel=7, note=71, velocity=0, time=58),
    Message('note_on', channel=7, note=71, velocity=96, time=2),
    Message('note_on', channel=7, note=71, velocity=0, time=58),
    Message('note_on', channel=7, note=71, velocity=96, time=1),
    Message('note_on', channel=7, note=71, velocity=0, time=58),
    Message('note_on', channel=7, note=71, velocity=96, time=2),
    Message('note_on', channel=7, note=71, velocity=0, time=58),
    Message('note_on', channel=7, note=71, velocity=96, time=1),
    Message('note_on', channel=7, note=71, velocity=0, time=58),
    Message('note_on', channel=7, note=71, velocity=96, time=2),
    Message('note_on', channel=7, note=71, velocity=0, time=58),
    Message('note_on', channel=7, note=71, velocity=96, time=1),
    Message('note_on', channel=7, note=71, velocity=0, time=58),
    Message('note_on', channel=7, note=71, velocity=96, time=2),
    Message('note_on', channel=7, note=71, velocity=0, time=58),
    Message('note_on', channel=7, note=71, velocity=96, time=1),
    Message('note_on', channel=7, note=71, velocity=0, time=58),
    Message('note_on', channel=7, note=59, velocity=96, time=10),
    Message('control_change', channel=7, control=2, value=96, time=0),
    Message('note_on', channel=7, note=67, velocity=96, time=0),
    Message('note_on', channel=7, note=59, velocity=0, time=58),
    Message('note_on', channel=7, note=67, velocity=0, time=0),
    Message('note_on', channel=7, note=59, velocity=96, time=1),
    Message('note_on', channel=7, note=67, velocity=96, time=0),
    Message('note_on', channel=7, note=59, velocity=0, time=58),
    Message('note_on', channel=7, note=67, velocity=0, time=0),
    Message('note_on', channel=7, note=59, velocity=96, time=2),
    Message('note_on', channel=7, note=67, velocity=96, time=0),
    Message('note_on', channel=7, note=59, velocity=0, time=58),
    Message('note_on', channel=7, note=67, velocity=0, time=0),
    Message('note_on', channel=7, note=59, velocity=96, time=1),
    Message('note_on', channel=7, note=67, velocity=96, time=0),
    Message('note_on', channel=7, note=59, velocity=0, time=58),
    Message('note_on', channel=7, note=67, velocity=0, time=0),
    Message('note_on', channel=7, note=59, velocity=96, time=2),
    Message('note_on', channel=7, note=67, velocity=96, time=0),
    Message('note_on', channel=7, note=59, velocity=0, time=58),
    Message('note_on', channel=7, note=67, velocity=0, time=0),
    Message('note_on', channel=7, note=59, velocity=96, time=1),
    Message('note_on', channel=7, note=67, velocity=96, time=0),
    Message('note_on', channel=7, note=59, velocity=0, time=58),
    Message('note_on', channel=7, note=67, velocity=0, time=0),
    Message('note_on', channel=7, note=59, velocity=96, time=2),
    Message('note_on', channel=7, note=67, velocity=96, time=0),
    Message('note_on', channel=7, note=59, velocity=0, time=58),
    Message('note_on', channel=7, note=67, velocity=0, time=0),
    Message('note_on', channel=7, note=59, velocity=96, time=1),
    Message('note_on', channel=7, note=67, velocity=96, time=0),
    Message('note_on', channel=7, note=59, velocity=0, time=58),
    Message('note_on', channel=7, note=67, velocity=0, time=0),
    Message('note_on', channel=7, note=59, velocity=96, time=2),
    Message('note_on', channel=7, note=67, velocity=96, time=0),
    Message('note_on', channel=7, note=59, velocity=0, time=58),
    Message('note_on', channel=7, note=67, velocity=0, time=0),
    Message('note_on', channel=7, note=59, velocity=96, time=1),
    Message('note_on', channel=7, note=67, velocity=96, time=0),
    Message('note_on', channel=7, note=59, velocity=0, time=58),
    Message('note_on', channel=7, note=67, velocity=0, time=0),
    Message('note_on', channel=7, note=59, velocity=96, time=2),
    Message('note_on', channel=7, note=67, velocity=96, time=0),
    Message('note_on', channel=7, note=59, velocity=0, time=58),
    Message('note_on', channel=7, note=67, velocity=0, time=0),
    Message('note_on', channel=7, note=59, velocity=96, time=1),
    Message('note_on', channel=7, note=67, velocity=96, time=0),
    Message('note_on', channel=7, note=59, velocity=0, time=58),
    Message('note_on', channel=7, note=67, velocity=0, time=0),
    Message('note_on', channel=7, note=59, velocity=96, time=2),
    Message('note_on', channel=7, note=67, velocity=96, time=0),
    Message('note_on', channel=7, note=59, velocity=0, time=58),
    Message('note_on', channel=7, note=67, velocity=0, time=0),
    Message('note_on', channel=7, note=59, velocity=96, time=1),
    Message('note_on', channel=7, note=67, velocity=96, time=0),
    Message('note_on', channel=7, note=59, velocity=0, time=58),
    Message('note_on', channel=7, note=67, velocity=0, time=0),
    Message('note_on', channel=7, note=59, velocity=96, time=2),
    Message('note_on', channel=7, note=67, velocity=96, time=0),
    Message('note_on', channel=7, note=59, velocity=0, time=58),
    Message('note_on', channel=7, note=67, velocity=0, time=0),
    Message('note_on', channel=7, note=59, velocity=96, time=1),
    Message('note_on', channel=7, note=67, velocity=96, time=0),
    Message('note_on', channel=7, note=59, velocity=0, time=58),
    Message('note_on', channel=7, note=67, velocity=0, time=0),
    Message('note_on', channel=7, note=59, velocity=96, time=10),
    Message('control_change', channel=7, control=2, value=96, time=0),
    Message('note_on', channel=7, note=62, velocity=96, time=0),
    Message('note_on', channel=7, note=59, velocity=0, time=58),
    Message('note_on', channel=7, note=62, velocity=0, time=0),
    Message('note_on', channel=7, note=59, velocity=96, time=1),
    Message('note_on', channel=7, note=62, velocity=96, time=0),
    Message('note_on', channel=7, note=59, velocity=0, time=58),
    Message('note_on', channel=7, note=62, velocity=0, time=0),
    Message('note_on', channel=7, note=59, velocity=96, time=2),
    Message('note_on', channel=7, note=62, velocity=96, time=0),
    Message('note_on', channel=7, note=59, velocity=0, time=58),
    Message('note_on', channel=7, note=62, velocity=0, time=0),
    Message('note_on', channel=7, note=59, velocity=96, time=1),
    Message('note_on', channel=7, note=62, velocity=96, time=0),
    Message('note_on', channel=7, note=59, velocity=0, time=58),
    Message('note_on', channel=7, note=62, velocity=0, time=0),
    Message('note_on', channel=7, note=59, velocity=96, time=2),
    Message('note_on', channel=7, note=62, velocity=96, time=0),
    Message('note_on', channel=7, note=59, velocity=0, time=58),
    Message('note_on', channel=7, note=62, velocity=0, time=0),
    Message('note_on', channel=7, note=59, velocity=96, time=1),
    Message('note_on', channel=7, note=62, velocity=96, time=0),
    Message('note_on', channel=7, note=59, velocity=0, time=58),
    Message('note_on', channel=7, note=62, velocity=0, time=0),
    Message('note_on', channel=7, note=59, velocity=96, time=2),
    Message('note_on', channel=7, note=62, velocity=96, time=0),
    Message('note_on', channel=7, note=59, velocity=0, time=58),
    Message('note_on', channel=7, note=62, velocity=0, time=0),
    Message('note_on', channel=7, note=59, velocity=96, time=1),
    Message('note_on', channel=7, note=62, velocity=96, time=0),
    Message('note_on', channel=7, note=59, velocity=0, time=58),
    Message('note_on', channel=7, note=62, velocity=0, time=0),
    Message('note_on', channel=7, note=59, velocity=96, time=2),
    Message('note_on', channel=7, note=62, velocity=96, time=0),
    Message('note_on', channel=7, note=59, velocity=0, time=58),
    Message('note_on', channel=7, note=62, velocity=0, time=0),
    Message('note_on', channel=7, note=59, velocity=96, time=1),
    Message('note_on', channel=7, note=62, velocity=96, time=0),
    Message('note_on', channel=7, note=59, velocity=0, time=58),
    Message('note_on', channel=7, note=62, velocity=0, time=0),
    Message('note_on', channel=7, note=59, velocity=96, time=2),
    Message('note_on', channel=7, note=62, velocity=96, time=0),
    Message('note_on', channel=7, note=59, velocity=0, time=58),
    Message('note_on', channel=7, note=62, velocity=0, time=0),
    Message('note_on', channel=7, note=59, velocity=96, time=1),
    Message('note_on', channel=7, note=62, velocity=96, time=0),
    Message('note_on', channel=7, note=59, velocity=0, time=58),
    Message('note_on', channel=7, note=62, velocity=0, time=0),
    Message('note_on', channel=7, note=59, velocity=96, time=2),
    Message('note_on', channel=7, note=62, velocity=96, time=0),
    Message('note_on', channel=7, note=59, velocity=0, time=58),
    Message('note_on', channel=7, note=62, velocity=0, time=0),
    Message('note_on', channel=7, note=59, velocity=96, time=1),
    Message('note_on', channel=7, note=62, velocity=96, time=0),
    Message('note_on', channel=7, note=59, velocity=0, time=58),
    Message('note_on', channel=7, note=62, velocity=0, time=0),
    Message('note_on', channel=7, note=59, velocity=96, time=2),
    Message('note_on', channel=7, note=62, velocity=96, time=0),
    Message('note_on', channel=7, note=59, velocity=0, time=58),
    Message('note_on', channel=7, note=62, velocity=0, time=0),
    Message('note_on', channel=7, note=59, velocity=96, time=1),
    Message('note_on', channel=7, note=62, velocity=96, time=0),
    Message('note_on', channel=7, note=59, velocity=0, time=58),
    Message('note_on', channel=7, note=62, velocity=0, time=0),
    Message('note_on', channel=7, note=59, velocity=96, time=2),
    Message('note_on', channel=7, note=62, velocity=96, time=0),
    Message('note_on', channel=7, note=59, velocity=0, time=58),
    Message('note_on', channel=7, note=62, velocity=0, time=0),
    Message('note_on', channel=7, note=59, velocity=96, time=1),
    Message('note_on', channel=7, note=62, velocity=96, time=0),
    Message('note_on', channel=7, note=59, velocity=0, time=58),
    Message('note_on', channel=7, note=62, velocity=0, time=0),
    Message('note_on', channel=7, note=59, velocity=96, time=2),
    Message('note_on', channel=7, note=62, velocity=96, time=0),
    Message('note_on', channel=7, note=59, velocity=0, time=58),
    Message('note_on', channel=7, note=62, velocity=0, time=0),
    Message('note_on', channel=7, note=59, velocity=96, time=1),
    Message('note_on', channel=7, note=62, velocity=96, time=0),
    Message('note_on', channel=7, note=59, velocity=0, time=58),
    Message('note_on', channel=7, note=62, velocity=0, time=0),
    Message('note_on', channel=7, note=59, velocity=96, time=2),
    Message('note_on', channel=7, note=62, velocity=96, time=0),
    Message('note_on', channel=7, note=59, velocity=0, time=58),
    Message('note_on', channel=7, note=62, velocity=0, time=0),
    Message('note_on', channel=7, note=59, velocity=96, time=1),
    Message('note_on', channel=7, note=62, velocity=96, time=0),
    Message('note_on', channel=7, note=59, velocity=0, time=58),
    Message('note_on', channel=7, note=62, velocity=0, time=0),
    Message('note_on', channel=7, note=59, velocity=96, time=2),
    Message('note_on', channel=7, note=62, velocity=96, time=0),
    Message('note_on', channel=7, note=59, velocity=0, time=58),
    Message('note_on', channel=7, note=62, velocity=0, time=0),
    Message('note_on', channel=7, note=59, velocity=96, time=1),
    Message('note_on', channel=7, note=62, velocity=96, time=0),
    Message('note_on', channel=7, note=59, velocity=0, time=58),
    Message('note_on', channel=7, note=62, velocity=0, time=0),
    Message('note_on', channel=7, note=59, velocity=96, time=2),
    Message('note_on', channel=7, note=62, velocity=96, time=0),
    Message('note_on', channel=7, note=59, velocity=0, time=58),
    Message('note_on', channel=7, note=62, velocity=0, time=0),
    Message('note_on', channel=7, note=59, velocity=96, time=2),
    Message('note_on', channel=7, note=62, velocity=96, time=0),
    Message('note_on', channel=7, note=59, velocity=0, time=58),
    Message('note_on', channel=7, note=62, velocity=0, time=0),
    Message('note_on', channel=7, note=59, velocity=96, time=1),
    Message('note_on', channel=7, note=62, velocity=96, time=0),
    Message('note_on', channel=7, note=59, velocity=0, time=58),
    Message('note_on', channel=7, note=62, velocity=0, time=0),
    Message('note_on', channel=7, note=59, velocity=96, time=2),
    Message('note_on', channel=7, note=62, velocity=96, time=0),
    Message('note_on', channel=7, note=59, velocity=0, time=58),
    Message('note_on', channel=7, note=62, velocity=0, time=0),
    Message('note_on', channel=7, note=59, velocity=96, time=1),
    Message('note_on', channel=7, note=62, velocity=96, time=0),
    Message('note_on', channel=7, note=59, velocity=0, time=58),
    Message('note_on', channel=7, note=62, velocity=0, time=0),
    Message('note_on', channel=7, note=59, velocity=96, time=2),
    Message('note_on', channel=7, note=62, velocity=96, time=0),
    Message('note_on', channel=7, note=59, velocity=0, time=58),
    Message('note_on', channel=7, note=62, velocity=0, time=0),
    Message('note_on', channel=7, note=59, velocity=96, time=1),
    Message('note_on', channel=7, note=62, velocity=96, time=0),
    Message('note_on', channel=7, note=59, velocity=0, time=58),
    Message('note_on', channel=7, note=62, velocity=0, time=0),
    Message('note_on', channel=7, note=59, velocity=96, time=2),
    Message('note_on', channel=7, note=62, velocity=96, time=0),
    Message('note_on', channel=7, note=59, velocity=0, time=58),
    Message('note_on', channel=7, note=62, velocity=0, time=0),
    Message('note_on', channel=7, note=59, velocity=96, time=17),
    Message('control_change', channel=7, control=2, value=96, time=0),
    Message('note_on', channel=7, note=62, velocity=96, time=0),
    Message('note_on', channel=7, note=59, velocity=0, time=58),
    Message('note_on', channel=7, note=62, velocity=0, time=0),
    Message('note_on', channel=7, note=59, velocity=96, time=1),
    Message('note_on', channel=7, note=62, velocity=96, time=0),
    Message('note_on', channel=7, note=59, velocity=0, time=58),
    Message('note_on', channel=7, note=62, velocity=0, time=0),
    Message('note_on', channel=7, note=59, velocity=96, time=2),
    Message('note_on', channel=7, note=62, velocity=96, time=0),
    Message('note_on', channel=7, note=59, velocity=0, time=58),
    Message('note_on', channel=7, note=62, velocity=0, time=0),
    Message('note_on', channel=7, note=59, velocity=96, time=1),
    Message('note_on', channel=7, note=62, velocity=96, time=0),
    Message('note_on', channel=7, note=59, velocity=0, time=58),
    Message('note_on', channel=7, note=62, velocity=0, time=0),
    Message('note_on', channel=7, note=59, velocity=96, time=2),
    Message('note_on', channel=7, note=62, velocity=96, time=0),
    Message('note_on', channel=7, note=59, velocity=0, time=58),
    Message('note_on', channel=7, note=62, velocity=0, time=0),
    Message('note_on', channel=7, note=59, velocity=96, time=1),
    Message('note_on', channel=7, note=62, velocity=96, time=0),
    Message('note_on', channel=7, note=59, velocity=0, time=58),
    Message('note_on', channel=7, note=62, velocity=0, time=0),
    Message('note_on', channel=7, note=59, velocity=96, time=2),
    Message('note_on', channel=7, note=62, velocity=96, time=0),
    Message('note_on', channel=7, note=59, velocity=0, time=58),
    Message('note_on', channel=7, note=62, velocity=0, time=0),
    Message('note_on', channel=7, note=59, velocity=96, time=1),
    Message('note_on', channel=7, note=62, velocity=96, time=0),
    Message('note_on', channel=7, note=59, velocity=0, time=58),
    Message('note_on', channel=7, note=62, velocity=0, time=0),
    Message('note_on', channel=7, note=59, velocity=96, time=2),
    Message('note_on', channel=7, note=62, velocity=96, time=0),
    Message('note_on', channel=7, note=59, velocity=0, time=58),
    Message('note_on', channel=7, note=62, velocity=0, time=0),
    Message('note_on', channel=7, note=59, velocity=96, time=1),
    Message('note_on', channel=7, note=62, velocity=96, time=0),
    Message('note_on', channel=7, note=59, velocity=0, time=58),
    Message('note_on', channel=7, note=62, velocity=0, time=0),
    Message('note_on', channel=7, note=59, velocity=96, time=2),
    Message('note_on', channel=7, note=62, velocity=96, time=0),
    Message('note_on', channel=7, note=59, velocity=0, time=58),
    Message('note_on', channel=7, note=62, velocity=0, time=0),
    Message('note_on', channel=7, note=59, velocity=96, time=1),
    Message('note_on', channel=7, note=62, velocity=96, time=0),
    Message('note_on', channel=7, note=59, velocity=0, time=58),
    Message('note_on', channel=7, note=62, velocity=0, time=0),
    Message('note_on', channel=7, note=59, velocity=96, time=2),
    Message('note_on', channel=7, note=62, velocity=96, time=0),
    Message('note_on', channel=7, note=59, velocity=0, time=58),
    Message('note_on', channel=7, note=62, velocity=0, time=0),
    Message('note_on', channel=7, note=59, velocity=96, time=1),
    Message('note_on', channel=7, note=62, velocity=96, time=0),
    Message('note_on', channel=7, note=59, velocity=0, time=58),
    Message('note_on', channel=7, note=62, velocity=0, time=0),
    Message('note_on', channel=7, note=59, velocity=96, time=2),
    Message('note_on', channel=7, note=62, velocity=96, time=0),
    Message('note_on', channel=7, note=59, velocity=0, time=58),
    Message('note_on', channel=7, note=62, velocity=0, time=0),
    Message('note_on', channel=7, note=59, velocity=96, time=1),
    Message('note_on', channel=7, note=62, velocity=96, time=0),
    Message('note_on', channel=7, note=59, velocity=0, time=58),
    Message('note_on', channel=7, note=62, velocity=0, time=0),
    Message('note_on', channel=7, note=67, velocity=96, time=10),
    Message('control_change', channel=7, control=2, value=96, time=0),
    Message('note_on', channel=7, note=74, velocity=96, time=0),
    Message('note_on', channel=7, note=67, velocity=0, time=59),
    Message('note_on', channel=7, note=74, velocity=0, time=0),
    Message('note_on', channel=7, note=67, velocity=96, time=1),
    Message('note_on', channel=7, note=74, velocity=96, time=0),
    Message('note_on', channel=7, note=67, velocity=0, time=59),
    Message('note_on', channel=7, note=74, velocity=0, time=0),
    Message('note_on', channel=7, note=67, velocity=96, time=1),
    Message('note_on', channel=7, note=74, velocity=96, time=0),
    Message('note_on', channel=7, note=67, velocity=0, time=59),
    Message('note_on', channel=7, note=74, velocity=0, time=0),
    Message('note_on', channel=7, note=67, velocity=96, time=1),
    Message('note_on', channel=7, note=74, velocity=96, time=0),
    Message('note_on', channel=7, note=67, velocity=0, time=59),
    Message('note_on', channel=7, note=74, velocity=0, time=0),
    Message('note_on', channel=7, note=67, velocity=96, time=1),
    Message('note_on', channel=7, note=74, velocity=96, time=0),
    Message('note_on', channel=7, note=67, velocity=0, time=59),
    Message('note_on', channel=7, note=74, velocity=0, time=0),
    Message('note_on', channel=7, note=67, velocity=96, time=1),
    Message('note_on', channel=7, note=74, velocity=96, time=0),
    Message('note_on', channel=7, note=67, velocity=0, time=59),
    Message('note_on', channel=7, note=74, velocity=0, time=0),
    Message('note_on', channel=7, note=67, velocity=96, time=1),
    Message('note_on', channel=7, note=74, velocity=96, time=0),
    Message('note_on', channel=7, note=67, velocity=0, time=59),
    Message('note_on', channel=7, note=74, velocity=0, time=0),
    Message('note_on', channel=7, note=67, velocity=96, time=1),
    Message('note_on', channel=7, note=74, velocity=96, time=0),
    Message('note_on', channel=7, note=67, velocity=0, time=59),
    Message('note_on', channel=7, note=74, velocity=0, time=0),
    Message('note_on', channel=7, note=70, velocity=96, time=1),
    Message('control_change', channel=7, control=2, value=96, time=0),
    Message('note_on', channel=7, note=76, velocity=96, time=0),
    Message('note_on', channel=7, note=70, velocity=0, time=59),
    Message('note_on', channel=7, note=76, velocity=0, time=0),
    Message('note_on', channel=7, note=70, velocity=96, time=1),
    Message('note_on', channel=7, note=76, velocity=96, time=0),
    Message('note_on', channel=7, note=70, velocity=0, time=59),
    Message('note_on', channel=7, note=76, velocity=0, time=0),
    Message('note_on', channel=7, note=70, velocity=96, time=1),
    Message('note_on', channel=7, note=76, velocity=96, time=0),
    Message('note_on', channel=7, note=70, velocity=0, time=59),
    Message('note_on', channel=7, note=76, velocity=0, time=0),
    Message('note_on', channel=7, note=70, velocity=96, time=1),
    Message('note_on', channel=7, note=76, velocity=96, time=0),
    Message('note_on', channel=7, note=70, velocity=0, time=59),
    Message('note_on', channel=7, note=76, velocity=0, time=0),
    Message('note_on', channel=7, note=70, velocity=96, time=1),
    Message('note_on', channel=7, note=76, velocity=96, time=0),
    Message('note_on', channel=7, note=70, velocity=0, time=59),
    Message('note_on', channel=7, note=76, velocity=0, time=0),
    Message('note_on', channel=7, note=70, velocity=96, time=1),
    Message('note_on', channel=7, note=76, velocity=96, time=0),
    Message('note_on', channel=7, note=70, velocity=0, time=59),
    Message('note_on', channel=7, note=76, velocity=0, time=0),
    Message('note_on', channel=7, note=70, velocity=96, time=1),
    Message('note_on', channel=7, note=76, velocity=96, time=0),
    Message('note_on', channel=7, note=70, velocity=0, time=59),
    Message('note_on', channel=7, note=76, velocity=0, time=0),
    Message('note_on', channel=7, note=70, velocity=96, time=1),
    Message('note_on', channel=7, note=76, velocity=96, time=0),
    Message('note_on', channel=7, note=70, velocity=0, time=59),
    Message('note_on', channel=7, note=76, velocity=0, time=0),
    Message('note_on', channel=7, note=71, velocity=96, time=1),
    Message('control_change', channel=7, control=2, value=96, time=0),
    Message('note_on', channel=7, note=78, velocity=96, time=0),
    Message('note_on', channel=7, note=71, velocity=0, time=58),
    Message('note_on', channel=7, note=78, velocity=0, time=0),
    Message('note_on', channel=7, note=71, velocity=96, time=1),
    Message('note_on', channel=7, note=78, velocity=96, time=0),
    Message('note_on', channel=7, note=71, velocity=0, time=58),
    Message('note_on', channel=7, note=78, velocity=0, time=0),
    Message('note_on', channel=7, note=71, velocity=96, time=2),
    Message('note_on', channel=7, note=78, velocity=96, time=0),
    Message('note_on', channel=7, note=71, velocity=0, time=58),
    Message('note_on', channel=7, note=78, velocity=0, time=0),
    Message('note_on', channel=7, note=71, velocity=96, time=1),
    Message('note_on', channel=7, note=78, velocity=96, time=0),
    Message('note_on', channel=7, note=71, velocity=0, time=58),
    Message('note_on', channel=7, note=78, velocity=0, time=0),
    Message('note_on', channel=7, note=71, velocity=96, time=2),
    Message('note_on', channel=7, note=78, velocity=96, time=0),
    Message('note_on', channel=7, note=71, velocity=0, time=58),
    Message('note_on', channel=7, note=78, velocity=0, time=0),
    Message('note_on', channel=7, note=71, velocity=96, time=1),
    Message('note_on', channel=7, note=78, velocity=96, time=0),
    Message('note_on', channel=7, note=71, velocity=0, time=58),
    Message('note_on', channel=7, note=78, velocity=0, time=0),
    Message('note_on', channel=7, note=71, velocity=96, time=2),
    Message('note_on', channel=7, note=78, velocity=96, time=0),
    Message('note_on', channel=7, note=71, velocity=0, time=58),
    Message('note_on', channel=7, note=78, velocity=0, time=0),
    Message('note_on', channel=7, note=71, velocity=96, time=1),
    Message('note_on', channel=7, note=78, velocity=96, time=0),
    Message('note_on', channel=7, note=71, velocity=0, time=58),
    Message('note_on', channel=7, note=78, velocity=0, time=0),
    Message('note_on', channel=7, note=71, velocity=96, time=2),
    Message('note_on', channel=7, note=78, velocity=96, time=0),
    Message('note_on', channel=7, note=71, velocity=0, time=58),
    Message('note_on', channel=7, note=78, velocity=0, time=0),
    Message('note_on', channel=7, note=71, velocity=96, time=1),
    Message('note_on', channel=7, note=78, velocity=96, time=0),
    Message('note_on', channel=7, note=71, velocity=0, time=58),
    Message('note_on', channel=7, note=78, velocity=0, time=0),
    Message('note_on', channel=7, note=71, velocity=96, time=2),
    Message('note_on', channel=7, note=78, velocity=96, time=0),
    Message('note_on', channel=7, note=71, velocity=0, time=58),
    Message('note_on', channel=7, note=78, velocity=0, time=0),
    Message('note_on', channel=7, note=71, velocity=96, time=1),
    Message('note_on', channel=7, note=78, velocity=96, time=0),
    Message('note_on', channel=7, note=71, velocity=0, time=58),
    Message('note_on', channel=7, note=78, velocity=0, time=0),
    Message('note_on', channel=7, note=71, velocity=96, time=2),
    Message('note_on', channel=7, note=78, velocity=96, time=0),
    Message('note_on', channel=7, note=71, velocity=0, time=58),
    Message('note_on', channel=7, note=78, velocity=0, time=0),
    Message('note_on', channel=7, note=71, velocity=96, time=1),
    Message('note_on', channel=7, note=78, velocity=96, time=0),
    Message('note_on', channel=7, note=71, velocity=0, time=58),
    Message('note_on', channel=7, note=78, velocity=0, time=0),
    Message('note_on', channel=7, note=71, velocity=96, time=2),
    Message('note_on', channel=7, note=78, velocity=96, time=0),
    Message('note_on', channel=7, note=71, velocity=0, time=58),
    Message('note_on', channel=7, note=78, velocity=0, time=0),
    Message('note_on', channel=7, note=71, velocity=96, time=1),
    Message('note_on', channel=7, note=78, velocity=96, time=0),
    Message('note_on', channel=7, note=71, velocity=0, time=58),
    Message('note_on', channel=7, note=78, velocity=0, time=0),
    Message('note_on', channel=7, note=71, velocity=96, time=10),
    Message('control_change', channel=7, control=2, value=96, time=0),
    Message('note_on', channel=7, note=79, velocity=96, time=0),
    Message('note_on', channel=7, note=71, velocity=0, time=58),
    Message('note_on', channel=7, note=79, velocity=0, time=0),
    Message('note_on', channel=7, note=71, velocity=96, time=1),
    Message('note_on', channel=7, note=79, velocity=96, time=0),
    Message('note_on', channel=7, note=71, velocity=0, time=58),
    Message('note_on', channel=7, note=79, velocity=0, time=0),
    Message('note_on', channel=7, note=71, velocity=96, time=2),
    Message('note_on', channel=7, note=79, velocity=96, time=0),
    Message('note_on', channel=7, note=71, velocity=0, time=58),
    Message('note_on', channel=7, note=79, velocity=0, time=0),
    Message('note_on', channel=7, note=71, velocity=96, time=1),
    Message('note_on', channel=7, note=79, velocity=96, time=0),
    Message('note_on', channel=7, note=71, velocity=0, time=58),
    Message('note_on', channel=7, note=79, velocity=0, time=0),
    Message('note_on', channel=7, note=71, velocity=96, time=2),
    Message('note_on', channel=7, note=79, velocity=96, time=0),
    Message('note_on', channel=7, note=71, velocity=0, time=58),
    Message('note_on', channel=7, note=79, velocity=0, time=0),
    Message('note_on', channel=7, note=71, velocity=96, time=1),
    Message('note_on', channel=7, note=79, velocity=96, time=0),
    Message('note_on', channel=7, note=71, velocity=0, time=58),
    Message('note_on', channel=7, note=79, velocity=0, time=0),
    Message('note_on', channel=7, note=71, velocity=96, time=2),
    Message('note_on', channel=7, note=79, velocity=96, time=0),
    Message('note_on', channel=7, note=71, velocity=0, time=58),
    Message('note_on', channel=7, note=79, velocity=0, time=0),
    Message('note_on', channel=7, note=71, velocity=96, time=1),
    Message('note_on', channel=7, note=79, velocity=96, time=0),
    Message('note_on', channel=7, note=71, velocity=0, time=58),
    Message('note_on', channel=7, note=79, velocity=0, time=0),
    Message('note_on', channel=7, note=71, velocity=96, time=2),
    Message('note_on', channel=7, note=79, velocity=96, time=0),
    Message('note_on', channel=7, note=71, velocity=0, time=58),
    Message('note_on', channel=7, note=79, velocity=0, time=0),
    Message('note_on', channel=7, note=71, velocity=96, time=1),
    Message('note_on', channel=7, note=79, velocity=96, time=0),
    Message('note_on', channel=7, note=71, velocity=0, time=58),
    Message('note_on', channel=7, note=79, velocity=0, time=0),
    Message('note_on', channel=7, note=71, velocity=96, time=2),
    Message('note_on', channel=7, note=79, velocity=96, time=0),
    Message('note_on', channel=7, note=71, velocity=0, time=58),
    Message('note_on', channel=7, note=79, velocity=0, time=0),
    Message('note_on', channel=7, note=71, velocity=96, time=1),
    Message('note_on', channel=7, note=79, velocity=96, time=0),
    Message('note_on', channel=7, note=71, velocity=0, time=58),
    Message('note_on', channel=7, note=79, velocity=0, time=0),
    Message('note_on', channel=7, note=71, velocity=96, time=2),
    Message('note_on', channel=7, note=79, velocity=96, time=0),
    Message('note_on', channel=7, note=71, velocity=0, time=58),
    Message('note_on', channel=7, note=79, velocity=0, time=0),
    Message('note_on', channel=7, note=71, velocity=96, time=1),
    Message('note_on', channel=7, note=79, velocity=96, time=0),
    Message('note_on', channel=7, note=71, velocity=0, time=58),
    Message('note_on', channel=7, note=79, velocity=0, time=0),
    Message('note_on', channel=7, note=71, velocity=96, time=2),
    Message('note_on', channel=7, note=79, velocity=96, time=0),
    Message('note_on', channel=7, note=71, velocity=0, time=58),
    Message('note_on', channel=7, note=79, velocity=0, time=0),
    Message('note_on', channel=7, note=71, velocity=96, time=1),
    Message('note_on', channel=7, note=79, velocity=96, time=0),
    Message('note_on', channel=7, note=71, velocity=0, time=58),
    Message('note_on', channel=7, note=79, velocity=0, time=0),
    Message('note_on', channel=7, note=71, velocity=96, time=10),
    Message('control_change', channel=7, control=2, value=96, time=0),
    Message('note_on', channel=7, note=78, velocity=96, time=0),
    Message('note_on', channel=7, note=71, velocity=0, time=58),
    Message('note_on', channel=7, note=78, velocity=0, time=0),
    Message('note_on', channel=7, note=71, velocity=96, time=1),
    Message('note_on', channel=7, note=78, velocity=96, time=0),
    Message('note_on', channel=7, note=71, velocity=0, time=58),
    Message('note_on', channel=7, note=78, velocity=0, time=0),
    Message('note_on', channel=7, note=71, velocity=96, time=2),
    Message('note_on', channel=7, note=78, velocity=96, time=0),
    Message('note_on', channel=7, note=71, velocity=0, time=58),
    Message('note_on', channel=7, note=78, velocity=0, time=0),
    Message('note_on', channel=7, note=71, velocity=96, time=1),
    Message('note_on', channel=7, note=78, velocity=96, time=0),
    Message('note_on', channel=7, note=71, velocity=0, time=58),
    Message('note_on', channel=7, note=78, velocity=0, time=0),
    Message('note_on', channel=7, note=71, velocity=96, time=2),
    Message('note_on', channel=7, note=78, velocity=96, time=0),
    Message('note_on', channel=7, note=71, velocity=0, time=58),
    Message('note_on', channel=7, note=78, velocity=0, time=0),
    Message('note_on', channel=7, note=71, velocity=96, time=1),
    Message('note_on', channel=7, note=78, velocity=96, time=0),
    Message('note_on', channel=7, note=71, velocity=0, time=58),
    Message('note_on', channel=7, note=78, velocity=0, time=0),
    Message('note_on', channel=7, note=71, velocity=96, time=2),
    Message('note_on', channel=7, note=78, velocity=96, time=0),
    Message('note_on', channel=7, note=71, velocity=0, time=58),
    Message('note_on', channel=7, note=78, velocity=0, time=0),
    Message('note_on', channel=7, note=71, velocity=96, time=1),
    Message('note_on', channel=7, note=78, velocity=96, time=0),
    Message('note_on', channel=7, note=71, velocity=0, time=58),
    Message('note_on', channel=7, note=78, velocity=0, time=0),
    Message('note_on', channel=7, note=71, velocity=96, time=2),
    Message('note_on', channel=7, note=78, velocity=96, time=0),
    Message('note_on', channel=7, note=71, velocity=0, time=58),
    Message('note_on', channel=7, note=78, velocity=0, time=0),
    Message('note_on', channel=7, note=71, velocity=96, time=1),
    Message('note_on', channel=7, note=78, velocity=96, time=0),
    Message('note_on', channel=7, note=71, velocity=0, time=58),
    Message('note_on', channel=7, note=78, velocity=0, time=0),
    Message('note_on', channel=7, note=71, velocity=96, time=2),
    Message('note_on', channel=7, note=78, velocity=96, time=0),
    Message('note_on', channel=7, note=71, velocity=0, time=58),
    Message('note_on', channel=7, note=78, velocity=0, time=0),
    Message('note_on', channel=7, note=71, velocity=96, time=1),
    Message('note_on', channel=7, note=78, velocity=96, time=0),
    Message('note_on', channel=7, note=71, velocity=0, time=58),
    Message('note_on', channel=7, note=78, velocity=0, time=0),
    Message('note_on', channel=7, note=71, velocity=96, time=2),
    Message('note_on', channel=7, note=78, velocity=96, time=0),
    Message('note_on', channel=7, note=71, velocity=0, time=58),
    Message('note_on', channel=7, note=78, velocity=0, time=0),
    Message('note_on', channel=7, note=71, velocity=96, time=1),
    Message('note_on', channel=7, note=78, velocity=96, time=0),
    Message('note_on', channel=7, note=71, velocity=0, time=58),
    Message('note_on', channel=7, note=78, velocity=0, time=0),
    Message('note_on', channel=7, note=71, velocity=96, time=2),
    Message('note_on', channel=7, note=78, velocity=96, time=0),
    Message('note_on', channel=7, note=71, velocity=0, time=58),
    Message('note_on', channel=7, note=78, velocity=0, time=0),
    Message('note_on', channel=7, note=71, velocity=96, time=1),
    Message('note_on', channel=7, note=78, velocity=96, time=0),
    Message('note_on', channel=7, note=71, velocity=0, time=58),
    Message('note_on', channel=7, note=78, velocity=0, time=0),
    Message('note_on', channel=7, note=71, velocity=96, time=10),
    Message('control_change', channel=7, control=2, value=96, time=0),
    Message('note_on', channel=7, note=79, velocity=96, time=0),
    Message('note_on', channel=7, note=71, velocity=0, time=58),
    Message('note_on', channel=7, note=79, velocity=0, time=0),
    Message('note_on', channel=7, note=71, velocity=96, time=1),
    Message('note_on', channel=7, note=79, velocity=96, time=0),
    Message('note_on', channel=7, note=71, velocity=0, time=58),
    Message('note_on', channel=7, note=79, velocity=0, time=0),
    Message('note_on', channel=7, note=71, velocity=96, time=2),
    Message('note_on', channel=7, note=79, velocity=96, time=0),
    Message('note_on', channel=7, note=71, velocity=0, time=58),
    Message('note_on', channel=7, note=79, velocity=0, time=0),
    Message('note_on', channel=7, note=71, velocity=96, time=1),
    Message('note_on', channel=7, note=79, velocity=96, time=0),
    Message('note_on', channel=7, note=71, velocity=0, time=58),
    Message('note_on', channel=7, note=79, velocity=0, time=0),
    Message('note_on', channel=7, note=71, velocity=96, time=2),
    Message('note_on', channel=7, note=79, velocity=96, time=0),
    Message('note_on', channel=7, note=71, velocity=0, time=58),
    Message('note_on', channel=7, note=79, velocity=0, time=0),
    Message('note_on', channel=7, note=71, velocity=96, time=1),
    Message('note_on', channel=7, note=79, velocity=96, time=0),
    Message('note_on', channel=7, note=71, velocity=0, time=58),
    Message('note_on', channel=7, note=79, velocity=0, time=0),
    Message('note_on', channel=7, note=71, velocity=96, time=2),
    Message('note_on', channel=7, note=79, velocity=96, time=0),
    Message('note_on', channel=7, note=71, velocity=0, time=58),
    Message('note_on', channel=7, note=79, velocity=0, time=0),
    Message('note_on', channel=7, note=71, velocity=96, time=1),
    Message('note_on', channel=7, note=79, velocity=96, time=0),
    Message('note_on', channel=7, note=71, velocity=0, time=58),
    Message('note_on', channel=7, note=79, velocity=0, time=0),
    Message('note_on', channel=7, note=71, velocity=96, time=2),
    Message('note_on', channel=7, note=79, velocity=96, time=0),
    Message('note_on', channel=7, note=71, velocity=0, time=58),
    Message('note_on', channel=7, note=79, velocity=0, time=0),
    Message('note_on', channel=7, note=71, velocity=96, time=1),
    Message('note_on', channel=7, note=79, velocity=96, time=0),
    Message('note_on', channel=7, note=71, velocity=0, time=58),
    Message('note_on', channel=7, note=79, velocity=0, time=0),
    Message('note_on', channel=7, note=71, velocity=96, time=2),
    Message('note_on', channel=7, note=79, velocity=96, time=0),
    Message('note_on', channel=7, note=71, velocity=0, time=58),
    Message('note_on', channel=7, note=79, velocity=0, time=0),
    Message('note_on', channel=7, note=71, velocity=96, time=1),
    Message('note_on', channel=7, note=79, velocity=96, time=0),
    Message('note_on', channel=7, note=71, velocity=0, time=58),
    Message('note_on', channel=7, note=79, velocity=0, time=0),
    Message('note_on', channel=7, note=71, velocity=96, time=2),
    Message('note_on', channel=7, note=79, velocity=96, time=0),
    Message('note_on', channel=7, note=71, velocity=0, time=58),
    Message('note_on', channel=7, note=79, velocity=0, time=0),
    Message('note_on', channel=7, note=71, velocity=96, time=1),
    Message('note_on', channel=7, note=79, velocity=96, time=0),
    Message('note_on', channel=7, note=71, velocity=0, time=58),
    Message('note_on', channel=7, note=79, velocity=0, time=0),
    Message('note_on', channel=7, note=71, velocity=96, time=2),
    Message('note_on', channel=7, note=79, velocity=96, time=0),
    Message('note_on', channel=7, note=71, velocity=0, time=58),
    Message('note_on', channel=7, note=79, velocity=0, time=0),
    Message('note_on', channel=7, note=71, velocity=96, time=1),
    Message('note_on', channel=7, note=79, velocity=96, time=0),
    Message('note_on', channel=7, note=71, velocity=0, time=58),
    Message('note_on', channel=7, note=79, velocity=0, time=0),
    Message('note_on', channel=7, note=71, velocity=96, time=10),
    Message('control_change', channel=7, control=2, value=96, time=0),
    Message('note_on', channel=7, note=78, velocity=96, time=0),
    Message('note_on', channel=7, note=71, velocity=0, time=58),
    Message('note_on', channel=7, note=78, velocity=0, time=0),
    Message('note_on', channel=7, note=71, velocity=96, time=1),
    Message('note_on', channel=7, note=78, velocity=96, time=0),
    Message('note_on', channel=7, note=71, velocity=0, time=58),
    Message('note_on', channel=7, note=78, velocity=0, time=0),
    Message('note_on', channel=7, note=71, velocity=96, time=2),
    Message('note_on', channel=7, note=78, velocity=96, time=0),
    Message('note_on', channel=7, note=71, velocity=0, time=58),
    Message('note_on', channel=7, note=78, velocity=0, time=0),
    Message('note_on', channel=7, note=71, velocity=96, time=1),
    Message('note_on', channel=7, note=78, velocity=96, time=0),
    Message('note_on', channel=7, note=71, velocity=0, time=58),
    Message('note_on', channel=7, note=78, velocity=0, time=0),
    Message('note_on', channel=7, note=71, velocity=96, time=2),
    Message('note_on', channel=7, note=78, velocity=96, time=0),
    Message('note_on', channel=7, note=71, velocity=0, time=58),
    Message('note_on', channel=7, note=78, velocity=0, time=0),
    Message('note_on', channel=7, note=71, velocity=96, time=1),
    Message('note_on', channel=7, note=78, velocity=96, time=0),
    Message('note_on', channel=7, note=71, velocity=0, time=58),
    Message('note_on', channel=7, note=78, velocity=0, time=0),
    Message('note_on', channel=7, note=71, velocity=96, time=2),
    Message('note_on', channel=7, note=78, velocity=96, time=0),
    Message('note_on', channel=7, note=71, velocity=0, time=58),
    Message('note_on', channel=7, note=78, velocity=0, time=0),
    Message('note_on', channel=7, note=71, velocity=96, time=1),
    Message('note_on', channel=7, note=78, velocity=96, time=0),
    Message('note_on', channel=7, note=71, velocity=0, time=58),
    Message('note_on', channel=7, note=78, velocity=0, time=0),
    Message('note_on', channel=7, note=71, velocity=96, time=2),
    Message('note_on', channel=7, note=78, velocity=96, time=0),
    Message('note_on', channel=7, note=71, velocity=0, time=58),
    Message('note_on', channel=7, note=78, velocity=0, time=0),
    Message('note_on', channel=7, note=71, velocity=96, time=1),
    Message('note_on', channel=7, note=78, velocity=96, time=0),
    Message('note_on', channel=7, note=71, velocity=0, time=58),
    Message('note_on', channel=7, note=78, velocity=0, time=0),
    Message('note_on', channel=7, note=71, velocity=96, time=2),
    Message('note_on', channel=7, note=78, velocity=96, time=0),
    Message('note_on', channel=7, note=71, velocity=0, time=58),
    Message('note_on', channel=7, note=78, velocity=0, time=0),
    Message('note_on', channel=7, note=71, velocity=96, time=1),
    Message('note_on', channel=7, note=78, velocity=96, time=0),
    Message('note_on', channel=7, note=71, velocity=0, time=58),
    Message('note_on', channel=7, note=78, velocity=0, time=0),
    Message('note_on', channel=7, note=71, velocity=96, time=2),
    Message('note_on', channel=7, note=78, velocity=96, time=0),
    Message('note_on', channel=7, note=71, velocity=0, time=58),
    Message('note_on', channel=7, note=78, velocity=0, time=0),
    Message('note_on', channel=7, note=71, velocity=96, time=1),
    Message('note_on', channel=7, note=78, velocity=96, time=0),
    Message('note_on', channel=7, note=71, velocity=0, time=58),
    Message('note_on', channel=7, note=78, velocity=0, time=0),
    Message('note_on', channel=7, note=71, velocity=96, time=2),
    Message('note_on', channel=7, note=78, velocity=96, time=0),
    Message('note_on', channel=7, note=71, velocity=0, time=58),
    Message('note_on', channel=7, note=78, velocity=0, time=0),
    Message('note_on', channel=7, note=71, velocity=96, time=1),
    Message('note_on', channel=7, note=78, velocity=96, time=0),
    Message('note_on', channel=7, note=71, velocity=0, time=58),
    Message('note_on', channel=7, note=78, velocity=0, time=0),
    Message('note_on', channel=7, note=71, velocity=96, time=2),
    Message('note_on', channel=7, note=78, velocity=96, time=0),
    Message('note_on', channel=7, note=71, velocity=0, time=58),
    Message('note_on', channel=7, note=78, velocity=0, time=0),
    Message('note_on', channel=7, note=71, velocity=96, time=1),
    Message('note_on', channel=7, note=78, velocity=96, time=0),
    Message('note_on', channel=7, note=71, velocity=0, time=58),
    Message('note_on', channel=7, note=78, velocity=0, time=0),
    Message('note_on', channel=7, note=71, velocity=96, time=2),
    Message('note_on', channel=7, note=78, velocity=96, time=0),
    Message('note_on', channel=7, note=71, velocity=0, time=58),
    Message('note_on', channel=7, note=78, velocity=0, time=0),
    Message('note_on', channel=7, note=71, velocity=96, time=1),
    Message('note_on', channel=7, note=78, velocity=96, time=0),
    Message('note_on', channel=7, note=71, velocity=0, time=58),
    Message('note_on', channel=7, note=78, velocity=0, time=0),
    Message('note_on', channel=7, note=71, velocity=96, time=2),
    Message('note_on', channel=7, note=78, velocity=96, time=0),
    Message('note_on', channel=7, note=71, velocity=0, time=58),
    Message('note_on', channel=7, note=78, velocity=0, time=0),
    Message('note_on', channel=7, note=71, velocity=96, time=1),
    Message('note_on', channel=7, note=78, velocity=96, time=0),
    Message('note_on', channel=7, note=71, velocity=0, time=58),
    Message('note_on', channel=7, note=78, velocity=0, time=0),
    Message('note_on', channel=7, note=71, velocity=96, time=2),
    Message('note_on', channel=7, note=78, velocity=96, time=0),
    Message('note_on', channel=7, note=71, velocity=0, time=58),
    Message('note_on', channel=7, note=78, velocity=0, time=0),
    Message('note_on', channel=7, note=71, velocity=96, time=1),
    Message('note_on', channel=7, note=78, velocity=96, time=0),
    Message('note_on', channel=7, note=71, velocity=0, time=58),
    Message('note_on', channel=7, note=78, velocity=0, time=0),
    Message('note_on', channel=7, note=71, velocity=96, time=2),
    Message('note_on', channel=7, note=78, velocity=96, time=0),
    Message('note_on', channel=7, note=71, velocity=0, time=58),
    Message('note_on', channel=7, note=78, velocity=0, time=0),
    Message('note_on', channel=7, note=71, velocity=96, time=2),
    Message('note_on', channel=7, note=78, velocity=96, time=0),
    Message('note_on', channel=7, note=71, velocity=0, time=58),
    Message('note_on', channel=7, note=78, velocity=0, time=0),
    Message('note_on', channel=7, note=71, velocity=96, time=1),
    Message('note_on', channel=7, note=78, velocity=96, time=0),
    Message('note_on', channel=7, note=71, velocity=0, time=58),
    Message('note_on', channel=7, note=78, velocity=0, time=0),
    Message('note_on', channel=7, note=71, velocity=96, time=2),
    Message('note_on', channel=7, note=78, velocity=96, time=0),
    Message('note_on', channel=7, note=71, velocity=0, time=58),
    Message('note_on', channel=7, note=78, velocity=0, time=0),
    Message('note_on', channel=7, note=71, velocity=96, time=1),
    Message('note_on', channel=7, note=78, velocity=96, time=0),
    Message('note_on', channel=7, note=71, velocity=0, time=58),
    Message('note_on', channel=7, note=78, velocity=0, time=0),
    Message('note_on', channel=7, note=71, velocity=96, time=2),
    Message('note_on', channel=7, note=78, velocity=96, time=0),
    Message('note_on', channel=7, note=71, velocity=0, time=58),
    Message('note_on', channel=7, note=78, velocity=0, time=0),
    Message('note_on', channel=7, note=71, velocity=96, time=1),
    Message('note_on', channel=7, note=78, velocity=96, time=0),
    Message('note_on', channel=7, note=71, velocity=0, time=58),
    Message('note_on', channel=7, note=78, velocity=0, time=0),
    Message('note_on', channel=7, note=71, velocity=96, time=2),
    Message('note_on', channel=7, note=78, velocity=96, time=0),
    Message('note_on', channel=7, note=71, velocity=0, time=58),
    Message('note_on', channel=7, note=78, velocity=0, time=0),
    Message('note_on', channel=7, note=71, velocity=96, time=17),
    Message('control_change', channel=7, control=2, value=96, time=0),
    Message('note_on', channel=7, note=78, velocity=96, time=0),
    Message('note_on', channel=7, note=71, velocity=0, time=58),
    Message('note_on', channel=7, note=78, velocity=0, time=0),
    Message('note_on', channel=7, note=71, velocity=96, time=1),
    Message('note_on', channel=7, note=78, velocity=96, time=0),
    Message('note_on', channel=7, note=71, velocity=0, time=58),
    Message('note_on', channel=7, note=78, velocity=0, time=0),
    Message('note_on', channel=7, note=71, velocity=96, time=2),
    Message('note_on', channel=7, note=78, velocity=96, time=0),
    Message('note_on', channel=7, note=71, velocity=0, time=58),
    Message('note_on', channel=7, note=78, velocity=0, time=0),
    Message('note_on', channel=7, note=71, velocity=96, time=1),
    Message('note_on', channel=7, note=78, velocity=96, time=0),
    Message('note_on', channel=7, note=71, velocity=0, time=58),
    Message('note_on', channel=7, note=78, velocity=0, time=0),
    Message('note_on', channel=7, note=71, velocity=96, time=2),
    Message('note_on', channel=7, note=78, velocity=96, time=0),
    Message('note_on', channel=7, note=71, velocity=0, time=58),
    Message('note_on', channel=7, note=78, velocity=0, time=0),
    Message('note_on', channel=7, note=71, velocity=96, time=1),
    Message('note_on', channel=7, note=78, velocity=96, time=0),
    Message('note_on', channel=7, note=71, velocity=0, time=58),
    Message('note_on', channel=7, note=78, velocity=0, time=0),
    Message('note_on', channel=7, note=71, velocity=96, time=2),
    Message('note_on', channel=7, note=78, velocity=96, time=0),
    Message('note_on', channel=7, note=71, velocity=0, time=58),
    Message('note_on', channel=7, note=78, velocity=0, time=0),
    Message('note_on', channel=7, note=71, velocity=96, time=1),
    Message('note_on', channel=7, note=78, velocity=96, time=0),
    Message('note_on', channel=7, note=71, velocity=0, time=58),
    Message('note_on', channel=7, note=78, velocity=0, time=0),
    Message('note_on', channel=7, note=71, velocity=96, time=2),
    Message('note_on', channel=7, note=78, velocity=96, time=0),
    Message('note_on', channel=7, note=71, velocity=0, time=58),
    Message('note_on', channel=7, note=78, velocity=0, time=0),
    Message('note_on', channel=7, note=71, velocity=96, time=1),
    Message('note_on', channel=7, note=78, velocity=96, time=0),
    Message('note_on', channel=7, note=71, velocity=0, time=58),
    Message('note_on', channel=7, note=78, velocity=0, time=0),
    Message('note_on', channel=7, note=71, velocity=96, time=2),
    Message('note_on', channel=7, note=78, velocity=96, time=0),
    Message('note_on', channel=7, note=71, velocity=0, time=58),
    Message('note_on', channel=7, note=78, velocity=0, time=0),
    Message('note_on', channel=7, note=71, velocity=96, time=1),
    Message('note_on', channel=7, note=78, velocity=96, time=0),
    Message('note_on', channel=7, note=71, velocity=0, time=58),
    Message('note_on', channel=7, note=78, velocity=0, time=0),
    Message('note_on', channel=7, note=71, velocity=96, time=2),
    Message('note_on', channel=7, note=78, velocity=96, time=0),
    Message('note_on', channel=7, note=71, velocity=0, time=58),
    Message('note_on', channel=7, note=78, velocity=0, time=0),
    Message('note_on', channel=7, note=71, velocity=96, time=1),
    Message('note_on', channel=7, note=78, velocity=96, time=0),
    Message('note_on', channel=7, note=71, velocity=0, time=58),
    Message('note_on', channel=7, note=78, velocity=0, time=0),
    Message('note_on', channel=7, note=71, velocity=96, time=2),
    Message('note_on', channel=7, note=78, velocity=96, time=0),
    Message('note_on', channel=7, note=71, velocity=0, time=58),
    Message('note_on', channel=7, note=78, velocity=0, time=0),
    Message('note_on', channel=7, note=71, velocity=96, time=1),
    Message('note_on', channel=7, note=78, velocity=96, time=0),
    Message('note_on', channel=7, note=71, velocity=0, time=58),
    Message('note_on', channel=7, note=78, velocity=0, time=0),
    Message('note_on', channel=7, note=67, velocity=96, time=10),
    Message('control_change', channel=7, control=2, value=96, time=0),
    Message('note_on', channel=7, note=74, velocity=96, time=0),
    Message('note_on', channel=7, note=67, velocity=0, time=59),
    Message('note_on', channel=7, note=74, velocity=0, time=0),
    Message('note_on', channel=7, note=67, velocity=96, time=1),
    Message('note_on', channel=7, note=74, velocity=96, time=0),
    Message('note_on', channel=7, note=67, velocity=0, time=59),
    Message('note_on', channel=7, note=74, velocity=0, time=0),
    Message('note_on', channel=7, note=67, velocity=96, time=1),
    Message('note_on', channel=7, note=74, velocity=96, time=0),
    Message('note_on', channel=7, note=67, velocity=0, time=59),
    Message('note_on', channel=7, note=74, velocity=0, time=0),
    Message('note_on', channel=7, note=67, velocity=96, time=1),
    Message('note_on', channel=7, note=74, velocity=96, time=0),
    Message('note_on', channel=7, note=67, velocity=0, time=59),
    Message('note_on', channel=7, note=74, velocity=0, time=0),
    Message('note_on', channel=7, note=67, velocity=96, time=1),
    Message('note_on', channel=7, note=74, velocity=96, time=0),
    Message('note_on', channel=7, note=67, velocity=0, time=59),
    Message('note_on', channel=7, note=74, velocity=0, time=0),
    Message('note_on', channel=7, note=67, velocity=96, time=1),
    Message('note_on', channel=7, note=74, velocity=96, time=0),
    Message('note_on', channel=7, note=67, velocity=0, time=59),
    Message('note_on', channel=7, note=74, velocity=0, time=0),
    Message('note_on', channel=7, note=67, velocity=96, time=1),
    Message('note_on', channel=7, note=74, velocity=96, time=0),
    Message('note_on', channel=7, note=67, velocity=0, time=59),
    Message('note_on', channel=7, note=74, velocity=0, time=0),
    Message('note_on', channel=7, note=67, velocity=96, time=1),
    Message('note_on', channel=7, note=74, velocity=96, time=0),
    Message('note_on', channel=7, note=67, velocity=0, time=59),
    Message('note_on', channel=7, note=74, velocity=0, time=0),
    Message('note_on', channel=7, note=70, velocity=96, time=1),
    Message('control_change', channel=7, control=2, value=96, time=0),
    Message('note_on', channel=7, note=76, velocity=96, time=0),
    Message('note_on', channel=7, note=70, velocity=0, time=59),
    Message('note_on', channel=7, note=76, velocity=0, time=0),
    Message('note_on', channel=7, note=70, velocity=96, time=1),
    Message('note_on', channel=7, note=76, velocity=96, time=0),
    Message('note_on', channel=7, note=70, velocity=0, time=59),
    Message('note_on', channel=7, note=76, velocity=0, time=0),
    Message('note_on', channel=7, note=70, velocity=96, time=1),
    Message('note_on', channel=7, note=76, velocity=96, time=0),
    Message('note_on', channel=7, note=70, velocity=0, time=59),
    Message('note_on', channel=7, note=76, velocity=0, time=0),
    Message('note_on', channel=7, note=70, velocity=96, time=1),
    Message('note_on', channel=7, note=76, velocity=96, time=0),
    Message('note_on', channel=7, note=70, velocity=0, time=59),
    Message('note_on', channel=7, note=76, velocity=0, time=0),
    Message('note_on', channel=7, note=70, velocity=96, time=1),
    Message('note_on', channel=7, note=76, velocity=96, time=0),
    Message('note_on', channel=7, note=70, velocity=0, time=59),
    Message('note_on', channel=7, note=76, velocity=0, time=0),
    Message('note_on', channel=7, note=70, velocity=96, time=1),
    Message('note_on', channel=7, note=76, velocity=96, time=0),
    Message('note_on', channel=7, note=70, velocity=0, time=59),
    Message('note_on', channel=7, note=76, velocity=0, time=0),
    Message('note_on', channel=7, note=70, velocity=96, time=1),
    Message('note_on', channel=7, note=76, velocity=96, time=0),
    Message('note_on', channel=7, note=70, velocity=0, time=59),
    Message('note_on', channel=7, note=76, velocity=0, time=0),
    Message('note_on', channel=7, note=70, velocity=96, time=1),
    Message('note_on', channel=7, note=76, velocity=96, time=0),
    Message('note_on', channel=7, note=70, velocity=0, time=59),
    Message('note_on', channel=7, note=76, velocity=0, time=0),
    Message('note_on', channel=7, note=71, velocity=96, time=1),
    Message('control_change', channel=7, control=2, value=96, time=0),
    Message('note_on', channel=7, note=74, velocity=96, time=0),
    Message('note_on', channel=7, note=71, velocity=0, time=239),
    Message('note_on', channel=7, note=74, velocity=0, time=0),
    Message('note_on', channel=7, note=59, velocity=96, time=1201),
    Message('control_change', channel=7, control=2, value=96, time=0),
    Message('note_on', channel=7, note=59, velocity=0, time=479),
    Message('note_on', channel=7, note=61, velocity=96, time=1),
    Message('control_change', channel=7, control=2, value=96, time=0),
    Message('note_on', channel=7, note=61, velocity=0, time=479),
    Message('note_on', channel=7, note=62, velocity=96, time=1),
    Message('control_change', channel=7, control=2, value=96, time=0),
    Message('note_on', channel=7, note=62, velocity=0, time=479),
    Message('note_on', channel=7, note=64, velocity=96, time=1),
    Message('control_change', channel=7, control=2, value=96, time=0),
    Message('note_on', channel=7, note=64, velocity=0, time=479),
    Message('note_on', channel=7, note=66, velocity=96, time=1),
    Message('control_change', channel=7, control=2, value=96, time=0),
    Message('note_on', channel=7, note=66, velocity=0, time=239),
    Message('note_on', channel=7, note=67, velocity=96, time=1),
    Message('control_change', channel=7, control=2, value=96, time=0),
    Message('note_on', channel=7, note=67, velocity=0, time=239),
    Message('note_on', channel=7, note=69, velocity=96, time=1),
    Message('control_change', channel=7, control=2, value=96, time=0),
    Message('note_on', channel=7, note=69, velocity=0, time=719),
    Message('note_on', channel=7, note=67, velocity=96, time=1),
    Message('control_change', channel=7, control=2, value=96, time=0),
    Message('note_on', channel=7, note=67, velocity=0, time=239),
    Message('note_on', channel=7, note=66, velocity=96, time=1),
    Message('control_change', channel=7, control=2, value=96, time=0),
    Message('note_on', channel=7, note=66, velocity=0, time=479),
    Message('note_on', channel=7, note=67, velocity=96, time=1),
    Message('control_change', channel=7, control=2, value=96, time=0),
    Message('note_on', channel=7, note=67, velocity=0, time=239),
    Message('note_on', channel=7, note=69, velocity=96, time=1),
    Message('control_change', channel=7, control=2, value=96, time=0),
    Message('note_on', channel=7, note=69, velocity=0, time=239),
    Message('note_on', channel=7, note=71, velocity=96, time=1),
    Message('control_change', channel=7, control=2, value=96, time=0),
    Message('note_on', channel=7, note=71, velocity=0, time=719),
    Message('note_on', channel=7, note=69, velocity=96, time=1),
    Message('control_change', channel=7, control=2, value=96, time=0),
    Message('note_on', channel=7, note=69, velocity=0, time=239),
    Message('note_on', channel=7, note=67, velocity=96, time=1),
    Message('control_change', channel=7, control=2, value=96, time=0),
    Message('note_on', channel=7, note=67, velocity=0, time=479),
    Message('note_on', channel=7, note=69, velocity=96, time=1),
    Message('control_change', channel=7, control=2, value=96, time=0),
    Message('note_on', channel=7, note=69, velocity=0, time=239),
    Message('note_on', channel=7, note=71, velocity=96, time=1),
    Message('control_change', channel=7, control=2, value=96, time=0),
    Message('note_on', channel=7, note=71, velocity=0, time=239),
    Message('note_on', channel=7, note=73, velocity=96, time=1),
    Message('control_change', channel=7, control=2, value=96, time=0),
    Message('note_on', channel=7, note=73, velocity=0, time=719),
    Message('note_on', channel=7, note=71, velocity=96, time=1),
    Message('control_change', channel=7, control=2, value=96, time=0),
    Message('note_on', channel=7, note=71, velocity=0, time=239),
    Message('note_on', channel=7, note=66, velocity=96, time=1),
    Message('control_change', channel=7, control=2, value=96, time=0),
    Message('note_on', channel=7, note=66, velocity=0, time=239),
    Message('note_on', channel=7, note=62, velocity=96, time=1),
    Message('control_change', channel=7, control=2, value=96, time=0),
    Message('note_on', channel=7, note=62, velocity=0, time=239),
    Message('note_on', channel=7, note=61, velocity=96, time=1),
    Message('control_change', channel=7, control=2, value=96, time=0),
    Message('note_on', channel=7, note=61, velocity=0, time=239),
    Message('note_on', channel=7, note=59, velocity=96, time=1),
    Message('control_change', channel=7, control=2, value=96, time=0),
    Message('note_on', channel=7, note=59, velocity=0, time=239),
    Message('note_on', channel=7, note=61, velocity=96, time=1),
    Message('control_change', channel=7, control=2, value=96, time=0),
    Message('note_on', channel=7, note=61, velocity=0, time=479),
    Message('note_on', channel=7, note=62, velocity=96, time=1),
    Message('control_change', channel=7, control=2, value=96, time=0),
    Message('note_on', channel=7, note=62, velocity=0, time=479),
    Message('note_on', channel=7, note=64, velocity=96, time=1),
    Message('control_change', channel=7, control=2, value=96, time=0),
    Message('note_on', channel=7, note=64, velocity=0, time=479),
    Message('note_on', channel=7, note=66, velocity=96, time=1),
    Message('control_change', channel=7, control=2, value=96, time=0),
    Message('note_on', channel=7, note=66, velocity=0, time=239),
    Message('note_on', channel=7, note=67, velocity=96, time=1),
    Message('control_change', channel=7, control=2, value=96, time=0),
    Message('note_on', channel=7, note=67, velocity=0, time=239),
    Message('note_on', channel=7, note=69, velocity=96, time=1),
    Message('control_change', channel=7, control=2, value=96, time=0),
    Message('note_on', channel=7, note=69, velocity=0, time=719),
    Message('note_on', channel=7, note=67, velocity=96, time=1),
    Message('control_change', channel=7, control=2, value=96, time=0),
    Message('note_on', channel=7, note=67, velocity=0, time=239),
    Message('note_on', channel=7, note=66, velocity=96, time=1),
    Message('control_change', channel=7, control=2, value=96, time=0),
    Message('note_on', channel=7, note=66, velocity=0, time=479),
    Message('note_on', channel=7, note=67, velocity=96, time=1),
    Message('control_change', channel=7, control=2, value=96, time=0),
    Message('note_on', channel=7, note=67, velocity=0, time=239),
    Message('note_on', channel=7, note=69, velocity=96, time=1),
    Message('control_change', channel=7, control=2, value=96, time=0),
    Message('note_on', channel=7, note=69, velocity=0, time=239),
    Message('note_on', channel=7, note=71, velocity=96, time=1),
    Message('control_change', channel=7, control=2, value=96, time=0),
    Message('note_on', channel=7, note=71, velocity=0, time=719),
    Message('note_on', channel=7, note=69, velocity=96, time=1),
    Message('control_change', channel=7, control=2, value=96, time=0),
    Message('note_on', channel=7, note=69, velocity=0, time=239),
    Message('note_on', channel=7, note=67, velocity=96, time=1),
    Message('control_change', channel=7, control=2, value=96, time=0),
    Message('note_on', channel=7, note=67, velocity=0, time=479),
    Message('note_on', channel=7, note=69, velocity=96, time=1),
    Message('control_change', channel=7, control=2, value=96, time=0),
    Message('note_on', channel=7, note=69, velocity=0, time=239),
    Message('note_on', channel=7, note=71, velocity=96, time=1),
    Message('control_change', channel=7, control=2, value=96, time=0),
    Message('note_on', channel=7, note=71, velocity=0, time=239),
    Message('note_on', channel=7, note=72, velocity=96, time=1),
    Message('control_change', channel=7, control=2, value=96, time=0),
    Message('note_on', channel=7, note=72, velocity=0, time=319),
    Message('note_on', channel=7, note=67, velocity=96, time=1),
    Message('control_change', channel=7, control=2, value=96, time=0),
    Message('note_on', channel=7, note=67, velocity=0, time=319),
    Message('note_on', channel=7, note=72, velocity=96, time=1),
    Message('control_change', channel=7, control=2, value=96, time=0),
    Message('note_on', channel=7, note=72, velocity=0, time=319),
    Message('note_on', channel=7, note=71, velocity=96, time=1),
    Message('control_change', channel=7, control=2, value=96, time=0),
    Message('note_on', channel=7, note=71, velocity=0, time=639),
    Message('note_on', channel=7, note=71, velocity=96, time=1),
    Message('control_change', channel=7, control=2, value=96, time=0),
    Message('note_on', channel=7, note=71, velocity=0, time=319),
    Message('note_on', channel=7, note=70, velocity=96, time=1),
    Message('control_change', channel=7, control=2, value=96, time=0),
    Message('note_on', channel=7, note=70, velocity=0, time=319),
    Message('note_on', channel=7, note=66, velocity=96, time=1),
    Message('control_change', channel=7, control=2, value=96, time=0),
    Message('note_on', channel=7, note=66, velocity=0, time=319),
    Message('note_on', channel=7, note=70, velocity=96, time=1),
    Message('control_change', channel=7, control=2, value=96, time=0),
    Message('note_on', channel=7, note=70, velocity=0, time=319),
    Message('note_on', channel=7, note=71, velocity=96, time=1),
    Message('control_change', channel=7, control=2, value=96, time=0),
    Message('note_on', channel=7, note=71, velocity=0, time=639),
    Message('note_on', channel=7, note=71, velocity=96, time=1),
    Message('control_change', channel=7, control=2, value=96, time=0),
    Message('note_on', channel=7, note=71, velocity=0, time=319),
    Message('note_on', channel=7, note=72, velocity=96, time=1),
    Message('control_change', channel=7, control=2, value=96, time=0),
    Message('note_on', channel=7, note=72, velocity=0, time=319),
    Message('note_on', channel=7, note=67, velocity=96, time=1),
    Message('control_change', channel=7, control=2, value=96, time=0),
    Message('note_on', channel=7, note=67, velocity=0, time=319),
    Message('note_on', channel=7, note=72, velocity=96, time=1),
    Message('control_change', channel=7, control=2, value=96, time=0),
    Message('note_on', channel=7, note=72, velocity=0, time=319),
    Message('note_on', channel=7, note=71, velocity=96, time=1),
    Message('control_change', channel=7, control=2, value=96, time=0),
    Message('note_on', channel=7, note=71, velocity=0, time=639),
    Message('note_on', channel=7, note=71, velocity=96, time=1),
    Message('control_change', channel=7, control=2, value=96, time=0),
    Message('note_on', channel=7, note=71, velocity=0, time=319),
    Message('note_on', channel=7, note=70, velocity=96, time=1),
    Message('control_change', channel=7, control=2, value=96, time=0),
    Message('note_on', channel=7, note=70, velocity=0, time=319),
    Message('note_on', channel=7, note=66, velocity=96, time=1),
    Message('control_change', channel=7, control=2, value=96, time=0),
    Message('note_on', channel=7, note=66, velocity=0, time=319),
    Message('note_on', channel=7, note=70, velocity=96, time=1),
    Message('control_change', channel=7, control=2, value=96, time=0),
    Message('note_on', channel=7, note=70, velocity=0, time=319),
    Message('note_on', channel=7, note=71, velocity=96, time=1),
    Message('control_change', channel=7, control=2, value=96, time=0),
    Message('note_on', channel=7, note=71, velocity=0, time=639),
    Message('note_on', channel=7, note=71, velocity=96, time=1),
    Message('control_change', channel=7, control=2, value=96, time=0),
    Message('note_on', channel=7, note=71, velocity=0, time=319),
    Message('control_change', channel=7, control=2, value=96, time=1),
    Message('note_on', channel=7, note=72, velocity=96, time=0),
    Message('note_on', channel=7, note=72, velocity=0, time=159),
    Message('note_on', channel=7, note=72, velocity=96, time=1),
    Message('note_on', channel=7, note=72, velocity=0, time=159),
    Message('note_on', channel=7, note=67, velocity=96, time=1),
    Message('control_change', channel=7, control=2, value=96, time=0),
    Message('note_on', channel=7, note=67, velocity=0, time=159),
    Message('control_change', channel=7, control=2, value=97, time=1),
    Message('note_on', channel=7, note=67, velocity=97, time=0),
    Message('note_on', channel=7, note=67, velocity=0, time=159),
    Message('note_on', channel=7, note=72, velocity=97, time=1),
    Message('control_change', channel=7, control=2, value=97, time=0),
    Message('note_on', channel=7, note=72, velocity=0, time=159),
    Message('note_on', channel=7, note=72, velocity=97, time=1),
    Message('note_on', channel=7, note=72, velocity=0, time=159),
    Message('control_change', channel=7, control=2, value=98, time=1),
    Message('note_on', channel=7, note=72, velocity=98, time=0),
    Message('note_on', channel=7, note=72, velocity=0, time=159),
    Message('note_on', channel=7, note=72, velocity=98, time=1),
    Message('note_on', channel=7, note=72, velocity=0, time=159),
    Message('note_on', channel=7, note=67, velocity=98, time=1),
    Message('control_change', channel=7, control=2, value=98, time=0),
    Message('note_on', channel=7, note=67, velocity=0, time=159),
    Message('control_change', channel=7, control=2, value=99, time=1),
    Message('note_on', channel=7, note=67, velocity=99, time=0),
    Message('note_on', channel=7, note=67, velocity=0, time=159),
    Message('note_on', channel=7, note=72, velocity=99, time=1),
    Message('control_change', channel=7, control=2, value=99, time=0),
    Message('note_on', channel=7, note=72, velocity=0, time=159),
    Message('note_on', channel=7, note=72, velocity=99, time=1),
    Message('note_on', channel=7, note=72, velocity=0, time=159),
    Message('control_change', channel=7, control=2, value=100, time=1),
    Message('control_change', channel=7, control=2, value=101, time=480),
    Message('control_change', channel=7, control=2, value=102, time=480),
    Message('control_change', channel=7, control=2, value=103, time=480),
    Message('control_change', channel=7, control=2, value=104, time=480),
    Message('note_on', channel=7, note=72, velocity=104, time=0),
    Message('note_on', channel=7, note=72, velocity=0, time=159),
    Message('note_on', channel=7, note=72, velocity=104, time=1),
    Message('note_on', channel=7, note=72, velocity=0, time=159),
    Message('note_on', channel=7, note=67, velocity=104, time=1),
    Message('control_change', channel=7, control=2, value=104, time=0),
    Message('note_on', channel=7, note=67, velocity=0, time=159),
    Message('control_change', channel=7, control=2, value=105, time=1),
    Message('note_on', channel=7, note=67, velocity=105, time=0),
    Message('note_on', channel=7, note=67, velocity=0, time=159),
    Message('note_on', channel=7, note=72, velocity=105, time=1),
    Message('control_change', channel=7, control=2, value=105, time=0),
    Message('note_on', channel=7, note=72, velocity=0, time=159),
    Message('note_on', channel=7, note=72, velocity=105, time=1),
    Message('note_on', channel=7, note=72, velocity=0, time=159),
    Message('control_change', channel=7, control=2, value=106, time=1),
    Message('note_on', channel=7, note=72, velocity=106, time=0),
    Message('note_on', channel=7, note=72, velocity=0, time=159),
    Message('note_on', channel=7, note=72, velocity=106, time=1),
    Message('note_on', channel=7, note=72, velocity=0, time=159),
    Message('note_on', channel=7, note=67, velocity=106, time=1),
    Message('control_change', channel=7, control=2, value=106, time=0),
    Message('note_on', channel=7, note=67, velocity=0, time=159),
    Message('control_change', channel=7, control=2, value=107, time=1),
    Message('note_on', channel=7, note=67, velocity=107, time=0),
    Message('note_on', channel=7, note=67, velocity=0, time=159),
    Message('note_on', channel=7, note=72, velocity=107, time=1),
    Message('control_change', channel=7, control=2, value=107, time=0),
    Message('note_on', channel=7, note=72, velocity=0, time=159),
    Message('note_on', channel=7, note=72, velocity=107, time=1),
    Message('note_on', channel=7, note=72, velocity=0, time=159),
    Message('control_change', channel=7, control=2, value=108, time=1),
    Message('control_change', channel=7, control=2, value=109, time=480),
    Message('control_change', channel=7, control=2, value=110, time=480),
    Message('control_change', channel=7, control=2, value=111, time=480),
    Message('control_change', channel=7, control=2, value=112, time=480),
    Message('note_on', channel=7, note=72, velocity=112, time=0),
    Message('note_on', channel=7, note=72, velocity=0, time=159),
    Message('note_on', channel=7, note=72, velocity=112, time=1),
    Message('note_on', channel=7, note=72, velocity=0, time=159),
    Message('note_on', channel=7, note=67, velocity=112, time=1),
    Message('control_change', channel=7, control=2, value=112, time=0),
    Message('note_on', channel=7, note=67, velocity=0, time=159),
    Message('note_on', channel=7, note=67, velocity=112, time=1),
    Message('note_on', channel=7, note=67, velocity=0, time=159),
    Message('note_on', channel=7, note=72, velocity=112, time=1),
    Message('control_change', channel=7, control=2, value=112, time=0),
    Message('note_on', channel=7, note=72, velocity=0, time=159),
    Message('note_on', channel=7, note=72, velocity=112, time=1),
    Message('note_on', channel=7, note=72, velocity=0, time=159),
    Message('note_on', channel=7, note=72, velocity=112, time=1),
    Message('control_change', channel=7, control=2, value=112, time=0),
    Message('note_on', channel=7, note=72, velocity=0, time=159),
    Message('note_on', channel=7, note=72, velocity=112, time=1),
    Message('note_on', channel=7, note=72, velocity=0, time=159),
    Message('note_on', channel=7, note=67, velocity=112, time=1),
    Message('control_change', channel=7, control=2, value=112, time=0),
    Message('note_on', channel=7, note=67, velocity=0, time=159),
    Message('note_on', channel=7, note=67, velocity=112, time=1),
    Message('note_on', channel=7, note=67, velocity=0, time=159),
    Message('note_on', channel=7, note=72, velocity=112, time=1),
    Message('control_change', channel=7, control=2, value=112, time=0),
    Message('note_on', channel=7, note=72, velocity=0, time=159),
    Message('note_on', channel=7, note=72, velocity=112, time=1),
    Message('note_on', channel=7, note=72, velocity=0, time=159),
    Message('note_on', channel=7, note=76, velocity=112, time=1),
    Message('control_change', channel=7, control=2, value=112, time=0),
    Message('note_on', channel=7, note=79, velocity=112, time=0),
    Message('note_on', channel=7, note=76, velocity=0, time=159),
    Message('note_on', channel=7, note=79, velocity=0, time=0),
    Message('note_on', channel=7, note=76, velocity=112, time=1),
    Message('note_on', channel=7, note=79, velocity=112, time=0),
    Message('note_on', channel=7, note=76, velocity=0, time=159),
    Message('note_on', channel=7, note=79, velocity=0, time=0),
    Message('note_on', channel=7, note=76, velocity=112, time=1),
    Message('control_change', channel=7, control=2, value=112, time=0),
    Message('note_on', channel=7, note=79, velocity=112, time=0),
    Message('note_on', channel=7, note=76, velocity=0, time=159),
    Message('note_on', channel=7, note=79, velocity=0, time=0),
    Message('note_on', channel=7, note=76, velocity=112, time=1),
    Message('note_on', channel=7, note=79, velocity=112, time=0),
    Message('note_on', channel=7, note=76, velocity=0, time=159),
    Message('note_on', channel=7, note=79, velocity=0, time=0),
    Message('note_on', channel=7, note=76, velocity=112, time=1),
    Message('control_change', channel=7, control=2, value=112, time=0),
    Message('note_on', channel=7, note=79, velocity=112, time=0),
    Message('note_on', channel=7, note=76, velocity=0, time=159),
    Message('note_on', channel=7, note=79, velocity=0, time=0),
    Message('note_on', channel=7, note=76, velocity=112, time=1),
    Message('note_on', channel=7, note=79, velocity=112, time=0),
    Message('note_on', channel=7, note=76, velocity=0, time=159),
    Message('note_on', channel=7, note=79, velocity=0, time=0),
    Message('note_on', channel=7, note=76, velocity=112, time=1),
    Message('control_change', channel=7, control=2, value=112, time=0),
    Message('note_on', channel=7, note=79, velocity=112, time=0),
    Message('note_on', channel=7, note=76, velocity=0, time=159),
    Message('note_on', channel=7, note=79, velocity=0, time=0),
    Message('note_on', channel=7, note=76, velocity=112, time=1),
    Message('note_on', channel=7, note=79, velocity=112, time=0),
    Message('note_on', channel=7, note=76, velocity=0, time=159),
    Message('note_on', channel=7, note=79, velocity=0, time=0),
    Message('note_on', channel=7, note=76, velocity=112, time=1),
    Message('control_change', channel=7, control=2, value=112, time=0),
    Message('note_on', channel=7, note=79, velocity=112, time=0),
    Message('note_on', channel=7, note=76, velocity=0, time=159),
    Message('note_on', channel=7, note=79, velocity=0, time=0),
    Message('note_on', channel=7, note=76, velocity=112, time=1),
    Message('note_on', channel=7, note=79, velocity=112, time=0),
    Message('note_on', channel=7, note=76, velocity=0, time=159),
    Message('note_on', channel=7, note=79, velocity=0, time=0),
    Message('note_on', channel=7, note=76, velocity=112, time=1),
    Message('control_change', channel=7, control=2, value=112, time=0),
    Message('note_on', channel=7, note=79, velocity=112, time=0),
    Message('note_on', channel=7, note=76, velocity=0, time=159),
    Message('note_on', channel=7, note=79, velocity=0, time=0),
    Message('note_on', channel=7, note=76, velocity=112, time=1),
    Message('note_on', channel=7, note=79, velocity=112, time=0),
    Message('note_on', channel=7, note=76, velocity=0, time=159),
    Message('note_on', channel=7, note=79, velocity=0, time=0),
    Message('note_on', channel=7, note=74, velocity=112, time=1921),
    Message('control_change', channel=7, control=2, value=112, time=0),
    Message('note_on', channel=7, note=76, velocity=112, time=0),
    Message('note_on', channel=7, note=74, velocity=0, time=159),
    Message('note_on', channel=7, note=76, velocity=0, time=0),
    Message('note_on', channel=7, note=74, velocity=112, time=1),
    Message('note_on', channel=7, note=76, velocity=112, time=0),
    Message('note_on', channel=7, note=74, velocity=0, time=159),
    Message('note_on', channel=7, note=76, velocity=0, time=0),
    Message('note_on', channel=7, note=74, velocity=112, time=1),
    Message('control_change', channel=7, control=2, value=112, time=0),
    Message('note_on', channel=7, note=76, velocity=112, time=0),
    Message('note_on', channel=7, note=74, velocity=0, time=159),
    Message('note_on', channel=7, note=76, velocity=0, time=0),
    Message('note_on', channel=7, note=74, velocity=112, time=1),
    Message('note_on', channel=7, note=76, velocity=112, time=0),
    Message('note_on', channel=7, note=74, velocity=0, time=159),
    Message('note_on', channel=7, note=76, velocity=0, time=0),
    Message('note_on', channel=7, note=74, velocity=112, time=1),
    Message('control_change', channel=7, control=2, value=112, time=0),
    Message('note_on', channel=7, note=76, velocity=112, time=0),
    Message('note_on', channel=7, note=74, velocity=0, time=159),
    Message('note_on', channel=7, note=76, velocity=0, time=0),
    Message('note_on', channel=7, note=74, velocity=112, time=1),
    Message('note_on', channel=7, note=76, velocity=112, time=0),
    Message('note_on', channel=7, note=74, velocity=0, time=159),
    Message('note_on', channel=7, note=76, velocity=0, time=0),
    Message('note_on', channel=7, note=74, velocity=112, time=1),
    Message('control_change', channel=7, control=2, value=112, time=0),
    Message('note_on', channel=7, note=76, velocity=112, time=0),
    Message('note_on', channel=7, note=74, velocity=0, time=159),
    Message('note_on', channel=7, note=76, velocity=0, time=0),
    Message('note_on', channel=7, note=74, velocity=112, time=1),
    Message('note_on', channel=7, note=76, velocity=112, time=0),
    Message('note_on', channel=7, note=74, velocity=0, time=159),
    Message('note_on', channel=7, note=76, velocity=0, time=0),
    Message('note_on', channel=7, note=74, velocity=112, time=1),
    Message('control_change', channel=7, control=2, value=112, time=0),
    Message('note_on', channel=7, note=76, velocity=112, time=0),
    Message('note_on', channel=7, note=74, velocity=0, time=159),
    Message('note_on', channel=7, note=76, velocity=0, time=0),
    Message('note_on', channel=7, note=74, velocity=112, time=1),
    Message('note_on', channel=7, note=76, velocity=112, time=0),
    Message('note_on', channel=7, note=74, velocity=0, time=159),
    Message('note_on', channel=7, note=76, velocity=0, time=0),
    Message('note_on', channel=7, note=73, velocity=112, time=1),
    Message('control_change', channel=7, control=2, value=112, time=0),
    Message('note_on', channel=7, note=76, velocity=112, time=0),
    Message('note_on', channel=7, note=73, velocity=0, time=159),
    Message('note_on', channel=7, note=76, velocity=0, time=0),
    Message('note_on', channel=7, note=73, velocity=112, time=1),
    Message('note_on', channel=7, note=76, velocity=112, time=0),
    Message('note_on', channel=7, note=73, velocity=0, time=159),
    Message('note_on', channel=7, note=76, velocity=0, time=0),
    Message('note_on', channel=7, note=74, velocity=112, time=1),
    Message('control_change', channel=7, control=2, value=112, time=0),
    Message('note_on', channel=7, note=76, velocity=112, time=0),
    Message('note_on', channel=7, note=74, velocity=0, time=159),
    Message('note_on', channel=7, note=76, velocity=0, time=0),
    Message('note_on', channel=7, note=74, velocity=112, time=1),
    Message('note_on', channel=7, note=76, velocity=112, time=0),
    Message('note_on', channel=7, note=74, velocity=0, time=159),
    Message('note_on', channel=7, note=76, velocity=0, time=0),
    Message('note_on', channel=7, note=74, velocity=112, time=1),
    Message('control_change', channel=7, control=2, value=112, time=0),
    Message('note_on', channel=7, note=76, velocity=112, time=0),
    Message('note_on', channel=7, note=74, velocity=0, time=159),
    Message('note_on', channel=7, note=76, velocity=0, time=0),
    Message('note_on', channel=7, note=74, velocity=112, time=1),
    Message('note_on', channel=7, note=76, velocity=112, time=0),
    Message('note_on', channel=7, note=74, velocity=0, time=159),
    Message('note_on', channel=7, note=76, velocity=0, time=0),
    Message('note_on', channel=7, note=73, velocity=112, time=1),
    Message('control_change', channel=7, control=2, value=112, time=0),
    Message('note_on', channel=7, note=76, velocity=112, time=0),
    Message('note_on', channel=7, note=73, velocity=0, time=159),
    Message('note_on', channel=7, note=76, velocity=0, time=0),
    Message('note_on', channel=7, note=73, velocity=112, time=1),
    Message('note_on', channel=7, note=76, velocity=112, time=0),
    Message('note_on', channel=7, note=73, velocity=0, time=159),
    Message('note_on', channel=7, note=76, velocity=0, time=0),
    Message('note_on', channel=7, note=74, velocity=112, time=1),
    Message('control_change', channel=7, control=2, value=112, time=0),
    Message('note_on', channel=7, note=76, velocity=112, time=0),
    Message('note_on', channel=7, note=74, velocity=0, time=159),
    Message('note_on', channel=7, note=76, velocity=0, time=0),
    Message('note_on', channel=7, note=74, velocity=112, time=1),
    Message('note_on', channel=7, note=76, velocity=112, time=0),
    Message('note_on', channel=7, note=74, velocity=0, time=159),
    Message('note_on', channel=7, note=76, velocity=0, time=0),
    Message('note_on', channel=7, note=74, velocity=112, time=1),
    Message('control_change', channel=7, control=2, value=112, time=0),
    Message('note_on', channel=7, note=76, velocity=112, time=0),
    Message('note_on', channel=7, note=74, velocity=0, time=159),
    Message('note_on', channel=7, note=76, velocity=0, time=0),
    Message('note_on', channel=7, note=74, velocity=112, time=1),
    Message('note_on', channel=7, note=76, velocity=112, time=0),
    Message('note_on', channel=7, note=74, velocity=0, time=159),
    Message('note_on', channel=7, note=76, velocity=0, time=0),
    Message('note_on', channel=7, note=73, velocity=112, time=1),
    Message('control_change', channel=7, control=2, value=112, time=0),
    Message('note_on', channel=7, note=76, velocity=112, time=0),
    Message('note_on', channel=7, note=73, velocity=0, time=159),
    Message('note_on', channel=7, note=76, velocity=0, time=0),
    Message('note_on', channel=7, note=73, velocity=112, time=1),
    Message('note_on', channel=7, note=76, velocity=112, time=0),
    Message('note_on', channel=7, note=73, velocity=0, time=159),
    Message('note_on', channel=7, note=76, velocity=0, time=0),
    Message('note_on', channel=7, note=74, velocity=112, time=1),
    Message('control_change', channel=7, control=2, value=112, time=0),
    Message('note_on', channel=7, note=76, velocity=112, time=0),
    Message('note_on', channel=7, note=74, velocity=0, time=159),
    Message('note_on', channel=7, note=76, velocity=0, time=0),
    Message('note_on', channel=7, note=74, velocity=112, time=1),
    Message('note_on', channel=7, note=76, velocity=112, time=0),
    Message('note_on', channel=7, note=74, velocity=0, time=159),
    Message('note_on', channel=7, note=76, velocity=0, time=0),
    Message('note_on', channel=7, note=74, velocity=112, time=1),
    Message('control_change', channel=7, control=2, value=112, time=0),
    Message('note_on', channel=7, note=76, velocity=112, time=0),
    Message('note_on', channel=7, note=74, velocity=0, time=159),
    Message('note_on', channel=7, note=76, velocity=0, time=0),
    Message('note_on', channel=7, note=74, velocity=112, time=1),
    Message('note_on', channel=7, note=76, velocity=112, time=0),
    Message('note_on', channel=7, note=74, velocity=0, time=159),
    Message('note_on', channel=7, note=76, velocity=0, time=0),
    Message('note_on', channel=7, note=73, velocity=112, time=1),
    Message('control_change', channel=7, control=2, value=112, time=0),
    Message('note_on', channel=7, note=76, velocity=112, time=0),
    Message('note_on', channel=7, note=73, velocity=0, time=159),
    Message('note_on', channel=7, note=76, velocity=0, time=0),
    Message('note_on', channel=7, note=73, velocity=112, time=1),
    Message('note_on', channel=7, note=76, velocity=112, time=0),
    Message('note_on', channel=7, note=73, velocity=0, time=159),
    Message('note_on', channel=7, note=76, velocity=0, time=0),
    Message('note_on', channel=7, note=74, velocity=112, time=1),
    Message('control_change', channel=7, control=2, value=112, time=0),
    Message('note_on', channel=7, note=76, velocity=112, time=0),
    Message('note_on', channel=7, note=74, velocity=0, time=159),
    Message('note_on', channel=7, note=76, velocity=0, time=0),
    Message('note_on', channel=7, note=74, velocity=112, time=1),
    Message('note_on', channel=7, note=76, velocity=112, time=0),
    Message('note_on', channel=7, note=74, velocity=0, time=159),
    Message('note_on', channel=7, note=76, velocity=0, time=0),
    Message('note_on', channel=7, note=74, velocity=112, time=1),
    Message('control_change', channel=7, control=2, value=112, time=0),
    Message('note_on', channel=7, note=76, velocity=112, time=0),
    Message('note_on', channel=7, note=74, velocity=0, time=159),
    Message('note_on', channel=7, note=76, velocity=0, time=0),
    Message('note_on', channel=7, note=74, velocity=112, time=1),
    Message('note_on', channel=7, note=76, velocity=112, time=0),
    Message('note_on', channel=7, note=74, velocity=0, time=159),
    Message('note_on', channel=7, note=76, velocity=0, time=0),
    Message('note_on', channel=7, note=73, velocity=112, time=1),
    Message('control_change', channel=7, control=2, value=112, time=0),
    Message('note_on', channel=7, note=76, velocity=112, time=0),
    Message('note_on', channel=7, note=73, velocity=0, time=159),
    Message('note_on', channel=7, note=76, velocity=0, time=0),
    Message('note_on', channel=7, note=73, velocity=112, time=1),
    Message('note_on', channel=7, note=76, velocity=112, time=0),
    Message('note_on', channel=7, note=73, velocity=0, time=159),
    Message('note_on', channel=7, note=76, velocity=0, time=0),
    Message('note_on', channel=7, note=78, velocity=112, time=1),
    Message('control_change', channel=7, control=2, value=112, time=0),
    Message('note_on', channel=7, note=78, velocity=0, time=119),
    Message('note_on', channel=7, note=78, velocity=112, time=1),
    Message('note_on', channel=7, note=78, velocity=0, time=119),
    Message('note_on', channel=7, note=78, velocity=112, time=1),
    Message('note_on', channel=7, note=78, velocity=0, time=119),
    Message('note_on', channel=7, note=78, velocity=112, time=1),
    Message('note_on', channel=7, note=78, velocity=0, time=119),
    Message('note_on', channel=7, note=76, velocity=112, time=1),
    Message('control_change', channel=7, control=2, value=112, time=0),
    Message('note_on', channel=7, note=76, velocity=0, time=119),
    Message('note_on', channel=7, note=76, velocity=112, time=1),
    Message('note_on', channel=7, note=76, velocity=0, time=119),
    Message('note_on', channel=7, note=76, velocity=112, time=1),
    Message('note_on', channel=7, note=76, velocity=0, time=119),
    Message('note_on', channel=7, note=76, velocity=112, time=1),
    Message('note_on', channel=7, note=76, velocity=0, time=119),
    Message('note_on', channel=7, note=73, velocity=112, time=1),
    Message('control_change', channel=7, control=2, value=112, time=0),
    Message('note_on', channel=7, note=73, velocity=0, time=119),
    Message('note_on', channel=7, note=73, velocity=112, time=1),
    Message('note_on', channel=7, note=73, velocity=0, time=119),
    Message('note_on', channel=7, note=73, velocity=112, time=1),
    Message('note_on', channel=7, note=73, velocity=0, time=119),
    Message('note_on', channel=7, note=73, velocity=112, time=1),
    Message('note_on', channel=7, note=73, velocity=0, time=119),
    Message('note_on', channel=7, note=70, velocity=112, time=1),
    Message('control_change', channel=7, control=2, value=112, time=0),
    Message('note_on', channel=7, note=70, velocity=0, time=119),
    Message('note_on', channel=7, note=70, velocity=112, time=1),
    Message('note_on', channel=7, note=70, velocity=0, time=119),
    Message('note_on', channel=7, note=70, velocity=112, time=1),
    Message('note_on', channel=7, note=70, velocity=0, time=119),
    Message('note_on', channel=7, note=70, velocity=112, time=1),
    Message('note_on', channel=7, note=70, velocity=0, time=119),
    Message('note_on', channel=7, note=66, velocity=112, time=1),
    Message('control_change', channel=7, control=2, value=112, time=0),
    Message('note_on', channel=7, note=66, velocity=0, time=119),
    Message('note_on', channel=7, note=66, velocity=112, time=1),
    Message('note_on', channel=7, note=66, velocity=0, time=119),
    Message('note_on', channel=7, note=66, velocity=112, time=1),
    Message('note_on', channel=7, note=66, velocity=0, time=119),
    Message('note_on', channel=7, note=66, velocity=112, time=1),
    Message('note_on', channel=7, note=66, velocity=0, time=119),
    Message('note_on', channel=7, note=78, velocity=126, time=5281),
    Message('control_change', channel=7, control=2, value=126, time=0),
    Message('note_on', channel=7, note=78, velocity=0, time=1919),
    Message('note_on', channel=7, note=71, velocity=126, time=1),
    Message('control_change', channel=7, control=2, value=126, time=0),
    Message('note_on', channel=7, note=71, velocity=0, time=119),
    Message('note_on', channel=7, note=71, velocity=126, time=1),
    Message('note_on', channel=7, note=71, velocity=0, time=119),
    Message('note_on', channel=7, note=71, velocity=126, time=1),
    Message('note_on', channel=7, note=71, velocity=0, time=119),
    Message('note_on', channel=7, note=71, velocity=126, time=1),
    Message('note_on', channel=7, note=71, velocity=0, time=119),
    Message('note_on', channel=7, note=73, velocity=126, time=1),
    Message('control_change', channel=7, control=2, value=126, time=0),
    Message('note_on', channel=7, note=73, velocity=0, time=119),
    Message('note_on', channel=7, note=73, velocity=126, time=1),
    Message('note_on', channel=7, note=73, velocity=0, time=119),
    Message('note_on', channel=7, note=73, velocity=126, time=1),
    Message('note_on', channel=7, note=73, velocity=0, time=119),
    Message('note_on', channel=7, note=73, velocity=126, time=1),
    Message('note_on', channel=7, note=73, velocity=0, time=119),
    Message('note_on', channel=7, note=74, velocity=126, time=1),
    Message('control_change', channel=7, control=2, value=126, time=0),
    Message('note_on', channel=7, note=74, velocity=0, time=119),
    Message('note_on', channel=7, note=74, velocity=126, time=1),
    Message('note_on', channel=7, note=74, velocity=0, time=119),
    Message('note_on', channel=7, note=74, velocity=126, time=1),
    Message('note_on', channel=7, note=74, velocity=0, time=119),
    Message('note_on', channel=7, note=74, velocity=126, time=1),
    Message('note_on', channel=7, note=74, velocity=0, time=119),
    Message('note_on', channel=7, note=76, velocity=126, time=1),
    Message('control_change', channel=7, control=2, value=126, time=0),
    Message('note_on', channel=7, note=76, velocity=0, time=119),
    Message('note_on', channel=7, note=76, velocity=126, time=1),
    Message('note_on', channel=7, note=76, velocity=0, time=119),
    Message('note_on', channel=7, note=76, velocity=126, time=1),
    Message('note_on', channel=7, note=76, velocity=0, time=119),
    Message('note_on', channel=7, note=76, velocity=126, time=1),
    Message('note_on', channel=7, note=76, velocity=0, time=119),
    Message('note_on', channel=7, note=78, velocity=126, time=1),
    Message('control_change', channel=7, control=2, value=126, time=0),
    Message('note_on', channel=7, note=78, velocity=0, time=118),
    Message('note_on', channel=7, note=78, velocity=126, time=1),
    Message('note_on', channel=7, note=78, velocity=0, time=118),
    Message('note_on', channel=7, note=78, velocity=126, time=2),
    Message('note_on', channel=7, note=78, velocity=0, time=118),
    Message('note_on', channel=7, note=78, velocity=126, time=1),
    Message('note_on', channel=7, note=78, velocity=0, time=118),
    Message('note_on', channel=7, note=78, velocity=126, time=2),
    Message('note_on', channel=7, note=78, velocity=0, time=118),
    Message('note_on', channel=7, note=78, velocity=126, time=1),
    Message('note_on', channel=7, note=78, velocity=0, time=118),
    Message('note_on', channel=7, note=78, velocity=126, time=2),
    Message('note_on', channel=7, note=78, velocity=0, time=118),
    Message('note_on', channel=7, note=78, velocity=126, time=1),
    Message('note_on', channel=7, note=78, velocity=0, time=118),
    Message('note_on', channel=7, note=78, velocity=126, time=2),
    Message('note_on', channel=7, note=78, velocity=0, time=118),
    Message('note_on', channel=7, note=78, velocity=126, time=1),
    Message('note_on', channel=7, note=78, velocity=0, time=118),
    Message('note_on', channel=7, note=78, velocity=126, time=2),
    Message('note_on', channel=7, note=78, velocity=0, time=118),
    Message('note_on', channel=7, note=78, velocity=126, time=1),
    Message('note_on', channel=7, note=78, velocity=0, time=118),
    Message('note_on', channel=7, note=74, velocity=126, time=8),
    Message('control_change', channel=7, control=2, value=126, time=0),
    Message('note_on', channel=7, note=74, velocity=0, time=119),
    Message('note_on', channel=7, note=74, velocity=126, time=1),
    Message('note_on', channel=7, note=74, velocity=0, time=119),
    Message('note_on', channel=7, note=74, velocity=126, time=1),
    Message('note_on', channel=7, note=74, velocity=0, time=119),
    Message('note_on', channel=7, note=74, velocity=126, time=1),
    Message('note_on', channel=7, note=74, velocity=0, time=119),
    Message('note_on', channel=7, note=78, velocity=126, time=1),
    Message('control_change', channel=7, control=2, value=126, time=0),
    Message('note_on', channel=7, note=78, velocity=0, time=118),
    Message('note_on', channel=7, note=78, velocity=126, time=1),
    Message('note_on', channel=7, note=78, velocity=0, time=118),
    Message('note_on', channel=7, note=78, velocity=126, time=2),
    Message('note_on', channel=7, note=78, velocity=0, time=118),
    Message('note_on', channel=7, note=78, velocity=126, time=1),
    Message('note_on', channel=7, note=78, velocity=0, time=118),
    Message('note_on', channel=7, note=78, velocity=126, time=2),
    Message('note_on', channel=7, note=78, velocity=0, time=118),
    Message('note_on', channel=7, note=78, velocity=126, time=1),
    Message('note_on', channel=7, note=78, velocity=0, time=118),
    Message('note_on', channel=7, note=78, velocity=126, time=2),
    Message('note_on', channel=7, note=78, velocity=0, time=118),
    Message('note_on', channel=7, note=78, velocity=126, time=1),
    Message('note_on', channel=7, note=78, velocity=0, time=118),
    Message('note_on', channel=7, note=78, velocity=126, time=2),
    Message('note_on', channel=7, note=78, velocity=0, time=118),
    Message('note_on', channel=7, note=78, velocity=126, time=1),
    Message('note_on', channel=7, note=78, velocity=0, time=118),
    Message('note_on', channel=7, note=78, velocity=126, time=2),
    Message('note_on', channel=7, note=78, velocity=0, time=118),
    Message('note_on', channel=7, note=78, velocity=126, time=1),
    Message('note_on', channel=7, note=78, velocity=0, time=118),
    Message('note_on', channel=7, note=74, velocity=126, time=8),
    Message('control_change', channel=7, control=2, value=126, time=0),
    Message('note_on', channel=7, note=74, velocity=0, time=119),
    Message('note_on', channel=7, note=74, velocity=126, time=1),
    Message('note_on', channel=7, note=74, velocity=0, time=119),
    Message('note_on', channel=7, note=74, velocity=126, time=1),
    Message('note_on', channel=7, note=74, velocity=0, time=119),
    Message('note_on', channel=7, note=74, velocity=126, time=1),
    Message('note_on', channel=7, note=74, velocity=0, time=119),
    Message('note_on', channel=7, note=78, velocity=126, time=1),
    Message('control_change', channel=7, control=2, value=126, time=0),
    Message('note_on', channel=7, note=78, velocity=0, time=119),
    Message('note_on', channel=7, note=78, velocity=126, time=1),
    Message('note_on', channel=7, note=78, velocity=0, time=119),
    Message('note_on', channel=7, note=78, velocity=126, time=1),
    Message('note_on', channel=7, note=78, velocity=0, time=119),
    Message('note_on', channel=7, note=78, velocity=126, time=1),
    Message('note_on', channel=7, note=78, velocity=0, time=119),
    Message('note_on', channel=7, note=78, velocity=126, time=1),
    Message('note_on', channel=7, note=78, velocity=0, time=119),
    Message('note_on', channel=7, note=78, velocity=126, time=1),
    Message('note_on', channel=7, note=78, velocity=0, time=119),
    Message('note_on', channel=7, note=78, velocity=126, time=1),
    Message('note_on', channel=7, note=78, velocity=0, time=119),
    Message('note_on', channel=7, note=78, velocity=126, time=1),
    Message('note_on', channel=7, note=78, velocity=0, time=119),
    Message('note_on', channel=7, note=74, velocity=126, time=1),
    Message('control_change', channel=7, control=2, value=126, time=0),
    Message('note_on', channel=7, note=74, velocity=0, time=119),
    Message('note_on', channel=7, note=74, velocity=126, time=1),
    Message('note_on', channel=7, note=74, velocity=0, time=119),
    Message('note_on', channel=7, note=74, velocity=126, time=1),
    Message('note_on', channel=7, note=74, velocity=0, time=119),
    Message('note_on', channel=7, note=74, velocity=126, time=1),
    Message('note_on', channel=7, note=74, velocity=0, time=119),
    Message('note_on', channel=7, note=74, velocity=126, time=1),
    Message('note_on', channel=7, note=74, velocity=0, time=119),
    Message('note_on', channel=7, note=74, velocity=126, time=1),
    Message('note_on', channel=7, note=74, velocity=0, time=119),
    Message('note_on', channel=7, note=74, velocity=126, time=1),
    Message('note_on', channel=7, note=74, velocity=0, time=119),
    Message('note_on', channel=7, note=74, velocity=126, time=1),
    Message('note_on', channel=7, note=74, velocity=0, time=119),
    Message('note_on', channel=7, note=71, velocity=126, time=1),
    Message('control_change', channel=7, control=2, value=126, time=0),
    Message('note_on', channel=7, note=71, velocity=0, time=119),
    Message('note_on', channel=7, note=71, velocity=126, time=1),
    Message('note_on', channel=7, note=71, velocity=0, time=119),
    Message('note_on', channel=7, note=71, velocity=126, time=1),
    Message('note_on', channel=7, note=71, velocity=0, time=119),
    Message('note_on', channel=7, note=71, velocity=126, time=1),
    Message('note_on', channel=7, note=71, velocity=0, time=119),
    Message('note_on', channel=7, note=71, velocity=126, time=1),
    Message('note_on', channel=7, note=71, velocity=0, time=119),
    Message('note_on', channel=7, note=71, velocity=126, time=1),
    Message('note_on', channel=7, note=71, velocity=0, time=119),
    Message('note_on', channel=7, note=71, velocity=126, time=1),
    Message('note_on', channel=7, note=71, velocity=0, time=119),
    Message('note_on', channel=7, note=71, velocity=126, time=1),
    Message('note_on', channel=7, note=71, velocity=0, time=119),
    Message('note_on', channel=7, note=66, velocity=126, time=1),
    Message('control_change', channel=7, control=2, value=126, time=0),
    Message('note_on', channel=7, note=66, velocity=0, time=119),
    Message('note_on', channel=7, note=66, velocity=126, time=1),
    Message('note_on', channel=7, note=66, velocity=0, time=119),
    Message('note_on', channel=7, note=66, velocity=126, time=1),
    Message('note_on', channel=7, note=66, velocity=0, time=119),
    Message('note_on', channel=7, note=66, velocity=126, time=1),
    Message('note_on', channel=7, note=66, velocity=0, time=119),
    Message('note_on', channel=7, note=66, velocity=126, time=1),
    Message('note_on', channel=7, note=66, velocity=0, time=119),
    Message('note_on', channel=7, note=66, velocity=126, time=1),
    Message('note_on', channel=7, note=66, velocity=0, time=119),
    Message('note_on', channel=7, note=66, velocity=126, time=1),
    Message('note_on', channel=7, note=66, velocity=0, time=119),
    Message('note_on', channel=7, note=66, velocity=126, time=1),
    Message('note_on', channel=7, note=66, velocity=0, time=119),
    Message('note_on', channel=7, note=74, velocity=126, time=1),
    Message('control_change', channel=7, control=2, value=126, time=0),
    Message('note_on', channel=7, note=74, velocity=0, time=119),
    Message('note_on', channel=7, note=74, velocity=126, time=1),
    Message('note_on', channel=7, note=74, velocity=0, time=119),
    Message('note_on', channel=7, note=74, velocity=126, time=1),
    Message('note_on', channel=7, note=74, velocity=0, time=119),
    Message('note_on', channel=7, note=74, velocity=126, time=1),
    Message('note_on', channel=7, note=74, velocity=0, time=119),
    Message('note_on', channel=7, note=74, velocity=126, time=1),
    Message('note_on', channel=7, note=74, velocity=0, time=119),
    Message('note_on', channel=7, note=74, velocity=126, time=1),
    Message('note_on', channel=7, note=74, velocity=0, time=119),
    Message('note_on', channel=7, note=74, velocity=126, time=1),
    Message('note_on', channel=7, note=74, velocity=0, time=119),
    Message('note_on', channel=7, note=74, velocity=126, time=1),
    Message('note_on', channel=7, note=74, velocity=0, time=119),
    Message('note_on', channel=7, note=71, velocity=126, time=1),
    Message('control_change', channel=7, control=2, value=126, time=0),
    Message('note_on', channel=7, note=71, velocity=0, time=119),
    Message('note_on', channel=7, note=71, velocity=126, time=1),
    Message('note_on', channel=7, note=71, velocity=0, time=119),
    Message('note_on', channel=7, note=71, velocity=126, time=1),
    Message('note_on', channel=7, note=71, velocity=0, time=119),
    Message('note_on', channel=7, note=71, velocity=126, time=1),
    Message('note_on', channel=7, note=71, velocity=0, time=119),
    Message('note_on', channel=7, note=71, velocity=126, time=1),
    Message('note_on', channel=7, note=71, velocity=0, time=119),
    Message('note_on', channel=7, note=71, velocity=126, time=1),
    Message('note_on', channel=7, note=71, velocity=0, time=119),
    Message('note_on', channel=7, note=71, velocity=126, time=1),
    Message('note_on', channel=7, note=71, velocity=0, time=119),
    Message('note_on', channel=7, note=71, velocity=126, time=1),
    Message('note_on', channel=7, note=71, velocity=0, time=119),
    Message('note_on', channel=7, note=66, velocity=126, time=1),
    Message('control_change', channel=7, control=2, value=126, time=0),
    Message('note_on', channel=7, note=66, velocity=0, time=119),
    Message('note_on', channel=7, note=66, velocity=126, time=1),
    Message('note_on', channel=7, note=66, velocity=0, time=119),
    Message('note_on', channel=7, note=66, velocity=126, time=1),
    Message('note_on', channel=7, note=66, velocity=0, time=119),
    Message('note_on', channel=7, note=66, velocity=126, time=1),
    Message('note_on', channel=7, note=66, velocity=0, time=119),
    Message('note_on', channel=7, note=66, velocity=126, time=1),
    Message('note_on', channel=7, note=66, velocity=0, time=119),
    Message('note_on', channel=7, note=66, velocity=126, time=1),
    Message('note_on', channel=7, note=66, velocity=0, time=119),
    Message('note_on', channel=7, note=66, velocity=126, time=1),
    Message('note_on', channel=7, note=66, velocity=0, time=119),
    Message('note_on', channel=7, note=66, velocity=126, time=1),
    Message('note_on', channel=7, note=66, velocity=0, time=119),
    Message('note_on', channel=7, note=62, velocity=126, time=1),
    Message('control_change', channel=7, control=2, value=126, time=0),
    Message('note_on', channel=7, note=62, velocity=0, time=119),
    Message('note_on', channel=7, note=62, velocity=126, time=1),
    Message('note_on', channel=7, note=62, velocity=0, time=119),
    Message('note_on', channel=7, note=62, velocity=126, time=1),
    Message('note_on', channel=7, note=62, velocity=0, time=119),
    Message('note_on', channel=7, note=62, velocity=126, time=1),
    Message('note_on', channel=7, note=62, velocity=0, time=119),
    Message('note_on', channel=7, note=62, velocity=126, time=1),
    Message('note_on', channel=7, note=62, velocity=0, time=119),
    Message('note_on', channel=7, note=62, velocity=126, time=1),
    Message('note_on', channel=7, note=62, velocity=0, time=119),
    Message('note_on', channel=7, note=62, velocity=126, time=1),
    Message('note_on', channel=7, note=62, velocity=0, time=119),
    Message('note_on', channel=7, note=62, velocity=126, time=1),
    Message('note_on', channel=7, note=62, velocity=0, time=119),
    Message('control_change', channel=7, control=2, value=96, time=1),
    Message('note_on', channel=7, note=62, velocity=96, time=0),
    Message('note_on', channel=7, note=62, velocity=0, time=118),
    Message('note_on', channel=7, note=62, velocity=96, time=1),
    Message('note_on', channel=7, note=62, velocity=0, time=118),
    Message('note_on', channel=7, note=62, velocity=96, time=1),
    Message('note_on', channel=7, note=62, velocity=0, time=118),
    Message('note_on', channel=7, note=62, velocity=96, time=1),
    Message('note_on', channel=7, note=62, velocity=0, time=118),
    Message('note_on', channel=7, note=62, velocity=96, time=1),
    Message('note_on', channel=7, note=62, velocity=0, time=118),
    Message('note_on', channel=7, note=62, velocity=96, time=1),
    Message('note_on', channel=7, note=62, velocity=0, time=118),
    Message('note_on', channel=7, note=62, velocity=96, time=1),
    Message('note_on', channel=7, note=62, velocity=0, time=118),
    Message('note_on', channel=7, note=62, velocity=96, time=1),
    Message('note_on', channel=7, note=62, velocity=0, time=118),
    Message('note_on', channel=7, note=62, velocity=96, time=1),
    Message('note_on', channel=7, note=62, velocity=0, time=118),
    Message('note_on', channel=7, note=62, velocity=96, time=1),
    Message('note_on', channel=7, note=62, velocity=0, time=118),
    Message('note_on', channel=7, note=62, velocity=96, time=1),
    Message('note_on', channel=7, note=62, velocity=0, time=118),
    Message('note_on', channel=7, note=62, velocity=96, time=1),
    Message('note_on', channel=7, note=62, velocity=0, time=118),
    Message('note_on', channel=7, note=62, velocity=96, time=1),
    Message('note_on', channel=7, note=62, velocity=0, time=118),
    Message('note_on', channel=7, note=62, velocity=96, time=1),
    Message('note_on', channel=7, note=62, velocity=0, time=118),
    Message('note_on', channel=7, note=62, velocity=96, time=1),
    Message('note_on', channel=7, note=62, velocity=0, time=118),
    Message('note_on', channel=7, note=62, velocity=96, time=1),
    Message('note_on', channel=7, note=62, velocity=0, time=118),
    Message('note_on', channel=7, note=62, velocity=96, time=17),
    Message('control_change', channel=7, control=2, value=96, time=0),
    Message('note_on', channel=7, note=62, velocity=0, time=118),
    Message('note_on', channel=7, note=62, velocity=96, time=1),
    Message('note_on', channel=7, note=62, velocity=0, time=118),
    Message('note_on', channel=7, note=62, velocity=96, time=1),
    Message('note_on', channel=7, note=62, velocity=0, time=118),
    Message('note_on', channel=7, note=62, velocity=96, time=1),
    Message('note_on', channel=7, note=62, velocity=0, time=118),
    Message('note_on', channel=7, note=62, velocity=96, time=1),
    Message('note_on', channel=7, note=62, velocity=0, time=118),
    Message('note_on', channel=7, note=62, velocity=96, time=1),
    Message('note_on', channel=7, note=62, velocity=0, time=118),
    Message('note_on', channel=7, note=62, velocity=96, time=1),
    Message('note_on', channel=7, note=62, velocity=0, time=118),
    Message('note_on', channel=7, note=62, velocity=96, time=1),
    Message('note_on', channel=7, note=62, velocity=0, time=118),
    Message('note_on', channel=7, note=62, velocity=96, time=1),
    Message('note_on', channel=7, note=62, velocity=0, time=118),
    Message('note_on', channel=7, note=62, velocity=96, time=1),
    Message('note_on', channel=7, note=62, velocity=0, time=118),
    Message('note_on', channel=7, note=62, velocity=96, time=1),
    Message('note_on', channel=7, note=62, velocity=0, time=118),
    Message('note_on', channel=7, note=62, velocity=96, time=1),
    Message('note_on', channel=7, note=62, velocity=0, time=118),
    Message('note_on', channel=7, note=62, velocity=96, time=1),
    Message('note_on', channel=7, note=62, velocity=0, time=118),
    Message('note_on', channel=7, note=62, velocity=96, time=1),
    Message('note_on', channel=7, note=62, velocity=0, time=118),
    Message('note_on', channel=7, note=62, velocity=96, time=1),
    Message('note_on', channel=7, note=62, velocity=0, time=118),
    Message('note_on', channel=7, note=62, velocity=96, time=1),
    Message('note_on', channel=7, note=62, velocity=0, time=118),
    Message('note_on', channel=7, note=62, velocity=96, time=17),
    Message('control_change', channel=7, control=2, value=96, time=0),
    Message('note_on', channel=7, note=62, velocity=0, time=118),
    Message('note_on', channel=7, note=62, velocity=96, time=1),
    Message('note_on', channel=7, note=62, velocity=0, time=118),
    Message('note_on', channel=7, note=62, velocity=96, time=1),
    Message('note_on', channel=7, note=62, velocity=0, time=118),
    Message('note_on', channel=7, note=62, velocity=96, time=1),
    Message('note_on', channel=7, note=62, velocity=0, time=118),
    Message('note_on', channel=7, note=62, velocity=96, time=1),
    Message('note_on', channel=7, note=62, velocity=0, time=118),
    Message('note_on', channel=7, note=62, velocity=96, time=1),
    Message('note_on', channel=7, note=62, velocity=0, time=118),
    Message('note_on', channel=7, note=62, velocity=96, time=1),
    Message('note_on', channel=7, note=62, velocity=0, time=118),
    Message('note_on', channel=7, note=62, velocity=96, time=1),
    Message('note_on', channel=7, note=62, velocity=0, time=118),
    Message('note_on', channel=7, note=62, velocity=96, time=1),
    Message('note_on', channel=7, note=62, velocity=0, time=118),
    Message('note_on', channel=7, note=62, velocity=96, time=1),
    Message('note_on', channel=7, note=62, velocity=0, time=118),
    Message('note_on', channel=7, note=62, velocity=96, time=1),
    Message('note_on', channel=7, note=62, velocity=0, time=118),
    Message('note_on', channel=7, note=62, velocity=96, time=1),
    Message('note_on', channel=7, note=62, velocity=0, time=118),
    Message('note_on', channel=7, note=62, velocity=96, time=1),
    Message('note_on', channel=7, note=62, velocity=0, time=118),
    Message('note_on', channel=7, note=62, velocity=96, time=1),
    Message('note_on', channel=7, note=62, velocity=0, time=118),
    Message('note_on', channel=7, note=62, velocity=96, time=1),
    Message('note_on', channel=7, note=62, velocity=0, time=118),
    Message('note_on', channel=7, note=62, velocity=96, time=1),
    Message('note_on', channel=7, note=62, velocity=0, time=118),
    Message('note_on', channel=7, note=62, velocity=96, time=17),
    Message('control_change', channel=7, control=2, value=96, time=0),
    Message('note_on', channel=7, note=62, velocity=0, time=118),
    Message('note_on', channel=7, note=62, velocity=96, time=1),
    Message('note_on', channel=7, note=62, velocity=0, time=118),
    Message('note_on', channel=7, note=62, velocity=96, time=1),
    Message('note_on', channel=7, note=62, velocity=0, time=118),
    Message('note_on', channel=7, note=62, velocity=96, time=1),
    Message('note_on', channel=7, note=62, velocity=0, time=118),
    Message('note_on', channel=7, note=62, velocity=96, time=1),
    Message('note_on', channel=7, note=62, velocity=0, time=118),
    Message('note_on', channel=7, note=62, velocity=96, time=1),
    Message('note_on', channel=7, note=62, velocity=0, time=118),
    Message('note_on', channel=7, note=62, velocity=96, time=1),
    Message('note_on', channel=7, note=62, velocity=0, time=118),
    Message('note_on', channel=7, note=62, velocity=96, time=1),
    Message('note_on', channel=7, note=62, velocity=0, time=118),
    Message('note_on', channel=7, note=62, velocity=96, time=1),
    Message('note_on', channel=7, note=62, velocity=0, time=118),
    Message('note_on', channel=7, note=62, velocity=96, time=1),
    Message('note_on', channel=7, note=62, velocity=0, time=118),
    Message('note_on', channel=7, note=62, velocity=96, time=1),
    Message('note_on', channel=7, note=62, velocity=0, time=118),
    Message('note_on', channel=7, note=62, velocity=96, time=1),
    Message('note_on', channel=7, note=62, velocity=0, time=118),
    Message('note_on', channel=7, note=62, velocity=96, time=1),
    Message('note_on', channel=7, note=62, velocity=0, time=118),
    Message('note_on', channel=7, note=62, velocity=96, time=1),
    Message('note_on', channel=7, note=62, velocity=0, time=118),
    Message('note_on', channel=7, note=62, velocity=96, time=1),
    Message('note_on', channel=7, note=62, velocity=0, time=118),
    Message('note_on', channel=7, note=62, velocity=96, time=1),
    Message('note_on', channel=7, note=62, velocity=0, time=118),
    Message('control_change', channel=7, control=2, value=80, time=17),
    Message('note_on', channel=7, note=62, velocity=80, time=0),
    Message('note_on', channel=7, note=62, velocity=0, time=118),
    Message('note_on', channel=7, note=62, velocity=80, time=1),
    Message('note_on', channel=7, note=62, velocity=0, time=118),
    Message('note_on', channel=7, note=62, velocity=80, time=1),
    Message('note_on', channel=7, note=62, velocity=0, time=118),
    Message('note_on', channel=7, note=62, velocity=80, time=1),
    Message('note_on', channel=7, note=62, velocity=0, time=118),
    Message('note_on', channel=7, note=62, velocity=80, time=1),
    Message('note_on', channel=7, note=62, velocity=0, time=118),
    Message('note_on', channel=7, note=62, velocity=80, time=1),
    Message('note_on', channel=7, note=62, velocity=0, time=118),
    Message('note_on', channel=7, note=62, velocity=80, time=1),
    Message('note_on', channel=7, note=62, velocity=0, time=118),
    Message('note_on', channel=7, note=62, velocity=80, time=1),
    Message('note_on', channel=7, note=62, velocity=0, time=118),
    Message('note_on', channel=7, note=62, velocity=80, time=1),
    Message('note_on', channel=7, note=62, velocity=0, time=118),
    Message('note_on', channel=7, note=62, velocity=80, time=1),
    Message('note_on', channel=7, note=62, velocity=0, time=118),
    Message('note_on', channel=7, note=62, velocity=80, time=1),
    Message('note_on', channel=7, note=62, velocity=0, time=118),
    Message('note_on', channel=7, note=62, velocity=80, time=1),
    Message('note_on', channel=7, note=62, velocity=0, time=118),
    Message('note_on', channel=7, note=62, velocity=80, time=1),
    Message('note_on', channel=7, note=62, velocity=0, time=118),
    Message('note_on', channel=7, note=62, velocity=80, time=1),
    Message('note_on', channel=7, note=62, velocity=0, time=118),
    Message('note_on', channel=7, note=62, velocity=80, time=1),
    Message('note_on', channel=7, note=62, velocity=0, time=118),
    Message('note_on', channel=7, note=62, velocity=80, time=1),
    Message('note_on', channel=7, note=62, velocity=0, time=118),
    Message('note_on', channel=7, note=62, velocity=80, time=17),
    Message('control_change', channel=7, control=2, value=80, time=0),
    Message('note_on', channel=7, note=62, velocity=0, time=118),
    Message('note_on', channel=7, note=62, velocity=80, time=1),
    Message('note_on', channel=7, note=62, velocity=0, time=118),
    Message('note_on', channel=7, note=62, velocity=80, time=1),
    Message('note_on', channel=7, note=62, velocity=0, time=118),
    Message('note_on', channel=7, note=62, velocity=80, time=1),
    Message('note_on', channel=7, note=62, velocity=0, time=118),
    Message('note_on', channel=7, note=62, velocity=80, time=1),
    Message('note_on', channel=7, note=62, velocity=0, time=118),
    Message('note_on', channel=7, note=62, velocity=80, time=1),
    Message('note_on', channel=7, note=62, velocity=0, time=118),
    Message('note_on', channel=7, note=62, velocity=80, time=1),
    Message('note_on', channel=7, note=62, velocity=0, time=118),
    Message('note_on', channel=7, note=62, velocity=80, time=1),
    Message('note_on', channel=7, note=62, velocity=0, time=118),
    Message('note_on', channel=7, note=62, velocity=80, time=1),
    Message('note_on', channel=7, note=62, velocity=0, time=118),
    Message('note_on', channel=7, note=62, velocity=80, time=1),
    Message('note_on', channel=7, note=62, velocity=0, time=118),
    Message('note_on', channel=7, note=62, velocity=80, time=1),
    Message('note_on', channel=7, note=62, velocity=0, time=118),
    Message('note_on', channel=7, note=62, velocity=80, time=1),
    Message('note_on', channel=7, note=62, velocity=0, time=118),
    Message('note_on', channel=7, note=62, velocity=80, time=1),
    Message('note_on', channel=7, note=62, velocity=0, time=118),
    Message('note_on', channel=7, note=62, velocity=80, time=1),
    Message('note_on', channel=7, note=62, velocity=0, time=118),
    Message('note_on', channel=7, note=62, velocity=80, time=1),
    Message('note_on', channel=7, note=62, velocity=0, time=118),
    Message('note_on', channel=7, note=62, velocity=80, time=1),
    Message('note_on', channel=7, note=62, velocity=0, time=118),
    Message('note_on', channel=7, note=62, velocity=80, time=17),
    Message('control_change', channel=7, control=2, value=80, time=0),
    Message('note_on', channel=7, note=62, velocity=0, time=118),
    Message('note_on', channel=7, note=62, velocity=80, time=1),
    Message('note_on', channel=7, note=62, velocity=0, time=118),
    Message('note_on', channel=7, note=62, velocity=80, time=1),
    Message('note_on', channel=7, note=62, velocity=0, time=118),
    Message('note_on', channel=7, note=62, velocity=80, time=1),
    Message('note_on', channel=7, note=62, velocity=0, time=118),
    Message('note_on', channel=7, note=62, velocity=80, time=1),
    Message('note_on', channel=7, note=62, velocity=0, time=118),
    Message('note_on', channel=7, note=62, velocity=80, time=1),
    Message('note_on', channel=7, note=62, velocity=0, time=118),
    Message('note_on', channel=7, note=62, velocity=80, time=1),
    Message('note_on', channel=7, note=62, velocity=0, time=118),
    Message('note_on', channel=7, note=62, velocity=80, time=1),
    Message('note_on', channel=7, note=62, velocity=0, time=118),
    Message('note_on', channel=7, note=62, velocity=80, time=1),
    Message('note_on', channel=7, note=62, velocity=0, time=118),
    Message('note_on', channel=7, note=62, velocity=80, time=1),
    Message('note_on', channel=7, note=62, velocity=0, time=118),
    Message('note_on', channel=7, note=62, velocity=80, time=1),
    Message('note_on', channel=7, note=62, velocity=0, time=118),
    Message('note_on', channel=7, note=62, velocity=80, time=1),
    Message('note_on', channel=7, note=62, velocity=0, time=118),
    Message('note_on', channel=7, note=62, velocity=80, time=1),
    Message('note_on', channel=7, note=62, velocity=0, time=118),
    Message('note_on', channel=7, note=62, velocity=80, time=1),
    Message('note_on', channel=7, note=62, velocity=0, time=118),
    Message('note_on', channel=7, note=62, velocity=80, time=1),
    Message('note_on', channel=7, note=62, velocity=0, time=118),
    Message('note_on', channel=7, note=62, velocity=80, time=1),
    Message('note_on', channel=7, note=62, velocity=0, time=118),
    Message('note_on', channel=7, note=62, velocity=80, time=17),
    Message('control_change', channel=7, control=2, value=80, time=0),
    Message('note_on', channel=7, note=62, velocity=0, time=118),
    Message('note_on', channel=7, note=62, velocity=80, time=1),
    Message('note_on', channel=7, note=62, velocity=0, time=118),
    Message('note_on', channel=7, note=62, velocity=80, time=1),
    Message('note_on', channel=7, note=62, velocity=0, time=118),
    Message('note_on', channel=7, note=62, velocity=80, time=1),
    Message('note_on', channel=7, note=62, velocity=0, time=118),
    Message('note_on', channel=7, note=62, velocity=80, time=1),
    Message('note_on', channel=7, note=62, velocity=0, time=118),
    Message('note_on', channel=7, note=62, velocity=80, time=1),
    Message('note_on', channel=7, note=62, velocity=0, time=118),
    Message('note_on', channel=7, note=62, velocity=80, time=1),
    Message('note_on', channel=7, note=62, velocity=0, time=118),
    Message('note_on', channel=7, note=62, velocity=80, time=1),
    Message('note_on', channel=7, note=62, velocity=0, time=118),
    Message('note_on', channel=7, note=62, velocity=80, time=1),
    Message('note_on', channel=7, note=62, velocity=0, time=118),
    Message('note_on', channel=7, note=62, velocity=80, time=1),
    Message('note_on', channel=7, note=62, velocity=0, time=118),
    Message('note_on', channel=7, note=62, velocity=80, time=1),
    Message('note_on', channel=7, note=62, velocity=0, time=118),
    Message('note_on', channel=7, note=62, velocity=80, time=1),
    Message('note_on', channel=7, note=62, velocity=0, time=118),
    Message('note_on', channel=7, note=62, velocity=80, time=1),
    Message('note_on', channel=7, note=62, velocity=0, time=118),
    Message('note_on', channel=7, note=62, velocity=80, time=1),
    Message('note_on', channel=7, note=62, velocity=0, time=118),
    Message('note_on', channel=7, note=62, velocity=80, time=1),
    Message('note_on', channel=7, note=62, velocity=0, time=118),
    Message('note_on', channel=7, note=62, velocity=80, time=1),
    Message('note_on', channel=7, note=62, velocity=0, time=118),
    Message('control_change', channel=7, control=2, value=80, time=17),
    Message('note_on', channel=7, note=62, velocity=80, time=0),
    Message('control_change', channel=7, control=2, value=79, time=86),
    Message('note_on', channel=7, note=62, velocity=0, time=32),
    Message('note_on', channel=7, note=62, velocity=79, time=1),
    Message('control_change', channel=7, control=2, value=78, time=53),
    Message('note_on', channel=7, note=62, velocity=0, time=65),
    Message('note_on', channel=7, note=62, velocity=78, time=1),
    Message('control_change', channel=7, control=2, value=77, time=20),
    Message('control_change', channel=7, control=2, value=76, time=85),
    Message('note_on', channel=7, note=62, velocity=0, time=13),
    Message('note_on', channel=7, note=62, velocity=76, time=1),
    Message('control_change', channel=7, control=2, value=75, time=72),
    Message('note_on', channel=7, note=62, velocity=0, time=46),
    Message('note_on', channel=7, note=62, velocity=75, time=1),
    Message('control_change', channel=7, control=2, value=74, time=39),
    Message('note_on', channel=7, note=62, velocity=0, time=79),
    Message('note_on', channel=7, note=62, velocity=74, time=1),
    Message('control_change', channel=7, control=2, value=73, time=5),
    Message('control_change', channel=7, control=2, value=72, time=86),
    Message('note_on', channel=7, note=62, velocity=0, time=27),
    Message('note_on', channel=7, note=62, velocity=72, time=1),
    Message('control_change', channel=7, control=2, value=71, time=58),
    Message('note_on', channel=7, note=62, velocity=0, time=60),
    Message('note_on', channel=7, note=62, velocity=71, time=1),
    Message('control_change', channel=7, control=2, value=70, time=25),
    Message('control_change', channel=7, control=2, value=69, time=85),
    Message('note_on', channel=7, note=62, velocity=0, time=8),
    Message('note_on', channel=7, note=62, velocity=69, time=1),
    Message('control_change', channel=7, control=2, value=68, time=77),
    Message('note_on', channel=7, note=62, velocity=0, time=41),
    Message('note_on', channel=7, note=62, velocity=68, time=1),
    Message('control_change', channel=7, control=2, value=67, time=44),
    Message('note_on', channel=7, note=62, velocity=0, time=74),
    Message('note_on', channel=7, note=62, velocity=67, time=1),
    Message('control_change', channel=7, control=2, value=66, time=10),
    Message('control_change', channel=7, control=2, value=65, time=86),
    Message('note_on', channel=7, note=62, velocity=0, time=22),
    Message('note_on', channel=7, note=62, velocity=65, time=1),
    Message('control_change', channel=7, control=2, value=64, time=63),
    Message('note_on', channel=7, note=62, velocity=0, time=55),
    Message('note_on', channel=7, note=62, velocity=64, time=1),
    Message('control_change', channel=7, control=2, value=63, time=30),
    Message('control_change', channel=7, control=2, value=62, time=85),
    Message('note_on', channel=7, note=62, velocity=0, time=3),
    Message('note_on', channel=7, note=62, velocity=62, time=1),
    Message('control_change', channel=7, control=2, value=61, time=82),
    Message('note_on', channel=7, note=62, velocity=0, time=36),
    Message('note_on', channel=7, note=62, velocity=61, time=1),
    Message('control_change', channel=7, control=2, value=60, time=49),
    Message('note_on', channel=7, note=62, velocity=0, time=69),
    Message('note_on', channel=7, note=62, velocity=60, time=1),
    Message('control_change', channel=7, control=2, value=59, time=15),
    Message('control_change', channel=7, control=2, value=58, time=86),
    Message('note_on', channel=7, note=62, velocity=0, time=17),
    Message('note_on', channel=7, note=62, velocity=58, time=17),
    Message('control_change', channel=7, control=2, value=58, time=0),
    Message('control_change', channel=7, control=2, value=57, time=52),
    Message('note_on', channel=7, note=62, velocity=0, time=66),
    Message('note_on', channel=7, note=62, velocity=57, time=1),
    Message('control_change', channel=7, control=2, value=56, time=19),
    Message('control_change', channel=7, control=2, value=55, time=85),
    Message('note_on', channel=7, note=62, velocity=0, time=14),
    Message('note_on', channel=7, note=62, velocity=55, time=1),
    Message('control_change', channel=7, control=2, value=54, time=71),
    Message('note_on', channel=7, note=62, velocity=0, time=47),
    Message('note_on', channel=7, note=62, velocity=54, time=1),
    Message('control_change', channel=7, control=2, value=53, time=38),
    Message('note_on', channel=7, note=62, velocity=0, time=80),
    Message('note_on', channel=7, note=62, velocity=53, time=1),
    Message('control_change', channel=7, control=2, value=52, time=4),
    Message('control_change', channel=7, control=2, value=51, time=86),
    Message('note_on', channel=7, note=62, velocity=0, time=28),
    Message('note_on', channel=7, note=62, velocity=51, time=1),
    Message('control_change', channel=7, control=2, value=50, time=57),
    Message('note_on', channel=7, note=62, velocity=0, time=61),
    Message('note_on', channel=7, note=62, velocity=50, time=1),
    Message('control_change', channel=7, control=2, value=49, time=24),
    Message('control_change', channel=7, control=2, value=48, time=85),
    Message('note_on', channel=7, note=62, velocity=0, time=9),
    Message('note_on', channel=7, note=62, velocity=48, time=1),
    Message('control_change', channel=7, control=2, value=47, time=76),
    Message('note_on', channel=7, note=62, velocity=0, time=42),
    Message('note_on', channel=7, note=62, velocity=47, time=1),
    Message('control_change', channel=7, control=2, value=46, time=43),
    Message('note_on', channel=7, note=62, velocity=0, time=75),
    Message('note_on', channel=7, note=62, velocity=46, time=1),
    Message('control_change', channel=7, control=2, value=45, time=9),
    Message('control_change', channel=7, control=2, value=44, time=86),
    Message('note_on', channel=7, note=62, velocity=0, time=23),
    Message('note_on', channel=7, note=62, velocity=44, time=1),
    Message('control_change', channel=7, control=2, value=43, time=62),
    Message('note_on', channel=7, note=62, velocity=0, time=56),
    Message('note_on', channel=7, note=62, velocity=43, time=1),
    Message('control_change', channel=7, control=2, value=42, time=29),
    Message('control_change', channel=7, control=2, value=41, time=85),
    Message('note_on', channel=7, note=62, velocity=0, time=4),
    Message('note_on', channel=7, note=62, velocity=41, time=1),
    Message('control_change', channel=7, control=2, value=40, time=81),
    Message('note_on', channel=7, note=62, velocity=0, time=37),
    Message('note_on', channel=7, note=62, velocity=40, time=1),
    Message('control_change', channel=7, control=2, value=39, time=48),
    Message('note_on', channel=7, note=62, velocity=0, time=70),
    Message('note_on', channel=7, note=62, velocity=39, time=1),
    Message('control_change', channel=7, control=2, value=38, time=14),
    Message('control_change', channel=7, control=2, value=37, time=86),
    Message('note_on', channel=7, note=62, velocity=0, time=18),
    Message('note_on', channel=7, note=62, velocity=37, time=1),
    Message('control_change', channel=7, control=2, value=36, time=67),
    Message('note_on', channel=7, note=62, velocity=0, time=51),
    Message('note_on', channel=7, note=62, velocity=36, time=17),
    Message('control_change', channel=7, control=2, value=36, time=0),
    Message('control_change', channel=7, control=2, value=35, time=18),
    Message('control_change', channel=7, control=2, value=34, time=85),
    Message('control_change', channel=7, control=2, value=33, time=86),
    Message('control_change', channel=7, control=2, value=32, time=86),
    Message('control_change', channel=7, control=2, value=31, time=85),
    Message('control_change', channel=7, control=2, value=30, time=86),
    Message('note_on', channel=7, note=62, velocity=0, time=33),
    Message('control_change', channel=7, control=2, value=29, time=53),
    Message('control_change', channel=7, control=2, value=28, time=86),
    Message('control_change', channel=7, control=2, value=27, time=85),
    Message('control_change', channel=7, control=2, value=26, time=86),
    Message('control_change', channel=7, control=2, value=25, time=86),
    Message('control_change', channel=7, control=2, value=24, time=85),
    MetaMessage('end_of_track', time=1)]),
  MidiTrack([
    MetaMessage('track_name', name='Violas\x00', time=0),
    MetaMessage('key_signature', key='D', time=0),
    Message('control_change', channel=11, control=121, value=0, time=0),
    Message('program_change', channel=11, program=48, time=0),
    Message('control_change', channel=11, control=7, value=100, time=0),
    Message('control_change', channel=11, control=10, value=64, time=0),
    Message('control_change', channel=11, control=91, value=0, time=0),
    Message('control_change', channel=11, control=93, value=0, time=0),
    MetaMessage('midi_port', port=1, time=0),
    Message('note_on', channel=11, note=59, velocity=112, time=0),
    Message('control_change', channel=11, control=2, value=112, time=0),
    Message('control_change', channel=12, control=121, value=0, time=0),
    Message('program_change', channel=12, program=45, time=0),
    Message('control_change', channel=12, control=7, value=100, time=0),
    Message('control_change', channel=12, control=10, value=64, time=0),
    Message('control_change', channel=12, control=91, value=0, time=0),
    Message('control_change', channel=12, control=93, value=0, time=0),
    MetaMessage('midi_port', port=1, time=0),
    Message('control_change', channel=13, control=121, value=0, time=0),
    Message('program_change', channel=13, program=44, time=0),
    Message('control_change', channel=13, control=7, value=100, time=0),
    Message('control_change', channel=13, control=10, value=64, time=0),
    Message('control_change', channel=13, control=91, value=0, time=0),
    Message('control_change', channel=13, control=93, value=0, time=0),
    MetaMessage('midi_port', port=1, time=0),
    Message('control_change', channel=11, control=2, value=111, time=31),
    Message('note_on', channel=11, note=59, velocity=0, time=27),
    Message('note_on', channel=11, note=59, velocity=111, time=1),
    Message('control_change', channel=11, control=2, value=110, time=2),
    Message('control_change', channel=11, control=2, value=109, time=31),
    Message('note_on', channel=11, note=59, velocity=0, time=25),
    Message('note_on', channel=11, note=59, velocity=109, time=2),
    Message('control_change', channel=11, control=2, value=108, time=3),
    Message('control_change', channel=11, control=2, value=107, time=31),
    Message('note_on', channel=11, note=59, velocity=0, time=24),
    Message('note_on', channel=11, note=59, velocity=107, time=1),
    Message('control_change', channel=11, control=2, value=106, time=5),
    Message('control_change', channel=11, control=2, value=105, time=31),
    Message('note_on', channel=11, note=59, velocity=0, time=22),
    Message('note_on', channel=11, note=59, velocity=105, time=2),
    Message('control_change', channel=11, control=2, value=104, time=6),
    Message('control_change', channel=11, control=2, value=103, time=31),
    Message('note_on', channel=11, note=59, velocity=0, time=21),
    Message('note_on', channel=11, note=59, velocity=103, time=1),
    Message('control_change', channel=11, control=2, value=102, time=8),
    Message('control_change', channel=11, control=2, value=101, time=31),
    Message('note_on', channel=11, note=59, velocity=0, time=19),
    Message('note_on', channel=11, note=59, velocity=101, time=2),
    Message('control_change', channel=11, control=2, value=100, time=9),
    Message('control_change', channel=11, control=2, value=99, time=31),
    Message('note_on', channel=11, note=59, velocity=0, time=18),
    Message('note_on', channel=11, note=59, velocity=99, time=1),
    Message('control_change', channel=11, control=2, value=98, time=11),
    Message('control_change', channel=11, control=2, value=97, time=31),
    Message('note_on', channel=11, note=59, velocity=0, time=16),
    Message('note_on', channel=11, note=59, velocity=97, time=2),
    Message('control_change', channel=11, control=2, value=96, time=12),
    Message('control_change', channel=11, control=2, value=95, time=31),
    Message('note_on', channel=11, note=59, velocity=0, time=15),
    Message('note_on', channel=11, note=59, velocity=95, time=1),
    Message('control_change', channel=11, control=2, value=94, time=14),
    Message('control_change', channel=11, control=2, value=93, time=31),
    Message('note_on', channel=11, note=59, velocity=0, time=13),
    Message('note_on', channel=11, note=59, velocity=93, time=2),
    Message('control_change', channel=11, control=2, value=92, time=15),
    Message('control_change', channel=11, control=2, value=91, time=30),
    Message('note_on', channel=11, note=59, velocity=0, time=13),
    Message('note_on', channel=11, note=59, velocity=91, time=1),
    Message('control_change', channel=11, control=2, value=90, time=17),
    Message('control_change', channel=11, control=2, value=89, time=30),
    Message('note_on', channel=11, note=59, velocity=0, time=11),
    Message('note_on', channel=11, note=59, velocity=89, time=2),
    Message('control_change', channel=11, control=2, value=88, time=18),
    Message('control_change', channel=11, control=2, value=87, time=30),
    Message('note_on', channel=11, note=59, velocity=0, time=10),
    Message('note_on', channel=11, note=59, velocity=87, time=1),
    Message('control_change', channel=11, control=2, value=86, time=20),
    Message('control_change', channel=11, control=2, value=85, time=30),
    Message('note_on', channel=11, note=59, velocity=0, time=8),
    Message('note_on', channel=11, note=59, velocity=85, time=2),
    Message('control_change', channel=11, control=2, value=84, time=21),
    Message('control_change', channel=11, control=2, value=83, time=30),
    Message('note_on', channel=11, note=59, velocity=0, time=7),
    Message('note_on', channel=11, note=59, velocity=83, time=1),
    Message('control_change', channel=11, control=2, value=82, time=23),
    Message('control_change', channel=11, control=2, value=81, time=30),
    Message('note_on', channel=11, note=59, velocity=0, time=5),
    Message('note_on', channel=11, note=59, velocity=81, time=2),
    Message('control_change', channel=11, control=2, value=80, time=24),
    Message('control_change', channel=11, control=2, value=79, time=30),
    Message('note_on', channel=11, note=59, velocity=0, time=4),
    Message('note_on', channel=11, note=59, velocity=79, time=1),
    Message('control_change', channel=11, control=2, value=78, time=26),
    Message('control_change', channel=11, control=2, value=77, time=30),
    Message('note_on', channel=11, note=59, velocity=0, time=2),
    Message('note_on', channel=11, note=59, velocity=77, time=2),
    Message('control_change', channel=11, control=2, value=76, time=27),
    Message('control_change', channel=11, control=2, value=75, time=30),
    Message('note_on', channel=11, note=59, velocity=0, time=1),
    Message('note_on', channel=11, note=59, velocity=75, time=1),
    Message('control_change', channel=11, control=2, value=74, time=29),
    Message('note_on', channel=11, note=59, velocity=0, time=29),
    Message('control_change', channel=11, control=2, value=73, time=1),
    Message('note_on', channel=11, note=59, velocity=73, time=1),
    Message('control_change', channel=11, control=2, value=72, time=30),
    Message('note_on', channel=11, note=59, velocity=0, time=28),
    Message('note_on', channel=11, note=59, velocity=72, time=1),
    Message('control_change', channel=11, control=2, value=71, time=1),
    Message('control_change', channel=11, control=2, value=70, time=30),
    Message('note_on', channel=11, note=59, velocity=0, time=27),
    Message('note_on', channel=11, note=59, velocity=70, time=2),
    Message('control_change', channel=11, control=2, value=69, time=2),
    Message('control_change', channel=11, control=2, value=68, time=30),
    Message('note_on', channel=11, note=59, velocity=0, time=26),
    Message('note_on', channel=11, note=59, velocity=68, time=1),
    Message('control_change', channel=11, control=2, value=67, time=4),
    Message('control_change', channel=11, control=2, value=66, time=30),
    Message('note_on', channel=11, note=59, velocity=0, time=24),
    Message('note_on', channel=11, note=59, velocity=66, time=2),
    Message('control_change', channel=11, control=2, value=65, time=5),
    Message('control_change', channel=11, control=2, value=64, time=30),
    Message('note_on', channel=11, note=59, velocity=0, time=23),
    Message('note_on', channel=11, note=59, velocity=64, time=2),
    Message('control_change', channel=11, control=2, value=63, time=6),
    Message('control_change', channel=11, control=2, value=62, time=30),
    Message('note_on', channel=11, note=59, velocity=0, time=22),
    Message('note_on', channel=11, note=59, velocity=62, time=1),
    Message('control_change', channel=11, control=2, value=61, time=8),
    Message('control_change', channel=11, control=2, value=60, time=30),
    Message('note_on', channel=11, note=59, velocity=0, time=20),
    Message('note_on', channel=11, note=59, velocity=60, time=2),
    Message('control_change', channel=11, control=2, value=59, time=9),
    Message('control_change', channel=11, control=2, value=58, time=30),
    Message('note_on', channel=11, note=59, velocity=0, time=19),
    Message('note_on', channel=11, note=59, velocity=58, time=1),
    Message('control_change', channel=11, control=2, value=57, time=11),
    Message('control_change', channel=11, control=2, value=56, time=30),
    Message('note_on', channel=11, note=59, velocity=0, time=17),
    Message('note_on', channel=11, note=59, velocity=56, time=2),
    Message('control_change', channel=11, control=2, value=55, time=12),
    Message('control_change', channel=11, control=2, value=54, time=30),
    Message('note_on', channel=11, note=59, velocity=0, time=16),
    Message('note_on', channel=11, note=59, velocity=54, time=1),
    Message('control_change', channel=11, control=2, value=53, time=14),
    Message('control_change', channel=11, control=2, value=52, time=30),
    Message('note_on', channel=11, note=59, velocity=0, time=14),
    Message('note_on', channel=11, note=59, velocity=52, time=2),
    Message('control_change', channel=11, control=2, value=51, time=15),
    Message('control_change', channel=11, control=2, value=50, time=30),
    Message('note_on', channel=11, note=59, velocity=0, time=13),
    Message('control_change', channel=11, control=2, value=49, time=17),
    Message('note_on', channel=11, note=59, velocity=49, time=0),
    Message('note_on', channel=11, note=59, velocity=0, time=58),
    Message('note_on', channel=11, note=59, velocity=49, time=1),
    Message('note_on', channel=11, note=59, velocity=0, time=58),
    Message('note_on', channel=11, note=59, velocity=49, time=2),
    Message('note_on', channel=11, note=59, velocity=0, time=58),
    Message('note_on', channel=11, note=59, velocity=49, time=1),
    Message('note_on', channel=11, note=59, velocity=0, time=58),
    Message('note_on', channel=11, note=59, velocity=49, time=2),
    Message('note_on', channel=11, note=59, velocity=0, time=58),
    Message('note_on', channel=11, note=59, velocity=49, time=1),
    Message('note_on', channel=11, note=59, velocity=0, time=58),
    Message('note_on', channel=11, note=59, velocity=49, time=2),
    Message('note_on', channel=11, note=59, velocity=0, time=58),
    Message('note_on', channel=11, note=59, velocity=49, time=1),
    Message('note_on', channel=11, note=59, velocity=0, time=58),
    Message('note_on', channel=11, note=59, velocity=49, time=2),
    Message('note_on', channel=11, note=59, velocity=0, time=58),
    Message('note_on', channel=11, note=59, velocity=49, time=1),
    Message('note_on', channel=11, note=59, velocity=0, time=58),
    Message('note_on', channel=11, note=59, velocity=49, time=2),
    Message('note_on', channel=11, note=59, velocity=0, time=58),
    Message('note_on', channel=11, note=59, velocity=49, time=1),
    Message('note_on', channel=11, note=59, velocity=0, time=58),
    Message('note_on', channel=11, note=59, velocity=49, time=2),
    Message('note_on', channel=11, note=59, velocity=0, time=58),
    Message('note_on', channel=11, note=59, velocity=49, time=1),
    Message('note_on', channel=11, note=59, velocity=0, time=58),
    Message('note_on', channel=11, note=59, velocity=49, time=2),
    Message('note_on', channel=11, note=59, velocity=0, time=58),
    Message('note_on', channel=11, note=59, velocity=49, time=1),
    Message('note_on', channel=11, note=59, velocity=0, time=58),
    Message('note_on', channel=11, note=59, velocity=49, time=2),
    Message('note_on', channel=11, note=59, velocity=0, time=58),
    Message('note_on', channel=11, note=59, velocity=49, time=1),
    Message('note_on', channel=11, note=59, velocity=0, time=58),
    Message('note_on', channel=11, note=59, velocity=49, time=2),
    Message('note_on', channel=11, note=59, velocity=0, time=58),
    Message('note_on', channel=11, note=59, velocity=49, time=1),
    Message('note_on', channel=11, note=59, velocity=0, time=58),
    Message('note_on', channel=11, note=59, velocity=49, time=2),
    Message('note_on', channel=11, note=59, velocity=0, time=58),
    Message('note_on', channel=11, note=59, velocity=49, time=1),
    Message('note_on', channel=11, note=59, velocity=0, time=58),
    Message('note_on', channel=11, note=59, velocity=49, time=2),
    Message('note_on', channel=11, note=59, velocity=0, time=58),
    Message('note_on', channel=11, note=59, velocity=49, time=1),
    Message('note_on', channel=11, note=59, velocity=0, time=58),
    Message('note_on', channel=11, note=59, velocity=49, time=2),
    Message('note_on', channel=11, note=59, velocity=0, time=58),
    Message('note_on', channel=11, note=59, velocity=49, time=2),
    Message('note_on', channel=11, note=59, velocity=0, time=58),
    Message('note_on', channel=11, note=59, velocity=49, time=1),
    Message('note_on', channel=11, note=59, velocity=0, time=58),
    Message('note_on', channel=11, note=59, velocity=49, time=2),
    Message('note_on', channel=11, note=59, velocity=0, time=58),
    Message('note_on', channel=11, note=59, velocity=49, time=1),
    Message('note_on', channel=11, note=59, velocity=0, time=58),
    Message('note_on', channel=11, note=59, velocity=49, time=2),
    Message('note_on', channel=11, note=59, velocity=0, time=58),
    Message('note_on', channel=11, note=59, velocity=49, time=1),
    Message('note_on', channel=11, note=59, velocity=0, time=58),
    Message('note_on', channel=11, note=59, velocity=49, time=2),
    Message('note_on', channel=11, note=59, velocity=0, time=58),
    Message('note_on', channel=11, note=59, velocity=49, time=17),
    Message('control_change', channel=11, control=2, value=49, time=0),
    Message('note_on', channel=11, note=59, velocity=0, time=58),
    Message('note_on', channel=11, note=59, velocity=49, time=1),
    Message('note_on', channel=11, note=59, velocity=0, time=58),
    Message('note_on', channel=11, note=59, velocity=49, time=2),
    Message('note_on', channel=11, note=59, velocity=0, time=58),
    Message('note_on', channel=11, note=59, velocity=49, time=1),
    Message('note_on', channel=11, note=59, velocity=0, time=58),
    Message('note_on', channel=11, note=59, velocity=49, time=2),
    Message('note_on', channel=11, note=59, velocity=0, time=58),
    Message('note_on', channel=11, note=59, velocity=49, time=1),
    Message('note_on', channel=11, note=59, velocity=0, time=58),
    Message('note_on', channel=11, note=59, velocity=49, time=2),
    Message('note_on', channel=11, note=59, velocity=0, time=58),
    Message('note_on', channel=11, note=59, velocity=49, time=1),
    Message('note_on', channel=11, note=59, velocity=0, time=58),
    Message('note_on', channel=11, note=59, velocity=49, time=2),
    Message('note_on', channel=11, note=59, velocity=0, time=58),
    Message('note_on', channel=11, note=59, velocity=49, time=1),
    Message('note_on', channel=11, note=59, velocity=0, time=58),
    Message('note_on', channel=11, note=59, velocity=49, time=2),
    Message('note_on', channel=11, note=59, velocity=0, time=58),
    Message('note_on', channel=11, note=59, velocity=49, time=1),
    Message('note_on', channel=11, note=59, velocity=0, time=58),
    Message('note_on', channel=11, note=59, velocity=49, time=2),
    Message('note_on', channel=11, note=59, velocity=0, time=58),
    Message('note_on', channel=11, note=59, velocity=49, time=1),
    Message('note_on', channel=11, note=59, velocity=0, time=58),
    Message('note_on', channel=11, note=59, velocity=49, time=2),
    Message('note_on', channel=11, note=59, velocity=0, time=58),
    Message('note_on', channel=11, note=59, velocity=49, time=1),
    Message('note_on', channel=11, note=59, velocity=0, time=58),
    Message('note_on', channel=11, note=59, velocity=49, time=2),
    Message('note_on', channel=11, note=59, velocity=0, time=58),
    Message('note_on', channel=11, note=59, velocity=49, time=1),
    Message('note_on', channel=11, note=59, velocity=0, time=58),
    Message('note_on', channel=11, note=59, velocity=49, time=2),
    Message('note_on', channel=11, note=59, velocity=0, time=58),
    Message('note_on', channel=11, note=59, velocity=49, time=1),
    Message('note_on', channel=11, note=59, velocity=0, time=58),
    Message('note_on', channel=11, note=59, velocity=49, time=2),
    Message('note_on', channel=11, note=59, velocity=0, time=58),
    Message('note_on', channel=11, note=59, velocity=49, time=1),
    Message('note_on', channel=11, note=59, velocity=0, time=58),
    Message('note_on', channel=11, note=59, velocity=49, time=2),
    Message('note_on', channel=11, note=59, velocity=0, time=58),
    Message('note_on', channel=11, note=59, velocity=49, time=1),
    Message('note_on', channel=11, note=59, velocity=0, time=58),
    Message('note_on', channel=11, note=59, velocity=49, time=2),
    Message('note_on', channel=11, note=59, velocity=0, time=58),
    Message('note_on', channel=11, note=59, velocity=49, time=2),
    Message('note_on', channel=11, note=59, velocity=0, time=58),
    Message('note_on', channel=11, note=59, velocity=49, time=1),
    Message('note_on', channel=11, note=59, velocity=0, time=58),
    Message('note_on', channel=11, note=59, velocity=49, time=2),
    Message('note_on', channel=11, note=59, velocity=0, time=58),
    Message('note_on', channel=11, note=59, velocity=49, time=1),
    Message('note_on', channel=11, note=59, velocity=0, time=58),
    Message('note_on', channel=11, note=59, velocity=49, time=2),
    Message('note_on', channel=11, note=59, velocity=0, time=58),
    Message('note_on', channel=11, note=59, velocity=49, time=1),
    Message('note_on', channel=11, note=59, velocity=0, time=58),
    Message('note_on', channel=11, note=59, velocity=49, time=2),
    Message('note_on', channel=11, note=59, velocity=0, time=58),
    Message('note_on', channel=11, note=59, velocity=49, time=17),
    Message('control_change', channel=11, control=2, value=49, time=0),
    Message('note_on', channel=11, note=59, velocity=0, time=58),
    Message('note_on', channel=11, note=59, velocity=49, time=1),
    Message('note_on', channel=11, note=59, velocity=0, time=58),
    Message('note_on', channel=11, note=59, velocity=49, time=2),
    Message('note_on', channel=11, note=59, velocity=0, time=58),
    Message('note_on', channel=11, note=59, velocity=49, time=1),
    Message('note_on', channel=11, note=59, velocity=0, time=58),
    Message('note_on', channel=11, note=59, velocity=49, time=2),
    Message('note_on', channel=11, note=59, velocity=0, time=58),
    Message('note_on', channel=11, note=59, velocity=49, time=1),
    Message('note_on', channel=11, note=59, velocity=0, time=58),
    Message('note_on', channel=11, note=59, velocity=49, time=2),
    Message('note_on', channel=11, note=59, velocity=0, time=58),
    Message('note_on', channel=11, note=59, velocity=49, time=1),
    Message('note_on', channel=11, note=59, velocity=0, time=58),
    Message('note_on', channel=11, note=59, velocity=49, time=2),
    Message('note_on', channel=11, note=59, velocity=0, time=58),
    Message('note_on', channel=11, note=59, velocity=49, time=1),
    Message('note_on', channel=11, note=59, velocity=0, time=58),
    Message('note_on', channel=11, note=59, velocity=49, time=2),
    Message('note_on', channel=11, note=59, velocity=0, time=58),
    Message('note_on', channel=11, note=59, velocity=49, time=1),
    Message('note_on', channel=11, note=59, velocity=0, time=58),
    Message('note_on', channel=11, note=59, velocity=49, time=2),
    Message('note_on', channel=11, note=59, velocity=0, time=58),
    Message('note_on', channel=11, note=59, velocity=49, time=1),
    Message('note_on', channel=11, note=59, velocity=0, time=58),
    Message('note_on', channel=11, note=59, velocity=49, time=2),
    Message('note_on', channel=11, note=59, velocity=0, time=58),
    Message('note_on', channel=11, note=59, velocity=49, time=1),
    Message('note_on', channel=11, note=59, velocity=0, time=58),
    Message('note_on', channel=11, note=56, velocity=49, time=10),
    Message('control_change', channel=11, control=2, value=49, time=0),
    Message('note_on', channel=11, note=56, velocity=0, time=59),
    Message('note_on', channel=11, note=56, velocity=49, time=1),
    Message('note_on', channel=11, note=56, velocity=0, time=59),
    Message('note_on', channel=11, note=56, velocity=49, time=1),
    Message('note_on', channel=11, note=56, velocity=0, time=59),
    Message('note_on', channel=11, note=56, velocity=49, time=1),
    Message('note_on', channel=11, note=56, velocity=0, time=59),
    Message('note_on', channel=11, note=56, velocity=49, time=1),
    Message('note_on', channel=11, note=56, velocity=0, time=59),
    Message('note_on', channel=11, note=56, velocity=49, time=1),
    Message('note_on', channel=11, note=56, velocity=0, time=59),
    Message('note_on', channel=11, note=56, velocity=49, time=1),
    Message('note_on', channel=11, note=56, velocity=0, time=59),
    Message('note_on', channel=11, note=56, velocity=49, time=1),
    Message('note_on', channel=11, note=56, velocity=0, time=59),
    Message('note_on', channel=11, note=55, velocity=49, time=1),
    Message('control_change', channel=11, control=2, value=49, time=0),
    Message('note_on', channel=11, note=55, velocity=0, time=59),
    Message('note_on', channel=11, note=55, velocity=49, time=1),
    Message('note_on', channel=11, note=55, velocity=0, time=59),
    Message('note_on', channel=11, note=55, velocity=49, time=1),
    Message('note_on', channel=11, note=55, velocity=0, time=59),
    Message('note_on', channel=11, note=55, velocity=49, time=1),
    Message('note_on', channel=11, note=55, velocity=0, time=59),
    Message('note_on', channel=11, note=54, velocity=49, time=1),
    Message('control_change', channel=11, control=2, value=49, time=0),
    Message('note_on', channel=11, note=54, velocity=0, time=59),
    Message('note_on', channel=11, note=54, velocity=49, time=1),
    Message('note_on', channel=11, note=54, velocity=0, time=59),
    Message('note_on', channel=11, note=54, velocity=49, time=1),
    Message('note_on', channel=11, note=54, velocity=0, time=59),
    Message('note_on', channel=11, note=54, velocity=49, time=1),
    Message('note_on', channel=11, note=54, velocity=0, time=59),
    Message('note_on', channel=11, note=54, velocity=49, time=1),
    Message('control_change', channel=11, control=2, value=49, time=0),
    Message('note_on', channel=11, note=54, velocity=0, time=59),
    Message('note_on', channel=11, note=54, velocity=49, time=1),
    Message('note_on', channel=11, note=54, velocity=0, time=59),
    Message('note_on', channel=11, note=54, velocity=49, time=1),
    Message('note_on', channel=11, note=54, velocity=0, time=59),
    Message('note_on', channel=11, note=54, velocity=49, time=1),
    Message('note_on', channel=11, note=54, velocity=0, time=59),
    Message('note_on', channel=11, note=54, velocity=49, time=1),
    Message('note_on', channel=11, note=54, velocity=0, time=59),
    Message('note_on', channel=11, note=54, velocity=49, time=1),
    Message('note_on', channel=11, note=54, velocity=0, time=59),
    Message('note_on', channel=11, note=54, velocity=49, time=1),
    Message('note_on', channel=11, note=54, velocity=0, time=59),
    Message('note_on', channel=11, note=54, velocity=49, time=1),
    Message('note_on', channel=11, note=54, velocity=0, time=59),
    Message('note_on', channel=11, note=59, velocity=49, time=1),
    Message('control_change', channel=11, control=2, value=49, time=0),
    Message('note_on', channel=11, note=59, velocity=0, time=58),
    Message('note_on', channel=11, note=59, velocity=49, time=1),
    Message('note_on', channel=11, note=59, velocity=0, time=58),
    Message('note_on', channel=11, note=59, velocity=49, time=1),
    Message('note_on', channel=11, note=59, velocity=0, time=58),
    Message('note_on', channel=11, note=59, velocity=49, time=1),
    Message('note_on', channel=11, note=59, velocity=0, time=58),
    Message('note_on', channel=11, note=59, velocity=49, time=1),
    Message('note_on', channel=11, note=59, velocity=0, time=58),
    Message('note_on', channel=11, note=59, velocity=49, time=1),
    Message('note_on', channel=11, note=59, velocity=0, time=58),
    Message('note_on', channel=11, note=59, velocity=49, time=1),
    Message('note_on', channel=11, note=59, velocity=0, time=58),
    Message('note_on', channel=11, note=59, velocity=49, time=1),
    Message('note_on', channel=11, note=59, velocity=0, time=58),
    Message('note_on', channel=11, note=59, velocity=49, time=1),
    Message('note_on', channel=11, note=59, velocity=0, time=58),
    Message('note_on', channel=11, note=59, velocity=49, time=1),
    Message('note_on', channel=11, note=59, velocity=0, time=58),
    Message('note_on', channel=11, note=59, velocity=49, time=1),
    Message('note_on', channel=11, note=59, velocity=0, time=58),
    Message('note_on', channel=11, note=59, velocity=49, time=1),
    Message('note_on', channel=11, note=59, velocity=0, time=58),
    Message('note_on', channel=11, note=59, velocity=49, time=1),
    Message('note_on', channel=11, note=59, velocity=0, time=58),
    Message('note_on', channel=11, note=59, velocity=49, time=1),
    Message('note_on', channel=11, note=59, velocity=0, time=58),
    Message('note_on', channel=11, note=59, velocity=49, time=1),
    Message('note_on', channel=11, note=59, velocity=0, time=58),
    Message('note_on', channel=11, note=59, velocity=49, time=1),
    Message('note_on', channel=11, note=59, velocity=0, time=58),
    Message('note_on', channel=11, note=59, velocity=49, time=1),
    Message('note_on', channel=11, note=59, velocity=0, time=58),
    Message('note_on', channel=11, note=59, velocity=49, time=1),
    Message('note_on', channel=11, note=59, velocity=0, time=58),
    Message('note_on', channel=11, note=59, velocity=49, time=1),
    Message('note_on', channel=11, note=59, velocity=0, time=58),
    Message('note_on', channel=11, note=59, velocity=49, time=1),
    Message('note_on', channel=11, note=59, velocity=0, time=58),
    Message('note_on', channel=11, note=59, velocity=49, time=1),
    Message('note_on', channel=11, note=59, velocity=0, time=58),
    Message('note_on', channel=11, note=59, velocity=49, time=1),
    Message('note_on', channel=11, note=59, velocity=0, time=58),
    Message('note_on', channel=11, note=59, velocity=49, time=1),
    Message('note_on', channel=11, note=59, velocity=0, time=58),
    Message('note_on', channel=11, note=59, velocity=49, time=1),
    Message('note_on', channel=11, note=59, velocity=0, time=58),
    Message('note_on', channel=11, note=57, velocity=49, time=505),
    Message('control_change', channel=11, control=2, value=49, time=0),
    Message('note_on', channel=11, note=57, velocity=0, time=59),
    Message('note_on', channel=11, note=57, velocity=49, time=1),
    Message('note_on', channel=11, note=57, velocity=0, time=59),
    Message('note_on', channel=11, note=57, velocity=49, time=1),
    Message('note_on', channel=11, note=57, velocity=0, time=59),
    Message('note_on', channel=11, note=57, velocity=49, time=1),
    Message('note_on', channel=11, note=57, velocity=0, time=59),
    Message('note_on', channel=11, note=57, velocity=49, time=1),
    Message('note_on', channel=11, note=57, velocity=0, time=59),
    Message('note_on', channel=11, note=57, velocity=49, time=1),
    Message('note_on', channel=11, note=57, velocity=0, time=59),
    Message('note_on', channel=11, note=57, velocity=49, time=1),
    Message('note_on', channel=11, note=57, velocity=0, time=59),
    Message('note_on', channel=11, note=57, velocity=49, time=1),
    Message('note_on', channel=11, note=57, velocity=0, time=59),
    Message('note_on', channel=11, note=56, velocity=49, time=1),
    Message('control_change', channel=11, control=2, value=49, time=0),
    Message('note_on', channel=11, note=56, velocity=0, time=59),
    Message('note_on', channel=11, note=56, velocity=49, time=1),
    Message('note_on', channel=11, note=56, velocity=0, time=59),
    Message('note_on', channel=11, note=56, velocity=49, time=1),
    Message('note_on', channel=11, note=56, velocity=0, time=59),
    Message('note_on', channel=11, note=56, velocity=49, time=1),
    Message('note_on', channel=11, note=56, velocity=0, time=59),
    Message('note_on', channel=11, note=56, velocity=49, time=1),
    Message('note_on', channel=11, note=56, velocity=0, time=59),
    Message('note_on', channel=11, note=56, velocity=49, time=1),
    Message('note_on', channel=11, note=56, velocity=0, time=59),
    Message('note_on', channel=11, note=56, velocity=49, time=1),
    Message('note_on', channel=11, note=56, velocity=0, time=59),
    Message('note_on', channel=11, note=56, velocity=49, time=1),
    Message('note_on', channel=11, note=56, velocity=0, time=59),
    Message('note_on', channel=11, note=55, velocity=49, time=1),
    Message('control_change', channel=11, control=2, value=49, time=0),
    Message('note_on', channel=11, note=55, velocity=0, time=59),
    Message('note_on', channel=11, note=55, velocity=49, time=1),
    Message('note_on', channel=11, note=55, velocity=0, time=59),
    Message('note_on', channel=11, note=55, velocity=49, time=1),
    Message('note_on', channel=11, note=55, velocity=0, time=59),
    Message('note_on', channel=11, note=55, velocity=49, time=1),
    Message('note_on', channel=11, note=55, velocity=0, time=59),
    Message('note_on', channel=11, note=55, velocity=49, time=1),
    Message('note_on', channel=11, note=55, velocity=0, time=59),
    Message('note_on', channel=11, note=55, velocity=49, time=1),
    Message('note_on', channel=11, note=55, velocity=0, time=59),
    Message('note_on', channel=11, note=55, velocity=49, time=1),
    Message('note_on', channel=11, note=55, velocity=0, time=59),
    Message('note_on', channel=11, note=55, velocity=49, time=1),
    Message('note_on', channel=11, note=55, velocity=0, time=59),
    Message('note_on', channel=11, note=54, velocity=49, time=1),
    Message('control_change', channel=11, control=2, value=49, time=0),
    Message('note_on', channel=11, note=54, velocity=0, time=58),
    Message('note_on', channel=11, note=54, velocity=49, time=1),
    Message('note_on', channel=11, note=54, velocity=0, time=58),
    Message('note_on', channel=11, note=54, velocity=49, time=2),
    Message('note_on', channel=11, note=54, velocity=0, time=58),
    Message('note_on', channel=11, note=54, velocity=49, time=1),
    Message('note_on', channel=11, note=54, velocity=0, time=58),
    Message('note_on', channel=11, note=54, velocity=49, time=2),
    Message('note_on', channel=11, note=54, velocity=0, time=58),
    Message('note_on', channel=11, note=54, velocity=49, time=1),
    Message('note_on', channel=11, note=54, velocity=0, time=58),
    Message('note_on', channel=11, note=54, velocity=49, time=2),
    Message('note_on', channel=11, note=54, velocity=0, time=58),
    Message('note_on', channel=11, note=54, velocity=49, time=1),
    Message('note_on', channel=11, note=54, velocity=0, time=58),
    Message('note_on', channel=11, note=54, velocity=49, time=2),
    Message('note_on', channel=11, note=54, velocity=0, time=58),
    Message('note_on', channel=11, note=54, velocity=49, time=1),
    Message('note_on', channel=11, note=54, velocity=0, time=58),
    Message('note_on', channel=11, note=54, velocity=49, time=2),
    Message('note_on', channel=11, note=54, velocity=0, time=58),
    Message('note_on', channel=11, note=54, velocity=49, time=1),
    Message('note_on', channel=11, note=54, velocity=0, time=58),
    Message('note_on', channel=11, note=54, velocity=49, time=2),
    Message('note_on', channel=11, note=54, velocity=0, time=58),
    Message('note_on', channel=11, note=54, velocity=49, time=1),
    Message('note_on', channel=11, note=54, velocity=0, time=58),
    Message('note_on', channel=11, note=54, velocity=49, time=2),
    Message('note_on', channel=11, note=54, velocity=0, time=58),
    Message('note_on', channel=11, note=54, velocity=49, time=1),
    Message('note_on', channel=11, note=54, velocity=0, time=58),
    Message('note_on', channel=11, note=54, velocity=49, time=2),
    Message('note_on', channel=11, note=54, velocity=0, time=58),
    Message('note_on', channel=11, note=54, velocity=49, time=1),
    Message('note_on', channel=11, note=54, velocity=0, time=58),
    Message('note_on', channel=11, note=54, velocity=49, time=2),
    Message('note_on', channel=11, note=54, velocity=0, time=58),
    Message('note_on', channel=11, note=54, velocity=49, time=1),
    Message('note_on', channel=11, note=54, velocity=0, time=58),
    Message('note_on', channel=11, note=54, velocity=49, time=2),
    Message('note_on', channel=11, note=54, velocity=0, time=58),
    Message('note_on', channel=11, note=54, velocity=49, time=1),
    Message('note_on', channel=11, note=54, velocity=0, time=58),
    Message('note_on', channel=11, note=54, velocity=49, time=2),
    Message('note_on', channel=11, note=54, velocity=0, time=58),
    Message('note_on', channel=11, note=54, velocity=49, time=1),
    Message('note_on', channel=11, note=54, velocity=0, time=58),
    Message('note_on', channel=11, note=54, velocity=49, time=2),
    Message('note_on', channel=11, note=54, velocity=0, time=58),
    Message('note_on', channel=11, note=54, velocity=49, time=2),
    Message('note_on', channel=11, note=54, velocity=0, time=58),
    Message('note_on', channel=11, note=54, velocity=49, time=1),
    Message('note_on', channel=11, note=54, velocity=0, time=58),
    Message('note_on', channel=11, note=54, velocity=49, time=2),
    Message('note_on', channel=11, note=54, velocity=0, time=58),
    Message('note_on', channel=11, note=54, velocity=49, time=1),
    Message('note_on', channel=11, note=54, velocity=0, time=58),
    Message('note_on', channel=11, note=54, velocity=49, time=2),
    Message('note_on', channel=11, note=54, velocity=0, time=58),
    Message('note_on', channel=11, note=54, velocity=49, time=1),
    Message('note_on', channel=11, note=54, velocity=0, time=58),
    Message('note_on', channel=11, note=54, velocity=49, time=2),
    Message('note_on', channel=11, note=54, velocity=0, time=58),
    Message('note_on', channel=11, note=54, velocity=49, time=17),
    Message('control_change', channel=11, control=2, value=49, time=0),
    Message('note_on', channel=11, note=54, velocity=0, time=58),
    Message('note_on', channel=11, note=54, velocity=49, time=1),
    Message('note_on', channel=11, note=54, velocity=0, time=58),
    Message('note_on', channel=11, note=54, velocity=49, time=2),
    Message('note_on', channel=11, note=54, velocity=0, time=58),
    Message('note_on', channel=11, note=54, velocity=49, time=1),
    Message('note_on', channel=11, note=54, velocity=0, time=58),
    Message('note_on', channel=11, note=54, velocity=49, time=2),
    Message('note_on', channel=11, note=54, velocity=0, time=58),
    Message('note_on', channel=11, note=54, velocity=49, time=1),
    Message('note_on', channel=11, note=54, velocity=0, time=58),
    Message('note_on', channel=11, note=54, velocity=49, time=2),
    Message('note_on', channel=11, note=54, velocity=0, time=58),
    Message('note_on', channel=11, note=54, velocity=49, time=1),
    Message('note_on', channel=11, note=54, velocity=0, time=58),
    Message('note_on', channel=11, note=54, velocity=49, time=2),
    Message('note_on', channel=11, note=54, velocity=0, time=58),
    Message('note_on', channel=11, note=54, velocity=49, time=1),
    Message('note_on', channel=11, note=54, velocity=0, time=58),
    Message('note_on', channel=11, note=54, velocity=49, time=2),
    Message('note_on', channel=11, note=54, velocity=0, time=58),
    Message('note_on', channel=11, note=54, velocity=49, time=1),
    Message('note_on', channel=11, note=54, velocity=0, time=58),
    Message('note_on', channel=11, note=54, velocity=49, time=2),
    Message('note_on', channel=11, note=54, velocity=0, time=58),
    Message('note_on', channel=11, note=54, velocity=49, time=1),
    Message('note_on', channel=11, note=54, velocity=0, time=58),
    Message('note_on', channel=11, note=54, velocity=49, time=2),
    Message('note_on', channel=11, note=54, velocity=0, time=58),
    Message('note_on', channel=11, note=54, velocity=49, time=1),
    Message('note_on', channel=11, note=54, velocity=0, time=58),
    Message('note_on', channel=11, note=53, velocity=49, time=10),
    Message('control_change', channel=11, control=2, value=49, time=0),
    Message('note_on', channel=11, note=53, velocity=0, time=59),
    Message('note_on', channel=11, note=53, velocity=49, time=1),
    Message('note_on', channel=11, note=53, velocity=0, time=59),
    Message('note_on', channel=11, note=53, velocity=49, time=1),
    Message('note_on', channel=11, note=53, velocity=0, time=59),
    Message('note_on', channel=11, note=53, velocity=49, time=1),
    Message('note_on', channel=11, note=53, velocity=0, time=59),
    Message('note_on', channel=11, note=53, velocity=49, time=1),
    Message('note_on', channel=11, note=53, velocity=0, time=59),
    Message('note_on', channel=11, note=53, velocity=49, time=1),
    Message('note_on', channel=11, note=53, velocity=0, time=59),
    Message('note_on', channel=11, note=53, velocity=49, time=1),
    Message('note_on', channel=11, note=53, velocity=0, time=59),
    Message('note_on', channel=11, note=53, velocity=49, time=1),
    Message('note_on', channel=11, note=53, velocity=0, time=59),
    Message('note_on', channel=11, note=52, velocity=49, time=1),
    Message('control_change', channel=11, control=2, value=49, time=0),
    Message('note_on', channel=11, note=52, velocity=0, time=59),
    Message('note_on', channel=11, note=52, velocity=49, time=1),
    Message('note_on', channel=11, note=52, velocity=0, time=59),
    Message('note_on', channel=11, note=52, velocity=49, time=1),
    Message('note_on', channel=11, note=52, velocity=0, time=59),
    Message('note_on', channel=11, note=52, velocity=49, time=1),
    Message('note_on', channel=11, note=52, velocity=0, time=59),
    Message('note_on', channel=11, note=52, velocity=49, time=1),
    Message('note_on', channel=11, note=52, velocity=0, time=59),
    Message('note_on', channel=11, note=52, velocity=49, time=1),
    Message('note_on', channel=11, note=52, velocity=0, time=59),
    Message('note_on', channel=11, note=52, velocity=49, time=1),
    Message('note_on', channel=11, note=52, velocity=0, time=59),
    Message('note_on', channel=11, note=52, velocity=49, time=1),
    Message('note_on', channel=11, note=52, velocity=0, time=59),
    Message('note_on', channel=11, note=54, velocity=49, time=1),
    Message('control_change', channel=11, control=2, value=49, time=0),
    Message('note_on', channel=11, note=54, velocity=0, time=59),
    Message('note_on', channel=11, note=54, velocity=49, time=1),
    Message('note_on', channel=11, note=54, velocity=0, time=59),
    Message('note_on', channel=11, note=54, velocity=49, time=1),
    Message('note_on', channel=11, note=54, velocity=0, time=59),
    Message('note_on', channel=11, note=54, velocity=49, time=1),
    Message('note_on', channel=11, note=54, velocity=0, time=59),
    Message('note_on', channel=11, note=54, velocity=49, time=1),
    Message('note_on', channel=11, note=54, velocity=0, time=59),
    Message('note_on', channel=11, note=54, velocity=49, time=1),
    Message('note_on', channel=11, note=54, velocity=0, time=59),
    Message('note_on', channel=11, note=54, velocity=49, time=1),
    Message('note_on', channel=11, note=54, velocity=0, time=59),
    Message('note_on', channel=11, note=54, velocity=49, time=1),
    Message('note_on', channel=11, note=54, velocity=0, time=59),
    Message('note_on', channel=11, note=59, velocity=49, time=1),
    Message('control_change', channel=11, control=2, value=49, time=0),
    Message('note_on', channel=11, note=59, velocity=0, time=59),
    Message('note_on', channel=11, note=59, velocity=49, time=1),
    Message('note_on', channel=11, note=59, velocity=0, time=59),
    Message('note_on', channel=11, note=59, velocity=49, time=1),
    Message('note_on', channel=11, note=59, velocity=0, time=59),
    Message('note_on', channel=11, note=59, velocity=49, time=1),
    Message('note_on', channel=11, note=59, velocity=0, time=59),
    Message('note_on', channel=11, note=59, velocity=49, time=1),
    Message('note_on', channel=11, note=59, velocity=0, time=59),
    Message('note_on', channel=11, note=59, velocity=49, time=1),
    Message('note_on', channel=11, note=59, velocity=0, time=59),
    Message('note_on', channel=11, note=59, velocity=49, time=1),
    Message('note_on', channel=11, note=59, velocity=0, time=59),
    Message('note_on', channel=11, note=59, velocity=49, time=1),
    Message('note_on', channel=11, note=59, velocity=0, time=59),
    Message('note_on', channel=11, note=62, velocity=49, time=1),
    Message('control_change', channel=11, control=2, value=49, time=0),
    Message('note_on', channel=11, note=62, velocity=0, time=58),
    Message('note_on', channel=11, note=62, velocity=49, time=1),
    Message('note_on', channel=11, note=62, velocity=0, time=58),
    Message('note_on', channel=11, note=62, velocity=49, time=2),
    Message('note_on', channel=11, note=62, velocity=0, time=58),
    Message('note_on', channel=11, note=62, velocity=49, time=1),
    Message('note_on', channel=11, note=62, velocity=0, time=58),
    Message('note_on', channel=11, note=62, velocity=49, time=2),
    Message('note_on', channel=11, note=62, velocity=0, time=58),
    Message('note_on', channel=11, note=62, velocity=49, time=1),
    Message('note_on', channel=11, note=62, velocity=0, time=58),
    Message('note_on', channel=11, note=62, velocity=49, time=2),
    Message('note_on', channel=11, note=62, velocity=0, time=58),
    Message('note_on', channel=11, note=62, velocity=49, time=1),
    Message('note_on', channel=11, note=62, velocity=0, time=58),
    Message('note_on', channel=11, note=62, velocity=49, time=2),
    Message('note_on', channel=11, note=62, velocity=0, time=58),
    Message('note_on', channel=11, note=62, velocity=49, time=1),
    Message('note_on', channel=11, note=62, velocity=0, time=58),
    Message('note_on', channel=11, note=62, velocity=49, time=2),
    Message('note_on', channel=11, note=62, velocity=0, time=58),
    Message('note_on', channel=11, note=62, velocity=49, time=1),
    Message('note_on', channel=11, note=62, velocity=0, time=58),
    Message('note_on', channel=11, note=62, velocity=49, time=2),
    Message('note_on', channel=11, note=62, velocity=0, time=58),
    Message('note_on', channel=11, note=62, velocity=49, time=1),
    Message('note_on', channel=11, note=62, velocity=0, time=58),
    Message('note_on', channel=11, note=62, velocity=49, time=2),
    Message('note_on', channel=11, note=62, velocity=0, time=58),
    Message('note_on', channel=11, note=62, velocity=49, time=1),
    Message('note_on', channel=11, note=62, velocity=0, time=58),
    Message('control_change', channel=11, control=2, value=49, time=10),
    Message('note_on', channel=11, note=61, velocity=49, time=0),
    Message('note_on', channel=11, note=61, velocity=0, time=58),
    Message('note_on', channel=11, note=61, velocity=49, time=1),
    Message('control_change', channel=11, control=2, value=50, time=3),
    Message('note_on', channel=11, note=61, velocity=0, time=55),
    Message('note_on', channel=11, note=61, velocity=50, time=2),
    Message('control_change', channel=11, control=2, value=51, time=5),
    Message('note_on', channel=11, note=61, velocity=0, time=53),
    Message('note_on', channel=11, note=61, velocity=51, time=1),
    Message('control_change', channel=11, control=2, value=52, time=8),
    Message('note_on', channel=11, note=61, velocity=0, time=50),
    Message('note_on', channel=11, note=61, velocity=52, time=2),
    Message('control_change', channel=11, control=2, value=53, time=10),
    Message('note_on', channel=11, note=61, velocity=0, time=48),
    Message('note_on', channel=11, note=61, velocity=53, time=1),
    Message('control_change', channel=11, control=2, value=54, time=13),
    Message('note_on', channel=11, note=61, velocity=0, time=45),
    Message('note_on', channel=11, note=61, velocity=54, time=2),
    Message('control_change', channel=11, control=2, value=55, time=15),
    Message('note_on', channel=11, note=61, velocity=0, time=43),
    Message('note_on', channel=11, note=61, velocity=55, time=1),
    Message('control_change', channel=11, control=2, value=56, time=18),
    Message('note_on', channel=11, note=61, velocity=0, time=40),
    Message('note_on', channel=11, note=61, velocity=56, time=2),
    Message('control_change', channel=11, control=2, value=57, time=20),
    Message('note_on', channel=11, note=61, velocity=0, time=38),
    Message('note_on', channel=11, note=61, velocity=57, time=1),
    Message('control_change', channel=11, control=2, value=58, time=23),
    Message('note_on', channel=11, note=61, velocity=0, time=35),
    Message('note_on', channel=11, note=61, velocity=58, time=2),
    Message('control_change', channel=11, control=2, value=59, time=25),
    Message('note_on', channel=11, note=61, velocity=0, time=33),
    Message('note_on', channel=11, note=61, velocity=59, time=1),
    Message('control_change', channel=11, control=2, value=60, time=28),
    Message('note_on', channel=11, note=61, velocity=0, time=30),
    Message('note_on', channel=11, note=61, velocity=60, time=2),
    Message('control_change', channel=11, control=2, value=61, time=30),
    Message('note_on', channel=11, note=61, velocity=0, time=28),
    Message('note_on', channel=11, note=61, velocity=61, time=1),
    Message('control_change', channel=11, control=2, value=62, time=33),
    Message('note_on', channel=11, note=61, velocity=0, time=25),
    Message('note_on', channel=11, note=61, velocity=62, time=2),
    Message('control_change', channel=11, control=2, value=63, time=35),
    Message('note_on', channel=11, note=61, velocity=0, time=23),
    Message('note_on', channel=11, note=61, velocity=63, time=1),
    Message('control_change', channel=11, control=2, value=64, time=38),
    Message('note_on', channel=11, note=61, velocity=0, time=20),
    Message('note_on', channel=11, note=61, velocity=64, time=2),
    Message('control_change', channel=11, control=2, value=65, time=39),
    Message('note_on', channel=11, note=61, velocity=0, time=19),
    Message('note_on', channel=11, note=61, velocity=65, time=1),
    Message('control_change', channel=11, control=2, value=66, time=42),
    Message('note_on', channel=11, note=61, velocity=0, time=16),
    Message('note_on', channel=11, note=61, velocity=66, time=2),
    Message('control_change', channel=11, control=2, value=67, time=44),
    Message('note_on', channel=11, note=61, velocity=0, time=14),
    Message('note_on', channel=11, note=61, velocity=67, time=1),
    Message('control_change', channel=11, control=2, value=68, time=47),
    Message('note_on', channel=11, note=61, velocity=0, time=11),
    Message('note_on', channel=11, note=61, velocity=68, time=2),
    Message('control_change', channel=11, control=2, value=69, time=49),
    Message('note_on', channel=11, note=61, velocity=0, time=9),
    Message('note_on', channel=11, note=61, velocity=69, time=1),
    Message('control_change', channel=11, control=2, value=70, time=52),
    Message('note_on', channel=11, note=61, velocity=0, time=6),
    Message('note_on', channel=11, note=61, velocity=70, time=2),
    Message('control_change', channel=11, control=2, value=71, time=54),
    Message('note_on', channel=11, note=61, velocity=0, time=4),
    Message('note_on', channel=11, note=61, velocity=71, time=1),
    Message('control_change', channel=11, control=2, value=72, time=57),
    Message('note_on', channel=11, note=61, velocity=0, time=1),
    Message('note_on', channel=11, note=61, velocity=72, time=2),
    Message('note_on', channel=11, note=61, velocity=0, time=58),
    Message('control_change', channel=11, control=2, value=73, time=1),
    Message('note_on', channel=11, note=61, velocity=73, time=1),
    Message('note_on', channel=11, note=61, velocity=0, time=58),
    Message('note_on', channel=11, note=61, velocity=73, time=1),
    Message('control_change', channel=11, control=2, value=74, time=2),
    Message('note_on', channel=11, note=61, velocity=0, time=56),
    Message('note_on', channel=11, note=61, velocity=74, time=2),
    Message('control_change', channel=11, control=2, value=75, time=4),
    Message('note_on', channel=11, note=61, velocity=0, time=54),
    Message('note_on', channel=11, note=61, velocity=75, time=1),
    Message('control_change', channel=11, control=2, value=76, time=7),
    Message('note_on', channel=11, note=61, velocity=0, time=51),
    Message('note_on', channel=11, note=61, velocity=76, time=2),
    Message('control_change', channel=11, control=2, value=77, time=9),
    Message('note_on', channel=11, note=61, velocity=0, time=49),
    Message('note_on', channel=11, note=61, velocity=77, time=1),
    Message('control_change', channel=11, control=2, value=78, time=12),
    Message('note_on', channel=11, note=61, velocity=0, time=46),
    Message('note_on', channel=11, note=61, velocity=78, time=2),
    Message('control_change', channel=11, control=2, value=79, time=14),
    Message('note_on', channel=11, note=61, velocity=0, time=44),
    Message('control_change', channel=11, control=2, value=80, time=17),
    Message('note_on', channel=11, note=61, velocity=80, time=0),
    Message('note_on', channel=11, note=61, velocity=0, time=58),
    Message('note_on', channel=11, note=61, velocity=80, time=1),
    Message('control_change', channel=11, control=2, value=79, time=3),
    Message('note_on', channel=11, note=61, velocity=0, time=55),
    Message('note_on', channel=11, note=61, velocity=79, time=2),
    Message('control_change', channel=11, control=2, value=78, time=5),
    Message('note_on', channel=11, note=61, velocity=0, time=53),
    Message('note_on', channel=11, note=61, velocity=78, time=1),
    Message('control_change', channel=11, control=2, value=77, time=8),
    Message('note_on', channel=11, note=61, velocity=0, time=50),
    Message('note_on', channel=11, note=61, velocity=77, time=2),
    Message('control_change', channel=11, control=2, value=76, time=10),
    Message('note_on', channel=11, note=61, velocity=0, time=48),
    Message('note_on', channel=11, note=61, velocity=76, time=1),
    Message('control_change', channel=11, control=2, value=75, time=13),
    Message('note_on', channel=11, note=61, velocity=0, time=45),
    Message('note_on', channel=11, note=61, velocity=75, time=2),
    Message('control_change', channel=11, control=2, value=74, time=15),
    Message('note_on', channel=11, note=61, velocity=0, time=43),
    Message('note_on', channel=11, note=61, velocity=74, time=1),
    Message('control_change', channel=11, control=2, value=73, time=18),
    Message('note_on', channel=11, note=61, velocity=0, time=40),
    Message('note_on', channel=11, note=61, velocity=73, time=2),
    Message('control_change', channel=11, control=2, value=72, time=20),
    Message('note_on', channel=11, note=61, velocity=0, time=38),
    Message('note_on', channel=11, note=61, velocity=72, time=1),
    Message('control_change', channel=11, control=2, value=71, time=23),
    Message('note_on', channel=11, note=61, velocity=0, time=35),
    Message('note_on', channel=11, note=61, velocity=71, time=2),
    Message('control_change', channel=11, control=2, value=70, time=25),
    Message('note_on', channel=11, note=61, velocity=0, time=33),
    Message('note_on', channel=11, note=61, velocity=70, time=1),
    Message('control_change', channel=11, control=2, value=69, time=28),
    Message('note_on', channel=11, note=61, velocity=0, time=30),
    Message('note_on', channel=11, note=61, velocity=69, time=2),
    Message('control_change', channel=11, control=2, value=68, time=30),
    Message('note_on', channel=11, note=61, velocity=0, time=28),
    Message('note_on', channel=11, note=61, velocity=68, time=1),
    Message('control_change', channel=11, control=2, value=67, time=33),
    Message('note_on', channel=11, note=61, velocity=0, time=25),
    Message('note_on', channel=11, note=61, velocity=67, time=2),
    Message('control_change', channel=11, control=2, value=66, time=35),
    Message('note_on', channel=11, note=61, velocity=0, time=23),
    Message('note_on', channel=11, note=61, velocity=66, time=1),
    Message('control_change', channel=11, control=2, value=65, time=38),
    Message('note_on', channel=11, note=61, velocity=0, time=20),
    Message('note_on', channel=11, note=61, velocity=65, time=2),
    Message('control_change', channel=11, control=2, value=64, time=39),
    Message('note_on', channel=11, note=61, velocity=0, time=19),
    Message('note_on', channel=11, note=61, velocity=64, time=1),
    Message('control_change', channel=11, control=2, value=63, time=42),
    Message('note_on', channel=11, note=61, velocity=0, time=16),
    Message('note_on', channel=11, note=61, velocity=63, time=2),
    Message('control_change', channel=11, control=2, value=62, time=44),
    Message('note_on', channel=11, note=61, velocity=0, time=14),
    Message('note_on', channel=11, note=61, velocity=62, time=1),
    Message('control_change', channel=11, control=2, value=61, time=47),
    Message('note_on', channel=11, note=61, velocity=0, time=11),
    Message('note_on', channel=11, note=61, velocity=61, time=2),
    Message('control_change', channel=11, control=2, value=60, time=49),
    Message('note_on', channel=11, note=61, velocity=0, time=9),
    Message('note_on', channel=11, note=61, velocity=60, time=1),
    Message('control_change', channel=11, control=2, value=59, time=52),
    Message('note_on', channel=11, note=61, velocity=0, time=6),
    Message('note_on', channel=11, note=61, velocity=59, time=2),
    Message('control_change', channel=11, control=2, value=58, time=54),
    Message('note_on', channel=11, note=61, velocity=0, time=4),
    Message('note_on', channel=11, note=61, velocity=58, time=1),
    Message('control_change', channel=11, control=2, value=57, time=57),
    Message('note_on', channel=11, note=61, velocity=0, time=1),
    Message('note_on', channel=11, note=61, velocity=57, time=2),
    Message('note_on', channel=11, note=61, velocity=0, time=58),
    Message('control_change', channel=11, control=2, value=56, time=1),
    Message('note_on', channel=11, note=61, velocity=56, time=1),
    Message('note_on', channel=11, note=61, velocity=0, time=58),
    Message('note_on', channel=11, note=61, velocity=56, time=1),
    Message('control_change', channel=11, control=2, value=55, time=2),
    Message('note_on', channel=11, note=61, velocity=0, time=56),
    Message('note_on', channel=11, note=61, velocity=55, time=2),
    Message('control_change', channel=11, control=2, value=54, time=4),
    Message('note_on', channel=11, note=61, velocity=0, time=54),
    Message('note_on', channel=11, note=61, velocity=54, time=1),
    Message('control_change', channel=11, control=2, value=53, time=7),
    Message('note_on', channel=11, note=61, velocity=0, time=51),
    Message('note_on', channel=11, note=61, velocity=53, time=2),
    Message('control_change', channel=11, control=2, value=52, time=9),
    Message('note_on', channel=11, note=61, velocity=0, time=49),
    Message('note_on', channel=11, note=61, velocity=52, time=1),
    Message('control_change', channel=11, control=2, value=51, time=12),
    Message('note_on', channel=11, note=61, velocity=0, time=46),
    Message('note_on', channel=11, note=61, velocity=51, time=2),
    Message('control_change', channel=11, control=2, value=50, time=14),
    Message('note_on', channel=11, note=61, velocity=0, time=44),
    Message('control_change', channel=11, control=2, value=49, time=17),
    Message('note_on', channel=11, note=64, velocity=49, time=0),
    Message('note_on', channel=11, note=64, velocity=0, time=58),
    Message('note_on', channel=11, note=64, velocity=49, time=1),
    Message('control_change', channel=11, control=2, value=50, time=3),
    Message('note_on', channel=11, note=64, velocity=0, time=55),
    Message('note_on', channel=11, note=64, velocity=50, time=2),
    Message('control_change', channel=11, control=2, value=51, time=5),
    Message('note_on', channel=11, note=64, velocity=0, time=53),
    Message('note_on', channel=11, note=64, velocity=51, time=1),
    Message('control_change', channel=11, control=2, value=52, time=8),
    Message('note_on', channel=11, note=64, velocity=0, time=50),
    Message('note_on', channel=11, note=64, velocity=52, time=2),
    Message('control_change', channel=11, control=2, value=53, time=10),
    Message('note_on', channel=11, note=64, velocity=0, time=48),
    Message('note_on', channel=11, note=64, velocity=53, time=1),
    Message('control_change', channel=11, control=2, value=54, time=13),
    Message('note_on', channel=11, note=64, velocity=0, time=45),
    Message('note_on', channel=11, note=64, velocity=54, time=2),
    Message('control_change', channel=11, control=2, value=55, time=15),
    Message('note_on', channel=11, note=64, velocity=0, time=43),
    Message('note_on', channel=11, note=64, velocity=55, time=1),
    Message('control_change', channel=11, control=2, value=56, time=18),
    Message('note_on', channel=11, note=64, velocity=0, time=40),
    Message('note_on', channel=11, note=64, velocity=56, time=2),
    Message('control_change', channel=11, control=2, value=57, time=20),
    Message('note_on', channel=11, note=64, velocity=0, time=38),
    Message('note_on', channel=11, note=64, velocity=57, time=1),
    Message('control_change', channel=11, control=2, value=58, time=23),
    Message('note_on', channel=11, note=64, velocity=0, time=35),
    Message('note_on', channel=11, note=64, velocity=58, time=2),
    Message('control_change', channel=11, control=2, value=59, time=25),
    Message('note_on', channel=11, note=64, velocity=0, time=33),
    Message('note_on', channel=11, note=64, velocity=59, time=1),
    Message('control_change', channel=11, control=2, value=60, time=28),
    Message('note_on', channel=11, note=64, velocity=0, time=30),
    Message('note_on', channel=11, note=64, velocity=60, time=2),
    Message('control_change', channel=11, control=2, value=61, time=30),
    Message('note_on', channel=11, note=64, velocity=0, time=28),
    Message('note_on', channel=11, note=64, velocity=61, time=1),
    Message('control_change', channel=11, control=2, value=62, time=33),
    Message('note_on', channel=11, note=64, velocity=0, time=25),
    Message('note_on', channel=11, note=64, velocity=62, time=2),
    Message('control_change', channel=11, control=2, value=63, time=35),
    Message('note_on', channel=11, note=64, velocity=0, time=23),
    Message('note_on', channel=11, note=64, velocity=63, time=1),
    Message('control_change', channel=11, control=2, value=64, time=38),
    Message('note_on', channel=11, note=64, velocity=0, time=20),
    Message('note_on', channel=11, note=64, velocity=64, time=2),
    Message('control_change', channel=11, control=2, value=65, time=39),
    Message('note_on', channel=11, note=64, velocity=0, time=19),
    Message('note_on', channel=11, note=64, velocity=65, time=1),
    Message('control_change', channel=11, control=2, value=66, time=42),
    Message('note_on', channel=11, note=64, velocity=0, time=16),
    Message('note_on', channel=11, note=64, velocity=66, time=2),
    Message('control_change', channel=11, control=2, value=67, time=44),
    Message('note_on', channel=11, note=64, velocity=0, time=14),
    Message('note_on', channel=11, note=64, velocity=67, time=1),
    Message('control_change', channel=11, control=2, value=68, time=47),
    Message('note_on', channel=11, note=64, velocity=0, time=11),
    Message('note_on', channel=11, note=64, velocity=68, time=2),
    Message('control_change', channel=11, control=2, value=69, time=49),
    Message('note_on', channel=11, note=64, velocity=0, time=9),
    Message('note_on', channel=11, note=64, velocity=69, time=1),
    Message('control_change', channel=11, control=2, value=70, time=52),
    Message('note_on', channel=11, note=64, velocity=0, time=6),
    Message('note_on', channel=11, note=64, velocity=70, time=2),
    Message('control_change', channel=11, control=2, value=71, time=54),
    Message('note_on', channel=11, note=64, velocity=0, time=4),
    Message('note_on', channel=11, note=64, velocity=71, time=1),
    Message('control_change', channel=11, control=2, value=72, time=57),
    Message('note_on', channel=11, note=64, velocity=0, time=1),
    Message('note_on', channel=11, note=64, velocity=72, time=2),
    Message('note_on', channel=11, note=64, velocity=0, time=58),
    Message('control_change', channel=11, control=2, value=73, time=1),
    Message('note_on', channel=11, note=64, velocity=73, time=1),
    Message('note_on', channel=11, note=64, velocity=0, time=58),
    Message('note_on', channel=11, note=64, velocity=73, time=1),
    Message('control_change', channel=11, control=2, value=74, time=2),
    Message('note_on', channel=11, note=64, velocity=0, time=56),
    Message('note_on', channel=11, note=64, velocity=74, time=2),
    Message('control_change', channel=11, control=2, value=75, time=4),
    Message('note_on', channel=11, note=64, velocity=0, time=54),
    Message('note_on', channel=11, note=64, velocity=75, time=1),
    Message('control_change', channel=11, control=2, value=76, time=7),
    Message('note_on', channel=11, note=64, velocity=0, time=51),
    Message('note_on', channel=11, note=64, velocity=76, time=2),
    Message('control_change', channel=11, control=2, value=77, time=9),
    Message('note_on', channel=11, note=64, velocity=0, time=49),
    Message('note_on', channel=11, note=64, velocity=77, time=1),
    Message('control_change', channel=11, control=2, value=78, time=12),
    Message('note_on', channel=11, note=64, velocity=0, time=46),
    Message('note_on', channel=11, note=64, velocity=78, time=2),
    Message('control_change', channel=11, control=2, value=79, time=14),
    Message('note_on', channel=11, note=64, velocity=0, time=44),
    Message('control_change', channel=11, control=2, value=80, time=17),
    Message('note_on', channel=11, note=65, velocity=80, time=0),
    Message('note_on', channel=11, note=65, velocity=0, time=58),
    Message('note_on', channel=11, note=65, velocity=80, time=1),
    Message('control_change', channel=11, control=2, value=79, time=3),
    Message('note_on', channel=11, note=65, velocity=0, time=55),
    Message('note_on', channel=11, note=65, velocity=79, time=2),
    Message('control_change', channel=11, control=2, value=78, time=5),
    Message('note_on', channel=11, note=65, velocity=0, time=53),
    Message('note_on', channel=11, note=65, velocity=78, time=1),
    Message('control_change', channel=11, control=2, value=77, time=8),
    Message('note_on', channel=11, note=65, velocity=0, time=50),
    Message('note_on', channel=11, note=65, velocity=77, time=2),
    Message('control_change', channel=11, control=2, value=76, time=10),
    Message('note_on', channel=11, note=65, velocity=0, time=48),
    Message('note_on', channel=11, note=65, velocity=76, time=1),
    Message('control_change', channel=11, control=2, value=75, time=13),
    Message('note_on', channel=11, note=65, velocity=0, time=45),
    Message('note_on', channel=11, note=65, velocity=75, time=2),
    Message('control_change', channel=11, control=2, value=74, time=15),
    Message('note_on', channel=11, note=65, velocity=0, time=43),
    Message('note_on', channel=11, note=65, velocity=74, time=1),
    Message('control_change', channel=11, control=2, value=73, time=18),
    Message('note_on', channel=11, note=65, velocity=0, time=40),
    Message('note_on', channel=11, note=65, velocity=73, time=2),
    Message('control_change', channel=11, control=2, value=72, time=20),
    Message('note_on', channel=11, note=65, velocity=0, time=38),
    Message('note_on', channel=11, note=65, velocity=72, time=1),
    Message('control_change', channel=11, control=2, value=71, time=23),
    Message('note_on', channel=11, note=65, velocity=0, time=35),
    Message('note_on', channel=11, note=65, velocity=71, time=2),
    Message('control_change', channel=11, control=2, value=70, time=25),
    Message('note_on', channel=11, note=65, velocity=0, time=33),
    Message('note_on', channel=11, note=65, velocity=70, time=1),
    Message('control_change', channel=11, control=2, value=69, time=28),
    Message('note_on', channel=11, note=65, velocity=0, time=30),
    Message('note_on', channel=11, note=65, velocity=69, time=2),
    Message('control_change', channel=11, control=2, value=68, time=30),
    Message('note_on', channel=11, note=65, velocity=0, time=28),
    Message('note_on', channel=11, note=65, velocity=68, time=1),
    Message('control_change', channel=11, control=2, value=67, time=33),
    Message('note_on', channel=11, note=65, velocity=0, time=25),
    Message('note_on', channel=11, note=65, velocity=67, time=2),
    Message('control_change', channel=11, control=2, value=66, time=35),
    Message('note_on', channel=11, note=65, velocity=0, time=23),
    Message('note_on', channel=11, note=65, velocity=66, time=1),
    Message('control_change', channel=11, control=2, value=65, time=38),
    Message('note_on', channel=11, note=65, velocity=0, time=20),
    Message('note_on', channel=11, note=61, velocity=65, time=10),
    Message('control_change', channel=11, control=2, value=65, time=0),
    Message('control_change', channel=11, control=2, value=64, time=31),
    Message('note_on', channel=11, note=61, velocity=0, time=28),
    Message('note_on', channel=11, note=61, velocity=64, time=1),
    Message('control_change', channel=11, control=2, value=63, time=33),
    Message('note_on', channel=11, note=61, velocity=0, time=26),
    Message('note_on', channel=11, note=61, velocity=63, time=1),
    Message('control_change', channel=11, control=2, value=62, time=35),
    Message('note_on', channel=11, note=61, velocity=0, time=24),
    Message('note_on', channel=11, note=61, velocity=62, time=1),
    Message('control_change', channel=11, control=2, value=61, time=37),
    Message('note_on', channel=11, note=61, velocity=0, time=22),
    Message('note_on', channel=11, note=61, velocity=61, time=1),
    Message('control_change', channel=11, control=2, value=60, time=39),
    Message('note_on', channel=11, note=61, velocity=0, time=20),
    Message('note_on', channel=11, note=61, velocity=60, time=1),
    Message('control_change', channel=11, control=2, value=59, time=41),
    Message('note_on', channel=11, note=61, velocity=0, time=18),
    Message('note_on', channel=11, note=61, velocity=59, time=1),
    Message('control_change', channel=11, control=2, value=58, time=43),
    Message('note_on', channel=11, note=61, velocity=0, time=16),
    Message('note_on', channel=11, note=61, velocity=58, time=1),
    Message('control_change', channel=11, control=2, value=57, time=45),
    Message('note_on', channel=11, note=61, velocity=0, time=14),
    Message('note_on', channel=11, note=59, velocity=57, time=1),
    Message('control_change', channel=11, control=2, value=57, time=0),
    Message('control_change', channel=11, control=2, value=56, time=47),
    Message('note_on', channel=11, note=59, velocity=0, time=12),
    Message('note_on', channel=11, note=59, velocity=56, time=1),
    Message('control_change', channel=11, control=2, value=55, time=49),
    Message('note_on', channel=11, note=59, velocity=0, time=10),
    Message('note_on', channel=11, note=59, velocity=55, time=1),
    Message('control_change', channel=11, control=2, value=54, time=51),
    Message('note_on', channel=11, note=59, velocity=0, time=8),
    Message('note_on', channel=11, note=59, velocity=54, time=1),
    Message('control_change', channel=11, control=2, value=53, time=53),
    Message('note_on', channel=11, note=59, velocity=0, time=6),
    Message('note_on', channel=11, note=59, velocity=53, time=1),
    Message('control_change', channel=11, control=2, value=52, time=55),
    Message('note_on', channel=11, note=59, velocity=0, time=4),
    Message('note_on', channel=11, note=59, velocity=52, time=1),
    Message('control_change', channel=11, control=2, value=51, time=57),
    Message('note_on', channel=11, note=59, velocity=0, time=2),
    Message('note_on', channel=11, note=59, velocity=51, time=1),
    Message('control_change', channel=11, control=2, value=50, time=59),
    Message('note_on', channel=11, note=59, velocity=0, time=0),
    Message('note_on', channel=11, note=59, velocity=50, time=1),
    Message('note_on', channel=11, note=59, velocity=0, time=59),
    Message('control_change', channel=11, control=2, value=49, time=1),
    Message('note_on', channel=11, note=61, velocity=49, time=0),
    Message('note_on', channel=11, note=61, velocity=0, time=58),
    Message('note_on', channel=11, note=61, velocity=49, time=1),
    Message('control_change', channel=11, control=2, value=50, time=3),
    Message('note_on', channel=11, note=61, velocity=0, time=55),
    Message('note_on', channel=11, note=61, velocity=50, time=2),
    Message('control_change', channel=11, control=2, value=51, time=5),
    Message('note_on', channel=11, note=61, velocity=0, time=53),
    Message('note_on', channel=11, note=61, velocity=51, time=1),
    Message('control_change', channel=11, control=2, value=52, time=8),
    Message('note_on', channel=11, note=61, velocity=0, time=50),
    Message('note_on', channel=11, note=61, velocity=52, time=2),
    Message('control_change', channel=11, control=2, value=53, time=10),
    Message('note_on', channel=11, note=61, velocity=0, time=48),
    Message('note_on', channel=11, note=61, velocity=53, time=1),
    Message('control_change', channel=11, control=2, value=54, time=13),
    Message('note_on', channel=11, note=61, velocity=0, time=45),
    Message('note_on', channel=11, note=61, velocity=54, time=2),
    Message('control_change', channel=11, control=2, value=55, time=15),
    Message('note_on', channel=11, note=61, velocity=0, time=43),
    Message('note_on', channel=11, note=61, velocity=55, time=1),
    Message('control_change', channel=11, control=2, value=56, time=18),
    Message('note_on', channel=11, note=61, velocity=0, time=40),
    Message('note_on', channel=11, note=61, velocity=56, time=2),
    Message('control_change', channel=11, control=2, value=57, time=20),
    Message('note_on', channel=11, note=61, velocity=0, time=38),
    Message('note_on', channel=11, note=61, velocity=57, time=1),
    Message('control_change', channel=11, control=2, value=58, time=23),
    Message('note_on', channel=11, note=61, velocity=0, time=35),
    Message('note_on', channel=11, note=61, velocity=58, time=2),
    Message('control_change', channel=11, control=2, value=59, time=25),
    Message('note_on', channel=11, note=61, velocity=0, time=33),
    Message('note_on', channel=11, note=61, velocity=59, time=1),
    Message('control_change', channel=11, control=2, value=60, time=28),
    Message('note_on', channel=11, note=61, velocity=0, time=30),
    Message('note_on', channel=11, note=61, velocity=60, time=2),
    Message('control_change', channel=11, control=2, value=61, time=30),
    Message('note_on', channel=11, note=61, velocity=0, time=28),
    Message('note_on', channel=11, note=61, velocity=61, time=1),
    Message('control_change', channel=11, control=2, value=62, time=33),
    Message('note_on', channel=11, note=61, velocity=0, time=25),
    Message('note_on', channel=11, note=61, velocity=62, time=2),
    Message('control_change', channel=11, control=2, value=63, time=35),
    Message('note_on', channel=11, note=61, velocity=0, time=23),
    Message('note_on', channel=11, note=61, velocity=63, time=1),
    Message('control_change', channel=11, control=2, value=64, time=38),
    Message('note_on', channel=11, note=61, velocity=0, time=20),
    Message('note_on', channel=11, note=61, velocity=64, time=2),
    Message('control_change', channel=11, control=2, value=65, time=39),
    Message('note_on', channel=11, note=61, velocity=0, time=19),
    Message('note_on', channel=11, note=61, velocity=65, time=1),
    Message('control_change', channel=11, control=2, value=66, time=42),
    Message('note_on', channel=11, note=61, velocity=0, time=16),
    Message('note_on', channel=11, note=61, velocity=66, time=2),
    Message('control_change', channel=11, control=2, value=67, time=44),
    Message('note_on', channel=11, note=61, velocity=0, time=14),
    Message('note_on', channel=11, note=61, velocity=67, time=1),
    Message('control_change', channel=11, control=2, value=68, time=47),
    Message('note_on', channel=11, note=61, velocity=0, time=11),
    Message('note_on', channel=11, note=61, velocity=68, time=2),
    Message('control_change', channel=11, control=2, value=69, time=49),
    Message('note_on', channel=11, note=61, velocity=0, time=9),
    Message('note_on', channel=11, note=61, velocity=69, time=1),
    Message('control_change', channel=11, control=2, value=70, time=52),
    Message('note_on', channel=11, note=61, velocity=0, time=6),
    Message('note_on', channel=11, note=61, velocity=70, time=2),
    Message('control_change', channel=11, control=2, value=71, time=54),
    Message('note_on', channel=11, note=61, velocity=0, time=4),
    Message('note_on', channel=11, note=61, velocity=71, time=1),
    Message('control_change', channel=11, control=2, value=72, time=57),
    Message('note_on', channel=11, note=61, velocity=0, time=1),
    Message('note_on', channel=11, note=61, velocity=72, time=2),
    Message('note_on', channel=11, note=61, velocity=0, time=58),
    Message('control_change', channel=11, control=2, value=73, time=1),
    Message('note_on', channel=11, note=61, velocity=73, time=1),
    Message('note_on', channel=11, note=61, velocity=0, time=58),
    Message('note_on', channel=11, note=61, velocity=73, time=1),
    Message('control_change', channel=11, control=2, value=74, time=2),
    Message('note_on', channel=11, note=61, velocity=0, time=56),
    Message('note_on', channel=11, note=61, velocity=74, time=2),
    Message('control_change', channel=11, control=2, value=75, time=4),
    Message('note_on', channel=11, note=61, velocity=0, time=54),
    Message('note_on', channel=11, note=61, velocity=75, time=1),
    Message('control_change', channel=11, control=2, value=76, time=7),
    Message('note_on', channel=11, note=61, velocity=0, time=51),
    Message('note_on', channel=11, note=61, velocity=76, time=2),
    Message('control_change', channel=11, control=2, value=77, time=9),
    Message('note_on', channel=11, note=61, velocity=0, time=49),
    Message('note_on', channel=11, note=61, velocity=77, time=1),
    Message('control_change', channel=11, control=2, value=78, time=12),
    Message('note_on', channel=11, note=61, velocity=0, time=46),
    Message('note_on', channel=11, note=61, velocity=78, time=2),
    Message('control_change', channel=11, control=2, value=79, time=14),
    Message('note_on', channel=11, note=61, velocity=0, time=44),
    Message('control_change', channel=11, control=2, value=80, time=17),
    Message('note_on', channel=11, note=61, velocity=80, time=0),
    Message('note_on', channel=11, note=61, velocity=0, time=58),
    Message('note_on', channel=11, note=61, velocity=80, time=1),
    Message('control_change', channel=11, control=2, value=79, time=3),
    Message('note_on', channel=11, note=61, velocity=0, time=55),
    Message('note_on', channel=11, note=61, velocity=79, time=2),
    Message('control_change', channel=11, control=2, value=78, time=5),
    Message('note_on', channel=11, note=61, velocity=0, time=53),
    Message('note_on', channel=11, note=61, velocity=78, time=1),
    Message('control_change', channel=11, control=2, value=77, time=8),
    Message('note_on', channel=11, note=61, velocity=0, time=50),
    Message('note_on', channel=11, note=61, velocity=77, time=2),
    Message('control_change', channel=11, control=2, value=76, time=10),
    Message('note_on', channel=11, note=61, velocity=0, time=48),
    Message('note_on', channel=11, note=61, velocity=76, time=1),
    Message('control_change', channel=11, control=2, value=75, time=13),
    Message('note_on', channel=11, note=61, velocity=0, time=45),
    Message('note_on', channel=11, note=61, velocity=75, time=2),
    Message('control_change', channel=11, control=2, value=74, time=15),
    Message('note_on', channel=11, note=61, velocity=0, time=43),
    Message('note_on', channel=11, note=61, velocity=74, time=1),
    Message('control_change', channel=11, control=2, value=73, time=18),
    Message('note_on', channel=11, note=61, velocity=0, time=40),
    Message('note_on', channel=11, note=61, velocity=73, time=2),
    Message('control_change', channel=11, control=2, value=72, time=20),
    Message('note_on', channel=11, note=61, velocity=0, time=38),
    Message('note_on', channel=11, note=61, velocity=72, time=1),
    Message('control_change', channel=11, control=2, value=71, time=23),
    Message('note_on', channel=11, note=61, velocity=0, time=35),
    Message('note_on', channel=11, note=61, velocity=71, time=2),
    Message('control_change', channel=11, control=2, value=70, time=25),
    Message('note_on', channel=11, note=61, velocity=0, time=33),
    Message('note_on', channel=11, note=61, velocity=70, time=1),
    Message('control_change', channel=11, control=2, value=69, time=28),
    Message('note_on', channel=11, note=61, velocity=0, time=30),
    Message('note_on', channel=11, note=61, velocity=69, time=2),
    Message('control_change', channel=11, control=2, value=68, time=30),
    Message('note_on', channel=11, note=61, velocity=0, time=28),
    Message('note_on', channel=11, note=61, velocity=68, time=1),
    Message('control_change', channel=11, control=2, value=67, time=33),
    Message('note_on', channel=11, note=61, velocity=0, time=25),
    Message('note_on', channel=11, note=61, velocity=67, time=2),
    Message('control_change', channel=11, control=2, value=66, time=35),
    Message('note_on', channel=11, note=61, velocity=0, time=23),
    Message('note_on', channel=11, note=61, velocity=66, time=1),
    Message('control_change', channel=11, control=2, value=65, time=38),
    Message('note_on', channel=11, note=61, velocity=0, time=20),
    Message('note_on', channel=11, note=61, velocity=65, time=2),
    Message('control_change', channel=11, control=2, value=64, time=39),
    Message('note_on', channel=11, note=61, velocity=0, time=19),
    Message('note_on', channel=11, note=61, velocity=64, time=1),
    Message('control_change', channel=11, control=2, value=63, time=42),
    Message('note_on', channel=11, note=61, velocity=0, time=16),
    Message('note_on', channel=11, note=61, velocity=63, time=2),
    Message('control_change', channel=11, control=2, value=62, time=44),
    Message('note_on', channel=11, note=61, velocity=0, time=14),
    Message('note_on', channel=11, note=61, velocity=62, time=1),
    Message('control_change', channel=11, control=2, value=61, time=47),
    Message('note_on', channel=11, note=61, velocity=0, time=11),
    Message('note_on', channel=11, note=61, velocity=61, time=2),
    Message('control_change', channel=11, control=2, value=60, time=49),
    Message('note_on', channel=11, note=61, velocity=0, time=9),
    Message('note_on', channel=11, note=61, velocity=60, time=1),
    Message('control_change', channel=11, control=2, value=59, time=52),
    Message('note_on', channel=11, note=61, velocity=0, time=6),
    Message('note_on', channel=11, note=61, velocity=59, time=2),
    Message('control_change', channel=11, control=2, value=58, time=54),
    Message('note_on', channel=11, note=61, velocity=0, time=4),
    Message('note_on', channel=11, note=61, velocity=58, time=1),
    Message('control_change', channel=11, control=2, value=57, time=57),
    Message('note_on', channel=11, note=61, velocity=0, time=1),
    Message('note_on', channel=11, note=61, velocity=57, time=2),
    Message('note_on', channel=11, note=61, velocity=0, time=58),
    Message('control_change', channel=11, control=2, value=56, time=1),
    Message('note_on', channel=11, note=61, velocity=56, time=1),
    Message('note_on', channel=11, note=61, velocity=0, time=58),
    Message('note_on', channel=11, note=61, velocity=56, time=1),
    Message('control_change', channel=11, control=2, value=55, time=2),
    Message('note_on', channel=11, note=61, velocity=0, time=56),
    Message('note_on', channel=11, note=61, velocity=55, time=2),
    Message('control_change', channel=11, control=2, value=54, time=4),
    Message('note_on', channel=11, note=61, velocity=0, time=54),
    Message('note_on', channel=11, note=61, velocity=54, time=1),
    Message('control_change', channel=11, control=2, value=53, time=7),
    Message('note_on', channel=11, note=61, velocity=0, time=51),
    Message('note_on', channel=11, note=61, velocity=53, time=2),
    Message('control_change', channel=11, control=2, value=52, time=9),
    Message('note_on', channel=11, note=61, velocity=0, time=49),
    Message('note_on', channel=11, note=61, velocity=52, time=1),
    Message('control_change', channel=11, control=2, value=51, time=12),
    Message('note_on', channel=11, note=61, velocity=0, time=46),
    Message('note_on', channel=11, note=61, velocity=51, time=2),
    Message('control_change', channel=11, control=2, value=50, time=14),
    Message('note_on', channel=11, note=61, velocity=0, time=44),
    Message('control_change', channel=11, control=2, value=49, time=17),
    Message('note_on', channel=11, note=64, velocity=49, time=0),
    Message('note_on', channel=11, note=64, velocity=0, time=58),
    Message('note_on', channel=11, note=64, velocity=49, time=1),
    Message('note_on', channel=11, note=64, velocity=0, time=58),
    Message('note_on', channel=11, note=64, velocity=49, time=2),
    Message('control_change', channel=11, control=2, value=50, time=4),
    Message('note_on', channel=11, note=64, velocity=0, time=54),
    Message('note_on', channel=11, note=64, velocity=50, time=1),
    Message('note_on', channel=11, note=64, velocity=0, time=58),
    Message('note_on', channel=11, note=64, velocity=50, time=2),
    Message('control_change', channel=11, control=2, value=51, time=8),
    Message('note_on', channel=11, note=64, velocity=0, time=50),
    Message('note_on', channel=11, note=64, velocity=51, time=1),
    Message('note_on', channel=11, note=64, velocity=0, time=58),
    Message('note_on', channel=11, note=64, velocity=51, time=2),
    Message('control_change', channel=11, control=2, value=52, time=11),
    Message('note_on', channel=11, note=64, velocity=0, time=47),
    Message('note_on', channel=11, note=64, velocity=52, time=1),
    Message('note_on', channel=11, note=64, velocity=0, time=58),
    Message('note_on', channel=11, note=64, velocity=52, time=2),
    Message('control_change', channel=11, control=2, value=53, time=15),
    Message('note_on', channel=11, note=64, velocity=0, time=43),
    Message('note_on', channel=11, note=64, velocity=53, time=1),
    Message('note_on', channel=11, note=64, velocity=0, time=58),
    Message('note_on', channel=11, note=64, velocity=53, time=2),
    Message('control_change', channel=11, control=2, value=54, time=18),
    Message('note_on', channel=11, note=64, velocity=0, time=40),
    Message('note_on', channel=11, note=64, velocity=54, time=1),
    Message('note_on', channel=11, note=64, velocity=0, time=58),
    Message('note_on', channel=11, note=64, velocity=54, time=2),
    Message('control_change', channel=11, control=2, value=55, time=22),
    Message('note_on', channel=11, note=64, velocity=0, time=36),
    Message('note_on', channel=11, note=64, velocity=55, time=1),
    Message('note_on', channel=11, note=64, velocity=0, time=58),
    Message('note_on', channel=11, note=64, velocity=55, time=2),
    Message('control_change', channel=11, control=2, value=56, time=25),
    Message('note_on', channel=11, note=64, velocity=0, time=33),
    Message('note_on', channel=11, note=64, velocity=56, time=1),
    Message('note_on', channel=11, note=64, velocity=0, time=58),
    Message('note_on', channel=11, note=65, velocity=56, time=10),
    Message('control_change', channel=11, control=2, value=56, time=0),
    Message('control_change', channel=11, control=2, value=57, time=21),
    Message('note_on', channel=11, note=65, velocity=0, time=37),
    Message('note_on', channel=11, note=65, velocity=57, time=1),
    Message('note_on', channel=11, note=65, velocity=0, time=58),
    Message('note_on', channel=11, note=65, velocity=57, time=2),
    Message('control_change', channel=11, control=2, value=58, time=24),
    Message('note_on', channel=11, note=65, velocity=0, time=34),
    Message('note_on', channel=11, note=65, velocity=58, time=1),
    Message('note_on', channel=11, note=65, velocity=0, time=58),
    Message('note_on', channel=11, note=65, velocity=58, time=2),
    Message('control_change', channel=11, control=2, value=59, time=28),
    Message('note_on', channel=11, note=65, velocity=0, time=30),
    Message('note_on', channel=11, note=65, velocity=59, time=1),
    Message('note_on', channel=11, note=65, velocity=0, time=58),
    Message('note_on', channel=11, note=65, velocity=59, time=2),
    Message('control_change', channel=11, control=2, value=60, time=32),
    Message('note_on', channel=11, note=65, velocity=0, time=26),
    Message('note_on', channel=11, note=65, velocity=60, time=1),
    Message('note_on', channel=11, note=65, velocity=0, time=58),
    Message('note_on', channel=11, note=65, velocity=60, time=2),
    Message('control_change', channel=11, control=2, value=61, time=35),
    Message('note_on', channel=11, note=65, velocity=0, time=23),
    Message('note_on', channel=11, note=65, velocity=61, time=1),
    Message('note_on', channel=11, note=65, velocity=0, time=58),
    Message('note_on', channel=11, note=65, velocity=61, time=2),
    Message('control_change', channel=11, control=2, value=62, time=39),
    Message('note_on', channel=11, note=65, velocity=0, time=19),
    Message('note_on', channel=11, note=65, velocity=62, time=1),
    Message('note_on', channel=11, note=65, velocity=0, time=58),
    Message('note_on', channel=11, note=65, velocity=62, time=2),
    Message('control_change', channel=11, control=2, value=63, time=42),
    Message('note_on', channel=11, note=65, velocity=0, time=16),
    Message('note_on', channel=11, note=65, velocity=63, time=1),
    Message('note_on', channel=11, note=65, velocity=0, time=58),
    Message('note_on', channel=11, note=65, velocity=63, time=2),
    Message('control_change', channel=11, control=2, value=64, time=46),
    Message('note_on', channel=11, note=65, velocity=0, time=12),
    Message('note_on', channel=11, note=65, velocity=64, time=1),
    Message('note_on', channel=11, note=65, velocity=0, time=58),
    Message('note_on', channel=11, note=60, velocity=64, time=10),
    Message('control_change', channel=11, control=2, value=64, time=0),
    Message('control_change', channel=11, control=2, value=65, time=41),
    Message('note_on', channel=11, note=60, velocity=0, time=17),
    Message('note_on', channel=11, note=60, velocity=65, time=1),
    Message('note_on', channel=11, note=60, velocity=0, time=58),
    Message('note_on', channel=11, note=60, velocity=65, time=2),
    Message('control_change', channel=11, control=2, value=66, time=45),
    Message('note_on', channel=11, note=60, velocity=0, time=13),
    Message('note_on', channel=11, note=60, velocity=66, time=1),
    Message('note_on', channel=11, note=60, velocity=0, time=58),
    Message('note_on', channel=11, note=60, velocity=66, time=2),
    Message('control_change', channel=11, control=2, value=67, time=48),
    Message('note_on', channel=11, note=60, velocity=0, time=10),
    Message('note_on', channel=11, note=60, velocity=67, time=1),
    Message('note_on', channel=11, note=60, velocity=0, time=58),
    Message('note_on', channel=11, note=60, velocity=67, time=2),
    Message('control_change', channel=11, control=2, value=68, time=52),
    Message('note_on', channel=11, note=60, velocity=0, time=6),
    Message('note_on', channel=11, note=60, velocity=68, time=1),
    Message('note_on', channel=11, note=60, velocity=0, time=58),
    Message('note_on', channel=11, note=60, velocity=68, time=2),
    Message('control_change', channel=11, control=2, value=69, time=56),
    Message('note_on', channel=11, note=60, velocity=0, time=2),
    Message('note_on', channel=11, note=60, velocity=69, time=1),
    Message('note_on', channel=11, note=60, velocity=0, time=58),
    Message('note_on', channel=11, note=60, velocity=69, time=2),
    Message('note_on', channel=11, note=60, velocity=0, time=58),
    Message('control_change', channel=11, control=2, value=70, time=1),
    Message('note_on', channel=11, note=60, velocity=70, time=0),
    Message('note_on', channel=11, note=60, velocity=0, time=58),
    Message('note_on', channel=11, note=60, velocity=70, time=2),
    Message('note_on', channel=11, note=60, velocity=0, time=58),
    Message('note_on', channel=11, note=60, velocity=70, time=1),
    Message('control_change', channel=11, control=2, value=71, time=4),
    Message('note_on', channel=11, note=60, velocity=0, time=54),
    Message('note_on', channel=11, note=60, velocity=71, time=2),
    Message('note_on', channel=11, note=60, velocity=0, time=58),
    Message('note_on', channel=11, note=60, velocity=71, time=1),
    Message('control_change', channel=11, control=2, value=72, time=7),
    Message('note_on', channel=11, note=60, velocity=0, time=51),
    Message('note_on', channel=11, note=60, velocity=72, time=2),
    Message('note_on', channel=11, note=60, velocity=0, time=58),
    Message('note_on', channel=11, note=60, velocity=72, time=1),
    Message('control_change', channel=11, control=2, value=73, time=11),
    Message('note_on', channel=11, note=60, velocity=0, time=47),
    Message('note_on', channel=11, note=60, velocity=73, time=2),
    Message('note_on', channel=11, note=60, velocity=0, time=58),
    Message('note_on', channel=11, note=60, velocity=73, time=1),
    Message('control_change', channel=11, control=2, value=74, time=14),
    Message('note_on', channel=11, note=60, velocity=0, time=44),
    Message('note_on', channel=11, note=60, velocity=74, time=2),
    Message('note_on', channel=11, note=60, velocity=0, time=58),
    Message('note_on', channel=11, note=60, velocity=74, time=1),
    Message('control_change', channel=11, control=2, value=75, time=18),
    Message('note_on', channel=11, note=60, velocity=0, time=40),
    Message('note_on', channel=11, note=60, velocity=75, time=2),
    Message('note_on', channel=11, note=60, velocity=0, time=58),
    Message('note_on', channel=11, note=60, velocity=75, time=1),
    Message('control_change', channel=11, control=2, value=76, time=21),
    Message('note_on', channel=11, note=60, velocity=0, time=37),
    Message('note_on', channel=11, note=60, velocity=76, time=2),
    Message('note_on', channel=11, note=60, velocity=0, time=58),
    Message('note_on', channel=11, note=60, velocity=76, time=2),
    Message('control_change', channel=11, control=2, value=77, time=24),
    Message('note_on', channel=11, note=60, velocity=0, time=34),
    Message('note_on', channel=11, note=60, velocity=77, time=1),
    Message('note_on', channel=11, note=60, velocity=0, time=58),
    Message('note_on', channel=11, note=60, velocity=77, time=2),
    Message('control_change', channel=11, control=2, value=78, time=28),
    Message('note_on', channel=11, note=60, velocity=0, time=30),
    Message('note_on', channel=11, note=60, velocity=78, time=1),
    Message('note_on', channel=11, note=60, velocity=0, time=58),
    Message('note_on', channel=11, note=60, velocity=78, time=2),
    Message('control_change', channel=11, control=2, value=79, time=31),
    Message('note_on', channel=11, note=60, velocity=0, time=27),
    Message('note_on', channel=11, note=60, velocity=79, time=1),
    Message('note_on', channel=11, note=60, velocity=0, time=58),
    Message('note_on', channel=11, note=60, velocity=79, time=2),
    Message('control_change', channel=11, control=2, value=80, time=35),
    Message('note_on', channel=11, note=60, velocity=0, time=23),
    Message('note_on', channel=11, note=59, velocity=80, time=17),
    Message('control_change', channel=11, control=2, value=80, time=0),
    Message('note_on', channel=11, note=61, velocity=80, time=0),
    Message('note_on', channel=11, note=59, velocity=0, time=58),
    Message('note_on', channel=11, note=61, velocity=0, time=0),
    Message('note_on', channel=11, note=59, velocity=80, time=1),
    Message('note_on', channel=11, note=61, velocity=80, time=0),
    Message('control_change', channel=11, control=2, value=81, time=23),
    Message('note_on', channel=11, note=59, velocity=0, time=35),
    Message('note_on', channel=11, note=61, velocity=0, time=0),
    Message('note_on', channel=11, note=59, velocity=81, time=2),
    Message('note_on', channel=11, note=61, velocity=81, time=0),
    Message('note_on', channel=11, note=59, velocity=0, time=58),
    Message('note_on', channel=11, note=61, velocity=0, time=0),
    Message('note_on', channel=11, note=59, velocity=81, time=1),
    Message('note_on', channel=11, note=61, velocity=81, time=0),
    Message('control_change', channel=11, control=2, value=82, time=27),
    Message('note_on', channel=11, note=59, velocity=0, time=31),
    Message('note_on', channel=11, note=61, velocity=0, time=0),
    Message('note_on', channel=11, note=59, velocity=82, time=2),
    Message('note_on', channel=11, note=61, velocity=82, time=0),
    Message('note_on', channel=11, note=59, velocity=0, time=58),
    Message('note_on', channel=11, note=61, velocity=0, time=0),
    Message('note_on', channel=11, note=59, velocity=82, time=1),
    Message('note_on', channel=11, note=61, velocity=82, time=0),
    Message('control_change', channel=11, control=2, value=83, time=30),
    Message('note_on', channel=11, note=59, velocity=0, time=28),
    Message('note_on', channel=11, note=61, velocity=0, time=0),
    Message('note_on', channel=11, note=59, velocity=83, time=2),
    Message('note_on', channel=11, note=61, velocity=83, time=0),
    Message('note_on', channel=11, note=59, velocity=0, time=58),
    Message('note_on', channel=11, note=61, velocity=0, time=0),
    Message('note_on', channel=11, note=59, velocity=83, time=1),
    Message('note_on', channel=11, note=61, velocity=83, time=0),
    Message('control_change', channel=11, control=2, value=84, time=34),
    Message('note_on', channel=11, note=59, velocity=0, time=24),
    Message('note_on', channel=11, note=61, velocity=0, time=0),
    Message('note_on', channel=11, note=59, velocity=84, time=2),
    Message('note_on', channel=11, note=61, velocity=84, time=0),
    Message('note_on', channel=11, note=59, velocity=0, time=58),
    Message('note_on', channel=11, note=61, velocity=0, time=0),
    Message('note_on', channel=11, note=59, velocity=84, time=1),
    Message('note_on', channel=11, note=61, velocity=84, time=0),
    Message('control_change', channel=11, control=2, value=85, time=37),
    Message('note_on', channel=11, note=59, velocity=0, time=21),
    Message('note_on', channel=11, note=61, velocity=0, time=0),
    Message('note_on', channel=11, note=59, velocity=85, time=2),
    Message('note_on', channel=11, note=61, velocity=85, time=0),
    Message('note_on', channel=11, note=59, velocity=0, time=58),
    Message('note_on', channel=11, note=61, velocity=0, time=0),
    Message('note_on', channel=11, note=59, velocity=85, time=1),
    Message('note_on', channel=11, note=61, velocity=85, time=0),
    Message('control_change', channel=11, control=2, value=86, time=41),
    Message('note_on', channel=11, note=59, velocity=0, time=17),
    Message('note_on', channel=11, note=61, velocity=0, time=0),
    Message('note_on', channel=11, note=59, velocity=86, time=2),
    Message('note_on', channel=11, note=61, velocity=86, time=0),
    Message('note_on', channel=11, note=59, velocity=0, time=58),
    Message('note_on', channel=11, note=61, velocity=0, time=0),
    Message('note_on', channel=11, note=59, velocity=86, time=1),
    Message('note_on', channel=11, note=61, velocity=86, time=0),
    Message('control_change', channel=11, control=2, value=87, time=45),
    Message('note_on', channel=11, note=59, velocity=0, time=13),
    Message('note_on', channel=11, note=61, velocity=0, time=0),
    Message('note_on', channel=11, note=59, velocity=87, time=2),
    Message('note_on', channel=11, note=61, velocity=87, time=0),
    Message('note_on', channel=11, note=59, velocity=0, time=58),
    Message('note_on', channel=11, note=61, velocity=0, time=0),
    Message('note_on', channel=11, note=59, velocity=87, time=1),
    Message('note_on', channel=11, note=61, velocity=87, time=0),
    Message('control_change', channel=11, control=2, value=88, time=48),
    Message('note_on', channel=11, note=59, velocity=0, time=10),
    Message('note_on', channel=11, note=61, velocity=0, time=0),
    Message('note_on', channel=11, note=58, velocity=88, time=10),
    Message('control_change', channel=11, control=2, value=88, time=0),
    Message('note_on', channel=11, note=61, velocity=88, time=0),
    Message('note_on', channel=11, note=58, velocity=0, time=58),
    Message('note_on', channel=11, note=61, velocity=0, time=0),
    Message('note_on', channel=11, note=58, velocity=88, time=1),
    Message('note_on', channel=11, note=61, velocity=88, time=0),
    Message('control_change', channel=11, control=2, value=89, time=44),
    Message('note_on', channel=11, note=58, velocity=0, time=14),
    Message('note_on', channel=11, note=61, velocity=0, time=0),
    Message('note_on', channel=11, note=58, velocity=89, time=2),
    Message('note_on', channel=11, note=61, velocity=89, time=0),
    Message('note_on', channel=11, note=58, velocity=0, time=58),
    Message('note_on', channel=11, note=61, velocity=0, time=0),
    Message('note_on', channel=11, note=58, velocity=89, time=1),
    Message('note_on', channel=11, note=61, velocity=89, time=0),
    Message('control_change', channel=11, control=2, value=90, time=47),
    Message('note_on', channel=11, note=58, velocity=0, time=11),
    Message('note_on', channel=11, note=61, velocity=0, time=0),
    Message('note_on', channel=11, note=58, velocity=90, time=2),
    Message('note_on', channel=11, note=61, velocity=90, time=0),
    Message('note_on', channel=11, note=58, velocity=0, time=58),
    Message('note_on', channel=11, note=61, velocity=0, time=0),
    Message('note_on', channel=11, note=58, velocity=90, time=1),
    Message('note_on', channel=11, note=61, velocity=90, time=0),
    Message('control_change', channel=11, control=2, value=91, time=51),
    Message('note_on', channel=11, note=58, velocity=0, time=7),
    Message('note_on', channel=11, note=61, velocity=0, time=0),
    Message('note_on', channel=11, note=58, velocity=91, time=2),
    Message('note_on', channel=11, note=61, velocity=91, time=0),
    Message('note_on', channel=11, note=58, velocity=0, time=58),
    Message('note_on', channel=11, note=61, velocity=0, time=0),
    Message('note_on', channel=11, note=58, velocity=91, time=1),
    Message('note_on', channel=11, note=61, velocity=91, time=0),
    Message('control_change', channel=11, control=2, value=92, time=54),
    Message('note_on', channel=11, note=58, velocity=0, time=4),
    Message('note_on', channel=11, note=61, velocity=0, time=0),
    Message('note_on', channel=11, note=58, velocity=92, time=2),
    Message('note_on', channel=11, note=61, velocity=92, time=0),
    Message('note_on', channel=11, note=58, velocity=0, time=58),
    Message('note_on', channel=11, note=61, velocity=0, time=0),
    Message('note_on', channel=11, note=58, velocity=92, time=1),
    Message('note_on', channel=11, note=61, velocity=92, time=0),
    Message('control_change', channel=11, control=2, value=93, time=58),
    Message('note_on', channel=11, note=58, velocity=0, time=0),
    Message('note_on', channel=11, note=61, velocity=0, time=0),
    Message('note_on', channel=11, note=58, velocity=93, time=2),
    Message('note_on', channel=11, note=61, velocity=93, time=0),
    Message('note_on', channel=11, note=58, velocity=0, time=58),
    Message('note_on', channel=11, note=61, velocity=0, time=0),
    Message('note_on', channel=11, note=58, velocity=93, time=1),
    Message('note_on', channel=11, note=61, velocity=93, time=0),
    Message('note_on', channel=11, note=58, velocity=0, time=58),
    Message('note_on', channel=11, note=61, velocity=0, time=0),
    Message('note_on', channel=11, note=58, velocity=93, time=2),
    Message('note_on', channel=11, note=61, velocity=93, time=0),
    Message('control_change', channel=11, control=2, value=94, time=1),
    Message('note_on', channel=11, note=58, velocity=0, time=57),
    Message('note_on', channel=11, note=61, velocity=0, time=0),
    Message('note_on', channel=11, note=58, velocity=94, time=1),
    Message('note_on', channel=11, note=61, velocity=94, time=0),
    Message('note_on', channel=11, note=58, velocity=0, time=58),
    Message('note_on', channel=11, note=61, velocity=0, time=0),
    Message('note_on', channel=11, note=58, velocity=94, time=2),
    Message('note_on', channel=11, note=61, velocity=94, time=0),
    Message('control_change', channel=11, control=2, value=95, time=5),
    Message('note_on', channel=11, note=58, velocity=0, time=53),
    Message('note_on', channel=11, note=61, velocity=0, time=0),
    Message('note_on', channel=11, note=58, velocity=95, time=1),
    Message('note_on', channel=11, note=61, velocity=95, time=0),
    Message('note_on', channel=11, note=58, velocity=0, time=58),
    Message('note_on', channel=11, note=61, velocity=0, time=0),
    Message('control_change', channel=11, control=2, value=96, time=10),
    Message('note_on', channel=11, note=54, velocity=96, time=0),
    Message('note_on', channel=11, note=59, velocity=96, time=0),
    Message('note_on', channel=11, note=54, velocity=0, time=58),
    Message('note_on', channel=11, note=59, velocity=0, time=0),
    Message('note_on', channel=11, note=54, velocity=96, time=1),
    Message('note_on', channel=11, note=59, velocity=96, time=0),
    Message('note_on', channel=11, note=54, velocity=0, time=58),
    Message('note_on', channel=11, note=59, velocity=0, time=0),
    Message('note_on', channel=11, note=54, velocity=96, time=2),
    Message('note_on', channel=11, note=59, velocity=96, time=0),
    Message('note_on', channel=11, note=54, velocity=0, time=58),
    Message('note_on', channel=11, note=59, velocity=0, time=0),
    Message('note_on', channel=11, note=54, velocity=96, time=1),
    Message('note_on', channel=11, note=59, velocity=96, time=0),
    Message('note_on', channel=11, note=54, velocity=0, time=58),
    Message('note_on', channel=11, note=59, velocity=0, time=0),
    Message('note_on', channel=11, note=54, velocity=96, time=2),
    Message('note_on', channel=11, note=59, velocity=96, time=0),
    Message('note_on', channel=11, note=54, velocity=0, time=58),
    Message('note_on', channel=11, note=59, velocity=0, time=0),
    Message('note_on', channel=11, note=54, velocity=96, time=1),
    Message('note_on', channel=11, note=59, velocity=96, time=0),
    Message('note_on', channel=11, note=54, velocity=0, time=58),
    Message('note_on', channel=11, note=59, velocity=0, time=0),
    Message('note_on', channel=11, note=54, velocity=96, time=2),
    Message('note_on', channel=11, note=59, velocity=96, time=0),
    Message('note_on', channel=11, note=54, velocity=0, time=58),
    Message('note_on', channel=11, note=59, velocity=0, time=0),
    Message('note_on', channel=11, note=54, velocity=96, time=1),
    Message('note_on', channel=11, note=59, velocity=96, time=0),
    Message('note_on', channel=11, note=54, velocity=0, time=58),
    Message('note_on', channel=11, note=59, velocity=0, time=0),
    Message('note_on', channel=11, note=54, velocity=96, time=2),
    Message('note_on', channel=11, note=59, velocity=96, time=0),
    Message('note_on', channel=11, note=54, velocity=0, time=58),
    Message('note_on', channel=11, note=59, velocity=0, time=0),
    Message('note_on', channel=11, note=54, velocity=96, time=1),
    Message('note_on', channel=11, note=59, velocity=96, time=0),
    Message('note_on', channel=11, note=54, velocity=0, time=58),
    Message('note_on', channel=11, note=59, velocity=0, time=0),
    Message('note_on', channel=11, note=54, velocity=96, time=2),
    Message('note_on', channel=11, note=59, velocity=96, time=0),
    Message('note_on', channel=11, note=54, velocity=0, time=58),
    Message('note_on', channel=11, note=59, velocity=0, time=0),
    Message('note_on', channel=11, note=54, velocity=96, time=1),
    Message('note_on', channel=11, note=59, velocity=96, time=0),
    Message('note_on', channel=11, note=54, velocity=0, time=58),
    Message('note_on', channel=11, note=59, velocity=0, time=0),
    Message('note_on', channel=11, note=54, velocity=96, time=2),
    Message('note_on', channel=11, note=59, velocity=96, time=0),
    Message('note_on', channel=11, note=54, velocity=0, time=58),
    Message('note_on', channel=11, note=59, velocity=0, time=0),
    Message('note_on', channel=11, note=54, velocity=96, time=1),
    Message('note_on', channel=11, note=59, velocity=96, time=0),
    Message('note_on', channel=11, note=54, velocity=0, time=58),
    Message('note_on', channel=11, note=59, velocity=0, time=0),
    Message('note_on', channel=11, note=54, velocity=96, time=2),
    Message('note_on', channel=11, note=59, velocity=96, time=0),
    Message('note_on', channel=11, note=54, velocity=0, time=58),
    Message('note_on', channel=11, note=59, velocity=0, time=0),
    Message('note_on', channel=11, note=54, velocity=96, time=1),
    Message('note_on', channel=11, note=59, velocity=96, time=0),
    Message('note_on', channel=11, note=54, velocity=0, time=58),
    Message('note_on', channel=11, note=59, velocity=0, time=0),
    Message('note_on', channel=11, note=55, velocity=96, time=10),
    Message('control_change', channel=11, control=2, value=96, time=0),
    Message('note_on', channel=11, note=64, velocity=96, time=0),
    Message('note_on', channel=11, note=55, velocity=0, time=58),
    Message('note_on', channel=11, note=64, velocity=0, time=0),
    Message('note_on', channel=11, note=55, velocity=96, time=1),
    Message('note_on', channel=11, note=64, velocity=96, time=0),
    Message('note_on', channel=11, note=55, velocity=0, time=58),
    Message('note_on', channel=11, note=64, velocity=0, time=0),
    Message('note_on', channel=11, note=55, velocity=96, time=2),
    Message('note_on', channel=11, note=64, velocity=96, time=0),
    Message('note_on', channel=11, note=55, velocity=0, time=58),
    Message('note_on', channel=11, note=64, velocity=0, time=0),
    Message('note_on', channel=11, note=55, velocity=96, time=1),
    Message('note_on', channel=11, note=64, velocity=96, time=0),
    Message('note_on', channel=11, note=55, velocity=0, time=58),
    Message('note_on', channel=11, note=64, velocity=0, time=0),
    Message('note_on', channel=11, note=55, velocity=96, time=2),
    Message('note_on', channel=11, note=64, velocity=96, time=0),
    Message('note_on', channel=11, note=55, velocity=0, time=58),
    Message('note_on', channel=11, note=64, velocity=0, time=0),
    Message('note_on', channel=11, note=55, velocity=96, time=1),
    Message('note_on', channel=11, note=64, velocity=96, time=0),
    Message('note_on', channel=11, note=55, velocity=0, time=58),
    Message('note_on', channel=11, note=64, velocity=0, time=0),
    Message('note_on', channel=11, note=55, velocity=96, time=2),
    Message('note_on', channel=11, note=64, velocity=96, time=0),
    Message('note_on', channel=11, note=55, velocity=0, time=58),
    Message('note_on', channel=11, note=64, velocity=0, time=0),
    Message('note_on', channel=11, note=55, velocity=96, time=1),
    Message('note_on', channel=11, note=64, velocity=96, time=0),
    Message('note_on', channel=11, note=55, velocity=0, time=58),
    Message('note_on', channel=11, note=64, velocity=0, time=0),
    Message('note_on', channel=11, note=55, velocity=96, time=2),
    Message('note_on', channel=11, note=64, velocity=96, time=0),
    Message('note_on', channel=11, note=55, velocity=0, time=58),
    Message('note_on', channel=11, note=64, velocity=0, time=0),
    Message('note_on', channel=11, note=55, velocity=96, time=1),
    Message('note_on', channel=11, note=64, velocity=96, time=0),
    Message('note_on', channel=11, note=55, velocity=0, time=58),
    Message('note_on', channel=11, note=64, velocity=0, time=0),
    Message('note_on', channel=11, note=55, velocity=96, time=2),
    Message('note_on', channel=11, note=64, velocity=96, time=0),
    Message('note_on', channel=11, note=55, velocity=0, time=58),
    Message('note_on', channel=11, note=64, velocity=0, time=0),
    Message('note_on', channel=11, note=55, velocity=96, time=1),
    Message('note_on', channel=11, note=64, velocity=96, time=0),
    Message('note_on', channel=11, note=55, velocity=0, time=58),
    Message('note_on', channel=11, note=64, velocity=0, time=0),
    Message('note_on', channel=11, note=55, velocity=96, time=2),
    Message('note_on', channel=11, note=64, velocity=96, time=0),
    Message('note_on', channel=11, note=55, velocity=0, time=58),
    Message('note_on', channel=11, note=64, velocity=0, time=0),
    Message('note_on', channel=11, note=55, velocity=96, time=1),
    Message('note_on', channel=11, note=64, velocity=96, time=0),
    Message('note_on', channel=11, note=55, velocity=0, time=58),
    Message('note_on', channel=11, note=64, velocity=0, time=0),
    Message('note_on', channel=11, note=55, velocity=96, time=2),
    Message('note_on', channel=11, note=64, velocity=96, time=0),
    Message('note_on', channel=11, note=55, velocity=0, time=58),
    Message('note_on', channel=11, note=64, velocity=0, time=0),
    Message('note_on', channel=11, note=55, velocity=96, time=1),
    Message('note_on', channel=11, note=64, velocity=96, time=0),
    Message('note_on', channel=11, note=55, velocity=0, time=58),
    Message('note_on', channel=11, note=64, velocity=0, time=0),
    Message('note_on', channel=11, note=54, velocity=96, time=10),
    Message('control_change', channel=11, control=2, value=96, time=0),
    Message('note_on', channel=11, note=66, velocity=96, time=0),
    Message('note_on', channel=11, note=54, velocity=0, time=58),
    Message('note_on', channel=11, note=66, velocity=0, time=0),
    Message('note_on', channel=11, note=54, velocity=96, time=1),
    Message('note_on', channel=11, note=66, velocity=96, time=0),
    Message('note_on', channel=11, note=54, velocity=0, time=58),
    Message('note_on', channel=11, note=66, velocity=0, time=0),
    Message('note_on', channel=11, note=54, velocity=96, time=2),
    Message('note_on', channel=11, note=66, velocity=96, time=0),
    Message('note_on', channel=11, note=54, velocity=0, time=58),
    Message('note_on', channel=11, note=66, velocity=0, time=0),
    Message('note_on', channel=11, note=54, velocity=96, time=1),
    Message('note_on', channel=11, note=66, velocity=96, time=0),
    Message('note_on', channel=11, note=54, velocity=0, time=58),
    Message('note_on', channel=11, note=66, velocity=0, time=0),
    Message('note_on', channel=11, note=54, velocity=96, time=2),
    Message('note_on', channel=11, note=66, velocity=96, time=0),
    Message('note_on', channel=11, note=54, velocity=0, time=58),
    Message('note_on', channel=11, note=66, velocity=0, time=0),
    Message('note_on', channel=11, note=54, velocity=96, time=1),
    Message('note_on', channel=11, note=66, velocity=96, time=0),
    Message('note_on', channel=11, note=54, velocity=0, time=58),
    Message('note_on', channel=11, note=66, velocity=0, time=0),
    Message('note_on', channel=11, note=54, velocity=96, time=2),
    Message('note_on', channel=11, note=66, velocity=96, time=0),
    Message('note_on', channel=11, note=54, velocity=0, time=58),
    Message('note_on', channel=11, note=66, velocity=0, time=0),
    Message('note_on', channel=11, note=54, velocity=96, time=1),
    Message('note_on', channel=11, note=66, velocity=96, time=0),
    Message('note_on', channel=11, note=54, velocity=0, time=58),
    Message('note_on', channel=11, note=66, velocity=0, time=0),
    Message('note_on', channel=11, note=54, velocity=96, time=2),
    Message('note_on', channel=11, note=66, velocity=96, time=0),
    Message('note_on', channel=11, note=54, velocity=0, time=58),
    Message('note_on', channel=11, note=66, velocity=0, time=0),
    Message('note_on', channel=11, note=54, velocity=96, time=1),
    Message('note_on', channel=11, note=66, velocity=96, time=0),
    Message('note_on', channel=11, note=54, velocity=0, time=58),
    Message('note_on', channel=11, note=66, velocity=0, time=0),
    Message('note_on', channel=11, note=54, velocity=96, time=2),
    Message('note_on', channel=11, note=66, velocity=96, time=0),
    Message('note_on', channel=11, note=54, velocity=0, time=58),
    Message('note_on', channel=11, note=66, velocity=0, time=0),
    Message('note_on', channel=11, note=54, velocity=96, time=1),
    Message('note_on', channel=11, note=66, velocity=96, time=0),
    Message('note_on', channel=11, note=54, velocity=0, time=58),
    Message('note_on', channel=11, note=66, velocity=0, time=0),
    Message('note_on', channel=11, note=54, velocity=96, time=2),
    Message('note_on', channel=11, note=66, velocity=96, time=0),
    Message('note_on', channel=11, note=54, velocity=0, time=58),
    Message('note_on', channel=11, note=66, velocity=0, time=0),
    Message('note_on', channel=11, note=54, velocity=96, time=1),
    Message('note_on', channel=11, note=66, velocity=96, time=0),
    Message('note_on', channel=11, note=54, velocity=0, time=58),
    Message('note_on', channel=11, note=66, velocity=0, time=0),
    Message('note_on', channel=11, note=54, velocity=96, time=2),
    Message('note_on', channel=11, note=66, velocity=96, time=0),
    Message('note_on', channel=11, note=54, velocity=0, time=58),
    Message('note_on', channel=11, note=66, velocity=0, time=0),
    Message('note_on', channel=11, note=54, velocity=96, time=1),
    Message('note_on', channel=11, note=66, velocity=96, time=0),
    Message('note_on', channel=11, note=54, velocity=0, time=58),
    Message('note_on', channel=11, note=66, velocity=0, time=0),
    Message('note_on', channel=11, note=54, velocity=96, time=2),
    Message('note_on', channel=11, note=66, velocity=96, time=0),
    Message('note_on', channel=11, note=54, velocity=0, time=58),
    Message('note_on', channel=11, note=66, velocity=0, time=0),
    Message('note_on', channel=11, note=54, velocity=96, time=1),
    Message('note_on', channel=11, note=66, velocity=96, time=0),
    Message('note_on', channel=11, note=54, velocity=0, time=58),
    Message('note_on', channel=11, note=66, velocity=0, time=0),
    Message('note_on', channel=11, note=54, velocity=96, time=2),
    Message('note_on', channel=11, note=66, velocity=96, time=0),
    Message('note_on', channel=11, note=54, velocity=0, time=58),
    Message('note_on', channel=11, note=66, velocity=0, time=0),
    Message('note_on', channel=11, note=54, velocity=96, time=1),
    Message('note_on', channel=11, note=66, velocity=96, time=0),
    Message('note_on', channel=11, note=54, velocity=0, time=58),
    Message('note_on', channel=11, note=66, velocity=0, time=0),
    Message('note_on', channel=11, note=54, velocity=96, time=2),
    Message('note_on', channel=11, note=66, velocity=96, time=0),
    Message('note_on', channel=11, note=54, velocity=0, time=58),
    Message('note_on', channel=11, note=66, velocity=0, time=0),
    Message('note_on', channel=11, note=54, velocity=96, time=1),
    Message('note_on', channel=11, note=66, velocity=96, time=0),
    Message('note_on', channel=11, note=54, velocity=0, time=58),
    Message('note_on', channel=11, note=66, velocity=0, time=0),
    Message('note_on', channel=11, note=54, velocity=96, time=2),
    Message('note_on', channel=11, note=66, velocity=96, time=0),
    Message('note_on', channel=11, note=54, velocity=0, time=58),
    Message('note_on', channel=11, note=66, velocity=0, time=0),
    Message('note_on', channel=11, note=54, velocity=96, time=1),
    Message('note_on', channel=11, note=66, velocity=96, time=0),
    Message('note_on', channel=11, note=54, velocity=0, time=58),
    Message('note_on', channel=11, note=66, velocity=0, time=0),
    Message('note_on', channel=11, note=54, velocity=96, time=2),
    Message('note_on', channel=11, note=66, velocity=96, time=0),
    Message('note_on', channel=11, note=54, velocity=0, time=58),
    Message('note_on', channel=11, note=66, velocity=0, time=0),
    Message('note_on', channel=11, note=54, velocity=96, time=2),
    Message('note_on', channel=11, note=66, velocity=96, time=0),
    Message('note_on', channel=11, note=54, velocity=0, time=58),
    Message('note_on', channel=11, note=66, velocity=0, time=0),
    Message('note_on', channel=11, note=54, velocity=96, time=1),
    Message('note_on', channel=11, note=66, velocity=96, time=0),
    Message('note_on', channel=11, note=54, velocity=0, time=58),
    Message('note_on', channel=11, note=66, velocity=0, time=0),
    Message('note_on', channel=11, note=54, velocity=96, time=2),
    Message('note_on', channel=11, note=66, velocity=96, time=0),
    Message('note_on', channel=11, note=54, velocity=0, time=58),
    Message('note_on', channel=11, note=66, velocity=0, time=0),
    Message('note_on', channel=11, note=54, velocity=96, time=1),
    Message('note_on', channel=11, note=66, velocity=96, time=0),
    Message('note_on', channel=11, note=54, velocity=0, time=58),
    Message('note_on', channel=11, note=66, velocity=0, time=0),
    Message('note_on', channel=11, note=54, velocity=96, time=2),
    Message('note_on', channel=11, note=66, velocity=96, time=0),
    Message('note_on', channel=11, note=54, velocity=0, time=58),
    Message('note_on', channel=11, note=66, velocity=0, time=0),
    Message('note_on', channel=11, note=54, velocity=96, time=1),
    Message('note_on', channel=11, note=66, velocity=96, time=0),
    Message('note_on', channel=11, note=54, velocity=0, time=58),
    Message('note_on', channel=11, note=66, velocity=0, time=0),
    Message('note_on', channel=11, note=54, velocity=96, time=2),
    Message('note_on', channel=11, note=66, velocity=96, time=0),
    Message('note_on', channel=11, note=54, velocity=0, time=58),
    Message('note_on', channel=11, note=66, velocity=0, time=0),
    Message('note_on', channel=11, note=54, velocity=96, time=17),
    Message('control_change', channel=11, control=2, value=96, time=0),
    Message('note_on', channel=11, note=66, velocity=96, time=0),
    Message('note_on', channel=11, note=54, velocity=0, time=58),
    Message('note_on', channel=11, note=66, velocity=0, time=0),
    Message('note_on', channel=11, note=54, velocity=96, time=1),
    Message('note_on', channel=11, note=66, velocity=96, time=0),
    Message('note_on', channel=11, note=54, velocity=0, time=58),
    Message('note_on', channel=11, note=66, velocity=0, time=0),
    Message('note_on', channel=11, note=54, velocity=96, time=2),
    Message('note_on', channel=11, note=66, velocity=96, time=0),
    Message('note_on', channel=11, note=54, velocity=0, time=58),
    Message('note_on', channel=11, note=66, velocity=0, time=0),
    Message('note_on', channel=11, note=54, velocity=96, time=1),
    Message('note_on', channel=11, note=66, velocity=96, time=0),
    Message('note_on', channel=11, note=54, velocity=0, time=58),
    Message('note_on', channel=11, note=66, velocity=0, time=0),
    Message('note_on', channel=11, note=54, velocity=96, time=2),
    Message('note_on', channel=11, note=66, velocity=96, time=0),
    Message('note_on', channel=11, note=54, velocity=0, time=58),
    Message('note_on', channel=11, note=66, velocity=0, time=0),
    Message('note_on', channel=11, note=54, velocity=96, time=1),
    Message('note_on', channel=11, note=66, velocity=96, time=0),
    Message('note_on', channel=11, note=54, velocity=0, time=58),
    Message('note_on', channel=11, note=66, velocity=0, time=0),
    Message('note_on', channel=11, note=54, velocity=96, time=2),
    Message('note_on', channel=11, note=66, velocity=96, time=0),
    Message('note_on', channel=11, note=54, velocity=0, time=58),
    Message('note_on', channel=11, note=66, velocity=0, time=0),
    Message('note_on', channel=11, note=54, velocity=96, time=1),
    Message('note_on', channel=11, note=66, velocity=96, time=0),
    Message('note_on', channel=11, note=54, velocity=0, time=58),
    Message('note_on', channel=11, note=66, velocity=0, time=0),
    Message('note_on', channel=11, note=54, velocity=96, time=2),
    Message('note_on', channel=11, note=66, velocity=96, time=0),
    Message('note_on', channel=11, note=54, velocity=0, time=58),
    Message('note_on', channel=11, note=66, velocity=0, time=0),
    Message('note_on', channel=11, note=54, velocity=96, time=1),
    Message('note_on', channel=11, note=66, velocity=96, time=0),
    Message('note_on', channel=11, note=54, velocity=0, time=58),
    Message('note_on', channel=11, note=66, velocity=0, time=0),
    Message('note_on', channel=11, note=54, velocity=96, time=2),
    Message('note_on', channel=11, note=66, velocity=96, time=0),
    Message('note_on', channel=11, note=54, velocity=0, time=58),
    Message('note_on', channel=11, note=66, velocity=0, time=0),
    Message('note_on', channel=11, note=54, velocity=96, time=1),
    Message('note_on', channel=11, note=66, velocity=96, time=0),
    Message('note_on', channel=11, note=54, velocity=0, time=58),
    Message('note_on', channel=11, note=66, velocity=0, time=0),
    Message('note_on', channel=11, note=54, velocity=96, time=2),
    Message('note_on', channel=11, note=66, velocity=96, time=0),
    Message('note_on', channel=11, note=54, velocity=0, time=58),
    Message('note_on', channel=11, note=66, velocity=0, time=0),
    Message('note_on', channel=11, note=54, velocity=96, time=1),
    Message('note_on', channel=11, note=66, velocity=96, time=0),
    Message('note_on', channel=11, note=54, velocity=0, time=58),
    Message('note_on', channel=11, note=66, velocity=0, time=0),
    Message('note_on', channel=11, note=54, velocity=96, time=2),
    Message('note_on', channel=11, note=66, velocity=96, time=0),
    Message('note_on', channel=11, note=54, velocity=0, time=58),
    Message('note_on', channel=11, note=66, velocity=0, time=0),
    Message('note_on', channel=11, note=54, velocity=96, time=1),
    Message('note_on', channel=11, note=66, velocity=96, time=0),
    Message('note_on', channel=11, note=54, velocity=0, time=58),
    Message('note_on', channel=11, note=66, velocity=0, time=0),
    Message('note_on', channel=11, note=59, velocity=96, time=10),
    Message('control_change', channel=11, control=2, value=96, time=0),
    Message('note_on', channel=11, note=62, velocity=96, time=0),
    Message('note_on', channel=11, note=59, velocity=0, time=59),
    Message('note_on', channel=11, note=62, velocity=0, time=0),
    Message('note_on', channel=11, note=59, velocity=96, time=1),
    Message('note_on', channel=11, note=62, velocity=96, time=0),
    Message('note_on', channel=11, note=59, velocity=0, time=59),
    Message('note_on', channel=11, note=62, velocity=0, time=0),
    Message('note_on', channel=11, note=59, velocity=96, time=1),
    Message('note_on', channel=11, note=62, velocity=96, time=0),
    Message('note_on', channel=11, note=59, velocity=0, time=59),
    Message('note_on', channel=11, note=62, velocity=0, time=0),
    Message('note_on', channel=11, note=59, velocity=96, time=1),
    Message('note_on', channel=11, note=62, velocity=96, time=0),
    Message('note_on', channel=11, note=59, velocity=0, time=59),
    Message('note_on', channel=11, note=62, velocity=0, time=0),
    Message('note_on', channel=11, note=59, velocity=96, time=1),
    Message('note_on', channel=11, note=62, velocity=96, time=0),
    Message('note_on', channel=11, note=59, velocity=0, time=59),
    Message('note_on', channel=11, note=62, velocity=0, time=0),
    Message('note_on', channel=11, note=59, velocity=96, time=1),
    Message('note_on', channel=11, note=62, velocity=96, time=0),
    Message('note_on', channel=11, note=59, velocity=0, time=59),
    Message('note_on', channel=11, note=62, velocity=0, time=0),
    Message('note_on', channel=11, note=59, velocity=96, time=1),
    Message('note_on', channel=11, note=62, velocity=96, time=0),
    Message('note_on', channel=11, note=59, velocity=0, time=59),
    Message('note_on', channel=11, note=62, velocity=0, time=0),
    Message('note_on', channel=11, note=59, velocity=96, time=1),
    Message('note_on', channel=11, note=62, velocity=96, time=0),
    Message('note_on', channel=11, note=59, velocity=0, time=59),
    Message('note_on', channel=11, note=62, velocity=0, time=0),
    Message('note_on', channel=11, note=58, velocity=96, time=1),
    Message('control_change', channel=11, control=2, value=96, time=0),
    Message('note_on', channel=11, note=64, velocity=96, time=0),
    Message('note_on', channel=11, note=58, velocity=0, time=59),
    Message('note_on', channel=11, note=64, velocity=0, time=0),
    Message('note_on', channel=11, note=58, velocity=96, time=1),
    Message('note_on', channel=11, note=64, velocity=96, time=0),
    Message('note_on', channel=11, note=58, velocity=0, time=59),
    Message('note_on', channel=11, note=64, velocity=0, time=0),
    Message('note_on', channel=11, note=58, velocity=96, time=1),
    Message('note_on', channel=11, note=64, velocity=96, time=0),
    Message('note_on', channel=11, note=58, velocity=0, time=59),
    Message('note_on', channel=11, note=64, velocity=0, time=0),
    Message('note_on', channel=11, note=58, velocity=96, time=1),
    Message('note_on', channel=11, note=64, velocity=96, time=0),
    Message('note_on', channel=11, note=58, velocity=0, time=59),
    Message('note_on', channel=11, note=64, velocity=0, time=0),
    Message('note_on', channel=11, note=58, velocity=96, time=1),
    Message('note_on', channel=11, note=64, velocity=96, time=0),
    Message('note_on', channel=11, note=58, velocity=0, time=59),
    Message('note_on', channel=11, note=64, velocity=0, time=0),
    Message('note_on', channel=11, note=58, velocity=96, time=1),
    Message('note_on', channel=11, note=64, velocity=96, time=0),
    Message('note_on', channel=11, note=58, velocity=0, time=59),
    Message('note_on', channel=11, note=64, velocity=0, time=0),
    Message('note_on', channel=11, note=58, velocity=96, time=1),
    Message('note_on', channel=11, note=64, velocity=96, time=0),
    Message('note_on', channel=11, note=58, velocity=0, time=59),
    Message('note_on', channel=11, note=64, velocity=0, time=0),
    Message('note_on', channel=11, note=58, velocity=96, time=1),
    Message('note_on', channel=11, note=64, velocity=96, time=0),
    Message('note_on', channel=11, note=58, velocity=0, time=59),
    Message('note_on', channel=11, note=64, velocity=0, time=0),
    Message('note_on', channel=11, note=59, velocity=96, time=1),
    Message('control_change', channel=11, control=2, value=96, time=0),
    Message('note_on', channel=11, note=66, velocity=96, time=0),
    Message('note_on', channel=11, note=59, velocity=0, time=58),
    Message('note_on', channel=11, note=66, velocity=0, time=0),
    Message('note_on', channel=11, note=59, velocity=96, time=1),
    Message('note_on', channel=11, note=66, velocity=96, time=0),
    Message('note_on', channel=11, note=59, velocity=0, time=58),
    Message('note_on', channel=11, note=66, velocity=0, time=0),
    Message('note_on', channel=11, note=59, velocity=96, time=2),
    Message('note_on', channel=11, note=66, velocity=96, time=0),
    Message('note_on', channel=11, note=59, velocity=0, time=58),
    Message('note_on', channel=11, note=66, velocity=0, time=0),
    Message('note_on', channel=11, note=59, velocity=96, time=1),
    Message('note_on', channel=11, note=66, velocity=96, time=0),
    Message('note_on', channel=11, note=59, velocity=0, time=58),
    Message('note_on', channel=11, note=66, velocity=0, time=0),
    Message('note_on', channel=11, note=59, velocity=96, time=2),
    Message('note_on', channel=11, note=66, velocity=96, time=0),
    Message('note_on', channel=11, note=59, velocity=0, time=58),
    Message('note_on', channel=11, note=66, velocity=0, time=0),
    Message('note_on', channel=11, note=59, velocity=96, time=1),
    Message('note_on', channel=11, note=66, velocity=96, time=0),
    Message('note_on', channel=11, note=59, velocity=0, time=58),
    Message('note_on', channel=11, note=66, velocity=0, time=0),
    Message('note_on', channel=11, note=59, velocity=96, time=2),
    Message('note_on', channel=11, note=66, velocity=96, time=0),
    Message('note_on', channel=11, note=59, velocity=0, time=58),
    Message('note_on', channel=11, note=66, velocity=0, time=0),
    Message('note_on', channel=11, note=59, velocity=96, time=1),
    Message('note_on', channel=11, note=66, velocity=96, time=0),
    Message('note_on', channel=11, note=59, velocity=0, time=58),
    Message('note_on', channel=11, note=66, velocity=0, time=0),
    Message('note_on', channel=11, note=59, velocity=96, time=2),
    Message('note_on', channel=11, note=66, velocity=96, time=0),
    Message('note_on', channel=11, note=59, velocity=0, time=58),
    Message('note_on', channel=11, note=66, velocity=0, time=0),
    Message('note_on', channel=11, note=59, velocity=96, time=1),
    Message('note_on', channel=11, note=66, velocity=96, time=0),
    Message('note_on', channel=11, note=59, velocity=0, time=58),
    Message('note_on', channel=11, note=66, velocity=0, time=0),
    Message('note_on', channel=11, note=59, velocity=96, time=2),
    Message('note_on', channel=11, note=66, velocity=96, time=0),
    Message('note_on', channel=11, note=59, velocity=0, time=58),
    Message('note_on', channel=11, note=66, velocity=0, time=0),
    Message('note_on', channel=11, note=59, velocity=96, time=1),
    Message('note_on', channel=11, note=66, velocity=96, time=0),
    Message('note_on', channel=11, note=59, velocity=0, time=58),
    Message('note_on', channel=11, note=66, velocity=0, time=0),
    Message('note_on', channel=11, note=59, velocity=96, time=2),
    Message('note_on', channel=11, note=66, velocity=96, time=0),
    Message('note_on', channel=11, note=59, velocity=0, time=58),
    Message('note_on', channel=11, note=66, velocity=0, time=0),
    Message('note_on', channel=11, note=59, velocity=96, time=1),
    Message('note_on', channel=11, note=66, velocity=96, time=0),
    Message('note_on', channel=11, note=59, velocity=0, time=58),
    Message('note_on', channel=11, note=66, velocity=0, time=0),
    Message('note_on', channel=11, note=59, velocity=96, time=2),
    Message('note_on', channel=11, note=66, velocity=96, time=0),
    Message('note_on', channel=11, note=59, velocity=0, time=58),
    Message('note_on', channel=11, note=66, velocity=0, time=0),
    Message('note_on', channel=11, note=59, velocity=96, time=1),
    Message('note_on', channel=11, note=66, velocity=96, time=0),
    Message('note_on', channel=11, note=59, velocity=0, time=58),
    Message('note_on', channel=11, note=66, velocity=0, time=0),
    Message('note_on', channel=11, note=59, velocity=96, time=10),
    Message('control_change', channel=11, control=2, value=96, time=0),
    Message('note_on', channel=11, note=67, velocity=96, time=0),
    Message('note_on', channel=11, note=59, velocity=0, time=58),
    Message('note_on', channel=11, note=67, velocity=0, time=0),
    Message('note_on', channel=11, note=59, velocity=96, time=1),
    Message('note_on', channel=11, note=67, velocity=96, time=0),
    Message('note_on', channel=11, note=59, velocity=0, time=58),
    Message('note_on', channel=11, note=67, velocity=0, time=0),
    Message('note_on', channel=11, note=59, velocity=96, time=2),
    Message('note_on', channel=11, note=67, velocity=96, time=0),
    Message('note_on', channel=11, note=59, velocity=0, time=58),
    Message('note_on', channel=11, note=67, velocity=0, time=0),
    Message('note_on', channel=11, note=59, velocity=96, time=1),
    Message('note_on', channel=11, note=67, velocity=96, time=0),
    Message('note_on', channel=11, note=59, velocity=0, time=58),
    Message('note_on', channel=11, note=67, velocity=0, time=0),
    Message('note_on', channel=11, note=59, velocity=96, time=2),
    Message('note_on', channel=11, note=67, velocity=96, time=0),
    Message('note_on', channel=11, note=59, velocity=0, time=58),
    Message('note_on', channel=11, note=67, velocity=0, time=0),
    Message('note_on', channel=11, note=59, velocity=96, time=1),
    Message('note_on', channel=11, note=67, velocity=96, time=0),
    Message('note_on', channel=11, note=59, velocity=0, time=58),
    Message('note_on', channel=11, note=67, velocity=0, time=0),
    Message('note_on', channel=11, note=59, velocity=96, time=2),
    Message('note_on', channel=11, note=67, velocity=96, time=0),
    Message('note_on', channel=11, note=59, velocity=0, time=58),
    Message('note_on', channel=11, note=67, velocity=0, time=0),
    Message('note_on', channel=11, note=59, velocity=96, time=1),
    Message('note_on', channel=11, note=67, velocity=96, time=0),
    Message('note_on', channel=11, note=59, velocity=0, time=58),
    Message('note_on', channel=11, note=67, velocity=0, time=0),
    Message('note_on', channel=11, note=59, velocity=96, time=2),
    Message('note_on', channel=11, note=67, velocity=96, time=0),
    Message('note_on', channel=11, note=59, velocity=0, time=58),
    Message('note_on', channel=11, note=67, velocity=0, time=0),
    Message('note_on', channel=11, note=59, velocity=96, time=1),
    Message('note_on', channel=11, note=67, velocity=96, time=0),
    Message('note_on', channel=11, note=59, velocity=0, time=58),
    Message('note_on', channel=11, note=67, velocity=0, time=0),
    Message('note_on', channel=11, note=59, velocity=96, time=2),
    Message('note_on', channel=11, note=67, velocity=96, time=0),
    Message('note_on', channel=11, note=59, velocity=0, time=58),
    Message('note_on', channel=11, note=67, velocity=0, time=0),
    Message('note_on', channel=11, note=59, velocity=96, time=1),
    Message('note_on', channel=11, note=67, velocity=96, time=0),
    Message('note_on', channel=11, note=59, velocity=0, time=58),
    Message('note_on', channel=11, note=67, velocity=0, time=0),
    Message('note_on', channel=11, note=59, velocity=96, time=2),
    Message('note_on', channel=11, note=67, velocity=96, time=0),
    Message('note_on', channel=11, note=59, velocity=0, time=58),
    Message('note_on', channel=11, note=67, velocity=0, time=0),
    Message('note_on', channel=11, note=59, velocity=96, time=1),
    Message('note_on', channel=11, note=67, velocity=96, time=0),
    Message('note_on', channel=11, note=59, velocity=0, time=58),
    Message('note_on', channel=11, note=67, velocity=0, time=0),
    Message('note_on', channel=11, note=59, velocity=96, time=2),
    Message('note_on', channel=11, note=67, velocity=96, time=0),
    Message('note_on', channel=11, note=59, velocity=0, time=58),
    Message('note_on', channel=11, note=67, velocity=0, time=0),
    Message('note_on', channel=11, note=59, velocity=96, time=1),
    Message('note_on', channel=11, note=67, velocity=96, time=0),
    Message('note_on', channel=11, note=59, velocity=0, time=58),
    Message('note_on', channel=11, note=67, velocity=0, time=0),
    Message('note_on', channel=11, note=59, velocity=96, time=10),
    Message('control_change', channel=11, control=2, value=96, time=0),
    Message('note_on', channel=11, note=66, velocity=96, time=0),
    Message('note_on', channel=11, note=59, velocity=0, time=58),
    Message('note_on', channel=11, note=66, velocity=0, time=0),
    Message('note_on', channel=11, note=59, velocity=96, time=1),
    Message('note_on', channel=11, note=66, velocity=96, time=0),
    Message('note_on', channel=11, note=59, velocity=0, time=58),
    Message('note_on', channel=11, note=66, velocity=0, time=0),
    Message('note_on', channel=11, note=59, velocity=96, time=2),
    Message('note_on', channel=11, note=66, velocity=96, time=0),
    Message('note_on', channel=11, note=59, velocity=0, time=58),
    Message('note_on', channel=11, note=66, velocity=0, time=0),
    Message('note_on', channel=11, note=59, velocity=96, time=1),
    Message('note_on', channel=11, note=66, velocity=96, time=0),
    Message('note_on', channel=11, note=59, velocity=0, time=58),
    Message('note_on', channel=11, note=66, velocity=0, time=0),
    Message('note_on', channel=11, note=59, velocity=96, time=2),
    Message('note_on', channel=11, note=66, velocity=96, time=0),
    Message('note_on', channel=11, note=59, velocity=0, time=58),
    Message('note_on', channel=11, note=66, velocity=0, time=0),
    Message('note_on', channel=11, note=59, velocity=96, time=1),
    Message('note_on', channel=11, note=66, velocity=96, time=0),
    Message('note_on', channel=11, note=59, velocity=0, time=58),
    Message('note_on', channel=11, note=66, velocity=0, time=0),
    Message('note_on', channel=11, note=59, velocity=96, time=2),
    Message('note_on', channel=11, note=66, velocity=96, time=0),
    Message('note_on', channel=11, note=59, velocity=0, time=58),
    Message('note_on', channel=11, note=66, velocity=0, time=0),
    Message('note_on', channel=11, note=59, velocity=96, time=1),
    Message('note_on', channel=11, note=66, velocity=96, time=0),
    Message('note_on', channel=11, note=59, velocity=0, time=58),
    Message('note_on', channel=11, note=66, velocity=0, time=0),
    Message('note_on', channel=11, note=59, velocity=96, time=2),
    Message('note_on', channel=11, note=66, velocity=96, time=0),
    Message('note_on', channel=11, note=59, velocity=0, time=58),
    Message('note_on', channel=11, note=66, velocity=0, time=0),
    Message('note_on', channel=11, note=59, velocity=96, time=1),
    Message('note_on', channel=11, note=66, velocity=96, time=0),
    Message('note_on', channel=11, note=59, velocity=0, time=58),
    Message('note_on', channel=11, note=66, velocity=0, time=0),
    Message('note_on', channel=11, note=59, velocity=96, time=2),
    Message('note_on', channel=11, note=66, velocity=96, time=0),
    Message('note_on', channel=11, note=59, velocity=0, time=58),
    Message('note_on', channel=11, note=66, velocity=0, time=0),
    Message('note_on', channel=11, note=59, velocity=96, time=1),
    Message('note_on', channel=11, note=66, velocity=96, time=0),
    Message('note_on', channel=11, note=59, velocity=0, time=58),
    Message('note_on', channel=11, note=66, velocity=0, time=0),
    Message('note_on', channel=11, note=59, velocity=96, time=2),
    Message('note_on', channel=11, note=66, velocity=96, time=0),
    Message('note_on', channel=11, note=59, velocity=0, time=58),
    Message('note_on', channel=11, note=66, velocity=0, time=0),
    Message('note_on', channel=11, note=59, velocity=96, time=1),
    Message('note_on', channel=11, note=66, velocity=96, time=0),
    Message('note_on', channel=11, note=59, velocity=0, time=58),
    Message('note_on', channel=11, note=66, velocity=0, time=0),
    Message('note_on', channel=11, note=59, velocity=96, time=2),
    Message('note_on', channel=11, note=66, velocity=96, time=0),
    Message('note_on', channel=11, note=59, velocity=0, time=58),
    Message('note_on', channel=11, note=66, velocity=0, time=0),
    Message('note_on', channel=11, note=59, velocity=96, time=1),
    Message('note_on', channel=11, note=66, velocity=96, time=0),
    Message('note_on', channel=11, note=59, velocity=0, time=58),
    Message('note_on', channel=11, note=66, velocity=0, time=0),
    Message('note_on', channel=11, note=59, velocity=96, time=10),
    Message('control_change', channel=11, control=2, value=96, time=0),
    Message('note_on', channel=11, note=67, velocity=96, time=0),
    Message('note_on', channel=11, note=59, velocity=0, time=58),
    Message('note_on', channel=11, note=67, velocity=0, time=0),
    Message('note_on', channel=11, note=59, velocity=96, time=1),
    Message('note_on', channel=11, note=67, velocity=96, time=0),
    Message('note_on', channel=11, note=59, velocity=0, time=58),
    Message('note_on', channel=11, note=67, velocity=0, time=0),
    Message('note_on', channel=11, note=59, velocity=96, time=2),
    Message('note_on', channel=11, note=67, velocity=96, time=0),
    Message('note_on', channel=11, note=59, velocity=0, time=58),
    Message('note_on', channel=11, note=67, velocity=0, time=0),
    Message('note_on', channel=11, note=59, velocity=96, time=1),
    Message('note_on', channel=11, note=67, velocity=96, time=0),
    Message('note_on', channel=11, note=59, velocity=0, time=58),
    Message('note_on', channel=11, note=67, velocity=0, time=0),
    Message('note_on', channel=11, note=59, velocity=96, time=2),
    Message('note_on', channel=11, note=67, velocity=96, time=0),
    Message('note_on', channel=11, note=59, velocity=0, time=58),
    Message('note_on', channel=11, note=67, velocity=0, time=0),
    Message('note_on', channel=11, note=59, velocity=96, time=1),
    Message('note_on', channel=11, note=67, velocity=96, time=0),
    Message('note_on', channel=11, note=59, velocity=0, time=58),
    Message('note_on', channel=11, note=67, velocity=0, time=0),
    Message('note_on', channel=11, note=59, velocity=96, time=2),
    Message('note_on', channel=11, note=67, velocity=96, time=0),
    Message('note_on', channel=11, note=59, velocity=0, time=58),
    Message('note_on', channel=11, note=67, velocity=0, time=0),
    Message('note_on', channel=11, note=59, velocity=96, time=1),
    Message('note_on', channel=11, note=67, velocity=96, time=0),
    Message('note_on', channel=11, note=59, velocity=0, time=58),
    Message('note_on', channel=11, note=67, velocity=0, time=0),
    Message('note_on', channel=11, note=59, velocity=96, time=2),
    Message('note_on', channel=11, note=67, velocity=96, time=0),
    Message('note_on', channel=11, note=59, velocity=0, time=58),
    Message('note_on', channel=11, note=67, velocity=0, time=0),
    Message('note_on', channel=11, note=59, velocity=96, time=1),
    Message('note_on', channel=11, note=67, velocity=96, time=0),
    Message('note_on', channel=11, note=59, velocity=0, time=58),
    Message('note_on', channel=11, note=67, velocity=0, time=0),
    Message('note_on', channel=11, note=59, velocity=96, time=2),
    Message('note_on', channel=11, note=67, velocity=96, time=0),
    Message('note_on', channel=11, note=59, velocity=0, time=58),
    Message('note_on', channel=11, note=67, velocity=0, time=0),
    Message('note_on', channel=11, note=59, velocity=96, time=1),
    Message('note_on', channel=11, note=67, velocity=96, time=0),
    Message('note_on', channel=11, note=59, velocity=0, time=58),
    Message('note_on', channel=11, note=67, velocity=0, time=0),
    Message('note_on', channel=11, note=59, velocity=96, time=2),
    Message('note_on', channel=11, note=67, velocity=96, time=0),
    Message('note_on', channel=11, note=59, velocity=0, time=58),
    Message('note_on', channel=11, note=67, velocity=0, time=0),
    Message('note_on', channel=11, note=59, velocity=96, time=1),
    Message('note_on', channel=11, note=67, velocity=96, time=0),
    Message('note_on', channel=11, note=59, velocity=0, time=58),
    Message('note_on', channel=11, note=67, velocity=0, time=0),
    Message('note_on', channel=11, note=59, velocity=96, time=2),
    Message('note_on', channel=11, note=67, velocity=96, time=0),
    Message('note_on', channel=11, note=59, velocity=0, time=58),
    Message('note_on', channel=11, note=67, velocity=0, time=0),
    Message('note_on', channel=11, note=59, velocity=96, time=1),
    Message('note_on', channel=11, note=67, velocity=96, time=0),
    Message('note_on', channel=11, note=59, velocity=0, time=58),
    Message('note_on', channel=11, note=67, velocity=0, time=0),
    Message('note_on', channel=11, note=59, velocity=96, time=10),
    Message('control_change', channel=11, control=2, value=96, time=0),
    Message('note_on', channel=11, note=66, velocity=96, time=0),
    Message('note_on', channel=11, note=59, velocity=0, time=58),
    Message('note_on', channel=11, note=66, velocity=0, time=0),
    Message('note_on', channel=11, note=59, velocity=96, time=1),
    Message('note_on', channel=11, note=66, velocity=96, time=0),
    Message('note_on', channel=11, note=59, velocity=0, time=58),
    Message('note_on', channel=11, note=66, velocity=0, time=0),
    Message('note_on', channel=11, note=59, velocity=96, time=2),
    Message('note_on', channel=11, note=66, velocity=96, time=0),
    Message('note_on', channel=11, note=59, velocity=0, time=58),
    Message('note_on', channel=11, note=66, velocity=0, time=0),
    Message('note_on', channel=11, note=59, velocity=96, time=1),
    Message('note_on', channel=11, note=66, velocity=96, time=0),
    Message('note_on', channel=11, note=59, velocity=0, time=58),
    Message('note_on', channel=11, note=66, velocity=0, time=0),
    Message('note_on', channel=11, note=59, velocity=96, time=2),
    Message('note_on', channel=11, note=66, velocity=96, time=0),
    Message('note_on', channel=11, note=59, velocity=0, time=58),
    Message('note_on', channel=11, note=66, velocity=0, time=0),
    Message('note_on', channel=11, note=59, velocity=96, time=1),
    Message('note_on', channel=11, note=66, velocity=96, time=0),
    Message('note_on', channel=11, note=59, velocity=0, time=58),
    Message('note_on', channel=11, note=66, velocity=0, time=0),
    Message('note_on', channel=11, note=59, velocity=96, time=2),
    Message('note_on', channel=11, note=66, velocity=96, time=0),
    Message('note_on', channel=11, note=59, velocity=0, time=58),
    Message('note_on', channel=11, note=66, velocity=0, time=0),
    Message('note_on', channel=11, note=59, velocity=96, time=1),
    Message('note_on', channel=11, note=66, velocity=96, time=0),
    Message('note_on', channel=11, note=59, velocity=0, time=58),
    Message('note_on', channel=11, note=66, velocity=0, time=0),
    Message('note_on', channel=11, note=59, velocity=96, time=2),
    Message('note_on', channel=11, note=66, velocity=96, time=0),
    Message('note_on', channel=11, note=59, velocity=0, time=58),
    Message('note_on', channel=11, note=66, velocity=0, time=0),
    Message('note_on', channel=11, note=59, velocity=96, time=1),
    Message('note_on', channel=11, note=66, velocity=96, time=0),
    Message('note_on', channel=11, note=59, velocity=0, time=58),
    Message('note_on', channel=11, note=66, velocity=0, time=0),
    Message('note_on', channel=11, note=59, velocity=96, time=2),
    Message('note_on', channel=11, note=66, velocity=96, time=0),
    Message('note_on', channel=11, note=59, velocity=0, time=58),
    Message('note_on', channel=11, note=66, velocity=0, time=0),
    Message('note_on', channel=11, note=59, velocity=96, time=1),
    Message('note_on', channel=11, note=66, velocity=96, time=0),
    Message('note_on', channel=11, note=59, velocity=0, time=58),
    Message('note_on', channel=11, note=66, velocity=0, time=0),
    Message('note_on', channel=11, note=59, velocity=96, time=2),
    Message('note_on', channel=11, note=66, velocity=96, time=0),
    Message('note_on', channel=11, note=59, velocity=0, time=58),
    Message('note_on', channel=11, note=66, velocity=0, time=0),
    Message('note_on', channel=11, note=59, velocity=96, time=1),
    Message('note_on', channel=11, note=66, velocity=96, time=0),
    Message('note_on', channel=11, note=59, velocity=0, time=58),
    Message('note_on', channel=11, note=66, velocity=0, time=0),
    Message('note_on', channel=11, note=59, velocity=96, time=2),
    Message('note_on', channel=11, note=66, velocity=96, time=0),
    Message('note_on', channel=11, note=59, velocity=0, time=58),
    Message('note_on', channel=11, note=66, velocity=0, time=0),
    Message('note_on', channel=11, note=59, velocity=96, time=1),
    Message('note_on', channel=11, note=66, velocity=96, time=0),
    Message('note_on', channel=11, note=59, velocity=0, time=58),
    Message('note_on', channel=11, note=66, velocity=0, time=0),
    Message('note_on', channel=11, note=59, velocity=96, time=2),
    Message('note_on', channel=11, note=66, velocity=96, time=0),
    Message('note_on', channel=11, note=59, velocity=0, time=58),
    Message('note_on', channel=11, note=66, velocity=0, time=0),
    Message('note_on', channel=11, note=59, velocity=96, time=1),
    Message('note_on', channel=11, note=66, velocity=96, time=0),
    Message('note_on', channel=11, note=59, velocity=0, time=58),
    Message('note_on', channel=11, note=66, velocity=0, time=0),
    Message('note_on', channel=11, note=59, velocity=96, time=2),
    Message('note_on', channel=11, note=66, velocity=96, time=0),
    Message('note_on', channel=11, note=59, velocity=0, time=58),
    Message('note_on', channel=11, note=66, velocity=0, time=0),
    Message('note_on', channel=11, note=59, velocity=96, time=1),
    Message('note_on', channel=11, note=66, velocity=96, time=0),
    Message('note_on', channel=11, note=59, velocity=0, time=58),
    Message('note_on', channel=11, note=66, velocity=0, time=0),
    Message('note_on', channel=11, note=59, velocity=96, time=2),
    Message('note_on', channel=11, note=66, velocity=96, time=0),
    Message('note_on', channel=11, note=59, velocity=0, time=58),
    Message('note_on', channel=11, note=66, velocity=0, time=0),
    Message('note_on', channel=11, note=59, velocity=96, time=1),
    Message('note_on', channel=11, note=66, velocity=96, time=0),
    Message('note_on', channel=11, note=59, velocity=0, time=58),
    Message('note_on', channel=11, note=66, velocity=0, time=0),
    Message('note_on', channel=11, note=59, velocity=96, time=2),
    Message('note_on', channel=11, note=66, velocity=96, time=0),
    Message('note_on', channel=11, note=59, velocity=0, time=58),
    Message('note_on', channel=11, note=66, velocity=0, time=0),
    Message('note_on', channel=11, note=59, velocity=96, time=1),
    Message('note_on', channel=11, note=66, velocity=96, time=0),
    Message('note_on', channel=11, note=59, velocity=0, time=58),
    Message('note_on', channel=11, note=66, velocity=0, time=0),
    Message('note_on', channel=11, note=59, velocity=96, time=2),
    Message('note_on', channel=11, note=66, velocity=96, time=0),
    Message('note_on', channel=11, note=59, velocity=0, time=58),
    Message('note_on', channel=11, note=66, velocity=0, time=0),
    Message('note_on', channel=11, note=59, velocity=96, time=2),
    Message('note_on', channel=11, note=66, velocity=96, time=0),
    Message('note_on', channel=11, note=59, velocity=0, time=58),
    Message('note_on', channel=11, note=66, velocity=0, time=0),
    Message('note_on', channel=11, note=59, velocity=96, time=1),
    Message('note_on', channel=11, note=66, velocity=96, time=0),
    Message('note_on', channel=11, note=59, velocity=0, time=58),
    Message('note_on', channel=11, note=66, velocity=0, time=0),
    Message('note_on', channel=11, note=59, velocity=96, time=2),
    Message('note_on', channel=11, note=66, velocity=96, time=0),
    Message('note_on', channel=11, note=59, velocity=0, time=58),
    Message('note_on', channel=11, note=66, velocity=0, time=0),
    Message('note_on', channel=11, note=59, velocity=96, time=1),
    Message('note_on', channel=11, note=66, velocity=96, time=0),
    Message('note_on', channel=11, note=59, velocity=0, time=58),
    Message('note_on', channel=11, note=66, velocity=0, time=0),
    Message('note_on', channel=11, note=59, velocity=96, time=2),
    Message('note_on', channel=11, note=66, velocity=96, time=0),
    Message('note_on', channel=11, note=59, velocity=0, time=58),
    Message('note_on', channel=11, note=66, velocity=0, time=0),
    Message('note_on', channel=11, note=59, velocity=96, time=1),
    Message('note_on', channel=11, note=66, velocity=96, time=0),
    Message('note_on', channel=11, note=59, velocity=0, time=58),
    Message('note_on', channel=11, note=66, velocity=0, time=0),
    Message('note_on', channel=11, note=59, velocity=96, time=2),
    Message('note_on', channel=11, note=66, velocity=96, time=0),
    Message('note_on', channel=11, note=59, velocity=0, time=58),
    Message('note_on', channel=11, note=66, velocity=0, time=0),
    Message('note_on', channel=11, note=59, velocity=96, time=17),
    Message('control_change', channel=11, control=2, value=96, time=0),
    Message('note_on', channel=11, note=66, velocity=96, time=0),
    Message('note_on', channel=11, note=59, velocity=0, time=58),
    Message('note_on', channel=11, note=66, velocity=0, time=0),
    Message('note_on', channel=11, note=59, velocity=96, time=1),
    Message('note_on', channel=11, note=66, velocity=96, time=0),
    Message('note_on', channel=11, note=59, velocity=0, time=58),
    Message('note_on', channel=11, note=66, velocity=0, time=0),
    Message('note_on', channel=11, note=59, velocity=96, time=2),
    Message('note_on', channel=11, note=66, velocity=96, time=0),
    Message('note_on', channel=11, note=59, velocity=0, time=58),
    Message('note_on', channel=11, note=66, velocity=0, time=0),
    Message('note_on', channel=11, note=59, velocity=96, time=1),
    Message('note_on', channel=11, note=66, velocity=96, time=0),
    Message('note_on', channel=11, note=59, velocity=0, time=58),
    Message('note_on', channel=11, note=66, velocity=0, time=0),
    Message('note_on', channel=11, note=59, velocity=96, time=2),
    Message('note_on', channel=11, note=66, velocity=96, time=0),
    Message('note_on', channel=11, note=59, velocity=0, time=58),
    Message('note_on', channel=11, note=66, velocity=0, time=0),
    Message('note_on', channel=11, note=59, velocity=96, time=1),
    Message('note_on', channel=11, note=66, velocity=96, time=0),
    Message('note_on', channel=11, note=59, velocity=0, time=58),
    Message('note_on', channel=11, note=66, velocity=0, time=0),
    Message('note_on', channel=11, note=59, velocity=96, time=2),
    Message('note_on', channel=11, note=66, velocity=96, time=0),
    Message('note_on', channel=11, note=59, velocity=0, time=58),
    Message('note_on', channel=11, note=66, velocity=0, time=0),
    Message('note_on', channel=11, note=59, velocity=96, time=1),
    Message('note_on', channel=11, note=66, velocity=96, time=0),
    Message('note_on', channel=11, note=59, velocity=0, time=58),
    Message('note_on', channel=11, note=66, velocity=0, time=0),
    Message('note_on', channel=11, note=59, velocity=96, time=2),
    Message('note_on', channel=11, note=66, velocity=96, time=0),
    Message('note_on', channel=11, note=59, velocity=0, time=58),
    Message('note_on', channel=11, note=66, velocity=0, time=0),
    Message('note_on', channel=11, note=59, velocity=96, time=1),
    Message('note_on', channel=11, note=66, velocity=96, time=0),
    Message('note_on', channel=11, note=59, velocity=0, time=58),
    Message('note_on', channel=11, note=66, velocity=0, time=0),
    Message('note_on', channel=11, note=59, velocity=96, time=2),
    Message('note_on', channel=11, note=66, velocity=96, time=0),
    Message('note_on', channel=11, note=59, velocity=0, time=58),
    Message('note_on', channel=11, note=66, velocity=0, time=0),
    Message('note_on', channel=11, note=59, velocity=96, time=1),
    Message('note_on', channel=11, note=66, velocity=96, time=0),
    Message('note_on', channel=11, note=59, velocity=0, time=58),
    Message('note_on', channel=11, note=66, velocity=0, time=0),
    Message('note_on', channel=11, note=59, velocity=96, time=2),
    Message('note_on', channel=11, note=66, velocity=96, time=0),
    Message('note_on', channel=11, note=59, velocity=0, time=58),
    Message('note_on', channel=11, note=66, velocity=0, time=0),
    Message('note_on', channel=11, note=59, velocity=96, time=1),
    Message('note_on', channel=11, note=66, velocity=96, time=0),
    Message('note_on', channel=11, note=59, velocity=0, time=58),
    Message('note_on', channel=11, note=66, velocity=0, time=0),
    Message('note_on', channel=11, note=59, velocity=96, time=2),
    Message('note_on', channel=11, note=66, velocity=96, time=0),
    Message('note_on', channel=11, note=59, velocity=0, time=58),
    Message('note_on', channel=11, note=66, velocity=0, time=0),
    Message('note_on', channel=11, note=59, velocity=96, time=1),
    Message('note_on', channel=11, note=66, velocity=96, time=0),
    Message('note_on', channel=11, note=59, velocity=0, time=58),
    Message('note_on', channel=11, note=66, velocity=0, time=0),
    Message('note_on', channel=11, note=59, velocity=96, time=10),
    Message('control_change', channel=11, control=2, value=96, time=0),
    Message('note_on', channel=11, note=62, velocity=96, time=0),
    Message('note_on', channel=11, note=59, velocity=0, time=59),
    Message('note_on', channel=11, note=62, velocity=0, time=0),
    Message('note_on', channel=11, note=59, velocity=96, time=1),
    Message('note_on', channel=11, note=62, velocity=96, time=0),
    Message('note_on', channel=11, note=59, velocity=0, time=59),
    Message('note_on', channel=11, note=62, velocity=0, time=0),
    Message('note_on', channel=11, note=59, velocity=96, time=1),
    Message('note_on', channel=11, note=62, velocity=96, time=0),
    Message('note_on', channel=11, note=59, velocity=0, time=59),
    Message('note_on', channel=11, note=62, velocity=0, time=0),
    Message('note_on', channel=11, note=59, velocity=96, time=1),
    Message('note_on', channel=11, note=62, velocity=96, time=0),
    Message('note_on', channel=11, note=59, velocity=0, time=59),
    Message('note_on', channel=11, note=62, velocity=0, time=0),
    Message('note_on', channel=11, note=59, velocity=96, time=1),
    Message('note_on', channel=11, note=62, velocity=96, time=0),
    Message('note_on', channel=11, note=59, velocity=0, time=59),
    Message('note_on', channel=11, note=62, velocity=0, time=0),
    Message('note_on', channel=11, note=59, velocity=96, time=1),
    Message('note_on', channel=11, note=62, velocity=96, time=0),
    Message('note_on', channel=11, note=59, velocity=0, time=59),
    Message('note_on', channel=11, note=62, velocity=0, time=0),
    Message('note_on', channel=11, note=59, velocity=96, time=1),
    Message('note_on', channel=11, note=62, velocity=96, time=0),
    Message('note_on', channel=11, note=59, velocity=0, time=59),
    Message('note_on', channel=11, note=62, velocity=0, time=0),
    Message('note_on', channel=11, note=59, velocity=96, time=1),
    Message('note_on', channel=11, note=62, velocity=96, time=0),
    Message('note_on', channel=11, note=59, velocity=0, time=59),
    Message('note_on', channel=11, note=62, velocity=0, time=0),
    Message('note_on', channel=11, note=58, velocity=96, time=1),
    Message('control_change', channel=11, control=2, value=96, time=0),
    Message('note_on', channel=11, note=64, velocity=96, time=0),
    Message('note_on', channel=11, note=58, velocity=0, time=59),
    Message('note_on', channel=11, note=64, velocity=0, time=0),
    Message('note_on', channel=11, note=58, velocity=96, time=1),
    Message('note_on', channel=11, note=64, velocity=96, time=0),
    Message('note_on', channel=11, note=58, velocity=0, time=59),
    Message('note_on', channel=11, note=64, velocity=0, time=0),
    Message('note_on', channel=11, note=58, velocity=96, time=1),
    Message('note_on', channel=11, note=64, velocity=96, time=0),
    Message('note_on', channel=11, note=58, velocity=0, time=59),
    Message('note_on', channel=11, note=64, velocity=0, time=0),
    Message('note_on', channel=11, note=58, velocity=96, time=1),
    Message('note_on', channel=11, note=64, velocity=96, time=0),
    Message('note_on', channel=11, note=58, velocity=0, time=59),
    Message('note_on', channel=11, note=64, velocity=0, time=0),
    Message('note_on', channel=11, note=58, velocity=96, time=1),
    Message('note_on', channel=11, note=64, velocity=96, time=0),
    Message('note_on', channel=11, note=58, velocity=0, time=59),
    Message('note_on', channel=11, note=64, velocity=0, time=0),
    Message('note_on', channel=11, note=58, velocity=96, time=1),
    Message('note_on', channel=11, note=64, velocity=96, time=0),
    Message('note_on', channel=11, note=58, velocity=0, time=59),
    Message('note_on', channel=11, note=64, velocity=0, time=0),
    Message('note_on', channel=11, note=58, velocity=96, time=1),
    Message('note_on', channel=11, note=64, velocity=96, time=0),
    Message('note_on', channel=11, note=58, velocity=0, time=59),
    Message('note_on', channel=11, note=64, velocity=0, time=0),
    Message('note_on', channel=11, note=58, velocity=96, time=1),
    Message('note_on', channel=11, note=64, velocity=96, time=0),
    Message('note_on', channel=11, note=58, velocity=0, time=59),
    Message('note_on', channel=11, note=64, velocity=0, time=0),
    Message('note_on', channel=11, note=54, velocity=96, time=1),
    Message('control_change', channel=11, control=2, value=96, time=0),
    Message('note_on', channel=11, note=66, velocity=96, time=0),
    Message('note_on', channel=11, note=54, velocity=0, time=239),
    Message('note_on', channel=11, note=66, velocity=0, time=0),
    Message('note_on', channel=11, note=59, velocity=96, time=1201),
    Message('control_change', channel=11, control=2, value=96, time=0),
    Message('note_on', channel=11, note=59, velocity=0, time=479),
    Message('note_on', channel=11, note=61, velocity=96, time=1),
    Message('control_change', channel=11, control=2, value=96, time=0),
    Message('note_on', channel=11, note=61, velocity=0, time=479),
    Message('note_on', channel=11, note=62, velocity=96, time=1),
    Message('control_change', channel=11, control=2, value=96, time=0),
    Message('note_on', channel=11, note=62, velocity=0, time=479),
    Message('note_on', channel=11, note=64, velocity=96, time=1),
    Message('control_change', channel=11, control=2, value=96, time=0),
    Message('note_on', channel=11, note=64, velocity=0, time=479),
    Message('note_on', channel=11, note=66, velocity=96, time=1),
    Message('control_change', channel=11, control=2, value=96, time=0),
    Message('note_on', channel=11, note=66, velocity=0, time=239),
    Message('note_on', channel=11, note=67, velocity=96, time=1),
    Message('control_change', channel=11, control=2, value=96, time=0),
    Message('note_on', channel=11, note=67, velocity=0, time=239),
    Message('note_on', channel=11, note=69, velocity=96, time=1),
    Message('control_change', channel=11, control=2, value=96, time=0),
    Message('note_on', channel=11, note=69, velocity=0, time=719),
    Message('note_on', channel=11, note=67, velocity=96, time=1),
    Message('control_change', channel=11, control=2, value=96, time=0),
    Message('note_on', channel=11, note=67, velocity=0, time=239),
    Message('note_on', channel=11, note=66, velocity=96, time=1),
    Message('control_change', channel=11, control=2, value=96, time=0),
    Message('note_on', channel=11, note=66, velocity=0, time=479),
    Message('note_on', channel=11, note=67, velocity=96, time=1),
    Message('control_change', channel=11, control=2, value=96, time=0),
    Message('note_on', channel=11, note=67, velocity=0, time=239),
    Message('note_on', channel=11, note=69, velocity=96, time=1),
    Message('control_change', channel=11, control=2, value=96, time=0),
    Message('note_on', channel=11, note=69, velocity=0, time=239),
    Message('note_on', channel=11, note=71, velocity=96, time=1),
    Message('control_change', channel=11, control=2, value=96, time=0),
    Message('note_on', channel=11, note=71, velocity=0, time=719),
    Message('note_on', channel=11, note=69, velocity=96, time=1),
    Message('control_change', channel=11, control=2, value=96, time=0),
    Message('note_on', channel=11, note=69, velocity=0, time=239),
    Message('note_on', channel=11, note=67, velocity=96, time=1),
    Message('control_change', channel=11, control=2, value=96, time=0),
    Message('note_on', channel=11, note=67, velocity=0, time=479),
    Message('note_on', channel=11, note=69, velocity=96, time=1),
    Message('control_change', channel=11, control=2, value=96, time=0),
    Message('note_on', channel=11, note=69, velocity=0, time=239),
    Message('note_on', channel=11, note=71, velocity=96, time=1),
    Message('control_change', channel=11, control=2, value=96, time=0),
    Message('note_on', channel=11, note=71, velocity=0, time=239),
    Message('note_on', channel=11, note=73, velocity=96, time=1),
    Message('control_change', channel=11, control=2, value=96, time=0),
    Message('note_on', channel=11, note=73, velocity=0, time=719),
    Message('note_on', channel=11, note=71, velocity=96, time=1),
    Message('control_change', channel=11, control=2, value=96, time=0),
    Message('note_on', channel=11, note=71, velocity=0, time=239),
    Message('note_on', channel=11, note=66, velocity=96, time=1),
    Message('control_change', channel=11, control=2, value=96, time=0),
    Message('note_on', channel=11, note=66, velocity=0, time=239),
    Message('note_on', channel=11, note=62, velocity=96, time=1),
    Message('control_change', channel=11, control=2, value=96, time=0),
    Message('note_on', channel=11, note=62, velocity=0, time=239),
    Message('note_on', channel=11, note=61, velocity=96, time=1),
    Message('control_change', channel=11, control=2, value=96, time=0),
    Message('note_on', channel=11, note=61, velocity=0, time=239),
    Message('note_on', channel=11, note=59, velocity=96, time=1),
    Message('control_change', channel=11, control=2, value=96, time=0),
    Message('note_on', channel=11, note=59, velocity=0, time=239),
    Message('note_on', channel=11, note=61, velocity=96, time=1),
    Message('control_change', channel=11, control=2, value=96, time=0),
    Message('note_on', channel=11, note=61, velocity=0, time=479),
    Message('note_on', channel=11, note=62, velocity=96, time=1),
    Message('control_change', channel=11, control=2, value=96, time=0),
    Message('note_on', channel=11, note=62, velocity=0, time=479),
    Message('note_on', channel=11, note=64, velocity=96, time=1),
    Message('control_change', channel=11, control=2, value=96, time=0),
    Message('note_on', channel=11, note=64, velocity=0, time=479),
    Message('note_on', channel=11, note=66, velocity=96, time=1),
    Message('control_change', channel=11, control=2, value=96, time=0),
    Message('note_on', channel=11, note=66, velocity=0, time=239),
    Message('note_on', channel=11, note=67, velocity=96, time=1),
    Message('control_change', channel=11, control=2, value=96, time=0),
    Message('note_on', channel=11, note=67, velocity=0, time=239),
    Message('note_on', channel=11, note=69, velocity=96, time=1),
    Message('control_change', channel=11, control=2, value=96, time=0),
    Message('note_on', channel=11, note=69, velocity=0, time=719),
    Message('note_on', channel=11, note=67, velocity=96, time=1),
    Message('control_change', channel=11, control=2, value=96, time=0),
    Message('note_on', channel=11, note=67, velocity=0, time=239),
    Message('note_on', channel=11, note=66, velocity=96, time=1),
    Message('control_change', channel=11, control=2, value=96, time=0),
    Message('note_on', channel=11, note=66, velocity=0, time=479),
    Message('note_on', channel=11, note=67, velocity=96, time=1),
    Message('control_change', channel=11, control=2, value=96, time=0),
    Message('note_on', channel=11, note=67, velocity=0, time=239),
    Message('note_on', channel=11, note=69, velocity=96, time=1),
    Message('control_change', channel=11, control=2, value=96, time=0),
    Message('note_on', channel=11, note=69, velocity=0, time=239),
    Message('note_on', channel=11, note=71, velocity=96, time=1),
    Message('control_change', channel=11, control=2, value=96, time=0),
    Message('note_on', channel=11, note=71, velocity=0, time=719),
    Message('note_on', channel=11, note=69, velocity=96, time=1),
    Message('control_change', channel=11, control=2, value=96, time=0),
    Message('note_on', channel=11, note=69, velocity=0, time=239),
    Message('note_on', channel=11, note=67, velocity=96, time=1),
    Message('control_change', channel=11, control=2, value=96, time=0),
    Message('note_on', channel=11, note=67, velocity=0, time=479),
    Message('note_on', channel=11, note=69, velocity=96, time=1),
    Message('control_change', channel=11, control=2, value=96, time=0),
    Message('note_on', channel=11, note=69, velocity=0, time=239),
    Message('note_on', channel=11, note=71, velocity=96, time=1),
    Message('control_change', channel=11, control=2, value=96, time=0),
    Message('note_on', channel=11, note=71, velocity=0, time=239),
    Message('note_on', channel=11, note=72, velocity=96, time=1),
    Message('control_change', channel=11, control=2, value=96, time=0),
    Message('note_on', channel=11, note=72, velocity=0, time=319),
    Message('note_on', channel=11, note=67, velocity=96, time=1),
    Message('control_change', channel=11, control=2, value=96, time=0),
    Message('note_on', channel=11, note=67, velocity=0, time=319),
    Message('note_on', channel=11, note=72, velocity=96, time=1),
    Message('control_change', channel=11, control=2, value=96, time=0),
    Message('note_on', channel=11, note=72, velocity=0, time=319),
    Message('note_on', channel=11, note=71, velocity=96, time=1),
    Message('control_change', channel=11, control=2, value=96, time=0),
    Message('note_on', channel=11, note=71, velocity=0, time=639),
    Message('note_on', channel=11, note=71, velocity=96, time=1),
    Message('control_change', channel=11, control=2, value=96, time=0),
    Message('note_on', channel=11, note=71, velocity=0, time=319),
    Message('note_on', channel=11, note=70, velocity=96, time=1),
    Message('control_change', channel=11, control=2, value=96, time=0),
    Message('note_on', channel=11, note=70, velocity=0, time=319),
    Message('note_on', channel=11, note=66, velocity=96, time=1),
    Message('control_change', channel=11, control=2, value=96, time=0),
    Message('note_on', channel=11, note=66, velocity=0, time=319),
    Message('note_on', channel=11, note=70, velocity=96, time=1),
    Message('control_change', channel=11, control=2, value=96, time=0),
    Message('note_on', channel=11, note=70, velocity=0, time=319),
    Message('note_on', channel=11, note=71, velocity=96, time=1),
    Message('control_change', channel=11, control=2, value=96, time=0),
    Message('note_on', channel=11, note=71, velocity=0, time=639),
    Message('note_on', channel=11, note=71, velocity=96, time=1),
    Message('control_change', channel=11, control=2, value=96, time=0),
    Message('note_on', channel=11, note=71, velocity=0, time=319),
    Message('note_on', channel=11, note=72, velocity=96, time=1),
    Message('control_change', channel=11, control=2, value=96, time=0),
    Message('note_on', channel=11, note=72, velocity=0, time=319),
    Message('note_on', channel=11, note=67, velocity=96, time=1),
    Message('control_change', channel=11, control=2, value=96, time=0),
    Message('note_on', channel=11, note=67, velocity=0, time=319),
    Message('note_on', channel=11, note=72, velocity=96, time=1),
    Message('control_change', channel=11, control=2, value=96, time=0),
    Message('note_on', channel=11, note=72, velocity=0, time=319),
    Message('note_on', channel=11, note=71, velocity=96, time=1),
    Message('control_change', channel=11, control=2, value=96, time=0),
    Message('note_on', channel=11, note=71, velocity=0, time=639),
    Message('note_on', channel=11, note=71, velocity=96, time=1),
    Message('control_change', channel=11, control=2, value=96, time=0),
    Message('note_on', channel=11, note=71, velocity=0, time=319),
    Message('note_on', channel=11, note=70, velocity=96, time=1),
    Message('control_change', channel=11, control=2, value=96, time=0),
    Message('note_on', channel=11, note=70, velocity=0, time=319),
    Message('note_on', channel=11, note=66, velocity=96, time=1),
    Message('control_change', channel=11, control=2, value=96, time=0),
    Message('note_on', channel=11, note=66, velocity=0, time=319),
    Message('note_on', channel=11, note=70, velocity=96, time=1),
    Message('control_change', channel=11, control=2, value=96, time=0),
    Message('note_on', channel=11, note=70, velocity=0, time=319),
    Message('note_on', channel=11, note=71, velocity=96, time=1),
    Message('control_change', channel=11, control=2, value=96, time=0),
    Message('note_on', channel=11, note=71, velocity=0, time=639),
    Message('note_on', channel=11, note=71, velocity=96, time=1),
    Message('control_change', channel=11, control=2, value=96, time=0),
    Message('note_on', channel=11, note=71, velocity=0, time=319),
    Message('control_change', channel=11, control=2, value=96, time=1),
    Message('note_on', channel=11, note=72, velocity=96, time=0),
    Message('note_on', channel=11, note=72, velocity=0, time=159),
    Message('note_on', channel=11, note=72, velocity=96, time=1),
    Message('note_on', channel=11, note=72, velocity=0, time=159),
    Message('note_on', channel=11, note=67, velocity=96, time=1),
    Message('control_change', channel=11, control=2, value=96, time=0),
    Message('note_on', channel=11, note=67, velocity=0, time=159),
    Message('control_change', channel=11, control=2, value=97, time=1),
    Message('note_on', channel=11, note=67, velocity=97, time=0),
    Message('note_on', channel=11, note=67, velocity=0, time=159),
    Message('note_on', channel=11, note=72, velocity=97, time=1),
    Message('control_change', channel=11, control=2, value=97, time=0),
    Message('note_on', channel=11, note=72, velocity=0, time=159),
    Message('note_on', channel=11, note=72, velocity=97, time=1),
    Message('note_on', channel=11, note=72, velocity=0, time=159),
    Message('control_change', channel=11, control=2, value=98, time=1),
    Message('note_on', channel=11, note=72, velocity=98, time=0),
    Message('note_on', channel=11, note=72, velocity=0, time=159),
    Message('note_on', channel=11, note=72, velocity=98, time=1),
    Message('note_on', channel=11, note=72, velocity=0, time=159),
    Message('note_on', channel=11, note=67, velocity=98, time=1),
    Message('control_change', channel=11, control=2, value=98, time=0),
    Message('note_on', channel=11, note=67, velocity=0, time=159),
    Message('control_change', channel=11, control=2, value=99, time=1),
    Message('note_on', channel=11, note=67, velocity=99, time=0),
    Message('note_on', channel=11, note=67, velocity=0, time=159),
    Message('note_on', channel=11, note=72, velocity=99, time=1),
    Message('control_change', channel=11, control=2, value=99, time=0),
    Message('note_on', channel=11, note=72, velocity=0, time=159),
    Message('note_on', channel=11, note=72, velocity=99, time=1),
    Message('note_on', channel=11, note=72, velocity=0, time=159),
    Message('control_change', channel=11, control=2, value=100, time=1),
    Message('note_on', channel=11, note=67, velocity=100, time=0),
    Message('note_on', channel=11, note=67, velocity=0, time=159),
    Message('note_on', channel=11, note=67, velocity=100, time=1),
    Message('note_on', channel=11, note=67, velocity=0, time=159),
    Message('note_on', channel=11, note=67, velocity=100, time=1),
    Message('control_change', channel=11, control=2, value=100, time=0),
    Message('note_on', channel=11, note=67, velocity=0, time=159),
    Message('control_change', channel=11, control=2, value=101, time=1),
    Message('note_on', channel=11, note=67, velocity=101, time=0),
    Message('note_on', channel=11, note=67, velocity=0, time=159),
    Message('note_on', channel=11, note=67, velocity=101, time=1),
    Message('control_change', channel=11, control=2, value=101, time=0),
    Message('note_on', channel=11, note=67, velocity=0, time=159),
    Message('note_on', channel=11, note=67, velocity=101, time=1),
    Message('note_on', channel=11, note=67, velocity=0, time=159),
    Message('control_change', channel=11, control=2, value=102, time=1),
    Message('note_on', channel=11, note=66, velocity=102, time=0),
    Message('note_on', channel=11, note=66, velocity=0, time=159),
    Message('note_on', channel=11, note=66, velocity=102, time=1),
    Message('note_on', channel=11, note=66, velocity=0, time=159),
    Message('note_on', channel=11, note=66, velocity=102, time=1),
    Message('control_change', channel=11, control=2, value=102, time=0),
    Message('note_on', channel=11, note=66, velocity=0, time=159),
    Message('control_change', channel=11, control=2, value=103, time=1),
    Message('note_on', channel=11, note=66, velocity=103, time=0),
    Message('note_on', channel=11, note=66, velocity=0, time=159),
    Message('note_on', channel=11, note=66, velocity=103, time=1),
    Message('control_change', channel=11, control=2, value=103, time=0),
    Message('note_on', channel=11, note=66, velocity=0, time=159),
    Message('note_on', channel=11, note=66, velocity=103, time=1),
    Message('note_on', channel=11, note=66, velocity=0, time=159),
    Message('control_change', channel=11, control=2, value=104, time=1),
    Message('note_on', channel=11, note=72, velocity=104, time=0),
    Message('note_on', channel=11, note=72, velocity=0, time=159),
    Message('note_on', channel=11, note=72, velocity=104, time=1),
    Message('note_on', channel=11, note=72, velocity=0, time=159),
    Message('note_on', channel=11, note=67, velocity=104, time=1),
    Message('control_change', channel=11, control=2, value=104, time=0),
    Message('note_on', channel=11, note=67, velocity=0, time=159),
    Message('control_change', channel=11, control=2, value=105, time=1),
    Message('note_on', channel=11, note=67, velocity=105, time=0),
    Message('note_on', channel=11, note=67, velocity=0, time=159),
    Message('note_on', channel=11, note=72, velocity=105, time=1),
    Message('control_change', channel=11, control=2, value=105, time=0),
    Message('note_on', channel=11, note=72, velocity=0, time=159),
    Message('note_on', channel=11, note=72, velocity=105, time=1),
    Message('note_on', channel=11, note=72, velocity=0, time=159),
    Message('control_change', channel=11, control=2, value=106, time=1),
    Message('note_on', channel=11, note=72, velocity=106, time=0),
    Message('note_on', channel=11, note=72, velocity=0, time=159),
    Message('note_on', channel=11, note=72, velocity=106, time=1),
    Message('note_on', channel=11, note=72, velocity=0, time=159),
    Message('note_on', channel=11, note=67, velocity=106, time=1),
    Message('control_change', channel=11, control=2, value=106, time=0),
    Message('note_on', channel=11, note=67, velocity=0, time=159),
    Message('control_change', channel=11, control=2, value=107, time=1),
    Message('note_on', channel=11, note=67, velocity=107, time=0),
    Message('note_on', channel=11, note=67, velocity=0, time=159),
    Message('note_on', channel=11, note=72, velocity=107, time=1),
    Message('control_change', channel=11, control=2, value=107, time=0),
    Message('note_on', channel=11, note=72, velocity=0, time=159),
    Message('note_on', channel=11, note=72, velocity=107, time=1),
    Message('note_on', channel=11, note=72, velocity=0, time=159),
    Message('control_change', channel=11, control=2, value=108, time=1),
    Message('note_on', channel=11, note=67, velocity=108, time=0),
    Message('note_on', channel=11, note=67, velocity=0, time=159),
    Message('note_on', channel=11, note=67, velocity=108, time=1),
    Message('note_on', channel=11, note=67, velocity=0, time=159),
    Message('note_on', channel=11, note=67, velocity=108, time=1),
    Message('control_change', channel=11, control=2, value=108, time=0),
    Message('note_on', channel=11, note=67, velocity=0, time=159),
    Message('control_change', channel=11, control=2, value=109, time=1),
    Message('note_on', channel=11, note=67, velocity=109, time=0),
    Message('note_on', channel=11, note=67, velocity=0, time=159),
    Message('note_on', channel=11, note=67, velocity=109, time=1),
    Message('control_change', channel=11, control=2, value=109, time=0),
    Message('note_on', channel=11, note=67, velocity=0, time=159),
    Message('note_on', channel=11, note=67, velocity=109, time=1),
    Message('note_on', channel=11, note=67, velocity=0, time=159),
    Message('control_change', channel=11, control=2, value=110, time=1),
    Message('note_on', channel=11, note=66, velocity=110, time=0),
    Message('note_on', channel=11, note=66, velocity=0, time=159),
    Message('note_on', channel=11, note=66, velocity=110, time=1),
    Message('note_on', channel=11, note=66, velocity=0, time=159),
    Message('note_on', channel=11, note=66, velocity=110, time=1),
    Message('control_change', channel=11, control=2, value=110, time=0),
    Message('note_on', channel=11, note=66, velocity=0, time=159),
    Message('control_change', channel=11, control=2, value=111, time=1),
    Message('note_on', channel=11, note=66, velocity=111, time=0),
    Message('note_on', channel=11, note=66, velocity=0, time=159),
    Message('note_on', channel=11, note=66, velocity=111, time=1),
    Message('control_change', channel=11, control=2, value=111, time=0),
    Message('note_on', channel=11, note=66, velocity=0, time=159),
    Message('note_on', channel=11, note=66, velocity=111, time=1),
    Message('note_on', channel=11, note=66, velocity=0, time=159),
    Message('control_change', channel=11, control=2, value=112, time=1),
    Message('note_on', channel=11, note=72, velocity=112, time=0),
    Message('note_on', channel=11, note=72, velocity=0, time=159),
    Message('note_on', channel=11, note=72, velocity=112, time=1),
    Message('note_on', channel=11, note=72, velocity=0, time=159),
    Message('note_on', channel=11, note=67, velocity=112, time=1),
    Message('control_change', channel=11, control=2, value=112, time=0),
    Message('note_on', channel=11, note=67, velocity=0, time=159),
    Message('note_on', channel=11, note=67, velocity=112, time=1),
    Message('note_on', channel=11, note=67, velocity=0, time=159),
    Message('note_on', channel=11, note=72, velocity=112, time=1),
    Message('control_change', channel=11, control=2, value=112, time=0),
    Message('note_on', channel=11, note=72, velocity=0, time=159),
    Message('note_on', channel=11, note=72, velocity=112, time=1),
    Message('note_on', channel=11, note=72, velocity=0, time=159),
    Message('note_on', channel=11, note=72, velocity=112, time=1),
    Message('control_change', channel=11, control=2, value=112, time=0),
    Message('note_on', channel=11, note=72, velocity=0, time=159),
    Message('note_on', channel=11, note=72, velocity=112, time=1),
    Message('note_on', channel=11, note=72, velocity=0, time=159),
    Message('note_on', channel=11, note=67, velocity=112, time=1),
    Message('control_change', channel=11, control=2, value=112, time=0),
    Message('note_on', channel=11, note=67, velocity=0, time=159),
    Message('note_on', channel=11, note=67, velocity=112, time=1),
    Message('note_on', channel=11, note=67, velocity=0, time=159),
    Message('note_on', channel=11, note=72, velocity=112, time=1),
    Message('control_change', channel=11, control=2, value=112, time=0),
    Message('note_on', channel=11, note=72, velocity=0, time=159),
    Message('note_on', channel=11, note=72, velocity=112, time=1),
    Message('note_on', channel=11, note=72, velocity=0, time=159),
    Message('note_on', channel=11, note=64, velocity=112, time=1),
    Message('control_change', channel=11, control=2, value=112, time=0),
    Message('note_on', channel=11, note=73, velocity=112, time=0),
    Message('note_on', channel=11, note=64, velocity=0, time=159),
    Message('note_on', channel=11, note=73, velocity=0, time=0),
    Message('note_on', channel=11, note=64, velocity=112, time=1),
    Message('note_on', channel=11, note=73, velocity=112, time=0),
    Message('note_on', channel=11, note=64, velocity=0, time=159),
    Message('note_on', channel=11, note=73, velocity=0, time=0),
    Message('note_on', channel=11, note=64, velocity=112, time=1),
    Message('control_change', channel=11, control=2, value=112, time=0),
    Message('note_on', channel=11, note=73, velocity=112, time=0),
    Message('note_on', channel=11, note=64, velocity=0, time=159),
    Message('note_on', channel=11, note=73, velocity=0, time=0),
    Message('note_on', channel=11, note=64, velocity=112, time=1),
    Message('note_on', channel=11, note=73, velocity=112, time=0),
    Message('note_on', channel=11, note=64, velocity=0, time=159),
    Message('note_on', channel=11, note=73, velocity=0, time=0),
    Message('note_on', channel=11, note=64, velocity=112, time=1),
    Message('control_change', channel=11, control=2, value=112, time=0),
    Message('note_on', channel=11, note=73, velocity=112, time=0),
    Message('note_on', channel=11, note=64, velocity=0, time=159),
    Message('note_on', channel=11, note=73, velocity=0, time=0),
    Message('note_on', channel=11, note=64, velocity=112, time=1),
    Message('note_on', channel=11, note=73, velocity=112, time=0),
    Message('note_on', channel=11, note=64, velocity=0, time=159),
    Message('note_on', channel=11, note=73, velocity=0, time=0),
    Message('note_on', channel=11, note=64, velocity=112, time=1),
    Message('control_change', channel=11, control=2, value=112, time=0),
    Message('note_on', channel=11, note=73, velocity=112, time=0),
    Message('note_on', channel=11, note=64, velocity=0, time=159),
    Message('note_on', channel=11, note=73, velocity=0, time=0),
    Message('note_on', channel=11, note=64, velocity=112, time=1),
    Message('note_on', channel=11, note=73, velocity=112, time=0),
    Message('note_on', channel=11, note=64, velocity=0, time=159),
    Message('note_on', channel=11, note=73, velocity=0, time=0),
    Message('note_on', channel=11, note=64, velocity=112, time=1),
    Message('control_change', channel=11, control=2, value=112, time=0),
    Message('note_on', channel=11, note=73, velocity=112, time=0),
    Message('note_on', channel=11, note=64, velocity=0, time=159),
    Message('note_on', channel=11, note=73, velocity=0, time=0),
    Message('note_on', channel=11, note=64, velocity=112, time=1),
    Message('note_on', channel=11, note=73, velocity=112, time=0),
    Message('note_on', channel=11, note=64, velocity=0, time=159),
    Message('note_on', channel=11, note=73, velocity=0, time=0),
    Message('note_on', channel=11, note=64, velocity=112, time=1),
    Message('control_change', channel=11, control=2, value=112, time=0),
    Message('note_on', channel=11, note=73, velocity=112, time=0),
    Message('note_on', channel=11, note=64, velocity=0, time=159),
    Message('note_on', channel=11, note=73, velocity=0, time=0),
    Message('note_on', channel=11, note=64, velocity=112, time=1),
    Message('note_on', channel=11, note=73, velocity=112, time=0),
    Message('note_on', channel=11, note=64, velocity=0, time=159),
    Message('note_on', channel=11, note=73, velocity=0, time=0),
    Message('note_on', channel=11, note=74, velocity=112, time=1),
    Message('control_change', channel=11, control=2, value=112, time=0),
    Message('note_on', channel=11, note=74, velocity=0, time=159),
    Message('note_on', channel=11, note=74, velocity=112, time=1),
    Message('note_on', channel=11, note=74, velocity=0, time=159),
    Message('note_on', channel=11, note=70, velocity=112, time=1),
    Message('control_change', channel=11, control=2, value=112, time=0),
    Message('note_on', channel=11, note=70, velocity=0, time=159),
    Message('note_on', channel=11, note=70, velocity=112, time=1),
    Message('note_on', channel=11, note=70, velocity=0, time=159),
    Message('note_on', channel=11, note=74, velocity=112, time=1),
    Message('control_change', channel=11, control=2, value=112, time=0),
    Message('note_on', channel=11, note=74, velocity=0, time=159),
    Message('note_on', channel=11, note=74, velocity=112, time=1),
    Message('note_on', channel=11, note=74, velocity=0, time=159),
    Message('note_on', channel=11, note=74, velocity=112, time=1),
    Message('control_change', channel=11, control=2, value=112, time=0),
    Message('note_on', channel=11, note=74, velocity=0, time=159),
    Message('note_on', channel=11, note=74, velocity=112, time=1),
    Message('note_on', channel=11, note=74, velocity=0, time=159),
    Message('note_on', channel=11, note=70, velocity=112, time=1),
    Message('control_change', channel=11, control=2, value=112, time=0),
    Message('note_on', channel=11, note=70, velocity=0, time=159),
    Message('note_on', channel=11, note=70, velocity=112, time=1),
    Message('note_on', channel=11, note=70, velocity=0, time=159),
    Message('note_on', channel=11, note=74, velocity=112, time=1),
    Message('control_change', channel=11, control=2, value=112, time=0),
    Message('note_on', channel=11, note=74, velocity=0, time=159),
    Message('note_on', channel=11, note=74, velocity=112, time=1),
    Message('note_on', channel=11, note=74, velocity=0, time=159),
    Message('note_on', channel=11, note=62, velocity=112, time=1),
    Message('control_change', channel=11, control=2, value=112, time=0),
    Message('note_on', channel=11, note=70, velocity=112, time=0),
    Message('note_on', channel=11, note=62, velocity=0, time=159),
    Message('note_on', channel=11, note=70, velocity=0, time=0),
    Message('note_on', channel=11, note=62, velocity=112, time=1),
    Message('note_on', channel=11, note=70, velocity=112, time=0),
    Message('note_on', channel=11, note=62, velocity=0, time=159),
    Message('note_on', channel=11, note=70, velocity=0, time=0),
    Message('note_on', channel=11, note=62, velocity=112, time=1),
    Message('control_change', channel=11, control=2, value=112, time=0),
    Message('note_on', channel=11, note=70, velocity=112, time=0),
    Message('note_on', channel=11, note=62, velocity=0, time=159),
    Message('note_on', channel=11, note=70, velocity=0, time=0),
    Message('note_on', channel=11, note=62, velocity=112, time=1),
    Message('note_on', channel=11, note=70, velocity=112, time=0),
    Message('note_on', channel=11, note=62, velocity=0, time=159),
    Message('note_on', channel=11, note=70, velocity=0, time=0),
    Message('note_on', channel=11, note=62, velocity=112, time=1),
    Message('control_change', channel=11, control=2, value=112, time=0),
    Message('note_on', channel=11, note=70, velocity=112, time=0),
    Message('note_on', channel=11, note=62, velocity=0, time=159),
    Message('note_on', channel=11, note=70, velocity=0, time=0),
    Message('note_on', channel=11, note=62, velocity=112, time=1),
    Message('note_on', channel=11, note=70, velocity=112, time=0),
    Message('note_on', channel=11, note=62, velocity=0, time=159),
    Message('note_on', channel=11, note=70, velocity=0, time=0),
    Message('note_on', channel=11, note=62, velocity=112, time=1),
    Message('control_change', channel=11, control=2, value=112, time=0),
    Message('note_on', channel=11, note=70, velocity=112, time=0),
    Message('note_on', channel=11, note=62, velocity=0, time=159),
    Message('note_on', channel=11, note=70, velocity=0, time=0),
    Message('note_on', channel=11, note=62, velocity=112, time=1),
    Message('note_on', channel=11, note=70, velocity=112, time=0),
    Message('note_on', channel=11, note=62, velocity=0, time=159),
    Message('note_on', channel=11, note=70, velocity=0, time=0),
    Message('note_on', channel=11, note=62, velocity=112, time=1),
    Message('control_change', channel=11, control=2, value=112, time=0),
    Message('note_on', channel=11, note=70, velocity=112, time=0),
    Message('note_on', channel=11, note=62, velocity=0, time=159),
    Message('note_on', channel=11, note=70, velocity=0, time=0),
    Message('note_on', channel=11, note=62, velocity=112, time=1),
    Message('note_on', channel=11, note=70, velocity=112, time=0),
    Message('note_on', channel=11, note=62, velocity=0, time=159),
    Message('note_on', channel=11, note=70, velocity=0, time=0),
    Message('note_on', channel=11, note=61, velocity=112, time=1),
    Message('control_change', channel=11, control=2, value=112, time=0),
    Message('note_on', channel=11, note=70, velocity=112, time=0),
    Message('note_on', channel=11, note=61, velocity=0, time=159),
    Message('note_on', channel=11, note=70, velocity=0, time=0),
    Message('note_on', channel=11, note=61, velocity=112, time=1),
    Message('note_on', channel=11, note=70, velocity=112, time=0),
    Message('note_on', channel=11, note=61, velocity=0, time=159),
    Message('note_on', channel=11, note=70, velocity=0, time=0),
    Message('note_on', channel=11, note=62, velocity=112, time=1),
    Message('control_change', channel=11, control=2, value=112, time=0),
    Message('note_on', channel=11, note=62, velocity=0, time=159),
    Message('note_on', channel=11, note=62, velocity=112, time=1),
    Message('note_on', channel=11, note=62, velocity=0, time=159),
    Message('note_on', channel=11, note=62, velocity=112, time=1),
    Message('control_change', channel=11, control=2, value=112, time=0),
    Message('note_on', channel=11, note=62, velocity=0, time=159),
    Message('note_on', channel=11, note=62, velocity=112, time=1),
    Message('note_on', channel=11, note=62, velocity=0, time=159),
    Message('note_on', channel=11, note=61, velocity=112, time=1),
    Message('control_change', channel=11, control=2, value=112, time=0),
    Message('note_on', channel=11, note=61, velocity=0, time=159),
    Message('note_on', channel=11, note=61, velocity=112, time=1),
    Message('note_on', channel=11, note=61, velocity=0, time=159),
    Message('note_on', channel=11, note=62, velocity=112, time=1),
    Message('control_change', channel=11, control=2, value=112, time=0),
    Message('note_on', channel=11, note=62, velocity=0, time=159),
    Message('note_on', channel=11, note=62, velocity=112, time=1),
    Message('note_on', channel=11, note=62, velocity=0, time=159),
    Message('note_on', channel=11, note=62, velocity=112, time=1),
    Message('control_change', channel=11, control=2, value=112, time=0),
    Message('note_on', channel=11, note=62, velocity=0, time=159),
    Message('note_on', channel=11, note=62, velocity=112, time=1),
    Message('note_on', channel=11, note=62, velocity=0, time=159),
    Message('note_on', channel=11, note=61, velocity=112, time=1),
    Message('control_change', channel=11, control=2, value=112, time=0),
    Message('note_on', channel=11, note=61, velocity=0, time=159),
    Message('note_on', channel=11, note=61, velocity=112, time=1),
    Message('note_on', channel=11, note=61, velocity=0, time=159),
    Message('note_on', channel=11, note=62, velocity=112, time=1),
    Message('control_change', channel=11, control=2, value=112, time=0),
    Message('note_on', channel=11, note=62, velocity=0, time=159),
    Message('note_on', channel=11, note=62, velocity=112, time=1),
    Message('note_on', channel=11, note=62, velocity=0, time=159),
    Message('note_on', channel=11, note=62, velocity=112, time=1),
    Message('control_change', channel=11, control=2, value=112, time=0),
    Message('note_on', channel=11, note=62, velocity=0, time=159),
    Message('note_on', channel=11, note=62, velocity=112, time=1),
    Message('note_on', channel=11, note=62, velocity=0, time=159),
    Message('note_on', channel=11, note=61, velocity=112, time=1),
    Message('control_change', channel=11, control=2, value=112, time=0),
    Message('note_on', channel=11, note=61, velocity=0, time=159),
    Message('note_on', channel=11, note=61, velocity=112, time=1),
    Message('note_on', channel=11, note=61, velocity=0, time=159),
    Message('note_on', channel=11, note=62, velocity=112, time=1),
    Message('control_change', channel=11, control=2, value=112, time=0),
    Message('note_on', channel=11, note=62, velocity=0, time=159),
    Message('note_on', channel=11, note=62, velocity=112, time=1),
    Message('note_on', channel=11, note=62, velocity=0, time=159),
    Message('note_on', channel=11, note=62, velocity=112, time=1),
    Message('control_change', channel=11, control=2, value=112, time=0),
    Message('note_on', channel=11, note=62, velocity=0, time=159),
    Message('note_on', channel=11, note=62, velocity=112, time=1),
    Message('note_on', channel=11, note=62, velocity=0, time=159),
    Message('note_on', channel=11, note=61, velocity=112, time=1),
    Message('control_change', channel=11, control=2, value=112, time=0),
    Message('note_on', channel=11, note=61, velocity=0, time=159),
    Message('note_on', channel=11, note=61, velocity=112, time=1),
    Message('note_on', channel=11, note=61, velocity=0, time=159),
    Message('note_on', channel=11, note=66, velocity=112, time=1),
    Message('control_change', channel=11, control=2, value=112, time=0),
    Message('note_on', channel=11, note=66, velocity=0, time=119),
    Message('note_on', channel=11, note=66, velocity=112, time=1),
    Message('note_on', channel=11, note=66, velocity=0, time=119),
    Message('note_on', channel=11, note=66, velocity=112, time=1),
    Message('note_on', channel=11, note=66, velocity=0, time=119),
    Message('note_on', channel=11, note=66, velocity=112, time=1),
    Message('note_on', channel=11, note=66, velocity=0, time=119),
    Message('note_on', channel=11, note=76, velocity=112, time=1),
    Message('control_change', channel=11, control=2, value=112, time=0),
    Message('note_on', channel=11, note=76, velocity=0, time=119),
    Message('note_on', channel=11, note=76, velocity=112, time=1),
    Message('note_on', channel=11, note=76, velocity=0, time=119),
    Message('note_on', channel=11, note=76, velocity=112, time=1),
    Message('note_on', channel=11, note=76, velocity=0, time=119),
    Message('note_on', channel=11, note=76, velocity=112, time=1),
    Message('note_on', channel=11, note=76, velocity=0, time=119),
    Message('note_on', channel=11, note=73, velocity=112, time=1),
    Message('control_change', channel=11, control=2, value=112, time=0),
    Message('note_on', channel=11, note=73, velocity=0, time=119),
    Message('note_on', channel=11, note=73, velocity=112, time=1),
    Message('note_on', channel=11, note=73, velocity=0, time=119),
    Message('note_on', channel=11, note=73, velocity=112, time=1),
    Message('note_on', channel=11, note=73, velocity=0, time=119),
    Message('note_on', channel=11, note=73, velocity=112, time=1),
    Message('note_on', channel=11, note=73, velocity=0, time=119),
    Message('note_on', channel=11, note=70, velocity=112, time=1),
    Message('control_change', channel=11, control=2, value=112, time=0),
    Message('note_on', channel=11, note=70, velocity=0, time=119),
    Message('note_on', channel=11, note=70, velocity=112, time=1),
    Message('note_on', channel=11, note=70, velocity=0, time=119),
    Message('note_on', channel=11, note=70, velocity=112, time=1),
    Message('note_on', channel=11, note=70, velocity=0, time=119),
    Message('note_on', channel=11, note=70, velocity=112, time=1),
    Message('note_on', channel=11, note=70, velocity=0, time=119),
    Message('note_on', channel=11, note=66, velocity=112, time=1),
    Message('control_change', channel=11, control=2, value=112, time=0),
    Message('note_on', channel=11, note=66, velocity=0, time=119),
    Message('note_on', channel=11, note=66, velocity=112, time=1),
    Message('note_on', channel=11, note=66, velocity=0, time=119),
    Message('note_on', channel=11, note=66, velocity=112, time=1),
    Message('note_on', channel=11, note=66, velocity=0, time=119),
    Message('note_on', channel=11, note=66, velocity=112, time=1),
    Message('note_on', channel=11, note=66, velocity=0, time=119),
    Message('note_on', channel=11, note=66, velocity=126, time=5281),
    Message('control_change', channel=11, control=2, value=126, time=0),
    Message('note_on', channel=11, note=66, velocity=0, time=1919),
    Message('note_on', channel=11, note=59, velocity=126, time=1),
    Message('control_change', channel=11, control=2, value=126, time=0),
    Message('note_on', channel=11, note=59, velocity=0, time=119),
    Message('note_on', channel=11, note=59, velocity=126, time=1),
    Message('note_on', channel=11, note=59, velocity=0, time=119),
    Message('note_on', channel=11, note=59, velocity=126, time=1),
    Message('note_on', channel=11, note=59, velocity=0, time=119),
    Message('note_on', channel=11, note=59, velocity=126, time=1),
    Message('note_on', channel=11, note=59, velocity=0, time=119),
    Message('note_on', channel=11, note=61, velocity=126, time=1),
    Message('control_change', channel=11, control=2, value=126, time=0),
    Message('note_on', channel=11, note=61, velocity=0, time=119),
    Message('note_on', channel=11, note=61, velocity=126, time=1),
    Message('note_on', channel=11, note=61, velocity=0, time=119),
    Message('note_on', channel=11, note=61, velocity=126, time=1),
    Message('note_on', channel=11, note=61, velocity=0, time=119),
    Message('note_on', channel=11, note=61, velocity=126, time=1),
    Message('note_on', channel=11, note=61, velocity=0, time=119),
    Message('note_on', channel=11, note=62, velocity=126, time=1),
    Message('control_change', channel=11, control=2, value=126, time=0),
    Message('note_on', channel=11, note=62, velocity=0, time=119),
    Message('note_on', channel=11, note=62, velocity=126, time=1),
    Message('note_on', channel=11, note=62, velocity=0, time=119),
    Message('note_on', channel=11, note=62, velocity=126, time=1),
    Message('note_on', channel=11, note=62, velocity=0, time=119),
    Message('note_on', channel=11, note=62, velocity=126, time=1),
    Message('note_on', channel=11, note=62, velocity=0, time=119),
    Message('note_on', channel=11, note=64, velocity=126, time=1),
    Message('control_change', channel=11, control=2, value=126, time=0),
    Message('note_on', channel=11, note=64, velocity=0, time=119),
    Message('note_on', channel=11, note=64, velocity=126, time=1),
    Message('note_on', channel=11, note=64, velocity=0, time=119),
    Message('note_on', channel=11, note=64, velocity=126, time=1),
    Message('note_on', channel=11, note=64, velocity=0, time=119),
    Message('note_on', channel=11, note=64, velocity=126, time=1),
    Message('note_on', channel=11, note=64, velocity=0, time=119),
    Message('note_on', channel=11, note=66, velocity=126, time=1),
    Message('control_change', channel=11, control=2, value=126, time=0),
    Message('note_on', channel=11, note=66, velocity=0, time=118),
    Message('note_on', channel=11, note=66, velocity=126, time=1),
    Message('note_on', channel=11, note=66, velocity=0, time=118),
    Message('note_on', channel=11, note=66, velocity=126, time=2),
    Message('note_on', channel=11, note=66, velocity=0, time=118),
    Message('note_on', channel=11, note=66, velocity=126, time=1),
    Message('note_on', channel=11, note=66, velocity=0, time=118),
    Message('note_on', channel=11, note=66, velocity=126, time=2),
    Message('note_on', channel=11, note=66, velocity=0, time=118),
    Message('note_on', channel=11, note=66, velocity=126, time=1),
    Message('note_on', channel=11, note=66, velocity=0, time=118),
    Message('note_on', channel=11, note=66, velocity=126, time=2),
    Message('note_on', channel=11, note=66, velocity=0, time=118),
    Message('note_on', channel=11, note=66, velocity=126, time=1),
    Message('note_on', channel=11, note=66, velocity=0, time=118),
    Message('note_on', channel=11, note=66, velocity=126, time=2),
    Message('note_on', channel=11, note=66, velocity=0, time=118),
    Message('note_on', channel=11, note=66, velocity=126, time=1),
    Message('note_on', channel=11, note=66, velocity=0, time=118),
    Message('note_on', channel=11, note=66, velocity=126, time=2),
    Message('note_on', channel=11, note=66, velocity=0, time=118),
    Message('note_on', channel=11, note=66, velocity=126, time=1),
    Message('note_on', channel=11, note=66, velocity=0, time=118),
    Message('note_on', channel=11, note=62, velocity=126, time=8),
    Message('control_change', channel=11, control=2, value=126, time=0),
    Message('note_on', channel=11, note=62, velocity=0, time=119),
    Message('note_on', channel=11, note=62, velocity=126, time=1),
    Message('note_on', channel=11, note=62, velocity=0, time=119),
    Message('note_on', channel=11, note=62, velocity=126, time=1),
    Message('note_on', channel=11, note=62, velocity=0, time=119),
    Message('note_on', channel=11, note=62, velocity=126, time=1),
    Message('note_on', channel=11, note=62, velocity=0, time=119),
    Message('note_on', channel=11, note=66, velocity=126, time=1),
    Message('control_change', channel=11, control=2, value=126, time=0),
    Message('note_on', channel=11, note=66, velocity=0, time=118),
    Message('note_on', channel=11, note=66, velocity=126, time=1),
    Message('note_on', channel=11, note=66, velocity=0, time=118),
    Message('note_on', channel=11, note=66, velocity=126, time=2),
    Message('note_on', channel=11, note=66, velocity=0, time=118),
    Message('note_on', channel=11, note=66, velocity=126, time=1),
    Message('note_on', channel=11, note=66, velocity=0, time=118),
    Message('note_on', channel=11, note=66, velocity=126, time=2),
    Message('note_on', channel=11, note=66, velocity=0, time=118),
    Message('note_on', channel=11, note=66, velocity=126, time=1),
    Message('note_on', channel=11, note=66, velocity=0, time=118),
    Message('note_on', channel=11, note=66, velocity=126, time=2),
    Message('note_on', channel=11, note=66, velocity=0, time=118),
    Message('note_on', channel=11, note=66, velocity=126, time=1),
    Message('note_on', channel=11, note=66, velocity=0, time=118),
    Message('note_on', channel=11, note=66, velocity=126, time=2),
    Message('note_on', channel=11, note=66, velocity=0, time=118),
    Message('note_on', channel=11, note=66, velocity=126, time=1),
    Message('note_on', channel=11, note=66, velocity=0, time=118),
    Message('note_on', channel=11, note=66, velocity=126, time=2),
    Message('note_on', channel=11, note=66, velocity=0, time=118),
    Message('note_on', channel=11, note=66, velocity=126, time=1),
    Message('note_on', channel=11, note=66, velocity=0, time=118),
    Message('note_on', channel=11, note=62, velocity=126, time=8),
    Message('control_change', channel=11, control=2, value=126, time=0),
    Message('note_on', channel=11, note=62, velocity=0, time=119),
    Message('note_on', channel=11, note=62, velocity=126, time=1),
    Message('note_on', channel=11, note=62, velocity=0, time=119),
    Message('note_on', channel=11, note=62, velocity=126, time=1),
    Message('note_on', channel=11, note=62, velocity=0, time=119),
    Message('note_on', channel=11, note=62, velocity=126, time=1),
    Message('note_on', channel=11, note=62, velocity=0, time=119),
    Message('note_on', channel=11, note=66, velocity=126, time=1),
    Message('control_change', channel=11, control=2, value=126, time=0),
    Message('note_on', channel=11, note=66, velocity=0, time=119),
    Message('note_on', channel=11, note=66, velocity=126, time=1),
    Message('note_on', channel=11, note=66, velocity=0, time=119),
    Message('note_on', channel=11, note=66, velocity=126, time=1),
    Message('note_on', channel=11, note=66, velocity=0, time=119),
    Message('note_on', channel=11, note=66, velocity=126, time=1),
    Message('note_on', channel=11, note=66, velocity=0, time=119),
    Message('note_on', channel=11, note=66, velocity=126, time=1),
    Message('note_on', channel=11, note=66, velocity=0, time=119),
    Message('note_on', channel=11, note=66, velocity=126, time=1),
    Message('note_on', channel=11, note=66, velocity=0, time=119),
    Message('note_on', channel=11, note=66, velocity=126, time=1),
    Message('note_on', channel=11, note=66, velocity=0, time=119),
    Message('note_on', channel=11, note=66, velocity=126, time=1),
    Message('note_on', channel=11, note=66, velocity=0, time=119),
    Message('note_on', channel=11, note=62, velocity=126, time=1),
    Message('control_change', channel=11, control=2, value=126, time=0),
    Message('note_on', channel=11, note=62, velocity=0, time=119),
    Message('note_on', channel=11, note=62, velocity=126, time=1),
    Message('note_on', channel=11, note=62, velocity=0, time=119),
    Message('note_on', channel=11, note=62, velocity=126, time=1),
    Message('note_on', channel=11, note=62, velocity=0, time=119),
    Message('note_on', channel=11, note=62, velocity=126, time=1),
    Message('note_on', channel=11, note=62, velocity=0, time=119),
    Message('note_on', channel=11, note=62, velocity=126, time=1),
    Message('note_on', channel=11, note=62, velocity=0, time=119),
    Message('note_on', channel=11, note=62, velocity=126, time=1),
    Message('note_on', channel=11, note=62, velocity=0, time=119),
    Message('note_on', channel=11, note=62, velocity=126, time=1),
    Message('note_on', channel=11, note=62, velocity=0, time=119),
    Message('note_on', channel=11, note=62, velocity=126, time=1),
    Message('note_on', channel=11, note=62, velocity=0, time=119),
    Message('note_on', channel=11, note=59, velocity=126, time=1),
    Message('control_change', channel=11, control=2, value=126, time=0),
    Message('note_on', channel=11, note=59, velocity=0, time=119),
    Message('note_on', channel=11, note=59, velocity=126, time=1),
    Message('note_on', channel=11, note=59, velocity=0, time=119),
    Message('note_on', channel=11, note=59, velocity=126, time=1),
    Message('note_on', channel=11, note=59, velocity=0, time=119),
    Message('note_on', channel=11, note=59, velocity=126, time=1),
    Message('note_on', channel=11, note=59, velocity=0, time=119),
    Message('note_on', channel=11, note=59, velocity=126, time=1),
    Message('note_on', channel=11, note=59, velocity=0, time=119),
    Message('note_on', channel=11, note=59, velocity=126, time=1),
    Message('note_on', channel=11, note=59, velocity=0, time=119),
    Message('note_on', channel=11, note=59, velocity=126, time=1),
    Message('note_on', channel=11, note=59, velocity=0, time=119),
    Message('note_on', channel=11, note=59, velocity=126, time=1),
    Message('note_on', channel=11, note=59, velocity=0, time=119),
    Message('note_on', channel=11, note=54, velocity=126, time=1),
    Message('control_change', channel=11, control=2, value=126, time=0),
    Message('note_on', channel=11, note=54, velocity=0, time=119),
    Message('note_on', channel=11, note=54, velocity=126, time=1),
    Message('note_on', channel=11, note=54, velocity=0, time=119),
    Message('note_on', channel=11, note=54, velocity=126, time=1),
    Message('note_on', channel=11, note=54, velocity=0, time=119),
    Message('note_on', channel=11, note=54, velocity=126, time=1),
    Message('note_on', channel=11, note=54, velocity=0, time=119),
    Message('note_on', channel=11, note=54, velocity=126, time=1),
    Message('note_on', channel=11, note=54, velocity=0, time=119),
    Message('note_on', channel=11, note=54, velocity=126, time=1),
    Message('note_on', channel=11, note=54, velocity=0, time=119),
    Message('note_on', channel=11, note=54, velocity=126, time=1),
    Message('note_on', channel=11, note=54, velocity=0, time=119),
    Message('note_on', channel=11, note=54, velocity=126, time=1),
    Message('note_on', channel=11, note=54, velocity=0, time=119),
    Message('note_on', channel=11, note=62, velocity=126, time=1),
    Message('control_change', channel=11, control=2, value=126, time=0),
    Message('note_on', channel=11, note=62, velocity=0, time=119),
    Message('note_on', channel=11, note=62, velocity=126, time=1),
    Message('note_on', channel=11, note=62, velocity=0, time=119),
    Message('note_on', channel=11, note=62, velocity=126, time=1),
    Message('note_on', channel=11, note=62, velocity=0, time=119),
    Message('note_on', channel=11, note=62, velocity=126, time=1),
    Message('note_on', channel=11, note=62, velocity=0, time=119),
    Message('note_on', channel=11, note=62, velocity=126, time=1),
    Message('note_on', channel=11, note=62, velocity=0, time=119),
    Message('note_on', channel=11, note=62, velocity=126, time=1),
    Message('note_on', channel=11, note=62, velocity=0, time=119),
    Message('note_on', channel=11, note=62, velocity=126, time=1),
    Message('note_on', channel=11, note=62, velocity=0, time=119),
    Message('note_on', channel=11, note=62, velocity=126, time=1),
    Message('note_on', channel=11, note=62, velocity=0, time=119),
    Message('note_on', channel=11, note=59, velocity=126, time=1),
    Message('control_change', channel=11, control=2, value=126, time=0),
    Message('note_on', channel=11, note=59, velocity=0, time=119),
    Message('note_on', channel=11, note=59, velocity=126, time=1),
    Message('note_on', channel=11, note=59, velocity=0, time=119),
    Message('note_on', channel=11, note=59, velocity=126, time=1),
    Message('note_on', channel=11, note=59, velocity=0, time=119),
    Message('note_on', channel=11, note=59, velocity=126, time=1),
    Message('note_on', channel=11, note=59, velocity=0, time=119),
    Message('note_on', channel=11, note=59, velocity=126, time=1),
    Message('note_on', channel=11, note=59, velocity=0, time=119),
    Message('note_on', channel=11, note=59, velocity=126, time=1),
    Message('note_on', channel=11, note=59, velocity=0, time=119),
    Message('note_on', channel=11, note=59, velocity=126, time=1),
    Message('note_on', channel=11, note=59, velocity=0, time=119),
    Message('note_on', channel=11, note=59, velocity=126, time=1),
    Message('note_on', channel=11, note=59, velocity=0, time=119),
    Message('note_on', channel=11, note=54, velocity=126, time=1),
    Message('control_change', channel=11, control=2, value=126, time=0),
    Message('note_on', channel=11, note=54, velocity=0, time=119),
    Message('note_on', channel=11, note=54, velocity=126, time=1),
    Message('note_on', channel=11, note=54, velocity=0, time=119),
    Message('note_on', channel=11, note=54, velocity=126, time=1),
    Message('note_on', channel=11, note=54, velocity=0, time=119),
    Message('note_on', channel=11, note=54, velocity=126, time=1),
    Message('note_on', channel=11, note=54, velocity=0, time=119),
    Message('note_on', channel=11, note=54, velocity=126, time=1),
    Message('note_on', channel=11, note=54, velocity=0, time=119),
    Message('note_on', channel=11, note=54, velocity=126, time=1),
    Message('note_on', channel=11, note=54, velocity=0, time=119),
    Message('note_on', channel=11, note=54, velocity=126, time=1),
    Message('note_on', channel=11, note=54, velocity=0, time=119),
    Message('note_on', channel=11, note=54, velocity=126, time=1),
    Message('note_on', channel=11, note=54, velocity=0, time=119),
    Message('note_on', channel=11, note=50, velocity=126, time=1),
    Message('control_change', channel=11, control=2, value=126, time=0),
    Message('note_on', channel=11, note=50, velocity=0, time=119),
    Message('note_on', channel=11, note=50, velocity=126, time=1),
    Message('note_on', channel=11, note=50, velocity=0, time=119),
    Message('note_on', channel=11, note=50, velocity=126, time=1),
    Message('note_on', channel=11, note=50, velocity=0, time=119),
    Message('note_on', channel=11, note=50, velocity=126, time=1),
    Message('note_on', channel=11, note=50, velocity=0, time=119),
    Message('note_on', channel=11, note=50, velocity=126, time=1),
    Message('note_on', channel=11, note=50, velocity=0, time=119),
    Message('note_on', channel=11, note=50, velocity=126, time=1),
    Message('note_on', channel=11, note=50, velocity=0, time=119),
    Message('note_on', channel=11, note=50, velocity=126, time=1),
    Message('note_on', channel=11, note=50, velocity=0, time=119),
    Message('note_on', channel=11, note=50, velocity=126, time=1),
    Message('note_on', channel=11, note=50, velocity=0, time=119),
    Message('control_change', channel=11, control=2, value=96, time=1),
    Message('note_on', channel=11, note=59, velocity=96, time=0),
    Message('note_on', channel=11, note=59, velocity=0, time=118),
    Message('note_on', channel=11, note=59, velocity=96, time=1),
    Message('note_on', channel=11, note=59, velocity=0, time=118),
    Message('note_on', channel=11, note=59, velocity=96, time=1),
    Message('note_on', channel=11, note=59, velocity=0, time=118),
    Message('note_on', channel=11, note=59, velocity=96, time=1),
    Message('note_on', channel=11, note=59, velocity=0, time=118),
    Message('note_on', channel=11, note=59, velocity=96, time=1),
    Message('note_on', channel=11, note=59, velocity=0, time=118),
    Message('note_on', channel=11, note=59, velocity=96, time=1),
    Message('note_on', channel=11, note=59, velocity=0, time=118),
    Message('note_on', channel=11, note=59, velocity=96, time=1),
    Message('note_on', channel=11, note=59, velocity=0, time=118),
    Message('note_on', channel=11, note=59, velocity=96, time=1),
    Message('note_on', channel=11, note=59, velocity=0, time=118),
    Message('note_on', channel=11, note=59, velocity=96, time=1),
    Message('note_on', channel=11, note=59, velocity=0, time=118),
    Message('note_on', channel=11, note=59, velocity=96, time=1),
    Message('note_on', channel=11, note=59, velocity=0, time=118),
    Message('note_on', channel=11, note=59, velocity=96, time=1),
    Message('note_on', channel=11, note=59, velocity=0, time=118),
    Message('note_on', channel=11, note=59, velocity=96, time=1),
    Message('note_on', channel=11, note=59, velocity=0, time=118),
    Message('note_on', channel=11, note=59, velocity=96, time=1),
    Message('note_on', channel=11, note=59, velocity=0, time=118),
    Message('note_on', channel=11, note=59, velocity=96, time=1),
    Message('note_on', channel=11, note=59, velocity=0, time=118),
    Message('note_on', channel=11, note=59, velocity=96, time=1),
    Message('note_on', channel=11, note=59, velocity=0, time=118),
    Message('note_on', channel=11, note=59, velocity=96, time=1),
    Message('note_on', channel=11, note=59, velocity=0, time=118),
    Message('note_on', channel=11, note=59, velocity=96, time=17),
    Message('control_change', channel=11, control=2, value=96, time=0),
    Message('note_on', channel=11, note=59, velocity=0, time=118),
    Message('note_on', channel=11, note=59, velocity=96, time=1),
    Message('note_on', channel=11, note=59, velocity=0, time=118),
    Message('note_on', channel=11, note=59, velocity=96, time=1),
    Message('note_on', channel=11, note=59, velocity=0, time=118),
    Message('note_on', channel=11, note=59, velocity=96, time=1),
    Message('note_on', channel=11, note=59, velocity=0, time=118),
    Message('note_on', channel=11, note=59, velocity=96, time=1),
    Message('note_on', channel=11, note=59, velocity=0, time=118),
    Message('note_on', channel=11, note=59, velocity=96, time=1),
    Message('note_on', channel=11, note=59, velocity=0, time=118),
    Message('note_on', channel=11, note=59, velocity=96, time=1),
    Message('note_on', channel=11, note=59, velocity=0, time=118),
    Message('note_on', channel=11, note=59, velocity=96, time=1),
    Message('note_on', channel=11, note=59, velocity=0, time=118),
    Message('note_on', channel=11, note=59, velocity=96, time=1),
    Message('note_on', channel=11, note=59, velocity=0, time=118),
    Message('note_on', channel=11, note=59, velocity=96, time=1),
    Message('note_on', channel=11, note=59, velocity=0, time=118),
    Message('note_on', channel=11, note=59, velocity=96, time=1),
    Message('note_on', channel=11, note=59, velocity=0, time=118),
    Message('note_on', channel=11, note=59, velocity=96, time=1),
    Message('note_on', channel=11, note=59, velocity=0, time=118),
    Message('note_on', channel=11, note=59, velocity=96, time=1),
    Message('note_on', channel=11, note=59, velocity=0, time=118),
    Message('note_on', channel=11, note=59, velocity=96, time=1),
    Message('note_on', channel=11, note=59, velocity=0, time=118),
    Message('note_on', channel=11, note=59, velocity=96, time=1),
    Message('note_on', channel=11, note=59, velocity=0, time=118),
    Message('note_on', channel=11, note=59, velocity=96, time=1),
    Message('note_on', channel=11, note=59, velocity=0, time=118),
    Message('note_on', channel=11, note=59, velocity=96, time=17),
    Message('control_change', channel=11, control=2, value=96, time=0),
    Message('note_on', channel=11, note=59, velocity=0, time=118),
    Message('note_on', channel=11, note=59, velocity=96, time=1),
    Message('note_on', channel=11, note=59, velocity=0, time=118),
    Message('note_on', channel=11, note=59, velocity=96, time=1),
    Message('note_on', channel=11, note=59, velocity=0, time=118),
    Message('note_on', channel=11, note=59, velocity=96, time=1),
    Message('note_on', channel=11, note=59, velocity=0, time=118),
    Message('note_on', channel=11, note=59, velocity=96, time=1),
    Message('note_on', channel=11, note=59, velocity=0, time=118),
    Message('note_on', channel=11, note=59, velocity=96, time=1),
    Message('note_on', channel=11, note=59, velocity=0, time=118),
    Message('note_on', channel=11, note=59, velocity=96, time=1),
    Message('note_on', channel=11, note=59, velocity=0, time=118),
    Message('note_on', channel=11, note=59, velocity=96, time=1),
    Message('note_on', channel=11, note=59, velocity=0, time=118),
    Message('note_on', channel=11, note=59, velocity=96, time=1),
    Message('note_on', channel=11, note=59, velocity=0, time=118),
    Message('note_on', channel=11, note=59, velocity=96, time=1),
    Message('note_on', channel=11, note=59, velocity=0, time=118),
    Message('note_on', channel=11, note=59, velocity=96, time=1),
    Message('note_on', channel=11, note=59, velocity=0, time=118),
    Message('note_on', channel=11, note=59, velocity=96, time=1),
    Message('note_on', channel=11, note=59, velocity=0, time=118),
    Message('note_on', channel=11, note=59, velocity=96, time=1),
    Message('note_on', channel=11, note=59, velocity=0, time=118),
    Message('note_on', channel=11, note=59, velocity=96, time=1),
    Message('note_on', channel=11, note=59, velocity=0, time=118),
    Message('note_on', channel=11, note=59, velocity=96, time=1),
    Message('note_on', channel=11, note=59, velocity=0, time=118),
    Message('note_on', channel=11, note=59, velocity=96, time=1),
    Message('note_on', channel=11, note=59, velocity=0, time=118),
    Message('note_on', channel=11, note=59, velocity=96, time=17),
    Message('control_change', channel=11, control=2, value=96, time=0),
    Message('note_on', channel=11, note=59, velocity=0, time=118),
    Message('note_on', channel=11, note=59, velocity=96, time=1),
    Message('note_on', channel=11, note=59, velocity=0, time=118),
    Message('note_on', channel=11, note=59, velocity=96, time=1),
    Message('note_on', channel=11, note=59, velocity=0, time=118),
    Message('note_on', channel=11, note=59, velocity=96, time=1),
    Message('note_on', channel=11, note=59, velocity=0, time=118),
    Message('note_on', channel=11, note=59, velocity=96, time=1),
    Message('note_on', channel=11, note=59, velocity=0, time=118),
    Message('note_on', channel=11, note=59, velocity=96, time=1),
    Message('note_on', channel=11, note=59, velocity=0, time=118),
    Message('note_on', channel=11, note=59, velocity=96, time=1),
    Message('note_on', channel=11, note=59, velocity=0, time=118),
    Message('note_on', channel=11, note=59, velocity=96, time=1),
    Message('note_on', channel=11, note=59, velocity=0, time=118),
    Message('note_on', channel=11, note=59, velocity=96, time=1),
    Message('note_on', channel=11, note=59, velocity=0, time=118),
    Message('note_on', channel=11, note=59, velocity=96, time=1),
    Message('note_on', channel=11, note=59, velocity=0, time=118),
    Message('note_on', channel=11, note=59, velocity=96, time=1),
    Message('note_on', channel=11, note=59, velocity=0, time=118),
    Message('note_on', channel=11, note=59, velocity=96, time=1),
    Message('note_on', channel=11, note=59, velocity=0, time=118),
    Message('note_on', channel=11, note=59, velocity=96, time=1),
    Message('note_on', channel=11, note=59, velocity=0, time=118),
    Message('note_on', channel=11, note=59, velocity=96, time=1),
    Message('note_on', channel=11, note=59, velocity=0, time=118),
    Message('note_on', channel=11, note=59, velocity=96, time=1),
    Message('note_on', channel=11, note=59, velocity=0, time=118),
    Message('note_on', channel=11, note=59, velocity=96, time=1),
    Message('note_on', channel=11, note=59, velocity=0, time=118),
    Message('control_change', channel=11, control=2, value=80, time=17),
    Message('note_on', channel=11, note=59, velocity=80, time=0),
    Message('note_on', channel=11, note=59, velocity=0, time=118),
    Message('note_on', channel=11, note=59, velocity=80, time=1),
    Message('note_on', channel=11, note=59, velocity=0, time=118),
    Message('note_on', channel=11, note=59, velocity=80, time=1),
    Message('note_on', channel=11, note=59, velocity=0, time=118),
    Message('note_on', channel=11, note=59, velocity=80, time=1),
    Message('note_on', channel=11, note=59, velocity=0, time=118),
    Message('note_on', channel=11, note=59, velocity=80, time=1),
    Message('note_on', channel=11, note=59, velocity=0, time=118),
    Message('note_on', channel=11, note=59, velocity=80, time=1),
    Message('note_on', channel=11, note=59, velocity=0, time=118),
    Message('note_on', channel=11, note=59, velocity=80, time=1),
    Message('note_on', channel=11, note=59, velocity=0, time=118),
    Message('note_on', channel=11, note=59, velocity=80, time=1),
    Message('note_on', channel=11, note=59, velocity=0, time=118),
    Message('note_on', channel=11, note=59, velocity=80, time=1),
    Message('note_on', channel=11, note=59, velocity=0, time=118),
    Message('note_on', channel=11, note=59, velocity=80, time=1),
    Message('note_on', channel=11, note=59, velocity=0, time=118),
    Message('note_on', channel=11, note=59, velocity=80, time=1),
    Message('note_on', channel=11, note=59, velocity=0, time=118),
    Message('note_on', channel=11, note=59, velocity=80, time=1),
    Message('note_on', channel=11, note=59, velocity=0, time=118),
    Message('note_on', channel=11, note=59, velocity=80, time=1),
    Message('note_on', channel=11, note=59, velocity=0, time=118),
    Message('note_on', channel=11, note=59, velocity=80, time=1),
    Message('note_on', channel=11, note=59, velocity=0, time=118),
    Message('note_on', channel=11, note=59, velocity=80, time=1),
    Message('note_on', channel=11, note=59, velocity=0, time=118),
    Message('note_on', channel=11, note=59, velocity=80, time=1),
    Message('note_on', channel=11, note=59, velocity=0, time=118),
    Message('note_on', channel=11, note=59, velocity=80, time=17),
    Message('control_change', channel=11, control=2, value=80, time=0),
    Message('note_on', channel=11, note=59, velocity=0, time=118),
    Message('note_on', channel=11, note=59, velocity=80, time=1),
    Message('note_on', channel=11, note=59, velocity=0, time=118),
    Message('note_on', channel=11, note=59, velocity=80, time=1),
    Message('note_on', channel=11, note=59, velocity=0, time=118),
    Message('note_on', channel=11, note=59, velocity=80, time=1),
    Message('note_on', channel=11, note=59, velocity=0, time=118),
    Message('note_on', channel=11, note=59, velocity=80, time=1),
    Message('note_on', channel=11, note=59, velocity=0, time=118),
    Message('note_on', channel=11, note=59, velocity=80, time=1),
    Message('note_on', channel=11, note=59, velocity=0, time=118),
    Message('note_on', channel=11, note=59, velocity=80, time=1),
    Message('note_on', channel=11, note=59, velocity=0, time=118),
    Message('note_on', channel=11, note=59, velocity=80, time=1),
    Message('note_on', channel=11, note=59, velocity=0, time=118),
    Message('note_on', channel=11, note=59, velocity=80, time=1),
    Message('note_on', channel=11, note=59, velocity=0, time=118),
    Message('note_on', channel=11, note=59, velocity=80, time=1),
    Message('note_on', channel=11, note=59, velocity=0, time=118),
    Message('note_on', channel=11, note=59, velocity=80, time=1),
    Message('note_on', channel=11, note=59, velocity=0, time=118),
    Message('note_on', channel=11, note=59, velocity=80, time=1),
    Message('note_on', channel=11, note=59, velocity=0, time=118),
    Message('note_on', channel=11, note=59, velocity=80, time=1),
    Message('note_on', channel=11, note=59, velocity=0, time=118),
    Message('note_on', channel=11, note=59, velocity=80, time=1),
    Message('note_on', channel=11, note=59, velocity=0, time=118),
    Message('note_on', channel=11, note=59, velocity=80, time=1),
    Message('note_on', channel=11, note=59, velocity=0, time=118),
    Message('note_on', channel=11, note=59, velocity=80, time=1),
    Message('note_on', channel=11, note=59, velocity=0, time=118),
    Message('note_on', channel=11, note=59, velocity=80, time=17),
    Message('control_change', channel=11, control=2, value=80, time=0),
    Message('note_on', channel=11, note=59, velocity=0, time=118),
    Message('note_on', channel=11, note=59, velocity=80, time=1),
    Message('note_on', channel=11, note=59, velocity=0, time=118),
    Message('note_on', channel=11, note=59, velocity=80, time=1),
    Message('note_on', channel=11, note=59, velocity=0, time=118),
    Message('note_on', channel=11, note=59, velocity=80, time=1),
    Message('note_on', channel=11, note=59, velocity=0, time=118),
    Message('note_on', channel=11, note=59, velocity=80, time=1),
    Message('note_on', channel=11, note=59, velocity=0, time=118),
    Message('note_on', channel=11, note=59, velocity=80, time=1),
    Message('note_on', channel=11, note=59, velocity=0, time=118),
    Message('note_on', channel=11, note=59, velocity=80, time=1),
    Message('note_on', channel=11, note=59, velocity=0, time=118),
    Message('note_on', channel=11, note=59, velocity=80, time=1),
    Message('note_on', channel=11, note=59, velocity=0, time=118),
    Message('note_on', channel=11, note=59, velocity=80, time=1),
    Message('note_on', channel=11, note=59, velocity=0, time=118),
    Message('note_on', channel=11, note=59, velocity=80, time=1),
    Message('note_on', channel=11, note=59, velocity=0, time=118),
    Message('note_on', channel=11, note=59, velocity=80, time=1),
    Message('note_on', channel=11, note=59, velocity=0, time=118),
    Message('note_on', channel=11, note=59, velocity=80, time=1),
    Message('note_on', channel=11, note=59, velocity=0, time=118),
    Message('note_on', channel=11, note=59, velocity=80, time=1),
    Message('note_on', channel=11, note=59, velocity=0, time=118),
    Message('note_on', channel=11, note=59, velocity=80, time=1),
    Message('note_on', channel=11, note=59, velocity=0, time=118),
    Message('note_on', channel=11, note=59, velocity=80, time=1),
    Message('note_on', channel=11, note=59, velocity=0, time=118),
    Message('note_on', channel=11, note=59, velocity=80, time=1),
    Message('note_on', channel=11, note=59, velocity=0, time=118),
    Message('note_on', channel=11, note=59, velocity=80, time=17),
    Message('control_change', channel=11, control=2, value=80, time=0),
    Message('note_on', channel=11, note=59, velocity=0, time=118),
    Message('note_on', channel=11, note=59, velocity=80, time=1),
    Message('note_on', channel=11, note=59, velocity=0, time=118),
    Message('note_on', channel=11, note=59, velocity=80, time=1),
    Message('note_on', channel=11, note=59, velocity=0, time=118),
    Message('note_on', channel=11, note=59, velocity=80, time=1),
    Message('note_on', channel=11, note=59, velocity=0, time=118),
    Message('note_on', channel=11, note=59, velocity=80, time=1),
    Message('note_on', channel=11, note=59, velocity=0, time=118),
    Message('note_on', channel=11, note=59, velocity=80, time=1),
    Message('note_on', channel=11, note=59, velocity=0, time=118),
    Message('note_on', channel=11, note=59, velocity=80, time=1),
    Message('note_on', channel=11, note=59, velocity=0, time=118),
    Message('note_on', channel=11, note=59, velocity=80, time=1),
    Message('note_on', channel=11, note=59, velocity=0, time=118),
    Message('note_on', channel=11, note=59, velocity=80, time=1),
    Message('note_on', channel=11, note=59, velocity=0, time=118),
    Message('note_on', channel=11, note=59, velocity=80, time=1),
    Message('note_on', channel=11, note=59, velocity=0, time=118),
    Message('note_on', channel=11, note=59, velocity=80, time=1),
    Message('note_on', channel=11, note=59, velocity=0, time=118),
    Message('note_on', channel=11, note=59, velocity=80, time=1),
    Message('note_on', channel=11, note=59, velocity=0, time=118),
    Message('note_on', channel=11, note=59, velocity=80, time=1),
    Message('note_on', channel=11, note=59, velocity=0, time=118),
    Message('note_on', channel=11, note=59, velocity=80, time=1),
    Message('note_on', channel=11, note=59, velocity=0, time=118),
    Message('note_on', channel=11, note=59, velocity=80, time=1),
    Message('note_on', channel=11, note=59, velocity=0, time=118),
    Message('note_on', channel=11, note=59, velocity=80, time=1),
    Message('note_on', channel=11, note=59, velocity=0, time=118),
    Message('control_change', channel=11, control=2, value=80, time=17),
    Message('note_on', channel=11, note=59, velocity=80, time=0),
    Message('control_change', channel=11, control=2, value=79, time=86),
    Message('note_on', channel=11, note=59, velocity=0, time=32),
    Message('note_on', channel=11, note=59, velocity=79, time=1),
    Message('control_change', channel=11, control=2, value=78, time=53),
    Message('note_on', channel=11, note=59, velocity=0, time=65),
    Message('note_on', channel=11, note=59, velocity=78, time=1),
    Message('control_change', channel=11, control=2, value=77, time=20),
    Message('control_change', channel=11, control=2, value=76, time=85),
    Message('note_on', channel=11, note=59, velocity=0, time=13),
    Message('note_on', channel=11, note=59, velocity=76, time=1),
    Message('control_change', channel=11, control=2, value=75, time=72),
    Message('note_on', channel=11, note=59, velocity=0, time=46),
    Message('note_on', channel=11, note=59, velocity=75, time=1),
    Message('control_change', channel=11, control=2, value=74, time=39),
    Message('note_on', channel=11, note=59, velocity=0, time=79),
    Message('note_on', channel=11, note=59, velocity=74, time=1),
    Message('control_change', channel=11, control=2, value=73, time=5),
    Message('control_change', channel=11, control=2, value=72, time=86),
    Message('note_on', channel=11, note=59, velocity=0, time=27),
    Message('note_on', channel=11, note=59, velocity=72, time=1),
    Message('control_change', channel=11, control=2, value=71, time=58),
    Message('note_on', channel=11, note=59, velocity=0, time=60),
    Message('note_on', channel=11, note=59, velocity=71, time=1),
    Message('control_change', channel=11, control=2, value=70, time=25),
    Message('control_change', channel=11, control=2, value=69, time=85),
    Message('note_on', channel=11, note=59, velocity=0, time=8),
    Message('note_on', channel=11, note=59, velocity=69, time=1),
    Message('control_change', channel=11, control=2, value=68, time=77),
    Message('note_on', channel=11, note=59, velocity=0, time=41),
    Message('note_on', channel=11, note=59, velocity=68, time=1),
    Message('control_change', channel=11, control=2, value=67, time=44),
    Message('note_on', channel=11, note=59, velocity=0, time=74),
    Message('note_on', channel=11, note=59, velocity=67, time=1),
    Message('control_change', channel=11, control=2, value=66, time=10),
    Message('control_change', channel=11, control=2, value=65, time=86),
    Message('note_on', channel=11, note=59, velocity=0, time=22),
    Message('note_on', channel=11, note=59, velocity=65, time=1),
    Message('control_change', channel=11, control=2, value=64, time=63),
    Message('note_on', channel=11, note=59, velocity=0, time=55),
    Message('note_on', channel=11, note=59, velocity=64, time=1),
    Message('control_change', channel=11, control=2, value=63, time=30),
    Message('control_change', channel=11, control=2, value=62, time=85),
    Message('note_on', channel=11, note=59, velocity=0, time=3),
    Message('note_on', channel=11, note=59, velocity=62, time=1),
    Message('control_change', channel=11, control=2, value=61, time=82),
    Message('note_on', channel=11, note=59, velocity=0, time=36),
    Message('note_on', channel=11, note=59, velocity=61, time=1),
    Message('control_change', channel=11, control=2, value=60, time=49),
    Message('note_on', channel=11, note=59, velocity=0, time=69),
    Message('note_on', channel=11, note=59, velocity=60, time=1),
    Message('control_change', channel=11, control=2, value=59, time=15),
    Message('control_change', channel=11, control=2, value=58, time=86),
    Message('note_on', channel=11, note=59, velocity=0, time=17),
    Message('note_on', channel=11, note=59, velocity=58, time=17),
    Message('control_change', channel=11, control=2, value=58, time=0),
    Message('control_change', channel=11, control=2, value=57, time=52),
    Message('note_on', channel=11, note=59, velocity=0, time=66),
    Message('note_on', channel=11, note=59, velocity=57, time=1),
    Message('control_change', channel=11, control=2, value=56, time=19),
    Message('control_change', channel=11, control=2, value=55, time=85),
    Message('note_on', channel=11, note=59, velocity=0, time=14),
    Message('note_on', channel=11, note=59, velocity=55, time=1),
    Message('control_change', channel=11, control=2, value=54, time=71),
    Message('note_on', channel=11, note=59, velocity=0, time=47),
    Message('note_on', channel=11, note=59, velocity=54, time=1),
    Message('control_change', channel=11, control=2, value=53, time=38),
    Message('note_on', channel=11, note=59, velocity=0, time=80),
    Message('note_on', channel=11, note=59, velocity=53, time=1),
    Message('control_change', channel=11, control=2, value=52, time=4),
    Message('control_change', channel=11, control=2, value=51, time=86),
    Message('note_on', channel=11, note=59, velocity=0, time=28),
    Message('note_on', channel=11, note=59, velocity=51, time=1),
    Message('control_change', channel=11, control=2, value=50, time=57),
    Message('note_on', channel=11, note=59, velocity=0, time=61),
    Message('note_on', channel=11, note=59, velocity=50, time=1),
    Message('control_change', channel=11, control=2, value=49, time=24),
    Message('control_change', channel=11, control=2, value=48, time=85),
    Message('note_on', channel=11, note=59, velocity=0, time=9),
    Message('note_on', channel=11, note=59, velocity=48, time=1),
    Message('control_change', channel=11, control=2, value=47, time=76),
    Message('note_on', channel=11, note=59, velocity=0, time=42),
    Message('note_on', channel=11, note=59, velocity=47, time=1),
    Message('control_change', channel=11, control=2, value=46, time=43),
    Message('note_on', channel=11, note=59, velocity=0, time=75),
    Message('note_on', channel=11, note=59, velocity=46, time=1),
    Message('control_change', channel=11, control=2, value=45, time=9),
    Message('control_change', channel=11, control=2, value=44, time=86),
    Message('note_on', channel=11, note=59, velocity=0, time=23),
    Message('note_on', channel=11, note=59, velocity=44, time=1),
    Message('control_change', channel=11, control=2, value=43, time=62),
    Message('note_on', channel=11, note=59, velocity=0, time=56),
    Message('note_on', channel=11, note=59, velocity=43, time=1),
    Message('control_change', channel=11, control=2, value=42, time=29),
    Message('control_change', channel=11, control=2, value=41, time=85),
    Message('note_on', channel=11, note=59, velocity=0, time=4),
    Message('note_on', channel=11, note=59, velocity=41, time=1),
    Message('control_change', channel=11, control=2, value=40, time=81),
    Message('note_on', channel=11, note=59, velocity=0, time=37),
    Message('note_on', channel=11, note=59, velocity=40, time=1),
    Message('control_change', channel=11, control=2, value=39, time=48),
    Message('note_on', channel=11, note=59, velocity=0, time=70),
    Message('note_on', channel=11, note=59, velocity=39, time=1),
    Message('control_change', channel=11, control=2, value=38, time=14),
    Message('control_change', channel=11, control=2, value=37, time=86),
    Message('note_on', channel=11, note=59, velocity=0, time=18),
    Message('note_on', channel=11, note=59, velocity=37, time=1),
    Message('control_change', channel=11, control=2, value=36, time=67),
    Message('note_on', channel=11, note=59, velocity=0, time=51),
    Message('note_on', channel=11, note=59, velocity=36, time=17),
    Message('control_change', channel=11, control=2, value=36, time=0),
    Message('control_change', channel=11, control=2, value=35, time=18),
    Message('control_change', channel=11, control=2, value=34, time=85),
    Message('control_change', channel=11, control=2, value=33, time=86),
    Message('control_change', channel=11, control=2, value=32, time=86),
    Message('control_change', channel=11, control=2, value=31, time=85),
    Message('control_change', channel=11, control=2, value=30, time=86),
    Message('note_on', channel=11, note=59, velocity=0, time=33),
    Message('control_change', channel=11, control=2, value=29, time=53),
    Message('control_change', channel=11, control=2, value=28, time=86),
    Message('control_change', channel=11, control=2, value=27, time=85),
    Message('control_change', channel=11, control=2, value=26, time=86),
    Message('control_change', channel=11, control=2, value=25, time=86),
    Message('control_change', channel=11, control=2, value=24, time=85),
    MetaMessage('end_of_track', time=1)]),
  MidiTrack([
    MetaMessage('track_name', name='Violoncellos\x00', time=0),
    MetaMessage('key_signature', key='D', time=0),
    Message('control_change', channel=14, control=121, value=0, time=0),
    Message('program_change', channel=14, program=48, time=0),
    Message('control_change', channel=14, control=7, value=100, time=0),
    Message('control_change', channel=14, control=10, value=64, time=0),
    Message('control_change', channel=14, control=91, value=0, time=0),
    Message('control_change', channel=14, control=93, value=0, time=0),
    MetaMessage('midi_port', port=1, time=0),
    Message('control_change', channel=15, control=121, value=0, time=0),
    Message('program_change', channel=15, program=45, time=0),
    Message('control_change', channel=15, control=7, value=100, time=0),
    Message('control_change', channel=15, control=10, value=64, time=0),
    Message('control_change', channel=15, control=91, value=0, time=0),
    Message('control_change', channel=15, control=93, value=0, time=0),
    MetaMessage('midi_port', port=1, time=0),
    Message('control_change', channel=0, control=121, value=0, time=0),
    Message('program_change', channel=0, program=44, time=0),
    Message('control_change', channel=0, control=7, value=100, time=0),
    Message('control_change', channel=0, control=10, value=64, time=0),
    Message('control_change', channel=0, control=91, value=0, time=0),
    Message('control_change', channel=0, control=93, value=0, time=0),
    MetaMessage('midi_port', port=1, time=0),
    Message('note_on', channel=15, note=47, velocity=49, time=1920),
    Message('control_change', channel=15, control=2, value=49, time=0),
    Message('note_on', channel=15, note=47, velocity=0, time=479),
    Message('note_on', channel=15, note=47, velocity=49, time=5281),
    Message('control_change', channel=15, control=2, value=49, time=0),
    Message('note_on', channel=15, note=47, velocity=0, time=479),
    Message('note_on', channel=14, note=54, velocity=49, time=3841),
    Message('control_change', channel=14, control=2, value=49, time=0),
    Message('note_on', channel=14, note=54, velocity=0, time=59),
    Message('note_on', channel=14, note=54, velocity=49, time=1),
    Message('note_on', channel=14, note=54, velocity=0, time=59),
    Message('note_on', channel=14, note=54, velocity=49, time=1),
    Message('note_on', channel=14, note=54, velocity=0, time=59),
    Message('note_on', channel=14, note=54, velocity=49, time=1),
    Message('note_on', channel=14, note=54, velocity=0, time=59),
    Message('note_on', channel=14, note=54, velocity=49, time=1),
    Message('note_on', channel=14, note=54, velocity=0, time=59),
    Message('note_on', channel=14, note=54, velocity=49, time=1),
    Message('note_on', channel=14, note=54, velocity=0, time=59),
    Message('note_on', channel=14, note=54, velocity=49, time=1),
    Message('note_on', channel=14, note=54, velocity=0, time=59),
    Message('note_on', channel=14, note=54, velocity=49, time=1),
    Message('note_on', channel=14, note=54, velocity=0, time=59),
    Message('note_on', channel=14, note=52, velocity=49, time=1),
    Message('control_change', channel=14, control=2, value=49, time=0),
    Message('note_on', channel=14, note=52, velocity=0, time=59),
    Message('note_on', channel=14, note=52, velocity=49, time=1),
    Message('note_on', channel=14, note=52, velocity=0, time=59),
    Message('note_on', channel=14, note=52, velocity=49, time=1),
    Message('note_on', channel=14, note=52, velocity=0, time=59),
    Message('note_on', channel=14, note=52, velocity=49, time=1),
    Message('note_on', channel=14, note=52, velocity=0, time=59),
    Message('note_on', channel=14, note=52, velocity=49, time=1),
    Message('note_on', channel=14, note=52, velocity=0, time=59),
    Message('note_on', channel=14, note=52, velocity=49, time=1),
    Message('note_on', channel=14, note=52, velocity=0, time=59),
    Message('note_on', channel=14, note=52, velocity=49, time=1),
    Message('note_on', channel=14, note=52, velocity=0, time=59),
    Message('note_on', channel=14, note=52, velocity=49, time=1),
    Message('note_on', channel=14, note=52, velocity=0, time=59),
    Message('note_on', channel=14, note=50, velocity=49, time=1),
    Message('control_change', channel=14, control=2, value=49, time=0),
    Message('note_on', channel=14, note=50, velocity=0, time=59),
    Message('note_on', channel=14, note=50, velocity=49, time=1),
    Message('note_on', channel=14, note=50, velocity=0, time=59),
    Message('note_on', channel=14, note=50, velocity=49, time=1),
    Message('note_on', channel=14, note=50, velocity=0, time=59),
    Message('note_on', channel=14, note=50, velocity=49, time=1),
    Message('note_on', channel=14, note=50, velocity=0, time=59),
    Message('note_on', channel=14, note=50, velocity=49, time=1),
    Message('note_on', channel=14, note=50, velocity=0, time=59),
    Message('note_on', channel=14, note=50, velocity=49, time=1),
    Message('note_on', channel=14, note=50, velocity=0, time=59),
    Message('note_on', channel=14, note=50, velocity=49, time=1),
    Message('note_on', channel=14, note=50, velocity=0, time=59),
    Message('note_on', channel=14, note=50, velocity=49, time=1),
    Message('note_on', channel=14, note=50, velocity=0, time=59),
    Message('note_on', channel=14, note=49, velocity=49, time=1),
    Message('control_change', channel=14, control=2, value=49, time=0),
    Message('note_on', channel=14, note=49, velocity=0, time=59),
    Message('note_on', channel=14, note=49, velocity=49, time=1),
    Message('note_on', channel=14, note=49, velocity=0, time=59),
    Message('note_on', channel=14, note=49, velocity=49, time=1),
    Message('note_on', channel=14, note=49, velocity=0, time=59),
    Message('note_on', channel=14, note=49, velocity=49, time=1),
    Message('note_on', channel=14, note=49, velocity=0, time=59),
    Message('note_on', channel=14, note=49, velocity=49, time=1),
    Message('note_on', channel=14, note=49, velocity=0, time=59),
    Message('note_on', channel=14, note=49, velocity=49, time=1),
    Message('note_on', channel=14, note=49, velocity=0, time=59),
    Message('note_on', channel=14, note=49, velocity=49, time=1),
    Message('note_on', channel=14, note=49, velocity=0, time=59),
    Message('note_on', channel=14, note=49, velocity=49, time=1),
    Message('note_on', channel=14, note=49, velocity=0, time=59),
    Message('note_on', channel=14, note=47, velocity=49, time=1),
    Message('control_change', channel=14, control=2, value=49, time=0),
    Message('note_on', channel=14, note=47, velocity=0, time=59),
    Message('note_on', channel=14, note=47, velocity=49, time=1),
    Message('note_on', channel=14, note=47, velocity=0, time=59),
    Message('note_on', channel=14, note=47, velocity=49, time=1),
    Message('note_on', channel=14, note=47, velocity=0, time=59),
    Message('note_on', channel=14, note=47, velocity=49, time=1),
    Message('note_on', channel=14, note=47, velocity=0, time=59),
    Message('note_on', channel=14, note=45, velocity=49, time=1),
    Message('control_change', channel=14, control=2, value=49, time=0),
    Message('note_on', channel=14, note=45, velocity=0, time=59),
    Message('note_on', channel=14, note=45, velocity=49, time=1),
    Message('note_on', channel=14, note=45, velocity=0, time=59),
    Message('note_on', channel=14, note=45, velocity=49, time=1),
    Message('note_on', channel=14, note=45, velocity=0, time=59),
    Message('note_on', channel=14, note=45, velocity=49, time=1),
    Message('note_on', channel=14, note=45, velocity=0, time=59),
    Message('note_on', channel=14, note=44, velocity=49, time=1),
    Message('control_change', channel=14, control=2, value=49, time=0),
    Message('note_on', channel=14, note=44, velocity=0, time=59),
    Message('note_on', channel=14, note=44, velocity=49, time=1),
    Message('note_on', channel=14, note=44, velocity=0, time=59),
    Message('note_on', channel=14, note=44, velocity=49, time=1),
    Message('note_on', channel=14, note=44, velocity=0, time=59),
    Message('note_on', channel=14, note=44, velocity=49, time=1),
    Message('note_on', channel=14, note=44, velocity=0, time=59),
    Message('note_on', channel=14, note=44, velocity=49, time=1),
    Message('note_on', channel=14, note=44, velocity=0, time=59),
    Message('note_on', channel=14, note=44, velocity=49, time=1),
    Message('note_on', channel=14, note=44, velocity=0, time=59),
    Message('note_on', channel=14, note=44, velocity=49, time=1),
    Message('note_on', channel=14, note=44, velocity=0, time=59),
    Message('note_on', channel=14, note=44, velocity=49, time=1),
    Message('note_on', channel=14, note=44, velocity=0, time=59),
    Message('note_on', channel=14, note=43, velocity=49, time=1),
    Message('control_change', channel=14, control=2, value=49, time=0),
    Message('note_on', channel=14, note=43, velocity=0, time=59),
    Message('note_on', channel=14, note=43, velocity=49, time=1),
    Message('note_on', channel=14, note=43, velocity=0, time=59),
    Message('note_on', channel=14, note=43, velocity=49, time=1),
    Message('note_on', channel=14, note=43, velocity=0, time=59),
    Message('note_on', channel=14, note=43, velocity=49, time=1),
    Message('note_on', channel=14, note=43, velocity=0, time=59),
    Message('note_on', channel=14, note=42, velocity=49, time=1),
    Message('control_change', channel=14, control=2, value=49, time=0),
    Message('note_on', channel=14, note=42, velocity=0, time=59),
    Message('note_on', channel=14, note=42, velocity=49, time=1),
    Message('note_on', channel=14, note=42, velocity=0, time=59),
    Message('note_on', channel=14, note=42, velocity=49, time=1),
    Message('note_on', channel=14, note=42, velocity=0, time=59),
    Message('note_on', channel=14, note=42, velocity=49, time=1),
    Message('note_on', channel=14, note=42, velocity=0, time=59),
    Message('note_on', channel=14, note=47, velocity=49, time=1),
    Message('control_change', channel=14, control=2, value=49, time=0),
    Message('note_on', channel=14, note=47, velocity=0, time=239),
    Message('note_on', channel=15, note=59, velocity=49, time=721),
    Message('control_change', channel=15, control=2, value=49, time=0),
    Message('note_on', channel=15, note=59, velocity=0, time=479),
    Message('note_on', channel=15, note=57, velocity=49, time=481),
    Message('control_change', channel=15, control=2, value=49, time=0),
    Message('note_on', channel=15, note=57, velocity=0, time=479),
    Message('note_on', channel=15, note=55, velocity=49, time=481),
    Message('control_change', channel=15, control=2, value=49, time=0),
    Message('note_on', channel=15, note=55, velocity=0, time=479),
    Message('note_on', channel=15, note=54, velocity=49, time=481),
    Message('control_change', channel=15, control=2, value=49, time=0),
    Message('note_on', channel=15, note=54, velocity=0, time=479),
    Message('note_on', channel=15, note=52, velocity=49, time=1441),
    Message('control_change', channel=15, control=2, value=49, time=0),
    Message('note_on', channel=15, note=52, velocity=0, time=479),
    Message('note_on', channel=15, note=50, velocity=49, time=481),
    Message('control_change', channel=15, control=2, value=49, time=0),
    Message('note_on', channel=15, note=50, velocity=0, time=479),
    Message('note_on', channel=15, note=49, velocity=49, time=481),
    Message('control_change', channel=15, control=2, value=49, time=0),
    Message('note_on', channel=15, note=49, velocity=0, time=479),
    Message('note_on', channel=15, note=54, velocity=49, time=481),
    Message('control_change', channel=15, control=2, value=49, time=0),
    Message('note_on', channel=15, note=54, velocity=0, time=479),
    Message('note_on', channel=15, note=59, velocity=49, time=1),
    Message('control_change', channel=15, control=2, value=49, time=0),
    Message('note_on', channel=15, note=59, velocity=0, time=479),
    Message('note_on', channel=15, note=57, velocity=49, time=1),
    Message('control_change', channel=15, control=2, value=49, time=0),
    Message('note_on', channel=15, note=57, velocity=0, time=479),
    Message('note_on', channel=15, note=55, velocity=49, time=481),
    Message('control_change', channel=15, control=2, value=49, time=0),
    Message('note_on', channel=15, note=55, velocity=0, time=479),
    Message('note_on', channel=15, note=54, velocity=49, time=481),
    Message('control_change', channel=15, control=2, value=49, time=0),
    Message('note_on', channel=15, note=54, velocity=0, time=479),
    Message('note_on', channel=15, note=52, velocity=49, time=1441),
    Message('control_change', channel=15, control=2, value=49, time=0),
    Message('control_change', channel=15, control=2, value=50, time=123),
    Message('control_change', channel=15, control=2, value=51, time=123),
    Message('control_change', channel=15, control=2, value=52, time=122),
    Message('note_on', channel=15, note=52, velocity=0, time=111),
    Message('note_on', channel=15, note=50, velocity=56, time=481),
    Message('control_change', channel=15, control=2, value=56, time=0),
    Message('control_change', channel=15, control=2, value=57, time=21),
    Message('control_change', channel=15, control=2, value=58, time=122),
    Message('control_change', channel=15, control=2, value=59, time=123),
    Message('control_change', channel=15, control=2, value=60, time=123),
    Message('note_on', channel=15, note=50, velocity=0, time=90),
    Message('note_on', channel=15, note=62, velocity=60, time=1),
    Message('control_change', channel=15, control=2, value=60, time=0),
    Message('control_change', channel=15, control=2, value=61, time=31),
    Message('control_change', channel=15, control=2, value=62, time=123),
    Message('control_change', channel=15, control=2, value=63, time=122),
    Message('control_change', channel=15, control=2, value=64, time=123),
    Message('note_on', channel=15, note=62, velocity=0, time=80),
    Message('note_on', channel=15, note=60, velocity=64, time=1),
    Message('control_change', channel=15, control=2, value=64, time=0),
    Message('control_change', channel=15, control=2, value=65, time=41),
    Message('control_change', channel=15, control=2, value=66, time=123),
    Message('control_change', channel=15, control=2, value=67, time=122),
    Message('control_change', channel=15, control=2, value=68, time=123),
    Message('note_on', channel=15, note=60, velocity=0, time=70),
    Message('control_change', channel=15, control=2, value=69, time=53),
    Message('control_change', channel=15, control=2, value=70, time=122),
    Message('control_change', channel=15, control=2, value=71, time=123),
    Message('control_change', channel=15, control=2, value=72, time=122),
    Message('note_on', channel=15, note=58, velocity=72, time=61),
    Message('control_change', channel=15, control=2, value=72, time=0),
    Message('control_change', channel=15, control=2, value=73, time=62),
    Message('control_change', channel=15, control=2, value=74, time=122),
    Message('control_change', channel=15, control=2, value=75, time=123),
    Message('control_change', channel=15, control=2, value=76, time=122),
    Message('note_on', channel=15, note=58, velocity=0, time=50),
    Message('control_change', channel=15, control=2, value=77, time=73),
    Message('control_change', channel=15, control=2, value=78, time=123),
    Message('control_change', channel=15, control=2, value=79, time=122),
    Message('control_change', channel=15, control=2, value=80, time=123),
    Message('note_on', channel=15, note=56, velocity=80, time=40),
    Message('control_change', channel=15, control=2, value=80, time=0),
    Message('control_change', channel=15, control=2, value=81, time=82),
    Message('control_change', channel=15, control=2, value=82, time=123),
    Message('control_change', channel=15, control=2, value=83, time=122),
    Message('control_change', channel=15, control=2, value=84, time=123),
    Message('note_on', channel=15, note=56, velocity=0, time=29),
    Message('control_change', channel=15, control=2, value=85, time=93),
    Message('control_change', channel=15, control=2, value=86, time=123),
    Message('control_change', channel=15, control=2, value=87, time=123),
    Message('control_change', channel=15, control=2, value=88, time=122),
    Message('note_on', channel=15, note=54, velocity=88, time=20),
    Message('control_change', channel=15, control=2, value=88, time=0),
    Message('control_change', channel=15, control=2, value=89, time=103),
    Message('control_change', channel=15, control=2, value=90, time=122),
    Message('control_change', channel=15, control=2, value=91, time=123),
    Message('control_change', channel=15, control=2, value=92, time=122),
    Message('note_on', channel=15, note=54, velocity=0, time=9),
    Message('control_change', channel=15, control=2, value=93, time=114),
    Message('control_change', channel=15, control=2, value=94, time=122),
    Message('control_change', channel=15, control=2, value=95, time=123),
    Message('note_on', channel=14, note=47, velocity=96, time=122),
    Message('control_change', channel=14, control=2, value=96, time=0),
    Message('control_change', channel=15, control=2, value=96, time=0),
    Message('note_on', channel=14, note=47, velocity=0, time=479),
    Message('note_on', channel=14, note=54, velocity=96, time=3841),
    Message('control_change', channel=14, control=2, value=96, time=0),
    Message('note_on', channel=14, note=54, velocity=0, time=59),
    Message('note_on', channel=14, note=54, velocity=96, time=1),
    Message('note_on', channel=14, note=54, velocity=0, time=59),
    Message('note_on', channel=14, note=54, velocity=96, time=1),
    Message('note_on', channel=14, note=54, velocity=0, time=59),
    Message('note_on', channel=14, note=54, velocity=96, time=1),
    Message('note_on', channel=14, note=54, velocity=0, time=59),
    Message('note_on', channel=14, note=54, velocity=96, time=1),
    Message('note_on', channel=14, note=54, velocity=0, time=59),
    Message('note_on', channel=14, note=54, velocity=96, time=1),
    Message('note_on', channel=14, note=54, velocity=0, time=59),
    Message('note_on', channel=14, note=54, velocity=96, time=1),
    Message('note_on', channel=14, note=54, velocity=0, time=59),
    Message('note_on', channel=14, note=54, velocity=96, time=1),
    Message('note_on', channel=14, note=54, velocity=0, time=59),
    Message('note_on', channel=14, note=53, velocity=96, time=1),
    Message('control_change', channel=14, control=2, value=96, time=0),
    Message('note_on', channel=14, note=53, velocity=0, time=59),
    Message('note_on', channel=14, note=53, velocity=96, time=1),
    Message('note_on', channel=14, note=53, velocity=0, time=59),
    Message('note_on', channel=14, note=53, velocity=96, time=1),
    Message('note_on', channel=14, note=53, velocity=0, time=59),
    Message('note_on', channel=14, note=53, velocity=96, time=1),
    Message('note_on', channel=14, note=53, velocity=0, time=59),
    Message('note_on', channel=14, note=53, velocity=96, time=1),
    Message('note_on', channel=14, note=53, velocity=0, time=59),
    Message('note_on', channel=14, note=53, velocity=96, time=1),
    Message('note_on', channel=14, note=53, velocity=0, time=59),
    Message('note_on', channel=14, note=53, velocity=96, time=1),
    Message('note_on', channel=14, note=53, velocity=0, time=59),
    Message('note_on', channel=14, note=53, velocity=96, time=1),
    Message('note_on', channel=14, note=53, velocity=0, time=59),
    Message('note_on', channel=14, note=52, velocity=96, time=1),
    Message('control_change', channel=14, control=2, value=96, time=0),
    Message('note_on', channel=14, note=52, velocity=0, time=59),
    Message('note_on', channel=14, note=52, velocity=96, time=1),
    Message('note_on', channel=14, note=52, velocity=0, time=59),
    Message('note_on', channel=14, note=52, velocity=96, time=1),
    Message('note_on', channel=14, note=52, velocity=0, time=59),
    Message('note_on', channel=14, note=52, velocity=96, time=1),
    Message('note_on', channel=14, note=52, velocity=0, time=59),
    Message('note_on', channel=14, note=52, velocity=96, time=1),
    Message('note_on', channel=14, note=52, velocity=0, time=59),
    Message('note_on', channel=14, note=52, velocity=96, time=1),
    Message('note_on', channel=14, note=52, velocity=0, time=59),
    Message('note_on', channel=14, note=52, velocity=96, time=1),
    Message('note_on', channel=14, note=52, velocity=0, time=59),
    Message('note_on', channel=14, note=52, velocity=96, time=1),
    Message('note_on', channel=14, note=52, velocity=0, time=59),
    Message('note_on', channel=14, note=54, velocity=96, time=1),
    Message('control_change', channel=14, control=2, value=96, time=0),
    Message('note_on', channel=14, note=62, velocity=96, time=0),
    Message('note_on', channel=14, note=54, velocity=0, time=58),
    Message('note_on', channel=14, note=62, velocity=0, time=0),
    Message('note_on', channel=14, note=54, velocity=96, time=1),
    Message('note_on', channel=14, note=62, velocity=96, time=0),
    Message('note_on', channel=14, note=54, velocity=0, time=58),
    Message('note_on', channel=14, note=62, velocity=0, time=0),
    Message('note_on', channel=14, note=54, velocity=96, time=2),
    Message('note_on', channel=14, note=62, velocity=96, time=0),
    Message('note_on', channel=14, note=54, velocity=0, time=58),
    Message('note_on', channel=14, note=62, velocity=0, time=0),
    Message('note_on', channel=14, note=54, velocity=96, time=1),
    Message('note_on', channel=14, note=62, velocity=96, time=0),
    Message('note_on', channel=14, note=54, velocity=0, time=58),
    Message('note_on', channel=14, note=62, velocity=0, time=0),
    Message('note_on', channel=14, note=54, velocity=96, time=2),
    Message('note_on', channel=14, note=62, velocity=96, time=0),
    Message('note_on', channel=14, note=54, velocity=0, time=58),
    Message('note_on', channel=14, note=62, velocity=0, time=0),
    Message('note_on', channel=14, note=54, velocity=96, time=1),
    Message('note_on', channel=14, note=62, velocity=96, time=0),
    Message('note_on', channel=14, note=54, velocity=0, time=58),
    Message('note_on', channel=14, note=62, velocity=0, time=0),
    Message('note_on', channel=14, note=54, velocity=96, time=2),
    Message('note_on', channel=14, note=62, velocity=96, time=0),
    Message('note_on', channel=14, note=54, velocity=0, time=58),
    Message('note_on', channel=14, note=62, velocity=0, time=0),
    Message('note_on', channel=14, note=54, velocity=96, time=1),
    Message('note_on', channel=14, note=62, velocity=96, time=0),
    Message('note_on', channel=14, note=54, velocity=0, time=58),
    Message('note_on', channel=14, note=62, velocity=0, time=0),
    Message('note_on', channel=14, note=54, velocity=96, time=2),
    Message('note_on', channel=14, note=62, velocity=96, time=0),
    Message('note_on', channel=14, note=54, velocity=0, time=58),
    Message('note_on', channel=14, note=62, velocity=0, time=0),
    Message('note_on', channel=14, note=54, velocity=96, time=1),
    Message('note_on', channel=14, note=62, velocity=96, time=0),
    Message('note_on', channel=14, note=54, velocity=0, time=58),
    Message('note_on', channel=14, note=62, velocity=0, time=0),
    Message('note_on', channel=14, note=54, velocity=96, time=2),
    Message('note_on', channel=14, note=62, velocity=96, time=0),
    Message('note_on', channel=14, note=54, velocity=0, time=58),
    Message('note_on', channel=14, note=62, velocity=0, time=0),
    Message('note_on', channel=14, note=54, velocity=96, time=1),
    Message('note_on', channel=14, note=62, velocity=96, time=0),
    Message('note_on', channel=14, note=54, velocity=0, time=58),
    Message('note_on', channel=14, note=62, velocity=0, time=0),
    Message('note_on', channel=14, note=54, velocity=96, time=2),
    Message('note_on', channel=14, note=62, velocity=96, time=0),
    Message('note_on', channel=14, note=54, velocity=0, time=58),
    Message('note_on', channel=14, note=62, velocity=0, time=0),
    Message('note_on', channel=14, note=54, velocity=96, time=1),
    Message('note_on', channel=14, note=62, velocity=96, time=0),
    Message('note_on', channel=14, note=54, velocity=0, time=58),
    Message('note_on', channel=14, note=62, velocity=0, time=0),
    Message('note_on', channel=14, note=54, velocity=96, time=2),
    Message('note_on', channel=14, note=62, velocity=96, time=0),
    Message('note_on', channel=14, note=54, velocity=0, time=58),
    Message('note_on', channel=14, note=62, velocity=0, time=0),
    Message('note_on', channel=14, note=54, velocity=96, time=1),
    Message('note_on', channel=14, note=62, velocity=96, time=0),
    Message('note_on', channel=14, note=54, velocity=0, time=58),
    Message('note_on', channel=14, note=62, velocity=0, time=0),
    Message('note_on', channel=14, note=55, velocity=96, time=10),
    Message('control_change', channel=14, control=2, value=96, time=0),
    Message('note_on', channel=14, note=64, velocity=96, time=0),
    Message('note_on', channel=14, note=55, velocity=0, time=58),
    Message('note_on', channel=14, note=64, velocity=0, time=0),
    Message('note_on', channel=14, note=55, velocity=96, time=1),
    Message('note_on', channel=14, note=64, velocity=96, time=0),
    Message('note_on', channel=14, note=55, velocity=0, time=58),
    Message('note_on', channel=14, note=64, velocity=0, time=0),
    Message('note_on', channel=14, note=55, velocity=96, time=2),
    Message('note_on', channel=14, note=64, velocity=96, time=0),
    Message('note_on', channel=14, note=55, velocity=0, time=58),
    Message('note_on', channel=14, note=64, velocity=0, time=0),
    Message('note_on', channel=14, note=55, velocity=96, time=1),
    Message('note_on', channel=14, note=64, velocity=96, time=0),
    Message('note_on', channel=14, note=55, velocity=0, time=58),
    Message('note_on', channel=14, note=64, velocity=0, time=0),
    Message('note_on', channel=14, note=55, velocity=96, time=2),
    Message('note_on', channel=14, note=64, velocity=96, time=0),
    Message('note_on', channel=14, note=55, velocity=0, time=58),
    Message('note_on', channel=14, note=64, velocity=0, time=0),
    Message('note_on', channel=14, note=55, velocity=96, time=1),
    Message('note_on', channel=14, note=64, velocity=96, time=0),
    Message('note_on', channel=14, note=55, velocity=0, time=58),
    Message('note_on', channel=14, note=64, velocity=0, time=0),
    Message('note_on', channel=14, note=55, velocity=96, time=2),
    Message('note_on', channel=14, note=64, velocity=96, time=0),
    Message('note_on', channel=14, note=55, velocity=0, time=58),
    Message('note_on', channel=14, note=64, velocity=0, time=0),
    Message('note_on', channel=14, note=55, velocity=96, time=1),
    Message('note_on', channel=14, note=64, velocity=96, time=0),
    Message('note_on', channel=14, note=55, velocity=0, time=58),
    Message('note_on', channel=14, note=64, velocity=0, time=0),
    Message('note_on', channel=14, note=55, velocity=96, time=2),
    Message('note_on', channel=14, note=64, velocity=96, time=0),
    Message('note_on', channel=14, note=55, velocity=0, time=58),
    Message('note_on', channel=14, note=64, velocity=0, time=0),
    Message('note_on', channel=14, note=55, velocity=96, time=1),
    Message('note_on', channel=14, note=64, velocity=96, time=0),
    Message('note_on', channel=14, note=55, velocity=0, time=58),
    Message('note_on', channel=14, note=64, velocity=0, time=0),
    Message('note_on', channel=14, note=55, velocity=96, time=2),
    Message('note_on', channel=14, note=64, velocity=96, time=0),
    Message('note_on', channel=14, note=55, velocity=0, time=58),
    Message('note_on', channel=14, note=64, velocity=0, time=0),
    Message('note_on', channel=14, note=55, velocity=96, time=1),
    Message('note_on', channel=14, note=64, velocity=96, time=0),
    Message('note_on', channel=14, note=55, velocity=0, time=58),
    Message('note_on', channel=14, note=64, velocity=0, time=0),
    Message('note_on', channel=14, note=55, velocity=96, time=2),
    Message('note_on', channel=14, note=64, velocity=96, time=0),
    Message('note_on', channel=14, note=55, velocity=0, time=58),
    Message('note_on', channel=14, note=64, velocity=0, time=0),
    Message('note_on', channel=14, note=55, velocity=96, time=1),
    Message('note_on', channel=14, note=64, velocity=96, time=0),
    Message('note_on', channel=14, note=55, velocity=0, time=58),
    Message('note_on', channel=14, note=64, velocity=0, time=0),
    Message('note_on', channel=14, note=55, velocity=96, time=2),
    Message('note_on', channel=14, note=64, velocity=96, time=0),
    Message('note_on', channel=14, note=55, velocity=0, time=58),
    Message('note_on', channel=14, note=64, velocity=0, time=0),
    Message('note_on', channel=14, note=55, velocity=96, time=1),
    Message('note_on', channel=14, note=64, velocity=96, time=0),
    Message('note_on', channel=14, note=55, velocity=0, time=58),
    Message('note_on', channel=14, note=64, velocity=0, time=0),
    Message('note_on', channel=14, note=54, velocity=96, time=10),
    Message('control_change', channel=14, control=2, value=96, time=0),
    Message('note_on', channel=14, note=62, velocity=96, time=0),
    Message('note_on', channel=14, note=54, velocity=0, time=58),
    Message('note_on', channel=14, note=62, velocity=0, time=0),
    Message('note_on', channel=14, note=54, velocity=96, time=1),
    Message('note_on', channel=14, note=62, velocity=96, time=0),
    Message('note_on', channel=14, note=54, velocity=0, time=58),
    Message('note_on', channel=14, note=62, velocity=0, time=0),
    Message('note_on', channel=14, note=54, velocity=96, time=2),
    Message('note_on', channel=14, note=62, velocity=96, time=0),
    Message('note_on', channel=14, note=54, velocity=0, time=58),
    Message('note_on', channel=14, note=62, velocity=0, time=0),
    Message('note_on', channel=14, note=54, velocity=96, time=1),
    Message('note_on', channel=14, note=62, velocity=96, time=0),
    Message('note_on', channel=14, note=54, velocity=0, time=58),
    Message('note_on', channel=14, note=62, velocity=0, time=0),
    Message('note_on', channel=14, note=54, velocity=96, time=2),
    Message('note_on', channel=14, note=62, velocity=96, time=0),
    Message('note_on', channel=14, note=54, velocity=0, time=58),
    Message('note_on', channel=14, note=62, velocity=0, time=0),
    Message('note_on', channel=14, note=54, velocity=96, time=1),
    Message('note_on', channel=14, note=62, velocity=96, time=0),
    Message('note_on', channel=14, note=54, velocity=0, time=58),
    Message('note_on', channel=14, note=62, velocity=0, time=0),
    Message('note_on', channel=14, note=54, velocity=96, time=2),
    Message('note_on', channel=14, note=62, velocity=96, time=0),
    Message('note_on', channel=14, note=54, velocity=0, time=58),
    Message('note_on', channel=14, note=62, velocity=0, time=0),
    Message('note_on', channel=14, note=54, velocity=96, time=1),
    Message('note_on', channel=14, note=62, velocity=96, time=0),
    Message('note_on', channel=14, note=54, velocity=0, time=58),
    Message('note_on', channel=14, note=62, velocity=0, time=0),
    Message('note_on', channel=14, note=54, velocity=96, time=2),
    Message('note_on', channel=14, note=62, velocity=96, time=0),
    Message('note_on', channel=14, note=54, velocity=0, time=58),
    Message('note_on', channel=14, note=62, velocity=0, time=0),
    Message('note_on', channel=14, note=54, velocity=96, time=1),
    Message('note_on', channel=14, note=62, velocity=96, time=0),
    Message('note_on', channel=14, note=54, velocity=0, time=58),
    Message('note_on', channel=14, note=62, velocity=0, time=0),
    Message('note_on', channel=14, note=54, velocity=96, time=2),
    Message('note_on', channel=14, note=62, velocity=96, time=0),
    Message('note_on', channel=14, note=54, velocity=0, time=58),
    Message('note_on', channel=14, note=62, velocity=0, time=0),
    Message('note_on', channel=14, note=54, velocity=96, time=1),
    Message('note_on', channel=14, note=62, velocity=96, time=0),
    Message('note_on', channel=14, note=54, velocity=0, time=58),
    Message('note_on', channel=14, note=62, velocity=0, time=0),
    Message('note_on', channel=14, note=54, velocity=96, time=2),
    Message('note_on', channel=14, note=62, velocity=96, time=0),
    Message('note_on', channel=14, note=54, velocity=0, time=58),
    Message('note_on', channel=14, note=62, velocity=0, time=0),
    Message('note_on', channel=14, note=54, velocity=96, time=1),
    Message('note_on', channel=14, note=62, velocity=96, time=0),
    Message('note_on', channel=14, note=54, velocity=0, time=58),
    Message('note_on', channel=14, note=62, velocity=0, time=0),
    Message('note_on', channel=14, note=54, velocity=96, time=2),
    Message('note_on', channel=14, note=62, velocity=96, time=0),
    Message('note_on', channel=14, note=54, velocity=0, time=58),
    Message('note_on', channel=14, note=62, velocity=0, time=0),
    Message('note_on', channel=14, note=54, velocity=96, time=1),
    Message('note_on', channel=14, note=62, velocity=96, time=0),
    Message('note_on', channel=14, note=54, velocity=0, time=58),
    Message('note_on', channel=14, note=62, velocity=0, time=0),
    Message('note_on', channel=14, note=55, velocity=96, time=10),
    Message('control_change', channel=14, control=2, value=96, time=0),
    Message('note_on', channel=14, note=64, velocity=96, time=0),
    Message('note_on', channel=14, note=55, velocity=0, time=58),
    Message('note_on', channel=14, note=64, velocity=0, time=0),
    Message('note_on', channel=14, note=55, velocity=96, time=1),
    Message('note_on', channel=14, note=64, velocity=96, time=0),
    Message('note_on', channel=14, note=55, velocity=0, time=58),
    Message('note_on', channel=14, note=64, velocity=0, time=0),
    Message('note_on', channel=14, note=55, velocity=96, time=2),
    Message('note_on', channel=14, note=64, velocity=96, time=0),
    Message('note_on', channel=14, note=55, velocity=0, time=58),
    Message('note_on', channel=14, note=64, velocity=0, time=0),
    Message('note_on', channel=14, note=55, velocity=96, time=1),
    Message('note_on', channel=14, note=64, velocity=96, time=0),
    Message('note_on', channel=14, note=55, velocity=0, time=58),
    Message('note_on', channel=14, note=64, velocity=0, time=0),
    Message('note_on', channel=14, note=55, velocity=96, time=2),
    Message('note_on', channel=14, note=64, velocity=96, time=0),
    Message('note_on', channel=14, note=55, velocity=0, time=58),
    Message('note_on', channel=14, note=64, velocity=0, time=0),
    Message('note_on', channel=14, note=55, velocity=96, time=1),
    Message('note_on', channel=14, note=64, velocity=96, time=0),
    Message('note_on', channel=14, note=55, velocity=0, time=58),
    Message('note_on', channel=14, note=64, velocity=0, time=0),
    Message('note_on', channel=14, note=55, velocity=96, time=2),
    Message('note_on', channel=14, note=64, velocity=96, time=0),
    Message('note_on', channel=14, note=55, velocity=0, time=58),
    Message('note_on', channel=14, note=64, velocity=0, time=0),
    Message('note_on', channel=14, note=55, velocity=96, time=1),
    Message('note_on', channel=14, note=64, velocity=96, time=0),
    Message('note_on', channel=14, note=55, velocity=0, time=58),
    Message('note_on', channel=14, note=64, velocity=0, time=0),
    Message('note_on', channel=14, note=55, velocity=96, time=2),
    Message('note_on', channel=14, note=64, velocity=96, time=0),
    Message('note_on', channel=14, note=55, velocity=0, time=58),
    Message('note_on', channel=14, note=64, velocity=0, time=0),
    Message('note_on', channel=14, note=55, velocity=96, time=1),
    Message('note_on', channel=14, note=64, velocity=96, time=0),
    Message('note_on', channel=14, note=55, velocity=0, time=58),
    Message('note_on', channel=14, note=64, velocity=0, time=0),
    Message('note_on', channel=14, note=55, velocity=96, time=2),
    Message('note_on', channel=14, note=64, velocity=96, time=0),
    Message('note_on', channel=14, note=55, velocity=0, time=58),
    Message('note_on', channel=14, note=64, velocity=0, time=0),
    Message('note_on', channel=14, note=55, velocity=96, time=1),
    Message('note_on', channel=14, note=64, velocity=96, time=0),
    Message('note_on', channel=14, note=55, velocity=0, time=58),
    Message('note_on', channel=14, note=64, velocity=0, time=0),
    Message('note_on', channel=14, note=55, velocity=96, time=2),
    Message('note_on', channel=14, note=64, velocity=96, time=0),
    Message('note_on', channel=14, note=55, velocity=0, time=58),
    Message('note_on', channel=14, note=64, velocity=0, time=0),
    Message('note_on', channel=14, note=55, velocity=96, time=1),
    Message('note_on', channel=14, note=64, velocity=96, time=0),
    Message('note_on', channel=14, note=55, velocity=0, time=58),
    Message('note_on', channel=14, note=64, velocity=0, time=0),
    Message('note_on', channel=14, note=55, velocity=96, time=2),
    Message('note_on', channel=14, note=64, velocity=96, time=0),
    Message('note_on', channel=14, note=55, velocity=0, time=58),
    Message('note_on', channel=14, note=64, velocity=0, time=0),
    Message('note_on', channel=14, note=55, velocity=96, time=1),
    Message('note_on', channel=14, note=64, velocity=96, time=0),
    Message('note_on', channel=14, note=55, velocity=0, time=58),
    Message('note_on', channel=14, note=64, velocity=0, time=0),
    Message('note_on', channel=14, note=54, velocity=96, time=10),
    Message('control_change', channel=14, control=2, value=96, time=0),
    Message('note_on', channel=14, note=62, velocity=96, time=0),
    Message('note_on', channel=14, note=54, velocity=0, time=58),
    Message('note_on', channel=14, note=62, velocity=0, time=0),
    Message('note_on', channel=14, note=54, velocity=96, time=1),
    Message('note_on', channel=14, note=62, velocity=96, time=0),
    Message('note_on', channel=14, note=54, velocity=0, time=58),
    Message('note_on', channel=14, note=62, velocity=0, time=0),
    Message('note_on', channel=14, note=54, velocity=96, time=2),
    Message('note_on', channel=14, note=62, velocity=96, time=0),
    Message('note_on', channel=14, note=54, velocity=0, time=58),
    Message('note_on', channel=14, note=62, velocity=0, time=0),
    Message('note_on', channel=14, note=54, velocity=96, time=1),
    Message('note_on', channel=14, note=62, velocity=96, time=0),
    Message('note_on', channel=14, note=54, velocity=0, time=58),
    Message('note_on', channel=14, note=62, velocity=0, time=0),
    Message('note_on', channel=14, note=54, velocity=96, time=2),
    Message('note_on', channel=14, note=62, velocity=96, time=0),
    Message('note_on', channel=14, note=54, velocity=0, time=58),
    Message('note_on', channel=14, note=62, velocity=0, time=0),
    Message('note_on', channel=14, note=54, velocity=96, time=1),
    Message('note_on', channel=14, note=62, velocity=96, time=0),
    Message('note_on', channel=14, note=54, velocity=0, time=58),
    Message('note_on', channel=14, note=62, velocity=0, time=0),
    Message('note_on', channel=14, note=54, velocity=96, time=2),
    Message('note_on', channel=14, note=62, velocity=96, time=0),
    Message('note_on', channel=14, note=54, velocity=0, time=58),
    Message('note_on', channel=14, note=62, velocity=0, time=0),
    Message('note_on', channel=14, note=54, velocity=96, time=1),
    Message('note_on', channel=14, note=62, velocity=96, time=0),
    Message('note_on', channel=14, note=54, velocity=0, time=58),
    Message('note_on', channel=14, note=62, velocity=0, time=0),
    Message('note_on', channel=14, note=54, velocity=96, time=2),
    Message('note_on', channel=14, note=62, velocity=96, time=0),
    Message('note_on', channel=14, note=54, velocity=0, time=58),
    Message('note_on', channel=14, note=62, velocity=0, time=0),
    Message('note_on', channel=14, note=54, velocity=96, time=1),
    Message('note_on', channel=14, note=62, velocity=96, time=0),
    Message('note_on', channel=14, note=54, velocity=0, time=58),
    Message('note_on', channel=14, note=62, velocity=0, time=0),
    Message('note_on', channel=14, note=54, velocity=96, time=2),
    Message('note_on', channel=14, note=62, velocity=96, time=0),
    Message('note_on', channel=14, note=54, velocity=0, time=58),
    Message('note_on', channel=14, note=62, velocity=0, time=0),
    Message('note_on', channel=14, note=54, velocity=96, time=1),
    Message('note_on', channel=14, note=62, velocity=96, time=0),
    Message('note_on', channel=14, note=54, velocity=0, time=58),
    Message('note_on', channel=14, note=62, velocity=0, time=0),
    Message('note_on', channel=14, note=54, velocity=96, time=2),
    Message('note_on', channel=14, note=62, velocity=96, time=0),
    Message('note_on', channel=14, note=54, velocity=0, time=58),
    Message('note_on', channel=14, note=62, velocity=0, time=0),
    Message('note_on', channel=14, note=54, velocity=96, time=1),
    Message('note_on', channel=14, note=62, velocity=96, time=0),
    Message('note_on', channel=14, note=54, velocity=0, time=58),
    Message('note_on', channel=14, note=62, velocity=0, time=0),
    Message('note_on', channel=14, note=54, velocity=96, time=2),
    Message('note_on', channel=14, note=62, velocity=96, time=0),
    Message('note_on', channel=14, note=54, velocity=0, time=58),
    Message('note_on', channel=14, note=62, velocity=0, time=0),
    Message('note_on', channel=14, note=54, velocity=96, time=1),
    Message('note_on', channel=14, note=62, velocity=96, time=0),
    Message('note_on', channel=14, note=54, velocity=0, time=58),
    Message('note_on', channel=14, note=62, velocity=0, time=0),
    Message('note_on', channel=14, note=54, velocity=96, time=2),
    Message('note_on', channel=14, note=62, velocity=96, time=0),
    Message('note_on', channel=14, note=54, velocity=0, time=58),
    Message('note_on', channel=14, note=62, velocity=0, time=0),
    Message('note_on', channel=14, note=54, velocity=96, time=1),
    Message('note_on', channel=14, note=62, velocity=96, time=0),
    Message('note_on', channel=14, note=54, velocity=0, time=58),
    Message('note_on', channel=14, note=62, velocity=0, time=0),
    Message('note_on', channel=14, note=54, velocity=96, time=2),
    Message('note_on', channel=14, note=62, velocity=96, time=0),
    Message('note_on', channel=14, note=54, velocity=0, time=58),
    Message('note_on', channel=14, note=62, velocity=0, time=0),
    Message('note_on', channel=14, note=54, velocity=96, time=1),
    Message('note_on', channel=14, note=62, velocity=96, time=0),
    Message('note_on', channel=14, note=54, velocity=0, time=58),
    Message('note_on', channel=14, note=62, velocity=0, time=0),
    Message('note_on', channel=14, note=54, velocity=96, time=2),
    Message('note_on', channel=14, note=62, velocity=96, time=0),
    Message('note_on', channel=14, note=54, velocity=0, time=58),
    Message('note_on', channel=14, note=62, velocity=0, time=0),
    Message('note_on', channel=14, note=54, velocity=96, time=1),
    Message('note_on', channel=14, note=62, velocity=96, time=0),
    Message('note_on', channel=14, note=54, velocity=0, time=58),
    Message('note_on', channel=14, note=62, velocity=0, time=0),
    Message('note_on', channel=14, note=54, velocity=96, time=2),
    Message('note_on', channel=14, note=62, velocity=96, time=0),
    Message('note_on', channel=14, note=54, velocity=0, time=58),
    Message('note_on', channel=14, note=62, velocity=0, time=0),
    Message('note_on', channel=14, note=54, velocity=96, time=1),
    Message('note_on', channel=14, note=62, velocity=96, time=0),
    Message('note_on', channel=14, note=54, velocity=0, time=58),
    Message('note_on', channel=14, note=62, velocity=0, time=0),
    Message('note_on', channel=14, note=54, velocity=96, time=2),
    Message('note_on', channel=14, note=62, velocity=96, time=0),
    Message('note_on', channel=14, note=54, velocity=0, time=58),
    Message('note_on', channel=14, note=62, velocity=0, time=0),
    Message('note_on', channel=14, note=54, velocity=96, time=2),
    Message('note_on', channel=14, note=62, velocity=96, time=0),
    Message('note_on', channel=14, note=54, velocity=0, time=58),
    Message('note_on', channel=14, note=62, velocity=0, time=0),
    Message('note_on', channel=14, note=54, velocity=96, time=1),
    Message('note_on', channel=14, note=62, velocity=96, time=0),
    Message('note_on', channel=14, note=54, velocity=0, time=58),
    Message('note_on', channel=14, note=62, velocity=0, time=0),
    Message('note_on', channel=14, note=54, velocity=96, time=2),
    Message('note_on', channel=14, note=62, velocity=96, time=0),
    Message('note_on', channel=14, note=54, velocity=0, time=58),
    Message('note_on', channel=14, note=62, velocity=0, time=0),
    Message('note_on', channel=14, note=54, velocity=96, time=1),
    Message('note_on', channel=14, note=62, velocity=96, time=0),
    Message('note_on', channel=14, note=54, velocity=0, time=58),
    Message('note_on', channel=14, note=62, velocity=0, time=0),
    Message('note_on', channel=14, note=54, velocity=96, time=2),
    Message('note_on', channel=14, note=62, velocity=96, time=0),
    Message('note_on', channel=14, note=54, velocity=0, time=58),
    Message('note_on', channel=14, note=62, velocity=0, time=0),
    Message('note_on', channel=14, note=54, velocity=96, time=1),
    Message('note_on', channel=14, note=62, velocity=96, time=0),
    Message('note_on', channel=14, note=54, velocity=0, time=58),
    Message('note_on', channel=14, note=62, velocity=0, time=0),
    Message('note_on', channel=14, note=54, velocity=96, time=2),
    Message('note_on', channel=14, note=62, velocity=96, time=0),
    Message('note_on', channel=14, note=54, velocity=0, time=58),
    Message('note_on', channel=14, note=62, velocity=0, time=0),
    Message('note_on', channel=14, note=54, velocity=96, time=17),
    Message('control_change', channel=14, control=2, value=96, time=0),
    Message('note_on', channel=14, note=62, velocity=96, time=0),
    Message('note_on', channel=14, note=54, velocity=0, time=58),
    Message('note_on', channel=14, note=62, velocity=0, time=0),
    Message('note_on', channel=14, note=54, velocity=96, time=1),
    Message('note_on', channel=14, note=62, velocity=96, time=0),
    Message('note_on', channel=14, note=54, velocity=0, time=58),
    Message('note_on', channel=14, note=62, velocity=0, time=0),
    Message('note_on', channel=14, note=54, velocity=96, time=2),
    Message('note_on', channel=14, note=62, velocity=96, time=0),
    Message('note_on', channel=14, note=54, velocity=0, time=58),
    Message('note_on', channel=14, note=62, velocity=0, time=0),
    Message('note_on', channel=14, note=54, velocity=96, time=1),
    Message('note_on', channel=14, note=62, velocity=96, time=0),
    Message('note_on', channel=14, note=54, velocity=0, time=58),
    Message('note_on', channel=14, note=62, velocity=0, time=0),
    Message('note_on', channel=14, note=54, velocity=96, time=2),
    Message('note_on', channel=14, note=62, velocity=96, time=0),
    Message('note_on', channel=14, note=54, velocity=0, time=58),
    Message('note_on', channel=14, note=62, velocity=0, time=0),
    Message('note_on', channel=14, note=54, velocity=96, time=1),
    Message('note_on', channel=14, note=62, velocity=96, time=0),
    Message('note_on', channel=14, note=54, velocity=0, time=58),
    Message('note_on', channel=14, note=62, velocity=0, time=0),
    Message('note_on', channel=14, note=54, velocity=96, time=2),
    Message('note_on', channel=14, note=62, velocity=96, time=0),
    Message('note_on', channel=14, note=54, velocity=0, time=58),
    Message('note_on', channel=14, note=62, velocity=0, time=0),
    Message('note_on', channel=14, note=54, velocity=96, time=1),
    Message('note_on', channel=14, note=62, velocity=96, time=0),
    Message('note_on', channel=14, note=54, velocity=0, time=58),
    Message('note_on', channel=14, note=62, velocity=0, time=0),
    Message('note_on', channel=14, note=54, velocity=96, time=2),
    Message('note_on', channel=14, note=62, velocity=96, time=0),
    Message('note_on', channel=14, note=54, velocity=0, time=58),
    Message('note_on', channel=14, note=62, velocity=0, time=0),
    Message('note_on', channel=14, note=54, velocity=96, time=1),
    Message('note_on', channel=14, note=62, velocity=96, time=0),
    Message('note_on', channel=14, note=54, velocity=0, time=58),
    Message('note_on', channel=14, note=62, velocity=0, time=0),
    Message('note_on', channel=14, note=54, velocity=96, time=2),
    Message('note_on', channel=14, note=62, velocity=96, time=0),
    Message('note_on', channel=14, note=54, velocity=0, time=58),
    Message('note_on', channel=14, note=62, velocity=0, time=0),
    Message('note_on', channel=14, note=54, velocity=96, time=1),
    Message('note_on', channel=14, note=62, velocity=96, time=0),
    Message('note_on', channel=14, note=54, velocity=0, time=58),
    Message('note_on', channel=14, note=62, velocity=0, time=0),
    Message('note_on', channel=14, note=54, velocity=96, time=2),
    Message('note_on', channel=14, note=62, velocity=96, time=0),
    Message('note_on', channel=14, note=54, velocity=0, time=58),
    Message('note_on', channel=14, note=62, velocity=0, time=0),
    Message('note_on', channel=14, note=54, velocity=96, time=1),
    Message('note_on', channel=14, note=62, velocity=96, time=0),
    Message('note_on', channel=14, note=54, velocity=0, time=58),
    Message('note_on', channel=14, note=62, velocity=0, time=0),
    Message('note_on', channel=14, note=54, velocity=96, time=2),
    Message('note_on', channel=14, note=62, velocity=96, time=0),
    Message('note_on', channel=14, note=54, velocity=0, time=58),
    Message('note_on', channel=14, note=62, velocity=0, time=0),
    Message('note_on', channel=14, note=54, velocity=96, time=1),
    Message('note_on', channel=14, note=62, velocity=96, time=0),
    Message('note_on', channel=14, note=54, velocity=0, time=58),
    Message('note_on', channel=14, note=62, velocity=0, time=0),
    Message('note_on', channel=14, note=55, velocity=96, time=10),
    Message('control_change', channel=14, control=2, value=96, time=0),
    Message('note_on', channel=14, note=55, velocity=0, time=59),
    Message('note_on', channel=14, note=55, velocity=96, time=1),
    Message('note_on', channel=14, note=55, velocity=0, time=59),
    Message('note_on', channel=14, note=55, velocity=96, time=1),
    Message('note_on', channel=14, note=55, velocity=0, time=59),
    Message('note_on', channel=14, note=55, velocity=96, time=1),
    Message('note_on', channel=14, note=55, velocity=0, time=59),
    Message('note_on', channel=14, note=55, velocity=96, time=1),
    Message('note_on', channel=14, note=55, velocity=0, time=59),
    Message('note_on', channel=14, note=55, velocity=96, time=1),
    Message('note_on', channel=14, note=55, velocity=0, time=59),
    Message('note_on', channel=14, note=55, velocity=96, time=1),
    Message('note_on', channel=14, note=55, velocity=0, time=59),
    Message('note_on', channel=14, note=55, velocity=96, time=1),
    Message('note_on', channel=14, note=55, velocity=0, time=59),
    Message('note_on', channel=14, note=52, velocity=96, time=1),
    Message('control_change', channel=14, control=2, value=96, time=0),
    Message('note_on', channel=14, note=52, velocity=0, time=59),
    Message('note_on', channel=14, note=52, velocity=96, time=1),
    Message('note_on', channel=14, note=52, velocity=0, time=59),
    Message('note_on', channel=14, note=52, velocity=96, time=1),
    Message('note_on', channel=14, note=52, velocity=0, time=59),
    Message('note_on', channel=14, note=52, velocity=96, time=1),
    Message('note_on', channel=14, note=52, velocity=0, time=59),
    Message('note_on', channel=14, note=52, velocity=96, time=1),
    Message('note_on', channel=14, note=52, velocity=0, time=59),
    Message('note_on', channel=14, note=52, velocity=96, time=1),
    Message('note_on', channel=14, note=52, velocity=0, time=59),
    Message('note_on', channel=14, note=52, velocity=96, time=1),
    Message('note_on', channel=14, note=52, velocity=0, time=59),
    Message('note_on', channel=14, note=52, velocity=96, time=1),
    Message('note_on', channel=14, note=52, velocity=0, time=59),
    Message('note_on', channel=14, note=62, velocity=96, time=1),
    Message('control_change', channel=14, control=2, value=96, time=0),
    Message('note_on', channel=14, note=62, velocity=0, time=239),
    Message('note_on', channel=15, note=59, velocity=96, time=721),
    Message('control_change', channel=15, control=2, value=96, time=0),
    Message('note_on', channel=15, note=59, velocity=0, time=479),
    Message('note_on', channel=15, note=57, velocity=96, time=481),
    Message('control_change', channel=15, control=2, value=96, time=0),
    Message('note_on', channel=15, note=57, velocity=0, time=479),
    Message('note_on', channel=15, note=55, velocity=96, time=481),
    Message('control_change', channel=15, control=2, value=96, time=0),
    Message('note_on', channel=15, note=55, velocity=0, time=479),
    Message('note_on', channel=15, note=54, velocity=96, time=481),
    Message('control_change', channel=15, control=2, value=96, time=0),
    Message('note_on', channel=15, note=54, velocity=0, time=479),
    Message('note_on', channel=15, note=52, velocity=96, time=1441),
    Message('control_change', channel=15, control=2, value=96, time=0),
    Message('note_on', channel=15, note=52, velocity=0, time=479),
    Message('note_on', channel=15, note=50, velocity=96, time=481),
    Message('control_change', channel=15, control=2, value=96, time=0),
    Message('note_on', channel=15, note=50, velocity=0, time=479),
    Message('note_on', channel=15, note=49, velocity=96, time=481),
    Message('control_change', channel=15, control=2, value=96, time=0),
    Message('note_on', channel=15, note=49, velocity=0, time=479),
    Message('note_on', channel=15, note=54, velocity=96, time=481),
    Message('control_change', channel=15, control=2, value=96, time=0),
    Message('note_on', channel=15, note=54, velocity=0, time=479),
    Message('note_on', channel=15, note=59, velocity=96, time=1),
    Message('control_change', channel=15, control=2, value=96, time=0),
    Message('note_on', channel=15, note=59, velocity=0, time=479),
    Message('note_on', channel=15, note=57, velocity=96, time=1),
    Message('control_change', channel=15, control=2, value=96, time=0),
    Message('note_on', channel=15, note=57, velocity=0, time=479),
    Message('note_on', channel=15, note=55, velocity=96, time=481),
    Message('control_change', channel=15, control=2, value=96, time=0),
    Message('note_on', channel=15, note=55, velocity=0, time=479),
    Message('note_on', channel=15, note=54, velocity=96, time=481),
    Message('control_change', channel=15, control=2, value=96, time=0),
    Message('note_on', channel=15, note=54, velocity=0, time=479),
    Message('note_on', channel=15, note=52, velocity=96, time=1441),
    Message('control_change', channel=15, control=2, value=96, time=0),
    Message('note_on', channel=15, note=52, velocity=0, time=479),
    Message('note_on', channel=15, note=50, velocity=96, time=481),
    Message('control_change', channel=15, control=2, value=96, time=0),
    Message('note_on', channel=15, note=50, velocity=0, time=479),
    Message('note_on', channel=15, note=48, velocity=96, time=481),
    Message('control_change', channel=15, control=2, value=96, time=0),
    Message('note_on', channel=15, note=48, velocity=0, time=479),
    Message('note_on', channel=15, note=52, velocity=96, time=481),
    Message('control_change', channel=15, control=2, value=96, time=0),
    Message('note_on', channel=15, note=52, velocity=0, time=479),
    Message('note_on', channel=15, note=54, velocity=96, time=481),
    Message('control_change', channel=15, control=2, value=96, time=0),
    Message('note_on', channel=15, note=54, velocity=0, time=479),
    Message('note_on', channel=15, note=52, velocity=96, time=481),
    Message('control_change', channel=15, control=2, value=96, time=0),
    Message('note_on', channel=15, note=52, velocity=0, time=479),
    Message('note_on', channel=15, note=48, velocity=96, time=481),
    Message('control_change', channel=15, control=2, value=96, time=0),
    Message('note_on', channel=15, note=48, velocity=0, time=479),
    Message('note_on', channel=15, note=52, velocity=96, time=481),
    Message('control_change', channel=15, control=2, value=96, time=0),
    Message('note_on', channel=15, note=52, velocity=0, time=479),
    Message('note_on', channel=15, note=54, velocity=96, time=481),
    Message('control_change', channel=15, control=2, value=96, time=0),
    Message('note_on', channel=15, note=54, velocity=0, time=479),
    Message('note_on', channel=15, note=52, velocity=96, time=481),
    Message('control_change', channel=15, control=2, value=96, time=0),
    Message('note_on', channel=15, note=52, velocity=0, time=479),
    Message('note_on', channel=14, note=48, velocity=96, time=481),
    Message('control_change', channel=14, control=2, value=96, time=0),
    Message('control_change', channel=14, control=2, value=97, time=480),
    Message('control_change', channel=14, control=2, value=98, time=480),
    Message('control_change', channel=14, control=2, value=99, time=480),
    Message('note_on', channel=14, note=48, velocity=0, time=479),
    Message('control_change', channel=14, control=2, value=100, time=1),
    Message('note_on', channel=14, note=48, velocity=104, time=1920),
    Message('control_change', channel=14, control=2, value=104, time=0),
    Message('control_change', channel=14, control=2, value=105, time=480),
    Message('control_change', channel=14, control=2, value=106, time=480),
    Message('control_change', channel=14, control=2, value=107, time=480),
    Message('note_on', channel=14, note=48, velocity=0, time=479),
    Message('control_change', channel=14, control=2, value=108, time=1),
    Message('control_change', channel=14, control=2, value=109, time=480),
    Message('control_change', channel=14, control=2, value=110, time=480),
    Message('control_change', channel=14, control=2, value=111, time=480),
    Message('control_change', channel=14, control=2, value=112, time=480),
    Message('note_on', channel=14, note=48, velocity=112, time=0),
    Message('note_on', channel=14, note=48, velocity=0, time=1919),
    Message('note_on', channel=14, note=59, velocity=112, time=1),
    Message('control_change', channel=14, control=2, value=112, time=0),
    Message('note_on', channel=14, note=59, velocity=0, time=319),
    Message('note_on', channel=14, note=52, velocity=112, time=1),
    Message('control_change', channel=14, control=2, value=112, time=0),
    Message('note_on', channel=14, note=52, velocity=0, time=319),
    Message('note_on', channel=14, note=59, velocity=112, time=1),
    Message('control_change', channel=14, control=2, value=112, time=0),
    Message('note_on', channel=14, note=59, velocity=0, time=319),
    Message('note_on', channel=14, note=59, velocity=112, time=1),
    Message('control_change', channel=14, control=2, value=112, time=0),
    Message('note_on', channel=14, note=59, velocity=0, time=319),
    Message('note_on', channel=14, note=52, velocity=112, time=1),
    Message('control_change', channel=14, control=2, value=112, time=0),
    Message('note_on', channel=14, note=52, velocity=0, time=319),
    Message('note_on', channel=14, note=59, velocity=112, time=1),
    Message('control_change', channel=14, control=2, value=112, time=0),
    Message('note_on', channel=14, note=59, velocity=0, time=319),
    Message('note_on', channel=14, note=58, velocity=112, time=1),
    Message('control_change', channel=14, control=2, value=112, time=0),
    Message('note_on', channel=14, note=58, velocity=0, time=1919),
    Message('note_on', channel=14, note=54, velocity=112, time=1),
    Message('control_change', channel=14, control=2, value=112, time=0),
    Message('note_on', channel=14, note=58, velocity=112, time=0),
    Message('note_on', channel=14, note=54, velocity=0, time=159),
    Message('note_on', channel=14, note=58, velocity=0, time=0),
    Message('note_on', channel=14, note=54, velocity=112, time=1),
    Message('note_on', channel=14, note=58, velocity=112, time=0),
    Message('note_on', channel=14, note=54, velocity=0, time=159),
    Message('note_on', channel=14, note=58, velocity=0, time=0),
    Message('note_on', channel=14, note=54, velocity=112, time=1),
    Message('control_change', channel=14, control=2, value=112, time=0),
    Message('note_on', channel=14, note=58, velocity=112, time=0),
    Message('note_on', channel=14, note=54, velocity=0, time=159),
    Message('note_on', channel=14, note=58, velocity=0, time=0),
    Message('note_on', channel=14, note=54, velocity=112, time=1),
    Message('note_on', channel=14, note=58, velocity=112, time=0),
    Message('note_on', channel=14, note=54, velocity=0, time=159),
    Message('note_on', channel=14, note=58, velocity=0, time=0),
    Message('note_on', channel=14, note=54, velocity=112, time=1),
    Message('control_change', channel=14, control=2, value=112, time=0),
    Message('note_on', channel=14, note=58, velocity=112, time=0),
    Message('note_on', channel=14, note=54, velocity=0, time=159),
    Message('note_on', channel=14, note=58, velocity=0, time=0),
    Message('note_on', channel=14, note=54, velocity=112, time=1),
    Message('note_on', channel=14, note=58, velocity=112, time=0),
    Message('note_on', channel=14, note=54, velocity=0, time=159),
    Message('note_on', channel=14, note=58, velocity=0, time=0),
    Message('note_on', channel=14, note=54, velocity=112, time=1),
    Message('control_change', channel=14, control=2, value=112, time=0),
    Message('note_on', channel=14, note=58, velocity=112, time=0),
    Message('note_on', channel=14, note=54, velocity=0, time=159),
    Message('note_on', channel=14, note=58, velocity=0, time=0),
    Message('note_on', channel=14, note=54, velocity=112, time=1),
    Message('note_on', channel=14, note=58, velocity=112, time=0),
    Message('note_on', channel=14, note=54, velocity=0, time=159),
    Message('note_on', channel=14, note=58, velocity=0, time=0),
    Message('note_on', channel=14, note=54, velocity=112, time=1),
    Message('control_change', channel=14, control=2, value=112, time=0),
    Message('note_on', channel=14, note=58, velocity=112, time=0),
    Message('note_on', channel=14, note=54, velocity=0, time=159),
    Message('note_on', channel=14, note=58, velocity=0, time=0),
    Message('note_on', channel=14, note=54, velocity=112, time=1),
    Message('note_on', channel=14, note=58, velocity=112, time=0),
    Message('note_on', channel=14, note=54, velocity=0, time=159),
    Message('note_on', channel=14, note=58, velocity=0, time=0),
    Message('note_on', channel=14, note=54, velocity=112, time=1),
    Message('control_change', channel=14, control=2, value=112, time=0),
    Message('note_on', channel=14, note=58, velocity=112, time=0),
    Message('note_on', channel=14, note=54, velocity=0, time=159),
    Message('note_on', channel=14, note=58, velocity=0, time=0),
    Message('note_on', channel=14, note=54, velocity=112, time=1),
    Message('note_on', channel=14, note=58, velocity=112, time=0),
    Message('note_on', channel=14, note=54, velocity=0, time=159),
    Message('note_on', channel=14, note=58, velocity=0, time=0),
    Message('note_on', channel=14, note=62, velocity=112, time=1),
    Message('control_change', channel=14, control=2, value=112, time=0),
    Message('note_on', channel=14, note=62, velocity=0, time=159),
    Message('note_on', channel=14, note=62, velocity=112, time=1),
    Message('note_on', channel=14, note=62, velocity=0, time=159),
    Message('note_on', channel=14, note=62, velocity=112, time=1),
    Message('control_change', channel=14, control=2, value=112, time=0),
    Message('note_on', channel=14, note=62, velocity=0, time=159),
    Message('note_on', channel=14, note=62, velocity=112, time=1),
    Message('note_on', channel=14, note=62, velocity=0, time=159),
    Message('note_on', channel=14, note=61, velocity=112, time=1),
    Message('control_change', channel=14, control=2, value=112, time=0),
    Message('note_on', channel=14, note=61, velocity=0, time=159),
    Message('note_on', channel=14, note=61, velocity=112, time=1),
    Message('note_on', channel=14, note=61, velocity=0, time=159),
    Message('note_on', channel=14, note=62, velocity=112, time=1),
    Message('control_change', channel=14, control=2, value=112, time=0),
    Message('note_on', channel=14, note=62, velocity=0, time=159),
    Message('note_on', channel=14, note=62, velocity=112, time=1),
    Message('note_on', channel=14, note=62, velocity=0, time=159),
    Message('note_on', channel=14, note=62, velocity=112, time=1),
    Message('control_change', channel=14, control=2, value=112, time=0),
    Message('note_on', channel=14, note=62, velocity=0, time=159),
    Message('note_on', channel=14, note=62, velocity=112, time=1),
    Message('note_on', channel=14, note=62, velocity=0, time=159),
    Message('note_on', channel=14, note=61, velocity=112, time=1),
    Message('control_change', channel=14, control=2, value=112, time=0),
    Message('note_on', channel=14, note=61, velocity=0, time=159),
    Message('note_on', channel=14, note=61, velocity=112, time=1),
    Message('note_on', channel=14, note=61, velocity=0, time=159),
    Message('note_on', channel=14, note=62, velocity=112, time=1),
    Message('control_change', channel=14, control=2, value=112, time=0),
    Message('note_on', channel=14, note=62, velocity=0, time=159),
    Message('note_on', channel=14, note=62, velocity=112, time=1),
    Message('note_on', channel=14, note=62, velocity=0, time=159),
    Message('note_on', channel=14, note=62, velocity=112, time=1),
    Message('control_change', channel=14, control=2, value=112, time=0),
    Message('note_on', channel=14, note=62, velocity=0, time=159),
    Message('note_on', channel=14, note=62, velocity=112, time=1),
    Message('note_on', channel=14, note=62, velocity=0, time=159),
    Message('note_on', channel=14, note=61, velocity=112, time=1),
    Message('control_change', channel=14, control=2, value=112, time=0),
    Message('note_on', channel=14, note=61, velocity=0, time=159),
    Message('note_on', channel=14, note=61, velocity=112, time=1),
    Message('note_on', channel=14, note=61, velocity=0, time=159),
    Message('note_on', channel=14, note=62, velocity=112, time=1),
    Message('control_change', channel=14, control=2, value=112, time=0),
    Message('note_on', channel=14, note=62, velocity=0, time=159),
    Message('note_on', channel=14, note=62, velocity=112, time=1),
    Message('note_on', channel=14, note=62, velocity=0, time=159),
    Message('note_on', channel=14, note=62, velocity=112, time=1),
    Message('control_change', channel=14, control=2, value=112, time=0),
    Message('note_on', channel=14, note=62, velocity=0, time=159),
    Message('note_on', channel=14, note=62, velocity=112, time=1),
    Message('note_on', channel=14, note=62, velocity=0, time=159),
    Message('note_on', channel=14, note=61, velocity=112, time=1),
    Message('control_change', channel=14, control=2, value=112, time=0),
    Message('note_on', channel=14, note=61, velocity=0, time=159),
    Message('note_on', channel=14, note=61, velocity=112, time=1),
    Message('note_on', channel=14, note=61, velocity=0, time=159),
    Message('note_on', channel=14, note=66, velocity=112, time=1),
    Message('control_change', channel=14, control=2, value=112, time=0),
    Message('note_on', channel=14, note=66, velocity=0, time=119),
    Message('note_on', channel=14, note=66, velocity=112, time=1),
    Message('note_on', channel=14, note=66, velocity=0, time=119),
    Message('note_on', channel=14, note=66, velocity=112, time=1),
    Message('note_on', channel=14, note=66, velocity=0, time=119),
    Message('note_on', channel=14, note=66, velocity=112, time=1),
    Message('note_on', channel=14, note=66, velocity=0, time=119),
    Message('note_on', channel=14, note=64, velocity=112, time=1),
    Message('control_change', channel=14, control=2, value=112, time=0),
    Message('note_on', channel=14, note=64, velocity=0, time=119),
    Message('note_on', channel=14, note=64, velocity=112, time=1),
    Message('note_on', channel=14, note=64, velocity=0, time=119),
    Message('note_on', channel=14, note=64, velocity=112, time=1),
    Message('note_on', channel=14, note=64, velocity=0, time=119),
    Message('note_on', channel=14, note=64, velocity=112, time=1),
    Message('note_on', channel=14, note=64, velocity=0, time=119),
    Message('note_on', channel=14, note=61, velocity=112, time=1),
    Message('control_change', channel=14, control=2, value=112, time=0),
    Message('note_on', channel=14, note=61, velocity=0, time=119),
    Message('note_on', channel=14, note=61, velocity=112, time=1),
    Message('note_on', channel=14, note=61, velocity=0, time=119),
    Message('note_on', channel=14, note=61, velocity=112, time=1),
    Message('note_on', channel=14, note=61, velocity=0, time=119),
    Message('note_on', channel=14, note=61, velocity=112, time=1),
    Message('note_on', channel=14, note=61, velocity=0, time=119),
    Message('note_on', channel=14, note=58, velocity=112, time=1),
    Message('control_change', channel=14, control=2, value=112, time=0),
    Message('note_on', channel=14, note=58, velocity=0, time=119),
    Message('note_on', channel=14, note=58, velocity=112, time=1),
    Message('note_on', channel=14, note=58, velocity=0, time=119),
    Message('note_on', channel=14, note=58, velocity=112, time=1),
    Message('note_on', channel=14, note=58, velocity=0, time=119),
    Message('note_on', channel=14, note=58, velocity=112, time=1),
    Message('note_on', channel=14, note=58, velocity=0, time=119),
    Message('note_on', channel=14, note=54, velocity=112, time=1),
    Message('control_change', channel=14, control=2, value=112, time=0),
    Message('note_on', channel=14, note=54, velocity=0, time=119),
    Message('note_on', channel=14, note=54, velocity=112, time=1),
    Message('note_on', channel=14, note=54, velocity=0, time=119),
    Message('note_on', channel=14, note=54, velocity=112, time=1),
    Message('note_on', channel=14, note=54, velocity=0, time=119),
    Message('note_on', channel=14, note=54, velocity=112, time=1),
    Message('note_on', channel=14, note=54, velocity=0, time=119),
    Message('note_on', channel=14, note=64, velocity=112, time=1),
    Message('control_change', channel=14, control=2, value=112, time=0),
    Message('note_on', channel=14, note=64, velocity=0, time=119),
    Message('note_on', channel=14, note=64, velocity=112, time=1),
    Message('note_on', channel=14, note=64, velocity=0, time=119),
    Message('note_on', channel=14, note=64, velocity=112, time=1),
    Message('note_on', channel=14, note=64, velocity=0, time=119),
    Message('note_on', channel=14, note=64, velocity=112, time=1),
    Message('note_on', channel=14, note=64, velocity=0, time=119),
    Message('note_on', channel=14, note=61, velocity=112, time=1),
    Message('control_change', channel=14, control=2, value=112, time=0),
    Message('note_on', channel=14, note=61, velocity=0, time=119),
    Message('note_on', channel=14, note=61, velocity=112, time=1),
    Message('note_on', channel=14, note=61, velocity=0, time=119),
    Message('note_on', channel=14, note=61, velocity=112, time=1),
    Message('note_on', channel=14, note=61, velocity=0, time=119),
    Message('note_on', channel=14, note=61, velocity=112, time=1),
    Message('note_on', channel=14, note=61, velocity=0, time=119),
    Message('note_on', channel=14, note=58, velocity=112, time=1),
    Message('control_change', channel=14, control=2, value=112, time=0),
    Message('note_on', channel=14, note=58, velocity=0, time=119),
    Message('note_on', channel=14, note=58, velocity=112, time=1),
    Message('note_on', channel=14, note=58, velocity=0, time=119),
    Message('note_on', channel=14, note=58, velocity=112, time=1),
    Message('note_on', channel=14, note=58, velocity=0, time=119),
    Message('note_on', channel=14, note=58, velocity=112, time=1),
    Message('note_on', channel=14, note=58, velocity=0, time=119),
    Message('note_on', channel=14, note=54, velocity=112, time=1),
    Message('control_change', channel=14, control=2, value=112, time=0),
    Message('note_on', channel=14, note=54, velocity=0, time=479),
    Message('note_on', channel=14, note=64, velocity=112, time=1),
    Message('control_change', channel=14, control=2, value=112, time=0),
    Message('note_on', channel=14, note=64, velocity=0, time=479),
    Message('note_on', channel=14, note=61, velocity=112, time=1),
    Message('control_change', channel=14, control=2, value=112, time=0),
    Message('note_on', channel=14, note=61, velocity=0, time=479),
    Message('note_on', channel=14, note=58, velocity=112, time=1),
    Message('control_change', channel=14, control=2, value=112, time=0),
    Message('note_on', channel=14, note=58, velocity=0, time=479),
    Message('note_on', channel=14, note=54, velocity=112, time=1),
    Message('control_change', channel=14, control=2, value=112, time=0),
    Message('note_on', channel=14, note=54, velocity=0, time=479),
    Message('note_on', channel=14, note=52, velocity=112, time=1),
    Message('control_change', channel=14, control=2, value=112, time=0),
    Message('note_on', channel=14, note=52, velocity=0, time=479),
    Message('note_on', channel=14, note=50, velocity=112, time=1),
    Message('control_change', channel=14, control=2, value=112, time=0),
    Message('note_on', channel=14, note=50, velocity=0, time=479),
    Message('note_on', channel=14, note=49, velocity=112, time=1),
    Message('control_change', channel=14, control=2, value=112, time=0),
    Message('note_on', channel=14, note=49, velocity=0, time=479),
    Message('control_change', channel=14, control=2, value=126, time=1),
    Message('note_on', channel=14, note=66, velocity=126, time=0),
    Message('note_on', channel=14, note=66, velocity=0, time=1919),
    Message('note_on', channel=14, note=59, velocity=126, time=1),
    Message('control_change', channel=14, control=2, value=126, time=0),
    Message('note_on', channel=14, note=59, velocity=0, time=119),
    Message('note_on', channel=14, note=59, velocity=126, time=1),
    Message('note_on', channel=14, note=59, velocity=0, time=119),
    Message('note_on', channel=14, note=59, velocity=126, time=1),
    Message('note_on', channel=14, note=59, velocity=0, time=119),
    Message('note_on', channel=14, note=59, velocity=126, time=1),
    Message('note_on', channel=14, note=59, velocity=0, time=119),
    Message('note_on', channel=14, note=61, velocity=126, time=1),
    Message('control_change', channel=14, control=2, value=126, time=0),
    Message('note_on', channel=14, note=61, velocity=0, time=119),
    Message('note_on', channel=14, note=61, velocity=126, time=1),
    Message('note_on', channel=14, note=61, velocity=0, time=119),
    Message('note_on', channel=14, note=61, velocity=126, time=1),
    Message('note_on', channel=14, note=61, velocity=0, time=119),
    Message('note_on', channel=14, note=61, velocity=126, time=1),
    Message('note_on', channel=14, note=61, velocity=0, time=119),
    Message('note_on', channel=14, note=62, velocity=126, time=1),
    Message('control_change', channel=14, control=2, value=126, time=0),
    Message('note_on', channel=14, note=62, velocity=0, time=119),
    Message('note_on', channel=14, note=62, velocity=126, time=1),
    Message('note_on', channel=14, note=62, velocity=0, time=119),
    Message('note_on', channel=14, note=62, velocity=126, time=1),
    Message('note_on', channel=14, note=62, velocity=0, time=119),
    Message('note_on', channel=14, note=62, velocity=126, time=1),
    Message('note_on', channel=14, note=62, velocity=0, time=119),
    Message('note_on', channel=14, note=64, velocity=126, time=1),
    Message('control_change', channel=14, control=2, value=126, time=0),
    Message('note_on', channel=14, note=64, velocity=0, time=119),
    Message('note_on', channel=14, note=64, velocity=126, time=1),
    Message('note_on', channel=14, note=64, velocity=0, time=119),
    Message('note_on', channel=14, note=64, velocity=126, time=1),
    Message('note_on', channel=14, note=64, velocity=0, time=119),
    Message('note_on', channel=14, note=64, velocity=126, time=1),
    Message('note_on', channel=14, note=64, velocity=0, time=119),
    Message('note_on', channel=14, note=66, velocity=126, time=1),
    Message('control_change', channel=14, control=2, value=126, time=0),
    Message('note_on', channel=14, note=66, velocity=0, time=118),
    Message('note_on', channel=14, note=66, velocity=126, time=1),
    Message('note_on', channel=14, note=66, velocity=0, time=118),
    Message('note_on', channel=14, note=66, velocity=126, time=2),
    Message('note_on', channel=14, note=66, velocity=0, time=118),
    Message('note_on', channel=14, note=66, velocity=126, time=1),
    Message('note_on', channel=14, note=66, velocity=0, time=118),
    Message('note_on', channel=14, note=66, velocity=126, time=2),
    Message('note_on', channel=14, note=66, velocity=0, time=118),
    Message('note_on', channel=14, note=66, velocity=126, time=1),
    Message('note_on', channel=14, note=66, velocity=0, time=118),
    Message('note_on', channel=14, note=66, velocity=126, time=2),
    Message('note_on', channel=14, note=66, velocity=0, time=118),
    Message('note_on', channel=14, note=66, velocity=126, time=1),
    Message('note_on', channel=14, note=66, velocity=0, time=118),
    Message('note_on', channel=14, note=66, velocity=126, time=2),
    Message('note_on', channel=14, note=66, velocity=0, time=118),
    Message('note_on', channel=14, note=66, velocity=126, time=1),
    Message('note_on', channel=14, note=66, velocity=0, time=118),
    Message('note_on', channel=14, note=66, velocity=126, time=2),
    Message('note_on', channel=14, note=66, velocity=0, time=118),
    Message('note_on', channel=14, note=66, velocity=126, time=1),
    Message('note_on', channel=14, note=66, velocity=0, time=118),
    Message('note_on', channel=14, note=62, velocity=126, time=8),
    Message('control_change', channel=14, control=2, value=126, time=0),
    Message('note_on', channel=14, note=62, velocity=0, time=119),
    Message('note_on', channel=14, note=62, velocity=126, time=1),
    Message('note_on', channel=14, note=62, velocity=0, time=119),
    Message('note_on', channel=14, note=62, velocity=126, time=1),
    Message('note_on', channel=14, note=62, velocity=0, time=119),
    Message('note_on', channel=14, note=62, velocity=126, time=1),
    Message('note_on', channel=14, note=62, velocity=0, time=119),
    Message('note_on', channel=14, note=54, velocity=80, time=17281),
    Message('control_change', channel=14, control=2, value=80, time=0),
    Message('note_on', channel=14, note=54, velocity=0, time=1919),
    Message('note_on', channel=14, note=47, velocity=80, time=1),
    Message('control_change', channel=14, control=2, value=80, time=0),
    Message('note_on', channel=14, note=47, velocity=0, time=479),
    Message('note_on', channel=14, note=49, velocity=80, time=1),
    Message('control_change', channel=14, control=2, value=80, time=0),
    Message('note_on', channel=14, note=49, velocity=0, time=479),
    Message('note_on', channel=14, note=50, velocity=80, time=1),
    Message('control_change', channel=14, control=2, value=80, time=0),
    Message('note_on', channel=14, note=50, velocity=0, time=479),
    Message('note_on', channel=14, note=52, velocity=80, time=1),
    Message('control_change', channel=14, control=2, value=80, time=0),
    Message('note_on', channel=14, note=52, velocity=0, time=479),
    Message('note_on', channel=14, note=54, velocity=80, time=1),
    Message('control_change', channel=14, control=2, value=80, time=0),
    Message('note_on', channel=14, note=54, velocity=0, time=1439),
    Message('note_on', channel=14, note=50, velocity=80, time=1),
    Message('control_change', channel=14, control=2, value=80, time=0),
    Message('note_on', channel=14, note=50, velocity=0, time=479),
    Message('note_on', channel=14, note=54, velocity=80, time=1),
    Message('control_change', channel=14, control=2, value=80, time=0),
    Message('note_on', channel=14, note=54, velocity=0, time=1439),
    Message('note_on', channel=14, note=50, velocity=80, time=1),
    Message('control_change', channel=14, control=2, value=80, time=0),
    Message('note_on', channel=14, note=50, velocity=0, time=479),
    Message('control_change', channel=14, control=2, value=80, time=1),
    Message('note_on', channel=14, note=47, velocity=80, time=0),
    Message('control_change', channel=14, control=2, value=79, time=103),
    Message('control_change', channel=14, control=2, value=78, time=102),
    Message('control_change', channel=14, control=2, value=77, time=102),
    Message('control_change', channel=14, control=2, value=76, time=102),
    Message('note_on', channel=14, note=47, velocity=0, time=70),
    Message('note_on', channel=14, note=47, velocity=62, time=1441),
    Message('control_change', channel=14, control=2, value=62, time=0),
    Message('control_change', channel=14, control=2, value=61, time=21),
    Message('control_change', channel=14, control=2, value=60, time=102),
    Message('control_change', channel=14, control=2, value=59, time=102),
    Message('control_change', channel=14, control=2, value=58, time=102),
    Message('control_change', channel=14, control=2, value=57, time=102),
    Message('note_on', channel=14, note=47, velocity=0, time=50),
    Message('control_change', channel=14, control=2, value=56, time=53),
    Message('control_change', channel=14, control=2, value=55, time=102),
    Message('control_change', channel=14, control=2, value=54, time=102),
    Message('control_change', channel=14, control=2, value=53, time=102),
    Message('control_change', channel=14, control=2, value=52, time=102),
    Message('note_on', channel=14, note=47, velocity=52, time=20),
    Message('control_change', channel=14, control=2, value=52, time=0),
    Message('control_change', channel=14, control=2, value=51, time=82),
    Message('control_change', channel=14, control=2, value=50, time=102),
    Message('control_change', channel=14, control=2, value=49, time=102),
    Message('control_change', channel=14, control=2, value=48, time=103),
    Message('note_on', channel=14, note=47, velocity=0, time=90),
    Message('control_change', channel=14, control=2, value=47, time=12),
    Message('control_change', channel=14, control=2, value=46, time=102),
    Message('control_change', channel=14, control=2, value=45, time=102),
    Message('control_change', channel=14, control=2, value=44, time=102),
    Message('control_change', channel=14, control=2, value=43, time=102),
    Message('note_on', channel=14, note=47, velocity=43, time=61),
    Message('control_change', channel=14, control=2, value=43, time=0),
    Message('control_change', channel=14, control=2, value=42, time=41),
    Message('control_change', channel=14, control=2, value=41, time=102),
    Message('control_change', channel=14, control=2, value=40, time=103),
    Message('control_change', channel=14, control=2, value=39, time=102),
    Message('control_change', channel=14, control=2, value=38, time=102),
    Message('note_on', channel=14, note=47, velocity=0, time=29),
    Message('control_change', channel=14, control=2, value=37, time=73),
    Message('control_change', channel=14, control=2, value=36, time=102),
    Message('control_change', channel=14, control=2, value=35, time=102),
    Message('control_change', channel=14, control=2, value=34, time=102),
    Message('control_change', channel=14, control=2, value=33, time=102),
    MetaMessage('end_of_track', time=1)]),
  MidiTrack([
    MetaMessage('track_name', name='Contrabasses\x00', time=0),
    MetaMessage('key_signature', key='D', time=0),
    Message('control_change', channel=1, control=121, value=0, time=0),
    Message('program_change', channel=1, program=48, time=0),
    Message('control_change', channel=1, control=7, value=100, time=0),
    Message('control_change', channel=1, control=10, value=64, time=0),
    Message('control_change', channel=1, control=91, value=0, time=0),
    Message('control_change', channel=1, control=93, value=0, time=0),
    MetaMessage('midi_port', port=2, time=0),
    Message('control_change', channel=2, control=121, value=0, time=0),
    Message('program_change', channel=2, program=45, time=0),
    Message('control_change', channel=2, control=7, value=100, time=0),
    Message('control_change', channel=2, control=10, value=64, time=0),
    Message('control_change', channel=2, control=91, value=0, time=0),
    Message('control_change', channel=2, control=93, value=0, time=0),
    MetaMessage('midi_port', port=2, time=0),
    Message('control_change', channel=3, control=121, value=0, time=0),
    Message('program_change', channel=3, program=44, time=0),
    Message('control_change', channel=3, control=7, value=100, time=0),
    Message('control_change', channel=3, control=10, value=64, time=0),
    Message('control_change', channel=3, control=91, value=0, time=0),
    Message('control_change', channel=3, control=93, value=0, time=0),
    MetaMessage('midi_port', port=2, time=0),
    Message('note_on', channel=2, note=35, velocity=49, time=1920),
    Message('control_change', channel=2, control=2, value=49, time=0),
    Message('note_on', channel=2, note=35, velocity=0, time=479),
    Message('note_on', channel=2, note=35, velocity=49, time=5281),
    Message('control_change', channel=2, control=2, value=49, time=0),
    Message('note_on', channel=2, note=35, velocity=0, time=479),
    Message('note_on', channel=2, note=35, velocity=49, time=7201),
    Message('control_change', channel=2, control=2, value=49, time=0),
    Message('note_on', channel=2, note=35, velocity=0, time=479),
    Message('note_on', channel=2, note=47, velocity=49, time=481),
    Message('control_change', channel=2, control=2, value=49, time=0),
    Message('note_on', channel=2, note=47, velocity=0, time=479),
    Message('note_on', channel=2, note=45, velocity=49, time=481),
    Message('control_change', channel=2, control=2, value=49, time=0),
    Message('note_on', channel=2, note=45, velocity=0, time=479),
    Message('note_on', channel=2, note=43, velocity=49, time=481),
    Message('control_change', channel=2, control=2, value=49, time=0),
    Message('note_on', channel=2, note=43, velocity=0, time=479),
    Message('note_on', channel=2, note=42, velocity=49, time=481),
    Message('control_change', channel=2, control=2, value=49, time=0),
    Message('note_on', channel=2, note=42, velocity=0, time=479),
    Message('note_on', channel=2, note=40, velocity=49, time=1441),
    Message('control_change', channel=2, control=2, value=49, time=0),
    Message('note_on', channel=2, note=40, velocity=0, time=479),
    Message('note_on', channel=2, note=38, velocity=49, time=481),
    Message('control_change', channel=2, control=2, value=49, time=0),
    Message('note_on', channel=2, note=38, velocity=0, time=479),
    Message('note_on', channel=2, note=37, velocity=49, time=481),
    Message('control_change', channel=2, control=2, value=49, time=0),
    Message('note_on', channel=2, note=37, velocity=0, time=479),
    Message('note_on', channel=2, note=42, velocity=49, time=481),
    Message('control_change', channel=2, control=2, value=49, time=0),
    Message('note_on', channel=2, note=42, velocity=0, time=479),
    Message('note_on', channel=2, note=47, velocity=49, time=1),
    Message('control_change', channel=2, control=2, value=49, time=0),
    Message('note_on', channel=2, note=47, velocity=0, time=479),
    Message('note_on', channel=2, note=45, velocity=49, time=1),
    Message('control_change', channel=2, control=2, value=49, time=0),
    Message('note_on', channel=2, note=45, velocity=0, time=479),
    Message('note_on', channel=2, note=43, velocity=49, time=481),
    Message('control_change', channel=2, control=2, value=49, time=0),
    Message('note_on', channel=2, note=43, velocity=0, time=479),
    Message('note_on', channel=2, note=42, velocity=49, time=481),
    Message('control_change', channel=2, control=2, value=49, time=0),
    Message('note_on', channel=2, note=42, velocity=0, time=479),
    Message('note_on', channel=2, note=40, velocity=49, time=1441),
    Message('control_change', channel=2, control=2, value=49, time=0),
    Message('control_change', channel=2, control=2, value=50, time=123),
    Message('control_change', channel=2, control=2, value=51, time=123),
    Message('control_change', channel=2, control=2, value=52, time=122),
    Message('note_on', channel=2, note=40, velocity=0, time=111),
    Message('note_on', channel=2, note=38, velocity=56, time=481),
    Message('control_change', channel=2, control=2, value=56, time=0),
    Message('control_change', channel=2, control=2, value=57, time=21),
    Message('control_change', channel=2, control=2, value=58, time=122),
    Message('control_change', channel=2, control=2, value=59, time=123),
    Message('control_change', channel=2, control=2, value=60, time=123),
    Message('note_on', channel=2, note=38, velocity=0, time=90),
    Message('note_on', channel=2, note=50, velocity=60, time=1),
    Message('control_change', channel=2, control=2, value=60, time=0),
    Message('control_change', channel=2, control=2, value=61, time=31),
    Message('control_change', channel=2, control=2, value=62, time=123),
    Message('control_change', channel=2, control=2, value=63, time=122),
    Message('control_change', channel=2, control=2, value=64, time=123),
    Message('note_on', channel=2, note=50, velocity=0, time=80),
    Message('note_on', channel=2, note=48, velocity=64, time=1),
    Message('control_change', channel=2, control=2, value=64, time=0),
    Message('control_change', channel=2, control=2, value=65, time=41),
    Message('control_change', channel=2, control=2, value=66, time=123),
    Message('control_change', channel=2, control=2, value=67, time=122),
    Message('control_change', channel=2, control=2, value=68, time=123),
    Message('note_on', channel=2, note=48, velocity=0, time=70),
    Message('control_change', channel=2, control=2, value=69, time=53),
    Message('control_change', channel=2, control=2, value=70, time=122),
    Message('control_change', channel=2, control=2, value=71, time=123),
    Message('control_change', channel=2, control=2, value=72, time=122),
    Message('note_on', channel=2, note=46, velocity=72, time=61),
    Message('control_change', channel=2, control=2, value=72, time=0),
    Message('control_change', channel=2, control=2, value=73, time=62),
    Message('control_change', channel=2, control=2, value=74, time=122),
    Message('control_change', channel=2, control=2, value=75, time=123),
    Message('control_change', channel=2, control=2, value=76, time=122),
    Message('note_on', channel=2, note=46, velocity=0, time=50),
    Message('control_change', channel=2, control=2, value=77, time=73),
    Message('control_change', channel=2, control=2, value=78, time=123),
    Message('control_change', channel=2, control=2, value=79, time=122),
    Message('control_change', channel=2, control=2, value=80, time=123),
    Message('note_on', channel=2, note=44, velocity=80, time=40),
    Message('control_change', channel=2, control=2, value=80, time=0),
    Message('control_change', channel=2, control=2, value=81, time=82),
    Message('control_change', channel=2, control=2, value=82, time=123),
    Message('control_change', channel=2, control=2, value=83, time=122),
    Message('control_change', channel=2, control=2, value=84, time=123),
    Message('note_on', channel=2, note=44, velocity=0, time=29),
    Message('control_change', channel=2, control=2, value=85, time=93),
    Message('control_change', channel=2, control=2, value=86, time=123),
    Message('control_change', channel=2, control=2, value=87, time=123),
    Message('control_change', channel=2, control=2, value=88, time=122),
    Message('note_on', channel=2, note=42, velocity=88, time=20),
    Message('control_change', channel=2, control=2, value=88, time=0),
    Message('control_change', channel=2, control=2, value=89, time=103),
    Message('control_change', channel=2, control=2, value=90, time=122),
    Message('control_change', channel=2, control=2, value=91, time=123),
    Message('control_change', channel=2, control=2, value=92, time=122),
    Message('note_on', channel=2, note=42, velocity=0, time=9),
    Message('control_change', channel=2, control=2, value=93, time=114),
    Message('control_change', channel=2, control=2, value=94, time=122),
    Message('control_change', channel=2, control=2, value=95, time=123),
    Message('note_on', channel=1, note=35, velocity=96, time=122),
    Message('control_change', channel=1, control=2, value=96, time=0),
    Message('control_change', channel=2, control=2, value=96, time=0),
    Message('control_change', channel=1, control=2, value=96, time=1920),
    Message('note_on', channel=1, note=35, velocity=0, time=1919),
    Message('note_on', channel=1, note=35, velocity=96, time=1),
    Message('control_change', channel=1, control=2, value=96, time=0),
    Message('control_change', channel=1, control=2, value=96, time=1920),
    Message('note_on', channel=1, note=35, velocity=0, time=1919),
    Message('note_on', channel=1, note=35, velocity=96, time=1),
    Message('control_change', channel=1, control=2, value=96, time=0),
    Message('control_change', channel=1, control=2, value=96, time=1920),
    Message('note_on', channel=1, note=35, velocity=0, time=1919),
    Message('note_on', channel=1, note=35, velocity=96, time=1),
    Message('control_change', channel=1, control=2, value=96, time=0),
    Message('control_change', channel=1, control=2, value=96, time=1920),
    Message('note_on', channel=1, note=35, velocity=0, time=479),
    Message('note_on', channel=2, note=47, velocity=96, time=481),
    Message('control_change', channel=2, control=2, value=96, time=0),
    Message('note_on', channel=2, note=47, velocity=0, time=479),
    Message('note_on', channel=2, note=45, velocity=96, time=481),
    Message('control_change', channel=2, control=2, value=96, time=0),
    Message('note_on', channel=2, note=45, velocity=0, time=479),
    Message('note_on', channel=2, note=43, velocity=96, time=481),
    Message('control_change', channel=2, control=2, value=96, time=0),
    Message('note_on', channel=2, note=43, velocity=0, time=479),
    Message('note_on', channel=2, note=42, velocity=96, time=481),
    Message('control_change', channel=2, control=2, value=96, time=0),
    Message('note_on', channel=2, note=42, velocity=0, time=479),
    Message('note_on', channel=2, note=40, velocity=96, time=1441),
    Message('control_change', channel=2, control=2, value=96, time=0),
    Message('note_on', channel=2, note=40, velocity=0, time=479),
    Message('note_on', channel=2, note=38, velocity=96, time=481),
    Message('control_change', channel=2, control=2, value=96, time=0),
    Message('note_on', channel=2, note=38, velocity=0, time=479),
    Message('note_on', channel=2, note=37, velocity=96, time=481),
    Message('control_change', channel=2, control=2, value=96, time=0),
    Message('note_on', channel=2, note=37, velocity=0, time=479),
    Message('note_on', channel=2, note=42, velocity=96, time=481),
    Message('control_change', channel=2, control=2, value=96, time=0),
    Message('note_on', channel=2, note=42, velocity=0, time=479),
    Message('note_on', channel=2, note=47, velocity=96, time=1),
    Message('control_change', channel=2, control=2, value=96, time=0),
    Message('note_on', channel=2, note=47, velocity=0, time=479),
    Message('note_on', channel=2, note=45, velocity=96, time=1),
    Message('control_change', channel=2, control=2, value=96, time=0),
    Message('note_on', channel=2, note=45, velocity=0, time=479),
    Message('note_on', channel=2, note=43, velocity=96, time=481),
    Message('control_change', channel=2, control=2, value=96, time=0),
    Message('note_on', channel=2, note=43, velocity=0, time=479),
    Message('note_on', channel=2, note=42, velocity=96, time=481),
    Message('control_change', channel=2, control=2, value=96, time=0),
    Message('note_on', channel=2, note=42, velocity=0, time=479),
    Message('note_on', channel=2, note=40, velocity=96, time=1441),
    Message('control_change', channel=2, control=2, value=96, time=0),
    Message('note_on', channel=2, note=40, velocity=0, time=479),
    Message('note_on', channel=2, note=38, velocity=96, time=481),
    Message('control_change', channel=2, control=2, value=96, time=0),
    Message('note_on', channel=2, note=38, velocity=0, time=479),
    Message('note_on', channel=2, note=36, velocity=96, time=481),
    Message('control_change', channel=2, control=2, value=96, time=0),
    Message('note_on', channel=2, note=36, velocity=0, time=479),
    Message('note_on', channel=2, note=40, velocity=96, time=481),
    Message('control_change', channel=2, control=2, value=96, time=0),
    Message('note_on', channel=2, note=40, velocity=0, time=479),
    Message('note_on', channel=2, note=42, velocity=96, time=481),
    Message('control_change', channel=2, control=2, value=96, time=0),
    Message('note_on', channel=2, note=42, velocity=0, time=479),
    Message('note_on', channel=2, note=40, velocity=96, time=481),
    Message('control_change', channel=2, control=2, value=96, time=0),
    Message('note_on', channel=2, note=40, velocity=0, time=479),
    Message('note_on', channel=2, note=36, velocity=96, time=481),
    Message('control_change', channel=2, control=2, value=96, time=0),
    Message('note_on', channel=2, note=36, velocity=0, time=479),
    Message('note_on', channel=2, note=40, velocity=96, time=481),
    Message('control_change', channel=2, control=2, value=96, time=0),
    Message('note_on', channel=2, note=40, velocity=0, time=479),
    Message('note_on', channel=2, note=42, velocity=96, time=481),
    Message('control_change', channel=2, control=2, value=96, time=0),
    Message('note_on', channel=2, note=42, velocity=0, time=479),
    Message('note_on', channel=2, note=40, velocity=96, time=481),
    Message('control_change', channel=2, control=2, value=96, time=0),
    Message('note_on', channel=2, note=40, velocity=0, time=479),
    Message('note_on', channel=1, note=36, velocity=96, time=481),
    Message('control_change', channel=1, control=2, value=96, time=0),
    Message('control_change', channel=1, control=2, value=97, time=480),
    Message('control_change', channel=1, control=2, value=98, time=480),
    Message('control_change', channel=1, control=2, value=99, time=480),
    Message('note_on', channel=1, note=36, velocity=0, time=479),
    Message('control_change', channel=1, control=2, value=100, time=1),
    Message('note_on', channel=1, note=42, velocity=100, time=0),
    Message('control_change', channel=1, control=2, value=101, time=480),
    Message('control_change', channel=1, control=2, value=102, time=480),
    Message('control_change', channel=1, control=2, value=103, time=480),
    Message('note_on', channel=1, note=42, velocity=0, time=479),
    Message('control_change', channel=1, control=2, value=104, time=1),
    Message('note_on', channel=1, note=36, velocity=104, time=0),
    Message('control_change', channel=1, control=2, value=105, time=480),
    Message('control_change', channel=1, control=2, value=106, time=480),
    Message('control_change', channel=1, control=2, value=107, time=480),
    Message('note_on', channel=1, note=36, velocity=0, time=479),
    Message('control_change', channel=1, control=2, value=108, time=1),
    Message('note_on', channel=1, note=42, velocity=108, time=0),
    Message('control_change', channel=1, control=2, value=109, time=480),
    Message('control_change', channel=1, control=2, value=110, time=480),
    Message('control_change', channel=1, control=2, value=111, time=480),
    Message('note_on', channel=1, note=42, velocity=0, time=479),
    Message('control_change', channel=1, control=2, value=112, time=1),
    Message('note_on', channel=1, note=36, velocity=112, time=0),
    Message('note_on', channel=1, note=36, velocity=0, time=959),
    Message('note_on', channel=1, note=48, velocity=112, time=1),
    Message('control_change', channel=1, control=2, value=112, time=0),
    Message('note_on', channel=1, note=48, velocity=0, time=959),
    Message('note_on', channel=1, note=47, velocity=112, time=1),
    Message('control_change', channel=1, control=2, value=112, time=0),
    Message('note_on', channel=1, note=47, velocity=0, time=319),
    Message('note_on', channel=1, note=40, velocity=112, time=1),
    Message('control_change', channel=1, control=2, value=112, time=0),
    Message('note_on', channel=1, note=40, velocity=0, time=319),
    Message('note_on', channel=1, note=47, velocity=112, time=1),
    Message('control_change', channel=1, control=2, value=112, time=0),
    Message('note_on', channel=1, note=47, velocity=0, time=319),
    Message('note_on', channel=1, note=47, velocity=112, time=1),
    Message('control_change', channel=1, control=2, value=112, time=0),
    Message('note_on', channel=1, note=47, velocity=0, time=319),
    Message('note_on', channel=1, note=40, velocity=112, time=1),
    Message('control_change', channel=1, control=2, value=112, time=0),
    Message('note_on', channel=1, note=40, velocity=0, time=319),
    Message('note_on', channel=1, note=47, velocity=112, time=1),
    Message('control_change', channel=1, control=2, value=112, time=0),
    Message('note_on', channel=1, note=47, velocity=0, time=319),
    Message('note_on', channel=1, note=46, velocity=112, time=1),
    Message('control_change', channel=1, control=2, value=112, time=0),
    Message('note_on', channel=1, note=46, velocity=0, time=1919),
    Message('note_on', channel=1, note=42, velocity=112, time=1),
    Message('control_change', channel=1, control=2, value=112, time=0),
    Message('note_on', channel=1, note=42, velocity=0, time=1919),
    Message('note_on', channel=1, note=42, velocity=112, time=1),
    Message('control_change', channel=1, control=2, value=112, time=0),
    Message('note_on', channel=1, note=42, velocity=0, time=959),
    Message('note_on', channel=1, note=42, velocity=112, time=1),
    Message('control_change', channel=1, control=2, value=112, time=0),
    Message('note_on', channel=1, note=42, velocity=0, time=959),
    Message('note_on', channel=1, note=42, velocity=112, time=1),
    Message('control_change', channel=1, control=2, value=112, time=0),
    Message('note_on', channel=1, note=42, velocity=0, time=959),
    Message('note_on', channel=1, note=42, velocity=112, time=1),
    Message('control_change', channel=1, control=2, value=112, time=0),
    Message('note_on', channel=1, note=42, velocity=0, time=959),
    Message('note_on', channel=1, note=52, velocity=112, time=4321),
    Message('control_change', channel=1, control=2, value=112, time=0),
    Message('note_on', channel=1, note=52, velocity=0, time=479),
    Message('note_on', channel=1, note=49, velocity=112, time=1),
    Message('control_change', channel=1, control=2, value=112, time=0),
    Message('note_on', channel=1, note=49, velocity=0, time=479),
    Message('note_on', channel=1, note=46, velocity=112, time=1),
    Message('control_change', channel=1, control=2, value=112, time=0),
    Message('note_on', channel=1, note=46, velocity=0, time=479),
    Message('note_on', channel=1, note=42, velocity=112, time=1),
    Message('control_change', channel=1, control=2, value=112, time=0),
    Message('note_on', channel=1, note=42, velocity=0, time=479),
    Message('note_on', channel=1, note=40, velocity=112, time=1),
    Message('control_change', channel=1, control=2, value=112, time=0),
    Message('note_on', channel=1, note=40, velocity=0, time=479),
    Message('note_on', channel=1, note=38, velocity=112, time=1),
    Message('control_change', channel=1, control=2, value=112, time=0),
    Message('note_on', channel=1, note=38, velocity=0, time=479),
    Message('note_on', channel=1, note=37, velocity=112, time=1),
    Message('control_change', channel=1, control=2, value=112, time=0),
    Message('note_on', channel=1, note=37, velocity=0, time=479),
    Message('control_change', channel=1, control=2, value=126, time=1),
    Message('note_on', channel=1, note=35, velocity=126, time=0),
    Message('control_change', channel=1, control=2, value=126, time=1920),
    Message('note_on', channel=1, note=35, velocity=0, time=479),
    Message('note_on', channel=1, note=35, velocity=126, time=2401),
    Message('control_change', channel=1, control=2, value=126, time=0),
    Message('note_on', channel=1, note=35, velocity=0, time=959),
    Message('note_on', channel=1, note=35, velocity=126, time=961),
    Message('control_change', channel=1, control=2, value=126, time=0),
    Message('note_on', channel=1, note=35, velocity=0, time=959),
    Message('note_on', channel=1, note=35, velocity=126, time=481),
    Message('control_change', channel=1, control=2, value=126, time=0),
    Message('note_on', channel=1, note=35, velocity=0, time=479),
    Message('note_on', channel=1, note=35, velocity=126, time=481),
    Message('control_change', channel=1, control=2, value=126, time=0),
    Message('note_on', channel=1, note=35, velocity=0, time=479),
    Message('note_on', channel=1, note=35, velocity=126, time=481),
    Message('control_change', channel=1, control=2, value=126, time=0),
    Message('note_on', channel=1, note=35, velocity=0, time=479),
    Message('note_on', channel=1, note=35, velocity=126, time=481),
    Message('control_change', channel=1, control=2, value=126, time=0),
    Message('note_on', channel=1, note=35, velocity=0, time=479),
    Message('note_on', channel=1, note=35, velocity=126, time=481),
    Message('control_change', channel=1, control=2, value=126, time=0),
    Message('note_on', channel=1, note=35, velocity=0, time=479),
    Message('note_on', channel=1, note=35, velocity=126, time=481),
    Message('control_change', channel=1, control=2, value=126, time=0),
    Message('note_on', channel=1, note=35, velocity=0, time=479),
    Message('note_on', channel=1, note=35, velocity=126, time=481),
    Message('control_change', channel=1, control=2, value=126, time=0),
    Message('note_on', channel=1, note=35, velocity=0, time=479),
    Message('note_on', channel=1, note=35, velocity=126, time=481),
    Message('control_change', channel=1, control=2, value=126, time=0),
    Message('note_on', channel=1, note=35, velocity=0, time=479),
    Message('note_on', channel=1, note=42, velocity=80, time=7681),
    Message('control_change', channel=1, control=2, value=80, time=0),
    Message('note_on', channel=1, note=42, velocity=0, time=1919),
    Message('note_on', channel=1, note=35, velocity=80, time=1),
    Message('control_change', channel=1, control=2, value=80, time=0),
    Message('note_on', channel=1, note=35, velocity=0, time=479),
    Message('note_on', channel=1, note=37, velocity=80, time=1),
    Message('control_change', channel=1, control=2, value=80, time=0),
    Message('note_on', channel=1, note=37, velocity=0, time=479),
    Message('note_on', channel=1, note=38, velocity=80, time=1),
    Message('control_change', channel=1, control=2, value=80, time=0),
    Message('note_on', channel=1, note=38, velocity=0, time=479),
    Message('note_on', channel=1, note=40, velocity=80, time=1),
    Message('control_change', channel=1, control=2, value=80, time=0),
    Message('note_on', channel=1, note=40, velocity=0, time=479),
    Message('note_on', channel=1, note=42, velocity=80, time=1),
    Message('control_change', channel=1, control=2, value=80, time=0),
    Message('note_on', channel=1, note=42, velocity=0, time=1439),
    Message('note_on', channel=1, note=38, velocity=80, time=1),
    Message('control_change', channel=1, control=2, value=80, time=0),
    Message('note_on', channel=1, note=38, velocity=0, time=479),
    Message('note_on', channel=1, note=42, velocity=80, time=1),
    Message('control_change', channel=1, control=2, value=80, time=0),
    Message('note_on', channel=1, note=42, velocity=0, time=1439),
    Message('note_on', channel=1, note=38, velocity=80, time=1),
    Message('control_change', channel=1, control=2, value=80, time=0),
    Message('note_on', channel=1, note=38, velocity=0, time=479),
    Message('control_change', channel=1, control=2, value=80, time=1),
    Message('note_on', channel=1, note=35, velocity=80, time=0),
    Message('control_change', channel=1, control=2, value=79, time=103),
    Message('control_change', channel=1, control=2, value=78, time=102),
    Message('control_change', channel=1, control=2, value=77, time=102),
    Message('control_change', channel=1, control=2, value=76, time=102),
    Message('note_on', channel=1, note=35, velocity=0, time=70),
    Message('note_on', channel=1, note=35, velocity=62, time=1441),
    Message('control_change', channel=1, control=2, value=62, time=0),
    Message('control_change', channel=1, control=2, value=61, time=21),
    Message('control_change', channel=1, control=2, value=60, time=102),
    Message('control_change', channel=1, control=2, value=59, time=102),
    Message('control_change', channel=1, control=2, value=58, time=102),
    Message('control_change', channel=1, control=2, value=57, time=102),
    Message('note_on', channel=1, note=35, velocity=0, time=50),
    Message('control_change', channel=1, control=2, value=56, time=53),
    Message('control_change', channel=1, control=2, value=55, time=102),
    Message('control_change', channel=1, control=2, value=54, time=102),
    Message('control_change', channel=1, control=2, value=53, time=102),
    Message('control_change', channel=1, control=2, value=52, time=102),
    Message('note_on', channel=1, note=35, velocity=52, time=20),
    Message('control_change', channel=1, control=2, value=52, time=0),
    Message('control_change', channel=1, control=2, value=51, time=82),
    Message('control_change', channel=1, control=2, value=50, time=102),
    Message('control_change', channel=1, control=2, value=49, time=102),
    Message('control_change', channel=1, control=2, value=48, time=103),
    Message('note_on', channel=1, note=35, velocity=0, time=90),
    Message('control_change', channel=1, control=2, value=47, time=12),
    Message('control_change', channel=1, control=2, value=46, time=102),
    Message('control_change', channel=1, control=2, value=45, time=102),
    Message('control_change', channel=1, control=2, value=44, time=102),
    Message('control_change', channel=1, control=2, value=43, time=102),
    Message('note_on', channel=1, note=35, velocity=43, time=61),
    Message('control_change', channel=1, control=2, value=43, time=0),
    Message('control_change', channel=1, control=2, value=42, time=41),
    Message('control_change', channel=1, control=2, value=41, time=102),
    Message('control_change', channel=1, control=2, value=40, time=103),
    Message('control_change', channel=1, control=2, value=39, time=102),
    Message('control_change', channel=1, control=2, value=38, time=102),
    Message('note_on', channel=1, note=35, velocity=0, time=29),
    Message('control_change', channel=1, control=2, value=37, time=73),
    Message('control_change', channel=1, control=2, value=36, time=102),
    Message('control_change', channel=1, control=2, value=35, time=102),
    Message('control_change', channel=1, control=2, value=34, time=102),
    Message('control_change', channel=1, control=2, value=33, time=102),
    MetaMessage('end_of_track', time=1)])
])